<?xml version="1.0" encoding="utf-8" standalone="no"?>
<!DOCTYPE svg PUBLIC "-//W3C//DTD SVG 1.1//EN"
        "http://www.w3.org/Graphics/SVG/1.1/DTD/svg11.dtd">
<svg xmlns:xlink="http://www.w3.org/1999/xlink" width="441.015pt" height="322.865938pt" viewBox="0 0 441.015 322.865938"
     xmlns="http://www.w3.org/2000/svg" version="1.1">
    <metadata>
        <rdf:RDF xmlns:dc="http://purl.org/dc/elements/1.1/" xmlns:cc="http://creativecommons.org/ns#"
                 xmlns:rdf="http://www.w3.org/1999/02/22-rdf-syntax-ns#">
            <cc:Work>
                <dc:type rdf:resource="http://purl.org/dc/dcmitype/StillImage"/>
                <dc:date>2025-02-18T13:20:23.370243</dc:date>
                <dc:format>image/svg+xml</dc:format>
                <dc:creator>
                    <cc:Agent>
                        <dc:title>Matplotlib v3.10.0, https://matplotlib.org/</dc:title>
                    </cc:Agent>
                </dc:creator>
            </cc:Work>
        </rdf:RDF>
    </metadata>
    <defs>
        <style type="text/css">*{stroke-linejoin: round; stroke-linecap: butt}</style>
    </defs>
    <g id="figure_1">
        <g id="patch_1">
            <path d="M 0 322.865938
L 441.015 322.865938 
L 441.015 -0 
L 0 -0 
z
" style="fill: #ffffff"/>
        </g>
        <g id="axes_1">
            <g id="patch_2">
                <path d="M 43.215 284.4
L 433.815 284.4 
L 433.815 7.2 
L 43.215 7.2 
z
" style="fill: #ffffff"/>
            </g>
            <g id="matplotlib.axis_1">
                <g id="xtick_1">
                    <g id="line2d_1">
                        <path d="M 60.969545 284.4
L 60.969545 7.2 
" clip-path="url(#pe581e8186c)" style="fill: none; stroke: #cccccc; stroke-width: 0.8; stroke-linecap: round"/>
                    </g>
                    <g id="text_1">
                        <!-- 0 -->
                        <g style="fill: #555555" transform="translate(58.189077 298.557813) scale(0.1 -0.1)">
                            <defs>
                                <path id="ArialMT-30" d="M 266 2259
Q 266 3072 433 3567 
Q 600 4063 929 4331 
Q 1259 4600 1759 4600 
Q 2128 4600 2406 4451 
Q 2684 4303 2865 4023 
Q 3047 3744 3150 3342 
Q 3253 2941 3253 2259 
Q 3253 1453 3087 958 
Q 2922 463 2592 192 
Q 2263 -78 1759 -78 
Q 1097 -78 719 397 
Q 266 969 266 2259 
z
M 844 2259 
Q 844 1131 1108 757 
Q 1372 384 1759 384 
Q 2147 384 2411 759 
Q 2675 1134 2675 2259 
Q 2675 3391 2411 3762 
Q 2147 4134 1753 4134 
Q 1366 4134 1134 3806 
Q 844 3388 844 2259 
z
" transform="scale(0.015625)"/>
                            </defs>
                            <use xlink:href="#ArialMT-30"/>
                        </g>
                    </g>
                </g>
                <g id="xtick_2">
                    <g id="line2d_2">
                        <path d="M 131.987727 284.4
L 131.987727 7.2 
" clip-path="url(#pe581e8186c)" style="fill: none; stroke: #cccccc; stroke-width: 0.8; stroke-linecap: round"/>
                    </g>
                    <g id="text_2">
                        <!-- 2 -->
                        <g style="fill: #555555" transform="translate(129.207259 298.557813) scale(0.1 -0.1)">
                            <defs>
                                <path id="ArialMT-32" d="M 3222 541
L 3222 0 
L 194 0 
Q 188 203 259 391 
Q 375 700 629 1000 
Q 884 1300 1366 1694 
Q 2113 2306 2375 2664 
Q 2638 3022 2638 3341 
Q 2638 3675 2398 3904 
Q 2159 4134 1775 4134 
Q 1369 4134 1125 3890 
Q 881 3647 878 3216 
L 300 3275 
Q 359 3922 746 4261 
Q 1134 4600 1788 4600 
Q 2447 4600 2831 4234 
Q 3216 3869 3216 3328 
Q 3216 3053 3103 2787 
Q 2991 2522 2730 2228 
Q 2469 1934 1863 1422 
Q 1356 997 1212 845 
Q 1069 694 975 541 
L 3222 541 
z
" transform="scale(0.015625)"/>
                            </defs>
                            <use xlink:href="#ArialMT-32"/>
                        </g>
                    </g>
                </g>
                <g id="xtick_3">
                    <g id="line2d_3">
                        <path d="M 203.005909 284.4
L 203.005909 7.2 
" clip-path="url(#pe581e8186c)" style="fill: none; stroke: #cccccc; stroke-width: 0.8; stroke-linecap: round"/>
                    </g>
                    <g id="text_3">
                        <!-- 4 -->
                        <g style="fill: #555555" transform="translate(200.22544 298.557813) scale(0.1 -0.1)">
                            <defs>
                                <path id="ArialMT-34" d="M 2069 0
L 2069 1097 
L 81 1097 
L 81 1613 
L 2172 4581 
L 2631 4581 
L 2631 1613 
L 3250 1613 
L 3250 1097 
L 2631 1097 
L 2631 0 
L 2069 0 
z
M 2069 1613 
L 2069 3678 
L 634 1613 
L 2069 1613 
z
" transform="scale(0.015625)"/>
                            </defs>
                            <use xlink:href="#ArialMT-34"/>
                        </g>
                    </g>
                </g>
                <g id="xtick_4">
                    <g id="line2d_4">
                        <path d="M 274.024091 284.4
L 274.024091 7.2 
" clip-path="url(#pe581e8186c)" style="fill: none; stroke: #cccccc; stroke-width: 0.8; stroke-linecap: round"/>
                    </g>
                    <g id="text_4">
                        <!-- 6 -->
                        <g style="fill: #555555" transform="translate(271.243622 298.557813) scale(0.1 -0.1)">
                            <defs>
                                <path id="ArialMT-36" d="M 3184 3459
L 2625 3416 
Q 2550 3747 2413 3897 
Q 2184 4138 1850 4138 
Q 1581 4138 1378 3988 
Q 1113 3794 959 3422 
Q 806 3050 800 2363 
Q 1003 2672 1297 2822 
Q 1591 2972 1913 2972 
Q 2475 2972 2870 2558 
Q 3266 2144 3266 1488 
Q 3266 1056 3080 686 
Q 2894 316 2569 119 
Q 2244 -78 1831 -78 
Q 1128 -78 684 439 
Q 241 956 241 2144 
Q 241 3472 731 4075 
Q 1159 4600 1884 4600 
Q 2425 4600 2770 4297 
Q 3116 3994 3184 3459 
z
M 888 1484 
Q 888 1194 1011 928 
Q 1134 663 1356 523 
Q 1578 384 1822 384 
Q 2178 384 2434 671 
Q 2691 959 2691 1453 
Q 2691 1928 2437 2201 
Q 2184 2475 1800 2475 
Q 1419 2475 1153 2201 
Q 888 1928 888 1484 
z
" transform="scale(0.015625)"/>
                            </defs>
                            <use xlink:href="#ArialMT-36"/>
                        </g>
                    </g>
                </g>
                <g id="xtick_5">
                    <g id="line2d_5">
                        <path d="M 345.042273 284.4
L 345.042273 7.2 
" clip-path="url(#pe581e8186c)" style="fill: none; stroke: #cccccc; stroke-width: 0.8; stroke-linecap: round"/>
                    </g>
                    <g id="text_5">
                        <!-- 8 -->
                        <g style="fill: #555555" transform="translate(342.261804 298.557813) scale(0.1 -0.1)">
                            <defs>
                                <path id="ArialMT-38" d="M 1131 2484
Q 781 2613 612 2850 
Q 444 3088 444 3419 
Q 444 3919 803 4259 
Q 1163 4600 1759 4600 
Q 2359 4600 2725 4251 
Q 3091 3903 3091 3403 
Q 3091 3084 2923 2848 
Q 2756 2613 2416 2484 
Q 2838 2347 3058 2040 
Q 3278 1734 3278 1309 
Q 3278 722 2862 322 
Q 2447 -78 1769 -78 
Q 1091 -78 675 323 
Q 259 725 259 1325 
Q 259 1772 486 2073 
Q 713 2375 1131 2484 
z
M 1019 3438 
Q 1019 3113 1228 2906 
Q 1438 2700 1772 2700 
Q 2097 2700 2305 2904 
Q 2513 3109 2513 3406 
Q 2513 3716 2298 3927 
Q 2084 4138 1766 4138 
Q 1444 4138 1231 3931 
Q 1019 3725 1019 3438 
z
M 838 1322 
Q 838 1081 952 856 
Q 1066 631 1291 507 
Q 1516 384 1775 384 
Q 2178 384 2440 643 
Q 2703 903 2703 1303 
Q 2703 1709 2433 1975 
Q 2163 2241 1756 2241 
Q 1359 2241 1098 1978 
Q 838 1716 838 1322 
z
" transform="scale(0.015625)"/>
                            </defs>
                            <use xlink:href="#ArialMT-38"/>
                        </g>
                    </g>
                </g>
                <g id="xtick_6">
                    <g id="line2d_6">
                        <path d="M 416.060455 284.4
L 416.060455 7.2 
" clip-path="url(#pe581e8186c)" style="fill: none; stroke: #cccccc; stroke-width: 0.8; stroke-linecap: round"/>
                    </g>
                    <g id="text_6">
                        <!-- 10 -->
                        <g style="fill: #555555" transform="translate(410.499517 298.557813) scale(0.1 -0.1)">
                            <defs>
                                <path id="ArialMT-31" d="M 2384 0
L 1822 0 
L 1822 3584 
Q 1619 3391 1289 3197 
Q 959 3003 697 2906 
L 697 3450 
Q 1169 3672 1522 3987 
Q 1875 4303 2022 4600 
L 2384 4600 
L 2384 0 
z
" transform="scale(0.015625)"/>
                            </defs>
                            <use xlink:href="#ArialMT-31"/>
                            <use xlink:href="#ArialMT-30" transform="translate(55.615234 0)"/>
                        </g>
                    </g>
                </g>
                <g id="text_7">
                    <!-- pIC50 -->
                    <g style="fill: #333333" transform="translate(222.505313 313.280938) scale(0.12 -0.12)">
                        <defs>
                            <path id="ArialMT-70" d="M 422 -1272
L 422 3319 
L 934 3319 
L 934 2888 
Q 1116 3141 1344 3267 
Q 1572 3394 1897 3394 
Q 2322 3394 2647 3175 
Q 2972 2956 3137 2557 
Q 3303 2159 3303 1684 
Q 3303 1175 3120 767 
Q 2938 359 2589 142 
Q 2241 -75 1856 -75 
Q 1575 -75 1351 44 
Q 1128 163 984 344 
L 984 -1272 
L 422 -1272 
z
M 931 1641 
Q 931 1000 1190 694 
Q 1450 388 1819 388 
Q 2194 388 2461 705 
Q 2728 1022 2728 1688 
Q 2728 2322 2467 2637 
Q 2206 2953 1844 2953 
Q 1484 2953 1207 2617 
Q 931 2281 931 1641 
z
" transform="scale(0.015625)"/>
                            <path id="ArialMT-49" d="M 597 0
L 597 4581 
L 1203 4581 
L 1203 0 
L 597 0 
z
" transform="scale(0.015625)"/>
                            <path id="ArialMT-43" d="M 3763 1606
L 4369 1453 
Q 4178 706 3683 314 
Q 3188 -78 2472 -78 
Q 1731 -78 1267 223 
Q 803 525 561 1097 
Q 319 1669 319 2325 
Q 319 3041 592 3573 
Q 866 4106 1370 4382 
Q 1875 4659 2481 4659 
Q 3169 4659 3637 4309 
Q 4106 3959 4291 3325 
L 3694 3184 
Q 3534 3684 3231 3912 
Q 2928 4141 2469 4141 
Q 1941 4141 1586 3887 
Q 1231 3634 1087 3207 
Q 944 2781 944 2328 
Q 944 1744 1114 1308 
Q 1284 872 1643 656 
Q 2003 441 2422 441 
Q 2931 441 3284 734 
Q 3638 1028 3763 1606 
z
" transform="scale(0.015625)"/>
                            <path id="ArialMT-35" d="M 266 1200
L 856 1250 
Q 922 819 1161 601 
Q 1400 384 1738 384 
Q 2144 384 2425 690 
Q 2706 997 2706 1503 
Q 2706 1984 2436 2262 
Q 2166 2541 1728 2541 
Q 1456 2541 1237 2417 
Q 1019 2294 894 2097 
L 366 2166 
L 809 4519 
L 3088 4519 
L 3088 3981 
L 1259 3981 
L 1013 2750 
Q 1425 3038 1878 3038 
Q 2478 3038 2890 2622 
Q 3303 2206 3303 1553 
Q 3303 931 2941 478 
Q 2500 -78 1738 -78 
Q 1113 -78 717 272 
Q 322 622 266 1200 
z
" transform="scale(0.015625)"/>
                        </defs>
                        <use xlink:href="#ArialMT-70"/>
                        <use xlink:href="#ArialMT-49" transform="translate(55.615234 0)"/>
                        <use xlink:href="#ArialMT-43" transform="translate(83.398438 0)"/>
                        <use xlink:href="#ArialMT-35" transform="translate(155.615234 0)"/>
                        <use xlink:href="#ArialMT-30" transform="translate(211.230469 0)"/>
                    </g>
                </g>
            </g>
            <g id="matplotlib.axis_2">
                <g id="ytick_1">
                    <g id="line2d_7">
                        <path d="M 43.215 271.8
L 433.815 271.8 
" clip-path="url(#pe581e8186c)" style="fill: none; stroke: #cccccc; stroke-width: 0.8; stroke-linecap: round"/>
                    </g>
                    <g id="text_8">
                        <!-- 0.0 -->
                        <g style="fill: #555555" transform="translate(22.315 275.378906) scale(0.1 -0.1)">
                            <defs>
                                <path id="ArialMT-2e" d="M 581 0
L 581 641 
L 1222 641 
L 1222 0 
L 581 0 
z
" transform="scale(0.015625)"/>
                            </defs>
                            <use xlink:href="#ArialMT-30"/>
                            <use xlink:href="#ArialMT-2e" transform="translate(55.615234 0)"/>
                            <use xlink:href="#ArialMT-30" transform="translate(83.398438 0)"/>
                        </g>
                    </g>
                </g>
                <g id="ytick_2">
                    <g id="line2d_8">
                        <path d="M 43.215 221.33568
L 433.815 221.33568 
" clip-path="url(#pe581e8186c)" style="fill: none; stroke: #cccccc; stroke-width: 0.8; stroke-linecap: round"/>
                    </g>
                    <g id="text_9">
                        <!-- 0.2 -->
                        <g style="fill: #555555" transform="translate(22.315 224.914586) scale(0.1 -0.1)">
                            <use xlink:href="#ArialMT-30"/>
                            <use xlink:href="#ArialMT-2e" transform="translate(55.615234 0)"/>
                            <use xlink:href="#ArialMT-32" transform="translate(83.398438 0)"/>
                        </g>
                    </g>
                </g>
                <g id="ytick_3">
                    <g id="line2d_9">
                        <path d="M 43.215 170.87136
L 433.815 170.87136 
" clip-path="url(#pe581e8186c)" style="fill: none; stroke: #cccccc; stroke-width: 0.8; stroke-linecap: round"/>
                    </g>
                    <g id="text_10">
                        <!-- 0.4 -->
                        <g style="fill: #555555" transform="translate(22.315 174.450266) scale(0.1 -0.1)">
                            <use xlink:href="#ArialMT-30"/>
                            <use xlink:href="#ArialMT-2e" transform="translate(55.615234 0)"/>
                            <use xlink:href="#ArialMT-34" transform="translate(83.398438 0)"/>
                        </g>
                    </g>
                </g>
                <g id="ytick_4">
                    <g id="line2d_10">
                        <path d="M 43.215 120.40704
L 433.815 120.40704 
" clip-path="url(#pe581e8186c)" style="fill: none; stroke: #cccccc; stroke-width: 0.8; stroke-linecap: round"/>
                    </g>
                    <g id="text_11">
                        <!-- 0.6 -->
                        <g style="fill: #555555" transform="translate(22.315 123.985946) scale(0.1 -0.1)">
                            <use xlink:href="#ArialMT-30"/>
                            <use xlink:href="#ArialMT-2e" transform="translate(55.615234 0)"/>
                            <use xlink:href="#ArialMT-36" transform="translate(83.398438 0)"/>
                        </g>
                    </g>
                </g>
                <g id="ytick_5">
                    <g id="line2d_11">
                        <path d="M 43.215 69.942719
L 433.815 69.942719 
" clip-path="url(#pe581e8186c)" style="fill: none; stroke: #cccccc; stroke-width: 0.8; stroke-linecap: round"/>
                    </g>
                    <g id="text_12">
                        <!-- 0.8 -->
                        <g style="fill: #555555" transform="translate(22.315 73.521626) scale(0.1 -0.1)">
                            <use xlink:href="#ArialMT-30"/>
                            <use xlink:href="#ArialMT-2e" transform="translate(55.615234 0)"/>
                            <use xlink:href="#ArialMT-38" transform="translate(83.398438 0)"/>
                        </g>
                    </g>
                </g>
                <g id="ytick_6">
                    <g id="line2d_12">
                        <path d="M 43.215 19.478399
L 433.815 19.478399 
" clip-path="url(#pe581e8186c)" style="fill: none; stroke: #cccccc; stroke-width: 0.8; stroke-linecap: round"/>
                    </g>
                    <g id="text_13">
                        <!-- 1.0 -->
                        <g style="fill: #555555" transform="translate(22.315 23.057305) scale(0.1 -0.1)">
                            <use xlink:href="#ArialMT-31"/>
                            <use xlink:href="#ArialMT-2e" transform="translate(55.615234 0)"/>
                            <use xlink:href="#ArialMT-30" transform="translate(83.398438 0)"/>
                        </g>
                    </g>
                </g>
                <g id="text_14">
                    <!-- Density -->
                    <g style="fill: #333333" transform="translate(15.789375 165.80625) rotate(-90) scale(0.12 -0.12)">
                        <defs>
                            <path id="ArialMT-44" d="M 494 0
L 494 4581 
L 2072 4581 
Q 2606 4581 2888 4516 
Q 3281 4425 3559 4188 
Q 3922 3881 4101 3404 
Q 4281 2928 4281 2316 
Q 4281 1794 4159 1391 
Q 4038 988 3847 723 
Q 3656 459 3429 307 
Q 3203 156 2883 78 
Q 2563 0 2147 0 
L 494 0 
z
M 1100 541 
L 2078 541 
Q 2531 541 2789 625 
Q 3047 709 3200 863 
Q 3416 1078 3536 1442 
Q 3656 1806 3656 2325 
Q 3656 3044 3420 3430 
Q 3184 3816 2847 3947 
Q 2603 4041 2063 4041 
L 1100 4041 
L 1100 541 
z
" transform="scale(0.015625)"/>
                            <path id="ArialMT-65" d="M 2694 1069
L 3275 997 
Q 3138 488 2766 206 
Q 2394 -75 1816 -75 
Q 1088 -75 661 373 
Q 234 822 234 1631 
Q 234 2469 665 2931 
Q 1097 3394 1784 3394 
Q 2450 3394 2872 2941 
Q 3294 2488 3294 1666 
Q 3294 1616 3291 1516 
L 816 1516 
Q 847 969 1125 678 
Q 1403 388 1819 388 
Q 2128 388 2347 550 
Q 2566 713 2694 1069 
z
M 847 1978 
L 2700 1978 
Q 2663 2397 2488 2606 
Q 2219 2931 1791 2931 
Q 1403 2931 1139 2672 
Q 875 2413 847 1978 
z
" transform="scale(0.015625)"/>
                            <path id="ArialMT-6e" d="M 422 0
L 422 3319 
L 928 3319 
L 928 2847 
Q 1294 3394 1984 3394 
Q 2284 3394 2536 3286 
Q 2788 3178 2913 3003 
Q 3038 2828 3088 2588 
Q 3119 2431 3119 2041 
L 3119 0 
L 2556 0 
L 2556 2019 
Q 2556 2363 2490 2533 
Q 2425 2703 2258 2804 
Q 2091 2906 1866 2906 
Q 1506 2906 1245 2678 
Q 984 2450 984 1813 
L 984 0 
L 422 0 
z
" transform="scale(0.015625)"/>
                            <path id="ArialMT-73" d="M 197 991
L 753 1078 
Q 800 744 1014 566 
Q 1228 388 1613 388 
Q 2000 388 2187 545 
Q 2375 703 2375 916 
Q 2375 1106 2209 1216 
Q 2094 1291 1634 1406 
Q 1016 1563 777 1677 
Q 538 1791 414 1992 
Q 291 2194 291 2438 
Q 291 2659 392 2848 
Q 494 3038 669 3163 
Q 800 3259 1026 3326 
Q 1253 3394 1513 3394 
Q 1903 3394 2198 3281 
Q 2494 3169 2634 2976 
Q 2775 2784 2828 2463 
L 2278 2388 
Q 2241 2644 2061 2787 
Q 1881 2931 1553 2931 
Q 1166 2931 1000 2803 
Q 834 2675 834 2503 
Q 834 2394 903 2306 
Q 972 2216 1119 2156 
Q 1203 2125 1616 2013 
Q 2213 1853 2448 1751 
Q 2684 1650 2818 1456 
Q 2953 1263 2953 975 
Q 2953 694 2789 445 
Q 2625 197 2315 61 
Q 2006 -75 1616 -75 
Q 969 -75 630 194 
Q 291 463 197 991 
z
" transform="scale(0.015625)"/>
                            <path id="ArialMT-69" d="M 425 3934
L 425 4581 
L 988 4581 
L 988 3934 
L 425 3934 
z
M 425 0 
L 425 3319 
L 988 3319 
L 988 0 
L 425 0 
z
" transform="scale(0.015625)"/>
                            <path id="ArialMT-74" d="M 1650 503
L 1731 6 
Q 1494 -44 1306 -44 
Q 1000 -44 831 53 
Q 663 150 594 308 
Q 525 466 525 972 
L 525 2881 
L 113 2881 
L 113 3319 
L 525 3319 
L 525 4141 
L 1084 4478 
L 1084 3319 
L 1650 3319 
L 1650 2881 
L 1084 2881 
L 1084 941 
Q 1084 700 1114 631 
Q 1144 563 1211 522 
Q 1278 481 1403 481 
Q 1497 481 1650 503 
z
" transform="scale(0.015625)"/>
                            <path id="ArialMT-79" d="M 397 -1278
L 334 -750 
Q 519 -800 656 -800 
Q 844 -800 956 -737 
Q 1069 -675 1141 -563 
Q 1194 -478 1313 -144 
Q 1328 -97 1363 -6 
L 103 3319 
L 709 3319 
L 1400 1397 
Q 1534 1031 1641 628 
Q 1738 1016 1872 1384 
L 2581 3319 
L 3144 3319 
L 1881 -56 
Q 1678 -603 1566 -809 
Q 1416 -1088 1222 -1217 
Q 1028 -1347 759 -1347 
Q 597 -1347 397 -1278 
z
" transform="scale(0.015625)"/>
                        </defs>
                        <use xlink:href="#ArialMT-44"/>
                        <use xlink:href="#ArialMT-65" transform="translate(72.216797 0)"/>
                        <use xlink:href="#ArialMT-6e" transform="translate(127.832031 0)"/>
                        <use xlink:href="#ArialMT-73" transform="translate(183.447266 0)"/>
                        <use xlink:href="#ArialMT-69" transform="translate(233.447266 0)"/>
                        <use xlink:href="#ArialMT-74" transform="translate(255.664062 0)"/>
                        <use xlink:href="#ArialMT-79" transform="translate(283.447266 0)"/>
                    </g>
                </g>
            </g>
            <g id="FillBetweenPolyCollection_1">
                <path d="M 229.548058 27.396642
L 229.548058 271.8 
L 233.134835 271.8 
L 236.721612 271.8 
L 240.308388 271.8 
L 243.895165 271.8 
L 247.481942 271.8 
L 251.068719 271.8 
L 254.655496 271.8 
L 258.242273 271.8 
L 261.82905 271.8 
L 261.82905 68.401881 
L 261.82905 68.401881 
L 258.242273 55.561172 
L 254.655496 44.243472 
L 251.068719 34.764281 
L 247.481942 27.396642 
L 243.895165 22.358094 
L 240.308388 19.8 
L 236.721612 19.8 
L 233.134835 22.358094 
L 229.548058 27.396642 
z
" clip-path="url(#pe581e8186c)" style="fill: #a7d397; fill-opacity: 0.3; stroke: #a7d397; stroke-opacity: 0.3"/>
                <path d="M 294.110041 197.726027
L 294.110041 271.8 
L 297.696818 271.8 
L 301.283595 271.8 
L 304.870372 271.8 
L 308.457149 271.8 
L 312.043926 271.8 
L 315.630702 271.8 
L 319.217479 271.8 
L 322.804256 271.8 
L 326.391033 271.8 
L 326.391033 259.995074 
L 326.391033 259.995074 
L 322.804256 256.71969 
L 319.217479 252.731079 
L 315.630702 247.932284 
L 312.043926 242.229106 
L 308.457149 235.535062 
L 304.870372 227.777135 
L 301.283595 218.902087 
L 297.696818 208.883052 
L 294.110041 197.726027 
z
" clip-path="url(#pe581e8186c)" style="fill: #a7d397; fill-opacity: 0.3; stroke: #a7d397; stroke-opacity: 0.3"/>
            </g>
            <g id="line2d_13">
                <path d="M 60.969545 271.79906
L 64.556322 271.79845 
L 68.143099 271.79747 
L 71.729876 271.795913 
L 75.316653 271.793466 
L 78.90343 271.789658 
L 82.490207 271.783798 
L 86.076983 271.774876 
L 89.66376 271.761434 
L 93.250537 271.741403 
L 96.837314 271.71187 
L 100.424091 271.668799 
L 104.010868 271.606661 
L 107.597645 271.517985 
L 111.184421 271.392815 
L 114.771198 271.218055 
L 118.357975 270.976735 
L 121.944752 270.647165 
L 125.531529 270.202051 
L 129.118306 269.60756 
L 132.705083 268.822433 
L 136.29186 267.797198 
L 139.878636 266.473578 
L 143.465413 264.78422 
L 147.05219 262.652863 
L 150.638967 259.995074 
L 154.225744 256.71969 
L 157.812521 252.731079 
L 161.399298 247.932284 
L 164.986074 242.229106 
L 168.572851 235.535062 
L 172.159628 227.777135 
L 175.746405 218.902087 
L 179.333182 208.883052 
L 182.919959 197.726027 
L 186.506736 185.475812 
L 190.093512 172.22089 
L 193.680289 158.096756 
L 197.267066 143.287212 
L 200.853843 128.023234 
L 204.44062 112.579145 
L 208.027397 97.265989 
L 211.614174 82.422202 
L 215.20095 68.401881 
L 218.787727 55.561172 
L 222.374504 44.243472 
L 225.961281 34.764281 
L 229.548058 27.396642 
L 233.134835 22.358094 
L 236.721612 19.8 
L 240.308388 19.8 
L 243.895165 22.358094 
L 247.481942 27.396642 
L 251.068719 34.764281 
L 254.655496 44.243472 
L 258.242273 55.561172 
L 261.82905 68.401881 
L 265.415826 82.422202 
L 269.002603 97.265989 
L 272.58938 112.579145 
L 276.176157 128.023234 
L 279.762934 143.287212 
L 283.349711 158.096756 
L 286.936488 172.22089 
L 290.523264 185.475812 
L 294.110041 197.726027 
L 297.696818 208.883052 
L 301.283595 218.902087 
L 304.870372 227.777135 
L 308.457149 235.535062 
L 312.043926 242.229106 
L 315.630702 247.932284 
L 319.217479 252.731079 
L 322.804256 256.71969 
L 326.391033 259.995074 
L 329.97781 262.652863 
L 333.564587 264.78422 
L 337.151364 266.473578 
L 340.73814 267.797198 
L 344.324917 268.822433 
L 347.911694 269.60756 
L 351.498471 270.202051 
L 355.085248 270.647165 
L 358.672025 270.976735 
L 362.258802 271.218055 
L 365.845579 271.392815 
L 369.432355 271.517985 
L 373.019132 271.606661 
L 376.605909 271.668799 
L 380.192686 271.71187 
L 383.779463 271.741403 
L 387.36624 271.761434 
L 390.953017 271.774876 
L 394.539793 271.783798 
L 398.12657 271.789658 
L 401.713347 271.793466 
L 405.300124 271.795913 
L 408.886901 271.79747 
L 412.473678 271.79845 
L 416.060455 271.79906 
" clip-path="url(#pe581e8186c)" style="fill: none; stroke: #3a6ea5; stroke-width: 2.5; stroke-linecap: round"/>
            </g>
            <g id="line2d_14">
                <path d="M 60.969545 271.799997
L 64.556322 271.799994 
L 68.143099 271.799989 
L 71.729876 271.79998 
L 75.316653 271.799964 
L 78.90343 271.799937 
L 82.490207 271.799891 
L 86.076983 271.799813 
L 89.66376 271.799682 
L 93.250537 271.799465 
L 96.837314 271.79911 
L 100.424091 271.798534 
L 104.010868 271.79761 
L 107.597645 271.796144 
L 111.184421 271.79384 
L 114.771198 271.790261 
L 118.357975 271.784758 
L 121.944752 271.776387 
L 125.531529 271.763791 
L 129.118306 271.74504 
L 132.705083 271.717425 
L 136.29186 271.677195 
L 139.878636 271.619217 
L 143.465413 271.53657 
L 147.05219 271.420035 
L 150.638967 271.257513 
L 154.225744 271.033337 
L 157.812521 270.727522 
L 161.399298 270.314949 
L 164.986074 269.764538 
L 168.572851 269.038445 
L 172.159628 268.091373 
L 175.746405 266.870061 
L 179.333182 265.313076 
L 182.919959 263.351008 
L 186.506736 260.907191 
L 190.093512 257.899073 
L 193.680289 254.240324 
L 197.267066 249.843752 
L 200.853843 244.625058 
L 204.44062 238.507379 
L 208.027397 231.426515 
L 211.614174 223.336658 
L 215.20095 214.216327 
L 218.787727 204.074186 
L 222.374504 192.954305 
L 225.961281 180.940444 
L 229.548058 168.158876 
L 233.134835 154.779354 
L 236.721612 141.013853 
L 240.308388 127.112879 
L 243.895165 113.359254 
L 247.481942 100.059485 
L 251.068719 87.53302 
L 254.655496 76.099854 
L 258.242273 66.067142 
L 261.82905 57.71559 
L 265.415826 51.286439 
L 269.002603 46.969908 
L 272.58938 44.895844 
L 276.176157 45.127237 
L 279.762934 47.657041 
L 283.349711 52.408529 
L 286.936488 59.239161 
L 290.523264 67.947685 
L 294.110041 78.283984 
L 297.696818 89.960991 
L 301.283595 102.667887 
L 304.870372 116.083739 
L 308.457149 129.890739 
L 312.043926 143.78632 
L 315.630702 157.493506 
L 319.217479 170.769081 
L 322.804256 183.4093 
L 326.391033 195.253079 
L 329.97781 206.182792 
L 333.564587 216.122894 
L 337.151364 225.036778 
L 340.73814 232.922254 
L 344.324917 239.806142 
L 347.911694 245.738404 
L 351.498471 250.786215 
L 355.085248 255.028325 
L 358.672025 258.549951 
L 362.258802 261.438387 
L 365.845579 263.779413 
L 369.432355 265.654548 
L 373.019132 267.139094 
L 376.605909 268.300905 
L 380.192686 269.19978 
L 383.779463 269.88736 
L 387.36624 270.407404 
L 390.953017 270.796341 
L 394.539793 271.083995 
L 398.12657 271.294391 
L 401.713347 271.446587 
L 405.300124 271.555478 
L 408.886901 271.632535 
L 412.473678 271.686473 
L 416.060455 271.72382 
" clip-path="url(#pe581e8186c)"
                      style="fill: none; stroke-dasharray: 9.25,4; stroke-dashoffset: 0; stroke: #e69a8d; stroke-width: 2.5"/>
            </g>
            <g id="line2d_15">
                <path d="M 245.616818 284.4
L 245.616818 7.2 
" clip-path="url(#pe581e8186c)"
                      style="fill: none; stroke-dasharray: 1.5,2.475; stroke-dashoffset: 0; stroke: #4a4a4a; stroke-width: 1.5"/>
            </g>
            <g id="line2d_16">
                <path d="M 309.533182 284.4
L 309.533182 7.2 
" clip-path="url(#pe581e8186c)"
                      style="fill: none; stroke-dasharray: 1.5,2.475; stroke-dashoffset: 0; stroke: #4a4a4a; stroke-width: 1.5"/>
            </g>
            <g id="patch_3">
                <path d="M 43.215 284.4
L 43.215 7.2 
" style="fill: none; stroke: #aaaaaa; stroke-width: 0.8; stroke-linejoin: miter; stroke-linecap: square"/>
            </g>
            <g id="patch_4">
                <path d="M 43.215 284.4
L 433.815 284.4 
" style="fill: none; stroke: #aaaaaa; stroke-width: 0.8; stroke-linejoin: miter; stroke-linecap: square"/>
            </g>
            <g id="text_15">
                <g id="patch_5">
                    <path d="M 219.049091 207.635577
L 328.999091 207.635577 
L 328.999091 175.873452 
L 219.049091 175.873452 
z
" style="fill: #ffffff; opacity: 0.7"/>
                </g>
                <!-- Correct Predictions -->
                <g style="fill: #3a6ea5" transform="translate(223.009091 188.282202) scale(0.12 -0.12)">
                    <defs>
                        <path id="ArialMT-6f" d="M 213 1659
Q 213 2581 725 3025 
Q 1153 3394 1769 3394 
Q 2453 3394 2887 2945 
Q 3322 2497 3322 1706 
Q 3322 1066 3130 698 
Q 2938 331 2570 128 
Q 2203 -75 1769 -75 
Q 1072 -75 642 372 
Q 213 819 213 1659 
z
M 791 1659 
Q 791 1022 1069 705 
Q 1347 388 1769 388 
Q 2188 388 2466 706 
Q 2744 1025 2744 1678 
Q 2744 2294 2464 2611 
Q 2184 2928 1769 2928 
Q 1347 2928 1069 2612 
Q 791 2297 791 1659 
z
" transform="scale(0.015625)"/>
                        <path id="ArialMT-72" d="M 416 0
L 416 3319 
L 922 3319 
L 922 2816 
Q 1116 3169 1280 3281 
Q 1444 3394 1641 3394 
Q 1925 3394 2219 3213 
L 2025 2691 
Q 1819 2813 1613 2813 
Q 1428 2813 1281 2702 
Q 1134 2591 1072 2394 
Q 978 2094 978 1738 
L 978 0 
L 416 0 
z
" transform="scale(0.015625)"/>
                        <path id="ArialMT-63" d="M 2588 1216
L 3141 1144 
Q 3050 572 2676 248 
Q 2303 -75 1759 -75 
Q 1078 -75 664 370 
Q 250 816 250 1647 
Q 250 2184 428 2587 
Q 606 2991 970 3192 
Q 1334 3394 1763 3394 
Q 2303 3394 2647 3120 
Q 2991 2847 3088 2344 
L 2541 2259 
Q 2463 2594 2264 2762 
Q 2066 2931 1784 2931 
Q 1359 2931 1093 2626 
Q 828 2322 828 1663 
Q 828 994 1084 691 
Q 1341 388 1753 388 
Q 2084 388 2306 591 
Q 2528 794 2588 1216 
z
" transform="scale(0.015625)"/>
                        <path id="ArialMT-20" transform="scale(0.015625)"/>
                        <path id="ArialMT-50" d="M 494 0
L 494 4581 
L 2222 4581 
Q 2678 4581 2919 4538 
Q 3256 4481 3484 4323 
Q 3713 4166 3852 3881 
Q 3991 3597 3991 3256 
Q 3991 2672 3619 2267 
Q 3247 1863 2275 1863 
L 1100 1863 
L 1100 0 
L 494 0 
z
M 1100 2403 
L 2284 2403 
Q 2872 2403 3119 2622 
Q 3366 2841 3366 3238 
Q 3366 3525 3220 3729 
Q 3075 3934 2838 4000 
Q 2684 4041 2272 4041 
L 1100 4041 
L 1100 2403 
z
" transform="scale(0.015625)"/>
                        <path id="ArialMT-64" d="M 2575 0
L 2575 419 
Q 2259 -75 1647 -75 
Q 1250 -75 917 144 
Q 584 363 401 755 
Q 219 1147 219 1656 
Q 219 2153 384 2558 
Q 550 2963 881 3178 
Q 1213 3394 1622 3394 
Q 1922 3394 2156 3267 
Q 2391 3141 2538 2938 
L 2538 4581 
L 3097 4581 
L 3097 0 
L 2575 0 
z
M 797 1656 
Q 797 1019 1065 703 
Q 1334 388 1700 388 
Q 2069 388 2326 689 
Q 2584 991 2584 1609 
Q 2584 2291 2321 2609 
Q 2059 2928 1675 2928 
Q 1300 2928 1048 2622 
Q 797 2316 797 1656 
z
" transform="scale(0.015625)"/>
                    </defs>
                    <use xlink:href="#ArialMT-43"/>
                    <use xlink:href="#ArialMT-6f" transform="translate(72.216797 0)"/>
                    <use xlink:href="#ArialMT-72" transform="translate(127.832031 0)"/>
                    <use xlink:href="#ArialMT-72" transform="translate(161.132812 0)"/>
                    <use xlink:href="#ArialMT-65" transform="translate(194.433594 0)"/>
                    <use xlink:href="#ArialMT-63" transform="translate(250.048828 0)"/>
                    <use xlink:href="#ArialMT-74" transform="translate(300.048828 0)"/>
                    <use xlink:href="#ArialMT-20" transform="translate(327.832031 0)"/>
                    <use xlink:href="#ArialMT-50" transform="translate(355.615234 0)"/>
                    <use xlink:href="#ArialMT-72" transform="translate(422.314453 0)"/>
                    <use xlink:href="#ArialMT-65" transform="translate(455.615234 0)"/>
                    <use xlink:href="#ArialMT-64" transform="translate(511.230469 0)"/>
                    <use xlink:href="#ArialMT-69" transform="translate(566.845703 0)"/>
                    <use xlink:href="#ArialMT-63" transform="translate(589.0625 0)"/>
                    <use xlink:href="#ArialMT-74" transform="translate(639.0625 0)"/>
                    <use xlink:href="#ArialMT-69" transform="translate(666.845703 0)"/>
                    <use xlink:href="#ArialMT-6f" transform="translate(689.0625 0)"/>
                    <use xlink:href="#ArialMT-6e" transform="translate(744.677734 0)"/>
                    <use xlink:href="#ArialMT-73" transform="translate(800.292969 0)"/>
                </g>
                <!-- (±0.5 log units) -->
                <g style="fill: #3a6ea5" transform="translate(234.381903 201.149952) scale(0.12 -0.12)">
                    <defs>
                        <path id="ArialMT-28" d="M 1497 -1347
Q 1031 -759 709 28 
Q 388 816 388 1659 
Q 388 2403 628 3084 
Q 909 3875 1497 4659 
L 1900 4659 
Q 1522 4009 1400 3731 
Q 1209 3300 1100 2831 
Q 966 2247 966 1656 
Q 966 153 1900 -1347 
L 1497 -1347 
z
" transform="scale(0.015625)"/>
                        <path id="ArialMT-b1" d="M 1491 813
L 1491 2072 
L 244 2072 
L 244 2594 
L 1491 2594 
L 1491 3841 
L 2022 3841 
L 2022 2594 
L 3269 2594 
L 3269 2072 
L 2022 2072 
L 2022 813 
L 1491 813 
z
M 3269 0 
L 244 0 
L 244 525 
L 3269 525 
L 3269 0 
z
" transform="scale(0.015625)"/>
                        <path id="ArialMT-6c" d="M 409 0
L 409 4581 
L 972 4581 
L 972 0 
L 409 0 
z
" transform="scale(0.015625)"/>
                        <path id="ArialMT-67" d="M 319 -275
L 866 -356 
Q 900 -609 1056 -725 
Q 1266 -881 1628 -881 
Q 2019 -881 2231 -725 
Q 2444 -569 2519 -288 
Q 2563 -116 2559 434 
Q 2191 0 1641 0 
Q 956 0 581 494 
Q 206 988 206 1678 
Q 206 2153 378 2554 
Q 550 2956 876 3175 
Q 1203 3394 1644 3394 
Q 2231 3394 2613 2919 
L 2613 3319 
L 3131 3319 
L 3131 450 
Q 3131 -325 2973 -648 
Q 2816 -972 2473 -1159 
Q 2131 -1347 1631 -1347 
Q 1038 -1347 672 -1080 
Q 306 -813 319 -275 
z
M 784 1719 
Q 784 1066 1043 766 
Q 1303 466 1694 466 
Q 2081 466 2343 764 
Q 2606 1063 2606 1700 
Q 2606 2309 2336 2618 
Q 2066 2928 1684 2928 
Q 1309 2928 1046 2623 
Q 784 2319 784 1719 
z
" transform="scale(0.015625)"/>
                        <path id="ArialMT-75" d="M 2597 0
L 2597 488 
Q 2209 -75 1544 -75 
Q 1250 -75 995 37 
Q 741 150 617 320 
Q 494 491 444 738 
Q 409 903 409 1263 
L 409 3319 
L 972 3319 
L 972 1478 
Q 972 1038 1006 884 
Q 1059 663 1231 536 
Q 1403 409 1656 409 
Q 1909 409 2131 539 
Q 2353 669 2445 892 
Q 2538 1116 2538 1541 
L 2538 3319 
L 3100 3319 
L 3100 0 
L 2597 0 
z
" transform="scale(0.015625)"/>
                        <path id="ArialMT-29" d="M 791 -1347
L 388 -1347 
Q 1322 153 1322 1656 
Q 1322 2244 1188 2822 
Q 1081 3291 891 3722 
Q 769 4003 388 4659 
L 791 4659 
Q 1378 3875 1659 3084 
Q 1900 2403 1900 1659 
Q 1900 816 1576 28 
Q 1253 -759 791 -1347 
z
" transform="scale(0.015625)"/>
                    </defs>
                    <use xlink:href="#ArialMT-28"/>
                    <use xlink:href="#ArialMT-b1" transform="translate(33.300781 0)"/>
                    <use xlink:href="#ArialMT-30" transform="translate(88.183594 0)"/>
                    <use xlink:href="#ArialMT-2e" transform="translate(143.798828 0)"/>
                    <use xlink:href="#ArialMT-35" transform="translate(171.582031 0)"/>
                    <use xlink:href="#ArialMT-20" transform="translate(227.197266 0)"/>
                    <use xlink:href="#ArialMT-6c" transform="translate(254.980469 0)"/>
                    <use xlink:href="#ArialMT-6f" transform="translate(277.197266 0)"/>
                    <use xlink:href="#ArialMT-67" transform="translate(332.8125 0)"/>
                    <use xlink:href="#ArialMT-20" transform="translate(388.427734 0)"/>
                    <use xlink:href="#ArialMT-75" transform="translate(416.210938 0)"/>
                    <use xlink:href="#ArialMT-6e" transform="translate(471.826172 0)"/>
                    <use xlink:href="#ArialMT-69" transform="translate(527.441406 0)"/>
                    <use xlink:href="#ArialMT-74" transform="translate(549.658203 0)"/>
                    <use xlink:href="#ArialMT-73" transform="translate(577.441406 0)"/>
                    <use xlink:href="#ArialMT-29" transform="translate(627.441406 0)"/>
                </g>
            </g>
            <g id="legend_1">
                <g id="line2d_17">
                    <path d="M 53.115 121.453906
L 64.115 121.453906 
L 75.115 121.453906 
" style="fill: none; stroke: #3a6ea5; stroke-width: 2.5; stroke-linecap: round"/>
                </g>
                <g id="text_16">
                    <!-- True pIC50 -->
                    <g style="fill: #262626" transform="translate(83.915 125.303906) scale(0.11 -0.11)">
                        <defs>
                            <path id="ArialMT-54" d="M 1659 0
L 1659 4041 
L 150 4041 
L 150 4581 
L 3781 4581 
L 3781 4041 
L 2266 4041 
L 2266 0 
L 1659 0 
z
" transform="scale(0.015625)"/>
                        </defs>
                        <use xlink:href="#ArialMT-54"/>
                        <use xlink:href="#ArialMT-72" transform="translate(57.333984 0)"/>
                        <use xlink:href="#ArialMT-75" transform="translate(90.634766 0)"/>
                        <use xlink:href="#ArialMT-65" transform="translate(146.25 0)"/>
                        <use xlink:href="#ArialMT-20" transform="translate(201.865234 0)"/>
                        <use xlink:href="#ArialMT-70" transform="translate(229.648438 0)"/>
                        <use xlink:href="#ArialMT-49" transform="translate(285.263672 0)"/>
                        <use xlink:href="#ArialMT-43" transform="translate(313.046875 0)"/>
                        <use xlink:href="#ArialMT-35" transform="translate(385.263672 0)"/>
                        <use xlink:href="#ArialMT-30" transform="translate(440.878906 0)"/>
                    </g>
                </g>
                <g id="line2d_18">
                    <path d="M 53.115 137.147813
L 64.115 137.147813 
L 75.115 137.147813 
" style="fill: none; stroke-dasharray: 9.25,4; stroke-dashoffset: 0; stroke: #e69a8d; stroke-width: 2.5"/>
                </g>
                <g id="text_17">
                    <!-- Predicted pIC50 -->
                    <g style="fill: #262626" transform="translate(83.915 140.997813) scale(0.11 -0.11)">
                        <use xlink:href="#ArialMT-50"/>
                        <use xlink:href="#ArialMT-72" transform="translate(66.699219 0)"/>
                        <use xlink:href="#ArialMT-65" transform="translate(100 0)"/>
                        <use xlink:href="#ArialMT-64" transform="translate(155.615234 0)"/>
                        <use xlink:href="#ArialMT-69" transform="translate(211.230469 0)"/>
                        <use xlink:href="#ArialMT-63" transform="translate(233.447266 0)"/>
                        <use xlink:href="#ArialMT-74" transform="translate(283.447266 0)"/>
                        <use xlink:href="#ArialMT-65" transform="translate(311.230469 0)"/>
                        <use xlink:href="#ArialMT-64" transform="translate(366.845703 0)"/>
                        <use xlink:href="#ArialMT-20" transform="translate(422.460938 0)"/>
                        <use xlink:href="#ArialMT-70" transform="translate(450.244141 0)"/>
                        <use xlink:href="#ArialMT-49" transform="translate(505.859375 0)"/>
                        <use xlink:href="#ArialMT-43" transform="translate(533.642578 0)"/>
                        <use xlink:href="#ArialMT-35" transform="translate(605.859375 0)"/>
                        <use xlink:href="#ArialMT-30" transform="translate(661.474609 0)"/>
                    </g>
                </g>
                <g id="line2d_19">
                    <path d="M 53.115 152.707656
L 64.115 152.707656 
L 75.115 152.707656 
" style="fill: none; stroke-dasharray: 1.5,2.475; stroke-dashoffset: 0; stroke: #4a4a4a; stroke-width: 1.5"/>
                </g>
                <g id="text_18">
                    <!-- hERG Threshold -->
                    <g style="fill: #262626" transform="translate(83.915 156.557656) scale(0.11 -0.11)">
                        <defs>
                            <path id="ArialMT-68" d="M 422 0
L 422 4581 
L 984 4581 
L 984 2938 
Q 1378 3394 1978 3394 
Q 2347 3394 2619 3248 
Q 2891 3103 3008 2847 
Q 3125 2591 3125 2103 
L 3125 0 
L 2563 0 
L 2563 2103 
Q 2563 2525 2380 2717 
Q 2197 2909 1863 2909 
Q 1613 2909 1392 2779 
Q 1172 2650 1078 2428 
Q 984 2206 984 1816 
L 984 0 
L 422 0 
z
" transform="scale(0.015625)"/>
                            <path id="ArialMT-45" d="M 506 0
L 506 4581 
L 3819 4581 
L 3819 4041 
L 1113 4041 
L 1113 2638 
L 3647 2638 
L 3647 2100 
L 1113 2100 
L 1113 541 
L 3925 541 
L 3925 0 
L 506 0 
z
" transform="scale(0.015625)"/>
                            <path id="ArialMT-52" d="M 503 0
L 503 4581 
L 2534 4581 
Q 3147 4581 3465 4457 
Q 3784 4334 3975 4021 
Q 4166 3709 4166 3331 
Q 4166 2844 3850 2509 
Q 3534 2175 2875 2084 
Q 3116 1969 3241 1856 
Q 3506 1613 3744 1247 
L 4541 0 
L 3778 0 
L 3172 953 
Q 2906 1366 2734 1584 
Q 2563 1803 2427 1890 
Q 2291 1978 2150 2013 
Q 2047 2034 1813 2034 
L 1109 2034 
L 1109 0 
L 503 0 
z
M 1109 2559 
L 2413 2559 
Q 2828 2559 3062 2645 
Q 3297 2731 3419 2920 
Q 3541 3109 3541 3331 
Q 3541 3656 3305 3865 
Q 3069 4075 2559 4075 
L 1109 4075 
L 1109 2559 
z
" transform="scale(0.015625)"/>
                            <path id="ArialMT-47" d="M 2638 1797
L 2638 2334 
L 4578 2338 
L 4578 638 
Q 4131 281 3656 101 
Q 3181 -78 2681 -78 
Q 2006 -78 1454 211 
Q 903 500 622 1047 
Q 341 1594 341 2269 
Q 341 2938 620 3517 
Q 900 4097 1425 4378 
Q 1950 4659 2634 4659 
Q 3131 4659 3532 4498 
Q 3934 4338 4162 4050 
Q 4391 3763 4509 3300 
L 3963 3150 
Q 3859 3500 3706 3700 
Q 3553 3900 3268 4020 
Q 2984 4141 2638 4141 
Q 2222 4141 1919 4014 
Q 1616 3888 1430 3681 
Q 1244 3475 1141 3228 
Q 966 2803 966 2306 
Q 966 1694 1177 1281 
Q 1388 869 1791 669 
Q 2194 469 2647 469 
Q 3041 469 3416 620 
Q 3791 772 3984 944 
L 3984 1797 
L 2638 1797 
z
" transform="scale(0.015625)"/>
                        </defs>
                        <use xlink:href="#ArialMT-68"/>
                        <use xlink:href="#ArialMT-45" transform="translate(55.615234 0)"/>
                        <use xlink:href="#ArialMT-52" transform="translate(122.314453 0)"/>
                        <use xlink:href="#ArialMT-47" transform="translate(194.53125 0)"/>
                        <use xlink:href="#ArialMT-20" transform="translate(272.314453 0)"/>
                        <use xlink:href="#ArialMT-54" transform="translate(298.347656 0)"/>
                        <use xlink:href="#ArialMT-68" transform="translate(359.431641 0)"/>
                        <use xlink:href="#ArialMT-72" transform="translate(415.046875 0)"/>
                        <use xlink:href="#ArialMT-65" transform="translate(448.347656 0)"/>
                        <use xlink:href="#ArialMT-73" transform="translate(503.962891 0)"/>
                        <use xlink:href="#ArialMT-68" transform="translate(553.962891 0)"/>
                        <use xlink:href="#ArialMT-6f" transform="translate(609.578125 0)"/>
                        <use xlink:href="#ArialMT-6c" transform="translate(665.193359 0)"/>
                        <use xlink:href="#ArialMT-64" transform="translate(687.410156 0)"/>
                    </g>
                </g>
                <g id="line2d_20">
                    <path d="M 53.115 168.2675
L 64.115 168.2675 
L 75.115 168.2675 
" style="fill: none; stroke-dasharray: 1.5,2.475; stroke-dashoffset: 0; stroke: #4a4a4a; stroke-width: 1.5"/>
                </g>
                <g id="text_19">
                    <!-- VEGFR2/MAPK14 Threshold -->
                    <g style="fill: #262626" transform="translate(83.915 172.1175) scale(0.11 -0.11)">
                        <defs>
                            <path id="ArialMT-56" d="M 1803 0
L 28 4581 
L 684 4581 
L 1875 1253 
Q 2019 853 2116 503 
Q 2222 878 2363 1253 
L 3600 4581 
L 4219 4581 
L 2425 0 
L 1803 0 
z
" transform="scale(0.015625)"/>
                            <path id="ArialMT-46" d="M 525 0
L 525 4581 
L 3616 4581 
L 3616 4041 
L 1131 4041 
L 1131 2622 
L 3281 2622 
L 3281 2081 
L 1131 2081 
L 1131 0 
L 525 0 
z
" transform="scale(0.015625)"/>
                            <path id="ArialMT-2f" d="M 0 -78
L 1328 4659 
L 1778 4659 
L 453 -78 
L 0 -78 
z
" transform="scale(0.015625)"/>
                            <path id="ArialMT-4d" d="M 475 0
L 475 4581 
L 1388 4581 
L 2472 1338 
Q 2622 884 2691 659 
Q 2769 909 2934 1394 
L 4031 4581 
L 4847 4581 
L 4847 0 
L 4263 0 
L 4263 3834 
L 2931 0 
L 2384 0 
L 1059 3900 
L 1059 0 
L 475 0 
z
" transform="scale(0.015625)"/>
                            <path id="ArialMT-41" d="M -9 0
L 1750 4581 
L 2403 4581 
L 4278 0 
L 3588 0 
L 3053 1388 
L 1138 1388 
L 634 0 
L -9 0 
z
M 1313 1881 
L 2866 1881 
L 2388 3150 
Q 2169 3728 2063 4100 
Q 1975 3659 1816 3225 
L 1313 1881 
z
" transform="scale(0.015625)"/>
                            <path id="ArialMT-4b" d="M 469 0
L 469 4581 
L 1075 4581 
L 1075 2309 
L 3350 4581 
L 4172 4581 
L 2250 2725 
L 4256 0 
L 3456 0 
L 1825 2319 
L 1075 1588 
L 1075 0 
L 469 0 
z
" transform="scale(0.015625)"/>
                        </defs>
                        <use xlink:href="#ArialMT-56"/>
                        <use xlink:href="#ArialMT-45" transform="translate(66.699219 0)"/>
                        <use xlink:href="#ArialMT-47" transform="translate(133.398438 0)"/>
                        <use xlink:href="#ArialMT-46" transform="translate(211.181641 0)"/>
                        <use xlink:href="#ArialMT-52" transform="translate(272.265625 0)"/>
                        <use xlink:href="#ArialMT-32" transform="translate(344.482422 0)"/>
                        <use xlink:href="#ArialMT-2f" transform="translate(400.097656 0)"/>
                        <use xlink:href="#ArialMT-4d" transform="translate(427.880859 0)"/>
                        <use xlink:href="#ArialMT-41" transform="translate(511.181641 0)"/>
                        <use xlink:href="#ArialMT-50" transform="translate(577.880859 0)"/>
                        <use xlink:href="#ArialMT-4b" transform="translate(644.580078 0)"/>
                        <use xlink:href="#ArialMT-31" transform="translate(711.279297 0)"/>
                        <use xlink:href="#ArialMT-34" transform="translate(766.894531 0)"/>
                        <use xlink:href="#ArialMT-20" transform="translate(822.509766 0)"/>
                        <use xlink:href="#ArialMT-54" transform="translate(848.542969 0)"/>
                        <use xlink:href="#ArialMT-68" transform="translate(909.626953 0)"/>
                        <use xlink:href="#ArialMT-72" transform="translate(965.242188 0)"/>
                        <use xlink:href="#ArialMT-65" transform="translate(998.542969 0)"/>
                        <use xlink:href="#ArialMT-73" transform="translate(1054.158203 0)"/>
                        <use xlink:href="#ArialMT-68" transform="translate(1104.158203 0)"/>
                        <use xlink:href="#ArialMT-6f" transform="translate(1159.773438 0)"/>
                        <use xlink:href="#ArialMT-6c" transform="translate(1215.388672 0)"/>
                        <use xlink:href="#ArialMT-64" transform="translate(1237.605469 0)"/>
                    </g>
                </g>
            </g>
        </g>
    </g>
    <defs>
        <clipPath id="pe581e8186c">
            <rect x="43.215" y="7.2" width="390.6" height="277.2"/>
        </clipPath>
    </defs>
</svg>
