<?xml version="1.0" encoding="UTF-8" standalone="no"?>
<svg
        width="441.015pt"
        height="322.865938pt"
        viewBox="0 0 441.015 322.865938"
        version="1.1"
        id="svg143"
        sodipodi:docname="discovery_yield_inkscape.svg"
        inkscape:version="1.4 (e7c3feb1, 2024-10-09)"
        xmlns:inkscape="http://www.inkscape.org/namespaces/inkscape"
        xmlns:sodipodi="http://sodipodi.sourceforge.net/DTD/sodipodi-0.dtd"
        xmlns:xlink="http://www.w3.org/1999/xlink"
        xmlns:rdf="http://www.w3.org/1999/02/22-rdf-syntax-ns#"
        xmlns:cc="http://creativecommons.org/ns#"
        xmlns:dc="http://purl.org/dc/elements/1.1/"
        xmlns="http://www.w3.org/2000/svg">
  <sodipodi:namedview
          id="namedview143"
          pagecolor="#ffffff"
          bordercolor="#000000"
          borderopacity="0.25"
          inkscape:showpageshadow="2"
          inkscape:pageopacity="0.0"
          inkscape:pagecheckerboard="0"
          inkscape:deskcolor="#d1d1d1"
          inkscape:document-units="pt"
          showgrid="false"
          showguides="false"
          inkscape:zoom="1.1348874"
          inkscape:cx="229.09763"
          inkscape:cy="250.2451"
          inkscape:window-width="1440"
          inkscape:window-height="843"
          inkscape:window-x="2"
          inkscape:window-y="27"
          inkscape:window-maximized="0"
          inkscape:current-layer="svg143"/>
  <metadata
          id="metadata1">
    <rdf:RDF>
      <cc:Work>
        <dc:type
                rdf:resource="http://purl.org/dc/dcmitype/StillImage"/>
        <dc:date>2025-02-18T13:20:23.370243</dc:date>
        <dc:format>image/svg+xml</dc:format>
        <dc:creator>
          <cc:Agent>
            <dc:title>Matplotlib v3.10.0, https://matplotlib.org/</dc:title>
          </cc:Agent>
        </dc:creator>
      </cc:Work>
    </rdf:RDF>
  </metadata>
  <defs
          id="defs1">
    <inkscape:path-effect
            effect="bspline"
            id="path-effect153"
            is_visible="true"
            lpeversion="1.3"
            weight="33.333333"
            steps="2"
            helper_size="0"
            apply_no_weight="true"
            apply_with_weight="true"
            only_selected="false"
            uniform="false"/>
    <style
            type="text/css"
            id="style1">*{stroke-linejoin: round; stroke-linecap: butt}
        </style>
    <inkscape:path-effect
            effect="bspline"
            id="path-effect153-5"
            is_visible="true"
            lpeversion="1.3"
            weight="33.333333"
            steps="2"
            helper_size="0"
            apply_no_weight="true"
            apply_with_weight="true"
            only_selected="false"
            uniform="false"/>
  </defs>
  <g
          id="text_1"
          transform="matrix(0.84141483,0,0,0.73034506,21.06007,71.198662)">
    <!-- 0 -->
    <g
            style="fill:#555555"
            transform="matrix(0.1,0,0,-0.1,58.189077,298.55781)"
            id="g3">
      <defs
              id="defs3">
        <path
                id="ArialMT-30"
                d="m 266,2259 q 0,813 167,1308 167,496 496,764 330,269 830,269 369,0 647,-149 278,-148 459,-428 182,-279 285,-681 103,-401 103,-1083 0,-806 -166,-1301 Q 2922,463 2592,192 2263,-78 1759,-78 1097,-78 719,397 266,969 266,2259 Z m 578,0 q 0,-1128 264,-1502 264,-373 651,-373 388,0 652,375 264,375 264,1500 0,1132 -264,1503 -264,372 -658,372 -387,0 -619,-328 Q 844,3388 844,2259 Z"
                transform="scale(0.015625)"/>
      </defs>
      <use
              xlink:href="#ArialMT-30"
              id="use3"/>
    </g>
  </g>
  <g
          id="text_2"
          transform="matrix(0.84141483,0,0,0.73034506,21.06007,71.198662)">
    <!-- 2 -->
    <g
            style="fill:#555555"
            transform="matrix(0.1,0,0,-0.1,129.20726,298.55781)"
            id="g4">
      <defs
              id="defs4">
        <path
                id="ArialMT-32"
                d="M 3222,541 V 0 H 194 q -6,203 65,391 116,309 370,609 255,300 737,694 747,612 1009,970 263,358 263,677 0,334 -240,563 -239,230 -623,230 -406,0 -650,-244 -244,-243 -247,-674 l -578,59 q 59,647 446,986 388,339 1042,339 659,0 1043,-366 385,-365 385,-906 0,-275 -113,-541 Q 2991,2522 2730,2228 2469,1934 1863,1422 1356,997 1212,845 1069,694 975,541 Z"
                transform="scale(0.015625)"/>
      </defs>
      <use
              xlink:href="#ArialMT-32"
              id="use4"/>
    </g>
  </g>
  <g
          id="text_3"
          transform="matrix(0.84141483,0,0,0.73034506,21.06007,71.198662)">
    <!-- 4 -->
    <g
            style="fill:#555555"
            transform="matrix(0.1,0,0,-0.1,200.22544,298.55781)"
            id="g5">
      <defs
              id="defs5">
        <path
                id="ArialMT-34"
                d="M 2069,0 V 1097 H 81 v 516 l 2091,2968 h 459 V 1613 h 619 V 1097 H 2631 V 0 Z m 0,1613 V 3678 L 634,1613 Z"
                transform="scale(0.015625)"/>
      </defs>
      <use
              xlink:href="#ArialMT-34"
              id="use5"/>
    </g>
  </g>
  <g
          id="text_4"
          transform="matrix(0.84141483,0,0,0.73034506,21.06007,71.198662)">
    <!-- 6 -->
    <g
            style="fill:#555555"
            transform="matrix(0.1,0,0,-0.1,271.24362,298.55781)"
            id="g6">
      <defs
              id="defs6">
        <path
                id="ArialMT-36"
                d="m 3184,3459 -559,-43 q -75,331 -212,481 -229,241 -563,241 -269,0 -472,-150 -265,-194 -419,-566 -153,-372 -159,-1059 203,309 497,459 294,150 616,150 562,0 957,-414 396,-414 396,-1070 0,-432 -186,-802 Q 2894,316 2569,119 2244,-78 1831,-78 1128,-78 684,439 241,956 241,2144 q 0,1328 490,1931 428,525 1153,525 541,0 886,-303 346,-303 414,-838 z M 888,1484 q 0,-290 123,-556 123,-265 345,-405 222,-139 466,-139 356,0 612,287 257,288 257,782 0,475 -254,748 -253,274 -637,274 -381,0 -647,-274 -265,-273 -265,-717 z"
                transform="scale(0.015625)"/>
      </defs>
      <use
              xlink:href="#ArialMT-36"
              id="use6"/>
    </g>
  </g>
  <g
          id="text_5"
          transform="matrix(0.84141483,0,0,0.73034506,21.06007,71.198662)">
    <!-- 8 -->
    <g
            style="fill:#555555"
            transform="matrix(0.1,0,0,-0.1,342.2618,298.55781)"
            id="g7">
      <defs
              id="defs7">
        <path
                id="ArialMT-38"
                d="m 1131,2484 q -350,129 -519,366 -168,238 -168,569 0,500 359,840 360,341 956,341 600,0 966,-349 366,-348 366,-848 0,-319 -168,-555 -167,-235 -507,-364 422,-137 642,-444 220,-306 220,-731 0,-587 -416,-987 Q 2447,-78 1769,-78 1091,-78 675,323 259,725 259,1325 q 0,447 227,748 227,302 645,411 z m -112,954 q 0,-325 209,-532 210,-206 544,-206 325,0 533,204 208,205 208,502 0,310 -215,521 -214,211 -532,211 -322,0 -535,-207 -212,-206 -212,-493 z M 838,1322 q 0,-241 114,-466 114,-225 339,-349 225,-123 484,-123 403,0 665,259 263,260 263,660 0,406 -270,672 -270,266 -677,266 -397,0 -658,-263 -260,-262 -260,-656 z"
                transform="scale(0.015625)"/>
      </defs>
      <use
              xlink:href="#ArialMT-38"
              id="use7"/>
    </g>
  </g>
  <g
          id="text_6"
          transform="matrix(0.84141483,0,0,0.73034506,21.06007,71.198662)">
    <!-- 10 -->
    <g
            style="fill:#555555"
            transform="matrix(0.1,0,0,-0.1,410.49952,298.55781)"
            id="g9">
      <defs
              id="defs8">
        <path
                id="ArialMT-31"
                d="M 2384,0 H 1822 V 3584 Q 1619,3391 1289,3197 959,3003 697,2906 v 544 q 472,222 825,537 353,316 500,613 h 362 z"
                transform="scale(0.015625)"/>
      </defs>
      <use
              xlink:href="#ArialMT-31"
              id="use8"/>
      <use
              xlink:href="#ArialMT-30"
              transform="translate(55.615234)"
              id="use9"/>
    </g>
  </g>
  <path
          d="M 229.54806,27.396642 V 271.8 h 3.58677 3.58678 3.58678 3.58677 3.58678 3.58678 3.58678 3.58677 3.58678 v -203.398119 0 l -3.58678,-12.840709 -3.58677,-11.3177 -3.58678,-9.479191 -3.58678,-7.367639 -3.58678,-5.038548 L 240.30839,19.8 h -3.58678 l -3.58678,2.558094 z"
          clip-path="url(#pe581e8186c)"
          style="fill:#00e900;fill-opacity:0.313725;stroke:#009701;stroke-opacity:1"
          id="path39"
          transform="matrix(0.84141483,0,0,0.73034506,21.06007,71.198662)"/>
  <path
          d="M 294.11004,197.72603 V 271.8 h 3.58678 3.58677 3.58678 3.58678 3.58678 3.58677 3.58678 3.58678 3.58677 v -11.80493 0 l -3.58677,-3.27538 -3.58678,-3.98861 -3.58678,-4.7988 -3.58677,-5.70317 -3.58678,-6.69405 -3.58678,-7.75793 -3.58678,-8.87504 -3.58677,-10.01904 z"
          clip-path="url(#pe581e8186c)"
          style="fill:#00ea00;fill-opacity:0.312775;stroke:#009701;stroke-opacity:1"
          id="path40"
          transform="matrix(0.84141483,0,0,0.73034506,21.06007,71.198662)"/>
  <g
          id="line2d_13"
          transform="matrix(0.84141483,0,0,0.73034506,21.06007,71.198662)">
    <path
            d="m 60.969545,271.79906 3.586777,-6.1e-4 3.586777,-9.8e-4 3.586777,-0.002 3.586777,-0.002 3.586777,-0.004 3.586777,-0.006 3.586776,-0.009 3.586777,-0.0134 3.586777,-0.02 3.586777,-0.0295 3.586776,-0.0431 3.58678,-0.0621 3.58678,-0.0887 3.58677,-0.12517 3.58678,-0.17476 3.58677,-0.24131 3.58678,-0.32958 3.58678,-0.44511 3.58678,-0.59449 3.58677,-0.78513 3.58678,-1.02523 3.58678,-1.32362 3.58677,-1.68936 3.58678,-2.13136 3.58678,-2.65779 3.58677,-3.27538 3.58678,-3.98861 3.58678,-4.7988 3.58677,-5.70317 3.58678,-6.69405 3.58678,-7.75793 3.58677,-8.87504 3.58678,-10.01904 3.58678,-11.15702 3.58678,-12.25022 3.58677,-13.25492 3.58678,-14.12413 3.58678,-14.80955 3.58677,-15.26398 3.58678,-15.44409 3.58678,-15.313151 3.58677,-14.843787 3.58678,-14.020321 3.58678,-12.840709 3.58677,-11.3177 3.58678,-9.479191 3.58678,-7.367639 3.58677,-5.038548 L 236.72161,19.8 h 3.58678 l 3.58677,2.558094 3.58678,5.038548 3.58678,7.367639 3.58678,9.479191 3.58677,11.3177 3.58678,12.840709 3.58678,14.020321 3.58677,14.843787 3.58678,15.313151 3.58678,15.44409 3.58677,15.26398 3.58678,14.80955 3.58678,14.12413 3.58677,13.25492 3.58678,12.25022 3.58678,11.15702 3.58677,10.01904 3.58678,8.87504 3.58678,7.75793 3.58678,6.69405 3.58677,5.70317 3.58678,4.7988 3.58678,3.98861 3.58677,3.27538 3.58678,2.65779 3.58678,2.13136 3.58677,1.68936 3.58678,1.32362 3.58678,1.02523 3.58677,0.78513 3.58678,0.59449 3.58678,0.44511 3.58678,0.32958 3.58677,0.24131 3.58678,0.17476 3.58677,0.12517 3.58678,0.0887 3.58678,0.0621 3.58678,0.0431 3.58677,0.0295 3.58678,0.02 3.58678,0.0134 3.58677,0.009 3.58678,0.006 3.58678,0.004 3.58677,0.002 3.58678,0.002 3.58678,9.8e-4 3.58677,6.1e-4"
            clip-path="url(#pe581e8186c)"
            style="fill:none;stroke:#3a6ea5;stroke-width:2.5;stroke-linecap:round"
            id="path41"/>
  </g>
  <path
          d="m 60.969545,271.8 3.586777,-1e-5 h 3.586777 l 3.586777,-10e-6 3.586777,-2e-5 3.586777,-2e-5 3.586777,-5e-5 3.586776,-8e-5 3.586777,-1.3e-4 3.586777,-2.2e-4 3.586777,-3.5e-4 3.586776,-5.8e-4 3.58678,-9.2e-4 3.58678,-0.001 3.58677,-0.002 3.58678,-0.004 3.58677,-0.005 3.58678,-0.008 3.58678,-0.0126 3.58678,-0.0187 3.58677,-0.0276 3.58678,-0.0402 3.58678,-0.058 3.58677,-0.0827 3.58678,-0.11654 3.58678,-0.16252 3.58677,-0.22417 3.58678,-0.30582 3.58678,-0.41257 3.58677,-0.55041 3.58678,-0.72609 3.58678,-0.94708 3.58677,-1.22131 3.58678,-1.55698 3.58678,-1.96207 3.58678,-2.44382 3.58677,-3.00812 3.58678,-3.65875 3.58678,-4.39657 3.58677,-5.21869 3.58678,-6.11768 3.58678,-7.08087 3.58677,-8.08985 3.58678,-9.12033 3.58678,-10.14214 3.58677,-11.11989 3.58678,-12.01386 3.58678,-12.78156 3.58677,-13.37953 3.58678,-13.7655 3.58678,-13.90097 3.58677,-13.75363 3.58678,-13.29977 3.58678,-12.52646 3.58678,-11.433166 3.58677,-10.032712 3.58678,-8.351552 3.58678,-6.429151 3.58677,-4.316531 3.58678,-2.074064 3.58678,0.231393 3.58677,2.529804 3.58678,4.751488 3.58678,6.830632 3.58677,8.708524 3.58678,10.336299 3.58678,11.677007 3.58677,12.706899 3.58678,13.41585 3.58678,13.807 3.58678,13.89558 3.58677,13.70719 3.58678,13.27557 3.58678,12.64022 3.58677,11.84378 3.58678,10.92971 3.58678,9.9401 3.58677,8.91389 3.58678,7.88547 3.58678,6.88389 3.58677,5.93226 3.58678,5.04781 3.58678,4.24211 3.58678,3.52163 3.58677,2.88844 3.58678,2.34102 3.58677,1.87514 3.58678,1.48454 3.58678,1.16181 3.58678,0.89888 3.58677,0.68758 3.58678,0.52004 3.58678,0.38894 3.58677,0.28766 3.58678,0.21039 3.58678,0.1522 3.58677,0.10889 3.58678,0.0771 3.58678,0.0539 3.58677,0.0374"
          clip-path="url(#pe581e8186c)"
          style="fill:none;fill-opacity:0;stroke:#ff0000;stroke-width:2.5;stroke-dasharray:9.25, 4;stroke-dashoffset:0;stroke-opacity:0.938326"
          id="path42"
          transform="matrix(0.84141483,0,0,0.73034506,20.181108,71.702384)"/>
  <g
          id="line2d_15"
          transform="matrix(0.84141483,0,0,0.73034506,21.06007,71.198662)">
    <path
            d="M 245.61682,284.4 V 7.2"
            clip-path="url(#pe581e8186c)"
            style="fill:none;stroke:#4a4a4a;stroke-width:1.5;stroke-dasharray:1.5, 2.475;stroke-dashoffset:0"
            id="path43"/>
  </g>
  <g
          id="line2d_16"
          transform="matrix(0.84141483,0,0,0.73034506,21.06007,71.198662)"
          style="stroke:#0000ff;stroke-opacity:0.519824">
    <path
            d="M 309.53318,284.4 V 7.2"
            clip-path="url(#pe581e8186c)"
            style="fill:none;stroke:#0000ff;stroke-width:1.5;stroke-dasharray:1.5, 2.475;stroke-dashoffset:0;stroke-opacity:0.519824"
            id="path44"/>
  </g>
  <g
          id="patch_3"
          transform="matrix(0.84141483,0,0,0.73034506,21.06007,71.198662)">
    <path
            d="M 43.215,284.4 V 7.2"
            style="fill:none;stroke:#aaaaaa;stroke-width:0.8;stroke-linecap:square;stroke-linejoin:miter"
            id="path45"/>
  </g>
  <g
          id="patch_4"
          transform="matrix(0.84141483,0,0,0.73034506,21.06007,71.198662)">
    <path
            d="m 43.215,284.4 h 390.6"
            style="fill:none;stroke:#aaaaaa;stroke-width:0.8;stroke-linecap:square;stroke-linejoin:miter"
            id="path46"/>
  </g>
  <defs
          id="defs143">
    <clipPath
            id="pe581e8186c">
      <rect
              x="43.215"
              y="7.2"
              width="390.6"
              height="277.2"
              id="rect143"/>
    </clipPath>
  </defs>
  <text
          xml:space="preserve"
          style="font-style:normal;font-variant:normal;font-weight:600;font-stretch:normal;font-size:13.00000048px;font-family:'CMU Bright';-inkscape-font-specification:'CMU Bright, Semi-Bold';font-variant-ligatures:normal;font-variant-caps:normal;font-variant-numeric:normal;font-variant-east-asian:normal;text-align:start;writing-mode:lr-tb;direction:ltr;text-anchor:start;fill:#4a4a4a;stroke:none;stroke-width:0.839002;stroke-linecap:butt;stroke-linejoin:round;stroke-opacity:1;fill-opacity:1"
          x="137.1561"
          y="74.315475"
          id="text143"><tspan
       sodipodi:role="line"
       id="tspan143"
       style="font-style:normal;font-variant:normal;font-weight:600;font-stretch:normal;font-size:13.00000048px;font-family:'CMU Bright';-inkscape-font-specification:'CMU Bright, Semi-Bold';font-variant-ligatures:normal;font-variant-caps:normal;font-variant-numeric:normal;font-variant-east-asian:normal;stroke:none;stroke-width:0.839;stroke-opacity:1;fill:#4a4a4a;fill-opacity:1"
       x="137.1561"
       y="74.315475">hERG Threhsold</tspan></text>
  <text
          xml:space="preserve"
          style="font-style:normal;font-variant:normal;font-weight:600;font-stretch:normal;font-size:17px;font-family:'CMU Bright';-inkscape-font-specification:'CMU Bright, Semi-Bold';font-variant-ligatures:normal;font-variant-caps:normal;font-variant-numeric:normal;font-variant-east-asian:normal;text-align:start;writing-mode:lr-tb;direction:ltr;text-anchor:start;fill:#031303;fill-opacity:1;stroke:none;stroke-width:0.839002;stroke-linecap:butt;stroke-linejoin:round"
          x="164.79266"
          y="31.416092"
          id="text143-0"><tspan
       sodipodi:role="line"
       id="tspan143-3"
       style="font-style:normal;font-variant:normal;font-weight:600;font-stretch:normal;font-size:17px;font-family:'CMU Bright';-inkscape-font-specification:'CMU Bright, Semi-Bold';font-variant-ligatures:normal;font-variant-caps:normal;font-variant-numeric:normal;font-variant-east-asian:normal;fill:#031303;fill-opacity:1;stroke:none;stroke-width:0.839"
       x="164.79266"
       y="31.416092">Discovery Yield</tspan></text>
  <text
          xml:space="preserve"
          style="font-style:normal;font-variant:normal;font-weight:600;font-stretch:normal;font-size:13px;font-family:'CMU Bright';-inkscape-font-specification:'CMU Bright, Semi-Bold';font-variant-ligatures:normal;font-variant-caps:normal;font-variant-numeric:normal;font-variant-east-asian:normal;text-align:start;writing-mode:lr-tb;direction:ltr;text-anchor:start;fill:#0000ff;fill-opacity:0.521569;stroke:none;stroke-width:0.739;stroke-linecap:butt;stroke-linejoin:round;stroke-dasharray:none;stroke-opacity:1"
          x="276.87228"
          y="75.194839"
          id="text143-7"><tspan
   sodipodi:role="line"
   id="tspan143-8"
   style="font-style:normal;font-variant:normal;font-weight:600;font-stretch:normal;font-size:13px;font-family:'CMU Bright';-inkscape-font-specification:'CMU Bright, Semi-Bold';font-variant-ligatures:normal;font-variant-caps:normal;font-variant-numeric:normal;font-variant-east-asian:normal;fill:#0000ff;fill-opacity:0.521569;stroke:none;stroke-width:0.739;stroke-dasharray:none;stroke-opacity:1"
   x="276.87228"
   y="91.444839">VEGFR2, MAPK14, etc. </tspan>
    <tspan
            sodipodi:role="line"
            style="font-style:normal;font-variant:normal;font-weight:600;font-stretch:normal;font-size:13px;font-family:'CMU Bright';-inkscape-font-specification:'CMU Bright, Semi-Bold';font-variant-ligatures:normal;font-variant-caps:normal;font-variant-numeric:normal;font-variant-east-asian:normal;fill:#0000ff;fill-opacity:0.521569;stroke:none;stroke-width:0.739;stroke-dasharray:none;stroke-opacity:1"
            x="276.87228"
            y="75.194839"
            id="tspan2"><tspan
     id="tspan3"
     style="font-style:normal;font-variant:normal;font-weight:600;font-stretch:normal;font-size:13px;font-family:'CMU Bright';-inkscape-font-specification:'CMU Bright, Semi-Bold';font-variant-ligatures:normal;font-variant-caps:normal;font-variant-numeric:normal;font-variant-east-asian:normal;fill:#0000ff;fill-opacity:0.521569;stroke:none;stroke-width:0.739;stroke-dasharray:none;stroke-opacity:1"></tspan></tspan>
    <tspan
            sodipodi:role="line"
            style="font-style:normal;font-variant:normal;font-weight:600;font-stretch:normal;font-size:13px;font-family:'CMU Bright';-inkscape-font-specification:'CMU Bright, Semi-Bold';font-variant-ligatures:normal;font-variant-caps:normal;font-variant-numeric:normal;font-variant-east-asian:normal;fill:#0000ff;fill-opacity:0.521569;stroke:none;stroke-width:0.739;stroke-dasharray:none;stroke-opacity:1"
            x="276.87228"
            y="91.444839"
            id="tspan4"><tspan
   dx="38.237167 0 0 0 0 0 0 2.357112e-08"
   style="font-style:normal;font-variant:normal;font-weight:600;font-stretch:normal;font-size:13px;font-family:'CMU Bright';-inkscape-font-specification:'CMU Bright, Semi-Bold';font-variant-ligatures:normal;font-variant-caps:normal;font-variant-numeric:normal;font-variant-east-asian:normal;fill:#0000ff;fill-opacity:0.521569;stroke:none;stroke-width:0.739;stroke-dasharray:none;stroke-opacity:1"
   id="tspan5">Threhsol</tspan>d</tspan></text>
  <text
          xml:space="preserve"
          style="font-style:normal;font-variant:normal;font-weight:600;font-stretch:normal;font-size:13.00000048px;font-family:'CMU Bright';-inkscape-font-specification:'CMU Bright, Semi-Bold';font-variant-ligatures:normal;font-variant-caps:normal;font-variant-numeric:normal;font-variant-east-asian:normal;text-align:start;writing-mode:lr-tb;direction:ltr;text-anchor:start;fill:#ff0000;stroke:none;stroke-width:0.839002;stroke-linecap:butt;stroke-linejoin:round;stroke-opacity:1;fill-opacity:0.94117647"
          x="307.99399"
          y="235.13646"
          id="text144"><tspan
       sodipodi:role="line"
       id="tspan144"
       style="font-style:normal;font-variant:normal;font-weight:600;font-stretch:normal;font-size:13.00000048px;font-family:'CMU Bright';-inkscape-font-specification:'CMU Bright, Semi-Bold';font-variant-ligatures:normal;font-variant-caps:normal;font-variant-numeric:normal;font-variant-east-asian:normal;stroke-width:0.839;stroke:none;stroke-opacity:1;fill:#ff0000;fill-opacity:0.94117647"
       x="307.99399"
       y="235.13646">Predicted pIC50</tspan></text>
  <text
          xml:space="preserve"
          style="font-style:normal;font-variant:normal;font-weight:600;font-stretch:normal;font-size:13.00000048px;font-family:'CMU Bright';-inkscape-font-specification:'CMU Bright, Semi-Bold';font-variant-ligatures:normal;font-variant-caps:normal;font-variant-numeric:normal;font-variant-east-asian:normal;text-align:start;writing-mode:lr-tb;direction:ltr;text-anchor:start;fill:#3a6ea5;stroke:none;stroke-width:0.839002;stroke-opacity:1;fill-opacity:1"
          x="100.02666"
          y="235.00172"
          id="text145"><tspan
       sodipodi:role="line"
       id="tspan145"
       style="font-style:normal;font-variant:normal;font-weight:600;font-stretch:normal;font-size:13.00000048px;font-family:'CMU Bright';-inkscape-font-specification:'CMU Bright, Semi-Bold';font-variant-ligatures:normal;font-variant-caps:normal;font-variant-numeric:normal;font-variant-east-asian:normal;stroke-width:0.839;stroke:none;stroke-opacity:1;fill:#3a6ea5;fill-opacity:1"
       x="100.02666"
       y="235.00172">True pIC50</tspan></text>
  <text
          xml:space="preserve"
          style="font-style:normal;font-variant:normal;font-weight:600;font-stretch:normal;font-size:13px;font-family:'CMU Bright';-inkscape-font-specification:'CMU Bright, Semi-Bold';font-variant-ligatures:normal;font-variant-caps:normal;font-variant-numeric:normal;font-variant-east-asian:normal;text-align:start;writing-mode:lr-tb;direction:ltr;text-anchor:start;fill:#031303;fill-opacity:1;stroke:none;stroke-width:0.839002;stroke-linecap:butt;stroke-linejoin:round;stroke-opacity:1"
          x="-182.45006"
          y="48.912075"
          id="text145-0"
          transform="rotate(-90)"><tspan
       sodipodi:role="line"
       id="tspan145-7"
       style="font-style:normal;font-variant:normal;font-weight:600;font-stretch:normal;font-size:13px;font-family:'CMU Bright';-inkscape-font-specification:'CMU Bright, Semi-Bold';font-variant-ligatures:normal;font-variant-caps:normal;font-variant-numeric:normal;font-variant-east-asian:normal;fill:#031303;fill-opacity:1;stroke:none;stroke-width:0.839;stroke-opacity:1"
       x="-182.45006"
       y="48.912075">Density</tspan></text>
  <text
          xml:space="preserve"
          style="font-style:normal;font-variant:normal;font-weight:600;font-stretch:normal;font-size:13px;font-family:'CMU Bright';-inkscape-font-specification:'CMU Bright, Semi-Bold';font-variant-ligatures:normal;font-variant-caps:normal;font-variant-numeric:normal;font-variant-east-asian:normal;text-align:start;writing-mode:lr-tb;direction:ltr;text-anchor:start;fill:#009701;fill-opacity:1;stroke:none;stroke-width:0.839;stroke-dasharray:none;stroke-opacity:1"
          x="296.83273"
          y="149.46965"
          id="text146"><tspan
   sodipodi:role="line"
   id="tspan146"
   style="font-style:normal;font-variant:normal;font-weight:600;font-stretch:normal;font-size:13px;font-family:'CMU Bright';-inkscape-font-specification:'CMU Bright, Semi-Bold';font-variant-ligatures:normal;font-variant-caps:normal;font-variant-numeric:normal;font-variant-east-asian:normal;fill:#009701;fill-opacity:1;stroke:none;stroke-width:0.839;stroke-dasharray:none;stroke-opacity:1"
   x="296.83273"
   y="165.71965">Correct Prediction</tspan>
    <tspan
            sodipodi:role="line"
            style="font-style:normal;font-variant:normal;font-weight:600;font-stretch:normal;font-size:13px;font-family:'CMU Bright';-inkscape-font-specification:'CMU Bright, Semi-Bold';font-variant-ligatures:normal;font-variant-caps:normal;font-variant-numeric:normal;font-variant-east-asian:normal;fill:#009701;fill-opacity:1;stroke:none;stroke-width:0.839;stroke-dasharray:none;stroke-opacity:1"
            x="296.83273"
            y="149.46965"
            id="tspan150"></tspan>
    <tspan
            sodipodi:role="line"
            style="font-style:normal;font-variant:normal;font-weight:600;font-stretch:normal;font-size:13px;font-family:'CMU Bright';-inkscape-font-specification:'CMU Bright, Semi-Bold';font-variant-ligatures:normal;font-variant-caps:normal;font-variant-numeric:normal;font-variant-east-asian:normal;fill:#009701;fill-opacity:1;stroke:none;stroke-width:0.839;stroke-dasharray:none;stroke-opacity:1"
            x="296.83273"
            y="165.71965"
            dx="13.469146 6.172403e-08"
            id="tspan1">±0.5 log units</tspan></text>
  <text
          xml:space="preserve"
          style="font-weight:600;font-size:17px;font-family:'CMU Bright';-inkscape-font-specification:'CMU Bright, Semi-Bold';text-align:start;writing-mode:lr-tb;direction:ltr;text-anchor:start;fill:#031303;stroke:#000d00;stroke-width:0.839002"
          x="79.681656"
          y="30.527386"
          id="text147"><tspan
       sodipodi:role="line"
       id="tspan147"
       style="stroke-width:0.839"
       x="79.681656"
       y="30.527386" /></text>
  <text
          xml:space="preserve"
          style="font-style:normal;font-variant:normal;font-weight:600;font-stretch:normal;font-size:17px;font-family:'CMU Bright';-inkscape-font-specification:'CMU Bright, Semi-Bold';font-variant-ligatures:normal;font-variant-caps:normal;font-variant-numeric:normal;font-variant-east-asian:normal;text-align:start;writing-mode:lr-tb;direction:ltr;text-anchor:start;fill:#031303;stroke:#000d00;stroke-width:0.839002"
          x="449.6322"
          y="22.766188"
          id="text148"><tspan
       sodipodi:role="line"
       id="tspan148"
       style="stroke-width:0.839"
       x="449.6322"
       y="22.766188" /></text>
  <text
          xml:space="preserve"
          style="font-style:normal;font-variant:normal;font-weight:600;font-stretch:normal;font-size:13px;font-family:'CMU Bright';-inkscape-font-specification:'CMU Bright, Semi-Bold';font-variant-ligatures:normal;font-variant-caps:normal;font-variant-numeric:normal;font-variant-east-asian:normal;text-align:start;writing-mode:lr-tb;direction:ltr;text-anchor:start;fill:#000000;fill-opacity:1;stroke:none;stroke-width:0.839002;stroke-linecap:butt;stroke-linejoin:round"
          x="204.08295"
          y="310.90118"
          id="text149"><tspan
       sodipodi:role="line"
       id="tspan149"
       style="font-style:normal;font-variant:normal;font-weight:600;font-stretch:normal;font-size:13px;font-family:'CMU Bright';-inkscape-font-specification:'CMU Bright, Semi-Bold';font-variant-ligatures:normal;font-variant-caps:normal;font-variant-numeric:normal;font-variant-east-asian:normal;fill:#000000;fill-opacity:1;stroke:none;stroke-width:0.839"
       x="204.08295"
       y="310.90118">pIC50</tspan></text>
  <text
          xml:space="preserve"
          style="font-style:normal;font-variant:normal;font-weight:500;font-stretch:normal;font-size:17px;font-family:'CMU Bright';-inkscape-font-specification:'CMU Bright, Medium';font-variant-ligatures:normal;font-variant-caps:normal;font-variant-numeric:normal;font-variant-east-asian:normal;text-align:start;writing-mode:lr-tb;direction:ltr;text-anchor:start;fill:#031303;stroke:#000d00;stroke-width:0.839002"
          x="212.8125"
          y="16.162975"
          id="text152"><tspan
       sodipodi:role="line"
       id="tspan152"
       style="stroke-width:0.839"
       x="212.8125"
       y="16.162975" /></text>
  <path
          style="fill:#00dd00;fill-opacity:0.67058825;stroke:#009701;stroke-width:0.739;stroke-dasharray:none;stroke-opacity:1"
          d="m 241.36691,155.10521 c 18.48861,-1.87852 36.97721,-3.75704 55.46582,-5.63556"
          id="path153"/>
  <path
          style="fill:#00dd01;fill-opacity:0.67058825;stroke:#009701;stroke-width:0.739;stroke-linecap:butt;stroke-linejoin:round;stroke-dasharray:none;stroke-opacity:1"
          d="m 248.91183,146.76218 c 6.91973,-28.28133 13.83946,-56.562655 20.75919,-84.843991"
          id="path153-3"
          inkscape:path-effect="#path-effect153-5"
          inkscape:original-d="m 248.91183,146.76218 c 6.91973,-28.28133 13.83946,-56.562655 20.75919,-84.843991"
          transform="translate(27.161709,87.551461)"
          sodipodi:nodetypes="cc"/>
</svg>
