<?xml version="1.0" encoding="utf-8" standalone="no"?>
<!DOCTYPE svg PUBLIC "-//W3C//DTD SVG 1.1//EN"
  "http://www.w3.org/Graphics/SVG/1.1/DTD/svg11.dtd">
<svg xmlns:xlink="http://www.w3.org/1999/xlink" width="720pt" height="864pt" viewBox="0 0 720 864" xmlns="http://www.w3.org/2000/svg" version="1.1">
 <metadata>
  <rdf:RDF xmlns:dc="http://purl.org/dc/elements/1.1/" xmlns:cc="http://creativecommons.org/ns#" xmlns:rdf="http://www.w3.org/1999/02/22-rdf-syntax-ns#">
   <cc:Work>
    <dc:type rdf:resource="http://purl.org/dc/dcmitype/StillImage"/>
    <dc:date>2025-02-25T23:42:51.178498</dc:date>
    <dc:format>image/svg+xml</dc:format>
    <dc:creator>
     <cc:Agent>
      <dc:title>Matplotlib v3.10.0, https://matplotlib.org/</dc:title>
     </cc:Agent>
    </dc:creator>
   </cc:Work>
  </rdf:RDF>
 </metadata>
 <defs>
  <style type="text/css">*{stroke-linejoin: round; stroke-linecap: butt}</style>
 </defs>
 <g id="figure_1">
  <g id="patch_1">
   <path d="M 0 864 
L 720 864 
L 720 0 
L 0 0 
z
" style="fill: #ffffff"/>
  </g>
  <g id="axes_1">
   <g id="patch_2">
    <path d="M 74.796 645.866348 
L 692.917651 645.866348 
L 692.917651 40.416 
L 74.796 40.416 
z
" style="fill: #ffffff"/>
   </g>
   <g id="matplotlib.axis_1">
    <g id="xtick_1">
     <g id="text_1">
      <!-- RandomSplit -->
      <g style="fill: #262626" transform="translate(109.316164 734.472111) rotate(-45) scale(0.176 -0.176)">
       <defs>
        <path id="ArialMT-52" d="M 503 0 
L 503 4581 
L 2534 4581 
Q 3147 4581 3465 4457 
Q 3784 4334 3975 4021 
Q 4166 3709 4166 3331 
Q 4166 2844 3850 2509 
Q 3534 2175 2875 2084 
Q 3116 1969 3241 1856 
Q 3506 1613 3744 1247 
L 4541 0 
L 3778 0 
L 3172 953 
Q 2906 1366 2734 1584 
Q 2563 1803 2427 1890 
Q 2291 1978 2150 2013 
Q 2047 2034 1813 2034 
L 1109 2034 
L 1109 0 
L 503 0 
z
M 1109 2559 
L 2413 2559 
Q 2828 2559 3062 2645 
Q 3297 2731 3419 2920 
Q 3541 3109 3541 3331 
Q 3541 3656 3305 3865 
Q 3069 4075 2559 4075 
L 1109 4075 
L 1109 2559 
z
" transform="scale(0.015625)"/>
        <path id="ArialMT-61" d="M 2588 409 
Q 2275 144 1986 34 
Q 1697 -75 1366 -75 
Q 819 -75 525 192 
Q 231 459 231 875 
Q 231 1119 342 1320 
Q 453 1522 633 1644 
Q 813 1766 1038 1828 
Q 1203 1872 1538 1913 
Q 2219 1994 2541 2106 
Q 2544 2222 2544 2253 
Q 2544 2597 2384 2738 
Q 2169 2928 1744 2928 
Q 1347 2928 1158 2789 
Q 969 2650 878 2297 
L 328 2372 
Q 403 2725 575 2942 
Q 747 3159 1072 3276 
Q 1397 3394 1825 3394 
Q 2250 3394 2515 3294 
Q 2781 3194 2906 3042 
Q 3031 2891 3081 2659 
Q 3109 2516 3109 2141 
L 3109 1391 
Q 3109 606 3145 398 
Q 3181 191 3288 0 
L 2700 0 
Q 2613 175 2588 409 
z
M 2541 1666 
Q 2234 1541 1622 1453 
Q 1275 1403 1131 1340 
Q 988 1278 909 1158 
Q 831 1038 831 891 
Q 831 666 1001 516 
Q 1172 366 1500 366 
Q 1825 366 2078 508 
Q 2331 650 2450 897 
Q 2541 1088 2541 1459 
L 2541 1666 
z
" transform="scale(0.015625)"/>
        <path id="ArialMT-6e" d="M 422 0 
L 422 3319 
L 928 3319 
L 928 2847 
Q 1294 3394 1984 3394 
Q 2284 3394 2536 3286 
Q 2788 3178 2913 3003 
Q 3038 2828 3088 2588 
Q 3119 2431 3119 2041 
L 3119 0 
L 2556 0 
L 2556 2019 
Q 2556 2363 2490 2533 
Q 2425 2703 2258 2804 
Q 2091 2906 1866 2906 
Q 1506 2906 1245 2678 
Q 984 2450 984 1813 
L 984 0 
L 422 0 
z
" transform="scale(0.015625)"/>
        <path id="ArialMT-64" d="M 2575 0 
L 2575 419 
Q 2259 -75 1647 -75 
Q 1250 -75 917 144 
Q 584 363 401 755 
Q 219 1147 219 1656 
Q 219 2153 384 2558 
Q 550 2963 881 3178 
Q 1213 3394 1622 3394 
Q 1922 3394 2156 3267 
Q 2391 3141 2538 2938 
L 2538 4581 
L 3097 4581 
L 3097 0 
L 2575 0 
z
M 797 1656 
Q 797 1019 1065 703 
Q 1334 388 1700 388 
Q 2069 388 2326 689 
Q 2584 991 2584 1609 
Q 2584 2291 2321 2609 
Q 2059 2928 1675 2928 
Q 1300 2928 1048 2622 
Q 797 2316 797 1656 
z
" transform="scale(0.015625)"/>
        <path id="ArialMT-6f" d="M 213 1659 
Q 213 2581 725 3025 
Q 1153 3394 1769 3394 
Q 2453 3394 2887 2945 
Q 3322 2497 3322 1706 
Q 3322 1066 3130 698 
Q 2938 331 2570 128 
Q 2203 -75 1769 -75 
Q 1072 -75 642 372 
Q 213 819 213 1659 
z
M 791 1659 
Q 791 1022 1069 705 
Q 1347 388 1769 388 
Q 2188 388 2466 706 
Q 2744 1025 2744 1678 
Q 2744 2294 2464 2611 
Q 2184 2928 1769 2928 
Q 1347 2928 1069 2612 
Q 791 2297 791 1659 
z
" transform="scale(0.015625)"/>
        <path id="ArialMT-6d" d="M 422 0 
L 422 3319 
L 925 3319 
L 925 2853 
Q 1081 3097 1340 3245 
Q 1600 3394 1931 3394 
Q 2300 3394 2536 3241 
Q 2772 3088 2869 2813 
Q 3263 3394 3894 3394 
Q 4388 3394 4653 3120 
Q 4919 2847 4919 2278 
L 4919 0 
L 4359 0 
L 4359 2091 
Q 4359 2428 4304 2576 
Q 4250 2725 4106 2815 
Q 3963 2906 3769 2906 
Q 3419 2906 3187 2673 
Q 2956 2441 2956 1928 
L 2956 0 
L 2394 0 
L 2394 2156 
Q 2394 2531 2256 2718 
Q 2119 2906 1806 2906 
Q 1569 2906 1367 2781 
Q 1166 2656 1075 2415 
Q 984 2175 984 1722 
L 984 0 
L 422 0 
z
" transform="scale(0.015625)"/>
        <path id="ArialMT-53" d="M 288 1472 
L 859 1522 
Q 900 1178 1048 958 
Q 1197 738 1509 602 
Q 1822 466 2213 466 
Q 2559 466 2825 569 
Q 3091 672 3220 851 
Q 3350 1031 3350 1244 
Q 3350 1459 3225 1620 
Q 3100 1781 2813 1891 
Q 2628 1963 1997 2114 
Q 1366 2266 1113 2400 
Q 784 2572 623 2826 
Q 463 3081 463 3397 
Q 463 3744 659 4045 
Q 856 4347 1234 4503 
Q 1613 4659 2075 4659 
Q 2584 4659 2973 4495 
Q 3363 4331 3572 4012 
Q 3781 3694 3797 3291 
L 3216 3247 
Q 3169 3681 2898 3903 
Q 2628 4125 2100 4125 
Q 1550 4125 1298 3923 
Q 1047 3722 1047 3438 
Q 1047 3191 1225 3031 
Q 1400 2872 2139 2705 
Q 2878 2538 3153 2413 
Q 3553 2228 3743 1945 
Q 3934 1663 3934 1294 
Q 3934 928 3725 604 
Q 3516 281 3123 101 
Q 2731 -78 2241 -78 
Q 1619 -78 1198 103 
Q 778 284 539 648 
Q 300 1013 288 1472 
z
" transform="scale(0.015625)"/>
        <path id="ArialMT-70" d="M 422 -1272 
L 422 3319 
L 934 3319 
L 934 2888 
Q 1116 3141 1344 3267 
Q 1572 3394 1897 3394 
Q 2322 3394 2647 3175 
Q 2972 2956 3137 2557 
Q 3303 2159 3303 1684 
Q 3303 1175 3120 767 
Q 2938 359 2589 142 
Q 2241 -75 1856 -75 
Q 1575 -75 1351 44 
Q 1128 163 984 344 
L 984 -1272 
L 422 -1272 
z
M 931 1641 
Q 931 1000 1190 694 
Q 1450 388 1819 388 
Q 2194 388 2461 705 
Q 2728 1022 2728 1688 
Q 2728 2322 2467 2637 
Q 2206 2953 1844 2953 
Q 1484 2953 1207 2617 
Q 931 2281 931 1641 
z
" transform="scale(0.015625)"/>
        <path id="ArialMT-6c" d="M 409 0 
L 409 4581 
L 972 4581 
L 972 0 
L 409 0 
z
" transform="scale(0.015625)"/>
        <path id="ArialMT-69" d="M 425 3934 
L 425 4581 
L 988 4581 
L 988 3934 
L 425 3934 
z
M 425 0 
L 425 3319 
L 988 3319 
L 988 0 
L 425 0 
z
" transform="scale(0.015625)"/>
        <path id="ArialMT-74" d="M 1650 503 
L 1731 6 
Q 1494 -44 1306 -44 
Q 1000 -44 831 53 
Q 663 150 594 308 
Q 525 466 525 972 
L 525 2881 
L 113 2881 
L 113 3319 
L 525 3319 
L 525 4141 
L 1084 4478 
L 1084 3319 
L 1650 3319 
L 1650 2881 
L 1084 2881 
L 1084 941 
Q 1084 700 1114 631 
Q 1144 563 1211 522 
Q 1278 481 1403 481 
Q 1497 481 1650 503 
z
" transform="scale(0.015625)"/>
       </defs>
       <use xlink:href="#ArialMT-52"/>
       <use xlink:href="#ArialMT-61" transform="translate(72.216797 0)"/>
       <use xlink:href="#ArialMT-6e" transform="translate(127.832031 0)"/>
       <use xlink:href="#ArialMT-64" transform="translate(183.447266 0)"/>
       <use xlink:href="#ArialMT-6f" transform="translate(239.0625 0)"/>
       <use xlink:href="#ArialMT-6d" transform="translate(294.677734 0)"/>
       <use xlink:href="#ArialMT-53" transform="translate(377.978516 0)"/>
       <use xlink:href="#ArialMT-70" transform="translate(444.677734 0)"/>
       <use xlink:href="#ArialMT-6c" transform="translate(500.292969 0)"/>
       <use xlink:href="#ArialMT-69" transform="translate(522.509766 0)"/>
       <use xlink:href="#ArialMT-74" transform="translate(544.726562 0)"/>
      </g>
     </g>
    </g>
    <g id="xtick_2">
     <g id="text_2">
      <!-- ScaffoldSplit -->
      <g style="fill: #262626" transform="translate(207.3448 732.183383) rotate(-45) scale(0.176 -0.176)">
       <defs>
        <path id="ArialMT-63" d="M 2588 1216 
L 3141 1144 
Q 3050 572 2676 248 
Q 2303 -75 1759 -75 
Q 1078 -75 664 370 
Q 250 816 250 1647 
Q 250 2184 428 2587 
Q 606 2991 970 3192 
Q 1334 3394 1763 3394 
Q 2303 3394 2647 3120 
Q 2991 2847 3088 2344 
L 2541 2259 
Q 2463 2594 2264 2762 
Q 2066 2931 1784 2931 
Q 1359 2931 1093 2626 
Q 828 2322 828 1663 
Q 828 994 1084 691 
Q 1341 388 1753 388 
Q 2084 388 2306 591 
Q 2528 794 2588 1216 
z
" transform="scale(0.015625)"/>
        <path id="ArialMT-66" d="M 556 0 
L 556 2881 
L 59 2881 
L 59 3319 
L 556 3319 
L 556 3672 
Q 556 4006 616 4169 
Q 697 4388 901 4523 
Q 1106 4659 1475 4659 
Q 1713 4659 2000 4603 
L 1916 4113 
Q 1741 4144 1584 4144 
Q 1328 4144 1222 4034 
Q 1116 3925 1116 3625 
L 1116 3319 
L 1763 3319 
L 1763 2881 
L 1116 2881 
L 1116 0 
L 556 0 
z
" transform="scale(0.015625)"/>
       </defs>
       <use xlink:href="#ArialMT-53"/>
       <use xlink:href="#ArialMT-63" transform="translate(66.699219 0)"/>
       <use xlink:href="#ArialMT-61" transform="translate(116.699219 0)"/>
       <use xlink:href="#ArialMT-66" transform="translate(172.314453 0)"/>
       <use xlink:href="#ArialMT-66" transform="translate(198.347656 0)"/>
       <use xlink:href="#ArialMT-6f" transform="translate(226.130859 0)"/>
       <use xlink:href="#ArialMT-6c" transform="translate(281.746094 0)"/>
       <use xlink:href="#ArialMT-64" transform="translate(303.962891 0)"/>
       <use xlink:href="#ArialMT-53" transform="translate(359.578125 0)"/>
       <use xlink:href="#ArialMT-70" transform="translate(426.277344 0)"/>
       <use xlink:href="#ArialMT-6c" transform="translate(481.892578 0)"/>
       <use xlink:href="#ArialMT-69" transform="translate(504.109375 0)"/>
       <use xlink:href="#ArialMT-74" transform="translate(526.326172 0)"/>
      </g>
     </g>
    </g>
    <g id="xtick_3">
     <g id="text_3">
      <!-- SortedStepForward_LogD -->
      <g style="fill: #262626" transform="translate(266.348388 807.798908) rotate(-45) scale(0.176 -0.176)">
       <defs>
        <path id="ArialMT-72" d="M 416 0 
L 416 3319 
L 922 3319 
L 922 2816 
Q 1116 3169 1280 3281 
Q 1444 3394 1641 3394 
Q 1925 3394 2219 3213 
L 2025 2691 
Q 1819 2813 1613 2813 
Q 1428 2813 1281 2702 
Q 1134 2591 1072 2394 
Q 978 2094 978 1738 
L 978 0 
L 416 0 
z
" transform="scale(0.015625)"/>
        <path id="ArialMT-65" d="M 2694 1069 
L 3275 997 
Q 3138 488 2766 206 
Q 2394 -75 1816 -75 
Q 1088 -75 661 373 
Q 234 822 234 1631 
Q 234 2469 665 2931 
Q 1097 3394 1784 3394 
Q 2450 3394 2872 2941 
Q 3294 2488 3294 1666 
Q 3294 1616 3291 1516 
L 816 1516 
Q 847 969 1125 678 
Q 1403 388 1819 388 
Q 2128 388 2347 550 
Q 2566 713 2694 1069 
z
M 847 1978 
L 2700 1978 
Q 2663 2397 2488 2606 
Q 2219 2931 1791 2931 
Q 1403 2931 1139 2672 
Q 875 2413 847 1978 
z
" transform="scale(0.015625)"/>
        <path id="ArialMT-46" d="M 525 0 
L 525 4581 
L 3616 4581 
L 3616 4041 
L 1131 4041 
L 1131 2622 
L 3281 2622 
L 3281 2081 
L 1131 2081 
L 1131 0 
L 525 0 
z
" transform="scale(0.015625)"/>
        <path id="ArialMT-77" d="M 1034 0 
L 19 3319 
L 600 3319 
L 1128 1403 
L 1325 691 
Q 1338 744 1497 1375 
L 2025 3319 
L 2603 3319 
L 3100 1394 
L 3266 759 
L 3456 1400 
L 4025 3319 
L 4572 3319 
L 3534 0 
L 2950 0 
L 2422 1988 
L 2294 2553 
L 1622 0 
L 1034 0 
z
" transform="scale(0.015625)"/>
        <path id="ArialMT-5f" d="M -97 -1272 
L -97 -866 
L 3631 -866 
L 3631 -1272 
L -97 -1272 
z
" transform="scale(0.015625)"/>
        <path id="ArialMT-4c" d="M 469 0 
L 469 4581 
L 1075 4581 
L 1075 541 
L 3331 541 
L 3331 0 
L 469 0 
z
" transform="scale(0.015625)"/>
        <path id="ArialMT-67" d="M 319 -275 
L 866 -356 
Q 900 -609 1056 -725 
Q 1266 -881 1628 -881 
Q 2019 -881 2231 -725 
Q 2444 -569 2519 -288 
Q 2563 -116 2559 434 
Q 2191 0 1641 0 
Q 956 0 581 494 
Q 206 988 206 1678 
Q 206 2153 378 2554 
Q 550 2956 876 3175 
Q 1203 3394 1644 3394 
Q 2231 3394 2613 2919 
L 2613 3319 
L 3131 3319 
L 3131 450 
Q 3131 -325 2973 -648 
Q 2816 -972 2473 -1159 
Q 2131 -1347 1631 -1347 
Q 1038 -1347 672 -1080 
Q 306 -813 319 -275 
z
M 784 1719 
Q 784 1066 1043 766 
Q 1303 466 1694 466 
Q 2081 466 2343 764 
Q 2606 1063 2606 1700 
Q 2606 2309 2336 2618 
Q 2066 2928 1684 2928 
Q 1309 2928 1046 2623 
Q 784 2319 784 1719 
z
" transform="scale(0.015625)"/>
        <path id="ArialMT-44" d="M 494 0 
L 494 4581 
L 2072 4581 
Q 2606 4581 2888 4516 
Q 3281 4425 3559 4188 
Q 3922 3881 4101 3404 
Q 4281 2928 4281 2316 
Q 4281 1794 4159 1391 
Q 4038 988 3847 723 
Q 3656 459 3429 307 
Q 3203 156 2883 78 
Q 2563 0 2147 0 
L 494 0 
z
M 1100 541 
L 2078 541 
Q 2531 541 2789 625 
Q 3047 709 3200 863 
Q 3416 1078 3536 1442 
Q 3656 1806 3656 2325 
Q 3656 3044 3420 3430 
Q 3184 3816 2847 3947 
Q 2603 4041 2063 4041 
L 1100 4041 
L 1100 541 
z
" transform="scale(0.015625)"/>
       </defs>
       <use xlink:href="#ArialMT-53"/>
       <use xlink:href="#ArialMT-6f" transform="translate(66.699219 0)"/>
       <use xlink:href="#ArialMT-72" transform="translate(122.314453 0)"/>
       <use xlink:href="#ArialMT-74" transform="translate(155.615234 0)"/>
       <use xlink:href="#ArialMT-65" transform="translate(183.398438 0)"/>
       <use xlink:href="#ArialMT-64" transform="translate(239.013672 0)"/>
       <use xlink:href="#ArialMT-53" transform="translate(294.628906 0)"/>
       <use xlink:href="#ArialMT-74" transform="translate(361.328125 0)"/>
       <use xlink:href="#ArialMT-65" transform="translate(389.111328 0)"/>
       <use xlink:href="#ArialMT-70" transform="translate(444.726562 0)"/>
       <use xlink:href="#ArialMT-46" transform="translate(500.341797 0)"/>
       <use xlink:href="#ArialMT-6f" transform="translate(561.425781 0)"/>
       <use xlink:href="#ArialMT-72" transform="translate(617.041016 0)"/>
       <use xlink:href="#ArialMT-77" transform="translate(650.341797 0)"/>
       <use xlink:href="#ArialMT-61" transform="translate(722.558594 0)"/>
       <use xlink:href="#ArialMT-72" transform="translate(778.173828 0)"/>
       <use xlink:href="#ArialMT-64" transform="translate(811.474609 0)"/>
       <use xlink:href="#ArialMT-5f" transform="translate(867.089844 0)"/>
       <use xlink:href="#ArialMT-4c" transform="translate(922.705078 0)"/>
       <use xlink:href="#ArialMT-6f" transform="translate(978.320312 0)"/>
       <use xlink:href="#ArialMT-67" transform="translate(1033.935547 0)"/>
       <use xlink:href="#ArialMT-44" transform="translate(1089.550781 0)"/>
      </g>
     </g>
    </g>
    <g id="xtick_4">
     <g id="text_4">
      <!-- SortedStepForward_LogP -->
      <g style="fill: #262626" transform="translate(363.575872 807.112484) rotate(-45) scale(0.176 -0.176)">
       <defs>
        <path id="ArialMT-50" d="M 494 0 
L 494 4581 
L 2222 4581 
Q 2678 4581 2919 4538 
Q 3256 4481 3484 4323 
Q 3713 4166 3852 3881 
Q 3991 3597 3991 3256 
Q 3991 2672 3619 2267 
Q 3247 1863 2275 1863 
L 1100 1863 
L 1100 0 
L 494 0 
z
M 1100 2403 
L 2284 2403 
Q 2872 2403 3119 2622 
Q 3366 2841 3366 3238 
Q 3366 3525 3220 3729 
Q 3075 3934 2838 4000 
Q 2684 4041 2272 4041 
L 1100 4041 
L 1100 2403 
z
" transform="scale(0.015625)"/>
       </defs>
       <use xlink:href="#ArialMT-53"/>
       <use xlink:href="#ArialMT-6f" transform="translate(66.699219 0)"/>
       <use xlink:href="#ArialMT-72" transform="translate(122.314453 0)"/>
       <use xlink:href="#ArialMT-74" transform="translate(155.615234 0)"/>
       <use xlink:href="#ArialMT-65" transform="translate(183.398438 0)"/>
       <use xlink:href="#ArialMT-64" transform="translate(239.013672 0)"/>
       <use xlink:href="#ArialMT-53" transform="translate(294.628906 0)"/>
       <use xlink:href="#ArialMT-74" transform="translate(361.328125 0)"/>
       <use xlink:href="#ArialMT-65" transform="translate(389.111328 0)"/>
       <use xlink:href="#ArialMT-70" transform="translate(444.726562 0)"/>
       <use xlink:href="#ArialMT-46" transform="translate(500.341797 0)"/>
       <use xlink:href="#ArialMT-6f" transform="translate(561.425781 0)"/>
       <use xlink:href="#ArialMT-72" transform="translate(617.041016 0)"/>
       <use xlink:href="#ArialMT-77" transform="translate(650.341797 0)"/>
       <use xlink:href="#ArialMT-61" transform="translate(722.558594 0)"/>
       <use xlink:href="#ArialMT-72" transform="translate(778.173828 0)"/>
       <use xlink:href="#ArialMT-64" transform="translate(811.474609 0)"/>
       <use xlink:href="#ArialMT-5f" transform="translate(867.089844 0)"/>
       <use xlink:href="#ArialMT-4c" transform="translate(922.705078 0)"/>
       <use xlink:href="#ArialMT-6f" transform="translate(978.320312 0)"/>
       <use xlink:href="#ArialMT-67" transform="translate(1033.935547 0)"/>
       <use xlink:href="#ArialMT-50" transform="translate(1089.550781 0)"/>
      </g>
     </g>
    </g>
    <g id="xtick_5">
     <g id="text_5">
      <!-- SortedStepForward_MCE18 -->
      <g style="fill: #262626" transform="translate(454.316357 819.545896) rotate(-45) scale(0.176 -0.176)">
       <defs>
        <path id="ArialMT-4d" d="M 475 0 
L 475 4581 
L 1388 4581 
L 2472 1338 
Q 2622 884 2691 659 
Q 2769 909 2934 1394 
L 4031 4581 
L 4847 4581 
L 4847 0 
L 4263 0 
L 4263 3834 
L 2931 0 
L 2384 0 
L 1059 3900 
L 1059 0 
L 475 0 
z
" transform="scale(0.015625)"/>
        <path id="ArialMT-43" d="M 3763 1606 
L 4369 1453 
Q 4178 706 3683 314 
Q 3188 -78 2472 -78 
Q 1731 -78 1267 223 
Q 803 525 561 1097 
Q 319 1669 319 2325 
Q 319 3041 592 3573 
Q 866 4106 1370 4382 
Q 1875 4659 2481 4659 
Q 3169 4659 3637 4309 
Q 4106 3959 4291 3325 
L 3694 3184 
Q 3534 3684 3231 3912 
Q 2928 4141 2469 4141 
Q 1941 4141 1586 3887 
Q 1231 3634 1087 3207 
Q 944 2781 944 2328 
Q 944 1744 1114 1308 
Q 1284 872 1643 656 
Q 2003 441 2422 441 
Q 2931 441 3284 734 
Q 3638 1028 3763 1606 
z
" transform="scale(0.015625)"/>
        <path id="ArialMT-45" d="M 506 0 
L 506 4581 
L 3819 4581 
L 3819 4041 
L 1113 4041 
L 1113 2638 
L 3647 2638 
L 3647 2100 
L 1113 2100 
L 1113 541 
L 3925 541 
L 3925 0 
L 506 0 
z
" transform="scale(0.015625)"/>
        <path id="ArialMT-31" d="M 2384 0 
L 1822 0 
L 1822 3584 
Q 1619 3391 1289 3197 
Q 959 3003 697 2906 
L 697 3450 
Q 1169 3672 1522 3987 
Q 1875 4303 2022 4600 
L 2384 4600 
L 2384 0 
z
" transform="scale(0.015625)"/>
        <path id="ArialMT-38" d="M 1131 2484 
Q 781 2613 612 2850 
Q 444 3088 444 3419 
Q 444 3919 803 4259 
Q 1163 4600 1759 4600 
Q 2359 4600 2725 4251 
Q 3091 3903 3091 3403 
Q 3091 3084 2923 2848 
Q 2756 2613 2416 2484 
Q 2838 2347 3058 2040 
Q 3278 1734 3278 1309 
Q 3278 722 2862 322 
Q 2447 -78 1769 -78 
Q 1091 -78 675 323 
Q 259 725 259 1325 
Q 259 1772 486 2073 
Q 713 2375 1131 2484 
z
M 1019 3438 
Q 1019 3113 1228 2906 
Q 1438 2700 1772 2700 
Q 2097 2700 2305 2904 
Q 2513 3109 2513 3406 
Q 2513 3716 2298 3927 
Q 2084 4138 1766 4138 
Q 1444 4138 1231 3931 
Q 1019 3725 1019 3438 
z
M 838 1322 
Q 838 1081 952 856 
Q 1066 631 1291 507 
Q 1516 384 1775 384 
Q 2178 384 2440 643 
Q 2703 903 2703 1303 
Q 2703 1709 2433 1975 
Q 2163 2241 1756 2241 
Q 1359 2241 1098 1978 
Q 838 1716 838 1322 
z
" transform="scale(0.015625)"/>
       </defs>
       <use xlink:href="#ArialMT-53"/>
       <use xlink:href="#ArialMT-6f" transform="translate(66.699219 0)"/>
       <use xlink:href="#ArialMT-72" transform="translate(122.314453 0)"/>
       <use xlink:href="#ArialMT-74" transform="translate(155.615234 0)"/>
       <use xlink:href="#ArialMT-65" transform="translate(183.398438 0)"/>
       <use xlink:href="#ArialMT-64" transform="translate(239.013672 0)"/>
       <use xlink:href="#ArialMT-53" transform="translate(294.628906 0)"/>
       <use xlink:href="#ArialMT-74" transform="translate(361.328125 0)"/>
       <use xlink:href="#ArialMT-65" transform="translate(389.111328 0)"/>
       <use xlink:href="#ArialMT-70" transform="translate(444.726562 0)"/>
       <use xlink:href="#ArialMT-46" transform="translate(500.341797 0)"/>
       <use xlink:href="#ArialMT-6f" transform="translate(561.425781 0)"/>
       <use xlink:href="#ArialMT-72" transform="translate(617.041016 0)"/>
       <use xlink:href="#ArialMT-77" transform="translate(650.341797 0)"/>
       <use xlink:href="#ArialMT-61" transform="translate(722.558594 0)"/>
       <use xlink:href="#ArialMT-72" transform="translate(778.173828 0)"/>
       <use xlink:href="#ArialMT-64" transform="translate(811.474609 0)"/>
       <use xlink:href="#ArialMT-5f" transform="translate(867.089844 0)"/>
       <use xlink:href="#ArialMT-4d" transform="translate(922.705078 0)"/>
       <use xlink:href="#ArialMT-43" transform="translate(1006.005859 0)"/>
       <use xlink:href="#ArialMT-45" transform="translate(1078.222656 0)"/>
       <use xlink:href="#ArialMT-31" transform="translate(1144.921875 0)"/>
       <use xlink:href="#ArialMT-38" transform="translate(1200.537109 0)"/>
      </g>
     </g>
    </g>
    <g id="xtick_6">
     <g id="text_6">
      <!-- UnsortedStepForward -->
      <g style="fill: #262626" transform="translate(568.494428 784.958298) rotate(-45) scale(0.176 -0.176)">
       <defs>
        <path id="ArialMT-55" d="M 3500 4581 
L 4106 4581 
L 4106 1934 
Q 4106 1244 3950 837 
Q 3794 431 3386 176 
Q 2978 -78 2316 -78 
Q 1672 -78 1262 144 
Q 853 366 678 786 
Q 503 1206 503 1934 
L 503 4581 
L 1109 4581 
L 1109 1938 
Q 1109 1341 1220 1058 
Q 1331 775 1601 622 
Q 1872 469 2263 469 
Q 2931 469 3215 772 
Q 3500 1075 3500 1938 
L 3500 4581 
z
" transform="scale(0.015625)"/>
        <path id="ArialMT-73" d="M 197 991 
L 753 1078 
Q 800 744 1014 566 
Q 1228 388 1613 388 
Q 2000 388 2187 545 
Q 2375 703 2375 916 
Q 2375 1106 2209 1216 
Q 2094 1291 1634 1406 
Q 1016 1563 777 1677 
Q 538 1791 414 1992 
Q 291 2194 291 2438 
Q 291 2659 392 2848 
Q 494 3038 669 3163 
Q 800 3259 1026 3326 
Q 1253 3394 1513 3394 
Q 1903 3394 2198 3281 
Q 2494 3169 2634 2976 
Q 2775 2784 2828 2463 
L 2278 2388 
Q 2241 2644 2061 2787 
Q 1881 2931 1553 2931 
Q 1166 2931 1000 2803 
Q 834 2675 834 2503 
Q 834 2394 903 2306 
Q 972 2216 1119 2156 
Q 1203 2125 1616 2013 
Q 2213 1853 2448 1751 
Q 2684 1650 2818 1456 
Q 2953 1263 2953 975 
Q 2953 694 2789 445 
Q 2625 197 2315 61 
Q 2006 -75 1616 -75 
Q 969 -75 630 194 
Q 291 463 197 991 
z
" transform="scale(0.015625)"/>
       </defs>
       <use xlink:href="#ArialMT-55"/>
       <use xlink:href="#ArialMT-6e" transform="translate(72.216797 0)"/>
       <use xlink:href="#ArialMT-73" transform="translate(127.832031 0)"/>
       <use xlink:href="#ArialMT-6f" transform="translate(177.832031 0)"/>
       <use xlink:href="#ArialMT-72" transform="translate(233.447266 0)"/>
       <use xlink:href="#ArialMT-74" transform="translate(266.748047 0)"/>
       <use xlink:href="#ArialMT-65" transform="translate(294.53125 0)"/>
       <use xlink:href="#ArialMT-64" transform="translate(350.146484 0)"/>
       <use xlink:href="#ArialMT-53" transform="translate(405.761719 0)"/>
       <use xlink:href="#ArialMT-74" transform="translate(472.460938 0)"/>
       <use xlink:href="#ArialMT-65" transform="translate(500.244141 0)"/>
       <use xlink:href="#ArialMT-70" transform="translate(555.859375 0)"/>
       <use xlink:href="#ArialMT-46" transform="translate(611.474609 0)"/>
       <use xlink:href="#ArialMT-6f" transform="translate(672.558594 0)"/>
       <use xlink:href="#ArialMT-72" transform="translate(728.173828 0)"/>
       <use xlink:href="#ArialMT-77" transform="translate(761.474609 0)"/>
       <use xlink:href="#ArialMT-61" transform="translate(833.691406 0)"/>
       <use xlink:href="#ArialMT-72" transform="translate(889.306641 0)"/>
       <use xlink:href="#ArialMT-64" transform="translate(922.607422 0)"/>
      </g>
     </g>
    </g>
    <g id="text_7">
     <!-- split_type -->
     <g style="fill: #262626" transform="translate(343.302825 839.762355) scale(0.192 -0.192)">
      <defs>
       <path id="ArialMT-79" d="M 397 -1278 
L 334 -750 
Q 519 -800 656 -800 
Q 844 -800 956 -737 
Q 1069 -675 1141 -563 
Q 1194 -478 1313 -144 
Q 1328 -97 1363 -6 
L 103 3319 
L 709 3319 
L 1400 1397 
Q 1534 1031 1641 628 
Q 1738 1016 1872 1384 
L 2581 3319 
L 3144 3319 
L 1881 -56 
Q 1678 -603 1566 -809 
Q 1416 -1088 1222 -1217 
Q 1028 -1347 759 -1347 
Q 597 -1347 397 -1278 
z
" transform="scale(0.015625)"/>
      </defs>
      <use xlink:href="#ArialMT-73"/>
      <use xlink:href="#ArialMT-70" transform="translate(50 0)"/>
      <use xlink:href="#ArialMT-6c" transform="translate(105.615234 0)"/>
      <use xlink:href="#ArialMT-69" transform="translate(127.832031 0)"/>
      <use xlink:href="#ArialMT-74" transform="translate(150.048828 0)"/>
      <use xlink:href="#ArialMT-5f" transform="translate(177.832031 0)"/>
      <use xlink:href="#ArialMT-74" transform="translate(233.447266 0)"/>
      <use xlink:href="#ArialMT-79" transform="translate(261.230469 0)"/>
      <use xlink:href="#ArialMT-70" transform="translate(311.230469 0)"/>
      <use xlink:href="#ArialMT-65" transform="translate(366.845703 0)"/>
     </g>
    </g>
   </g>
   <g id="matplotlib.axis_2">
    <g id="ytick_1">
     <g id="line2d_1">
      <path d="M 74.796 610.583101 
L 692.917651 610.583101 
" clip-path="url(#pacd5282746)" style="fill: none; stroke: #cccccc; stroke-width: 0.8; stroke-linecap: round"/>
     </g>
     <g id="text_8">
      <!-- 0.0 -->
      <g style="fill: #262626" transform="translate(42.032 616.881976) scale(0.176 -0.176)">
       <defs>
        <path id="ArialMT-30" d="M 266 2259 
Q 266 3072 433 3567 
Q 600 4063 929 4331 
Q 1259 4600 1759 4600 
Q 2128 4600 2406 4451 
Q 2684 4303 2865 4023 
Q 3047 3744 3150 3342 
Q 3253 2941 3253 2259 
Q 3253 1453 3087 958 
Q 2922 463 2592 192 
Q 2263 -78 1759 -78 
Q 1097 -78 719 397 
Q 266 969 266 2259 
z
M 844 2259 
Q 844 1131 1108 757 
Q 1372 384 1759 384 
Q 2147 384 2411 759 
Q 2675 1134 2675 2259 
Q 2675 3391 2411 3762 
Q 2147 4134 1753 4134 
Q 1366 4134 1134 3806 
Q 844 3388 844 2259 
z
" transform="scale(0.015625)"/>
        <path id="ArialMT-2e" d="M 581 0 
L 581 641 
L 1222 641 
L 1222 0 
L 581 0 
z
" transform="scale(0.015625)"/>
       </defs>
       <use xlink:href="#ArialMT-30"/>
       <use xlink:href="#ArialMT-2e" transform="translate(55.615234 0)"/>
       <use xlink:href="#ArialMT-30" transform="translate(83.398438 0)"/>
      </g>
     </g>
    </g>
    <g id="ytick_2">
     <g id="line2d_2">
      <path d="M 74.796 486.069456 
L 692.917651 486.069456 
" clip-path="url(#pacd5282746)" style="fill: none; stroke: #cccccc; stroke-width: 0.8; stroke-linecap: round"/>
     </g>
     <g id="text_9">
      <!-- 0.5 -->
      <g style="fill: #262626" transform="translate(42.032 492.368331) scale(0.176 -0.176)">
       <defs>
        <path id="ArialMT-35" d="M 266 1200 
L 856 1250 
Q 922 819 1161 601 
Q 1400 384 1738 384 
Q 2144 384 2425 690 
Q 2706 997 2706 1503 
Q 2706 1984 2436 2262 
Q 2166 2541 1728 2541 
Q 1456 2541 1237 2417 
Q 1019 2294 894 2097 
L 366 2166 
L 809 4519 
L 3088 4519 
L 3088 3981 
L 1259 3981 
L 1013 2750 
Q 1425 3038 1878 3038 
Q 2478 3038 2890 2622 
Q 3303 2206 3303 1553 
Q 3303 931 2941 478 
Q 2500 -78 1738 -78 
Q 1113 -78 717 272 
Q 322 622 266 1200 
z
" transform="scale(0.015625)"/>
       </defs>
       <use xlink:href="#ArialMT-30"/>
       <use xlink:href="#ArialMT-2e" transform="translate(55.615234 0)"/>
       <use xlink:href="#ArialMT-35" transform="translate(83.398438 0)"/>
      </g>
     </g>
    </g>
    <g id="ytick_3">
     <g id="line2d_3">
      <path d="M 74.796 361.555811 
L 692.917651 361.555811 
" clip-path="url(#pacd5282746)" style="fill: none; stroke: #cccccc; stroke-width: 0.8; stroke-linecap: round"/>
     </g>
     <g id="text_10">
      <!-- 1.0 -->
      <g style="fill: #262626" transform="translate(42.032 367.854686) scale(0.176 -0.176)">
       <use xlink:href="#ArialMT-31"/>
       <use xlink:href="#ArialMT-2e" transform="translate(55.615234 0)"/>
       <use xlink:href="#ArialMT-30" transform="translate(83.398438 0)"/>
      </g>
     </g>
    </g>
    <g id="ytick_4">
     <g id="line2d_4">
      <path d="M 74.796 237.042166 
L 692.917651 237.042166 
" clip-path="url(#pacd5282746)" style="fill: none; stroke: #cccccc; stroke-width: 0.8; stroke-linecap: round"/>
     </g>
     <g id="text_11">
      <!-- 1.5 -->
      <g style="fill: #262626" transform="translate(42.032 243.341041) scale(0.176 -0.176)">
       <use xlink:href="#ArialMT-31"/>
       <use xlink:href="#ArialMT-2e" transform="translate(55.615234 0)"/>
       <use xlink:href="#ArialMT-35" transform="translate(83.398438 0)"/>
      </g>
     </g>
    </g>
    <g id="ytick_5">
     <g id="line2d_5">
      <path d="M 74.796 112.528521 
L 692.917651 112.528521 
" clip-path="url(#pacd5282746)" style="fill: none; stroke: #cccccc; stroke-width: 0.8; stroke-linecap: round"/>
     </g>
     <g id="text_12">
      <!-- 2.0 -->
      <g style="fill: #262626" transform="translate(42.032 118.827396) scale(0.176 -0.176)">
       <defs>
        <path id="ArialMT-32" d="M 3222 541 
L 3222 0 
L 194 0 
Q 188 203 259 391 
Q 375 700 629 1000 
Q 884 1300 1366 1694 
Q 2113 2306 2375 2664 
Q 2638 3022 2638 3341 
Q 2638 3675 2398 3904 
Q 2159 4134 1775 4134 
Q 1369 4134 1125 3890 
Q 881 3647 878 3216 
L 300 3275 
Q 359 3922 746 4261 
Q 1134 4600 1788 4600 
Q 2447 4600 2831 4234 
Q 3216 3869 3216 3328 
Q 3216 3053 3103 2787 
Q 2991 2522 2730 2228 
Q 2469 1934 1863 1422 
Q 1356 997 1212 845 
Q 1069 694 975 541 
L 3222 541 
z
" transform="scale(0.015625)"/>
       </defs>
       <use xlink:href="#ArialMT-32"/>
       <use xlink:href="#ArialMT-2e" transform="translate(55.615234 0)"/>
       <use xlink:href="#ArialMT-30" transform="translate(83.398438 0)"/>
      </g>
     </g>
    </g>
    <g id="text_13">
     <!-- discovery_yield -->
     <g style="fill: #262626" transform="translate(33.991 408.767674) rotate(-90) scale(0.192 -0.192)">
      <defs>
       <path id="ArialMT-76" d="M 1344 0 
L 81 3319 
L 675 3319 
L 1388 1331 
Q 1503 1009 1600 663 
Q 1675 925 1809 1294 
L 2547 3319 
L 3125 3319 
L 1869 0 
L 1344 0 
z
" transform="scale(0.015625)"/>
      </defs>
      <use xlink:href="#ArialMT-64"/>
      <use xlink:href="#ArialMT-69" transform="translate(55.615234 0)"/>
      <use xlink:href="#ArialMT-73" transform="translate(77.832031 0)"/>
      <use xlink:href="#ArialMT-63" transform="translate(127.832031 0)"/>
      <use xlink:href="#ArialMT-6f" transform="translate(177.832031 0)"/>
      <use xlink:href="#ArialMT-76" transform="translate(233.447266 0)"/>
      <use xlink:href="#ArialMT-65" transform="translate(283.447266 0)"/>
      <use xlink:href="#ArialMT-72" transform="translate(339.0625 0)"/>
      <use xlink:href="#ArialMT-79" transform="translate(372.363281 0)"/>
      <use xlink:href="#ArialMT-5f" transform="translate(422.363281 0)"/>
      <use xlink:href="#ArialMT-79" transform="translate(477.978516 0)"/>
      <use xlink:href="#ArialMT-69" transform="translate(527.978516 0)"/>
      <use xlink:href="#ArialMT-65" transform="translate(550.195312 0)"/>
      <use xlink:href="#ArialMT-6c" transform="translate(605.810547 0)"/>
      <use xlink:href="#ArialMT-64" transform="translate(628.027344 0)"/>
     </g>
    </g>
   </g>
   <g id="FillBetweenPolyCollection_1">
    <defs>
     <path id="m53b6059fd1" d="M 141.779603 -239.3275 
L 141.512692 -239.3275 
L 141.373075 -242.127561 
L 141.169032 -244.927623 
L 140.934277 -247.727684 
L 140.738966 -250.527746 
L 140.658152 -253.327807 
L 140.724932 -256.127869 
L 140.906541 -258.92793 
L 141.125146 -261.727992 
L 141.304222 -264.528053 
L 141.402068 -267.328115 
L 141.414175 -270.128176 
L 141.356682 -272.928238 
L 141.251937 -275.728299 
L 141.124277 -278.528361 
L 140.999632 -281.328422 
L 140.90043 -284.128484 
L 140.835864 -286.928545 
L 140.795803 -289.728607 
L 140.755141 -292.528668 
L 140.685895 -295.32873 
L 140.567737 -298.128791 
L 140.390811 -300.928853 
L 140.152821 -303.728914 
L 139.856296 -306.528976 
L 139.508989 -309.329037 
L 139.125281 -312.129099 
L 138.725138 -314.92916 
L 138.329764 -317.729222 
L 137.954805 -320.529283 
L 137.602196 -323.329345 
L 137.256568 -326.129406 
L 136.896717 -328.929468 
L 136.519162 -331.729529 
L 136.146116 -334.529591 
L 135.796867 -337.329652 
L 135.448968 -340.129714 
L 135.039652 -342.929775 
L 134.513158 -345.729837 
L 133.862935 -348.529898 
L 133.126893 -351.32996 
L 132.349414 -354.130021 
L 131.549153 -356.930083 
L 130.70847 -359.730144 
L 129.774826 -362.530206 
L 128.669284 -365.330267 
L 127.315641 -368.130329 
L 125.698022 -370.93039 
L 123.912597 -373.730452 
L 122.148085 -376.530514 
L 120.57792 -379.330575 
L 119.247831 -382.130637 
L 118.063695 -384.930698 
L 116.876817 -387.73076 
L 115.566289 -390.530821 
L 114.057618 -393.330883 
L 112.316673 -396.130944 
L 110.371984 -398.931006 
L 108.347806 -401.731067 
L 106.44973 -404.531129 
L 104.886889 -407.33119 
L 103.782889 -410.131252 
L 103.142917 -412.931313 
L 102.892439 -415.731375 
L 102.941807 -418.531436 
L 103.22976 -421.331498 
L 103.746071 -424.131559 
L 104.54688 -426.931621 
L 105.737373 -429.731682 
L 107.395943 -432.531744 
L 109.486909 -435.331805 
L 111.848652 -438.131867 
L 114.27595 -440.931928 
L 116.62629 -443.73199 
L 118.873323 -446.532051 
L 121.083074 -449.332113 
L 123.333964 -452.132174 
L 125.631856 -454.932236 
L 127.882838 -457.732297 
L 129.946819 -460.532359 
L 131.72285 -463.33242 
L 133.193173 -466.132482 
L 134.405348 -468.932543 
L 135.429959 -471.732605 
L 136.331383 -474.532666 
L 137.154453 -477.332728 
L 137.915457 -480.132789 
L 138.595819 -482.932851 
L 139.141905 -485.732912 
L 139.473239 -488.532974 
L 139.510331 -491.333035 
L 139.235078 -494.133097 
L 138.759238 -496.933158 
L 138.328433 -499.73322 
L 138.212588 -502.533281 
L 138.542227 -505.333343 
L 139.227124 -508.133404 
L 140.029778 -510.933466 
L 140.722295 -513.733527 
L 141.194923 -516.533589 
L 142.097372 -516.533589 
L 142.097372 -516.533589 
L 142.569999 -513.733527 
L 143.262517 -510.933466 
L 144.06517 -508.133404 
L 144.750067 -505.333343 
L 145.079706 -502.533281 
L 144.963861 -499.73322 
L 144.533057 -496.933158 
L 144.057216 -494.133097 
L 143.781963 -491.333035 
L 143.819056 -488.532974 
L 144.15039 -485.732912 
L 144.696476 -482.932851 
L 145.376837 -480.132789 
L 146.137841 -477.332728 
L 146.960911 -474.532666 
L 147.862336 -471.732605 
L 148.886947 -468.932543 
L 150.099121 -466.132482 
L 151.569444 -463.33242 
L 153.345475 -460.532359 
L 155.409456 -457.732297 
L 157.660439 -454.932236 
L 159.958331 -452.132174 
L 162.20922 -449.332113 
L 164.418972 -446.532051 
L 166.666004 -443.73199 
L 169.016345 -440.931928 
L 171.443642 -438.131867 
L 173.805385 -435.331805 
L 175.896352 -432.531744 
L 177.554921 -429.731682 
L 178.745415 -426.931621 
L 179.546223 -424.131559 
L 180.062535 -421.331498 
L 180.350488 -418.531436 
L 180.399856 -415.731375 
L 180.149377 -412.931313 
L 179.509405 -410.131252 
L 178.405405 -407.33119 
L 176.842565 -404.531129 
L 174.944488 -401.731067 
L 172.920311 -398.931006 
L 170.975622 -396.130944 
L 169.234676 -393.330883 
L 167.726005 -390.530821 
L 166.415478 -387.73076 
L 165.2286 -384.930698 
L 164.044463 -382.130637 
L 162.714374 -379.330575 
L 161.14421 -376.530514 
L 159.379698 -373.730452 
L 157.594272 -370.93039 
L 155.976653 -368.130329 
L 154.623011 -365.330267 
L 153.517468 -362.530206 
L 152.583825 -359.730144 
L 151.743141 -356.930083 
L 150.94288 -354.130021 
L 150.165401 -351.32996 
L 149.42936 -348.529898 
L 148.779136 -345.729837 
L 148.252642 -342.929775 
L 147.843326 -340.129714 
L 147.495427 -337.329652 
L 147.146179 -334.529591 
L 146.773132 -331.729529 
L 146.395578 -328.929468 
L 146.035726 -326.129406 
L 145.690098 -323.329345 
L 145.33749 -320.529283 
L 144.962531 -317.729222 
L 144.567157 -314.92916 
L 144.167013 -312.129099 
L 143.783305 -309.329037 
L 143.435998 -306.528976 
L 143.139473 -303.728914 
L 142.901483 -300.928853 
L 142.724558 -298.128791 
L 142.606399 -295.32873 
L 142.537153 -292.528668 
L 142.496491 -289.728607 
L 142.45643 -286.928545 
L 142.391864 -284.128484 
L 142.292662 -281.328422 
L 142.168017 -278.528361 
L 142.040357 -275.728299 
L 141.935613 -272.928238 
L 141.878119 -270.128176 
L 141.890226 -267.328115 
L 141.988072 -264.528053 
L 142.167149 -261.727992 
L 142.385754 -258.92793 
L 142.567362 -256.127869 
L 142.634143 -253.327807 
L 142.553329 -250.527746 
L 142.358017 -247.727684 
L 142.123262 -244.927623 
L 141.91922 -242.127561 
L 141.779603 -239.3275 
z
" style="stroke: #494949"/>
    </defs>
    <g clip-path="url(#pacd5282746)">
     <use xlink:href="#m53b6059fd1" x="0" y="864" style="fill: #5875a4; stroke: #494949"/>
    </g>
   </g>
   <g id="FillBetweenPolyCollection_2">
    <defs>
     <path id="m9aa3d50d06" d="M 240.359243 -233.155152 
L 236.701594 -233.155152 
L 235.399997 -236.079907 
L 233.596827 -239.004663 
L 231.368775 -241.929418 
L 228.949614 -244.854174 
L 226.707283 -247.778929 
L 225.051243 -250.703684 
L 224.297363 -253.62844 
L 224.549899 -256.553195 
L 225.659971 -259.477951 
L 227.282352 -262.402706 
L 229.000325 -265.327461 
L 230.456496 -268.252217 
L 231.434275 -271.176972 
L 231.870319 -274.101728 
L 231.815403 -277.026483 
L 231.37817 -279.951238 
L 230.6799 -282.875994 
L 229.830548 -285.800749 
L 228.92104 -288.725505 
L 228.021506 -291.65026 
L 227.178699 -294.575015 
L 226.412469 -297.499771 
L 225.715302 -300.424526 
L 225.058196 -303.349282 
L 224.401993 -306.274037 
L 223.709396 -309.198792 
L 222.952277 -312.123548 
L 222.1122 -315.048303 
L 221.176937 -317.973059 
L 220.138376 -320.897814 
L 218.995464 -323.822569 
L 217.760759 -326.747325 
L 216.464818 -329.67208 
L 215.152701 -332.596836 
L 213.871822 -335.521591 
L 212.65664 -338.446346 
L 211.518381 -341.371102 
L 210.444951 -344.295857 
L 209.40979 -347.220613 
L 208.383596 -350.145368 
L 207.343093 -353.070123 
L 206.275172 -355.994879 
L 205.178837 -358.919634 
L 204.068009 -361.84439 
L 202.975322 -364.769145 
L 201.953404 -367.6939 
L 201.068917 -370.618656 
L 200.387534 -373.543411 
L 199.953979 -376.468167 
L 199.77671 -379.392922 
L 199.827028 -382.317677 
L 200.055464 -385.242433 
L 200.41757 -388.167188 
L 200.894227 -391.091944 
L 201.494137 -394.016699 
L 202.2372 -396.941454 
L 203.129754 -399.86621 
L 204.147757 -402.790965 
L 205.238946 -405.715721 
L 206.343341 -408.640476 
L 207.42054 -411.565231 
L 208.468511 -414.489987 
L 209.523692 -417.414742 
L 210.642753 -420.339498 
L 211.876016 -423.264253 
L 213.245858 -426.189008 
L 214.739354 -429.113764 
L 216.316125 -432.038519 
L 217.924965 -434.963275 
L 219.520016 -437.88803 
L 221.069702 -440.812785 
L 222.556852 -443.737541 
L 223.973198 -446.662296 
L 225.313248 -449.587052 
L 226.571296 -452.511807 
L 227.742457 -455.436562 
L 228.826107 -458.361318 
L 229.82893 -461.286073 
L 230.765089 -464.210829 
L 231.652307 -467.135584 
L 232.504436 -470.060339 
L 233.322751 -472.985095 
L 234.089225 -475.90985 
L 234.765023 -478.834606 
L 235.296554 -481.759361 
L 235.629759 -484.684116 
L 235.730688 -487.608872 
L 235.606793 -490.533627 
L 235.319823 -493.458383 
L 234.980925 -496.383138 
L 234.724211 -499.307893 
L 234.665771 -502.232649 
L 234.864975 -505.157404 
L 235.306281 -508.08216 
L 235.910185 -511.006915 
L 236.566813 -513.93167 
L 237.174893 -516.856426 
L 237.66891 -519.781181 
L 238.026478 -522.705937 
L 239.034359 -522.705937 
L 239.034359 -522.705937 
L 239.391927 -519.781181 
L 239.885944 -516.856426 
L 240.494024 -513.93167 
L 241.150651 -511.006915 
L 241.754556 -508.08216 
L 242.195862 -505.157404 
L 242.395066 -502.232649 
L 242.336626 -499.307893 
L 242.079912 -496.383138 
L 241.741014 -493.458383 
L 241.454044 -490.533627 
L 241.330149 -487.608872 
L 241.431078 -484.684116 
L 241.764283 -481.759361 
L 242.295814 -478.834606 
L 242.971612 -475.90985 
L 243.738086 -472.985095 
L 244.556401 -470.060339 
L 245.40853 -467.135584 
L 246.295748 -464.210829 
L 247.231907 -461.286073 
L 248.23473 -458.361318 
L 249.31838 -455.436562 
L 250.489541 -452.511807 
L 251.747589 -449.587052 
L 253.087639 -446.662296 
L 254.503985 -443.737541 
L 255.991135 -440.812785 
L 257.540821 -437.88803 
L 259.135872 -434.963275 
L 260.744712 -432.038519 
L 262.321483 -429.113764 
L 263.814978 -426.189008 
L 265.184821 -423.264253 
L 266.418084 -420.339498 
L 267.537145 -417.414742 
L 268.592326 -414.489987 
L 269.640297 -411.565231 
L 270.717496 -408.640476 
L 271.821891 -405.715721 
L 272.91308 -402.790965 
L 273.931083 -399.86621 
L 274.823637 -396.941454 
L 275.5667 -394.016699 
L 276.16661 -391.091944 
L 276.643267 -388.167188 
L 277.005373 -385.242433 
L 277.233809 -382.317677 
L 277.284127 -379.392922 
L 277.106858 -376.468167 
L 276.673303 -373.543411 
L 275.99192 -370.618656 
L 275.107433 -367.6939 
L 274.085515 -364.769145 
L 272.992828 -361.84439 
L 271.882 -358.919634 
L 270.785665 -355.994879 
L 269.717744 -353.070123 
L 268.677241 -350.145368 
L 267.651047 -347.220613 
L 266.615886 -344.295857 
L 265.542456 -341.371102 
L 264.404197 -338.446346 
L 263.189015 -335.521591 
L 261.908136 -332.596836 
L 260.596019 -329.67208 
L 259.300078 -326.747325 
L 258.065373 -323.822569 
L 256.92246 -320.897814 
L 255.8839 -317.973059 
L 254.948637 -315.048303 
L 254.10856 -312.123548 
L 253.35144 -309.198792 
L 252.658844 -306.274037 
L 252.002641 -303.349282 
L 251.345535 -300.424526 
L 250.648368 -297.499771 
L 249.882137 -294.575015 
L 249.03933 -291.65026 
L 248.139797 -288.725505 
L 247.230289 -285.800749 
L 246.380937 -282.875994 
L 245.682667 -279.951238 
L 245.245434 -277.026483 
L 245.190518 -274.101728 
L 245.626562 -271.176972 
L 246.60434 -268.252217 
L 248.060512 -265.327461 
L 249.778485 -262.402706 
L 251.400866 -259.477951 
L 252.510938 -256.553195 
L 252.763474 -253.62844 
L 252.009594 -250.703684 
L 250.353554 -247.778929 
L 248.111223 -244.854174 
L 245.692062 -241.929418 
L 243.46401 -239.004663 
L 241.66084 -236.079907 
L 240.359243 -233.155152 
z
" style="stroke: #494949"/>
    </defs>
    <g clip-path="url(#pacd5282746)">
     <use xlink:href="#m9aa3d50d06" x="0" y="864" style="fill: #cc8963; stroke: #494949"/>
    </g>
   </g>
   <g id="FillBetweenPolyCollection_3">
    <defs>
     <path id="m2df89514e0" d="M 336.389438 -235.358742 
L 334.439941 -235.358742 
L 333.659294 -238.23898 
L 332.55725 -241.119219 
L 331.208179 -243.999457 
L 329.809251 -246.879695 
L 328.641861 -249.759934 
L 327.971545 -252.640172 
L 327.931308 -255.520411 
L 328.456431 -258.400649 
L 329.313108 -261.280888 
L 330.203638 -264.161126 
L 330.88409 -267.041365 
L 331.232022 -269.921603 
L 331.244349 -272.801841 
L 330.990044 -275.68208 
L 330.55776 -278.562318 
L 330.023874 -281.442557 
L 329.442981 -284.322795 
L 328.849748 -287.203034 
L 328.261943 -290.083272 
L 327.681856 -292.96351 
L 327.098464 -295.843749 
L 326.492999 -298.723987 
L 325.84794 -301.604226 
L 325.156644 -304.484464 
L 324.429143 -307.364703 
L 323.689676 -310.244941 
L 322.964287 -313.125179 
L 322.262247 -316.005418 
L 321.560987 -318.885656 
L 320.806023 -321.765895 
L 319.931414 -324.646133 
L 318.893477 -327.526372 
L 317.698414 -330.40661 
L 316.403847 -333.286849 
L 315.089557 -336.167087 
L 313.814955 -339.047325 
L 312.591838 -341.927564 
L 311.389831 -344.807802 
L 310.16704 -347.688041 
L 308.901348 -350.568279 
L 307.601645 -353.448518 
L 306.296473 -356.328756 
L 305.013006 -359.208994 
L 303.76206 -362.089233 
L 302.53817 -364.969471 
L 301.334687 -367.84971 
L 300.165146 -370.729948 
L 299.075943 -373.610187 
L 298.137549 -376.490425 
L 297.415823 -379.370663 
L 296.942105 -382.250902 
L 296.703817 -385.13114 
L 296.660981 -388.011379 
L 296.773739 -390.891617 
L 297.020867 -393.771856 
L 297.401512 -396.652094 
L 297.926807 -399.532333 
L 298.611823 -402.412571 
L 299.472343 -405.292809 
L 300.524416 -408.173048 
L 301.782291 -411.053286 
L 303.251557 -413.933525 
L 304.917757 -416.813763 
L 306.735962 -419.694002 
L 308.630828 -422.57424 
L 310.513647 -425.454478 
L 312.311897 -428.334717 
L 313.995591 -431.214955 
L 315.583973 -434.095194 
L 317.128052 -436.975432 
L 318.679755 -439.855671 
L 320.26545 -442.735909 
L 321.876065 -445.616147 
L 323.473932 -448.496386 
L 325.007536 -451.376624 
L 326.425059 -454.256863 
L 327.683507 -457.137101 
L 328.755551 -460.01734 
L 329.636103 -462.897578 
L 330.346583 -465.777817 
L 330.93195 -468.658055 
L 331.447637 -471.538293 
L 331.93958 -474.418532 
L 332.425695 -477.29877 
L 332.887433 -480.179009 
L 333.275601 -483.059247 
L 333.529065 -485.939486 
L 333.601276 -488.819724 
L 333.486883 -491.699962 
L 333.237891 -494.580201 
L 332.958209 -497.460439 
L 332.772277 -500.340678 
L 332.778047 -503.220916 
L 333.007544 -506.101155 
L 333.417198 -508.981393 
L 333.912843 -511.861631 
L 334.393144 -514.74187 
L 334.786556 -517.622108 
L 335.065677 -520.502347 
L 335.763702 -520.502347 
L 335.763702 -520.502347 
L 336.042823 -517.622108 
L 336.436236 -514.74187 
L 336.916537 -511.861631 
L 337.412182 -508.981393 
L 337.821836 -506.101155 
L 338.051332 -503.220916 
L 338.057102 -500.340678 
L 337.87117 -497.460439 
L 337.591488 -494.580201 
L 337.342497 -491.699962 
L 337.228104 -488.819724 
L 337.300315 -485.939486 
L 337.553779 -483.059247 
L 337.941946 -480.179009 
L 338.403685 -477.29877 
L 338.889799 -474.418532 
L 339.381742 -471.538293 
L 339.897429 -468.658055 
L 340.482796 -465.777817 
L 341.193276 -462.897578 
L 342.073828 -460.01734 
L 343.145873 -457.137101 
L 344.40432 -454.256863 
L 345.821843 -451.376624 
L 347.355448 -448.496386 
L 348.953314 -445.616147 
L 350.563929 -442.735909 
L 352.149624 -439.855671 
L 353.701327 -436.975432 
L 355.245406 -434.095194 
L 356.833788 -431.214955 
L 358.517482 -428.334717 
L 360.315733 -425.454478 
L 362.198551 -422.57424 
L 364.093417 -419.694002 
L 365.911623 -416.813763 
L 367.577822 -413.933525 
L 369.047089 -411.053286 
L 370.304963 -408.173048 
L 371.357036 -405.292809 
L 372.217556 -402.412571 
L 372.902572 -399.532333 
L 373.427868 -396.652094 
L 373.808512 -393.771856 
L 374.055641 -390.891617 
L 374.168398 -388.011379 
L 374.125563 -385.13114 
L 373.887275 -382.250902 
L 373.413557 -379.370663 
L 372.69183 -376.490425 
L 371.753436 -373.610187 
L 370.664233 -370.729948 
L 369.494693 -367.84971 
L 368.291209 -364.969471 
L 367.06732 -362.089233 
L 365.816374 -359.208994 
L 364.532907 -356.328756 
L 363.227734 -353.448518 
L 361.928031 -350.568279 
L 360.66234 -347.688041 
L 359.439548 -344.807802 
L 358.237541 -341.927564 
L 357.014425 -339.047325 
L 355.739822 -336.167087 
L 354.425533 -333.286849 
L 353.130965 -330.40661 
L 351.935902 -327.526372 
L 350.897966 -324.646133 
L 350.023357 -321.765895 
L 349.268392 -318.885656 
L 348.567132 -316.005418 
L 347.865093 -313.125179 
L 347.139703 -310.244941 
L 346.400237 -307.364703 
L 345.672736 -304.484464 
L 344.98144 -301.604226 
L 344.33638 -298.723987 
L 343.730916 -295.843749 
L 343.147524 -292.96351 
L 342.567436 -290.083272 
L 341.979632 -287.203034 
L 341.386398 -284.322795 
L 340.805506 -281.442557 
L 340.271619 -278.562318 
L 339.839336 -275.68208 
L 339.58503 -272.801841 
L 339.597357 -269.921603 
L 339.94529 -267.041365 
L 340.625741 -264.161126 
L 341.516272 -261.280888 
L 342.372949 -258.400649 
L 342.898071 -255.520411 
L 342.857835 -252.640172 
L 342.187518 -249.759934 
L 341.020128 -246.879695 
L 339.6212 -243.999457 
L 338.27213 -241.119219 
L 337.170085 -238.23898 
L 336.389438 -235.358742 
z
" style="stroke: #494949"/>
    </defs>
    <g clip-path="url(#pacd5282746)">
     <use xlink:href="#m2df89514e0" x="0" y="864" style="fill: #5f9e6e; stroke: #494949"/>
    </g>
   </g>
   <g id="FillBetweenPolyCollection_4">
    <defs>
     <path id="m1918afedb4" d="M 433.346538 -234.506577 
L 431.251384 -234.506577 
L 430.451669 -237.404031 
L 429.331104 -240.301485 
L 427.952569 -243.198938 
L 426.491706 -246.096392 
L 425.209249 -248.993846 
L 424.368937 -251.8913 
L 424.132682 -254.788754 
L 424.48792 -257.686208 
L 425.249905 -260.583662 
L 426.138691 -263.481116 
L 426.887585 -266.37857 
L 427.327659 -269.276023 
L 427.415812 -272.173477 
L 427.209609 -275.070931 
L 426.815202 -277.968385 
L 426.336265 -280.865839 
L 425.840661 -283.763293 
L 425.349251 -286.660747 
L 424.843482 -289.558201 
L 424.284644 -292.455655 
L 423.636296 -295.353108 
L 422.882129 -298.250562 
L 422.03428 -301.148016 
L 421.13099 -304.04547 
L 420.225621 -306.942924 
L 419.370695 -309.840378 
L 418.601005 -312.737832 
L 417.920225 -315.635286 
L 417.295886 -318.53274 
L 416.666623 -321.430193 
L 415.961628 -324.327647 
L 415.125936 -327.225101 
L 414.140416 -330.122555 
L 413.026381 -333.020009 
L 411.832446 -335.917463 
L 410.610998 -338.814917 
L 409.396752 -341.712371 
L 408.196882 -344.609825 
L 406.994411 -347.507278 
L 405.759896 -350.404732 
L 404.464537 -353.302186 
L 403.089767 -356.19964 
L 401.631974 -359.097094 
L 400.105047 -361.994548 
L 398.545638 -364.892002 
L 397.022559 -367.789456 
L 395.642416 -370.68691 
L 394.536609 -373.584363 
L 393.821593 -376.481817 
L 393.545253 -379.379271 
L 393.651503 -382.276725 
L 393.992521 -385.174179 
L 394.39038 -388.071633 
L 394.716682 -390.969087 
L 394.945658 -393.866541 
L 395.1526 -396.763995 
L 395.462664 -399.661448 
L 395.982652 -402.558902 
L 396.754552 -405.456356 
L 397.752995 -408.35381 
L 398.920656 -411.251264 
L 400.213057 -414.148718 
L 401.621246 -417.046172 
L 403.159251 -419.943626 
L 404.82996 -422.84108 
L 406.5983 -425.738533 
L 408.393147 -428.635987 
L 410.136181 -431.533441 
L 411.775991 -434.430895 
L 413.304154 -437.328349 
L 414.745745 -440.225803 
L 416.135274 -443.123257 
L 417.495982 -446.020711 
L 418.833016 -448.918165 
L 420.138476 -451.815618 
L 421.399688 -454.713072 
L 422.60438 -457.610526 
L 423.742185 -460.50798 
L 424.804812 -463.405434 
L 425.786112 -466.302888 
L 426.681402 -469.200342 
L 427.485327 -472.097796 
L 428.188566 -474.99525 
L 428.77452 -477.892703 
L 429.217603 -480.790157 
L 429.485779 -483.687611 
L 429.550618 -486.585065 
L 429.40588 -489.482519 
L 429.08904 -492.379973 
L 428.692757 -495.277427 
L 428.352428 -498.174881 
L 428.206826 -501.072335 
L 428.346698 -503.969788 
L 428.778124 -506.867242 
L 429.421865 -509.764696 
L 430.14906 -512.66215 
L 430.832524 -515.559604 
L 431.386872 -518.457058 
L 431.781986 -521.354512 
L 432.815936 -521.354512 
L 432.815936 -521.354512 
L 433.21105 -518.457058 
L 433.765399 -515.559604 
L 434.448862 -512.66215 
L 435.176057 -509.764696 
L 435.819798 -506.867242 
L 436.251224 -503.969788 
L 436.391096 -501.072335 
L 436.245494 -498.174881 
L 435.905165 -495.277427 
L 435.508882 -492.379973 
L 435.192042 -489.482519 
L 435.047304 -486.585065 
L 435.112143 -483.687611 
L 435.380319 -480.790157 
L 435.823402 -477.892703 
L 436.409356 -474.99525 
L 437.112595 -472.097796 
L 437.91652 -469.200342 
L 438.81181 -466.302888 
L 439.79311 -463.405434 
L 440.855738 -460.50798 
L 441.993542 -457.610526 
L 443.198234 -454.713072 
L 444.459447 -451.815618 
L 445.764906 -448.918165 
L 447.10194 -446.020711 
L 448.462648 -443.123257 
L 449.852177 -440.225803 
L 451.293768 -437.328349 
L 452.821931 -434.430895 
L 454.461741 -431.533441 
L 456.204775 -428.635987 
L 457.999622 -425.738533 
L 459.767962 -422.84108 
L 461.438671 -419.943626 
L 462.976676 -417.046172 
L 464.384865 -414.148718 
L 465.677266 -411.251264 
L 466.844927 -408.35381 
L 467.84337 -405.456356 
L 468.61527 -402.558902 
L 469.135258 -399.661448 
L 469.445322 -396.763995 
L 469.652264 -393.866541 
L 469.88124 -390.969087 
L 470.207542 -388.071633 
L 470.605401 -385.174179 
L 470.946419 -382.276725 
L 471.05267 -379.379271 
L 470.776329 -376.481817 
L 470.061313 -373.584363 
L 468.955506 -370.68691 
L 467.575363 -367.789456 
L 466.052284 -364.892002 
L 464.492876 -361.994548 
L 462.965948 -359.097094 
L 461.508155 -356.19964 
L 460.133385 -353.302186 
L 458.838026 -350.404732 
L 457.603511 -347.507278 
L 456.40104 -344.609825 
L 455.20117 -341.712371 
L 453.986924 -338.814917 
L 452.765477 -335.917463 
L 451.571541 -333.020009 
L 450.457506 -330.122555 
L 449.471986 -327.225101 
L 448.636294 -324.327647 
L 447.931299 -321.430193 
L 447.302036 -318.53274 
L 446.677697 -315.635286 
L 445.996917 -312.737832 
L 445.227227 -309.840378 
L 444.372301 -306.942924 
L 443.466933 -304.04547 
L 442.563642 -301.148016 
L 441.715793 -298.250562 
L 440.961626 -295.353108 
L 440.313278 -292.455655 
L 439.75444 -289.558201 
L 439.248671 -286.660747 
L 438.757261 -283.763293 
L 438.261657 -280.865839 
L 437.78272 -277.968385 
L 437.388313 -275.070931 
L 437.182111 -272.173477 
L 437.270263 -269.276023 
L 437.710337 -266.37857 
L 438.459231 -263.481116 
L 439.348017 -260.583662 
L 440.110002 -257.686208 
L 440.465241 -254.788754 
L 440.228985 -251.8913 
L 439.388673 -248.993846 
L 438.106216 -246.096392 
L 436.645353 -243.198938 
L 435.266819 -240.301485 
L 434.146253 -237.404031 
L 433.346538 -234.506577 
z
" style="stroke: #494949"/>
    </defs>
    <g clip-path="url(#pacd5282746)">
     <use xlink:href="#m1918afedb4" x="0" y="864" style="fill: #b55d60; stroke: #494949"/>
    </g>
   </g>
   <g id="FillBetweenPolyCollection_5">
    <defs>
     <path id="mdf5bd75f6c" d="M 531.933455 -232.660643 
L 526.433009 -232.660643 
L 524.512857 -235.595388 
L 521.850448 -238.530134 
L 518.531603 -241.464879 
L 514.853331 -244.399625 
L 511.300163 -247.33437 
L 508.429916 -250.269115 
L 506.699836 -253.203861 
L 506.306419 -256.138606 
L 507.116515 -259.073352 
L 508.724386 -262.008097 
L 510.604219 -264.942843 
L 512.282323 -267.877588 
L 513.454849 -270.812334 
L 514.017684 -273.747079 
L 514.023497 -276.681825 
L 513.607305 -279.61657 
L 512.919145 -282.551316 
L 512.082951 -285.486061 
L 511.181913 -288.420807 
L 510.261274 -291.355552 
L 509.338872 -294.290298 
L 508.416848 -297.225043 
L 507.491102 -300.159789 
L 506.557358 -303.094534 
L 505.613819 -306.02928 
L 504.660609 -308.964025 
L 503.696246 -311.898771 
L 502.712531 -314.833516 
L 501.691315 -317.768262 
L 500.607611 -320.703007 
L 499.440927 -323.637753 
L 498.190841 -326.572498 
L 496.887824 -329.507244 
L 495.591024 -332.441989 
L 494.371913 -335.376735 
L 493.291848 -338.31148 
L 492.385865 -341.246226 
L 491.661023 -344.180971 
L 491.108141 -347.115717 
L 490.717698 -350.050462 
L 490.48927 -352.985208 
L 490.429524 -355.919953 
L 490.542064 -358.854699 
L 490.817753 -361.789444 
L 491.233255 -364.72419 
L 491.759309 -367.658935 
L 492.372805 -370.593681 
L 493.063527 -373.528426 
L 493.830174 -376.463172 
L 494.668758 -379.397917 
L 495.563098 -382.332662 
L 496.486145 -385.267408 
L 497.412474 -388.202153 
L 498.332965 -391.136899 
L 499.260063 -394.071644 
L 500.218371 -397.00639 
L 501.225958 -399.941135 
L 502.278963 -402.875881 
L 503.350654 -405.810626 
L 504.406883 -408.745372 
L 505.42888 -411.680117 
L 506.428755 -414.614863 
L 507.446914 -417.549608 
L 508.531829 -420.484354 
L 509.713769 -423.419099 
L 510.987837 -426.353845 
L 512.315474 -429.28859 
L 513.642035 -432.223336 
L 514.919164 -435.158081 
L 516.119738 -438.092827 
L 517.239624 -441.027572 
L 518.288846 -443.962318 
L 519.279702 -446.897063 
L 520.218767 -449.831809 
L 521.105601 -452.766554 
L 521.936552 -455.7013 
L 522.709808 -458.636045 
L 523.428144 -461.570791 
L 524.097824 -464.505536 
L 524.724455 -467.440282 
L 525.308015 -470.375027 
L 525.839266 -473.309773 
L 526.298672 -476.244518 
L 526.658122 -479.179264 
L 526.885754 -482.114009 
L 526.954699 -485.048755 
L 526.855663 -487.9835 
L 526.610312 -490.918246 
L 526.278796 -493.852991 
L 525.953998 -496.787737 
L 525.739821 -499.722482 
L 525.719573 -502.657228 
L 525.927851 -505.591973 
L 526.339524 -508.526719 
L 526.881205 -511.461464 
L 527.459104 -514.39621 
L 527.98962 -517.330955 
L 528.419811 -520.2657 
L 528.73227 -523.200446 
L 529.634195 -523.200446 
L 529.634195 -523.200446 
L 529.946654 -520.2657 
L 530.376845 -517.330955 
L 530.907361 -514.39621 
L 531.48526 -511.461464 
L 532.02694 -508.526719 
L 532.438613 -505.591973 
L 532.646892 -502.657228 
L 532.626643 -499.722482 
L 532.412467 -496.787737 
L 532.087669 -493.852991 
L 531.756152 -490.918246 
L 531.510801 -487.9835 
L 531.411765 -485.048755 
L 531.480711 -482.114009 
L 531.708343 -479.179264 
L 532.067792 -476.244518 
L 532.527199 -473.309773 
L 533.058449 -470.375027 
L 533.64201 -467.440282 
L 534.26864 -464.505536 
L 534.93832 -461.570791 
L 535.656657 -458.636045 
L 536.429913 -455.7013 
L 537.260864 -452.766554 
L 538.147697 -449.831809 
L 539.086763 -446.897063 
L 540.077618 -443.962318 
L 541.126841 -441.027572 
L 542.246726 -438.092827 
L 543.447301 -435.158081 
L 544.724429 -432.223336 
L 546.050991 -429.28859 
L 547.378627 -426.353845 
L 548.652696 -423.419099 
L 549.834636 -420.484354 
L 550.919551 -417.549608 
L 551.93771 -414.614863 
L 552.937584 -411.680117 
L 553.959582 -408.745372 
L 555.01581 -405.810626 
L 556.087501 -402.875881 
L 557.140507 -399.941135 
L 558.148094 -397.00639 
L 559.106402 -394.071644 
L 560.0335 -391.136899 
L 560.95399 -388.202153 
L 561.88032 -385.267408 
L 562.803367 -382.332662 
L 563.697707 -379.397917 
L 564.536291 -376.463172 
L 565.302937 -373.528426 
L 565.993659 -370.593681 
L 566.607156 -367.658935 
L 567.13321 -364.72419 
L 567.548712 -361.789444 
L 567.824401 -358.854699 
L 567.936941 -355.919953 
L 567.877195 -352.985208 
L 567.648767 -350.050462 
L 567.258324 -347.115717 
L 566.705441 -344.180971 
L 565.980599 -341.246226 
L 565.074617 -338.31148 
L 563.994551 -335.376735 
L 562.775441 -332.441989 
L 561.478641 -329.507244 
L 560.175623 -326.572498 
L 558.925537 -323.637753 
L 557.758854 -320.703007 
L 556.675149 -317.768262 
L 555.653933 -314.833516 
L 554.670219 -311.898771 
L 553.705855 -308.964025 
L 552.752645 -306.02928 
L 551.809107 -303.094534 
L 550.875363 -300.159789 
L 549.949617 -297.225043 
L 549.027593 -294.290298 
L 548.105191 -291.355552 
L 547.184552 -288.420807 
L 546.283514 -285.486061 
L 545.447319 -282.551316 
L 544.759159 -279.61657 
L 544.342968 -276.681825 
L 544.34878 -273.747079 
L 544.911616 -270.812334 
L 546.084142 -267.877588 
L 547.762246 -264.942843 
L 549.642078 -262.008097 
L 551.24995 -259.073352 
L 552.060045 -256.138606 
L 551.666628 -253.203861 
L 549.936548 -250.269115 
L 547.066302 -247.33437 
L 543.513134 -244.399625 
L 539.834861 -241.464879 
L 536.516017 -238.530134 
L 533.853608 -235.595388 
L 531.933455 -232.660643 
z
" style="stroke: #494949"/>
    </defs>
    <g clip-path="url(#pacd5282746)">
     <use xlink:href="#mdf5bd75f6c" x="0" y="864" style="fill: #857aab; stroke: #494949"/>
    </g>
   </g>
   <g id="FillBetweenPolyCollection_6">
    <defs>
     <path id="m8b439ac41a" d="M 626.396164 -237.335429 
L 625.738843 -237.335429 
L 625.441411 -240.175734 
L 625.014285 -243.01604 
L 624.502225 -245.856345 
L 624.010145 -248.69665 
L 623.670372 -251.536956 
L 623.578251 -254.377261 
L 623.73521 -257.217566 
L 624.041382 -260.057872 
L 624.345511 -262.898177 
L 624.517624 -265.738482 
L 624.498056 -268.578788 
L 624.300807 -271.419093 
L 623.982461 -274.259399 
L 623.603352 -277.099704 
L 623.20221 -279.940009 
L 622.791855 -282.780315 
L 622.371791 -285.62062 
L 621.946424 -288.460925 
L 621.535786 -291.301231 
L 621.17095 -294.141536 
L 620.877151 -296.981841 
L 620.656666 -299.822147 
L 620.483319 -302.662452 
L 620.311371 -305.502757 
L 620.091727 -308.343063 
L 619.785321 -311.183368 
L 619.368136 -314.023674 
L 618.829566 -316.863979 
L 618.17001 -319.704284 
L 617.401672 -322.54459 
L 616.551288 -325.384895 
L 615.659979 -328.2252 
L 614.775896 -331.065506 
L 613.93845 -333.905811 
L 613.15864 -336.746116 
L 612.407005 -339.586422 
L 611.621641 -342.426727 
L 610.737007 -345.267033 
L 609.717645 -348.107338 
L 608.576114 -350.947643 
L 607.365417 -353.787949 
L 606.149446 -356.628254 
L 604.961184 -359.468559 
L 603.765146 -362.308865 
L 602.452746 -365.14917 
L 600.897017 -367.989475 
L 599.052682 -370.829781 
L 597.030218 -373.670086 
L 595.065826 -376.510392 
L 593.388408 -379.350697 
L 592.084394 -382.191002 
L 591.071709 -385.031308 
L 590.194847 -387.871613 
L 589.349235 -390.711918 
L 588.539595 -393.552224 
L 587.856359 -396.392529 
L 587.416838 -399.232834 
L 587.313795 -402.07314 
L 587.582431 -404.913445 
L 588.187279 -407.753751 
L 589.037432 -410.594056 
L 590.029697 -413.434361 
L 591.095169 -416.274667 
L 592.217777 -419.114972 
L 593.41837 -421.955277 
L 594.728123 -424.795583 
L 596.176885 -427.635888 
L 597.796962 -430.476193 
L 599.622885 -433.316499 
L 601.673965 -436.156804 
L 603.928216 -438.99711 
L 606.309249 -441.837415 
L 608.700614 -444.67772 
L 610.98222 -447.518026 
L 613.067085 -450.358331 
L 614.917156 -453.198636 
L 616.533602 -456.038942 
L 617.935061 -458.879247 
L 619.141689 -461.719552 
L 620.172665 -464.559858 
L 621.051667 -467.400163 
L 621.809884 -470.240469 
L 622.480818 -473.080774 
L 623.089225 -475.921079 
L 623.640596 -478.761385 
L 624.11605 -481.60169 
L 624.474519 -484.441995 
L 624.664167 -487.282301 
L 624.645586 -490.122606 
L 624.423835 -492.962911 
L 624.073549 -495.803217 
L 623.733078 -498.643522 
L 623.55604 -501.483828 
L 623.640616 -504.324133 
L 623.981671 -507.164438 
L 624.479717 -510.004744 
L 624.998954 -512.845049 
L 625.432275 -515.685354 
L 625.734051 -518.52566 
L 626.400957 -518.52566 
L 626.400957 -518.52566 
L 626.702732 -515.685354 
L 627.136053 -512.845049 
L 627.655291 -510.004744 
L 628.153336 -507.164438 
L 628.494391 -504.324133 
L 628.578967 -501.483828 
L 628.401929 -498.643522 
L 628.061459 -495.803217 
L 627.711172 -492.962911 
L 627.489422 -490.122606 
L 627.47084 -487.282301 
L 627.660488 -484.441995 
L 628.018957 -481.60169 
L 628.494411 -478.761385 
L 629.045782 -475.921079 
L 629.654189 -473.080774 
L 630.325124 -470.240469 
L 631.08334 -467.400163 
L 631.962342 -464.559858 
L 632.993318 -461.719552 
L 634.199947 -458.879247 
L 635.601406 -456.038942 
L 637.217852 -453.198636 
L 639.067922 -450.358331 
L 641.152787 -447.518026 
L 643.434393 -444.67772 
L 645.825758 -441.837415 
L 648.206791 -438.99711 
L 650.461043 -436.156804 
L 652.512122 -433.316499 
L 654.338045 -430.476193 
L 655.958122 -427.635888 
L 657.406884 -424.795583 
L 658.716638 -421.955277 
L 659.91723 -419.114972 
L 661.039838 -416.274667 
L 662.10531 -413.434361 
L 663.097575 -410.594056 
L 663.947728 -407.753751 
L 664.552576 -404.913445 
L 664.821212 -402.07314 
L 664.718169 -399.232834 
L 664.278648 -396.392529 
L 663.595412 -393.552224 
L 662.785773 -390.711918 
L 661.94016 -387.871613 
L 661.063298 -385.031308 
L 660.050613 -382.191002 
L 658.746599 -379.350697 
L 657.069181 -376.510392 
L 655.10479 -373.670086 
L 653.082325 -370.829781 
L 651.23799 -367.989475 
L 649.682262 -365.14917 
L 648.369861 -362.308865 
L 647.173823 -359.468559 
L 645.985561 -356.628254 
L 644.76959 -353.787949 
L 643.558893 -350.947643 
L 642.417362 -348.107338 
L 641.398 -345.267033 
L 640.513366 -342.426727 
L 639.728002 -339.586422 
L 638.976368 -336.746116 
L 638.196557 -333.905811 
L 637.359111 -331.065506 
L 636.475028 -328.2252 
L 635.58372 -325.384895 
L 634.733335 -322.54459 
L 633.964997 -319.704284 
L 633.305441 -316.863979 
L 632.766872 -314.023674 
L 632.349686 -311.183368 
L 632.04328 -308.343063 
L 631.823636 -305.502757 
L 631.651688 -302.662452 
L 631.478341 -299.822147 
L 631.257856 -296.981841 
L 630.964057 -294.141536 
L 630.599221 -291.301231 
L 630.188583 -288.460925 
L 629.763216 -285.62062 
L 629.343153 -282.780315 
L 628.932797 -279.940009 
L 628.531655 -277.099704 
L 628.152546 -274.259399 
L 627.8342 -271.419093 
L 627.636951 -268.578788 
L 627.617383 -265.738482 
L 627.789496 -262.898177 
L 628.093625 -260.057872 
L 628.399797 -257.217566 
L 628.556756 -254.377261 
L 628.464635 -251.536956 
L 628.124862 -248.69665 
L 627.632782 -245.856345 
L 627.120722 -243.01604 
L 626.693596 -240.175734 
L 626.396164 -237.335429 
z
" style="stroke: #494949"/>
    </defs>
    <g clip-path="url(#pacd5282746)">
     <use xlink:href="#m8b439ac41a" x="0" y="864" style="fill: #8d7866; stroke: #494949"/>
    </g>
   </g>
   <g id="line2d_6">
    <path d="M 141.646147 545.049603 
L 141.646147 373.414253 
" clip-path="url(#pacd5282746)" style="fill: none; stroke: #494949; stroke-width: 1.5; stroke-linecap: round"/>
   </g>
   <g id="line2d_7">
    <path d="M 141.646147 476.846223 
L 141.646147 430.730058 
" clip-path="url(#pacd5282746)" style="fill: none; stroke: #494949; stroke-width: 4.5; stroke-linecap: round"/>
   </g>
   <g id="line2d_8">
    <path d="M 141.646147 452.111189 
" clip-path="url(#pacd5282746)" style="fill: none; stroke: #494949; stroke-width: 1.2; stroke-linecap: round"/>
    <defs>
     <path id="mc296f857ab" d="M 1.875 0 
L -1.875 -0 
" style="stroke: #ffffff; stroke-width: 0.9"/>
    </defs>
    <g clip-path="url(#pacd5282746)">
     <use xlink:href="#mc296f857ab" x="141.646147" y="452.111189" style="fill: #ffffff; stroke: #ffffff; stroke-width: 0.9"/>
    </g>
   </g>
   <g id="line2d_9">
    <path d="M 238.530418 610.583101 
L 238.530418 361.555811 
" clip-path="url(#pacd5282746)" style="fill: none; stroke: #494949; stroke-width: 1.5; stroke-linecap: round"/>
   </g>
   <g id="line2d_10">
    <path d="M 238.530418 527.574004 
L 238.530418 454.941045 
" clip-path="url(#pacd5282746)" style="fill: none; stroke: #494949; stroke-width: 4.5; stroke-linecap: round"/>
   </g>
   <g id="line2d_11">
    <path d="M 238.530418 486.069456 
" clip-path="url(#pacd5282746)" style="fill: none; stroke: #494949; stroke-width: 1.2; stroke-linecap: round"/>
    <g clip-path="url(#pacd5282746)">
     <use xlink:href="#mc296f857ab" x="238.530418" y="486.069456" style="fill: #ffffff; stroke: #ffffff; stroke-width: 0.9"/>
    </g>
   </g>
   <g id="line2d_12">
    <path d="M 335.41469 610.583101 
L 335.41469 361.555811 
" clip-path="url(#pacd5282746)" style="fill: none; stroke: #494949; stroke-width: 1.5; stroke-linecap: round"/>
   </g>
   <g id="line2d_13">
    <path d="M 335.41469 517.197867 
L 335.41469 453.302707 
" clip-path="url(#pacd5282746)" style="fill: none; stroke: #494949; stroke-width: 4.5; stroke-linecap: round"/>
   </g>
   <g id="line2d_14">
    <path d="M 335.41469 483.17379 
" clip-path="url(#pacd5282746)" style="fill: none; stroke: #494949; stroke-width: 1.2; stroke-linecap: round"/>
    <g clip-path="url(#pacd5282746)">
     <use xlink:href="#mc296f857ab" x="335.41469" y="483.17379" style="fill: #ffffff; stroke: #ffffff; stroke-width: 0.9"/>
    </g>
   </g>
   <g id="line2d_15">
    <path d="M 432.298961 610.583101 
L 432.298961 361.555811 
" clip-path="url(#pacd5282746)" style="fill: none; stroke: #494949; stroke-width: 1.5; stroke-linecap: round"/>
   </g>
   <g id="line2d_16">
    <path d="M 432.298961 517.197867 
L 432.298961 451.205635 
" clip-path="url(#pacd5282746)" style="fill: none; stroke: #494949; stroke-width: 4.5; stroke-linecap: round"/>
   </g>
   <g id="line2d_17">
    <path d="M 432.298961 484.638264 
" clip-path="url(#pacd5282746)" style="fill: none; stroke: #494949; stroke-width: 1.2; stroke-linecap: round"/>
    <g clip-path="url(#pacd5282746)">
     <use xlink:href="#mc296f857ab" x="432.298961" y="484.638264" style="fill: #ffffff; stroke: #ffffff; stroke-width: 0.9"/>
    </g>
   </g>
   <g id="line2d_18">
    <path d="M 529.183232 610.583101 
L 529.183232 361.555811 
" clip-path="url(#pacd5282746)" style="fill: none; stroke: #494949; stroke-width: 1.5; stroke-linecap: round"/>
   </g>
   <g id="line2d_19">
    <path d="M 529.183232 551.521036 
L 529.183232 471.515913 
" clip-path="url(#pacd5282746)" style="fill: none; stroke: #494949; stroke-width: 4.5; stroke-linecap: round"/>
   </g>
   <g id="line2d_20">
    <path d="M 529.183232 510.972185 
" clip-path="url(#pacd5282746)" style="fill: none; stroke: #494949; stroke-width: 1.2; stroke-linecap: round"/>
    <g clip-path="url(#pacd5282746)">
     <use xlink:href="#mc296f857ab" x="529.183232" y="510.972185" style="fill: #ffffff; stroke: #ffffff; stroke-width: 0.9"/>
    </g>
   </g>
   <g id="line2d_21">
    <path d="M 626.067504 581.285772 
L 626.067504 373.414253 
" clip-path="url(#pacd5282746)" style="fill: none; stroke: #494949; stroke-width: 1.5; stroke-linecap: round"/>
   </g>
   <g id="line2d_22">
    <path d="M 626.067504 499.524776 
L 626.067504 444.564907 
" clip-path="url(#pacd5282746)" style="fill: none; stroke: #494949; stroke-width: 4.5; stroke-linecap: round"/>
   </g>
   <g id="line2d_23">
    <path d="M 626.067504 468.281792 
" clip-path="url(#pacd5282746)" style="fill: none; stroke: #494949; stroke-width: 1.2; stroke-linecap: round"/>
    <g clip-path="url(#pacd5282746)">
     <use xlink:href="#mc296f857ab" x="626.067504" y="468.281792" style="fill: #ffffff; stroke: #ffffff; stroke-width: 0.9"/>
    </g>
   </g>
   <g id="line2d_24">
    <path d="M 141.646147 342.380184 
L 141.646147 335.988308 
L 238.530418 335.988308 
L 238.530418 342.380184 
" style="fill: none; stroke: #333333; stroke-width: 1.5; stroke-linecap: round"/>
   </g>
   <g id="line2d_25">
    <path d="M 238.530418 318.425254 
L 238.530418 312.033378 
L 335.41469 312.033378 
L 335.41469 318.425254 
" style="fill: none; stroke: #333333; stroke-width: 1.5; stroke-linecap: round"/>
   </g>
   <g id="line2d_26">
    <path d="M 432.298961 342.380184 
L 432.298961 335.988308 
L 529.183232 335.988308 
L 529.183232 342.380184 
" style="fill: none; stroke: #333333; stroke-width: 1.5; stroke-linecap: round"/>
   </g>
   <g id="line2d_27">
    <path d="M 529.183232 318.425254 
L 529.183232 312.033378 
L 626.067504 312.033378 
L 626.067504 318.425254 
" style="fill: none; stroke: #333333; stroke-width: 1.5; stroke-linecap: round"/>
   </g>
   <g id="line2d_28">
    <path d="M 141.646147 294.470324 
L 141.646147 288.078448 
L 335.41469 288.078448 
L 335.41469 294.470324 
" style="fill: none; stroke: #333333; stroke-width: 1.5; stroke-linecap: round"/>
   </g>
   <g id="line2d_29">
    <path d="M 238.530418 270.515394 
L 238.530418 264.123518 
L 432.298961 264.123518 
L 432.298961 270.515394 
" style="fill: none; stroke: #333333; stroke-width: 1.5; stroke-linecap: round"/>
   </g>
   <g id="line2d_30">
    <path d="M 335.41469 246.560464 
L 335.41469 240.168588 
L 529.183232 240.168588 
L 529.183232 246.560464 
" style="fill: none; stroke: #333333; stroke-width: 1.5; stroke-linecap: round"/>
   </g>
   <g id="line2d_31">
    <path d="M 432.298961 222.605534 
L 432.298961 216.213659 
L 626.067504 216.213659 
L 626.067504 222.605534 
" style="fill: none; stroke: #333333; stroke-width: 1.5; stroke-linecap: round"/>
   </g>
   <g id="line2d_32">
    <path d="M 141.646147 198.650604 
L 141.646147 192.258729 
L 432.298961 192.258729 
L 432.298961 198.650604 
" style="fill: none; stroke: #333333; stroke-width: 1.5; stroke-linecap: round"/>
   </g>
   <g id="line2d_33">
    <path d="M 238.530418 174.695674 
L 238.530418 168.303799 
L 529.183232 168.303799 
L 529.183232 174.695674 
" style="fill: none; stroke: #333333; stroke-width: 1.5; stroke-linecap: round"/>
   </g>
   <g id="line2d_34">
    <path d="M 335.41469 150.740744 
L 335.41469 144.348869 
L 626.067504 144.348869 
L 626.067504 150.740744 
" style="fill: none; stroke: #333333; stroke-width: 1.5; stroke-linecap: round"/>
   </g>
   <g id="line2d_35">
    <path d="M 141.646147 126.785814 
L 141.646147 120.393939 
L 529.183232 120.393939 
L 529.183232 126.785814 
" style="fill: none; stroke: #333333; stroke-width: 1.5; stroke-linecap: round"/>
   </g>
   <g id="line2d_36">
    <path d="M 238.530418 102.830885 
L 238.530418 96.439009 
L 626.067504 96.439009 
L 626.067504 102.830885 
" style="fill: none; stroke: #333333; stroke-width: 1.5; stroke-linecap: round"/>
   </g>
   <g id="line2d_37">
    <path d="M 141.646147 78.875955 
L 141.646147 72.484079 
L 626.067504 72.484079 
L 626.067504 78.875955 
" style="fill: none; stroke: #333333; stroke-width: 1.5; stroke-linecap: round"/>
   </g>
   <g id="patch_3">
    <path d="M 74.796 645.866348 
L 74.796 40.416 
" style="fill: none; stroke: #cccccc; stroke-linejoin: miter; stroke-linecap: square"/>
   </g>
   <g id="patch_4">
    <path d="M 692.917651 645.866348 
L 692.917651 40.416 
" style="fill: none; stroke: #cccccc; stroke-linejoin: miter; stroke-linecap: square"/>
   </g>
   <g id="patch_5">
    <path d="M 74.796 645.866348 
L 692.917651 645.866348 
" style="fill: none; stroke: #cccccc; stroke-linejoin: miter; stroke-linecap: square"/>
   </g>
   <g id="patch_6">
    <path d="M 74.796 40.416 
L 692.917651 40.416 
" style="fill: none; stroke: #cccccc; stroke-linejoin: miter; stroke-linecap: square"/>
   </g>
   <g id="text_14">
    <!-- **** -->
    <g style="fill: #262626" transform="translate(175.142283 331.172308) scale(0.192 -0.192)">
     <defs>
      <path id="ArialMT-2a" d="M 200 3741 
L 344 4184 
Q 841 4009 1066 3881 
Q 1006 4447 1003 4659 
L 1456 4659 
Q 1447 4350 1384 3884 
Q 1706 4047 2122 4184 
L 2266 3741 
Q 1869 3609 1488 3566 
Q 1678 3400 2025 2975 
L 1650 2709 
Q 1469 2956 1222 3381 
Q 991 2941 816 2709 
L 447 2975 
Q 809 3422 966 3566 
Q 563 3644 200 3741 
z
" transform="scale(0.015625)"/>
     </defs>
     <use xlink:href="#ArialMT-2a"/>
     <use xlink:href="#ArialMT-2a" transform="translate(38.916016 0)"/>
     <use xlink:href="#ArialMT-2a" transform="translate(77.832031 0)"/>
     <use xlink:href="#ArialMT-2a" transform="translate(116.748047 0)"/>
    </g>
   </g>
   <g id="text_15">
    <!-- **** -->
    <g style="fill: #262626" transform="translate(272.026554 307.217378) scale(0.192 -0.192)">
     <use xlink:href="#ArialMT-2a"/>
     <use xlink:href="#ArialMT-2a" transform="translate(38.916016 0)"/>
     <use xlink:href="#ArialMT-2a" transform="translate(77.832031 0)"/>
     <use xlink:href="#ArialMT-2a" transform="translate(116.748047 0)"/>
    </g>
   </g>
   <g id="text_16">
    <!-- **** -->
    <g style="fill: #262626" transform="translate(465.795097 331.172308) scale(0.192 -0.192)">
     <use xlink:href="#ArialMT-2a"/>
     <use xlink:href="#ArialMT-2a" transform="translate(38.916016 0)"/>
     <use xlink:href="#ArialMT-2a" transform="translate(77.832031 0)"/>
     <use xlink:href="#ArialMT-2a" transform="translate(116.748047 0)"/>
    </g>
   </g>
   <g id="text_17">
    <!-- **** -->
    <g style="fill: #262626" transform="translate(562.679368 307.217378) scale(0.192 -0.192)">
     <use xlink:href="#ArialMT-2a"/>
     <use xlink:href="#ArialMT-2a" transform="translate(38.916016 0)"/>
     <use xlink:href="#ArialMT-2a" transform="translate(77.832031 0)"/>
     <use xlink:href="#ArialMT-2a" transform="translate(116.748047 0)"/>
    </g>
   </g>
   <g id="text_18">
    <!-- **** -->
    <g style="fill: #262626" transform="translate(223.584418 283.262448) scale(0.192 -0.192)">
     <use xlink:href="#ArialMT-2a"/>
     <use xlink:href="#ArialMT-2a" transform="translate(38.916016 0)"/>
     <use xlink:href="#ArialMT-2a" transform="translate(77.832031 0)"/>
     <use xlink:href="#ArialMT-2a" transform="translate(116.748047 0)"/>
    </g>
   </g>
   <g id="text_19">
    <!-- **** -->
    <g style="fill: #262626" transform="translate(320.46869 259.307518) scale(0.192 -0.192)">
     <use xlink:href="#ArialMT-2a"/>
     <use xlink:href="#ArialMT-2a" transform="translate(38.916016 0)"/>
     <use xlink:href="#ArialMT-2a" transform="translate(77.832031 0)"/>
     <use xlink:href="#ArialMT-2a" transform="translate(116.748047 0)"/>
    </g>
   </g>
   <g id="text_20">
    <!-- **** -->
    <g style="fill: #262626" transform="translate(417.352961 235.352588) scale(0.192 -0.192)">
     <use xlink:href="#ArialMT-2a"/>
     <use xlink:href="#ArialMT-2a" transform="translate(38.916016 0)"/>
     <use xlink:href="#ArialMT-2a" transform="translate(77.832031 0)"/>
     <use xlink:href="#ArialMT-2a" transform="translate(116.748047 0)"/>
    </g>
   </g>
   <g id="text_21">
    <!-- **** -->
    <g style="fill: #262626" transform="translate(514.237232 211.397659) scale(0.192 -0.192)">
     <use xlink:href="#ArialMT-2a"/>
     <use xlink:href="#ArialMT-2a" transform="translate(38.916016 0)"/>
     <use xlink:href="#ArialMT-2a" transform="translate(77.832031 0)"/>
     <use xlink:href="#ArialMT-2a" transform="translate(116.748047 0)"/>
    </g>
   </g>
   <g id="text_22">
    <!-- **** -->
    <g style="fill: #262626" transform="translate(272.026554 187.442729) scale(0.192 -0.192)">
     <use xlink:href="#ArialMT-2a"/>
     <use xlink:href="#ArialMT-2a" transform="translate(38.916016 0)"/>
     <use xlink:href="#ArialMT-2a" transform="translate(77.832031 0)"/>
     <use xlink:href="#ArialMT-2a" transform="translate(116.748047 0)"/>
    </g>
   </g>
   <g id="text_23">
    <!-- **** -->
    <g style="fill: #262626" transform="translate(368.910825 163.487799) scale(0.192 -0.192)">
     <use xlink:href="#ArialMT-2a"/>
     <use xlink:href="#ArialMT-2a" transform="translate(38.916016 0)"/>
     <use xlink:href="#ArialMT-2a" transform="translate(77.832031 0)"/>
     <use xlink:href="#ArialMT-2a" transform="translate(116.748047 0)"/>
    </g>
   </g>
   <g id="text_24">
    <!-- **** -->
    <g style="fill: #262626" transform="translate(465.795097 139.532869) scale(0.192 -0.192)">
     <use xlink:href="#ArialMT-2a"/>
     <use xlink:href="#ArialMT-2a" transform="translate(38.916016 0)"/>
     <use xlink:href="#ArialMT-2a" transform="translate(77.832031 0)"/>
     <use xlink:href="#ArialMT-2a" transform="translate(116.748047 0)"/>
    </g>
   </g>
   <g id="text_25">
    <!-- **** -->
    <g style="fill: #262626" transform="translate(320.46869 115.577939) scale(0.192 -0.192)">
     <use xlink:href="#ArialMT-2a"/>
     <use xlink:href="#ArialMT-2a" transform="translate(38.916016 0)"/>
     <use xlink:href="#ArialMT-2a" transform="translate(77.832031 0)"/>
     <use xlink:href="#ArialMT-2a" transform="translate(116.748047 0)"/>
    </g>
   </g>
   <g id="text_26">
    <!-- **** -->
    <g style="fill: #262626" transform="translate(417.352961 91.623009) scale(0.192 -0.192)">
     <use xlink:href="#ArialMT-2a"/>
     <use xlink:href="#ArialMT-2a" transform="translate(38.916016 0)"/>
     <use xlink:href="#ArialMT-2a" transform="translate(77.832031 0)"/>
     <use xlink:href="#ArialMT-2a" transform="translate(116.748047 0)"/>
    </g>
   </g>
   <g id="text_27">
    <!-- **** -->
    <g style="fill: #262626" transform="translate(368.910825 67.668079) scale(0.192 -0.192)">
     <use xlink:href="#ArialMT-2a"/>
     <use xlink:href="#ArialMT-2a" transform="translate(38.916016 0)"/>
     <use xlink:href="#ArialMT-2a" transform="translate(77.832031 0)"/>
     <use xlink:href="#ArialMT-2a" transform="translate(116.748047 0)"/>
    </g>
   </g>
   <g id="text_28">
    <!-- Ranked Discovery Yield per Fold per Target -->
    <g style="fill: #262626" transform="translate(198.882825 34.416) scale(0.192 -0.192)">
     <defs>
      <path id="ArialMT-6b" d="M 425 0 
L 425 4581 
L 988 4581 
L 988 1969 
L 2319 3319 
L 3047 3319 
L 1778 2088 
L 3175 0 
L 2481 0 
L 1384 1697 
L 988 1316 
L 988 0 
L 425 0 
z
" transform="scale(0.015625)"/>
      <path id="ArialMT-20" transform="scale(0.015625)"/>
      <path id="ArialMT-59" d="M 1784 0 
L 1784 1941 
L 19 4581 
L 756 4581 
L 1659 3200 
Q 1909 2813 2125 2425 
Q 2331 2784 2625 3234 
L 3513 4581 
L 4219 4581 
L 2391 1941 
L 2391 0 
L 1784 0 
z
" transform="scale(0.015625)"/>
      <path id="ArialMT-54" d="M 1659 0 
L 1659 4041 
L 150 4041 
L 150 4581 
L 3781 4581 
L 3781 4041 
L 2266 4041 
L 2266 0 
L 1659 0 
z
" transform="scale(0.015625)"/>
     </defs>
     <use xlink:href="#ArialMT-52"/>
     <use xlink:href="#ArialMT-61" transform="translate(72.216797 0)"/>
     <use xlink:href="#ArialMT-6e" transform="translate(127.832031 0)"/>
     <use xlink:href="#ArialMT-6b" transform="translate(183.447266 0)"/>
     <use xlink:href="#ArialMT-65" transform="translate(233.447266 0)"/>
     <use xlink:href="#ArialMT-64" transform="translate(289.0625 0)"/>
     <use xlink:href="#ArialMT-20" transform="translate(344.677734 0)"/>
     <use xlink:href="#ArialMT-44" transform="translate(372.460938 0)"/>
     <use xlink:href="#ArialMT-69" transform="translate(444.677734 0)"/>
     <use xlink:href="#ArialMT-73" transform="translate(466.894531 0)"/>
     <use xlink:href="#ArialMT-63" transform="translate(516.894531 0)"/>
     <use xlink:href="#ArialMT-6f" transform="translate(566.894531 0)"/>
     <use xlink:href="#ArialMT-76" transform="translate(622.509766 0)"/>
     <use xlink:href="#ArialMT-65" transform="translate(672.509766 0)"/>
     <use xlink:href="#ArialMT-72" transform="translate(728.125 0)"/>
     <use xlink:href="#ArialMT-79" transform="translate(761.425781 0)"/>
     <use xlink:href="#ArialMT-20" transform="translate(811.425781 0)"/>
     <use xlink:href="#ArialMT-59" transform="translate(837.458984 0)"/>
     <use xlink:href="#ArialMT-69" transform="translate(900.408203 0)"/>
     <use xlink:href="#ArialMT-65" transform="translate(922.625 0)"/>
     <use xlink:href="#ArialMT-6c" transform="translate(978.240234 0)"/>
     <use xlink:href="#ArialMT-64" transform="translate(1000.457031 0)"/>
     <use xlink:href="#ArialMT-20" transform="translate(1056.072266 0)"/>
     <use xlink:href="#ArialMT-70" transform="translate(1083.855469 0)"/>
     <use xlink:href="#ArialMT-65" transform="translate(1139.470703 0)"/>
     <use xlink:href="#ArialMT-72" transform="translate(1195.085938 0)"/>
     <use xlink:href="#ArialMT-20" transform="translate(1228.386719 0)"/>
     <use xlink:href="#ArialMT-46" transform="translate(1256.169922 0)"/>
     <use xlink:href="#ArialMT-6f" transform="translate(1317.253906 0)"/>
     <use xlink:href="#ArialMT-6c" transform="translate(1372.869141 0)"/>
     <use xlink:href="#ArialMT-64" transform="translate(1395.085938 0)"/>
     <use xlink:href="#ArialMT-20" transform="translate(1450.701172 0)"/>
     <use xlink:href="#ArialMT-70" transform="translate(1478.484375 0)"/>
     <use xlink:href="#ArialMT-65" transform="translate(1534.099609 0)"/>
     <use xlink:href="#ArialMT-72" transform="translate(1589.714844 0)"/>
     <use xlink:href="#ArialMT-20" transform="translate(1623.015625 0)"/>
     <use xlink:href="#ArialMT-54" transform="translate(1649.048828 0)"/>
     <use xlink:href="#ArialMT-61" transform="translate(1699.007812 0)"/>
     <use xlink:href="#ArialMT-72" transform="translate(1754.623047 0)"/>
     <use xlink:href="#ArialMT-67" transform="translate(1787.923828 0)"/>
     <use xlink:href="#ArialMT-65" transform="translate(1843.539062 0)"/>
     <use xlink:href="#ArialMT-74" transform="translate(1899.154297 0)"/>
    </g>
   </g>
  </g>
 </g>
 <defs>
  <clipPath id="pacd5282746">
   <rect x="74.796" y="40.416" width="618.121651" height="605.450348"/>
  </clipPath>
 </defs>
</svg>
