<?xml version="1.0" encoding="utf-8" standalone="no"?>
<!DOCTYPE svg PUBLIC "-//W3C//DTD SVG 1.1//EN"
        "http://www.w3.org/Graphics/SVG/1.1/DTD/svg11.dtd">
<svg xmlns:xlink="http://www.w3.org/1999/xlink" width="720pt" height="864pt" viewBox="0 0 720 864"
     xmlns="http://www.w3.org/2000/svg" version="1.1">
    <metadata>
        <rdf:RDF xmlns:dc="http://purl.org/dc/elements/1.1/" xmlns:cc="http://creativecommons.org/ns#"
                 xmlns:rdf="http://www.w3.org/1999/02/22-rdf-syntax-ns#">
            <cc:Work>
                <dc:type rdf:resource="http://purl.org/dc/dcmitype/StillImage"/>
                <dc:date>2025-02-20T03:50:53.272805</dc:date>
                <dc:format>image/svg+xml</dc:format>
                <dc:creator>
                    <cc:Agent>
                        <dc:title>Matplotlib v3.10.0, https://matplotlib.org/</dc:title>
                    </cc:Agent>
                </dc:creator>
            </cc:Work>
        </rdf:RDF>
    </metadata>
    <defs>
        <style type="text/css">*{stroke-linejoin: round; stroke-linecap: butt}</style>
    </defs>
    <g id="figure_1">
        <g id="patch_1">
            <path d="M 0 864
L 720 864 
L 720 0 
L 0 0 
z
" style="fill: #ffffff"/>
        </g>
        <g id="axes_1">
            <g id="patch_2">
                <path d="M 75.45 654.580631
L 698.676378 654.580631 
L 698.676378 38.4 
L 75.45 38.4 
z
" style="fill: #ffffff"/>
            </g>
            <g id="matplotlib.axis_1">
                <g id="xtick_1">
                    <g id="text_1">
                        <!-- RandomSplit -->
                        <g style="fill: #262626"
                           transform="translate(112.542867 742.367284) rotate(-45) scale(0.165 -0.165)">
                            <defs>
                                <path id="ArialMT-52" d="M 503 0
L 503 4581 
L 2534 4581 
Q 3147 4581 3465 4457 
Q 3784 4334 3975 4021 
Q 4166 3709 4166 3331 
Q 4166 2844 3850 2509 
Q 3534 2175 2875 2084 
Q 3116 1969 3241 1856 
Q 3506 1613 3744 1247 
L 4541 0 
L 3778 0 
L 3172 953 
Q 2906 1366 2734 1584 
Q 2563 1803 2427 1890 
Q 2291 1978 2150 2013 
Q 2047 2034 1813 2034 
L 1109 2034 
L 1109 0 
L 503 0 
z
M 1109 2559 
L 2413 2559 
Q 2828 2559 3062 2645 
Q 3297 2731 3419 2920 
Q 3541 3109 3541 3331 
Q 3541 3656 3305 3865 
Q 3069 4075 2559 4075 
L 1109 4075 
L 1109 2559 
z
" transform="scale(0.015625)"/>
                                <path id="ArialMT-61" d="M 2588 409
Q 2275 144 1986 34 
Q 1697 -75 1366 -75 
Q 819 -75 525 192 
Q 231 459 231 875 
Q 231 1119 342 1320 
Q 453 1522 633 1644 
Q 813 1766 1038 1828 
Q 1203 1872 1538 1913 
Q 2219 1994 2541 2106 
Q 2544 2222 2544 2253 
Q 2544 2597 2384 2738 
Q 2169 2928 1744 2928 
Q 1347 2928 1158 2789 
Q 969 2650 878 2297 
L 328 2372 
Q 403 2725 575 2942 
Q 747 3159 1072 3276 
Q 1397 3394 1825 3394 
Q 2250 3394 2515 3294 
Q 2781 3194 2906 3042 
Q 3031 2891 3081 2659 
Q 3109 2516 3109 2141 
L 3109 1391 
Q 3109 606 3145 398 
Q 3181 191 3288 0 
L 2700 0 
Q 2613 175 2588 409 
z
M 2541 1666 
Q 2234 1541 1622 1453 
Q 1275 1403 1131 1340 
Q 988 1278 909 1158 
Q 831 1038 831 891 
Q 831 666 1001 516 
Q 1172 366 1500 366 
Q 1825 366 2078 508 
Q 2331 650 2450 897 
Q 2541 1088 2541 1459 
L 2541 1666 
z
" transform="scale(0.015625)"/>
                                <path id="ArialMT-6e" d="M 422 0
L 422 3319 
L 928 3319 
L 928 2847 
Q 1294 3394 1984 3394 
Q 2284 3394 2536 3286 
Q 2788 3178 2913 3003 
Q 3038 2828 3088 2588 
Q 3119 2431 3119 2041 
L 3119 0 
L 2556 0 
L 2556 2019 
Q 2556 2363 2490 2533 
Q 2425 2703 2258 2804 
Q 2091 2906 1866 2906 
Q 1506 2906 1245 2678 
Q 984 2450 984 1813 
L 984 0 
L 422 0 
z
" transform="scale(0.015625)"/>
                                <path id="ArialMT-64" d="M 2575 0
L 2575 419 
Q 2259 -75 1647 -75 
Q 1250 -75 917 144 
Q 584 363 401 755 
Q 219 1147 219 1656 
Q 219 2153 384 2558 
Q 550 2963 881 3178 
Q 1213 3394 1622 3394 
Q 1922 3394 2156 3267 
Q 2391 3141 2538 2938 
L 2538 4581 
L 3097 4581 
L 3097 0 
L 2575 0 
z
M 797 1656 
Q 797 1019 1065 703 
Q 1334 388 1700 388 
Q 2069 388 2326 689 
Q 2584 991 2584 1609 
Q 2584 2291 2321 2609 
Q 2059 2928 1675 2928 
Q 1300 2928 1048 2622 
Q 797 2316 797 1656 
z
" transform="scale(0.015625)"/>
                                <path id="ArialMT-6f" d="M 213 1659
Q 213 2581 725 3025 
Q 1153 3394 1769 3394 
Q 2453 3394 2887 2945 
Q 3322 2497 3322 1706 
Q 3322 1066 3130 698 
Q 2938 331 2570 128 
Q 2203 -75 1769 -75 
Q 1072 -75 642 372 
Q 213 819 213 1659 
z
M 791 1659 
Q 791 1022 1069 705 
Q 1347 388 1769 388 
Q 2188 388 2466 706 
Q 2744 1025 2744 1678 
Q 2744 2294 2464 2611 
Q 2184 2928 1769 2928 
Q 1347 2928 1069 2612 
Q 791 2297 791 1659 
z
" transform="scale(0.015625)"/>
                                <path id="ArialMT-6d" d="M 422 0
L 422 3319 
L 925 3319 
L 925 2853 
Q 1081 3097 1340 3245 
Q 1600 3394 1931 3394 
Q 2300 3394 2536 3241 
Q 2772 3088 2869 2813 
Q 3263 3394 3894 3394 
Q 4388 3394 4653 3120 
Q 4919 2847 4919 2278 
L 4919 0 
L 4359 0 
L 4359 2091 
Q 4359 2428 4304 2576 
Q 4250 2725 4106 2815 
Q 3963 2906 3769 2906 
Q 3419 2906 3187 2673 
Q 2956 2441 2956 1928 
L 2956 0 
L 2394 0 
L 2394 2156 
Q 2394 2531 2256 2718 
Q 2119 2906 1806 2906 
Q 1569 2906 1367 2781 
Q 1166 2656 1075 2415 
Q 984 2175 984 1722 
L 984 0 
L 422 0 
z
" transform="scale(0.015625)"/>
                                <path id="ArialMT-53" d="M 288 1472
L 859 1522 
Q 900 1178 1048 958 
Q 1197 738 1509 602 
Q 1822 466 2213 466 
Q 2559 466 2825 569 
Q 3091 672 3220 851 
Q 3350 1031 3350 1244 
Q 3350 1459 3225 1620 
Q 3100 1781 2813 1891 
Q 2628 1963 1997 2114 
Q 1366 2266 1113 2400 
Q 784 2572 623 2826 
Q 463 3081 463 3397 
Q 463 3744 659 4045 
Q 856 4347 1234 4503 
Q 1613 4659 2075 4659 
Q 2584 4659 2973 4495 
Q 3363 4331 3572 4012 
Q 3781 3694 3797 3291 
L 3216 3247 
Q 3169 3681 2898 3903 
Q 2628 4125 2100 4125 
Q 1550 4125 1298 3923 
Q 1047 3722 1047 3438 
Q 1047 3191 1225 3031 
Q 1400 2872 2139 2705 
Q 2878 2538 3153 2413 
Q 3553 2228 3743 1945 
Q 3934 1663 3934 1294 
Q 3934 928 3725 604 
Q 3516 281 3123 101 
Q 2731 -78 2241 -78 
Q 1619 -78 1198 103 
Q 778 284 539 648 
Q 300 1013 288 1472 
z
" transform="scale(0.015625)"/>
                                <path id="ArialMT-70" d="M 422 -1272
L 422 3319 
L 934 3319 
L 934 2888 
Q 1116 3141 1344 3267 
Q 1572 3394 1897 3394 
Q 2322 3394 2647 3175 
Q 2972 2956 3137 2557 
Q 3303 2159 3303 1684 
Q 3303 1175 3120 767 
Q 2938 359 2589 142 
Q 2241 -75 1856 -75 
Q 1575 -75 1351 44 
Q 1128 163 984 344 
L 984 -1272 
L 422 -1272 
z
M 931 1641 
Q 931 1000 1190 694 
Q 1450 388 1819 388 
Q 2194 388 2461 705 
Q 2728 1022 2728 1688 
Q 2728 2322 2467 2637 
Q 2206 2953 1844 2953 
Q 1484 2953 1207 2617 
Q 931 2281 931 1641 
z
" transform="scale(0.015625)"/>
                                <path id="ArialMT-6c" d="M 409 0
L 409 4581 
L 972 4581 
L 972 0 
L 409 0 
z
" transform="scale(0.015625)"/>
                                <path id="ArialMT-69" d="M 425 3934
L 425 4581 
L 988 4581 
L 988 3934 
L 425 3934 
z
M 425 0 
L 425 3319 
L 988 3319 
L 988 0 
L 425 0 
z
" transform="scale(0.015625)"/>
                                <path id="ArialMT-74" d="M 1650 503
L 1731 6 
Q 1494 -44 1306 -44 
Q 1000 -44 831 53 
Q 663 150 594 308 
Q 525 466 525 972 
L 525 2881 
L 113 2881 
L 113 3319 
L 525 3319 
L 525 4141 
L 1084 4478 
L 1084 3319 
L 1650 3319 
L 1650 2881 
L 1084 2881 
L 1084 941 
Q 1084 700 1114 631 
Q 1144 563 1211 522 
Q 1278 481 1403 481 
Q 1497 481 1650 503 
z
" transform="scale(0.015625)"/>
                            </defs>
                            <use xlink:href="#ArialMT-52"/>
                            <use xlink:href="#ArialMT-61" transform="translate(72.216797 0)"/>
                            <use xlink:href="#ArialMT-6e" transform="translate(127.832031 0)"/>
                            <use xlink:href="#ArialMT-64" transform="translate(183.447266 0)"/>
                            <use xlink:href="#ArialMT-6f" transform="translate(239.0625 0)"/>
                            <use xlink:href="#ArialMT-6d" transform="translate(294.677734 0)"/>
                            <use xlink:href="#ArialMT-53" transform="translate(377.978516 0)"/>
                            <use xlink:href="#ArialMT-70" transform="translate(444.677734 0)"/>
                            <use xlink:href="#ArialMT-6c" transform="translate(500.292969 0)"/>
                            <use xlink:href="#ArialMT-69" transform="translate(522.509766 0)"/>
                            <use xlink:href="#ArialMT-74" transform="translate(544.726562 0)"/>
                        </g>
                    </g>
                </g>
                <g id="xtick_2">
                    <g id="text_2">
                        <!-- ScaffoldSplit -->
                        <g style="fill: #262626"
                           transform="translate(211.300094 740.221602) rotate(-45) scale(0.165 -0.165)">
                            <defs>
                                <path id="ArialMT-63" d="M 2588 1216
L 3141 1144 
Q 3050 572 2676 248 
Q 2303 -75 1759 -75 
Q 1078 -75 664 370 
Q 250 816 250 1647 
Q 250 2184 428 2587 
Q 606 2991 970 3192 
Q 1334 3394 1763 3394 
Q 2303 3394 2647 3120 
Q 2991 2847 3088 2344 
L 2541 2259 
Q 2463 2594 2264 2762 
Q 2066 2931 1784 2931 
Q 1359 2931 1093 2626 
Q 828 2322 828 1663 
Q 828 994 1084 691 
Q 1341 388 1753 388 
Q 2084 388 2306 591 
Q 2528 794 2588 1216 
z
" transform="scale(0.015625)"/>
                                <path id="ArialMT-66" d="M 556 0
L 556 2881 
L 59 2881 
L 59 3319 
L 556 3319 
L 556 3672 
Q 556 4006 616 4169 
Q 697 4388 901 4523 
Q 1106 4659 1475 4659 
Q 1713 4659 2000 4603 
L 1916 4113 
Q 1741 4144 1584 4144 
Q 1328 4144 1222 4034 
Q 1116 3925 1116 3625 
L 1116 3319 
L 1763 3319 
L 1763 2881 
L 1116 2881 
L 1116 0 
L 556 0 
z
" transform="scale(0.015625)"/>
                            </defs>
                            <use xlink:href="#ArialMT-53"/>
                            <use xlink:href="#ArialMT-63" transform="translate(66.699219 0)"/>
                            <use xlink:href="#ArialMT-61" transform="translate(116.699219 0)"/>
                            <use xlink:href="#ArialMT-66" transform="translate(172.314453 0)"/>
                            <use xlink:href="#ArialMT-66" transform="translate(198.347656 0)"/>
                            <use xlink:href="#ArialMT-6f" transform="translate(226.130859 0)"/>
                            <use xlink:href="#ArialMT-6c" transform="translate(281.746094 0)"/>
                            <use xlink:href="#ArialMT-64" transform="translate(303.962891 0)"/>
                            <use xlink:href="#ArialMT-53" transform="translate(359.578125 0)"/>
                            <use xlink:href="#ArialMT-70" transform="translate(426.277344 0)"/>
                            <use xlink:href="#ArialMT-6c" transform="translate(481.892578 0)"/>
                            <use xlink:href="#ArialMT-69" transform="translate(504.109375 0)"/>
                            <use xlink:href="#ArialMT-74" transform="translate(526.326172 0)"/>
                        </g>
                    </g>
                </g>
                <g id="xtick_3">
                    <g id="text_3">
                        <!-- SortedStepForward_LogD -->
                        <g style="fill: #262626"
                           transform="translate(273.471339 811.111156) rotate(-45) scale(0.165 -0.165)">
                            <defs>
                                <path id="ArialMT-72" d="M 416 0
L 416 3319 
L 922 3319 
L 922 2816 
Q 1116 3169 1280 3281 
Q 1444 3394 1641 3394 
Q 1925 3394 2219 3213 
L 2025 2691 
Q 1819 2813 1613 2813 
Q 1428 2813 1281 2702 
Q 1134 2591 1072 2394 
Q 978 2094 978 1738 
L 978 0 
L 416 0 
z
" transform="scale(0.015625)"/>
                                <path id="ArialMT-65" d="M 2694 1069
L 3275 997 
Q 3138 488 2766 206 
Q 2394 -75 1816 -75 
Q 1088 -75 661 373 
Q 234 822 234 1631 
Q 234 2469 665 2931 
Q 1097 3394 1784 3394 
Q 2450 3394 2872 2941 
Q 3294 2488 3294 1666 
Q 3294 1616 3291 1516 
L 816 1516 
Q 847 969 1125 678 
Q 1403 388 1819 388 
Q 2128 388 2347 550 
Q 2566 713 2694 1069 
z
M 847 1978 
L 2700 1978 
Q 2663 2397 2488 2606 
Q 2219 2931 1791 2931 
Q 1403 2931 1139 2672 
Q 875 2413 847 1978 
z
" transform="scale(0.015625)"/>
                                <path id="ArialMT-46" d="M 525 0
L 525 4581 
L 3616 4581 
L 3616 4041 
L 1131 4041 
L 1131 2622 
L 3281 2622 
L 3281 2081 
L 1131 2081 
L 1131 0 
L 525 0 
z
" transform="scale(0.015625)"/>
                                <path id="ArialMT-77" d="M 1034 0
L 19 3319 
L 600 3319 
L 1128 1403 
L 1325 691 
Q 1338 744 1497 1375 
L 2025 3319 
L 2603 3319 
L 3100 1394 
L 3266 759 
L 3456 1400 
L 4025 3319 
L 4572 3319 
L 3534 0 
L 2950 0 
L 2422 1988 
L 2294 2553 
L 1622 0 
L 1034 0 
z
" transform="scale(0.015625)"/>
                                <path id="ArialMT-5f" d="M -97 -1272
L -97 -866 
L 3631 -866 
L 3631 -1272 
L -97 -1272 
z
" transform="scale(0.015625)"/>
                                <path id="ArialMT-4c" d="M 469 0
L 469 4581 
L 1075 4581 
L 1075 541 
L 3331 541 
L 3331 0 
L 469 0 
z
" transform="scale(0.015625)"/>
                                <path id="ArialMT-67" d="M 319 -275
L 866 -356 
Q 900 -609 1056 -725 
Q 1266 -881 1628 -881 
Q 2019 -881 2231 -725 
Q 2444 -569 2519 -288 
Q 2563 -116 2559 434 
Q 2191 0 1641 0 
Q 956 0 581 494 
Q 206 988 206 1678 
Q 206 2153 378 2554 
Q 550 2956 876 3175 
Q 1203 3394 1644 3394 
Q 2231 3394 2613 2919 
L 2613 3319 
L 3131 3319 
L 3131 450 
Q 3131 -325 2973 -648 
Q 2816 -972 2473 -1159 
Q 2131 -1347 1631 -1347 
Q 1038 -1347 672 -1080 
Q 306 -813 319 -275 
z
M 784 1719 
Q 784 1066 1043 766 
Q 1303 466 1694 466 
Q 2081 466 2343 764 
Q 2606 1063 2606 1700 
Q 2606 2309 2336 2618 
Q 2066 2928 1684 2928 
Q 1309 2928 1046 2623 
Q 784 2319 784 1719 
z
" transform="scale(0.015625)"/>
                                <path id="ArialMT-44" d="M 494 0
L 494 4581 
L 2072 4581 
Q 2606 4581 2888 4516 
Q 3281 4425 3559 4188 
Q 3922 3881 4101 3404 
Q 4281 2928 4281 2316 
Q 4281 1794 4159 1391 
Q 4038 988 3847 723 
Q 3656 459 3429 307 
Q 3203 156 2883 78 
Q 2563 0 2147 0 
L 494 0 
z
M 1100 541 
L 2078 541 
Q 2531 541 2789 625 
Q 3047 709 3200 863 
Q 3416 1078 3536 1442 
Q 3656 1806 3656 2325 
Q 3656 3044 3420 3430 
Q 3184 3816 2847 3947 
Q 2603 4041 2063 4041 
L 1100 4041 
L 1100 541 
z
" transform="scale(0.015625)"/>
                            </defs>
                            <use xlink:href="#ArialMT-53"/>
                            <use xlink:href="#ArialMT-6f" transform="translate(66.699219 0)"/>
                            <use xlink:href="#ArialMT-72" transform="translate(122.314453 0)"/>
                            <use xlink:href="#ArialMT-74" transform="translate(155.615234 0)"/>
                            <use xlink:href="#ArialMT-65" transform="translate(183.398438 0)"/>
                            <use xlink:href="#ArialMT-64" transform="translate(239.013672 0)"/>
                            <use xlink:href="#ArialMT-53" transform="translate(294.628906 0)"/>
                            <use xlink:href="#ArialMT-74" transform="translate(361.328125 0)"/>
                            <use xlink:href="#ArialMT-65" transform="translate(389.111328 0)"/>
                            <use xlink:href="#ArialMT-70" transform="translate(444.726562 0)"/>
                            <use xlink:href="#ArialMT-46" transform="translate(500.341797 0)"/>
                            <use xlink:href="#ArialMT-6f" transform="translate(561.425781 0)"/>
                            <use xlink:href="#ArialMT-72" transform="translate(617.041016 0)"/>
                            <use xlink:href="#ArialMT-77" transform="translate(650.341797 0)"/>
                            <use xlink:href="#ArialMT-61" transform="translate(722.558594 0)"/>
                            <use xlink:href="#ArialMT-72" transform="translate(778.173828 0)"/>
                            <use xlink:href="#ArialMT-64" transform="translate(811.474609 0)"/>
                            <use xlink:href="#ArialMT-5f" transform="translate(867.089844 0)"/>
                            <use xlink:href="#ArialMT-4c" transform="translate(922.705078 0)"/>
                            <use xlink:href="#ArialMT-6f" transform="translate(978.320312 0)"/>
                            <use xlink:href="#ArialMT-67" transform="translate(1033.935547 0)"/>
                            <use xlink:href="#ArialMT-44" transform="translate(1089.550781 0)"/>
                        </g>
                    </g>
                </g>
                <g id="xtick_4">
                    <g id="text_4">
                        <!-- SortedStepForward_LogP -->
                        <g style="fill: #262626"
                           transform="translate(371.477486 810.467633) rotate(-45) scale(0.165 -0.165)">
                            <defs>
                                <path id="ArialMT-50" d="M 494 0
L 494 4581 
L 2222 4581 
Q 2678 4581 2919 4538 
Q 3256 4481 3484 4323 
Q 3713 4166 3852 3881 
Q 3991 3597 3991 3256 
Q 3991 2672 3619 2267 
Q 3247 1863 2275 1863 
L 1100 1863 
L 1100 0 
L 494 0 
z
M 1100 2403 
L 2284 2403 
Q 2872 2403 3119 2622 
Q 3366 2841 3366 3238 
Q 3366 3525 3220 3729 
Q 3075 3934 2838 4000 
Q 2684 4041 2272 4041 
L 1100 4041 
L 1100 2403 
z
" transform="scale(0.015625)"/>
                            </defs>
                            <use xlink:href="#ArialMT-53"/>
                            <use xlink:href="#ArialMT-6f" transform="translate(66.699219 0)"/>
                            <use xlink:href="#ArialMT-72" transform="translate(122.314453 0)"/>
                            <use xlink:href="#ArialMT-74" transform="translate(155.615234 0)"/>
                            <use xlink:href="#ArialMT-65" transform="translate(183.398438 0)"/>
                            <use xlink:href="#ArialMT-64" transform="translate(239.013672 0)"/>
                            <use xlink:href="#ArialMT-53" transform="translate(294.628906 0)"/>
                            <use xlink:href="#ArialMT-74" transform="translate(361.328125 0)"/>
                            <use xlink:href="#ArialMT-65" transform="translate(389.111328 0)"/>
                            <use xlink:href="#ArialMT-70" transform="translate(444.726562 0)"/>
                            <use xlink:href="#ArialMT-46" transform="translate(500.341797 0)"/>
                            <use xlink:href="#ArialMT-6f" transform="translate(561.425781 0)"/>
                            <use xlink:href="#ArialMT-72" transform="translate(617.041016 0)"/>
                            <use xlink:href="#ArialMT-77" transform="translate(650.341797 0)"/>
                            <use xlink:href="#ArialMT-61" transform="translate(722.558594 0)"/>
                            <use xlink:href="#ArialMT-72" transform="translate(778.173828 0)"/>
                            <use xlink:href="#ArialMT-64" transform="translate(811.474609 0)"/>
                            <use xlink:href="#ArialMT-5f" transform="translate(867.089844 0)"/>
                            <use xlink:href="#ArialMT-4c" transform="translate(922.705078 0)"/>
                            <use xlink:href="#ArialMT-6f" transform="translate(978.320312 0)"/>
                            <use xlink:href="#ArialMT-67" transform="translate(1033.935547 0)"/>
                            <use xlink:href="#ArialMT-50" transform="translate(1089.550781 0)"/>
                        </g>
                    </g>
                </g>
                <g id="xtick_5">
                    <g id="text_5">
                        <!-- SortedStepForward_MCE18 -->
                        <g style="fill: #262626"
                           transform="translate(463.402072 822.123957) rotate(-45) scale(0.165 -0.165)">
                            <defs>
                                <path id="ArialMT-4d" d="M 475 0
L 475 4581 
L 1388 4581 
L 2472 1338 
Q 2622 884 2691 659 
Q 2769 909 2934 1394 
L 4031 4581 
L 4847 4581 
L 4847 0 
L 4263 0 
L 4263 3834 
L 2931 0 
L 2384 0 
L 1059 3900 
L 1059 0 
L 475 0 
z
" transform="scale(0.015625)"/>
                                <path id="ArialMT-43" d="M 3763 1606
L 4369 1453 
Q 4178 706 3683 314 
Q 3188 -78 2472 -78 
Q 1731 -78 1267 223 
Q 803 525 561 1097 
Q 319 1669 319 2325 
Q 319 3041 592 3573 
Q 866 4106 1370 4382 
Q 1875 4659 2481 4659 
Q 3169 4659 3637 4309 
Q 4106 3959 4291 3325 
L 3694 3184 
Q 3534 3684 3231 3912 
Q 2928 4141 2469 4141 
Q 1941 4141 1586 3887 
Q 1231 3634 1087 3207 
Q 944 2781 944 2328 
Q 944 1744 1114 1308 
Q 1284 872 1643 656 
Q 2003 441 2422 441 
Q 2931 441 3284 734 
Q 3638 1028 3763 1606 
z
" transform="scale(0.015625)"/>
                                <path id="ArialMT-45" d="M 506 0
L 506 4581 
L 3819 4581 
L 3819 4041 
L 1113 4041 
L 1113 2638 
L 3647 2638 
L 3647 2100 
L 1113 2100 
L 1113 541 
L 3925 541 
L 3925 0 
L 506 0 
z
" transform="scale(0.015625)"/>
                                <path id="ArialMT-31" d="M 2384 0
L 1822 0 
L 1822 3584 
Q 1619 3391 1289 3197 
Q 959 3003 697 2906 
L 697 3450 
Q 1169 3672 1522 3987 
Q 1875 4303 2022 4600 
L 2384 4600 
L 2384 0 
z
" transform="scale(0.015625)"/>
                                <path id="ArialMT-38" d="M 1131 2484
Q 781 2613 612 2850 
Q 444 3088 444 3419 
Q 444 3919 803 4259 
Q 1163 4600 1759 4600 
Q 2359 4600 2725 4251 
Q 3091 3903 3091 3403 
Q 3091 3084 2923 2848 
Q 2756 2613 2416 2484 
Q 2838 2347 3058 2040 
Q 3278 1734 3278 1309 
Q 3278 722 2862 322 
Q 2447 -78 1769 -78 
Q 1091 -78 675 323 
Q 259 725 259 1325 
Q 259 1772 486 2073 
Q 713 2375 1131 2484 
z
M 1019 3438 
Q 1019 3113 1228 2906 
Q 1438 2700 1772 2700 
Q 2097 2700 2305 2904 
Q 2513 3109 2513 3406 
Q 2513 3716 2298 3927 
Q 2084 4138 1766 4138 
Q 1444 4138 1231 3931 
Q 1019 3725 1019 3438 
z
M 838 1322 
Q 838 1081 952 856 
Q 1066 631 1291 507 
Q 1516 384 1775 384 
Q 2178 384 2440 643 
Q 2703 903 2703 1303 
Q 2703 1709 2433 1975 
Q 2163 2241 1756 2241 
Q 1359 2241 1098 1978 
Q 838 1716 838 1322 
z
" transform="scale(0.015625)"/>
                            </defs>
                            <use xlink:href="#ArialMT-53"/>
                            <use xlink:href="#ArialMT-6f" transform="translate(66.699219 0)"/>
                            <use xlink:href="#ArialMT-72" transform="translate(122.314453 0)"/>
                            <use xlink:href="#ArialMT-74" transform="translate(155.615234 0)"/>
                            <use xlink:href="#ArialMT-65" transform="translate(183.398438 0)"/>
                            <use xlink:href="#ArialMT-64" transform="translate(239.013672 0)"/>
                            <use xlink:href="#ArialMT-53" transform="translate(294.628906 0)"/>
                            <use xlink:href="#ArialMT-74" transform="translate(361.328125 0)"/>
                            <use xlink:href="#ArialMT-65" transform="translate(389.111328 0)"/>
                            <use xlink:href="#ArialMT-70" transform="translate(444.726562 0)"/>
                            <use xlink:href="#ArialMT-46" transform="translate(500.341797 0)"/>
                            <use xlink:href="#ArialMT-6f" transform="translate(561.425781 0)"/>
                            <use xlink:href="#ArialMT-72" transform="translate(617.041016 0)"/>
                            <use xlink:href="#ArialMT-77" transform="translate(650.341797 0)"/>
                            <use xlink:href="#ArialMT-61" transform="translate(722.558594 0)"/>
                            <use xlink:href="#ArialMT-72" transform="translate(778.173828 0)"/>
                            <use xlink:href="#ArialMT-64" transform="translate(811.474609 0)"/>
                            <use xlink:href="#ArialMT-5f" transform="translate(867.089844 0)"/>
                            <use xlink:href="#ArialMT-4d" transform="translate(922.705078 0)"/>
                            <use xlink:href="#ArialMT-43" transform="translate(1006.005859 0)"/>
                            <use xlink:href="#ArialMT-45" transform="translate(1078.222656 0)"/>
                            <use xlink:href="#ArialMT-31" transform="translate(1144.921875 0)"/>
                            <use xlink:href="#ArialMT-38" transform="translate(1200.537109 0)"/>
                        </g>
                    </g>
                </g>
                <g id="xtick_6">
                    <g id="text_6">
                        <!-- UnsortedStepForward -->
                        <g style="fill: #262626"
                           transform="translate(577.299394 789.698084) rotate(-45) scale(0.165 -0.165)">
                            <defs>
                                <path id="ArialMT-55" d="M 3500 4581
L 4106 4581 
L 4106 1934 
Q 4106 1244 3950 837 
Q 3794 431 3386 176 
Q 2978 -78 2316 -78 
Q 1672 -78 1262 144 
Q 853 366 678 786 
Q 503 1206 503 1934 
L 503 4581 
L 1109 4581 
L 1109 1938 
Q 1109 1341 1220 1058 
Q 1331 775 1601 622 
Q 1872 469 2263 469 
Q 2931 469 3215 772 
Q 3500 1075 3500 1938 
L 3500 4581 
z
" transform="scale(0.015625)"/>
                                <path id="ArialMT-73" d="M 197 991
L 753 1078 
Q 800 744 1014 566 
Q 1228 388 1613 388 
Q 2000 388 2187 545 
Q 2375 703 2375 916 
Q 2375 1106 2209 1216 
Q 2094 1291 1634 1406 
Q 1016 1563 777 1677 
Q 538 1791 414 1992 
Q 291 2194 291 2438 
Q 291 2659 392 2848 
Q 494 3038 669 3163 
Q 800 3259 1026 3326 
Q 1253 3394 1513 3394 
Q 1903 3394 2198 3281 
Q 2494 3169 2634 2976 
Q 2775 2784 2828 2463 
L 2278 2388 
Q 2241 2644 2061 2787 
Q 1881 2931 1553 2931 
Q 1166 2931 1000 2803 
Q 834 2675 834 2503 
Q 834 2394 903 2306 
Q 972 2216 1119 2156 
Q 1203 2125 1616 2013 
Q 2213 1853 2448 1751 
Q 2684 1650 2818 1456 
Q 2953 1263 2953 975 
Q 2953 694 2789 445 
Q 2625 197 2315 61 
Q 2006 -75 1616 -75 
Q 969 -75 630 194 
Q 291 463 197 991 
z
" transform="scale(0.015625)"/>
                            </defs>
                            <use xlink:href="#ArialMT-55"/>
                            <use xlink:href="#ArialMT-6e" transform="translate(72.216797 0)"/>
                            <use xlink:href="#ArialMT-73" transform="translate(127.832031 0)"/>
                            <use xlink:href="#ArialMT-6f" transform="translate(177.832031 0)"/>
                            <use xlink:href="#ArialMT-72" transform="translate(233.447266 0)"/>
                            <use xlink:href="#ArialMT-74" transform="translate(266.748047 0)"/>
                            <use xlink:href="#ArialMT-65" transform="translate(294.53125 0)"/>
                            <use xlink:href="#ArialMT-64" transform="translate(350.146484 0)"/>
                            <use xlink:href="#ArialMT-53" transform="translate(405.761719 0)"/>
                            <use xlink:href="#ArialMT-74" transform="translate(472.460938 0)"/>
                            <use xlink:href="#ArialMT-65" transform="translate(500.244141 0)"/>
                            <use xlink:href="#ArialMT-70" transform="translate(555.859375 0)"/>
                            <use xlink:href="#ArialMT-46" transform="translate(611.474609 0)"/>
                            <use xlink:href="#ArialMT-6f" transform="translate(672.558594 0)"/>
                            <use xlink:href="#ArialMT-72" transform="translate(728.173828 0)"/>
                            <use xlink:href="#ArialMT-77" transform="translate(761.474609 0)"/>
                            <use xlink:href="#ArialMT-61" transform="translate(833.691406 0)"/>
                            <use xlink:href="#ArialMT-72" transform="translate(889.306641 0)"/>
                            <use xlink:href="#ArialMT-64" transform="translate(922.607422 0)"/>
                        </g>
                    </g>
                </g>
                <g id="text_7">
                    <!-- split_type -->
                    <g style="fill: #262626" transform="translate(349.043814 841.326888) scale(0.18 -0.18)">
                        <defs>
                            <path id="ArialMT-79" d="M 397 -1278
L 334 -750 
Q 519 -800 656 -800 
Q 844 -800 956 -737 
Q 1069 -675 1141 -563 
Q 1194 -478 1313 -144 
Q 1328 -97 1363 -6 
L 103 3319 
L 709 3319 
L 1400 1397 
Q 1534 1031 1641 628 
Q 1738 1016 1872 1384 
L 2581 3319 
L 3144 3319 
L 1881 -56 
Q 1678 -603 1566 -809 
Q 1416 -1088 1222 -1217 
Q 1028 -1347 759 -1347 
Q 597 -1347 397 -1278 
z
" transform="scale(0.015625)"/>
                        </defs>
                        <use xlink:href="#ArialMT-73"/>
                        <use xlink:href="#ArialMT-70" transform="translate(50 0)"/>
                        <use xlink:href="#ArialMT-6c" transform="translate(105.615234 0)"/>
                        <use xlink:href="#ArialMT-69" transform="translate(127.832031 0)"/>
                        <use xlink:href="#ArialMT-74" transform="translate(150.048828 0)"/>
                        <use xlink:href="#ArialMT-5f" transform="translate(177.832031 0)"/>
                        <use xlink:href="#ArialMT-74" transform="translate(233.447266 0)"/>
                        <use xlink:href="#ArialMT-79" transform="translate(261.230469 0)"/>
                        <use xlink:href="#ArialMT-70" transform="translate(311.230469 0)"/>
                        <use xlink:href="#ArialMT-65" transform="translate(366.845703 0)"/>
                    </g>
                </g>
            </g>
            <g id="matplotlib.axis_2">
                <g id="ytick_1">
                    <g id="line2d_1">
                        <path d="M 75.45 619.144374
L 698.676378 619.144374 
" clip-path="url(#p7b65fe49ca)" style="fill: none; stroke: #cccccc; stroke-width: 1.5; stroke-linecap: round"/>
                    </g>
                    <g id="text_8">
                        <!-- 0.0 -->
                        <g style="fill: #262626" transform="translate(40.015 625.04957) scale(0.165 -0.165)">
                            <defs>
                                <path id="ArialMT-30" d="M 266 2259
Q 266 3072 433 3567 
Q 600 4063 929 4331 
Q 1259 4600 1759 4600 
Q 2128 4600 2406 4451 
Q 2684 4303 2865 4023 
Q 3047 3744 3150 3342 
Q 3253 2941 3253 2259 
Q 3253 1453 3087 958 
Q 2922 463 2592 192 
Q 2263 -78 1759 -78 
Q 1097 -78 719 397 
Q 266 969 266 2259 
z
M 844 2259 
Q 844 1131 1108 757 
Q 1372 384 1759 384 
Q 2147 384 2411 759 
Q 2675 1134 2675 2259 
Q 2675 3391 2411 3762 
Q 2147 4134 1753 4134 
Q 1366 4134 1134 3806 
Q 844 3388 844 2259 
z
" transform="scale(0.015625)"/>
                                <path id="ArialMT-2e" d="M 581 0
L 581 641 
L 1222 641 
L 1222 0 
L 581 0 
z
" transform="scale(0.015625)"/>
                            </defs>
                            <use xlink:href="#ArialMT-30"/>
                            <use xlink:href="#ArialMT-2e" transform="translate(55.615234 0)"/>
                            <use xlink:href="#ArialMT-30" transform="translate(83.398438 0)"/>
                        </g>
                    </g>
                </g>
                <g id="ytick_2">
                    <g id="line2d_2">
                        <path d="M 75.45 496.005364
L 698.676378 496.005364 
" clip-path="url(#p7b65fe49ca)" style="fill: none; stroke: #cccccc; stroke-width: 1.5; stroke-linecap: round"/>
                    </g>
                    <g id="text_9">
                        <!-- 0.5 -->
                        <g style="fill: #262626" transform="translate(40.015 501.910559) scale(0.165 -0.165)">
                            <defs>
                                <path id="ArialMT-35" d="M 266 1200
L 856 1250 
Q 922 819 1161 601 
Q 1400 384 1738 384 
Q 2144 384 2425 690 
Q 2706 997 2706 1503 
Q 2706 1984 2436 2262 
Q 2166 2541 1728 2541 
Q 1456 2541 1237 2417 
Q 1019 2294 894 2097 
L 366 2166 
L 809 4519 
L 3088 4519 
L 3088 3981 
L 1259 3981 
L 1013 2750 
Q 1425 3038 1878 3038 
Q 2478 3038 2890 2622 
Q 3303 2206 3303 1553 
Q 3303 931 2941 478 
Q 2500 -78 1738 -78 
Q 1113 -78 717 272 
Q 322 622 266 1200 
z
" transform="scale(0.015625)"/>
                            </defs>
                            <use xlink:href="#ArialMT-30"/>
                            <use xlink:href="#ArialMT-2e" transform="translate(55.615234 0)"/>
                            <use xlink:href="#ArialMT-35" transform="translate(83.398438 0)"/>
                        </g>
                    </g>
                </g>
                <g id="ytick_3">
                    <g id="line2d_3">
                        <path d="M 75.45 372.866353
L 698.676378 372.866353 
" clip-path="url(#p7b65fe49ca)" style="fill: none; stroke: #cccccc; stroke-width: 1.5; stroke-linecap: round"/>
                    </g>
                    <g id="text_10">
                        <!-- 1.0 -->
                        <g style="fill: #262626" transform="translate(40.015 378.771548) scale(0.165 -0.165)">
                            <use xlink:href="#ArialMT-31"/>
                            <use xlink:href="#ArialMT-2e" transform="translate(55.615234 0)"/>
                            <use xlink:href="#ArialMT-30" transform="translate(83.398438 0)"/>
                        </g>
                    </g>
                </g>
                <g id="ytick_4">
                    <g id="line2d_4">
                        <path d="M 75.45 249.727343
L 698.676378 249.727343 
" clip-path="url(#p7b65fe49ca)" style="fill: none; stroke: #cccccc; stroke-width: 1.5; stroke-linecap: round"/>
                    </g>
                    <g id="text_11">
                        <!-- 1.5 -->
                        <g style="fill: #262626" transform="translate(40.015 255.632538) scale(0.165 -0.165)">
                            <use xlink:href="#ArialMT-31"/>
                            <use xlink:href="#ArialMT-2e" transform="translate(55.615234 0)"/>
                            <use xlink:href="#ArialMT-35" transform="translate(83.398438 0)"/>
                        </g>
                    </g>
                </g>
                <g id="ytick_5">
                    <g id="line2d_5">
                        <path d="M 75.45 126.588332
L 698.676378 126.588332 
" clip-path="url(#p7b65fe49ca)" style="fill: none; stroke: #cccccc; stroke-width: 1.5; stroke-linecap: round"/>
                    </g>
                    <g id="text_12">
                        <!-- 2.0 -->
                        <g style="fill: #262626" transform="translate(40.015 132.493527) scale(0.165 -0.165)">
                            <defs>
                                <path id="ArialMT-32" d="M 3222 541
L 3222 0 
L 194 0 
Q 188 203 259 391 
Q 375 700 629 1000 
Q 884 1300 1366 1694 
Q 2113 2306 2375 2664 
Q 2638 3022 2638 3341 
Q 2638 3675 2398 3904 
Q 2159 4134 1775 4134 
Q 1369 4134 1125 3890 
Q 881 3647 878 3216 
L 300 3275 
Q 359 3922 746 4261 
Q 1134 4600 1788 4600 
Q 2447 4600 2831 4234 
Q 3216 3869 3216 3328 
Q 3216 3053 3103 2787 
Q 2991 2522 2730 2228 
Q 2469 1934 1863 1422 
Q 1356 997 1212 845 
Q 1069 694 975 541 
L 3222 541 
z
" transform="scale(0.015625)"/>
                            </defs>
                            <use xlink:href="#ArialMT-32"/>
                            <use xlink:href="#ArialMT-2e" transform="translate(55.615234 0)"/>
                            <use xlink:href="#ArialMT-30" transform="translate(83.398438 0)"/>
                        </g>
                    </g>
                </g>
                <g id="text_13">
                    <!-- discovery_yield -->
                    <g style="fill: #262626" transform="translate(32.226562 408.015159) rotate(-90) scale(0.18 -0.18)">
                        <defs>
                            <path id="ArialMT-76" d="M 1344 0
L 81 3319 
L 675 3319 
L 1388 1331 
Q 1503 1009 1600 663 
Q 1675 925 1809 1294 
L 2547 3319 
L 3125 3319 
L 1869 0 
L 1344 0 
z
" transform="scale(0.015625)"/>
                        </defs>
                        <use xlink:href="#ArialMT-64"/>
                        <use xlink:href="#ArialMT-69" transform="translate(55.615234 0)"/>
                        <use xlink:href="#ArialMT-73" transform="translate(77.832031 0)"/>
                        <use xlink:href="#ArialMT-63" transform="translate(127.832031 0)"/>
                        <use xlink:href="#ArialMT-6f" transform="translate(177.832031 0)"/>
                        <use xlink:href="#ArialMT-76" transform="translate(233.447266 0)"/>
                        <use xlink:href="#ArialMT-65" transform="translate(283.447266 0)"/>
                        <use xlink:href="#ArialMT-72" transform="translate(339.0625 0)"/>
                        <use xlink:href="#ArialMT-79" transform="translate(372.363281 0)"/>
                        <use xlink:href="#ArialMT-5f" transform="translate(422.363281 0)"/>
                        <use xlink:href="#ArialMT-79" transform="translate(477.978516 0)"/>
                        <use xlink:href="#ArialMT-69" transform="translate(527.978516 0)"/>
                        <use xlink:href="#ArialMT-65" transform="translate(550.195312 0)"/>
                        <use xlink:href="#ArialMT-6c" transform="translate(605.810547 0)"/>
                        <use xlink:href="#ArialMT-64" transform="translate(628.027344 0)"/>
                    </g>
                </g>
            </g>
            <g id="FillBetweenPolyCollection_1">
                <defs>
                    <path id="mbe440bb78b" d="M 143.226912 -229.502164
L 142.47754 -229.502164 
L 142.125463 -232.299992 
L 141.61787 -235.097819 
L 141.016434 -237.895647 
L 140.461251 -240.693475 
L 140.124626 -243.491302 
L 140.12532 -246.28913 
L 140.45955 -249.086958 
L 141.001756 -251.884786 
L 141.574451 -254.682613 
L 142.033589 -257.480441 
L 142.314108 -260.278269 
L 142.42278 -263.076097 
L 142.404237 -265.873924 
L 142.310483 -268.671752 
L 142.184886 -271.46958 
L 142.055321 -274.267407 
L 141.930132 -277.065235 
L 141.797895 -279.863063 
L 141.635331 -282.660891 
L 141.422256 -285.458718 
L 141.154296 -288.256546 
L 140.843241 -291.054374 
L 140.504887 -293.852202 
L 140.146374 -296.650029 
L 139.766059 -299.447857 
L 139.365509 -302.245685 
L 138.958876 -305.043512 
L 138.566389 -307.84134 
L 138.19551 -310.639168 
L 137.828108 -313.436996 
L 137.429503 -316.234823 
L 136.976895 -319.032651 
L 136.484541 -321.830479 
L 135.999453 -324.628307 
L 135.564143 -327.426134 
L 135.176583 -330.223962 
L 134.785967 -333.02179 
L 134.330247 -335.819617 
L 133.780019 -338.617445 
L 133.149046 -341.415273 
L 132.466471 -344.213101 
L 131.739029 -347.010928 
L 130.93252 -349.808756 
L 129.980558 -352.606584 
L 128.812482 -355.404412 
L 127.390649 -358.202239 
L 125.745856 -361.000067 
L 123.989345 -363.797895 
L 122.278277 -366.595722 
L 120.740832 -369.39355 
L 119.408513 -372.191378 
L 118.20589 -374.989206 
L 116.999673 -377.787033 
L 115.663485 -380.584861 
L 114.121121 -383.382689 
L 112.366981 -386.180517 
L 110.474576 -388.978344 
L 108.587294 -391.776172 
L 106.879438 -394.574 
L 105.498428 -397.371827 
L 104.522461 -400.169655 
L 103.959334 -402.967483 
L 103.778472 -405.765311 
L 103.946268 -408.563138 
L 104.444919 -411.360966 
L 105.276399 -414.158794 
L 106.456845 -416.956622 
L 107.997605 -419.754449 
L 109.875346 -422.552277 
L 112.013447 -425.350105 
L 114.297556 -428.147932 
L 116.619898 -430.94576 
L 118.920885 -433.743588 
L 121.1993 -436.541416 
L 123.485211 -439.339243 
L 125.792928 -442.137071 
L 128.084417 -444.934899 
L 130.268988 -447.732727 
L 132.240054 -450.530554 
L 133.922297 -453.328382 
L 135.298603 -456.12621 
L 136.406658 -458.924037 
L 137.315846 -461.721865 
L 138.099015 -464.519693 
L 138.807598 -467.317521 
L 139.45441 -470.115348 
L 140.007758 -472.913176 
L 140.400503 -475.711004 
L 140.558079 -478.508832 
L 140.445534 -481.306659 
L 140.11729 -484.104487 
L 139.73261 -486.902315 
L 139.504671 -489.700142 
L 139.597427 -492.49797 
L 140.03706 -495.295798 
L 140.704515 -498.093626 
L 141.412598 -500.891453 
L 142.005884 -503.689281 
L 142.416216 -506.487109 
L 143.288235 -506.487109 
L 143.288235 -506.487109 
L 143.698567 -503.689281 
L 144.291853 -500.891453 
L 144.999937 -498.093626 
L 145.667391 -495.295798 
L 146.107025 -492.49797 
L 146.199781 -489.700142 
L 145.971841 -486.902315 
L 145.587162 -484.104487 
L 145.258918 -481.306659 
L 145.146373 -478.508832 
L 145.303949 -475.711004 
L 145.696694 -472.913176 
L 146.250042 -470.115348 
L 146.896853 -467.317521 
L 147.605437 -464.519693 
L 148.388606 -461.721865 
L 149.297794 -458.924037 
L 150.405849 -456.12621 
L 151.782154 -453.328382 
L 153.464398 -450.530554 
L 155.435463 -447.732727 
L 157.620035 -444.934899 
L 159.911524 -442.137071 
L 162.219241 -439.339243 
L 164.505152 -436.541416 
L 166.783566 -433.743588 
L 169.084554 -430.94576 
L 171.406895 -428.147932 
L 173.691005 -425.350105 
L 175.829106 -422.552277 
L 177.706847 -419.754449 
L 179.247607 -416.956622 
L 180.428053 -414.158794 
L 181.259533 -411.360966 
L 181.758184 -408.563138 
L 181.92598 -405.765311 
L 181.745117 -402.967483 
L 181.181991 -400.169655 
L 180.206024 -397.371827 
L 178.825014 -394.574 
L 177.117158 -391.776172 
L 175.229876 -388.978344 
L 173.337471 -386.180517 
L 171.583331 -383.382689 
L 170.040967 -380.584861 
L 168.704779 -377.787033 
L 167.498562 -374.989206 
L 166.295939 -372.191378 
L 164.96362 -369.39355 
L 163.426175 -366.595722 
L 161.715106 -363.797895 
L 159.958596 -361.000067 
L 158.313803 -358.202239 
L 156.89197 -355.404412 
L 155.723894 -352.606584 
L 154.771932 -349.808756 
L 153.965423 -347.010928 
L 153.23798 -344.213101 
L 152.555406 -341.415273 
L 151.924433 -338.617445 
L 151.374205 -335.819617 
L 150.918485 -333.02179 
L 150.527869 -330.223962 
L 150.140309 -327.426134 
L 149.704999 -324.628307 
L 149.219911 -321.830479 
L 148.727557 -319.032651 
L 148.274949 -316.234823 
L 147.876344 -313.436996 
L 147.508942 -310.639168 
L 147.138063 -307.84134 
L 146.745575 -305.043512 
L 146.338943 -302.245685 
L 145.938393 -299.447857 
L 145.558078 -296.650029 
L 145.199565 -293.852202 
L 144.861211 -291.054374 
L 144.550156 -288.256546 
L 144.282196 -285.458718 
L 144.069121 -282.660891 
L 143.906557 -279.863063 
L 143.774319 -277.065235 
L 143.64913 -274.267407 
L 143.519566 -271.46958 
L 143.393968 -268.671752 
L 143.300215 -265.873924 
L 143.281672 -263.076097 
L 143.390344 -260.278269 
L 143.670863 -257.480441 
L 144.130001 -254.682613 
L 144.702695 -251.884786 
L 145.244901 -249.086958 
L 145.579132 -246.28913 
L 145.579826 -243.491302 
L 145.243201 -240.693475 
L 144.688018 -237.895647 
L 144.086582 -235.097819 
L 143.578989 -232.299992 
L 143.226912 -229.502164 
z
" style="stroke: #3d3d3d; stroke-width: 1.875"/>
                </defs>
                <g clip-path="url(#p7b65fe49ca)">
                    <use xlink:href="#mbe440bb78b" x="0" y="864"
                         style="fill: #3274a1; stroke: #3d3d3d; stroke-width: 1.875"/>
                </g>
            </g>
            <g id="FillBetweenPolyCollection_2">
                <defs>
                    <path id="mf1613dd0af" d="M 242.792412 -224.312099
L 238.280811 -224.312099 
L 236.716579 -227.214777 
L 234.560479 -230.117454 
L 231.897122 -233.020132 
L 228.989602 -235.922809 
L 226.258147 -238.825487 
L 224.181976 -241.728164 
L 223.150198 -244.630842 
L 223.323552 -247.533519 
L 224.5733 -250.436197 
L 226.528231 -253.338874 
L 228.705711 -256.241552 
L 230.66306 -259.144229 
L 232.104709 -262.046907 
L 232.913882 -264.949584 
L 233.119299 -267.852262 
L 232.832308 -270.754939 
L 232.189411 -273.657617 
L 231.318083 -276.560294 
L 230.325135 -279.462972 
L 229.29678 -282.365649 
L 228.299912 -285.268327 
L 227.380232 -288.171005 
L 226.558932 -291.073682 
L 225.831821 -293.97636 
L 225.172984 -296.879037 
L 224.541721 -299.781715 
L 223.889796 -302.684392 
L 223.167267 -305.58707 
L 222.328051 -308.489747 
L 221.337887 -311.392425 
L 220.185306 -314.295102 
L 218.891591 -317.19778 
L 217.512499 -320.100457 
L 216.126509 -323.003135 
L 214.811661 -325.905812 
L 213.620777 -328.80849 
L 212.567089 -331.711167 
L 211.626479 -334.613845 
L 210.752771 -337.516522 
L 209.895937 -340.4192 
L 209.014274 -343.321877 
L 208.078774 -346.224555 
L 207.074574 -349.127232 
L 206.005189 -352.02991 
L 204.900215 -354.932587 
L 203.820747 -357.835265 
L 202.854513 -360.737943 
L 202.096925 -363.64062 
L 201.623025 -366.543298 
L 201.462857 -369.445975 
L 201.593645 -372.348653 
L 201.954202 -375.25133 
L 202.474544 -378.154008 
L 203.104664 -381.056685 
L 203.827247 -383.959363 
L 204.649251 -386.86204 
L 205.580149 -389.764718 
L 206.611855 -392.667395 
L 207.713085 -395.570073 
L 208.841073 -398.47275 
L 209.962871 -401.375428 
L 211.072977 -404.278105 
L 212.196833 -407.180783 
L 213.378308 -410.08346 
L 214.658408 -412.986138 
L 216.056547 -415.888815 
L 217.563147 -418.791493 
L 219.145225 -421.69417 
L 220.759793 -424.596848 
L 222.367026 -427.499525 
L 223.93721 -430.402203 
L 225.450318 -433.304881 
L 226.891401 -436.207558 
L 228.246422 -439.110236 
L 229.501659 -442.012913 
L 230.646873 -444.915591 
L 231.680028 -447.818268 
L 232.61049 -450.720946 
L 233.458231 -453.623623 
L 234.248141 -456.526301 
L 235.000555 -459.428978 
L 235.720934 -462.331656 
L 236.39265 -465.234333 
L 236.976492 -468.137011 
L 237.418983 -471.039688 
L 237.669072 -473.942366 
L 237.699681 -476.845043 
L 237.527279 -479.747721 
L 237.220663 -482.650398 
L 236.891623 -485.553076 
L 236.666596 -488.455753 
L 236.648002 -491.358431 
L 236.8811 -494.261108 
L 237.341424 -497.163786 
L 237.948263 -500.066464 
L 238.596728 -502.969141 
L 239.19276 -505.871819 
L 239.676549 -508.774496 
L 240.02823 -511.677174 
L 241.044992 -511.677174 
L 241.044992 -511.677174 
L 241.396673 -508.774496 
L 241.880463 -505.871819 
L 242.476494 -502.969141 
L 243.124959 -500.066464 
L 243.731799 -497.163786 
L 244.192123 -494.261108 
L 244.425221 -491.358431 
L 244.406626 -488.455753 
L 244.181599 -485.553076 
L 243.852559 -482.650398 
L 243.545944 -479.747721 
L 243.373541 -476.845043 
L 243.40415 -473.942366 
L 243.65424 -471.039688 
L 244.09673 -468.137011 
L 244.680572 -465.234333 
L 245.352288 -462.331656 
L 246.072668 -459.428978 
L 246.825081 -456.526301 
L 247.614992 -453.623623 
L 248.462733 -450.720946 
L 249.393194 -447.818268 
L 250.426349 -444.915591 
L 251.571563 -442.012913 
L 252.826801 -439.110236 
L 254.181821 -436.207558 
L 255.622904 -433.304881 
L 257.136013 -430.402203 
L 258.706196 -427.499525 
L 260.31343 -424.596848 
L 261.927998 -421.69417 
L 263.510076 -418.791493 
L 265.016675 -415.888815 
L 266.414814 -412.986138 
L 267.694914 -410.08346 
L 268.87639 -407.180783 
L 270.000245 -404.278105 
L 271.110351 -401.375428 
L 272.232149 -398.47275 
L 273.360138 -395.570073 
L 274.461367 -392.667395 
L 275.493074 -389.764718 
L 276.423971 -386.86204 
L 277.245976 -383.959363 
L 277.968558 -381.056685 
L 278.598678 -378.154008 
L 279.11902 -375.25133 
L 279.479578 -372.348653 
L 279.610365 -369.445975 
L 279.450198 -366.543298 
L 278.976298 -363.64062 
L 278.21871 -360.737943 
L 277.252475 -357.835265 
L 276.173008 -354.932587 
L 275.068033 -352.02991 
L 273.998648 -349.127232 
L 272.994448 -346.224555 
L 272.058949 -343.321877 
L 271.177285 -340.4192 
L 270.320451 -337.516522 
L 269.446744 -334.613845 
L 268.506133 -331.711167 
L 267.452445 -328.80849 
L 266.261562 -325.905812 
L 264.946713 -323.003135 
L 263.560724 -320.100457 
L 262.181631 -317.19778 
L 260.887917 -314.295102 
L 259.735336 -311.392425 
L 258.745172 -308.489747 
L 257.905955 -305.58707 
L 257.183426 -302.684392 
L 256.531501 -299.781715 
L 255.900238 -296.879037 
L 255.241402 -293.97636 
L 254.514291 -291.073682 
L 253.69299 -288.171005 
L 252.77331 -285.268327 
L 251.776442 -282.365649 
L 250.748088 -279.462972 
L 249.75514 -276.560294 
L 248.883812 -273.657617 
L 248.240914 -270.754939 
L 247.953924 -267.852262 
L 248.15934 -264.949584 
L 248.968513 -262.046907 
L 250.410163 -259.144229 
L 252.367512 -256.241552 
L 254.544992 -253.338874 
L 256.499923 -250.436197 
L 257.74967 -247.533519 
L 257.923024 -244.630842 
L 256.891246 -241.728164 
L 254.815076 -238.825487 
L 252.083621 -235.922809 
L 249.176101 -233.020132 
L 246.512744 -230.117454 
L 244.356643 -227.214777 
L 242.792412 -224.312099 
z
" style="stroke: #3d3d3d; stroke-width: 1.875"/>
                </defs>
                <g clip-path="url(#p7b65fe49ca)">
                    <use xlink:href="#mf1613dd0af" x="0" y="864"
                         style="fill: #e1812c; stroke: #3d3d3d; stroke-width: 1.875"/>
                </g>
            </g>
            <g id="FillBetweenPolyCollection_3">
                <defs>
                    <path id="m8e7cd88c69" d="M 339.613659 -226.160235
L 336.828334 -226.160235 
L 335.765492 -229.025577 
L 334.277434 -231.890918 
L 332.44985 -234.75626 
L 330.519747 -237.621601 
L 328.838478 -240.486942 
L 327.761773 -243.352284 
L 327.50932 -246.217625 
L 328.067798 -249.082967 
L 329.194923 -251.948308 
L 330.523506 -254.81365 
L 331.705677 -257.678991 
L 332.521096 -260.544332 
L 332.906284 -263.409674 
L 332.914402 -266.275015 
L 332.647673 -269.140357 
L 332.203299 -272.005698 
L 331.650367 -274.87104 
L 331.031912 -277.736381 
L 330.37633 -280.601722 
L 329.705532 -283.467064 
L 329.035975 -286.332405 
L 328.375666 -289.197747 
L 327.722491 -292.063088 
L 327.067092 -294.92843 
L 326.399346 -297.793771 
L 325.713873 -300.659113 
L 325.009542 -303.524454 
L 324.28171 -306.389795 
L 323.512183 -309.255137 
L 322.666097 -312.120478 
L 321.702561 -314.98582 
L 320.596478 -317.851161 
L 319.358498 -320.716503 
L 318.037681 -323.581844 
L 316.701539 -326.447185 
L 315.404567 -329.312527 
L 314.165766 -332.177868 
L 312.969204 -335.04321 
L 311.784333 -337.908551 
L 310.589273 -340.773893 
L 309.381227 -343.639234 
L 308.170672 -346.504576 
L 306.968248 -349.369917 
L 305.776549 -352.235258 
L 304.593527 -355.1006 
L 303.425543 -357.965941 
L 302.301 -360.831283 
L 301.27344 -363.696624 
L 300.408227 -366.561966 
L 299.758308 -369.427307 
L 299.344126 -372.292648 
L 299.151363 -375.15799 
L 299.147242 -378.023331 
L 299.3027 -380.888673 
L 299.605662 -383.754014 
L 300.060406 -386.619356 
L 300.679026 -389.484697 
L 301.474 -392.350039 
L 302.455891 -395.21538 
L 303.633827 -398.080721 
L 305.014001 -400.946063 
L 306.593346 -403.811404 
L 308.349899 -406.676746 
L 310.235624 -409.542087 
L 312.178908 -412.407429 
L 314.10002 -415.27277 
L 315.934636 -418.138111 
L 317.653643 -421.003453 
L 319.268043 -423.868794 
L 320.816198 -426.734136 
L 322.340899 -429.599477 
L 323.868316 -432.464819 
L 325.397644 -435.33016 
L 326.902856 -438.195502 
L 328.342224 -441.060843 
L 329.670172 -443.926184 
L 330.848182 -446.791526 
L 331.853697 -449.656867 
L 332.686133 -452.522209 
L 333.368015 -455.38755 
L 333.939151 -458.252892 
L 334.443849 -461.118233 
L 334.9147 -463.983574 
L 335.359058 -466.848916 
L 335.754171 -469.714257 
L 336.054308 -472.579599 
L 336.209232 -475.44494 
L 336.189302 -478.310282 
L 336.008428 -481.175623 
L 335.733656 -484.040965 
L 335.472546 -486.906306 
L 335.338864 -489.771647 
L 335.41015 -492.636989 
L 335.698233 -495.50233 
L 336.148361 -498.367672 
L 336.666407 -501.233013 
L 337.157918 -504.098355 
L 337.558679 -506.963696 
L 337.845195 -509.829037 
L 338.596798 -509.829037 
L 338.596798 -509.829037 
L 338.883315 -506.963696 
L 339.284075 -504.098355 
L 339.775586 -501.233013 
L 340.293632 -498.367672 
L 340.74376 -495.50233 
L 341.031843 -492.636989 
L 341.103129 -489.771647 
L 340.969447 -486.906306 
L 340.708337 -484.040965 
L 340.433566 -481.175623 
L 340.252691 -478.310282 
L 340.232761 -475.44494 
L 340.387685 -472.579599 
L 340.687822 -469.714257 
L 341.082935 -466.848916 
L 341.527293 -463.983574 
L 341.998145 -461.118233 
L 342.502842 -458.252892 
L 343.073978 -455.38755 
L 343.75586 -452.522209 
L 344.588296 -449.656867 
L 345.593812 -446.791526 
L 346.771821 -443.926184 
L 348.099769 -441.060843 
L 349.539137 -438.195502 
L 351.044349 -435.33016 
L 352.573677 -432.464819 
L 354.101094 -429.599477 
L 355.625795 -426.734136 
L 357.17395 -423.868794 
L 358.78835 -421.003453 
L 360.507357 -418.138111 
L 362.341973 -415.27277 
L 364.263085 -412.407429 
L 366.206369 -409.542087 
L 368.092094 -406.676746 
L 369.848647 -403.811404 
L 371.427992 -400.946063 
L 372.808166 -398.080721 
L 373.986102 -395.21538 
L 374.967993 -392.350039 
L 375.762967 -389.484697 
L 376.381587 -386.619356 
L 376.836332 -383.754014 
L 377.139293 -380.888673 
L 377.294751 -378.023331 
L 377.29063 -375.15799 
L 377.097867 -372.292648 
L 376.683685 -369.427307 
L 376.033766 -366.561966 
L 375.168553 -363.696624 
L 374.140993 -360.831283 
L 373.01645 -357.965941 
L 371.848466 -355.1006 
L 370.665444 -352.235258 
L 369.473745 -349.369917 
L 368.271321 -346.504576 
L 367.060766 -343.639234 
L 365.85272 -340.773893 
L 364.65766 -337.908551 
L 363.472789 -335.04321 
L 362.276227 -332.177868 
L 361.037426 -329.312527 
L 359.740454 -326.447185 
L 358.404312 -323.581844 
L 357.083495 -320.716503 
L 355.845515 -317.851161 
L 354.739432 -314.98582 
L 353.775896 -312.120478 
L 352.92981 -309.255137 
L 352.160283 -306.389795 
L 351.432451 -303.524454 
L 350.72812 -300.659113 
L 350.042647 -297.793771 
L 349.374901 -294.92843 
L 348.719502 -292.063088 
L 348.066327 -289.197747 
L 347.406018 -286.332405 
L 346.736461 -283.467064 
L 346.065663 -280.601722 
L 345.410081 -277.736381 
L 344.791627 -274.87104 
L 344.238694 -272.005698 
L 343.79432 -269.140357 
L 343.527591 -266.275015 
L 343.53571 -263.409674 
L 343.920898 -260.544332 
L 344.736316 -257.678991 
L 345.918488 -254.81365 
L 347.24707 -251.948308 
L 348.374195 -249.082967 
L 348.932673 -246.217625 
L 348.68022 -243.352284 
L 347.603516 -240.486942 
L 345.922246 -237.621601 
L 343.992144 -234.75626 
L 342.164559 -231.890918 
L 340.676501 -229.025577 
L 339.613659 -226.160235 
z
" style="stroke: #3d3d3d; stroke-width: 1.875"/>
                </defs>
                <g clip-path="url(#p7b65fe49ca)">
                    <use xlink:href="#m8e7cd88c69" x="0" y="864"
                         style="fill: #3a923a; stroke: #3d3d3d; stroke-width: 1.875"/>
                </g>
            </g>
            <g id="FillBetweenPolyCollection_4">
                <defs>
                    <path id="m80cd0409e3" d="M 437.355829 -225.353795
L 434.454935 -225.353795 
L 433.395149 -228.235428 
L 431.921837 -231.117061 
L 430.106639 -233.998695 
L 428.157518 -236.880328 
L 426.393164 -239.761961 
L 425.154534 -242.643594 
L 424.682923 -245.525227 
L 425.022441 -248.40686 
L 425.999571 -251.288493 
L 427.292025 -254.170127 
L 428.550006 -257.05176 
L 429.508936 -259.933393 
L 430.046815 -262.815026 
L 430.17627 -265.696659 
L 429.993573 -268.578292 
L 429.617693 -271.459926 
L 429.144272 -274.341559 
L 428.624471 -277.223192 
L 428.06693 -280.104825 
L 427.454915 -282.986458 
L 426.768672 -285.868091 
L 426.003618 -288.749725 
L 425.17814 -291.631358 
L 424.329725 -294.512991 
L 423.502877 -297.394624 
L 422.734386 -300.276257 
L 422.040791 -303.15789 
L 421.411069 -306.039523 
L 420.806521 -308.921157 
L 420.169308 -311.80279 
L 419.439108 -314.684423 
L 418.573284 -317.566056 
L 417.562108 -320.447689 
L 416.430954 -323.329322 
L 415.227442 -326.210956 
L 413.999896 -329.092589 
L 412.778326 -331.974222 
L 411.566775 -334.855855 
L 410.348405 -337.737488 
L 409.097678 -340.619121 
L 407.791909 -343.500754 
L 406.417534 -346.382388 
L 404.971915 -349.264021 
L 403.465568 -352.145654 
L 401.929409 -355.027287 
L 400.42575 -357.90892 
L 399.053476 -360.790553 
L 397.934601 -363.672187 
L 397.177751 -366.55382 
L 396.831628 -369.435453 
L 396.855093 -372.317086 
L 397.126763 -375.198719 
L 397.49488 -378.080352 
L 397.842574 -380.961986 
L 398.133196 -383.843619 
L 398.412707 -386.725252 
L 398.772098 -389.606885 
L 399.295132 -392.488518 
L 400.021978 -395.370151 
L 400.946014 -398.251784 
L 402.038799 -401.133418 
L 403.281005 -404.015051 
L 404.675889 -406.896684 
L 406.236673 -409.778317 
L 407.959296 -412.65995 
L 409.802573 -415.541583 
L 411.691479 -418.423217 
L 413.541821 -421.30485 
L 415.289932 -424.186483 
L 416.909593 -427.068116 
L 418.409346 -429.949749 
L 419.816485 -432.831382 
L 421.1597 -435.713015 
L 422.458673 -438.594649 
L 423.721631 -441.476282 
L 424.947366 -444.357915 
L 426.128427 -447.239548 
L 427.254239 -450.121181 
L 428.313874 -453.002814 
L 429.297756 -455.884448 
L 430.197381 -458.766081 
L 431.00289 -461.647714 
L 431.69955 -464.529347 
L 432.264959 -467.41098 
L 432.669269 -470.292613 
L 432.881057 -473.174247 
L 432.880551 -476.05588 
L 432.678353 -478.937513 
L 432.331868 -481.819146 
L 431.947605 -484.700779 
L 431.660604 -487.582412 
L 431.593804 -490.464045 
L 431.814097 -493.345679 
L 432.307363 -496.227312 
L 432.986242 -499.108945 
L 433.72626 -501.990578 
L 434.410985 -504.872211 
L 434.964787 -507.753844 
L 435.362326 -510.635478 
L 436.448438 -510.635478 
L 436.448438 -510.635478 
L 436.845977 -507.753844 
L 437.399778 -504.872211 
L 438.084504 -501.990578 
L 438.824522 -499.108945 
L 439.5034 -496.227312 
L 439.996667 -493.345679 
L 440.216959 -490.464045 
L 440.15016 -487.582412 
L 439.863158 -484.700779 
L 439.478896 -481.819146 
L 439.132411 -478.937513 
L 438.930213 -476.05588 
L 438.929707 -473.174247 
L 439.141494 -470.292613 
L 439.545805 -467.41098 
L 440.111213 -464.529347 
L 440.807874 -461.647714 
L 441.613383 -458.766081 
L 442.513008 -455.884448 
L 443.49689 -453.002814 
L 444.556525 -450.121181 
L 445.682337 -447.239548 
L 446.863398 -444.357915 
L 448.089133 -441.476282 
L 449.352091 -438.594649 
L 450.651064 -435.713015 
L 451.994279 -432.831382 
L 453.401418 -429.949749 
L 454.901171 -427.068116 
L 456.520832 -424.186483 
L 458.268943 -421.30485 
L 460.119285 -418.423217 
L 462.00819 -415.541583 
L 463.851468 -412.65995 
L 465.574091 -409.778317 
L 467.134875 -406.896684 
L 468.529759 -404.015051 
L 469.771965 -401.133418 
L 470.86475 -398.251784 
L 471.788786 -395.370151 
L 472.515631 -392.488518 
L 473.038666 -389.606885 
L 473.398057 -386.725252 
L 473.677567 -383.843619 
L 473.96819 -380.961986 
L 474.315883 -378.080352 
L 474.684001 -375.198719 
L 474.955671 -372.317086 
L 474.979136 -369.435453 
L 474.633012 -366.55382 
L 473.876163 -363.672187 
L 472.757287 -360.790553 
L 471.385014 -357.90892 
L 469.881355 -355.027287 
L 468.345196 -352.145654 
L 466.838849 -349.264021 
L 465.39323 -346.382388 
L 464.018855 -343.500754 
L 462.713086 -340.619121 
L 461.462359 -337.737488 
L 460.243988 -334.855855 
L 459.032438 -331.974222 
L 457.810868 -329.092589 
L 456.583322 -326.210956 
L 455.37981 -323.329322 
L 454.248656 -320.447689 
L 453.23748 -317.566056 
L 452.371656 -314.684423 
L 451.641456 -311.80279 
L 451.004243 -308.921157 
L 450.399695 -306.039523 
L 449.769973 -303.15789 
L 449.076378 -300.276257 
L 448.307886 -297.394624 
L 447.481039 -294.512991 
L 446.632624 -291.631358 
L 445.807146 -288.749725 
L 445.042092 -285.868091 
L 444.355848 -282.986458 
L 443.743834 -280.104825 
L 443.186293 -277.223192 
L 442.666492 -274.341559 
L 442.19307 -271.459926 
L 441.817191 -268.578292 
L 441.634494 -265.696659 
L 441.763949 -262.815026 
L 442.301827 -259.933393 
L 443.260758 -257.05176 
L 444.518738 -254.170127 
L 445.811192 -251.288493 
L 446.788323 -248.40686 
L 447.12784 -245.525227 
L 446.656229 -242.643594 
L 445.4176 -239.761961 
L 443.653246 -236.880328 
L 441.704125 -233.998695 
L 439.888926 -231.117061 
L 438.415615 -228.235428 
L 437.355829 -225.353795 
z
" style="stroke: #3d3d3d; stroke-width: 1.875"/>
                </defs>
                <g clip-path="url(#p7b65fe49ca)">
                    <use xlink:href="#m80cd0409e3" x="0" y="864"
                         style="fill: #c03d3e; stroke: #3d3d3d; stroke-width: 1.875"/>
                </g>
            </g>
            <g id="FillBetweenPolyCollection_5">
                <defs>
                    <path id="m82bbf8630b" d="M 537.047696 -223.835302
L 530.131839 -223.835302 
L 527.777255 -226.747612 
L 524.529728 -229.659922 
L 520.487181 -232.572232 
L 515.993996 -235.484542 
L 511.619445 -238.396851 
L 508.033789 -241.309161 
L 505.81179 -244.221471 
L 505.241305 -247.133781 
L 506.225042 -250.04609 
L 508.32291 -252.9584 
L 510.912666 -255.87071 
L 513.390989 -258.78302 
L 515.32859 -261.69533 
L 516.530484 -264.607639 
L 517.006263 -267.519949 
L 516.89145 -270.432259 
L 516.365838 -273.344569 
L 515.596623 -276.256878 
L 514.711714 -279.169188 
L 513.794798 -282.081498 
L 512.89108 -284.993808 
L 512.016205 -287.906118 
L 511.165349 -290.818427 
L 510.321858 -293.730737 
L 509.464931 -296.643047 
L 508.574955 -299.555357 
L 507.635068 -302.467666 
L 506.629342 -305.379976 
L 505.540944 -308.292286 
L 504.354942 -311.204596 
L 503.067892 -314.116905 
L 501.700486 -317.029215 
L 500.304704 -319.941525 
L 498.95767 -322.853835 
L 497.741707 -325.766145 
L 496.719371 -328.678454 
L 495.916605 -331.590764 
L 495.323039 -334.503074 
L 494.908226 -337.415384 
L 494.643387 -340.327693 
L 494.516013 -343.240003 
L 494.530417 -346.152313 
L 494.696685 -349.064623 
L 495.017206 -351.976933 
L 495.480045 -354.889242 
L 496.062549 -357.801552 
L 496.740967 -360.713862 
L 497.497982 -363.626172 
L 498.32262 -366.538481 
L 499.203831 -369.450791 
L 500.124703 -372.363101 
L 501.063848 -375.275411 
L 502.004244 -378.187721 
L 502.942834 -381.10003 
L 503.892405 -384.01234 
L 504.872426 -386.92465 
L 505.893857 -389.83696 
L 506.948168 -392.749269 
L 508.009064 -395.661579 
L 509.047411 -398.573889 
L 510.050921 -401.486199 
L 511.03611 -404.398509 
L 512.044047 -407.310818 
L 513.121179 -410.223128 
L 514.295839 -413.135438 
L 515.563684 -416.047748 
L 516.889618 -418.960057 
L 518.223726 -421.872367 
L 519.521183 -424.784677 
L 520.755493 -427.696987 
L 521.920109 -430.609296 
L 523.020829 -433.521606 
L 524.065571 -436.433916 
L 525.057515 -439.346226 
L 525.993867 -442.258536 
L 526.868758 -445.170845 
L 527.67711 -448.083155 
L 528.416863 -450.995465 
L 529.088617 -453.907775 
L 529.693216 -456.820084 
L 530.228491 -459.732394 
L 530.686236 -462.644704 
L 531.050318 -465.557014 
L 531.297017 -468.469324 
L 531.399251 -471.381633 
L 531.336061 -474.293943 
L 531.106538 -477.206253 
L 530.743572 -480.118563 
L 530.319598 -483.030872 
L 529.937366 -485.943182 
L 529.704817 -488.855492 
L 529.702113 -491.767802 
L 529.954945 -494.680112 
L 530.426741 -497.592421 
L 531.033428 -500.504731 
L 531.673263 -503.417041 
L 532.257836 -506.329351 
L 532.73201 -509.24166 
L 533.078016 -512.15397 
L 534.101519 -512.15397 
L 534.101519 -512.15397 
L 534.447525 -509.24166 
L 534.921698 -506.329351 
L 535.506272 -503.417041 
L 536.146106 -500.504731 
L 536.752794 -497.592421 
L 537.22459 -494.680112 
L 537.477422 -491.767802 
L 537.474718 -488.855492 
L 537.242168 -485.943182 
L 536.859936 -483.030872 
L 536.435963 -480.118563 
L 536.072996 -477.206253 
L 535.843474 -474.293943 
L 535.780283 -471.381633 
L 535.882518 -468.469324 
L 536.129216 -465.557014 
L 536.493298 -462.644704 
L 536.951044 -459.732394 
L 537.486318 -456.820084 
L 538.090917 -453.907775 
L 538.762671 -450.995465 
L 539.502425 -448.083155 
L 540.310776 -445.170845 
L 541.185667 -442.258536 
L 542.12202 -439.346226 
L 543.113964 -436.433916 
L 544.158705 -433.521606 
L 545.259425 -430.609296 
L 546.424042 -427.696987 
L 547.658351 -424.784677 
L 548.955808 -421.872367 
L 550.289916 -418.960057 
L 551.61585 -416.047748 
L 552.883696 -413.135438 
L 554.058356 -410.223128 
L 555.135488 -407.310818 
L 556.143424 -404.398509 
L 557.128613 -401.486199 
L 558.132123 -398.573889 
L 559.17047 -395.661579 
L 560.231366 -392.749269 
L 561.285677 -389.83696 
L 562.307108 -386.92465 
L 563.28713 -384.01234 
L 564.2367 -381.10003 
L 565.17529 -378.187721 
L 566.115686 -375.275411 
L 567.054831 -372.363101 
L 567.975703 -369.450791 
L 568.856914 -366.538481 
L 569.681553 -363.626172 
L 570.438568 -360.713862 
L 571.116985 -357.801552 
L 571.69949 -354.889242 
L 572.162328 -351.976933 
L 572.482849 -349.064623 
L 572.649118 -346.152313 
L 572.663521 -343.240003 
L 572.536148 -340.327693 
L 572.271309 -337.415384 
L 571.856495 -334.503074 
L 571.262929 -331.590764 
L 570.460164 -328.678454 
L 569.437827 -325.766145 
L 568.221865 -322.853835 
L 566.87483 -319.941525 
L 565.479049 -317.029215 
L 564.111643 -314.116905 
L 562.824593 -311.204596 
L 561.638591 -308.292286 
L 560.550193 -305.379976 
L 559.544467 -302.467666 
L 558.604579 -299.555357 
L 557.714603 -296.643047 
L 556.857676 -293.730737 
L 556.014185 -290.818427 
L 555.163329 -287.906118 
L 554.288455 -284.993808 
L 553.384737 -282.081498 
L 552.46782 -279.169188 
L 551.582911 -276.256878 
L 550.813697 -273.344569 
L 550.288084 -270.432259 
L 550.173271 -267.519949 
L 550.64905 -264.607639 
L 551.850945 -261.69533 
L 553.788545 -258.78302 
L 556.266868 -255.87071 
L 558.856624 -252.9584 
L 560.954493 -250.04609 
L 561.93823 -247.133781 
L 561.367745 -244.221471 
L 559.145745 -241.309161 
L 555.560089 -238.396851 
L 551.185538 -235.484542 
L 546.692354 -232.572232 
L 542.649806 -229.659922 
L 539.40228 -226.747612 
L 537.047696 -223.835302 
z
" style="stroke: #3d3d3d; stroke-width: 1.875"/>
                </defs>
                <g clip-path="url(#p7b65fe49ca)">
                    <use xlink:href="#m82bbf8630b" x="0" y="864"
                         style="fill: #9372b2; stroke: #3d3d3d; stroke-width: 1.875"/>
                </g>
            </g>
            <g id="FillBetweenPolyCollection_6">
                <defs>
                    <path id="ma14457f736" d="M 631.979915 -227.848891
L 630.56839 -227.848891 
L 629.974286 -230.680118 
L 629.130761 -233.511345 
L 628.109144 -236.342572 
L 627.086737 -239.173799 
L 626.304814 -242.005027 
L 625.971619 -244.836254 
L 626.159519 -247.667481 
L 626.762052 -250.498708 
L 627.542038 -253.329935 
L 628.240703 -256.161162 
L 628.680773 -258.99239 
L 628.81058 -261.823617 
L 628.681878 -264.654844 
L 628.391853 -267.486071 
L 628.028038 -270.317298 
L 627.640035 -273.148526 
L 627.241163 -275.979753 
L 626.828263 -278.81098 
L 626.40266 -281.642207 
L 625.97926 -284.473434 
L 625.580639 -287.304662 
L 625.222843 -290.135889 
L 624.903859 -292.967116 
L 624.602378 -295.798343 
L 624.286477 -298.62957 
L 623.924913 -301.460797 
L 623.492901 -304.292025 
L 622.970478 -307.123252 
L 622.33954 -309.954479 
L 621.587601 -312.785706 
L 620.719438 -315.616933 
L 619.767812 -318.448161 
L 618.790922 -321.279388 
L 617.851626 -324.110615 
L 616.987168 -326.941842 
L 616.188096 -329.773069 
L 615.401945 -332.604297 
L 614.56134 -335.435524 
L 613.619054 -338.266751 
L 612.568098 -341.097978 
L 611.435547 -343.929205 
L 610.254423 -346.760432 
L 609.028667 -349.59166 
L 607.711421 -352.422887 
L 606.216956 -355.254114 
L 604.473688 -358.085341 
L 602.495191 -360.916568 
L 600.417196 -363.747796 
L 598.457438 -366.579023 
L 596.811412 -369.41025 
L 595.555682 -372.241477 
L 594.630466 -375.072704 
L 593.908582 -377.903931 
L 593.290614 -380.735159 
L 592.758563 -383.566386 
L 592.367356 -386.397613 
L 592.200398 -389.22884 
L 592.324419 -392.060067 
L 592.761987 -394.891295 
L 593.485567 -397.722522 
L 594.431962 -400.553749 
L 595.530238 -403.384976 
L 596.728182 -406.216203 
L 598.002831 -409.047431 
L 599.353989 -411.878658 
L 600.793192 -414.709885 
L 602.33961 -417.541112 
L 604.021076 -420.372339 
L 605.868996 -423.203566 
L 607.901122 -426.034794 
L 610.100009 -428.866021 
L 612.40288 -431.697248 
L 614.712685 -434.528475 
L 616.925609 -437.359702 
L 618.959434 -440.19093 
L 620.768376 -443.022157 
L 622.34103 -445.853384 
L 623.688869 -448.684611 
L 624.835184 -451.515838 
L 625.809073 -454.347065 
L 626.642573 -457.178293 
L 627.367004 -460.00952 
L 628.007034 -462.840747 
L 628.574135 -465.671974 
L 629.062026 -468.503201 
L 629.446113 -471.334429 
L 629.688964 -474.165656 
L 629.754477 -476.996883 
L 629.63089 -479.82811 
L 629.354888 -482.659337 
L 629.020523 -485.490565 
L 628.758266 -488.321792 
L 628.686368 -491.153019 
L 628.859058 -493.984246 
L 629.243655 -496.815473 
L 629.741348 -499.6467 
L 630.236856 -502.477928 
L 630.645342 -505.309155 
L 630.932825 -508.140382 
L 631.615481 -508.140382 
L 631.615481 -508.140382 
L 631.902963 -505.309155 
L 632.311449 -502.477928 
L 632.806957 -499.6467 
L 633.30465 -496.815473 
L 633.689247 -493.984246 
L 633.861937 -491.153019 
L 633.79004 -488.321792 
L 633.527782 -485.490565 
L 633.193417 -482.659337 
L 632.917415 -479.82811 
L 632.793828 -476.996883 
L 632.859341 -474.165656 
L 633.102193 -471.334429 
L 633.486279 -468.503201 
L 633.97417 -465.671974 
L 634.541271 -462.840747 
L 635.181302 -460.00952 
L 635.905732 -457.178293 
L 636.739232 -454.347065 
L 637.713121 -451.515838 
L 638.859436 -448.684611 
L 640.207275 -445.853384 
L 641.77993 -443.022157 
L 643.588871 -440.19093 
L 645.622696 -437.359702 
L 647.83562 -434.528475 
L 650.145425 -431.697248 
L 652.448296 -428.866021 
L 654.647183 -426.034794 
L 656.679309 -423.203566 
L 658.52723 -420.372339 
L 660.208695 -417.541112 
L 661.755113 -414.709885 
L 663.194316 -411.878658 
L 664.545474 -409.047431 
L 665.820123 -406.216203 
L 667.018067 -403.384976 
L 668.116343 -400.553749 
L 669.062738 -397.722522 
L 669.786318 -394.891295 
L 670.223886 -392.060067 
L 670.347907 -389.22884 
L 670.180949 -386.397613 
L 669.789742 -383.566386 
L 669.257691 -380.735159 
L 668.639723 -377.903931 
L 667.917839 -375.072704 
L 666.992624 -372.241477 
L 665.736893 -369.41025 
L 664.090867 -366.579023 
L 662.13111 -363.747796 
L 660.053114 -360.916568 
L 658.074617 -358.085341 
L 656.331349 -355.254114 
L 654.836884 -352.422887 
L 653.519638 -349.59166 
L 652.293882 -346.760432 
L 651.112758 -343.929205 
L 649.980207 -341.097978 
L 648.929251 -338.266751 
L 647.986966 -335.435524 
L 647.14636 -332.604297 
L 646.36021 -329.773069 
L 645.561137 -326.941842 
L 644.696679 -324.110615 
L 643.757383 -321.279388 
L 642.780493 -318.448161 
L 641.828867 -315.616933 
L 640.960704 -312.785706 
L 640.208765 -309.954479 
L 639.577827 -307.123252 
L 639.055405 -304.292025 
L 638.623392 -301.460797 
L 638.261828 -298.62957 
L 637.945927 -295.798343 
L 637.644446 -292.967116 
L 637.325462 -290.135889 
L 636.967666 -287.304662 
L 636.569045 -284.473434 
L 636.145645 -281.642207 
L 635.720042 -278.81098 
L 635.307142 -275.979753 
L 634.90827 -273.148526 
L 634.520267 -270.317298 
L 634.156452 -267.486071 
L 633.866427 -264.654844 
L 633.737726 -261.823617 
L 633.867532 -258.99239 
L 634.307602 -256.161162 
L 635.006267 -253.329935 
L 635.786254 -250.498708 
L 636.388786 -247.667481 
L 636.576686 -244.836254 
L 636.243491 -242.005027 
L 635.461569 -239.173799 
L 634.439162 -236.342572 
L 633.417544 -233.511345 
L 632.574019 -230.680118 
L 631.979915 -227.848891 
z
" style="stroke: #3d3d3d; stroke-width: 1.875"/>
                </defs>
                <g clip-path="url(#p7b65fe49ca)">
                    <use xlink:href="#ma14457f736" x="0" y="864"
                         style="fill: #845b53; stroke: #3d3d3d; stroke-width: 1.875"/>
                </g>
            </g>
            <g id="line2d_6">
                <path d="M 142.852226 562.705661
L 142.852226 372.866353 
" clip-path="url(#p7b65fe49ca)" style="fill: none; stroke: #3d3d3d; stroke-width: 2.8125; stroke-linecap: round"/>
            </g>
            <g id="line2d_7">
                <path d="M 142.852226 491.269248
L 142.852226 443.231502 
" clip-path="url(#p7b65fe49ca)" style="fill: none; stroke: #3d3d3d; stroke-width: 8.4375; stroke-linecap: round"/>
            </g>
            <g id="line2d_8">
                <path d="M 142.852226 464.504687
" clip-path="url(#p7b65fe49ca)" style="fill: none; stroke: #3d3d3d; stroke-width: 2.25; stroke-linecap: round"/>
                <defs>
                    <path id="m4c304a201a" d="M 3.515625 0
L -3.515625 -0 
" style="stroke: #ffffff; stroke-width: 1.6875"/>
                </defs>
                <g clip-path="url(#p7b65fe49ca)">
                    <use xlink:href="#m4c304a201a" x="142.852226" y="464.504687"
                         style="fill: #ffffff; stroke: #ffffff; stroke-width: 1.6875"/>
                </g>
            </g>
            <g id="line2d_9">
                <path d="M 240.536611 619.144374
L 240.536611 372.866353 
" clip-path="url(#p7b65fe49ca)" style="fill: none; stroke: #3d3d3d; stroke-width: 2.8125; stroke-linecap: round"/>
            </g>
            <g id="line2d_10">
                <path d="M 240.536611 540.664096
L 240.536611 467.588669 
" clip-path="url(#p7b65fe49ca)" style="fill: none; stroke: #3d3d3d; stroke-width: 8.4375; stroke-linecap: round"/>
            </g>
            <g id="line2d_11">
                <path d="M 240.536611 500.930924
" clip-path="url(#p7b65fe49ca)" style="fill: none; stroke: #3d3d3d; stroke-width: 2.25; stroke-linecap: round"/>
                <g clip-path="url(#p7b65fe49ca)">
                    <use xlink:href="#m4c304a201a" x="240.536611" y="500.930924"
                         style="fill: #ffffff; stroke: #ffffff; stroke-width: 1.6875"/>
                </g>
            </g>
            <g id="line2d_12">
                <path d="M 338.220997 619.144374
L 338.220997 372.866353 
" clip-path="url(#p7b65fe49ca)" style="fill: none; stroke: #3d3d3d; stroke-width: 2.8125; stroke-linecap: round"/>
            </g>
            <g id="line2d_13">
                <path d="M 338.220997 531.187938
L 338.220997 465.220611 
" clip-path="url(#p7b65fe49ca)" style="fill: none; stroke: #3d3d3d; stroke-width: 8.4375; stroke-linecap: round"/>
            </g>
            <g id="line2d_14">
                <path d="M 338.220997 496.005364
" clip-path="url(#p7b65fe49ca)" style="fill: none; stroke: #3d3d3d; stroke-width: 2.25; stroke-linecap: round"/>
                <g clip-path="url(#p7b65fe49ca)">
                    <use xlink:href="#m4c304a201a" x="338.220997" y="496.005364"
                         style="fill: #ffffff; stroke: #ffffff; stroke-width: 1.6875"/>
                </g>
            </g>
            <g id="line2d_15">
                <path d="M 435.905382 619.144374
L 435.905382 372.866353 
" clip-path="url(#p7b65fe49ca)" style="fill: none; stroke: #3d3d3d; stroke-width: 2.8125; stroke-linecap: round"/>
            </g>
            <g id="line2d_16">
                <path d="M 435.905382 529.58873
L 435.905382 462.259759 
" clip-path="url(#p7b65fe49ca)" style="fill: none; stroke: #3d3d3d; stroke-width: 8.4375; stroke-linecap: round"/>
            </g>
            <g id="line2d_17">
                <path d="M 435.905382 496.005364
" clip-path="url(#p7b65fe49ca)" style="fill: none; stroke: #3d3d3d; stroke-width: 2.25; stroke-linecap: round"/>
                <g clip-path="url(#p7b65fe49ca)">
                    <use xlink:href="#m4c304a201a" x="435.905382" y="496.005364"
                         style="fill: #ffffff; stroke: #ffffff; stroke-width: 1.6875"/>
                </g>
            </g>
            <g id="line2d_18">
                <path d="M 533.589767 619.144374
L 533.589767 372.866353 
" clip-path="url(#p7b65fe49ca)" style="fill: none; stroke: #3d3d3d; stroke-width: 2.8125; stroke-linecap: round"/>
            </g>
            <g id="line2d_19">
                <path d="M 533.589767 567.29637
L 533.589767 483.691463 
" clip-path="url(#p7b65fe49ca)" style="fill: none; stroke: #3d3d3d; stroke-width: 8.4375; stroke-linecap: round"/>
            </g>
            <g id="line2d_20">
                <path d="M 533.589767 522.774714
" clip-path="url(#p7b65fe49ca)" style="fill: none; stroke: #3d3d3d; stroke-width: 2.25; stroke-linecap: round"/>
                <g clip-path="url(#p7b65fe49ca)">
                    <use xlink:href="#m4c304a201a" x="533.589767" y="522.774714"
                         style="fill: #ffffff; stroke: #ffffff; stroke-width: 1.6875"/>
                </g>
            </g>
            <g id="line2d_21">
                <path d="M 631.274153 601.553087
L 631.274153 372.866353 
" clip-path="url(#p7b65fe49ca)" style="fill: none; stroke: #3d3d3d; stroke-width: 2.8125; stroke-linecap: round"/>
            </g>
            <g id="line2d_22">
                <path d="M 631.274153 513.596651
L 631.274153 454.959027 
" clip-path="url(#p7b65fe49ca)" style="fill: none; stroke: #3d3d3d; stroke-width: 8.4375; stroke-linecap: round"/>
            </g>
            <g id="line2d_23">
                <path d="M 631.274153 482.323251
" clip-path="url(#p7b65fe49ca)" style="fill: none; stroke: #3d3d3d; stroke-width: 2.25; stroke-linecap: round"/>
                <g clip-path="url(#p7b65fe49ca)">
                    <use xlink:href="#m4c304a201a" x="631.274153" y="482.323251"
                         style="fill: #ffffff; stroke: #ffffff; stroke-width: 1.6875"/>
                </g>
            </g>
            <g id="line2d_24">
                <path d="M 142.852226 353.837321
L 142.852226 347.49431 
L 240.536611 347.49431 
L 240.536611 353.837321 
" style="fill: none; stroke: #333333; stroke-width: 1.5; stroke-linecap: round"/>
            </g>
            <g id="line2d_25">
                <path d="M 240.536611 330.751996
L 240.536611 324.408986 
L 338.220997 324.408986 
L 338.220997 330.751996 
" style="fill: none; stroke: #333333; stroke-width: 1.5; stroke-linecap: round"/>
            </g>
            <g id="line2d_26">
                <path d="M 338.220997 307.666671
L 338.220997 301.323661 
L 435.905382 301.323661 
L 435.905382 307.666671 
" style="fill: none; stroke: #333333; stroke-width: 1.5; stroke-linecap: round"/>
            </g>
            <g id="line2d_27">
                <path d="M 435.905382 284.581347
L 435.905382 278.238336 
L 533.589767 278.238336 
L 533.589767 284.581347 
" style="fill: none; stroke: #333333; stroke-width: 1.5; stroke-linecap: round"/>
            </g>
            <g id="line2d_28">
                <path d="M 533.589767 261.496022
L 533.589767 255.153011 
L 631.274153 255.153011 
L 631.274153 261.496022 
" style="fill: none; stroke: #333333; stroke-width: 1.5; stroke-linecap: round"/>
            </g>
            <g id="line2d_29">
                <path d="M 142.852226 284.581347
L 142.852226 278.238336 
L 338.220997 278.238336 
L 338.220997 284.581347 
" style="fill: none; stroke: #333333; stroke-width: 1.5; stroke-linecap: round"/>
            </g>
            <g id="line2d_30">
                <path d="M 240.536611 261.496022
L 240.536611 255.153011 
L 435.905382 255.153011 
L 435.905382 261.496022 
" style="fill: none; stroke: #333333; stroke-width: 1.5; stroke-linecap: round"/>
            </g>
            <g id="line2d_31">
                <path d="M 338.220997 238.410697
L 338.220997 232.067686 
L 533.589767 232.067686 
L 533.589767 238.410697 
" style="fill: none; stroke: #333333; stroke-width: 1.5; stroke-linecap: round"/>
            </g>
            <g id="line2d_32">
                <path d="M 435.905382 215.325372
L 435.905382 208.982361 
L 631.274153 208.982361 
L 631.274153 215.325372 
" style="fill: none; stroke: #333333; stroke-width: 1.5; stroke-linecap: round"/>
            </g>
            <g id="line2d_33">
                <path d="M 142.852226 192.240047
L 142.852226 185.897036 
L 435.905382 185.897036 
L 435.905382 192.240047 
" style="fill: none; stroke: #333333; stroke-width: 1.5; stroke-linecap: round"/>
            </g>
            <g id="line2d_34">
                <path d="M 240.536611 169.154722
L 240.536611 162.811712 
L 533.589767 162.811712 
L 533.589767 169.154722 
" style="fill: none; stroke: #333333; stroke-width: 1.5; stroke-linecap: round"/>
            </g>
            <g id="line2d_35">
                <path d="M 338.220997 146.069397
L 338.220997 139.726387 
L 631.274153 139.726387 
L 631.274153 146.069397 
" style="fill: none; stroke: #333333; stroke-width: 1.5; stroke-linecap: round"/>
            </g>
            <g id="line2d_36">
                <path d="M 142.852226 122.984073
L 142.852226 116.641062 
L 533.589767 116.641062 
L 533.589767 122.984073 
" style="fill: none; stroke: #333333; stroke-width: 1.5; stroke-linecap: round"/>
            </g>
            <g id="line2d_37">
                <path d="M 240.536611 99.898748
L 240.536611 93.555737 
L 631.274153 93.555737 
L 631.274153 99.898748 
" style="fill: none; stroke: #333333; stroke-width: 1.5; stroke-linecap: round"/>
            </g>
            <g id="line2d_38">
                <path d="M 142.852226 76.813423
L 142.852226 70.470412 
L 631.274153 70.470412 
L 631.274153 76.813423 
" style="fill: none; stroke: #333333; stroke-width: 1.5; stroke-linecap: round"/>
            </g>
            <g id="patch_3">
                <path d="M 75.45 654.580631
L 75.45 38.4 
" style="fill: none; stroke: #cccccc; stroke-width: 1.875; stroke-linejoin: miter; stroke-linecap: square"/>
            </g>
            <g id="patch_4">
                <path d="M 698.676378 654.580631
L 698.676378 38.4 
" style="fill: none; stroke: #cccccc; stroke-width: 1.875; stroke-linejoin: miter; stroke-linecap: square"/>
            </g>
            <g id="patch_5">
                <path d="M 75.45 654.580631
L 698.676378 654.580631 
" style="fill: none; stroke: #cccccc; stroke-width: 1.875; stroke-linejoin: miter; stroke-linecap: square"/>
            </g>
            <g id="patch_6">
                <path d="M 75.45 38.4
L 698.676378 38.4 
" style="fill: none; stroke: #cccccc; stroke-width: 1.875; stroke-linejoin: miter; stroke-linecap: square"/>
            </g>
            <g id="text_14">
                <!-- **** -->
                <g style="fill: #262626" transform="translate(177.682544 342.91681) scale(0.18 -0.18)">
                    <defs>
                        <path id="ArialMT-2a" d="M 200 3741
L 344 4184 
Q 841 4009 1066 3881 
Q 1006 4447 1003 4659 
L 1456 4659 
Q 1447 4350 1384 3884 
Q 1706 4047 2122 4184 
L 2266 3741 
Q 1869 3609 1488 3566 
Q 1678 3400 2025 2975 
L 1650 2709 
Q 1469 2956 1222 3381 
Q 991 2941 816 2709 
L 447 2975 
Q 809 3422 966 3566 
Q 563 3644 200 3741 
z
" transform="scale(0.015625)"/>
                    </defs>
                    <use xlink:href="#ArialMT-2a"/>
                    <use xlink:href="#ArialMT-2a" transform="translate(38.916016 0)"/>
                    <use xlink:href="#ArialMT-2a" transform="translate(77.832031 0)"/>
                    <use xlink:href="#ArialMT-2a" transform="translate(116.748047 0)"/>
                </g>
            </g>
            <g id="text_15">
                <!-- **** -->
                <g style="fill: #262626" transform="translate(275.366929 319.831486) scale(0.18 -0.18)">
                    <use xlink:href="#ArialMT-2a"/>
                    <use xlink:href="#ArialMT-2a" transform="translate(38.916016 0)"/>
                    <use xlink:href="#ArialMT-2a" transform="translate(77.832031 0)"/>
                    <use xlink:href="#ArialMT-2a" transform="translate(116.748047 0)"/>
                </g>
            </g>
            <g id="text_16">
                <!-- * -->
                <g style="fill: #262626" transform="translate(383.56022 296.746161) scale(0.18 -0.18)">
                    <use xlink:href="#ArialMT-2a"/>
                </g>
            </g>
            <g id="text_17">
                <!-- **** -->
                <g style="fill: #262626" transform="translate(470.7357 273.660836) scale(0.18 -0.18)">
                    <use xlink:href="#ArialMT-2a"/>
                    <use xlink:href="#ArialMT-2a" transform="translate(38.916016 0)"/>
                    <use xlink:href="#ArialMT-2a" transform="translate(77.832031 0)"/>
                    <use xlink:href="#ArialMT-2a" transform="translate(116.748047 0)"/>
                </g>
            </g>
            <g id="text_18">
                <!-- **** -->
                <g style="fill: #262626" transform="translate(568.420085 250.575511) scale(0.18 -0.18)">
                    <use xlink:href="#ArialMT-2a"/>
                    <use xlink:href="#ArialMT-2a" transform="translate(38.916016 0)"/>
                    <use xlink:href="#ArialMT-2a" transform="translate(77.832031 0)"/>
                    <use xlink:href="#ArialMT-2a" transform="translate(116.748047 0)"/>
                </g>
            </g>
            <g id="text_19">
                <!-- **** -->
                <g style="fill: #262626" transform="translate(226.524736 273.660836) scale(0.18 -0.18)">
                    <use xlink:href="#ArialMT-2a"/>
                    <use xlink:href="#ArialMT-2a" transform="translate(38.916016 0)"/>
                    <use xlink:href="#ArialMT-2a" transform="translate(77.832031 0)"/>
                    <use xlink:href="#ArialMT-2a" transform="translate(116.748047 0)"/>
                </g>
            </g>
            <g id="text_20">
                <!-- **** -->
                <g style="fill: #262626" transform="translate(324.209122 250.575511) scale(0.18 -0.18)">
                    <use xlink:href="#ArialMT-2a"/>
                    <use xlink:href="#ArialMT-2a" transform="translate(38.916016 0)"/>
                    <use xlink:href="#ArialMT-2a" transform="translate(77.832031 0)"/>
                    <use xlink:href="#ArialMT-2a" transform="translate(116.748047 0)"/>
                </g>
            </g>
            <g id="text_21">
                <!-- **** -->
                <g style="fill: #262626" transform="translate(421.893507 227.490186) scale(0.18 -0.18)">
                    <use xlink:href="#ArialMT-2a"/>
                    <use xlink:href="#ArialMT-2a" transform="translate(38.916016 0)"/>
                    <use xlink:href="#ArialMT-2a" transform="translate(77.832031 0)"/>
                    <use xlink:href="#ArialMT-2a" transform="translate(116.748047 0)"/>
                </g>
            </g>
            <g id="text_22">
                <!-- **** -->
                <g style="fill: #262626" transform="translate(519.577892 204.404861) scale(0.18 -0.18)">
                    <use xlink:href="#ArialMT-2a"/>
                    <use xlink:href="#ArialMT-2a" transform="translate(38.916016 0)"/>
                    <use xlink:href="#ArialMT-2a" transform="translate(77.832031 0)"/>
                    <use xlink:href="#ArialMT-2a" transform="translate(116.748047 0)"/>
                </g>
            </g>
            <g id="text_23">
                <!-- **** -->
                <g style="fill: #262626" transform="translate(275.366929 181.319536) scale(0.18 -0.18)">
                    <use xlink:href="#ArialMT-2a"/>
                    <use xlink:href="#ArialMT-2a" transform="translate(38.916016 0)"/>
                    <use xlink:href="#ArialMT-2a" transform="translate(77.832031 0)"/>
                    <use xlink:href="#ArialMT-2a" transform="translate(116.748047 0)"/>
                </g>
            </g>
            <g id="text_24">
                <!-- **** -->
                <g style="fill: #262626" transform="translate(373.051314 158.234212) scale(0.18 -0.18)">
                    <use xlink:href="#ArialMT-2a"/>
                    <use xlink:href="#ArialMT-2a" transform="translate(38.916016 0)"/>
                    <use xlink:href="#ArialMT-2a" transform="translate(77.832031 0)"/>
                    <use xlink:href="#ArialMT-2a" transform="translate(116.748047 0)"/>
                </g>
            </g>
            <g id="text_25">
                <!-- **** -->
                <g style="fill: #262626" transform="translate(470.7357 135.148887) scale(0.18 -0.18)">
                    <use xlink:href="#ArialMT-2a"/>
                    <use xlink:href="#ArialMT-2a" transform="translate(38.916016 0)"/>
                    <use xlink:href="#ArialMT-2a" transform="translate(77.832031 0)"/>
                    <use xlink:href="#ArialMT-2a" transform="translate(116.748047 0)"/>
                </g>
            </g>
            <g id="text_26">
                <!-- **** -->
                <g style="fill: #262626" transform="translate(324.209122 112.063562) scale(0.18 -0.18)">
                    <use xlink:href="#ArialMT-2a"/>
                    <use xlink:href="#ArialMT-2a" transform="translate(38.916016 0)"/>
                    <use xlink:href="#ArialMT-2a" transform="translate(77.832031 0)"/>
                    <use xlink:href="#ArialMT-2a" transform="translate(116.748047 0)"/>
                </g>
            </g>
            <g id="text_27">
                <!-- **** -->
                <g style="fill: #262626" transform="translate(421.893507 88.978237) scale(0.18 -0.18)">
                    <use xlink:href="#ArialMT-2a"/>
                    <use xlink:href="#ArialMT-2a" transform="translate(38.916016 0)"/>
                    <use xlink:href="#ArialMT-2a" transform="translate(77.832031 0)"/>
                    <use xlink:href="#ArialMT-2a" transform="translate(116.748047 0)"/>
                </g>
            </g>
            <g id="text_28">
                <!-- **** -->
                <g style="fill: #262626" transform="translate(373.051314 65.892912) scale(0.18 -0.18)">
                    <use xlink:href="#ArialMT-2a"/>
                    <use xlink:href="#ArialMT-2a" transform="translate(38.916016 0)"/>
                    <use xlink:href="#ArialMT-2a" transform="translate(77.832031 0)"/>
                    <use xlink:href="#ArialMT-2a" transform="translate(116.748047 0)"/>
                </g>
            </g>
            <g id="text_29">
                <!-- Ranked Discovery Yield per Fold per Target -->
                <g style="fill: #262626" transform="translate(213.650064 32.4) scale(0.18 -0.18)">
                    <defs>
                        <path id="ArialMT-6b" d="M 425 0
L 425 4581 
L 988 4581 
L 988 1969 
L 2319 3319 
L 3047 3319 
L 1778 2088 
L 3175 0 
L 2481 0 
L 1384 1697 
L 988 1316 
L 988 0 
L 425 0 
z
" transform="scale(0.015625)"/>
                        <path id="ArialMT-20" transform="scale(0.015625)"/>
                        <path id="ArialMT-59" d="M 1784 0
L 1784 1941 
L 19 4581 
L 756 4581 
L 1659 3200 
Q 1909 2813 2125 2425 
Q 2331 2784 2625 3234 
L 3513 4581 
L 4219 4581 
L 2391 1941 
L 2391 0 
L 1784 0 
z
" transform="scale(0.015625)"/>
                        <path id="ArialMT-54" d="M 1659 0
L 1659 4041 
L 150 4041 
L 150 4581 
L 3781 4581 
L 3781 4041 
L 2266 4041 
L 2266 0 
L 1659 0 
z
" transform="scale(0.015625)"/>
                    </defs>
                    <use xlink:href="#ArialMT-52"/>
                    <use xlink:href="#ArialMT-61" transform="translate(72.216797 0)"/>
                    <use xlink:href="#ArialMT-6e" transform="translate(127.832031 0)"/>
                    <use xlink:href="#ArialMT-6b" transform="translate(183.447266 0)"/>
                    <use xlink:href="#ArialMT-65" transform="translate(233.447266 0)"/>
                    <use xlink:href="#ArialMT-64" transform="translate(289.0625 0)"/>
                    <use xlink:href="#ArialMT-20" transform="translate(344.677734 0)"/>
                    <use xlink:href="#ArialMT-44" transform="translate(372.460938 0)"/>
                    <use xlink:href="#ArialMT-69" transform="translate(444.677734 0)"/>
                    <use xlink:href="#ArialMT-73" transform="translate(466.894531 0)"/>
                    <use xlink:href="#ArialMT-63" transform="translate(516.894531 0)"/>
                    <use xlink:href="#ArialMT-6f" transform="translate(566.894531 0)"/>
                    <use xlink:href="#ArialMT-76" transform="translate(622.509766 0)"/>
                    <use xlink:href="#ArialMT-65" transform="translate(672.509766 0)"/>
                    <use xlink:href="#ArialMT-72" transform="translate(728.125 0)"/>
                    <use xlink:href="#ArialMT-79" transform="translate(761.425781 0)"/>
                    <use xlink:href="#ArialMT-20" transform="translate(811.425781 0)"/>
                    <use xlink:href="#ArialMT-59" transform="translate(837.458984 0)"/>
                    <use xlink:href="#ArialMT-69" transform="translate(900.408203 0)"/>
                    <use xlink:href="#ArialMT-65" transform="translate(922.625 0)"/>
                    <use xlink:href="#ArialMT-6c" transform="translate(978.240234 0)"/>
                    <use xlink:href="#ArialMT-64" transform="translate(1000.457031 0)"/>
                    <use xlink:href="#ArialMT-20" transform="translate(1056.072266 0)"/>
                    <use xlink:href="#ArialMT-70" transform="translate(1083.855469 0)"/>
                    <use xlink:href="#ArialMT-65" transform="translate(1139.470703 0)"/>
                    <use xlink:href="#ArialMT-72" transform="translate(1195.085938 0)"/>
                    <use xlink:href="#ArialMT-20" transform="translate(1228.386719 0)"/>
                    <use xlink:href="#ArialMT-46" transform="translate(1256.169922 0)"/>
                    <use xlink:href="#ArialMT-6f" transform="translate(1317.253906 0)"/>
                    <use xlink:href="#ArialMT-6c" transform="translate(1372.869141 0)"/>
                    <use xlink:href="#ArialMT-64" transform="translate(1395.085938 0)"/>
                    <use xlink:href="#ArialMT-20" transform="translate(1450.701172 0)"/>
                    <use xlink:href="#ArialMT-70" transform="translate(1478.484375 0)"/>
                    <use xlink:href="#ArialMT-65" transform="translate(1534.099609 0)"/>
                    <use xlink:href="#ArialMT-72" transform="translate(1589.714844 0)"/>
                    <use xlink:href="#ArialMT-20" transform="translate(1623.015625 0)"/>
                    <use xlink:href="#ArialMT-54" transform="translate(1649.048828 0)"/>
                    <use xlink:href="#ArialMT-61" transform="translate(1699.007812 0)"/>
                    <use xlink:href="#ArialMT-72" transform="translate(1754.623047 0)"/>
                    <use xlink:href="#ArialMT-67" transform="translate(1787.923828 0)"/>
                    <use xlink:href="#ArialMT-65" transform="translate(1843.539062 0)"/>
                    <use xlink:href="#ArialMT-74" transform="translate(1899.154297 0)"/>
                </g>
            </g>
        </g>
    </g>
    <defs>
        <clipPath id="p7b65fe49ca">
            <rect x="75.45" y="38.4" width="623.226378" height="616.180631"/>
        </clipPath>
    </defs>
</svg>
