<?xml version="1.0" encoding="utf-8" standalone="no"?>
<!DOCTYPE svg PUBLIC "-//W3C//DTD SVG 1.1//EN"
  "http://www.w3.org/Graphics/SVG/1.1/DTD/svg11.dtd">
<svg xmlns:xlink="http://www.w3.org/1999/xlink" width="720pt" height="864pt" viewBox="0 0 720 864" xmlns="http://www.w3.org/2000/svg" version="1.1">
 <metadata>
  <rdf:RDF xmlns:dc="http://purl.org/dc/elements/1.1/" xmlns:cc="http://creativecommons.org/ns#" xmlns:rdf="http://www.w3.org/1999/02/22-rdf-syntax-ns#">
   <cc:Work>
    <dc:type rdf:resource="http://purl.org/dc/dcmitype/StillImage"/>
    <dc:date>2025-02-25T23:42:54.052392</dc:date>
    <dc:format>image/svg+xml</dc:format>
    <dc:creator>
     <cc:Agent>
      <dc:title>Matplotlib v3.10.0, https://matplotlib.org/</dc:title>
     </cc:Agent>
    </dc:creator>
   </cc:Work>
  </rdf:RDF>
 </metadata>
 <defs>
  <style type="text/css">*{stroke-linejoin: round; stroke-linecap: butt}</style>
 </defs>
 <g id="figure_1">
  <g id="patch_1">
   <path d="M 0 864 
L 720 864 
L 720 0 
L 0 0 
z
" style="fill: #ffffff"/>
  </g>
  <g id="axes_1">
   <g id="patch_2">
    <path d="M 69.846 645.866348 
L 692.917651 645.866348 
L 692.917651 40.416 
L 69.846 40.416 
z
" style="fill: #ffffff"/>
   </g>
   <g id="matplotlib.axis_1">
    <g id="xtick_1">
     <g id="text_1">
      <!-- RandomSplit -->
      <g style="fill: #262626" transform="translate(104.901509 734.472111) rotate(-45) scale(0.176 -0.176)">
       <defs>
        <path id="ArialMT-52" d="M 503 0 
L 503 4581 
L 2534 4581 
Q 3147 4581 3465 4457 
Q 3784 4334 3975 4021 
Q 4166 3709 4166 3331 
Q 4166 2844 3850 2509 
Q 3534 2175 2875 2084 
Q 3116 1969 3241 1856 
Q 3506 1613 3744 1247 
L 4541 0 
L 3778 0 
L 3172 953 
Q 2906 1366 2734 1584 
Q 2563 1803 2427 1890 
Q 2291 1978 2150 2013 
Q 2047 2034 1813 2034 
L 1109 2034 
L 1109 0 
L 503 0 
z
M 1109 2559 
L 2413 2559 
Q 2828 2559 3062 2645 
Q 3297 2731 3419 2920 
Q 3541 3109 3541 3331 
Q 3541 3656 3305 3865 
Q 3069 4075 2559 4075 
L 1109 4075 
L 1109 2559 
z
" transform="scale(0.015625)"/>
        <path id="ArialMT-61" d="M 2588 409 
Q 2275 144 1986 34 
Q 1697 -75 1366 -75 
Q 819 -75 525 192 
Q 231 459 231 875 
Q 231 1119 342 1320 
Q 453 1522 633 1644 
Q 813 1766 1038 1828 
Q 1203 1872 1538 1913 
Q 2219 1994 2541 2106 
Q 2544 2222 2544 2253 
Q 2544 2597 2384 2738 
Q 2169 2928 1744 2928 
Q 1347 2928 1158 2789 
Q 969 2650 878 2297 
L 328 2372 
Q 403 2725 575 2942 
Q 747 3159 1072 3276 
Q 1397 3394 1825 3394 
Q 2250 3394 2515 3294 
Q 2781 3194 2906 3042 
Q 3031 2891 3081 2659 
Q 3109 2516 3109 2141 
L 3109 1391 
Q 3109 606 3145 398 
Q 3181 191 3288 0 
L 2700 0 
Q 2613 175 2588 409 
z
M 2541 1666 
Q 2234 1541 1622 1453 
Q 1275 1403 1131 1340 
Q 988 1278 909 1158 
Q 831 1038 831 891 
Q 831 666 1001 516 
Q 1172 366 1500 366 
Q 1825 366 2078 508 
Q 2331 650 2450 897 
Q 2541 1088 2541 1459 
L 2541 1666 
z
" transform="scale(0.015625)"/>
        <path id="ArialMT-6e" d="M 422 0 
L 422 3319 
L 928 3319 
L 928 2847 
Q 1294 3394 1984 3394 
Q 2284 3394 2536 3286 
Q 2788 3178 2913 3003 
Q 3038 2828 3088 2588 
Q 3119 2431 3119 2041 
L 3119 0 
L 2556 0 
L 2556 2019 
Q 2556 2363 2490 2533 
Q 2425 2703 2258 2804 
Q 2091 2906 1866 2906 
Q 1506 2906 1245 2678 
Q 984 2450 984 1813 
L 984 0 
L 422 0 
z
" transform="scale(0.015625)"/>
        <path id="ArialMT-64" d="M 2575 0 
L 2575 419 
Q 2259 -75 1647 -75 
Q 1250 -75 917 144 
Q 584 363 401 755 
Q 219 1147 219 1656 
Q 219 2153 384 2558 
Q 550 2963 881 3178 
Q 1213 3394 1622 3394 
Q 1922 3394 2156 3267 
Q 2391 3141 2538 2938 
L 2538 4581 
L 3097 4581 
L 3097 0 
L 2575 0 
z
M 797 1656 
Q 797 1019 1065 703 
Q 1334 388 1700 388 
Q 2069 388 2326 689 
Q 2584 991 2584 1609 
Q 2584 2291 2321 2609 
Q 2059 2928 1675 2928 
Q 1300 2928 1048 2622 
Q 797 2316 797 1656 
z
" transform="scale(0.015625)"/>
        <path id="ArialMT-6f" d="M 213 1659 
Q 213 2581 725 3025 
Q 1153 3394 1769 3394 
Q 2453 3394 2887 2945 
Q 3322 2497 3322 1706 
Q 3322 1066 3130 698 
Q 2938 331 2570 128 
Q 2203 -75 1769 -75 
Q 1072 -75 642 372 
Q 213 819 213 1659 
z
M 791 1659 
Q 791 1022 1069 705 
Q 1347 388 1769 388 
Q 2188 388 2466 706 
Q 2744 1025 2744 1678 
Q 2744 2294 2464 2611 
Q 2184 2928 1769 2928 
Q 1347 2928 1069 2612 
Q 791 2297 791 1659 
z
" transform="scale(0.015625)"/>
        <path id="ArialMT-6d" d="M 422 0 
L 422 3319 
L 925 3319 
L 925 2853 
Q 1081 3097 1340 3245 
Q 1600 3394 1931 3394 
Q 2300 3394 2536 3241 
Q 2772 3088 2869 2813 
Q 3263 3394 3894 3394 
Q 4388 3394 4653 3120 
Q 4919 2847 4919 2278 
L 4919 0 
L 4359 0 
L 4359 2091 
Q 4359 2428 4304 2576 
Q 4250 2725 4106 2815 
Q 3963 2906 3769 2906 
Q 3419 2906 3187 2673 
Q 2956 2441 2956 1928 
L 2956 0 
L 2394 0 
L 2394 2156 
Q 2394 2531 2256 2718 
Q 2119 2906 1806 2906 
Q 1569 2906 1367 2781 
Q 1166 2656 1075 2415 
Q 984 2175 984 1722 
L 984 0 
L 422 0 
z
" transform="scale(0.015625)"/>
        <path id="ArialMT-53" d="M 288 1472 
L 859 1522 
Q 900 1178 1048 958 
Q 1197 738 1509 602 
Q 1822 466 2213 466 
Q 2559 466 2825 569 
Q 3091 672 3220 851 
Q 3350 1031 3350 1244 
Q 3350 1459 3225 1620 
Q 3100 1781 2813 1891 
Q 2628 1963 1997 2114 
Q 1366 2266 1113 2400 
Q 784 2572 623 2826 
Q 463 3081 463 3397 
Q 463 3744 659 4045 
Q 856 4347 1234 4503 
Q 1613 4659 2075 4659 
Q 2584 4659 2973 4495 
Q 3363 4331 3572 4012 
Q 3781 3694 3797 3291 
L 3216 3247 
Q 3169 3681 2898 3903 
Q 2628 4125 2100 4125 
Q 1550 4125 1298 3923 
Q 1047 3722 1047 3438 
Q 1047 3191 1225 3031 
Q 1400 2872 2139 2705 
Q 2878 2538 3153 2413 
Q 3553 2228 3743 1945 
Q 3934 1663 3934 1294 
Q 3934 928 3725 604 
Q 3516 281 3123 101 
Q 2731 -78 2241 -78 
Q 1619 -78 1198 103 
Q 778 284 539 648 
Q 300 1013 288 1472 
z
" transform="scale(0.015625)"/>
        <path id="ArialMT-70" d="M 422 -1272 
L 422 3319 
L 934 3319 
L 934 2888 
Q 1116 3141 1344 3267 
Q 1572 3394 1897 3394 
Q 2322 3394 2647 3175 
Q 2972 2956 3137 2557 
Q 3303 2159 3303 1684 
Q 3303 1175 3120 767 
Q 2938 359 2589 142 
Q 2241 -75 1856 -75 
Q 1575 -75 1351 44 
Q 1128 163 984 344 
L 984 -1272 
L 422 -1272 
z
M 931 1641 
Q 931 1000 1190 694 
Q 1450 388 1819 388 
Q 2194 388 2461 705 
Q 2728 1022 2728 1688 
Q 2728 2322 2467 2637 
Q 2206 2953 1844 2953 
Q 1484 2953 1207 2617 
Q 931 2281 931 1641 
z
" transform="scale(0.015625)"/>
        <path id="ArialMT-6c" d="M 409 0 
L 409 4581 
L 972 4581 
L 972 0 
L 409 0 
z
" transform="scale(0.015625)"/>
        <path id="ArialMT-69" d="M 425 3934 
L 425 4581 
L 988 4581 
L 988 3934 
L 425 3934 
z
M 425 0 
L 425 3319 
L 988 3319 
L 988 0 
L 425 0 
z
" transform="scale(0.015625)"/>
        <path id="ArialMT-74" d="M 1650 503 
L 1731 6 
Q 1494 -44 1306 -44 
Q 1000 -44 831 53 
Q 663 150 594 308 
Q 525 466 525 972 
L 525 2881 
L 113 2881 
L 113 3319 
L 525 3319 
L 525 4141 
L 1084 4478 
L 1084 3319 
L 1650 3319 
L 1650 2881 
L 1084 2881 
L 1084 941 
Q 1084 700 1114 631 
Q 1144 563 1211 522 
Q 1278 481 1403 481 
Q 1497 481 1650 503 
z
" transform="scale(0.015625)"/>
       </defs>
       <use xlink:href="#ArialMT-52"/>
       <use xlink:href="#ArialMT-61" transform="translate(72.216797 0)"/>
       <use xlink:href="#ArialMT-6e" transform="translate(127.832031 0)"/>
       <use xlink:href="#ArialMT-64" transform="translate(183.447266 0)"/>
       <use xlink:href="#ArialMT-6f" transform="translate(239.0625 0)"/>
       <use xlink:href="#ArialMT-6d" transform="translate(294.677734 0)"/>
       <use xlink:href="#ArialMT-53" transform="translate(377.978516 0)"/>
       <use xlink:href="#ArialMT-70" transform="translate(444.677734 0)"/>
       <use xlink:href="#ArialMT-6c" transform="translate(500.292969 0)"/>
       <use xlink:href="#ArialMT-69" transform="translate(522.509766 0)"/>
       <use xlink:href="#ArialMT-74" transform="translate(544.726562 0)"/>
      </g>
     </g>
    </g>
    <g id="xtick_2">
     <g id="text_2">
      <!-- ScaffoldSplit -->
      <g style="fill: #262626" transform="translate(203.706007 732.183383) rotate(-45) scale(0.176 -0.176)">
       <defs>
        <path id="ArialMT-63" d="M 2588 1216 
L 3141 1144 
Q 3050 572 2676 248 
Q 2303 -75 1759 -75 
Q 1078 -75 664 370 
Q 250 816 250 1647 
Q 250 2184 428 2587 
Q 606 2991 970 3192 
Q 1334 3394 1763 3394 
Q 2303 3394 2647 3120 
Q 2991 2847 3088 2344 
L 2541 2259 
Q 2463 2594 2264 2762 
Q 2066 2931 1784 2931 
Q 1359 2931 1093 2626 
Q 828 2322 828 1663 
Q 828 994 1084 691 
Q 1341 388 1753 388 
Q 2084 388 2306 591 
Q 2528 794 2588 1216 
z
" transform="scale(0.015625)"/>
        <path id="ArialMT-66" d="M 556 0 
L 556 2881 
L 59 2881 
L 59 3319 
L 556 3319 
L 556 3672 
Q 556 4006 616 4169 
Q 697 4388 901 4523 
Q 1106 4659 1475 4659 
Q 1713 4659 2000 4603 
L 1916 4113 
Q 1741 4144 1584 4144 
Q 1328 4144 1222 4034 
Q 1116 3925 1116 3625 
L 1116 3319 
L 1763 3319 
L 1763 2881 
L 1116 2881 
L 1116 0 
L 556 0 
z
" transform="scale(0.015625)"/>
       </defs>
       <use xlink:href="#ArialMT-53"/>
       <use xlink:href="#ArialMT-63" transform="translate(66.699219 0)"/>
       <use xlink:href="#ArialMT-61" transform="translate(116.699219 0)"/>
       <use xlink:href="#ArialMT-66" transform="translate(172.314453 0)"/>
       <use xlink:href="#ArialMT-66" transform="translate(198.347656 0)"/>
       <use xlink:href="#ArialMT-6f" transform="translate(226.130859 0)"/>
       <use xlink:href="#ArialMT-6c" transform="translate(281.746094 0)"/>
       <use xlink:href="#ArialMT-64" transform="translate(303.962891 0)"/>
       <use xlink:href="#ArialMT-53" transform="translate(359.578125 0)"/>
       <use xlink:href="#ArialMT-70" transform="translate(426.277344 0)"/>
       <use xlink:href="#ArialMT-6c" transform="translate(481.892578 0)"/>
       <use xlink:href="#ArialMT-69" transform="translate(504.109375 0)"/>
       <use xlink:href="#ArialMT-74" transform="translate(526.326172 0)"/>
      </g>
     </g>
    </g>
    <g id="xtick_3">
     <g id="text_3">
      <!-- SortedStepForward_LogD -->
      <g style="fill: #262626" transform="translate(263.485457 807.798908) rotate(-45) scale(0.176 -0.176)">
       <defs>
        <path id="ArialMT-72" d="M 416 0 
L 416 3319 
L 922 3319 
L 922 2816 
Q 1116 3169 1280 3281 
Q 1444 3394 1641 3394 
Q 1925 3394 2219 3213 
L 2025 2691 
Q 1819 2813 1613 2813 
Q 1428 2813 1281 2702 
Q 1134 2591 1072 2394 
Q 978 2094 978 1738 
L 978 0 
L 416 0 
z
" transform="scale(0.015625)"/>
        <path id="ArialMT-65" d="M 2694 1069 
L 3275 997 
Q 3138 488 2766 206 
Q 2394 -75 1816 -75 
Q 1088 -75 661 373 
Q 234 822 234 1631 
Q 234 2469 665 2931 
Q 1097 3394 1784 3394 
Q 2450 3394 2872 2941 
Q 3294 2488 3294 1666 
Q 3294 1616 3291 1516 
L 816 1516 
Q 847 969 1125 678 
Q 1403 388 1819 388 
Q 2128 388 2347 550 
Q 2566 713 2694 1069 
z
M 847 1978 
L 2700 1978 
Q 2663 2397 2488 2606 
Q 2219 2931 1791 2931 
Q 1403 2931 1139 2672 
Q 875 2413 847 1978 
z
" transform="scale(0.015625)"/>
        <path id="ArialMT-46" d="M 525 0 
L 525 4581 
L 3616 4581 
L 3616 4041 
L 1131 4041 
L 1131 2622 
L 3281 2622 
L 3281 2081 
L 1131 2081 
L 1131 0 
L 525 0 
z
" transform="scale(0.015625)"/>
        <path id="ArialMT-77" d="M 1034 0 
L 19 3319 
L 600 3319 
L 1128 1403 
L 1325 691 
Q 1338 744 1497 1375 
L 2025 3319 
L 2603 3319 
L 3100 1394 
L 3266 759 
L 3456 1400 
L 4025 3319 
L 4572 3319 
L 3534 0 
L 2950 0 
L 2422 1988 
L 2294 2553 
L 1622 0 
L 1034 0 
z
" transform="scale(0.015625)"/>
        <path id="ArialMT-5f" d="M -97 -1272 
L -97 -866 
L 3631 -866 
L 3631 -1272 
L -97 -1272 
z
" transform="scale(0.015625)"/>
        <path id="ArialMT-4c" d="M 469 0 
L 469 4581 
L 1075 4581 
L 1075 541 
L 3331 541 
L 3331 0 
L 469 0 
z
" transform="scale(0.015625)"/>
        <path id="ArialMT-67" d="M 319 -275 
L 866 -356 
Q 900 -609 1056 -725 
Q 1266 -881 1628 -881 
Q 2019 -881 2231 -725 
Q 2444 -569 2519 -288 
Q 2563 -116 2559 434 
Q 2191 0 1641 0 
Q 956 0 581 494 
Q 206 988 206 1678 
Q 206 2153 378 2554 
Q 550 2956 876 3175 
Q 1203 3394 1644 3394 
Q 2231 3394 2613 2919 
L 2613 3319 
L 3131 3319 
L 3131 450 
Q 3131 -325 2973 -648 
Q 2816 -972 2473 -1159 
Q 2131 -1347 1631 -1347 
Q 1038 -1347 672 -1080 
Q 306 -813 319 -275 
z
M 784 1719 
Q 784 1066 1043 766 
Q 1303 466 1694 466 
Q 2081 466 2343 764 
Q 2606 1063 2606 1700 
Q 2606 2309 2336 2618 
Q 2066 2928 1684 2928 
Q 1309 2928 1046 2623 
Q 784 2319 784 1719 
z
" transform="scale(0.015625)"/>
        <path id="ArialMT-44" d="M 494 0 
L 494 4581 
L 2072 4581 
Q 2606 4581 2888 4516 
Q 3281 4425 3559 4188 
Q 3922 3881 4101 3404 
Q 4281 2928 4281 2316 
Q 4281 1794 4159 1391 
Q 4038 988 3847 723 
Q 3656 459 3429 307 
Q 3203 156 2883 78 
Q 2563 0 2147 0 
L 494 0 
z
M 1100 541 
L 2078 541 
Q 2531 541 2789 625 
Q 3047 709 3200 863 
Q 3416 1078 3536 1442 
Q 3656 1806 3656 2325 
Q 3656 3044 3420 3430 
Q 3184 3816 2847 3947 
Q 2603 4041 2063 4041 
L 1100 4041 
L 1100 541 
z
" transform="scale(0.015625)"/>
       </defs>
       <use xlink:href="#ArialMT-53"/>
       <use xlink:href="#ArialMT-6f" transform="translate(66.699219 0)"/>
       <use xlink:href="#ArialMT-72" transform="translate(122.314453 0)"/>
       <use xlink:href="#ArialMT-74" transform="translate(155.615234 0)"/>
       <use xlink:href="#ArialMT-65" transform="translate(183.398438 0)"/>
       <use xlink:href="#ArialMT-64" transform="translate(239.013672 0)"/>
       <use xlink:href="#ArialMT-53" transform="translate(294.628906 0)"/>
       <use xlink:href="#ArialMT-74" transform="translate(361.328125 0)"/>
       <use xlink:href="#ArialMT-65" transform="translate(389.111328 0)"/>
       <use xlink:href="#ArialMT-70" transform="translate(444.726562 0)"/>
       <use xlink:href="#ArialMT-46" transform="translate(500.341797 0)"/>
       <use xlink:href="#ArialMT-6f" transform="translate(561.425781 0)"/>
       <use xlink:href="#ArialMT-72" transform="translate(617.041016 0)"/>
       <use xlink:href="#ArialMT-77" transform="translate(650.341797 0)"/>
       <use xlink:href="#ArialMT-61" transform="translate(722.558594 0)"/>
       <use xlink:href="#ArialMT-72" transform="translate(778.173828 0)"/>
       <use xlink:href="#ArialMT-64" transform="translate(811.474609 0)"/>
       <use xlink:href="#ArialMT-5f" transform="translate(867.089844 0)"/>
       <use xlink:href="#ArialMT-4c" transform="translate(922.705078 0)"/>
       <use xlink:href="#ArialMT-6f" transform="translate(978.320312 0)"/>
       <use xlink:href="#ArialMT-67" transform="translate(1033.935547 0)"/>
       <use xlink:href="#ArialMT-44" transform="translate(1089.550781 0)"/>
      </g>
     </g>
    </g>
    <g id="xtick_4">
     <g id="text_4">
      <!-- SortedStepForward_LogP -->
      <g style="fill: #262626" transform="translate(361.488803 807.112484) rotate(-45) scale(0.176 -0.176)">
       <defs>
        <path id="ArialMT-50" d="M 494 0 
L 494 4581 
L 2222 4581 
Q 2678 4581 2919 4538 
Q 3256 4481 3484 4323 
Q 3713 4166 3852 3881 
Q 3991 3597 3991 3256 
Q 3991 2672 3619 2267 
Q 3247 1863 2275 1863 
L 1100 1863 
L 1100 0 
L 494 0 
z
M 1100 2403 
L 2284 2403 
Q 2872 2403 3119 2622 
Q 3366 2841 3366 3238 
Q 3366 3525 3220 3729 
Q 3075 3934 2838 4000 
Q 2684 4041 2272 4041 
L 1100 4041 
L 1100 2403 
z
" transform="scale(0.015625)"/>
       </defs>
       <use xlink:href="#ArialMT-53"/>
       <use xlink:href="#ArialMT-6f" transform="translate(66.699219 0)"/>
       <use xlink:href="#ArialMT-72" transform="translate(122.314453 0)"/>
       <use xlink:href="#ArialMT-74" transform="translate(155.615234 0)"/>
       <use xlink:href="#ArialMT-65" transform="translate(183.398438 0)"/>
       <use xlink:href="#ArialMT-64" transform="translate(239.013672 0)"/>
       <use xlink:href="#ArialMT-53" transform="translate(294.628906 0)"/>
       <use xlink:href="#ArialMT-74" transform="translate(361.328125 0)"/>
       <use xlink:href="#ArialMT-65" transform="translate(389.111328 0)"/>
       <use xlink:href="#ArialMT-70" transform="translate(444.726562 0)"/>
       <use xlink:href="#ArialMT-46" transform="translate(500.341797 0)"/>
       <use xlink:href="#ArialMT-6f" transform="translate(561.425781 0)"/>
       <use xlink:href="#ArialMT-72" transform="translate(617.041016 0)"/>
       <use xlink:href="#ArialMT-77" transform="translate(650.341797 0)"/>
       <use xlink:href="#ArialMT-61" transform="translate(722.558594 0)"/>
       <use xlink:href="#ArialMT-72" transform="translate(778.173828 0)"/>
       <use xlink:href="#ArialMT-64" transform="translate(811.474609 0)"/>
       <use xlink:href="#ArialMT-5f" transform="translate(867.089844 0)"/>
       <use xlink:href="#ArialMT-4c" transform="translate(922.705078 0)"/>
       <use xlink:href="#ArialMT-6f" transform="translate(978.320312 0)"/>
       <use xlink:href="#ArialMT-67" transform="translate(1033.935547 0)"/>
       <use xlink:href="#ArialMT-50" transform="translate(1089.550781 0)"/>
      </g>
     </g>
    </g>
    <g id="xtick_5">
     <g id="text_5">
      <!-- SortedStepForward_MCE18 -->
      <g style="fill: #262626" transform="translate(453.00515 819.545896) rotate(-45) scale(0.176 -0.176)">
       <defs>
        <path id="ArialMT-4d" d="M 475 0 
L 475 4581 
L 1388 4581 
L 2472 1338 
Q 2622 884 2691 659 
Q 2769 909 2934 1394 
L 4031 4581 
L 4847 4581 
L 4847 0 
L 4263 0 
L 4263 3834 
L 2931 0 
L 2384 0 
L 1059 3900 
L 1059 0 
L 475 0 
z
" transform="scale(0.015625)"/>
        <path id="ArialMT-43" d="M 3763 1606 
L 4369 1453 
Q 4178 706 3683 314 
Q 3188 -78 2472 -78 
Q 1731 -78 1267 223 
Q 803 525 561 1097 
Q 319 1669 319 2325 
Q 319 3041 592 3573 
Q 866 4106 1370 4382 
Q 1875 4659 2481 4659 
Q 3169 4659 3637 4309 
Q 4106 3959 4291 3325 
L 3694 3184 
Q 3534 3684 3231 3912 
Q 2928 4141 2469 4141 
Q 1941 4141 1586 3887 
Q 1231 3634 1087 3207 
Q 944 2781 944 2328 
Q 944 1744 1114 1308 
Q 1284 872 1643 656 
Q 2003 441 2422 441 
Q 2931 441 3284 734 
Q 3638 1028 3763 1606 
z
" transform="scale(0.015625)"/>
        <path id="ArialMT-45" d="M 506 0 
L 506 4581 
L 3819 4581 
L 3819 4041 
L 1113 4041 
L 1113 2638 
L 3647 2638 
L 3647 2100 
L 1113 2100 
L 1113 541 
L 3925 541 
L 3925 0 
L 506 0 
z
" transform="scale(0.015625)"/>
        <path id="ArialMT-31" d="M 2384 0 
L 1822 0 
L 1822 3584 
Q 1619 3391 1289 3197 
Q 959 3003 697 2906 
L 697 3450 
Q 1169 3672 1522 3987 
Q 1875 4303 2022 4600 
L 2384 4600 
L 2384 0 
z
" transform="scale(0.015625)"/>
        <path id="ArialMT-38" d="M 1131 2484 
Q 781 2613 612 2850 
Q 444 3088 444 3419 
Q 444 3919 803 4259 
Q 1163 4600 1759 4600 
Q 2359 4600 2725 4251 
Q 3091 3903 3091 3403 
Q 3091 3084 2923 2848 
Q 2756 2613 2416 2484 
Q 2838 2347 3058 2040 
Q 3278 1734 3278 1309 
Q 3278 722 2862 322 
Q 2447 -78 1769 -78 
Q 1091 -78 675 323 
Q 259 725 259 1325 
Q 259 1772 486 2073 
Q 713 2375 1131 2484 
z
M 1019 3438 
Q 1019 3113 1228 2906 
Q 1438 2700 1772 2700 
Q 2097 2700 2305 2904 
Q 2513 3109 2513 3406 
Q 2513 3716 2298 3927 
Q 2084 4138 1766 4138 
Q 1444 4138 1231 3931 
Q 1019 3725 1019 3438 
z
M 838 1322 
Q 838 1081 952 856 
Q 1066 631 1291 507 
Q 1516 384 1775 384 
Q 2178 384 2440 643 
Q 2703 903 2703 1303 
Q 2703 1709 2433 1975 
Q 2163 2241 1756 2241 
Q 1359 2241 1098 1978 
Q 838 1716 838 1322 
z
" transform="scale(0.015625)"/>
       </defs>
       <use xlink:href="#ArialMT-53"/>
       <use xlink:href="#ArialMT-6f" transform="translate(66.699219 0)"/>
       <use xlink:href="#ArialMT-72" transform="translate(122.314453 0)"/>
       <use xlink:href="#ArialMT-74" transform="translate(155.615234 0)"/>
       <use xlink:href="#ArialMT-65" transform="translate(183.398438 0)"/>
       <use xlink:href="#ArialMT-64" transform="translate(239.013672 0)"/>
       <use xlink:href="#ArialMT-53" transform="translate(294.628906 0)"/>
       <use xlink:href="#ArialMT-74" transform="translate(361.328125 0)"/>
       <use xlink:href="#ArialMT-65" transform="translate(389.111328 0)"/>
       <use xlink:href="#ArialMT-70" transform="translate(444.726562 0)"/>
       <use xlink:href="#ArialMT-46" transform="translate(500.341797 0)"/>
       <use xlink:href="#ArialMT-6f" transform="translate(561.425781 0)"/>
       <use xlink:href="#ArialMT-72" transform="translate(617.041016 0)"/>
       <use xlink:href="#ArialMT-77" transform="translate(650.341797 0)"/>
       <use xlink:href="#ArialMT-61" transform="translate(722.558594 0)"/>
       <use xlink:href="#ArialMT-72" transform="translate(778.173828 0)"/>
       <use xlink:href="#ArialMT-64" transform="translate(811.474609 0)"/>
       <use xlink:href="#ArialMT-5f" transform="translate(867.089844 0)"/>
       <use xlink:href="#ArialMT-4d" transform="translate(922.705078 0)"/>
       <use xlink:href="#ArialMT-43" transform="translate(1006.005859 0)"/>
       <use xlink:href="#ArialMT-45" transform="translate(1078.222656 0)"/>
       <use xlink:href="#ArialMT-31" transform="translate(1144.921875 0)"/>
       <use xlink:href="#ArialMT-38" transform="translate(1200.537109 0)"/>
      </g>
     </g>
    </g>
    <g id="xtick_6">
     <g id="text_6">
      <!-- UnsortedStepForward -->
      <g style="fill: #262626" transform="translate(567.959083 784.958298) rotate(-45) scale(0.176 -0.176)">
       <defs>
        <path id="ArialMT-55" d="M 3500 4581 
L 4106 4581 
L 4106 1934 
Q 4106 1244 3950 837 
Q 3794 431 3386 176 
Q 2978 -78 2316 -78 
Q 1672 -78 1262 144 
Q 853 366 678 786 
Q 503 1206 503 1934 
L 503 4581 
L 1109 4581 
L 1109 1938 
Q 1109 1341 1220 1058 
Q 1331 775 1601 622 
Q 1872 469 2263 469 
Q 2931 469 3215 772 
Q 3500 1075 3500 1938 
L 3500 4581 
z
" transform="scale(0.015625)"/>
        <path id="ArialMT-73" d="M 197 991 
L 753 1078 
Q 800 744 1014 566 
Q 1228 388 1613 388 
Q 2000 388 2187 545 
Q 2375 703 2375 916 
Q 2375 1106 2209 1216 
Q 2094 1291 1634 1406 
Q 1016 1563 777 1677 
Q 538 1791 414 1992 
Q 291 2194 291 2438 
Q 291 2659 392 2848 
Q 494 3038 669 3163 
Q 800 3259 1026 3326 
Q 1253 3394 1513 3394 
Q 1903 3394 2198 3281 
Q 2494 3169 2634 2976 
Q 2775 2784 2828 2463 
L 2278 2388 
Q 2241 2644 2061 2787 
Q 1881 2931 1553 2931 
Q 1166 2931 1000 2803 
Q 834 2675 834 2503 
Q 834 2394 903 2306 
Q 972 2216 1119 2156 
Q 1203 2125 1616 2013 
Q 2213 1853 2448 1751 
Q 2684 1650 2818 1456 
Q 2953 1263 2953 975 
Q 2953 694 2789 445 
Q 2625 197 2315 61 
Q 2006 -75 1616 -75 
Q 969 -75 630 194 
Q 291 463 197 991 
z
" transform="scale(0.015625)"/>
       </defs>
       <use xlink:href="#ArialMT-55"/>
       <use xlink:href="#ArialMT-6e" transform="translate(72.216797 0)"/>
       <use xlink:href="#ArialMT-73" transform="translate(127.832031 0)"/>
       <use xlink:href="#ArialMT-6f" transform="translate(177.832031 0)"/>
       <use xlink:href="#ArialMT-72" transform="translate(233.447266 0)"/>
       <use xlink:href="#ArialMT-74" transform="translate(266.748047 0)"/>
       <use xlink:href="#ArialMT-65" transform="translate(294.53125 0)"/>
       <use xlink:href="#ArialMT-64" transform="translate(350.146484 0)"/>
       <use xlink:href="#ArialMT-53" transform="translate(405.761719 0)"/>
       <use xlink:href="#ArialMT-74" transform="translate(472.460938 0)"/>
       <use xlink:href="#ArialMT-65" transform="translate(500.244141 0)"/>
       <use xlink:href="#ArialMT-70" transform="translate(555.859375 0)"/>
       <use xlink:href="#ArialMT-46" transform="translate(611.474609 0)"/>
       <use xlink:href="#ArialMT-6f" transform="translate(672.558594 0)"/>
       <use xlink:href="#ArialMT-72" transform="translate(728.173828 0)"/>
       <use xlink:href="#ArialMT-77" transform="translate(761.474609 0)"/>
       <use xlink:href="#ArialMT-61" transform="translate(833.691406 0)"/>
       <use xlink:href="#ArialMT-72" transform="translate(889.306641 0)"/>
       <use xlink:href="#ArialMT-64" transform="translate(922.607422 0)"/>
      </g>
     </g>
    </g>
    <g id="text_7">
     <!-- split_type -->
     <g style="fill: #262626" transform="translate(340.827825 839.762355) scale(0.192 -0.192)">
      <defs>
       <path id="ArialMT-79" d="M 397 -1278 
L 334 -750 
Q 519 -800 656 -800 
Q 844 -800 956 -737 
Q 1069 -675 1141 -563 
Q 1194 -478 1313 -144 
Q 1328 -97 1363 -6 
L 103 3319 
L 709 3319 
L 1400 1397 
Q 1534 1031 1641 628 
Q 1738 1016 1872 1384 
L 2581 3319 
L 3144 3319 
L 1881 -56 
Q 1678 -603 1566 -809 
Q 1416 -1088 1222 -1217 
Q 1028 -1347 759 -1347 
Q 597 -1347 397 -1278 
z
" transform="scale(0.015625)"/>
      </defs>
      <use xlink:href="#ArialMT-73"/>
      <use xlink:href="#ArialMT-70" transform="translate(50 0)"/>
      <use xlink:href="#ArialMT-6c" transform="translate(105.615234 0)"/>
      <use xlink:href="#ArialMT-69" transform="translate(127.832031 0)"/>
      <use xlink:href="#ArialMT-74" transform="translate(150.048828 0)"/>
      <use xlink:href="#ArialMT-5f" transform="translate(177.832031 0)"/>
      <use xlink:href="#ArialMT-74" transform="translate(233.447266 0)"/>
      <use xlink:href="#ArialMT-79" transform="translate(261.230469 0)"/>
      <use xlink:href="#ArialMT-70" transform="translate(311.230469 0)"/>
      <use xlink:href="#ArialMT-65" transform="translate(366.845703 0)"/>
     </g>
    </g>
   </g>
   <g id="matplotlib.axis_2">
    <g id="ytick_1">
     <g id="line2d_1">
      <path d="M 69.846 601.446881 
L 692.917651 601.446881 
" clip-path="url(#pe458ac824c)" style="fill: none; stroke: #cccccc; stroke-width: 0.8; stroke-linecap: round"/>
     </g>
     <g id="text_8">
      <!-- 5 -->
      <g style="fill: #262626" transform="translate(51.75875 607.745756) scale(0.176 -0.176)">
       <defs>
        <path id="ArialMT-35" d="M 266 1200 
L 856 1250 
Q 922 819 1161 601 
Q 1400 384 1738 384 
Q 2144 384 2425 690 
Q 2706 997 2706 1503 
Q 2706 1984 2436 2262 
Q 2166 2541 1728 2541 
Q 1456 2541 1237 2417 
Q 1019 2294 894 2097 
L 366 2166 
L 809 4519 
L 3088 4519 
L 3088 3981 
L 1259 3981 
L 1013 2750 
Q 1425 3038 1878 3038 
Q 2478 3038 2890 2622 
Q 3303 2206 3303 1553 
Q 3303 931 2941 478 
Q 2500 -78 1738 -78 
Q 1113 -78 717 272 
Q 322 622 266 1200 
z
" transform="scale(0.015625)"/>
       </defs>
       <use xlink:href="#ArialMT-35"/>
      </g>
     </g>
    </g>
    <g id="ytick_2">
     <g id="line2d_2">
      <path d="M 69.846 522.896285 
L 692.917651 522.896285 
" clip-path="url(#pe458ac824c)" style="fill: none; stroke: #cccccc; stroke-width: 0.8; stroke-linecap: round"/>
     </g>
     <g id="text_9">
      <!-- 6 -->
      <g style="fill: #262626" transform="translate(51.75875 529.19516) scale(0.176 -0.176)">
       <defs>
        <path id="ArialMT-36" d="M 3184 3459 
L 2625 3416 
Q 2550 3747 2413 3897 
Q 2184 4138 1850 4138 
Q 1581 4138 1378 3988 
Q 1113 3794 959 3422 
Q 806 3050 800 2363 
Q 1003 2672 1297 2822 
Q 1591 2972 1913 2972 
Q 2475 2972 2870 2558 
Q 3266 2144 3266 1488 
Q 3266 1056 3080 686 
Q 2894 316 2569 119 
Q 2244 -78 1831 -78 
Q 1128 -78 684 439 
Q 241 956 241 2144 
Q 241 3472 731 4075 
Q 1159 4600 1884 4600 
Q 2425 4600 2770 4297 
Q 3116 3994 3184 3459 
z
M 888 1484 
Q 888 1194 1011 928 
Q 1134 663 1356 523 
Q 1578 384 1822 384 
Q 2178 384 2434 671 
Q 2691 959 2691 1453 
Q 2691 1928 2437 2201 
Q 2184 2475 1800 2475 
Q 1419 2475 1153 2201 
Q 888 1928 888 1484 
z
" transform="scale(0.015625)"/>
       </defs>
       <use xlink:href="#ArialMT-36"/>
      </g>
     </g>
    </g>
    <g id="ytick_3">
     <g id="line2d_3">
      <path d="M 69.846 444.345689 
L 692.917651 444.345689 
" clip-path="url(#pe458ac824c)" style="fill: none; stroke: #cccccc; stroke-width: 0.8; stroke-linecap: round"/>
     </g>
     <g id="text_10">
      <!-- 7 -->
      <g style="fill: #262626" transform="translate(51.75875 450.644564) scale(0.176 -0.176)">
       <defs>
        <path id="ArialMT-37" d="M 303 3981 
L 303 4522 
L 3269 4522 
L 3269 4084 
Q 2831 3619 2401 2847 
Q 1972 2075 1738 1259 
Q 1569 684 1522 0 
L 944 0 
Q 953 541 1156 1306 
Q 1359 2072 1739 2783 
Q 2119 3494 2547 3981 
L 303 3981 
z
" transform="scale(0.015625)"/>
       </defs>
       <use xlink:href="#ArialMT-37"/>
      </g>
     </g>
    </g>
    <g id="ytick_4">
     <g id="line2d_4">
      <path d="M 69.846 365.795093 
L 692.917651 365.795093 
" clip-path="url(#pe458ac824c)" style="fill: none; stroke: #cccccc; stroke-width: 0.8; stroke-linecap: round"/>
     </g>
     <g id="text_11">
      <!-- 8 -->
      <g style="fill: #262626" transform="translate(51.75875 372.093968) scale(0.176 -0.176)">
       <use xlink:href="#ArialMT-38"/>
      </g>
     </g>
    </g>
    <g id="ytick_5">
     <g id="line2d_5">
      <path d="M 69.846 287.244497 
L 692.917651 287.244497 
" clip-path="url(#pe458ac824c)" style="fill: none; stroke: #cccccc; stroke-width: 0.8; stroke-linecap: round"/>
     </g>
     <g id="text_12">
      <!-- 9 -->
      <g style="fill: #262626" transform="translate(51.75875 293.543372) scale(0.176 -0.176)">
       <defs>
        <path id="ArialMT-39" d="M 350 1059 
L 891 1109 
Q 959 728 1153 556 
Q 1347 384 1650 384 
Q 1909 384 2104 503 
Q 2300 622 2425 820 
Q 2550 1019 2634 1356 
Q 2719 1694 2719 2044 
Q 2719 2081 2716 2156 
Q 2547 1888 2255 1720 
Q 1963 1553 1622 1553 
Q 1053 1553 659 1965 
Q 266 2378 266 3053 
Q 266 3750 677 4175 
Q 1088 4600 1706 4600 
Q 2153 4600 2523 4359 
Q 2894 4119 3086 3673 
Q 3278 3228 3278 2384 
Q 3278 1506 3087 986 
Q 2897 466 2520 194 
Q 2144 -78 1638 -78 
Q 1100 -78 759 220 
Q 419 519 350 1059 
z
M 2653 3081 
Q 2653 3566 2395 3850 
Q 2138 4134 1775 4134 
Q 1400 4134 1122 3828 
Q 844 3522 844 3034 
Q 844 2597 1108 2323 
Q 1372 2050 1759 2050 
Q 2150 2050 2401 2323 
Q 2653 2597 2653 3081 
z
" transform="scale(0.015625)"/>
       </defs>
       <use xlink:href="#ArialMT-39"/>
      </g>
     </g>
    </g>
    <g id="ytick_6">
     <g id="line2d_6">
      <path d="M 69.846 208.693901 
L 692.917651 208.693901 
" clip-path="url(#pe458ac824c)" style="fill: none; stroke: #cccccc; stroke-width: 0.8; stroke-linecap: round"/>
     </g>
     <g id="text_13">
      <!-- 10 -->
      <g style="fill: #262626" transform="translate(41.9715 214.992776) scale(0.176 -0.176)">
       <defs>
        <path id="ArialMT-30" d="M 266 2259 
Q 266 3072 433 3567 
Q 600 4063 929 4331 
Q 1259 4600 1759 4600 
Q 2128 4600 2406 4451 
Q 2684 4303 2865 4023 
Q 3047 3744 3150 3342 
Q 3253 2941 3253 2259 
Q 3253 1453 3087 958 
Q 2922 463 2592 192 
Q 2263 -78 1759 -78 
Q 1097 -78 719 397 
Q 266 969 266 2259 
z
M 844 2259 
Q 844 1131 1108 757 
Q 1372 384 1759 384 
Q 2147 384 2411 759 
Q 2675 1134 2675 2259 
Q 2675 3391 2411 3762 
Q 2147 4134 1753 4134 
Q 1366 4134 1134 3806 
Q 844 3388 844 2259 
z
" transform="scale(0.015625)"/>
       </defs>
       <use xlink:href="#ArialMT-31"/>
       <use xlink:href="#ArialMT-30" transform="translate(55.615234 0)"/>
      </g>
     </g>
    </g>
    <g id="ytick_7">
     <g id="line2d_7">
      <path d="M 69.846 130.143305 
L 692.917651 130.143305 
" clip-path="url(#pe458ac824c)" style="fill: none; stroke: #cccccc; stroke-width: 0.8; stroke-linecap: round"/>
     </g>
     <g id="text_14">
      <!-- 11 -->
      <g style="fill: #262626" transform="translate(43.2695 136.44218) scale(0.176 -0.176)">
       <use xlink:href="#ArialMT-31"/>
       <use xlink:href="#ArialMT-31" transform="translate(48.240234 0)"/>
      </g>
     </g>
    </g>
    <g id="ytick_8">
     <g id="line2d_8">
      <path d="M 69.846 51.592709 
L 692.917651 51.592709 
" clip-path="url(#pe458ac824c)" style="fill: none; stroke: #cccccc; stroke-width: 0.8; stroke-linecap: round"/>
     </g>
     <g id="text_15">
      <!-- 12 -->
      <g style="fill: #262626" transform="translate(41.9715 57.891584) scale(0.176 -0.176)">
       <defs>
        <path id="ArialMT-32" d="M 3222 541 
L 3222 0 
L 194 0 
Q 188 203 259 391 
Q 375 700 629 1000 
Q 884 1300 1366 1694 
Q 2113 2306 2375 2664 
Q 2638 3022 2638 3341 
Q 2638 3675 2398 3904 
Q 2159 4134 1775 4134 
Q 1369 4134 1125 3890 
Q 881 3647 878 3216 
L 300 3275 
Q 359 3922 746 4261 
Q 1134 4600 1788 4600 
Q 2447 4600 2831 4234 
Q 3216 3869 3216 3328 
Q 3216 3053 3103 2787 
Q 2991 2522 2730 2228 
Q 2469 1934 1863 1422 
Q 1356 997 1212 845 
Q 1069 694 975 541 
L 3222 541 
z
" transform="scale(0.015625)"/>
       </defs>
       <use xlink:href="#ArialMT-31"/>
       <use xlink:href="#ArialMT-32" transform="translate(55.615234 0)"/>
      </g>
     </g>
    </g>
    <g id="text_16">
     <!-- mean train pchembl value -->
     <g style="fill: #262626" transform="translate(34.1555 453.059674) rotate(-90) scale(0.192 -0.192)">
      <defs>
       <path id="ArialMT-20" transform="scale(0.015625)"/>
       <path id="ArialMT-68" d="M 422 0 
L 422 4581 
L 984 4581 
L 984 2938 
Q 1378 3394 1978 3394 
Q 2347 3394 2619 3248 
Q 2891 3103 3008 2847 
Q 3125 2591 3125 2103 
L 3125 0 
L 2563 0 
L 2563 2103 
Q 2563 2525 2380 2717 
Q 2197 2909 1863 2909 
Q 1613 2909 1392 2779 
Q 1172 2650 1078 2428 
Q 984 2206 984 1816 
L 984 0 
L 422 0 
z
" transform="scale(0.015625)"/>
       <path id="ArialMT-62" d="M 941 0 
L 419 0 
L 419 4581 
L 981 4581 
L 981 2947 
Q 1338 3394 1891 3394 
Q 2197 3394 2470 3270 
Q 2744 3147 2920 2923 
Q 3097 2700 3197 2384 
Q 3297 2069 3297 1709 
Q 3297 856 2875 390 
Q 2453 -75 1863 -75 
Q 1275 -75 941 416 
L 941 0 
z
M 934 1684 
Q 934 1088 1097 822 
Q 1363 388 1816 388 
Q 2184 388 2453 708 
Q 2722 1028 2722 1663 
Q 2722 2313 2464 2622 
Q 2206 2931 1841 2931 
Q 1472 2931 1203 2611 
Q 934 2291 934 1684 
z
" transform="scale(0.015625)"/>
       <path id="ArialMT-76" d="M 1344 0 
L 81 3319 
L 675 3319 
L 1388 1331 
Q 1503 1009 1600 663 
Q 1675 925 1809 1294 
L 2547 3319 
L 3125 3319 
L 1869 0 
L 1344 0 
z
" transform="scale(0.015625)"/>
       <path id="ArialMT-75" d="M 2597 0 
L 2597 488 
Q 2209 -75 1544 -75 
Q 1250 -75 995 37 
Q 741 150 617 320 
Q 494 491 444 738 
Q 409 903 409 1263 
L 409 3319 
L 972 3319 
L 972 1478 
Q 972 1038 1006 884 
Q 1059 663 1231 536 
Q 1403 409 1656 409 
Q 1909 409 2131 539 
Q 2353 669 2445 892 
Q 2538 1116 2538 1541 
L 2538 3319 
L 3100 3319 
L 3100 0 
L 2597 0 
z
" transform="scale(0.015625)"/>
      </defs>
      <use xlink:href="#ArialMT-6d"/>
      <use xlink:href="#ArialMT-65" transform="translate(83.300781 0)"/>
      <use xlink:href="#ArialMT-61" transform="translate(138.916016 0)"/>
      <use xlink:href="#ArialMT-6e" transform="translate(194.53125 0)"/>
      <use xlink:href="#ArialMT-20" transform="translate(250.146484 0)"/>
      <use xlink:href="#ArialMT-74" transform="translate(277.929688 0)"/>
      <use xlink:href="#ArialMT-72" transform="translate(305.712891 0)"/>
      <use xlink:href="#ArialMT-61" transform="translate(339.013672 0)"/>
      <use xlink:href="#ArialMT-69" transform="translate(394.628906 0)"/>
      <use xlink:href="#ArialMT-6e" transform="translate(416.845703 0)"/>
      <use xlink:href="#ArialMT-20" transform="translate(472.460938 0)"/>
      <use xlink:href="#ArialMT-70" transform="translate(500.244141 0)"/>
      <use xlink:href="#ArialMT-63" transform="translate(555.859375 0)"/>
      <use xlink:href="#ArialMT-68" transform="translate(605.859375 0)"/>
      <use xlink:href="#ArialMT-65" transform="translate(661.474609 0)"/>
      <use xlink:href="#ArialMT-6d" transform="translate(717.089844 0)"/>
      <use xlink:href="#ArialMT-62" transform="translate(800.390625 0)"/>
      <use xlink:href="#ArialMT-6c" transform="translate(856.005859 0)"/>
      <use xlink:href="#ArialMT-20" transform="translate(878.222656 0)"/>
      <use xlink:href="#ArialMT-76" transform="translate(906.005859 0)"/>
      <use xlink:href="#ArialMT-61" transform="translate(956.005859 0)"/>
      <use xlink:href="#ArialMT-6c" transform="translate(1011.621094 0)"/>
      <use xlink:href="#ArialMT-75" transform="translate(1033.837891 0)"/>
      <use xlink:href="#ArialMT-65" transform="translate(1089.453125 0)"/>
     </g>
    </g>
   </g>
   <g id="FillBetweenPolyCollection_1">
    <defs>
     <path id="m2e21c6e2d1" d="M 137.638234 -292.712235 
L 136.82475 -292.712235 
L 136.501681 -294.997835 
L 136.004013 -297.283434 
L 135.29225 -299.569034 
L 134.346252 -301.854634 
L 133.176126 -304.140233 
L 131.826288 -306.425833 
L 130.369852 -308.711433 
L 128.894702 -310.997032 
L 127.486421 -313.282632 
L 126.213975 -315.568232 
L 125.121132 -317.853831 
L 124.222304 -320.139431 
L 123.499296 -322.425031 
L 122.897264 -324.71063 
L 122.322754 -326.99623 
L 121.650675 -329.28183 
L 120.747222 -331.56743 
L 119.510724 -333.853029 
L 117.922864 -336.138629 
L 116.091815 -338.424229 
L 114.262468 -340.709828 
L 112.774247 -342.995428 
L 111.967125 -345.281028 
L 112.064901 -347.566627 
L 113.08528 -349.852227 
L 114.822321 -352.137827 
L 116.915088 -354.423426 
L 118.972703 -356.709026 
L 120.696554 -358.994626 
L 121.944099 -361.280225 
L 122.713059 -363.565825 
L 123.068284 -365.851425 
L 123.060131 -368.137024 
L 122.679558 -370.422624 
L 121.86747 -372.708224 
L 120.563664 -374.993823 
L 118.762535 -377.279423 
L 116.54565 -379.565023 
L 114.079038 -381.850623 
L 111.582325 -384.136222 
L 109.286998 -386.421822 
L 107.399072 -388.707422 
L 106.072292 -390.993021 
L 105.389442 -393.278621 
L 105.347234 -395.564221 
L 105.844896 -397.84982 
L 106.68392 -400.13542 
L 107.589845 -402.42102 
L 108.262213 -404.706619 
L 108.446153 -406.992219 
L 108.004672 -409.277819 
L 106.963453 -411.563418 
L 105.506224 -413.849018 
L 103.917433 -416.134618 
L 102.491368 -418.420217 
L 101.44126 -420.705817 
L 100.841112 -422.991417 
L 100.618318 -425.277016 
L 100.595064 -427.562616 
L 100.560233 -429.848216 
L 100.346392 -432.133816 
L 99.888217 -434.419415 
L 99.246622 -436.705015 
L 98.594005 -438.990615 
L 98.167439 -441.276214 
L 98.205281 -443.561814 
L 98.885722 -445.847414 
L 100.282958 -448.133013 
L 102.350234 -450.418613 
L 104.932076 -452.704213 
L 107.802063 -454.989812 
L 110.716991 -457.275412 
L 113.47339 -459.561012 
L 115.949942 -461.846611 
L 118.122048 -464.132211 
L 120.043327 -466.417811 
L 121.800851 -468.70341 
L 123.461629 -470.98901 
L 125.032443 -473.27461 
L 126.450739 -475.560209 
L 127.611446 -477.845809 
L 128.418303 -480.131409 
L 128.836258 -482.417008 
L 128.920482 -484.702608 
L 128.808739 -486.988208 
L 128.681416 -489.273808 
L 128.707869 -491.559407 
L 129.00146 -493.845007 
L 129.598234 -496.130607 
L 130.461507 -498.416206 
L 131.504348 -500.701806 
L 132.618349 -502.987406 
L 133.699405 -505.273005 
L 134.665744 -507.558605 
L 135.467033 -509.844205 
L 136.08537 -512.129804 
L 136.529901 -514.415404 
L 136.827621 -516.701004 
L 137.013281 -518.986603 
L 137.449703 -518.986603 
L 137.449703 -518.986603 
L 137.635363 -516.701004 
L 137.933083 -514.415404 
L 138.377614 -512.129804 
L 138.995951 -509.844205 
L 139.79724 -507.558605 
L 140.763579 -505.273005 
L 141.844635 -502.987406 
L 142.958636 -500.701806 
L 144.001477 -498.416206 
L 144.86475 -496.130607 
L 145.461524 -493.845007 
L 145.755115 -491.559407 
L 145.781568 -489.273808 
L 145.654245 -486.988208 
L 145.542502 -484.702608 
L 145.626726 -482.417008 
L 146.044681 -480.131409 
L 146.851538 -477.845809 
L 148.012245 -475.560209 
L 149.430541 -473.27461 
L 151.001355 -470.98901 
L 152.662133 -468.70341 
L 154.419658 -466.417811 
L 156.340936 -464.132211 
L 158.513042 -461.846611 
L 160.989594 -459.561012 
L 163.745993 -457.275412 
L 166.660921 -454.989812 
L 169.530908 -452.704213 
L 172.11275 -450.418613 
L 174.180026 -448.133013 
L 175.577262 -445.847414 
L 176.257703 -443.561814 
L 176.295545 -441.276214 
L 175.868979 -438.990615 
L 175.216362 -436.705015 
L 174.574767 -434.419415 
L 174.116592 -432.133816 
L 173.902751 -429.848216 
L 173.86792 -427.562616 
L 173.844666 -425.277016 
L 173.621872 -422.991417 
L 173.021724 -420.705817 
L 171.971616 -418.420217 
L 170.545551 -416.134618 
L 168.95676 -413.849018 
L 167.499531 -411.563418 
L 166.458312 -409.277819 
L 166.016831 -406.992219 
L 166.200771 -404.706619 
L 166.873139 -402.42102 
L 167.779064 -400.13542 
L 168.618088 -397.84982 
L 169.11575 -395.564221 
L 169.073542 -393.278621 
L 168.390692 -390.993021 
L 167.063912 -388.707422 
L 165.175987 -386.421822 
L 162.880659 -384.136222 
L 160.383946 -381.850623 
L 157.917334 -379.565023 
L 155.700449 -377.279423 
L 153.89932 -374.993823 
L 152.595514 -372.708224 
L 151.783426 -370.422624 
L 151.402853 -368.137024 
L 151.3947 -365.851425 
L 151.749925 -363.565825 
L 152.518885 -361.280225 
L 153.76643 -358.994626 
L 155.490281 -356.709026 
L 157.547896 -354.423426 
L 159.640663 -352.137827 
L 161.377704 -349.852227 
L 162.398083 -347.566627 
L 162.495859 -345.281028 
L 161.688737 -342.995428 
L 160.200516 -340.709828 
L 158.371169 -338.424229 
L 156.54012 -336.138629 
L 154.95226 -333.853029 
L 153.715762 -331.56743 
L 152.812309 -329.28183 
L 152.14023 -326.99623 
L 151.56572 -324.71063 
L 150.963688 -322.425031 
L 150.24068 -320.139431 
L 149.341852 -317.853831 
L 148.249009 -315.568232 
L 146.976563 -313.282632 
L 145.568282 -310.997032 
L 144.093132 -308.711433 
L 142.636696 -306.425833 
L 141.286858 -304.140233 
L 140.116732 -301.854634 
L 139.170734 -299.569034 
L 138.458971 -297.283434 
L 137.961303 -294.997835 
L 137.638234 -292.712235 
z
" style="stroke: #494949"/>
    </defs>
    <g clip-path="url(#pe458ac824c)">
     <use xlink:href="#m2e21c6e2d1" x="0" y="864" style="fill: #5875a4; stroke: #494949"/>
    </g>
   </g>
   <g id="FillBetweenPolyCollection_2">
    <defs>
     <path id="m856bd8dd72" d="M 235.144727 -290.902567 
L 234.638524 -290.902567 
L 234.409231 -293.288978 
L 234.032889 -295.67539 
L 233.460587 -298.061801 
L 232.653102 -300.448213 
L 231.594064 -302.834624 
L 230.300003 -305.221036 
L 228.822803 -307.607447 
L 227.242779 -309.993859 
L 225.654367 -312.38027 
L 224.148934 -314.766682 
L 222.799293 -317.153093 
L 221.648416 -319.539505 
L 220.702703 -321.925917 
L 219.929252 -324.312328 
L 219.257562 -326.69874 
L 218.588118 -329.085151 
L 217.81152 -331.471563 
L 216.839935 -333.857974 
L 215.646195 -336.244386 
L 214.296846 -338.630797 
L 212.960078 -341.017209 
L 211.8747 -343.40362 
L 211.283375 -345.790032 
L 211.353862 -348.176443 
L 212.122065 -350.562855 
L 213.481413 -352.949266 
L 215.218828 -355.335678 
L 217.074378 -357.722089 
L 218.794875 -360.108501 
L 220.163936 -362.494912 
L 221.011234 -364.881324 
L 221.216166 -367.267735 
L 220.718597 -369.654147 
L 219.536212 -372.040558 
L 217.776028 -374.42697 
L 215.625861 -376.813381 
L 213.321232 -379.199793 
L 211.097466 -381.586204 
L 209.145908 -383.972616 
L 207.590795 -386.359027 
L 206.49051 -388.745439 
L 205.85206 -391.13185 
L 205.641323 -393.518262 
L 205.778854 -395.904673 
L 206.127506 -398.291085 
L 206.491756 -400.677497 
L 206.648198 -403.063908 
L 206.409305 -405.45032 
L 205.697523 -407.836731 
L 204.590479 -410.223143 
L 203.304567 -412.609554 
L 202.11373 -414.995966 
L 201.237089 -417.382377 
L 200.749457 -419.768789 
L 200.558314 -422.1552 
L 200.455423 -424.541612 
L 200.213848 -426.928023 
L 199.683672 -429.314435 
L 198.848215 -431.700846 
L 197.826205 -434.087258 
L 196.828733 -436.473669 
L 196.094149 -438.860081 
L 195.827572 -441.246492 
L 196.165084 -443.632904 
L 197.167698 -446.019315 
L 198.833233 -448.405727 
L 201.106554 -450.792138 
L 203.877105 -453.17855 
L 206.971489 -455.564961 
L 210.161565 -457.951373 
L 213.202196 -460.337784 
L 215.890852 -462.724196 
L 218.121004 -465.110607 
L 219.899434 -467.497019 
L 221.316595 -469.88343 
L 222.486037 -472.269842 
L 223.485894 -474.656254 
L 224.332648 -477.042665 
L 224.997618 -479.429077 
L 225.452513 -481.815488 
L 225.715367 -484.2019 
L 225.869947 -486.588311 
L 226.047782 -488.974723 
L 226.382639 -491.361134 
L 226.96097 -493.747546 
L 227.792106 -496.133957 
L 228.810178 -498.520369 
L 229.903588 -500.90678 
L 230.956054 -503.293192 
L 231.880974 -505.679603 
L 232.637347 -508.066015 
L 233.225944 -510.452426 
L 233.673041 -512.838838 
L 234.012105 -515.225249 
L 234.271317 -517.611661 
L 234.469401 -519.998072 
L 234.617603 -522.384484 
L 234.723748 -524.770895 
L 234.795257 -527.157307 
L 234.987994 -527.157307 
L 234.987994 -527.157307 
L 235.059503 -524.770895 
L 235.165648 -522.384484 
L 235.31385 -519.998072 
L 235.511934 -517.611661 
L 235.771146 -515.225249 
L 236.11021 -512.838838 
L 236.557306 -510.452426 
L 237.145903 -508.066015 
L 237.902277 -505.679603 
L 238.827197 -503.293192 
L 239.879662 -500.90678 
L 240.973073 -498.520369 
L 241.991145 -496.133957 
L 242.82228 -493.747546 
L 243.400612 -491.361134 
L 243.735469 -488.974723 
L 243.913304 -486.588311 
L 244.067883 -484.2019 
L 244.330737 -481.815488 
L 244.785632 -479.429077 
L 245.450603 -477.042665 
L 246.297357 -474.656254 
L 247.297214 -472.269842 
L 248.466656 -469.88343 
L 249.883817 -467.497019 
L 251.662247 -465.110607 
L 253.892399 -462.724196 
L 256.581054 -460.337784 
L 259.621685 -457.951373 
L 262.811762 -455.564961 
L 265.906146 -453.17855 
L 268.676696 -450.792138 
L 270.950018 -448.405727 
L 272.615553 -446.019315 
L 273.618166 -443.632904 
L 273.955679 -441.246492 
L 273.689101 -438.860081 
L 272.954518 -436.473669 
L 271.957046 -434.087258 
L 270.935036 -431.700846 
L 270.099579 -429.314435 
L 269.569402 -426.928023 
L 269.327828 -424.541612 
L 269.224937 -422.1552 
L 269.033794 -419.768789 
L 268.546162 -417.382377 
L 267.669521 -414.995966 
L 266.478684 -412.609554 
L 265.192772 -410.223143 
L 264.085728 -407.836731 
L 263.373946 -405.45032 
L 263.135053 -403.063908 
L 263.291495 -400.677497 
L 263.655745 -398.291085 
L 264.004397 -395.904673 
L 264.141928 -393.518262 
L 263.93119 -391.13185 
L 263.292741 -388.745439 
L 262.192455 -386.359027 
L 260.637343 -383.972616 
L 258.685785 -381.586204 
L 256.462019 -379.199793 
L 254.15739 -376.813381 
L 252.007222 -374.42697 
L 250.247038 -372.040558 
L 249.064654 -369.654147 
L 248.567084 -367.267735 
L 248.772017 -364.881324 
L 249.619314 -362.494912 
L 250.988376 -360.108501 
L 252.708872 -357.722089 
L 254.564423 -355.335678 
L 256.301838 -352.949266 
L 257.661186 -350.562855 
L 258.429389 -348.176443 
L 258.499875 -345.790032 
L 257.908551 -343.40362 
L 256.823173 -341.017209 
L 255.486404 -338.630797 
L 254.137055 -336.244386 
L 252.943316 -333.857974 
L 251.97173 -331.471563 
L 251.195132 -329.085151 
L 250.525689 -326.69874 
L 249.853999 -324.312328 
L 249.080547 -321.925917 
L 248.134835 -319.539505 
L 246.983958 -317.153093 
L 245.634316 -314.766682 
L 244.128884 -312.38027 
L 242.540471 -309.993859 
L 240.960448 -307.607447 
L 239.483248 -305.221036 
L 238.189187 -302.834624 
L 237.130149 -300.448213 
L 236.322664 -298.061801 
L 235.750362 -295.67539 
L 235.37402 -293.288978 
L 235.144727 -290.902567 
z
" style="stroke: #494949"/>
    </defs>
    <g clip-path="url(#pe458ac824c)">
     <use xlink:href="#m856bd8dd72" x="0" y="864" style="fill: #cc8963; stroke: #494949"/>
    </g>
   </g>
   <g id="FillBetweenPolyCollection_3">
    <defs>
     <path id="m21ada54f43" d="M 332.693188 -260.068646 
L 332.41033 -260.068646 
L 332.27219 -263.299451 
L 332.058486 -266.530256 
L 331.772072 -269.761061 
L 331.441461 -272.991867 
L 331.114743 -276.222672 
L 330.838187 -279.453477 
L 330.629952 -282.684283 
L 330.464332 -285.915088 
L 330.273792 -289.145893 
L 329.962826 -292.376698 
L 329.423459 -295.607504 
L 328.549909 -298.838309 
L 327.258061 -302.069114 
L 325.512384 -305.299919 
L 323.351269 -308.530725 
L 320.894862 -311.76153 
L 318.325911 -314.992335 
L 315.849361 -318.22314 
L 313.647343 -321.453946 
L 311.845227 -324.684751 
L 310.496579 -327.915556 
L 309.58997 -331.146362 
L 309.078984 -334.377167 
L 308.926963 -337.607972 
L 309.137785 -340.838777 
L 309.736233 -344.069583 
L 310.693363 -347.300388 
L 311.849526 -350.531193 
L 312.911727 -353.761998 
L 313.552842 -356.992804 
L 313.554869 -360.223609 
L 312.898738 -363.454414 
L 311.745798 -366.685219 
L 310.334088 -369.916025 
L 308.856996 -373.14683 
L 307.384888 -376.377635 
L 305.862126 -379.60844 
L 304.182987 -382.839246 
L 302.312543 -386.070051 
L 300.377108 -389.300856 
L 298.644941 -392.531662 
L 297.384623 -395.762467 
L 296.690089 -398.993272 
L 296.40692 -402.224077 
L 296.226962 -405.454883 
L 295.8849 -408.685688 
L 295.309468 -411.916493 
L 294.626708 -415.147298 
L 294.03609 -418.378104 
L 293.667892 -421.608909 
L 293.519118 -424.839714 
L 293.491142 -428.070519 
L 293.487705 -431.301325 
L 293.51019 -434.53213 
L 293.69695 -437.762935 
L 294.280218 -440.99374 
L 295.47553 -444.224546 
L 297.362559 -447.455351 
L 299.82999 -450.686156 
L 302.618415 -453.916962 
L 305.42884 -457.147767 
L 308.025877 -460.378572 
L 310.284595 -463.609377 
L 312.182263 -466.840183 
L 313.769061 -470.070988 
L 315.142386 -473.301793 
L 316.421767 -476.532598 
L 317.713136 -479.763404 
L 319.069851 -482.994209 
L 320.476084 -486.225014 
L 321.869389 -489.455819 
L 323.188335 -492.686625 
L 324.408899 -495.91743 
L 325.54288 -499.148235 
L 326.605309 -502.37904 
L 327.58457 -505.609846 
L 328.443851 -508.840651 
L 329.151384 -512.071456 
L 329.709987 -515.302262 
L 330.158449 -518.533067 
L 330.544107 -521.763872 
L 330.891064 -524.994677 
L 331.1901 -528.225483 
L 331.415714 -531.456288 
L 331.553185 -534.687093 
L 331.613111 -537.917898 
L 331.624596 -541.148704 
L 331.616914 -544.379509 
L 331.606981 -547.610314 
L 331.601587 -550.841119 
L 331.60837 -554.071925 
L 331.642044 -557.30273 
L 331.718475 -560.533535 
L 331.842163 -563.764341 
L 331.999266 -566.995146 
L 332.162841 -570.225951 
L 332.305978 -573.456756 
L 332.412907 -576.687562 
L 332.481814 -579.918367 
L 332.621704 -579.918367 
L 332.621704 -579.918367 
L 332.69061 -576.687562 
L 332.797539 -573.456756 
L 332.940676 -570.225951 
L 333.104252 -566.995146 
L 333.261354 -563.764341 
L 333.385042 -560.533535 
L 333.461473 -557.30273 
L 333.495147 -554.071925 
L 333.501931 -550.841119 
L 333.496536 -547.610314 
L 333.486604 -544.379509 
L 333.478921 -541.148704 
L 333.490406 -537.917898 
L 333.550333 -534.687093 
L 333.687804 -531.456288 
L 333.913418 -528.225483 
L 334.212453 -524.994677 
L 334.55941 -521.763872 
L 334.945068 -518.533067 
L 335.393531 -515.302262 
L 335.952133 -512.071456 
L 336.659666 -508.840651 
L 337.518948 -505.609846 
L 338.498209 -502.37904 
L 339.560637 -499.148235 
L 340.694618 -495.91743 
L 341.915183 -492.686625 
L 343.234129 -489.455819 
L 344.627434 -486.225014 
L 346.033667 -482.994209 
L 347.390381 -479.763404 
L 348.681751 -476.532598 
L 349.961131 -473.301793 
L 351.334457 -470.070988 
L 352.921254 -466.840183 
L 354.818922 -463.609377 
L 357.077641 -460.378572 
L 359.674678 -457.147767 
L 362.485102 -453.916962 
L 365.273528 -450.686156 
L 367.740959 -447.455351 
L 369.627988 -444.224546 
L 370.823299 -440.99374 
L 371.406568 -437.762935 
L 371.593327 -434.53213 
L 371.615812 -431.301325 
L 371.612376 -428.070519 
L 371.584399 -424.839714 
L 371.435625 -421.608909 
L 371.067427 -418.378104 
L 370.47681 -415.147298 
L 369.79405 -411.916493 
L 369.218617 -408.685688 
L 368.876555 -405.454883 
L 368.696597 -402.224077 
L 368.413429 -398.993272 
L 367.718894 -395.762467 
L 366.458576 -392.531662 
L 364.726409 -389.300856 
L 362.790974 -386.070051 
L 360.920531 -382.839246 
L 359.241391 -379.60844 
L 357.718629 -376.377635 
L 356.246521 -373.14683 
L 354.769429 -369.916025 
L 353.35772 -366.685219 
L 352.20478 -363.454414 
L 351.548649 -360.223609 
L 351.550675 -356.992804 
L 352.191791 -353.761998 
L 353.253991 -350.531193 
L 354.410155 -347.300388 
L 355.367285 -344.069583 
L 355.965733 -340.838777 
L 356.176555 -337.607972 
L 356.024533 -334.377167 
L 355.513547 -331.146362 
L 354.606939 -327.915556 
L 353.25829 -324.684751 
L 351.456175 -321.453946 
L 349.254156 -318.22314 
L 346.777607 -314.992335 
L 344.208655 -311.76153 
L 341.752248 -308.530725 
L 339.591133 -305.299919 
L 337.845456 -302.069114 
L 336.553609 -298.838309 
L 335.680058 -295.607504 
L 335.140691 -292.376698 
L 334.829726 -289.145893 
L 334.639185 -285.915088 
L 334.473566 -282.684283 
L 334.265331 -279.453477 
L 333.988775 -276.222672 
L 333.662057 -272.991867 
L 333.331445 -269.761061 
L 333.045031 -266.530256 
L 332.831327 -263.299451 
L 332.693188 -260.068646 
z
" style="stroke: #494949"/>
    </defs>
    <g clip-path="url(#pe458ac824c)">
     <use xlink:href="#m21ada54f43" x="0" y="864" style="fill: #5f9e6e; stroke: #494949"/>
    </g>
   </g>
   <g id="FillBetweenPolyCollection_4">
    <defs>
     <path id="md59d2ac1d0" d="M 430.262035 -248.741632 
L 430.16175 -248.741632 
L 430.111253 -252.101762 
L 430.03087 -255.461892 
L 429.917545 -258.822023 
L 429.774698 -262.182153 
L 429.612211 -265.542283 
L 429.445165 -268.902413 
L 429.29297 -272.262543 
L 429.178048 -275.622673 
L 429.120853 -278.982803 
L 429.130477 -282.342933 
L 429.195603 -285.703063 
L 429.282105 -289.063194 
L 429.337722 -292.423324 
L 429.29703 -295.783454 
L 429.080821 -299.143584 
L 428.594431 -302.503714 
L 427.738495 -305.863844 
L 426.439317 -309.223974 
L 424.684601 -312.584104 
L 422.535164 -315.944234 
L 420.097262 -319.304365 
L 417.476896 -322.664495 
L 414.75853 -326.024625 
L 412.028382 -329.384755 
L 409.418056 -332.744885 
L 407.126023 -336.105015 
L 405.396658 -339.465145 
L 404.466109 -342.825275 
L 404.492992 -346.185405 
L 405.491333 -349.545535 
L 407.291927 -352.905666 
L 409.562925 -356.265796 
L 411.895501 -359.625926 
L 413.913843 -362.986056 
L 415.343392 -366.346186 
L 416.001366 -369.706316 
L 415.743399 -373.066446 
L 414.447451 -376.426576 
L 412.085254 -379.786706 
L 408.838202 -383.146837 
L 405.147248 -386.506967 
L 401.62044 -389.867097 
L 398.832502 -393.227227 
L 397.132923 -396.587357 
L 396.561149 -399.947487 
L 396.883485 -403.307617 
L 397.701477 -406.667747 
L 398.574308 -410.027877 
L 399.121744 -413.388008 
L 399.094672 -416.748138 
L 398.408947 -420.108268 
L 397.141725 -423.468398 
L 395.495829 -426.828528 
L 393.750836 -430.188658 
L 392.225749 -433.548788 
L 391.255716 -436.908918 
L 391.147839 -440.269048 
L 392.08379 -443.629179 
L 394.002294 -446.989309 
L 396.557927 -450.349439 
L 399.227436 -453.709569 
L 401.526479 -457.069699 
L 403.209948 -460.429829 
L 404.339689 -463.789959 
L 405.194845 -467.150089 
L 406.093518 -470.510219 
L 407.23406 -473.87035 
L 408.639308 -477.23048 
L 410.215072 -480.59061 
L 411.858707 -483.95074 
L 413.530098 -487.31087 
L 415.244245 -490.671 
L 417.016184 -494.03113 
L 418.819393 -497.39126 
L 420.589291 -500.75139 
L 422.254403 -504.111521 
L 423.759773 -507.471651 
L 425.068593 -510.831781 
L 426.155518 -514.191911 
L 427.00811 -517.552041 
L 427.635757 -520.912171 
L 428.073178 -524.272301 
L 428.371193 -527.632431 
L 428.580435 -530.992561 
L 428.738914 -534.352691 
L 428.86852 -537.712822 
L 428.977844 -541.072952 
L 429.066952 -544.433082 
L 429.133018 -547.793212 
L 429.17739 -551.153342 
L 429.211858 -554.513472 
L 429.258675 -557.873602 
L 429.341167 -561.233732 
L 429.469673 -564.593862 
L 429.633414 -567.953993 
L 429.805368 -571.314123 
L 429.956601 -574.674253 
L 430.069431 -578.034383 
L 430.141495 -581.394513 
L 430.282289 -581.394513 
L 430.282289 -581.394513 
L 430.354353 -578.034383 
L 430.467183 -574.674253 
L 430.618416 -571.314123 
L 430.79037 -567.953993 
L 430.954111 -564.593862 
L 431.082617 -561.233732 
L 431.165109 -557.873602 
L 431.211926 -554.513472 
L 431.246394 -551.153342 
L 431.290766 -547.793212 
L 431.356833 -544.433082 
L 431.44594 -541.072952 
L 431.555264 -537.712822 
L 431.68487 -534.352691 
L 431.843349 -530.992561 
L 432.052592 -527.632431 
L 432.350606 -524.272301 
L 432.788027 -520.912171 
L 433.415674 -517.552041 
L 434.268267 -514.191911 
L 435.355191 -510.831781 
L 436.664011 -507.471651 
L 438.169381 -504.111521 
L 439.834493 -500.75139 
L 441.604391 -497.39126 
L 443.4076 -494.03113 
L 445.179539 -490.671 
L 446.893686 -487.31087 
L 448.565077 -483.95074 
L 450.208712 -480.59061 
L 451.784476 -477.23048 
L 453.189724 -473.87035 
L 454.330266 -470.510219 
L 455.228939 -467.150089 
L 456.084095 -463.789959 
L 457.213836 -460.429829 
L 458.897306 -457.069699 
L 461.196348 -453.709569 
L 463.865857 -450.349439 
L 466.421491 -446.989309 
L 468.339994 -443.629179 
L 469.275945 -440.269048 
L 469.168068 -436.908918 
L 468.198035 -433.548788 
L 466.672948 -430.188658 
L 464.927955 -426.828528 
L 463.28206 -423.468398 
L 462.014837 -420.108268 
L 461.329112 -416.748138 
L 461.30204 -413.388008 
L 461.849476 -410.027877 
L 462.722307 -406.667747 
L 463.5403 -403.307617 
L 463.862635 -399.947487 
L 463.290862 -396.587357 
L 461.591282 -393.227227 
L 458.803344 -389.867097 
L 455.276537 -386.506967 
L 451.585582 -383.146837 
L 448.338531 -379.786706 
L 445.976333 -376.426576 
L 444.680386 -373.066446 
L 444.422418 -369.706316 
L 445.080392 -366.346186 
L 446.509941 -362.986056 
L 448.528283 -359.625926 
L 450.86086 -356.265796 
L 453.131857 -352.905666 
L 454.932451 -349.545535 
L 455.930792 -346.185405 
L 455.957676 -342.825275 
L 455.027126 -339.465145 
L 453.297761 -336.105015 
L 451.005728 -332.744885 
L 448.395402 -329.384755 
L 445.665254 -326.024625 
L 442.946888 -322.664495 
L 440.326522 -319.304365 
L 437.88862 -315.944234 
L 435.739183 -312.584104 
L 433.984468 -309.223974 
L 432.685289 -305.863844 
L 431.829353 -302.503714 
L 431.342963 -299.143584 
L 431.126755 -295.783454 
L 431.086062 -292.423324 
L 431.14168 -289.063194 
L 431.228181 -285.703063 
L 431.293307 -282.342933 
L 431.302931 -278.982803 
L 431.245736 -275.622673 
L 431.130814 -272.262543 
L 430.978619 -268.902413 
L 430.811573 -265.542283 
L 430.649086 -262.182153 
L 430.506239 -258.822023 
L 430.392914 -255.461892 
L 430.312531 -252.101762 
L 430.262035 -248.741632 
z
" style="stroke: #494949"/>
    </defs>
    <g clip-path="url(#pe458ac824c)">
     <use xlink:href="#md59d2ac1d0" x="0" y="864" style="fill: #b55d60; stroke: #494949"/>
    </g>
   </g>
   <g id="FillBetweenPolyCollection_5">
    <defs>
     <path id="m719631d0d9" d="M 527.981448 -235.431789 
L 527.762603 -235.431789 
L 527.665705 -238.237556 
L 527.515462 -241.043324 
L 527.306266 -243.849092 
L 527.045861 -246.65486 
L 526.757919 -249.460628 
L 526.477696 -252.266395 
L 526.240873 -255.072163 
L 526.070223 -257.877931 
L 525.967032 -260.683699 
L 525.911863 -263.489467 
L 525.873406 -266.295234 
L 525.819116 -269.101002 
L 525.720841 -271.90677 
L 525.552831 -274.712538 
L 525.284773 -277.518306 
L 524.874652 -280.324073 
L 524.264664 -283.129841 
L 523.380886 -285.935609 
L 522.137655 -288.741377 
L 520.450482 -291.547145 
L 518.262103 -294.352912 
L 515.580018 -297.15868 
L 512.511553 -299.964448 
L 509.273924 -302.770216 
L 506.162776 -305.575984 
L 503.484069 -308.381752 
L 501.477225 -311.187519 
L 500.264096 -313.993287 
L 499.842244 -316.799055 
L 500.114581 -319.604823 
L 500.930512 -322.410591 
L 502.116754 -325.216358 
L 503.492078 -328.022126 
L 504.874231 -330.827894 
L 506.090001 -333.633662 
L 506.992954 -336.43943 
L 507.485392 -339.245197 
L 507.535842 -342.050965 
L 507.181436 -344.856733 
L 506.507072 -347.662501 
L 505.603007 -350.468269 
L 504.517761 -353.274036 
L 503.233267 -356.079804 
L 501.682161 -358.885572 
L 499.803281 -361.69134 
L 497.607183 -364.497108 
L 495.217061 -367.302875 
L 492.86475 -370.108643 
L 490.842925 -372.914411 
L 489.429596 -375.720179 
L 488.807972 -378.525947 
L 489.008247 -381.331714 
L 489.895699 -384.137482 
L 491.213914 -386.94325 
L 492.665021 -389.749018 
L 493.988922 -392.554786 
L 495.008445 -395.360553 
L 495.633768 -398.166321 
L 495.843636 -400.972089 
L 495.663984 -403.777857 
L 495.151432 -406.583625 
L 494.379018 -409.389392 
L 493.424357 -412.19516 
L 492.366692 -415.000928 
L 491.295289 -417.806696 
L 490.318568 -420.612464 
L 489.557002 -423.418231 
L 489.114936 -426.223999 
L 489.049158 -429.029767 
L 489.36288 -431.835535 
L 490.037591 -434.641303 
L 491.081703 -437.44707 
L 492.553528 -440.252838 
L 494.529988 -443.058606 
L 497.034465 -445.864374 
L 499.973247 -448.670142 
L 503.128919 -451.47591 
L 506.221153 -454.281677 
L 509.001037 -457.087445 
L 511.326949 -459.893213 
L 513.186738 -462.698981 
L 514.665304 -465.504749 
L 515.884392 -468.310516 
L 516.94861 -471.116284 
L 517.920164 -473.922052 
L 518.824782 -476.72782 
L 519.674683 -479.533588 
L 520.488934 -482.339355 
L 521.298127 -485.145123 
L 522.133128 -487.950891 
L 523.007882 -490.756659 
L 523.908335 -493.562427 
L 524.794126 -496.368194 
L 525.611757 -499.173962 
L 526.312385 -501.97973 
L 526.86627 -504.785498 
L 527.268677 -507.591266 
L 527.536628 -510.397033 
L 527.699823 -513.202801 
L 528.044227 -513.202801 
L 528.044227 -513.202801 
L 528.207423 -510.397033 
L 528.475374 -507.591266 
L 528.877781 -504.785498 
L 529.431666 -501.97973 
L 530.132294 -499.173962 
L 530.949925 -496.368194 
L 531.835716 -493.562427 
L 532.736169 -490.756659 
L 533.610922 -487.950891 
L 534.445924 -485.145123 
L 535.255117 -482.339355 
L 536.069368 -479.533588 
L 536.919269 -476.72782 
L 537.823887 -473.922052 
L 538.795441 -471.116284 
L 539.859659 -468.310516 
L 541.078746 -465.504749 
L 542.557313 -462.698981 
L 544.417101 -459.893213 
L 546.743014 -457.087445 
L 549.522897 -454.281677 
L 552.615132 -451.47591 
L 555.770804 -448.670142 
L 558.709586 -445.864374 
L 561.214063 -443.058606 
L 563.190523 -440.252838 
L 564.662348 -437.44707 
L 565.70646 -434.641303 
L 566.381171 -431.835535 
L 566.694892 -429.029767 
L 566.629114 -426.223999 
L 566.187049 -423.418231 
L 565.425483 -420.612464 
L 564.448762 -417.806696 
L 563.377359 -415.000928 
L 562.319694 -412.19516 
L 561.365033 -409.389392 
L 560.592619 -406.583625 
L 560.080067 -403.777857 
L 559.900415 -400.972089 
L 560.110283 -398.166321 
L 560.735606 -395.360553 
L 561.755129 -392.554786 
L 563.07903 -389.749018 
L 564.530137 -386.94325 
L 565.848352 -384.137482 
L 566.735804 -381.331714 
L 566.936079 -378.525947 
L 566.314455 -375.720179 
L 564.901126 -372.914411 
L 562.879301 -370.108643 
L 560.52699 -367.302875 
L 558.136867 -364.497108 
L 555.94077 -361.69134 
L 554.06189 -358.885572 
L 552.510784 -356.079804 
L 551.22629 -353.274036 
L 550.141044 -350.468269 
L 549.236979 -347.662501 
L 548.562615 -344.856733 
L 548.208209 -342.050965 
L 548.258659 -339.245197 
L 548.751097 -336.43943 
L 549.65405 -333.633662 
L 550.86982 -330.827894 
L 552.251973 -328.022126 
L 553.627297 -325.216358 
L 554.813539 -322.410591 
L 555.62947 -319.604823 
L 555.901807 -316.799055 
L 555.479955 -313.993287 
L 554.266826 -311.187519 
L 552.259982 -308.381752 
L 549.581274 -305.575984 
L 546.470127 -302.770216 
L 543.232498 -299.964448 
L 540.164033 -297.15868 
L 537.481948 -294.352912 
L 535.293569 -291.547145 
L 533.606395 -288.741377 
L 532.363165 -285.935609 
L 531.479386 -283.129841 
L 530.869399 -280.324073 
L 530.459278 -277.518306 
L 530.191219 -274.712538 
L 530.02321 -271.90677 
L 529.924934 -269.101002 
L 529.870645 -266.295234 
L 529.832188 -263.489467 
L 529.777019 -260.683699 
L 529.673828 -257.877931 
L 529.503178 -255.072163 
L 529.266355 -252.266395 
L 528.986132 -249.460628 
L 528.69819 -246.65486 
L 528.437785 -243.849092 
L 528.228588 -241.043324 
L 528.078346 -238.237556 
L 527.981448 -235.431789 
z
" style="stroke: #494949"/>
    </defs>
    <g clip-path="url(#pe458ac824c)">
     <use xlink:href="#m719631d0d9" x="0" y="864" style="fill: #857aab; stroke: #494949"/>
    </g>
   </g>
   <g id="FillBetweenPolyCollection_6">
    <defs>
     <path id="m033aa8e33b" d="M 625.960816 -293.588675 
L 625.103502 -293.588675 
L 624.7371 -295.932471 
L 624.159352 -298.276267 
L 623.32171 -300.620064 
L 622.205555 -302.96386 
L 620.838829 -305.307656 
L 619.300102 -307.651453 
L 617.704427 -309.995249 
L 616.174094 -312.339045 
L 614.806024 -314.682842 
L 613.649897 -317.026638 
L 612.704578 -319.370434 
L 611.929417 -321.714231 
L 611.259541 -324.058027 
L 610.615982 -326.401823 
L 609.910522 -328.74562 
L 609.053796 -331.089416 
L 607.975837 -333.433212 
L 606.659326 -335.777009 
L 605.172828 -338.120805 
L 603.683635 -340.464602 
L 602.433977 -342.808398 
L 601.680162 -345.152194 
L 601.613603 -347.495991 
L 602.294624 -349.839787 
L 603.626875 -352.183583 
L 605.38288 -354.52738 
L 607.268858 -356.871176 
L 609.001205 -359.214972 
L 610.365359 -361.558769 
L 611.239652 -363.902565 
L 611.584687 -366.246361 
L 611.413217 -368.590158 
L 610.760095 -370.933954 
L 609.666259 -373.27775 
L 608.179887 -375.621547 
L 606.368327 -377.965343 
L 604.330773 -380.309139 
L 602.203738 -382.652936 
L 600.15574 -384.996732 
L 598.370425 -387.340529 
L 597.018089 -389.684325 
L 596.216913 -392.028121 
L 595.990342 -394.371918 
L 596.234858 -396.715714 
L 596.717284 -399.05951 
L 597.115919 -401.403307 
L 597.103422 -403.747103 
L 596.44795 -406.090899 
L 595.094632 -408.434696 
L 593.192128 -410.778492 
L 591.05021 -413.122288 
L 589.044084 -415.466085 
L 587.503938 -417.809881 
L 586.631484 -420.153677 
L 586.468105 -422.497474 
L 586.912879 -424.84127 
L 587.769373 -427.185066 
L 588.797471 -429.528863 
L 589.757709 -431.872659 
L 590.448844 -434.216455 
L 590.743768 -436.560252 
L 590.623059 -438.904048 
L 590.196382 -441.247845 
L 589.697949 -443.591641 
L 589.446858 -445.935437 
L 589.774323 -448.279234 
L 590.933287 -450.62303 
L 593.017067 -452.966826 
L 595.917124 -455.310623 
L 599.341231 -457.654419 
L 602.892084 -459.998215 
L 606.180556 -462.342012 
L 608.93064 -464.685808 
L 611.035483 -467.029604 
L 612.546374 -469.373401 
L 613.607886 -471.717197 
L 614.37593 -474.060993 
L 614.958842 -476.40479 
L 615.404121 -478.748586 
L 615.72596 -481.092382 
L 615.947494 -483.436179 
L 616.128055 -485.779975 
L 616.35957 -488.123771 
L 616.737092 -490.467568 
L 617.322934 -492.811364 
L 618.124437 -495.155161 
L 619.094694 -497.498957 
L 620.152102 -499.842753 
L 621.206931 -502.18655 
L 622.18346 -504.530346 
L 623.031807 -506.874142 
L 623.729562 -509.217939 
L 624.276687 -511.561735 
L 624.687767 -513.905531 
L 624.984626 -516.249328 
L 625.19083 -518.593124 
L 625.328388 -520.93692 
L 625.416194 -523.280717 
L 625.469552 -525.624513 
L 625.594766 -525.624513 
L 625.594766 -525.624513 
L 625.648123 -523.280717 
L 625.73593 -520.93692 
L 625.873488 -518.593124 
L 626.079692 -516.249328 
L 626.376551 -513.905531 
L 626.787631 -511.561735 
L 627.334756 -509.217939 
L 628.032511 -506.874142 
L 628.880858 -504.530346 
L 629.857386 -502.18655 
L 630.912216 -499.842753 
L 631.969624 -497.498957 
L 632.93988 -495.155161 
L 633.741384 -492.811364 
L 634.327225 -490.467568 
L 634.704748 -488.123771 
L 634.936262 -485.779975 
L 635.116824 -483.436179 
L 635.338358 -481.092382 
L 635.660196 -478.748586 
L 636.105476 -476.40479 
L 636.688388 -474.060993 
L 637.456432 -471.717197 
L 638.517944 -469.373401 
L 640.028834 -467.029604 
L 642.133677 -464.685808 
L 644.883762 -462.342012 
L 648.172234 -459.998215 
L 651.723087 -457.654419 
L 655.147194 -455.310623 
L 658.04725 -452.966826 
L 660.13103 -450.62303 
L 661.289994 -448.279234 
L 661.617459 -445.935437 
L 661.366369 -443.591641 
L 660.867935 -441.247845 
L 660.441259 -438.904048 
L 660.32055 -436.560252 
L 660.615473 -434.216455 
L 661.306609 -431.872659 
L 662.266847 -429.528863 
L 663.294944 -427.185066 
L 664.151438 -424.84127 
L 664.596212 -422.497474 
L 664.432834 -420.153677 
L 663.56038 -417.809881 
L 662.020234 -415.466085 
L 660.014108 -413.122288 
L 657.87219 -410.778492 
L 655.969686 -408.434696 
L 654.616367 -406.090899 
L 653.960896 -403.747103 
L 653.948399 -401.403307 
L 654.347034 -399.05951 
L 654.829459 -396.715714 
L 655.073975 -394.371918 
L 654.847405 -392.028121 
L 654.046229 -389.684325 
L 652.693892 -387.340529 
L 650.908578 -384.996732 
L 648.860579 -382.652936 
L 646.733544 -380.309139 
L 644.69599 -377.965343 
L 642.884431 -375.621547 
L 641.398059 -373.27775 
L 640.304223 -370.933954 
L 639.6511 -368.590158 
L 639.479631 -366.246361 
L 639.824665 -363.902565 
L 640.698958 -361.558769 
L 642.063113 -359.214972 
L 643.79546 -356.871176 
L 645.681437 -354.52738 
L 647.437442 -352.183583 
L 648.769694 -349.839787 
L 649.450715 -347.495991 
L 649.384155 -345.152194 
L 648.630341 -342.808398 
L 647.380682 -340.464602 
L 645.891489 -338.120805 
L 644.404992 -335.777009 
L 643.08848 -333.433212 
L 642.010522 -331.089416 
L 641.153795 -328.74562 
L 640.448336 -326.401823 
L 639.804777 -324.058027 
L 639.134901 -321.714231 
L 638.35974 -319.370434 
L 637.414421 -317.026638 
L 636.258293 -314.682842 
L 634.890224 -312.339045 
L 633.35989 -309.995249 
L 631.764216 -307.651453 
L 630.225488 -305.307656 
L 628.858763 -302.96386 
L 627.742607 -300.620064 
L 626.904965 -298.276267 
L 626.327218 -295.932471 
L 625.960816 -293.588675 
z
" style="stroke: #494949"/>
    </defs>
    <g clip-path="url(#pe458ac824c)">
     <use xlink:href="#m033aa8e33b" x="0" y="864" style="fill: #8d7866; stroke: #494949"/>
    </g>
   </g>
   <g id="line2d_9">
    <path d="M 137.231492 554.54406 
L 137.231492 361.757102 
" clip-path="url(#pe458ac824c)" style="fill: none; stroke: #494949; stroke-width: 1.5; stroke-linecap: round"/>
   </g>
   <g id="line2d_10">
    <path d="M 137.231492 495.945305 
L 137.231492 421.938325 
" clip-path="url(#pe458ac824c)" style="fill: none; stroke: #494949; stroke-width: 4.5; stroke-linecap: round"/>
   </g>
   <g id="line2d_11">
    <path d="M 137.231492 449.210619 
" clip-path="url(#pe458ac824c)" style="fill: none; stroke: #494949; stroke-width: 1.2; stroke-linecap: round"/>
    <defs>
     <path id="mc1148d8edf" d="M 1.875 0 
L -1.875 -0 
" style="stroke: #ffffff; stroke-width: 0.9"/>
    </defs>
    <g clip-path="url(#pe458ac824c)">
     <use xlink:href="#mc1148d8edf" x="137.231492" y="449.210619" style="fill: #ffffff; stroke: #ffffff; stroke-width: 0.9"/>
    </g>
   </g>
   <g id="line2d_12">
    <path d="M 234.891625 556.248405 
L 234.891625 353.691722 
" clip-path="url(#pe458ac824c)" style="fill: none; stroke: #494949; stroke-width: 1.5; stroke-linecap: round"/>
   </g>
   <g id="line2d_13">
    <path d="M 234.891625 492.180294 
L 234.891625 422.645533 
" clip-path="url(#pe458ac824c)" style="fill: none; stroke: #494949; stroke-width: 4.5; stroke-linecap: round"/>
   </g>
   <g id="line2d_14">
    <path d="M 234.891625 449.6446 
" clip-path="url(#pe458ac824c)" style="fill: none; stroke: #494949; stroke-width: 1.2; stroke-linecap: round"/>
    <g clip-path="url(#pe458ac824c)">
     <use xlink:href="#mc1148d8edf" x="234.891625" y="449.6446" style="fill: #ffffff; stroke: #ffffff; stroke-width: 0.9"/>
    </g>
   </g>
   <g id="line2d_15">
    <path d="M 332.551759 585.451124 
L 332.551759 318.86965 
" clip-path="url(#pe458ac824c)" style="fill: none; stroke: #494949; stroke-width: 1.5; stroke-linecap: round"/>
   </g>
   <g id="line2d_16">
    <path d="M 332.551759 496.029527 
L 332.551759 421.412331 
" clip-path="url(#pe458ac824c)" style="fill: none; stroke: #494949; stroke-width: 4.5; stroke-linecap: round"/>
   </g>
   <g id="line2d_17">
    <path d="M 332.551759 453.410179 
" clip-path="url(#pe458ac824c)" style="fill: none; stroke: #494949; stroke-width: 1.2; stroke-linecap: round"/>
    <g clip-path="url(#pe458ac824c)">
     <use xlink:href="#mc1148d8edf" x="332.551759" y="453.410179" style="fill: #ffffff; stroke: #ffffff; stroke-width: 0.9"/>
    </g>
   </g>
   <g id="line2d_18">
    <path d="M 430.211892 596.623069 
L 430.211892 304.275695 
" clip-path="url(#pe458ac824c)" style="fill: none; stroke: #494949; stroke-width: 1.5; stroke-linecap: round"/>
   </g>
   <g id="line2d_19">
    <path d="M 430.211892 489.601544 
L 430.211892 414.258576 
" clip-path="url(#pe458ac824c)" style="fill: none; stroke: #494949; stroke-width: 4.5; stroke-linecap: round"/>
   </g>
   <g id="line2d_20">
    <path d="M 430.211892 446.15023 
" clip-path="url(#pe458ac824c)" style="fill: none; stroke: #494949; stroke-width: 1.2; stroke-linecap: round"/>
    <g clip-path="url(#pe458ac824c)">
     <use xlink:href="#mc1148d8edf" x="430.211892" y="446.15023" style="fill: #ffffff; stroke: #ffffff; stroke-width: 0.9"/>
    </g>
   </g>
   <g id="line2d_21">
    <path d="M 527.872025 610.360667 
L 527.872025 369.004744 
" clip-path="url(#pe458ac824c)" style="fill: none; stroke: #494949; stroke-width: 1.5; stroke-linecap: round"/>
   </g>
   <g id="line2d_22">
    <path d="M 527.872025 514.967871 
L 527.872025 435.60347 
" clip-path="url(#pe458ac824c)" style="fill: none; stroke: #494949; stroke-width: 4.5; stroke-linecap: round"/>
   </g>
   <g id="line2d_23">
    <path d="M 527.872025 475.958297 
" clip-path="url(#pe458ac824c)" style="fill: none; stroke: #494949; stroke-width: 1.2; stroke-linecap: round"/>
    <g clip-path="url(#pe458ac824c)">
     <use xlink:href="#mc1148d8edf" x="527.872025" y="475.958297" style="fill: #ffffff; stroke: #ffffff; stroke-width: 0.9"/>
    </g>
   </g>
   <g id="line2d_24">
    <path d="M 625.532159 553.703164 
L 625.532159 355.083649 
" clip-path="url(#pe458ac824c)" style="fill: none; stroke: #494949; stroke-width: 1.5; stroke-linecap: round"/>
   </g>
   <g id="line2d_25">
    <path d="M 625.532159 492.525706 
L 625.532159 421.063293 
" clip-path="url(#pe458ac824c)" style="fill: none; stroke: #494949; stroke-width: 4.5; stroke-linecap: round"/>
   </g>
   <g id="line2d_26">
    <path d="M 625.532159 449.782623 
" clip-path="url(#pe458ac824c)" style="fill: none; stroke: #494949; stroke-width: 1.2; stroke-linecap: round"/>
    <g clip-path="url(#pe458ac824c)">
     <use xlink:href="#mc1148d8edf" x="625.532159" y="449.782623" style="fill: #ffffff; stroke: #ffffff; stroke-width: 0.9"/>
    </g>
   </g>
   <g id="line2d_27">
    <path d="M 332.551759 281.442155 
L 332.551759 273.830975 
L 430.211892 273.830975 
L 430.211892 281.442155 
" style="fill: none; stroke: #333333; stroke-width: 1.5; stroke-linecap: round"/>
   </g>
   <g id="line2d_28">
    <path d="M 430.211892 252.91762 
L 430.211892 245.30644 
L 527.872025 245.30644 
L 527.872025 252.91762 
" style="fill: none; stroke: #333333; stroke-width: 1.5; stroke-linecap: round"/>
   </g>
   <g id="line2d_29">
    <path d="M 527.872025 224.393085 
L 527.872025 216.781905 
L 625.532159 216.781905 
L 625.532159 224.393085 
" style="fill: none; stroke: #333333; stroke-width: 1.5; stroke-linecap: round"/>
   </g>
   <g id="line2d_30">
    <path d="M 234.891625 224.393085 
L 234.891625 216.781905 
L 430.211892 216.781905 
L 430.211892 224.393085 
" style="fill: none; stroke: #333333; stroke-width: 1.5; stroke-linecap: round"/>
   </g>
   <g id="line2d_31">
    <path d="M 332.551759 195.86855 
L 332.551759 188.25737 
L 527.872025 188.25737 
L 527.872025 195.86855 
" style="fill: none; stroke: #333333; stroke-width: 1.5; stroke-linecap: round"/>
   </g>
   <g id="line2d_32">
    <path d="M 430.211892 167.344015 
L 430.211892 159.732835 
L 625.532159 159.732835 
L 625.532159 167.344015 
" style="fill: none; stroke: #333333; stroke-width: 1.5; stroke-linecap: round"/>
   </g>
   <g id="line2d_33">
    <path d="M 137.231492 138.81948 
L 137.231492 131.2083 
L 430.211892 131.2083 
L 430.211892 138.81948 
" style="fill: none; stroke: #333333; stroke-width: 1.5; stroke-linecap: round"/>
   </g>
   <g id="line2d_34">
    <path d="M 234.891625 110.294944 
L 234.891625 102.683765 
L 527.872025 102.683765 
L 527.872025 110.294944 
" style="fill: none; stroke: #333333; stroke-width: 1.5; stroke-linecap: round"/>
   </g>
   <g id="line2d_35">
    <path d="M 137.231492 81.770409 
L 137.231492 74.159229 
L 527.872025 74.159229 
L 527.872025 81.770409 
" style="fill: none; stroke: #333333; stroke-width: 1.5; stroke-linecap: round"/>
   </g>
   <g id="patch_3">
    <path d="M 69.846 645.866348 
L 69.846 40.416 
" style="fill: none; stroke: #cccccc; stroke-linejoin: miter; stroke-linecap: square"/>
   </g>
   <g id="patch_4">
    <path d="M 692.917651 645.866348 
L 692.917651 40.416 
" style="fill: none; stroke: #cccccc; stroke-linejoin: miter; stroke-linecap: square"/>
   </g>
   <g id="patch_5">
    <path d="M 69.846 645.866348 
L 692.917651 645.866348 
" style="fill: none; stroke: #cccccc; stroke-linejoin: miter; stroke-linecap: square"/>
   </g>
   <g id="patch_6">
    <path d="M 69.846 40.416 
L 692.917651 40.416 
" style="fill: none; stroke: #cccccc; stroke-linejoin: miter; stroke-linecap: square"/>
   </g>
   <g id="text_17">
    <!-- **** -->
    <g style="fill: #262626" transform="translate(366.435825 269.014975) scale(0.192 -0.192)">
     <defs>
      <path id="ArialMT-2a" d="M 200 3741 
L 344 4184 
Q 841 4009 1066 3881 
Q 1006 4447 1003 4659 
L 1456 4659 
Q 1447 4350 1384 3884 
Q 1706 4047 2122 4184 
L 2266 3741 
Q 1869 3609 1488 3566 
Q 1678 3400 2025 2975 
L 1650 2709 
Q 1469 2956 1222 3381 
Q 991 2941 816 2709 
L 447 2975 
Q 809 3422 966 3566 
Q 563 3644 200 3741 
z
" transform="scale(0.015625)"/>
     </defs>
     <use xlink:href="#ArialMT-2a"/>
     <use xlink:href="#ArialMT-2a" transform="translate(38.916016 0)"/>
     <use xlink:href="#ArialMT-2a" transform="translate(77.832031 0)"/>
     <use xlink:href="#ArialMT-2a" transform="translate(116.748047 0)"/>
    </g>
   </g>
   <g id="text_18">
    <!-- **** -->
    <g style="fill: #262626" transform="translate(464.095959 240.49044) scale(0.192 -0.192)">
     <use xlink:href="#ArialMT-2a"/>
     <use xlink:href="#ArialMT-2a" transform="translate(38.916016 0)"/>
     <use xlink:href="#ArialMT-2a" transform="translate(77.832031 0)"/>
     <use xlink:href="#ArialMT-2a" transform="translate(116.748047 0)"/>
    </g>
   </g>
   <g id="text_19">
    <!-- **** -->
    <g style="fill: #262626" transform="translate(561.756092 211.965905) scale(0.192 -0.192)">
     <use xlink:href="#ArialMT-2a"/>
     <use xlink:href="#ArialMT-2a" transform="translate(38.916016 0)"/>
     <use xlink:href="#ArialMT-2a" transform="translate(77.832031 0)"/>
     <use xlink:href="#ArialMT-2a" transform="translate(116.748047 0)"/>
    </g>
   </g>
   <g id="text_20">
    <!-- **** -->
    <g style="fill: #262626" transform="translate(317.605759 211.965905) scale(0.192 -0.192)">
     <use xlink:href="#ArialMT-2a"/>
     <use xlink:href="#ArialMT-2a" transform="translate(38.916016 0)"/>
     <use xlink:href="#ArialMT-2a" transform="translate(77.832031 0)"/>
     <use xlink:href="#ArialMT-2a" transform="translate(116.748047 0)"/>
    </g>
   </g>
   <g id="text_21">
    <!-- **** -->
    <g style="fill: #262626" transform="translate(415.265892 183.44137) scale(0.192 -0.192)">
     <use xlink:href="#ArialMT-2a"/>
     <use xlink:href="#ArialMT-2a" transform="translate(38.916016 0)"/>
     <use xlink:href="#ArialMT-2a" transform="translate(77.832031 0)"/>
     <use xlink:href="#ArialMT-2a" transform="translate(116.748047 0)"/>
    </g>
   </g>
   <g id="text_22">
    <!-- **** -->
    <g style="fill: #262626" transform="translate(512.926025 154.916835) scale(0.192 -0.192)">
     <use xlink:href="#ArialMT-2a"/>
     <use xlink:href="#ArialMT-2a" transform="translate(38.916016 0)"/>
     <use xlink:href="#ArialMT-2a" transform="translate(77.832031 0)"/>
     <use xlink:href="#ArialMT-2a" transform="translate(116.748047 0)"/>
    </g>
   </g>
   <g id="text_23">
    <!-- **** -->
    <g style="fill: #262626" transform="translate(268.775692 126.3923) scale(0.192 -0.192)">
     <use xlink:href="#ArialMT-2a"/>
     <use xlink:href="#ArialMT-2a" transform="translate(38.916016 0)"/>
     <use xlink:href="#ArialMT-2a" transform="translate(77.832031 0)"/>
     <use xlink:href="#ArialMT-2a" transform="translate(116.748047 0)"/>
    </g>
   </g>
   <g id="text_24">
    <!-- **** -->
    <g style="fill: #262626" transform="translate(366.435825 97.867765) scale(0.192 -0.192)">
     <use xlink:href="#ArialMT-2a"/>
     <use xlink:href="#ArialMT-2a" transform="translate(38.916016 0)"/>
     <use xlink:href="#ArialMT-2a" transform="translate(77.832031 0)"/>
     <use xlink:href="#ArialMT-2a" transform="translate(116.748047 0)"/>
    </g>
   </g>
   <g id="text_25">
    <!-- **** -->
    <g style="fill: #262626" transform="translate(317.605759 69.343229) scale(0.192 -0.192)">
     <use xlink:href="#ArialMT-2a"/>
     <use xlink:href="#ArialMT-2a" transform="translate(38.916016 0)"/>
     <use xlink:href="#ArialMT-2a" transform="translate(77.832031 0)"/>
     <use xlink:href="#ArialMT-2a" transform="translate(116.748047 0)"/>
    </g>
   </g>
   <g id="text_26">
    <!-- Mean pIC50 of Train Compounds -->
    <g style="fill: #262626" transform="translate(239.978325 34.416) scale(0.192 -0.192)">
     <defs>
      <path id="ArialMT-49" d="M 597 0 
L 597 4581 
L 1203 4581 
L 1203 0 
L 597 0 
z
" transform="scale(0.015625)"/>
      <path id="ArialMT-54" d="M 1659 0 
L 1659 4041 
L 150 4041 
L 150 4581 
L 3781 4581 
L 3781 4041 
L 2266 4041 
L 2266 0 
L 1659 0 
z
" transform="scale(0.015625)"/>
     </defs>
     <use xlink:href="#ArialMT-4d"/>
     <use xlink:href="#ArialMT-65" transform="translate(83.300781 0)"/>
     <use xlink:href="#ArialMT-61" transform="translate(138.916016 0)"/>
     <use xlink:href="#ArialMT-6e" transform="translate(194.53125 0)"/>
     <use xlink:href="#ArialMT-20" transform="translate(250.146484 0)"/>
     <use xlink:href="#ArialMT-70" transform="translate(277.929688 0)"/>
     <use xlink:href="#ArialMT-49" transform="translate(333.544922 0)"/>
     <use xlink:href="#ArialMT-43" transform="translate(361.328125 0)"/>
     <use xlink:href="#ArialMT-35" transform="translate(433.544922 0)"/>
     <use xlink:href="#ArialMT-30" transform="translate(489.160156 0)"/>
     <use xlink:href="#ArialMT-20" transform="translate(544.775391 0)"/>
     <use xlink:href="#ArialMT-6f" transform="translate(572.558594 0)"/>
     <use xlink:href="#ArialMT-66" transform="translate(628.173828 0)"/>
     <use xlink:href="#ArialMT-20" transform="translate(655.957031 0)"/>
     <use xlink:href="#ArialMT-54" transform="translate(681.990234 0)"/>
     <use xlink:href="#ArialMT-72" transform="translate(739.324219 0)"/>
     <use xlink:href="#ArialMT-61" transform="translate(772.625 0)"/>
     <use xlink:href="#ArialMT-69" transform="translate(828.240234 0)"/>
     <use xlink:href="#ArialMT-6e" transform="translate(850.457031 0)"/>
     <use xlink:href="#ArialMT-20" transform="translate(906.072266 0)"/>
     <use xlink:href="#ArialMT-43" transform="translate(933.855469 0)"/>
     <use xlink:href="#ArialMT-6f" transform="translate(1006.072266 0)"/>
     <use xlink:href="#ArialMT-6d" transform="translate(1061.6875 0)"/>
     <use xlink:href="#ArialMT-70" transform="translate(1144.988281 0)"/>
     <use xlink:href="#ArialMT-6f" transform="translate(1200.603516 0)"/>
     <use xlink:href="#ArialMT-75" transform="translate(1256.21875 0)"/>
     <use xlink:href="#ArialMT-6e" transform="translate(1311.833984 0)"/>
     <use xlink:href="#ArialMT-64" transform="translate(1367.449219 0)"/>
     <use xlink:href="#ArialMT-73" transform="translate(1423.064453 0)"/>
    </g>
   </g>
  </g>
 </g>
 <defs>
  <clipPath id="pe458ac824c">
   <rect x="69.846" y="40.416" width="623.071651" height="605.450348"/>
  </clipPath>
 </defs>
</svg>
