<?xml version="1.0" encoding="utf-8" standalone="no"?>
<!DOCTYPE svg PUBLIC "-//W3C//DTD SVG 1.1//EN"
  "http://www.w3.org/Graphics/SVG/1.1/DTD/svg11.dtd">
<svg xmlns:xlink="http://www.w3.org/1999/xlink" width="720pt" height="864pt" viewBox="0 0 720 864" xmlns="http://www.w3.org/2000/svg" version="1.1">
 <metadata>
  <rdf:RDF xmlns:dc="http://purl.org/dc/elements/1.1/" xmlns:cc="http://creativecommons.org/ns#" xmlns:rdf="http://www.w3.org/1999/02/22-rdf-syntax-ns#">
   <cc:Work>
    <dc:type rdf:resource="http://purl.org/dc/dcmitype/StillImage"/>
    <dc:date>2025-02-25T23:42:50.807576</dc:date>
    <dc:format>image/svg+xml</dc:format>
    <dc:creator>
     <cc:Agent>
      <dc:title>Matplotlib v3.10.0, https://matplotlib.org/</dc:title>
     </cc:Agent>
    </dc:creator>
   </cc:Work>
  </rdf:RDF>
 </metadata>
 <defs>
  <style type="text/css">*{stroke-linejoin: round; stroke-linecap: butt}</style>
 </defs>
 <g id="figure_1">
  <g id="patch_1">
   <path d="M 0 864 
L 720 864 
L 720 0 
L 0 0 
z
" style="fill: #ffffff"/>
  </g>
  <g id="axes_1">
   <g id="patch_2">
    <path d="M 69.846 645.866348 
L 692.917651 645.866348 
L 692.917651 40.416 
L 69.846 40.416 
z
" style="fill: #ffffff"/>
   </g>
   <g id="matplotlib.axis_1">
    <g id="xtick_1">
     <g id="text_1">
      <!-- RandomSplit -->
      <g style="fill: #262626" transform="translate(104.901509 734.472111) rotate(-45) scale(0.176 -0.176)">
       <defs>
        <path id="ArialMT-52" d="M 503 0 
L 503 4581 
L 2534 4581 
Q 3147 4581 3465 4457 
Q 3784 4334 3975 4021 
Q 4166 3709 4166 3331 
Q 4166 2844 3850 2509 
Q 3534 2175 2875 2084 
Q 3116 1969 3241 1856 
Q 3506 1613 3744 1247 
L 4541 0 
L 3778 0 
L 3172 953 
Q 2906 1366 2734 1584 
Q 2563 1803 2427 1890 
Q 2291 1978 2150 2013 
Q 2047 2034 1813 2034 
L 1109 2034 
L 1109 0 
L 503 0 
z
M 1109 2559 
L 2413 2559 
Q 2828 2559 3062 2645 
Q 3297 2731 3419 2920 
Q 3541 3109 3541 3331 
Q 3541 3656 3305 3865 
Q 3069 4075 2559 4075 
L 1109 4075 
L 1109 2559 
z
" transform="scale(0.015625)"/>
        <path id="ArialMT-61" d="M 2588 409 
Q 2275 144 1986 34 
Q 1697 -75 1366 -75 
Q 819 -75 525 192 
Q 231 459 231 875 
Q 231 1119 342 1320 
Q 453 1522 633 1644 
Q 813 1766 1038 1828 
Q 1203 1872 1538 1913 
Q 2219 1994 2541 2106 
Q 2544 2222 2544 2253 
Q 2544 2597 2384 2738 
Q 2169 2928 1744 2928 
Q 1347 2928 1158 2789 
Q 969 2650 878 2297 
L 328 2372 
Q 403 2725 575 2942 
Q 747 3159 1072 3276 
Q 1397 3394 1825 3394 
Q 2250 3394 2515 3294 
Q 2781 3194 2906 3042 
Q 3031 2891 3081 2659 
Q 3109 2516 3109 2141 
L 3109 1391 
Q 3109 606 3145 398 
Q 3181 191 3288 0 
L 2700 0 
Q 2613 175 2588 409 
z
M 2541 1666 
Q 2234 1541 1622 1453 
Q 1275 1403 1131 1340 
Q 988 1278 909 1158 
Q 831 1038 831 891 
Q 831 666 1001 516 
Q 1172 366 1500 366 
Q 1825 366 2078 508 
Q 2331 650 2450 897 
Q 2541 1088 2541 1459 
L 2541 1666 
z
" transform="scale(0.015625)"/>
        <path id="ArialMT-6e" d="M 422 0 
L 422 3319 
L 928 3319 
L 928 2847 
Q 1294 3394 1984 3394 
Q 2284 3394 2536 3286 
Q 2788 3178 2913 3003 
Q 3038 2828 3088 2588 
Q 3119 2431 3119 2041 
L 3119 0 
L 2556 0 
L 2556 2019 
Q 2556 2363 2490 2533 
Q 2425 2703 2258 2804 
Q 2091 2906 1866 2906 
Q 1506 2906 1245 2678 
Q 984 2450 984 1813 
L 984 0 
L 422 0 
z
" transform="scale(0.015625)"/>
        <path id="ArialMT-64" d="M 2575 0 
L 2575 419 
Q 2259 -75 1647 -75 
Q 1250 -75 917 144 
Q 584 363 401 755 
Q 219 1147 219 1656 
Q 219 2153 384 2558 
Q 550 2963 881 3178 
Q 1213 3394 1622 3394 
Q 1922 3394 2156 3267 
Q 2391 3141 2538 2938 
L 2538 4581 
L 3097 4581 
L 3097 0 
L 2575 0 
z
M 797 1656 
Q 797 1019 1065 703 
Q 1334 388 1700 388 
Q 2069 388 2326 689 
Q 2584 991 2584 1609 
Q 2584 2291 2321 2609 
Q 2059 2928 1675 2928 
Q 1300 2928 1048 2622 
Q 797 2316 797 1656 
z
" transform="scale(0.015625)"/>
        <path id="ArialMT-6f" d="M 213 1659 
Q 213 2581 725 3025 
Q 1153 3394 1769 3394 
Q 2453 3394 2887 2945 
Q 3322 2497 3322 1706 
Q 3322 1066 3130 698 
Q 2938 331 2570 128 
Q 2203 -75 1769 -75 
Q 1072 -75 642 372 
Q 213 819 213 1659 
z
M 791 1659 
Q 791 1022 1069 705 
Q 1347 388 1769 388 
Q 2188 388 2466 706 
Q 2744 1025 2744 1678 
Q 2744 2294 2464 2611 
Q 2184 2928 1769 2928 
Q 1347 2928 1069 2612 
Q 791 2297 791 1659 
z
" transform="scale(0.015625)"/>
        <path id="ArialMT-6d" d="M 422 0 
L 422 3319 
L 925 3319 
L 925 2853 
Q 1081 3097 1340 3245 
Q 1600 3394 1931 3394 
Q 2300 3394 2536 3241 
Q 2772 3088 2869 2813 
Q 3263 3394 3894 3394 
Q 4388 3394 4653 3120 
Q 4919 2847 4919 2278 
L 4919 0 
L 4359 0 
L 4359 2091 
Q 4359 2428 4304 2576 
Q 4250 2725 4106 2815 
Q 3963 2906 3769 2906 
Q 3419 2906 3187 2673 
Q 2956 2441 2956 1928 
L 2956 0 
L 2394 0 
L 2394 2156 
Q 2394 2531 2256 2718 
Q 2119 2906 1806 2906 
Q 1569 2906 1367 2781 
Q 1166 2656 1075 2415 
Q 984 2175 984 1722 
L 984 0 
L 422 0 
z
" transform="scale(0.015625)"/>
        <path id="ArialMT-53" d="M 288 1472 
L 859 1522 
Q 900 1178 1048 958 
Q 1197 738 1509 602 
Q 1822 466 2213 466 
Q 2559 466 2825 569 
Q 3091 672 3220 851 
Q 3350 1031 3350 1244 
Q 3350 1459 3225 1620 
Q 3100 1781 2813 1891 
Q 2628 1963 1997 2114 
Q 1366 2266 1113 2400 
Q 784 2572 623 2826 
Q 463 3081 463 3397 
Q 463 3744 659 4045 
Q 856 4347 1234 4503 
Q 1613 4659 2075 4659 
Q 2584 4659 2973 4495 
Q 3363 4331 3572 4012 
Q 3781 3694 3797 3291 
L 3216 3247 
Q 3169 3681 2898 3903 
Q 2628 4125 2100 4125 
Q 1550 4125 1298 3923 
Q 1047 3722 1047 3438 
Q 1047 3191 1225 3031 
Q 1400 2872 2139 2705 
Q 2878 2538 3153 2413 
Q 3553 2228 3743 1945 
Q 3934 1663 3934 1294 
Q 3934 928 3725 604 
Q 3516 281 3123 101 
Q 2731 -78 2241 -78 
Q 1619 -78 1198 103 
Q 778 284 539 648 
Q 300 1013 288 1472 
z
" transform="scale(0.015625)"/>
        <path id="ArialMT-70" d="M 422 -1272 
L 422 3319 
L 934 3319 
L 934 2888 
Q 1116 3141 1344 3267 
Q 1572 3394 1897 3394 
Q 2322 3394 2647 3175 
Q 2972 2956 3137 2557 
Q 3303 2159 3303 1684 
Q 3303 1175 3120 767 
Q 2938 359 2589 142 
Q 2241 -75 1856 -75 
Q 1575 -75 1351 44 
Q 1128 163 984 344 
L 984 -1272 
L 422 -1272 
z
M 931 1641 
Q 931 1000 1190 694 
Q 1450 388 1819 388 
Q 2194 388 2461 705 
Q 2728 1022 2728 1688 
Q 2728 2322 2467 2637 
Q 2206 2953 1844 2953 
Q 1484 2953 1207 2617 
Q 931 2281 931 1641 
z
" transform="scale(0.015625)"/>
        <path id="ArialMT-6c" d="M 409 0 
L 409 4581 
L 972 4581 
L 972 0 
L 409 0 
z
" transform="scale(0.015625)"/>
        <path id="ArialMT-69" d="M 425 3934 
L 425 4581 
L 988 4581 
L 988 3934 
L 425 3934 
z
M 425 0 
L 425 3319 
L 988 3319 
L 988 0 
L 425 0 
z
" transform="scale(0.015625)"/>
        <path id="ArialMT-74" d="M 1650 503 
L 1731 6 
Q 1494 -44 1306 -44 
Q 1000 -44 831 53 
Q 663 150 594 308 
Q 525 466 525 972 
L 525 2881 
L 113 2881 
L 113 3319 
L 525 3319 
L 525 4141 
L 1084 4478 
L 1084 3319 
L 1650 3319 
L 1650 2881 
L 1084 2881 
L 1084 941 
Q 1084 700 1114 631 
Q 1144 563 1211 522 
Q 1278 481 1403 481 
Q 1497 481 1650 503 
z
" transform="scale(0.015625)"/>
       </defs>
       <use xlink:href="#ArialMT-52"/>
       <use xlink:href="#ArialMT-61" transform="translate(72.216797 0)"/>
       <use xlink:href="#ArialMT-6e" transform="translate(127.832031 0)"/>
       <use xlink:href="#ArialMT-64" transform="translate(183.447266 0)"/>
       <use xlink:href="#ArialMT-6f" transform="translate(239.0625 0)"/>
       <use xlink:href="#ArialMT-6d" transform="translate(294.677734 0)"/>
       <use xlink:href="#ArialMT-53" transform="translate(377.978516 0)"/>
       <use xlink:href="#ArialMT-70" transform="translate(444.677734 0)"/>
       <use xlink:href="#ArialMT-6c" transform="translate(500.292969 0)"/>
       <use xlink:href="#ArialMT-69" transform="translate(522.509766 0)"/>
       <use xlink:href="#ArialMT-74" transform="translate(544.726562 0)"/>
      </g>
     </g>
    </g>
    <g id="xtick_2">
     <g id="text_2">
      <!-- ScaffoldSplit -->
      <g style="fill: #262626" transform="translate(203.706007 732.183383) rotate(-45) scale(0.176 -0.176)">
       <defs>
        <path id="ArialMT-63" d="M 2588 1216 
L 3141 1144 
Q 3050 572 2676 248 
Q 2303 -75 1759 -75 
Q 1078 -75 664 370 
Q 250 816 250 1647 
Q 250 2184 428 2587 
Q 606 2991 970 3192 
Q 1334 3394 1763 3394 
Q 2303 3394 2647 3120 
Q 2991 2847 3088 2344 
L 2541 2259 
Q 2463 2594 2264 2762 
Q 2066 2931 1784 2931 
Q 1359 2931 1093 2626 
Q 828 2322 828 1663 
Q 828 994 1084 691 
Q 1341 388 1753 388 
Q 2084 388 2306 591 
Q 2528 794 2588 1216 
z
" transform="scale(0.015625)"/>
        <path id="ArialMT-66" d="M 556 0 
L 556 2881 
L 59 2881 
L 59 3319 
L 556 3319 
L 556 3672 
Q 556 4006 616 4169 
Q 697 4388 901 4523 
Q 1106 4659 1475 4659 
Q 1713 4659 2000 4603 
L 1916 4113 
Q 1741 4144 1584 4144 
Q 1328 4144 1222 4034 
Q 1116 3925 1116 3625 
L 1116 3319 
L 1763 3319 
L 1763 2881 
L 1116 2881 
L 1116 0 
L 556 0 
z
" transform="scale(0.015625)"/>
       </defs>
       <use xlink:href="#ArialMT-53"/>
       <use xlink:href="#ArialMT-63" transform="translate(66.699219 0)"/>
       <use xlink:href="#ArialMT-61" transform="translate(116.699219 0)"/>
       <use xlink:href="#ArialMT-66" transform="translate(172.314453 0)"/>
       <use xlink:href="#ArialMT-66" transform="translate(198.347656 0)"/>
       <use xlink:href="#ArialMT-6f" transform="translate(226.130859 0)"/>
       <use xlink:href="#ArialMT-6c" transform="translate(281.746094 0)"/>
       <use xlink:href="#ArialMT-64" transform="translate(303.962891 0)"/>
       <use xlink:href="#ArialMT-53" transform="translate(359.578125 0)"/>
       <use xlink:href="#ArialMT-70" transform="translate(426.277344 0)"/>
       <use xlink:href="#ArialMT-6c" transform="translate(481.892578 0)"/>
       <use xlink:href="#ArialMT-69" transform="translate(504.109375 0)"/>
       <use xlink:href="#ArialMT-74" transform="translate(526.326172 0)"/>
      </g>
     </g>
    </g>
    <g id="xtick_3">
     <g id="text_3">
      <!-- SortedStepForward_LogD -->
      <g style="fill: #262626" transform="translate(263.485457 807.798908) rotate(-45) scale(0.176 -0.176)">
       <defs>
        <path id="ArialMT-72" d="M 416 0 
L 416 3319 
L 922 3319 
L 922 2816 
Q 1116 3169 1280 3281 
Q 1444 3394 1641 3394 
Q 1925 3394 2219 3213 
L 2025 2691 
Q 1819 2813 1613 2813 
Q 1428 2813 1281 2702 
Q 1134 2591 1072 2394 
Q 978 2094 978 1738 
L 978 0 
L 416 0 
z
" transform="scale(0.015625)"/>
        <path id="ArialMT-65" d="M 2694 1069 
L 3275 997 
Q 3138 488 2766 206 
Q 2394 -75 1816 -75 
Q 1088 -75 661 373 
Q 234 822 234 1631 
Q 234 2469 665 2931 
Q 1097 3394 1784 3394 
Q 2450 3394 2872 2941 
Q 3294 2488 3294 1666 
Q 3294 1616 3291 1516 
L 816 1516 
Q 847 969 1125 678 
Q 1403 388 1819 388 
Q 2128 388 2347 550 
Q 2566 713 2694 1069 
z
M 847 1978 
L 2700 1978 
Q 2663 2397 2488 2606 
Q 2219 2931 1791 2931 
Q 1403 2931 1139 2672 
Q 875 2413 847 1978 
z
" transform="scale(0.015625)"/>
        <path id="ArialMT-46" d="M 525 0 
L 525 4581 
L 3616 4581 
L 3616 4041 
L 1131 4041 
L 1131 2622 
L 3281 2622 
L 3281 2081 
L 1131 2081 
L 1131 0 
L 525 0 
z
" transform="scale(0.015625)"/>
        <path id="ArialMT-77" d="M 1034 0 
L 19 3319 
L 600 3319 
L 1128 1403 
L 1325 691 
Q 1338 744 1497 1375 
L 2025 3319 
L 2603 3319 
L 3100 1394 
L 3266 759 
L 3456 1400 
L 4025 3319 
L 4572 3319 
L 3534 0 
L 2950 0 
L 2422 1988 
L 2294 2553 
L 1622 0 
L 1034 0 
z
" transform="scale(0.015625)"/>
        <path id="ArialMT-5f" d="M -97 -1272 
L -97 -866 
L 3631 -866 
L 3631 -1272 
L -97 -1272 
z
" transform="scale(0.015625)"/>
        <path id="ArialMT-4c" d="M 469 0 
L 469 4581 
L 1075 4581 
L 1075 541 
L 3331 541 
L 3331 0 
L 469 0 
z
" transform="scale(0.015625)"/>
        <path id="ArialMT-67" d="M 319 -275 
L 866 -356 
Q 900 -609 1056 -725 
Q 1266 -881 1628 -881 
Q 2019 -881 2231 -725 
Q 2444 -569 2519 -288 
Q 2563 -116 2559 434 
Q 2191 0 1641 0 
Q 956 0 581 494 
Q 206 988 206 1678 
Q 206 2153 378 2554 
Q 550 2956 876 3175 
Q 1203 3394 1644 3394 
Q 2231 3394 2613 2919 
L 2613 3319 
L 3131 3319 
L 3131 450 
Q 3131 -325 2973 -648 
Q 2816 -972 2473 -1159 
Q 2131 -1347 1631 -1347 
Q 1038 -1347 672 -1080 
Q 306 -813 319 -275 
z
M 784 1719 
Q 784 1066 1043 766 
Q 1303 466 1694 466 
Q 2081 466 2343 764 
Q 2606 1063 2606 1700 
Q 2606 2309 2336 2618 
Q 2066 2928 1684 2928 
Q 1309 2928 1046 2623 
Q 784 2319 784 1719 
z
" transform="scale(0.015625)"/>
        <path id="ArialMT-44" d="M 494 0 
L 494 4581 
L 2072 4581 
Q 2606 4581 2888 4516 
Q 3281 4425 3559 4188 
Q 3922 3881 4101 3404 
Q 4281 2928 4281 2316 
Q 4281 1794 4159 1391 
Q 4038 988 3847 723 
Q 3656 459 3429 307 
Q 3203 156 2883 78 
Q 2563 0 2147 0 
L 494 0 
z
M 1100 541 
L 2078 541 
Q 2531 541 2789 625 
Q 3047 709 3200 863 
Q 3416 1078 3536 1442 
Q 3656 1806 3656 2325 
Q 3656 3044 3420 3430 
Q 3184 3816 2847 3947 
Q 2603 4041 2063 4041 
L 1100 4041 
L 1100 541 
z
" transform="scale(0.015625)"/>
       </defs>
       <use xlink:href="#ArialMT-53"/>
       <use xlink:href="#ArialMT-6f" transform="translate(66.699219 0)"/>
       <use xlink:href="#ArialMT-72" transform="translate(122.314453 0)"/>
       <use xlink:href="#ArialMT-74" transform="translate(155.615234 0)"/>
       <use xlink:href="#ArialMT-65" transform="translate(183.398438 0)"/>
       <use xlink:href="#ArialMT-64" transform="translate(239.013672 0)"/>
       <use xlink:href="#ArialMT-53" transform="translate(294.628906 0)"/>
       <use xlink:href="#ArialMT-74" transform="translate(361.328125 0)"/>
       <use xlink:href="#ArialMT-65" transform="translate(389.111328 0)"/>
       <use xlink:href="#ArialMT-70" transform="translate(444.726562 0)"/>
       <use xlink:href="#ArialMT-46" transform="translate(500.341797 0)"/>
       <use xlink:href="#ArialMT-6f" transform="translate(561.425781 0)"/>
       <use xlink:href="#ArialMT-72" transform="translate(617.041016 0)"/>
       <use xlink:href="#ArialMT-77" transform="translate(650.341797 0)"/>
       <use xlink:href="#ArialMT-61" transform="translate(722.558594 0)"/>
       <use xlink:href="#ArialMT-72" transform="translate(778.173828 0)"/>
       <use xlink:href="#ArialMT-64" transform="translate(811.474609 0)"/>
       <use xlink:href="#ArialMT-5f" transform="translate(867.089844 0)"/>
       <use xlink:href="#ArialMT-4c" transform="translate(922.705078 0)"/>
       <use xlink:href="#ArialMT-6f" transform="translate(978.320312 0)"/>
       <use xlink:href="#ArialMT-67" transform="translate(1033.935547 0)"/>
       <use xlink:href="#ArialMT-44" transform="translate(1089.550781 0)"/>
      </g>
     </g>
    </g>
    <g id="xtick_4">
     <g id="text_4">
      <!-- SortedStepForward_LogP -->
      <g style="fill: #262626" transform="translate(361.488803 807.112484) rotate(-45) scale(0.176 -0.176)">
       <defs>
        <path id="ArialMT-50" d="M 494 0 
L 494 4581 
L 2222 4581 
Q 2678 4581 2919 4538 
Q 3256 4481 3484 4323 
Q 3713 4166 3852 3881 
Q 3991 3597 3991 3256 
Q 3991 2672 3619 2267 
Q 3247 1863 2275 1863 
L 1100 1863 
L 1100 0 
L 494 0 
z
M 1100 2403 
L 2284 2403 
Q 2872 2403 3119 2622 
Q 3366 2841 3366 3238 
Q 3366 3525 3220 3729 
Q 3075 3934 2838 4000 
Q 2684 4041 2272 4041 
L 1100 4041 
L 1100 2403 
z
" transform="scale(0.015625)"/>
       </defs>
       <use xlink:href="#ArialMT-53"/>
       <use xlink:href="#ArialMT-6f" transform="translate(66.699219 0)"/>
       <use xlink:href="#ArialMT-72" transform="translate(122.314453 0)"/>
       <use xlink:href="#ArialMT-74" transform="translate(155.615234 0)"/>
       <use xlink:href="#ArialMT-65" transform="translate(183.398438 0)"/>
       <use xlink:href="#ArialMT-64" transform="translate(239.013672 0)"/>
       <use xlink:href="#ArialMT-53" transform="translate(294.628906 0)"/>
       <use xlink:href="#ArialMT-74" transform="translate(361.328125 0)"/>
       <use xlink:href="#ArialMT-65" transform="translate(389.111328 0)"/>
       <use xlink:href="#ArialMT-70" transform="translate(444.726562 0)"/>
       <use xlink:href="#ArialMT-46" transform="translate(500.341797 0)"/>
       <use xlink:href="#ArialMT-6f" transform="translate(561.425781 0)"/>
       <use xlink:href="#ArialMT-72" transform="translate(617.041016 0)"/>
       <use xlink:href="#ArialMT-77" transform="translate(650.341797 0)"/>
       <use xlink:href="#ArialMT-61" transform="translate(722.558594 0)"/>
       <use xlink:href="#ArialMT-72" transform="translate(778.173828 0)"/>
       <use xlink:href="#ArialMT-64" transform="translate(811.474609 0)"/>
       <use xlink:href="#ArialMT-5f" transform="translate(867.089844 0)"/>
       <use xlink:href="#ArialMT-4c" transform="translate(922.705078 0)"/>
       <use xlink:href="#ArialMT-6f" transform="translate(978.320312 0)"/>
       <use xlink:href="#ArialMT-67" transform="translate(1033.935547 0)"/>
       <use xlink:href="#ArialMT-50" transform="translate(1089.550781 0)"/>
      </g>
     </g>
    </g>
    <g id="xtick_5">
     <g id="text_5">
      <!-- SortedStepForward_MCE18 -->
      <g style="fill: #262626" transform="translate(453.00515 819.545896) rotate(-45) scale(0.176 -0.176)">
       <defs>
        <path id="ArialMT-4d" d="M 475 0 
L 475 4581 
L 1388 4581 
L 2472 1338 
Q 2622 884 2691 659 
Q 2769 909 2934 1394 
L 4031 4581 
L 4847 4581 
L 4847 0 
L 4263 0 
L 4263 3834 
L 2931 0 
L 2384 0 
L 1059 3900 
L 1059 0 
L 475 0 
z
" transform="scale(0.015625)"/>
        <path id="ArialMT-43" d="M 3763 1606 
L 4369 1453 
Q 4178 706 3683 314 
Q 3188 -78 2472 -78 
Q 1731 -78 1267 223 
Q 803 525 561 1097 
Q 319 1669 319 2325 
Q 319 3041 592 3573 
Q 866 4106 1370 4382 
Q 1875 4659 2481 4659 
Q 3169 4659 3637 4309 
Q 4106 3959 4291 3325 
L 3694 3184 
Q 3534 3684 3231 3912 
Q 2928 4141 2469 4141 
Q 1941 4141 1586 3887 
Q 1231 3634 1087 3207 
Q 944 2781 944 2328 
Q 944 1744 1114 1308 
Q 1284 872 1643 656 
Q 2003 441 2422 441 
Q 2931 441 3284 734 
Q 3638 1028 3763 1606 
z
" transform="scale(0.015625)"/>
        <path id="ArialMT-45" d="M 506 0 
L 506 4581 
L 3819 4581 
L 3819 4041 
L 1113 4041 
L 1113 2638 
L 3647 2638 
L 3647 2100 
L 1113 2100 
L 1113 541 
L 3925 541 
L 3925 0 
L 506 0 
z
" transform="scale(0.015625)"/>
        <path id="ArialMT-31" d="M 2384 0 
L 1822 0 
L 1822 3584 
Q 1619 3391 1289 3197 
Q 959 3003 697 2906 
L 697 3450 
Q 1169 3672 1522 3987 
Q 1875 4303 2022 4600 
L 2384 4600 
L 2384 0 
z
" transform="scale(0.015625)"/>
        <path id="ArialMT-38" d="M 1131 2484 
Q 781 2613 612 2850 
Q 444 3088 444 3419 
Q 444 3919 803 4259 
Q 1163 4600 1759 4600 
Q 2359 4600 2725 4251 
Q 3091 3903 3091 3403 
Q 3091 3084 2923 2848 
Q 2756 2613 2416 2484 
Q 2838 2347 3058 2040 
Q 3278 1734 3278 1309 
Q 3278 722 2862 322 
Q 2447 -78 1769 -78 
Q 1091 -78 675 323 
Q 259 725 259 1325 
Q 259 1772 486 2073 
Q 713 2375 1131 2484 
z
M 1019 3438 
Q 1019 3113 1228 2906 
Q 1438 2700 1772 2700 
Q 2097 2700 2305 2904 
Q 2513 3109 2513 3406 
Q 2513 3716 2298 3927 
Q 2084 4138 1766 4138 
Q 1444 4138 1231 3931 
Q 1019 3725 1019 3438 
z
M 838 1322 
Q 838 1081 952 856 
Q 1066 631 1291 507 
Q 1516 384 1775 384 
Q 2178 384 2440 643 
Q 2703 903 2703 1303 
Q 2703 1709 2433 1975 
Q 2163 2241 1756 2241 
Q 1359 2241 1098 1978 
Q 838 1716 838 1322 
z
" transform="scale(0.015625)"/>
       </defs>
       <use xlink:href="#ArialMT-53"/>
       <use xlink:href="#ArialMT-6f" transform="translate(66.699219 0)"/>
       <use xlink:href="#ArialMT-72" transform="translate(122.314453 0)"/>
       <use xlink:href="#ArialMT-74" transform="translate(155.615234 0)"/>
       <use xlink:href="#ArialMT-65" transform="translate(183.398438 0)"/>
       <use xlink:href="#ArialMT-64" transform="translate(239.013672 0)"/>
       <use xlink:href="#ArialMT-53" transform="translate(294.628906 0)"/>
       <use xlink:href="#ArialMT-74" transform="translate(361.328125 0)"/>
       <use xlink:href="#ArialMT-65" transform="translate(389.111328 0)"/>
       <use xlink:href="#ArialMT-70" transform="translate(444.726562 0)"/>
       <use xlink:href="#ArialMT-46" transform="translate(500.341797 0)"/>
       <use xlink:href="#ArialMT-6f" transform="translate(561.425781 0)"/>
       <use xlink:href="#ArialMT-72" transform="translate(617.041016 0)"/>
       <use xlink:href="#ArialMT-77" transform="translate(650.341797 0)"/>
       <use xlink:href="#ArialMT-61" transform="translate(722.558594 0)"/>
       <use xlink:href="#ArialMT-72" transform="translate(778.173828 0)"/>
       <use xlink:href="#ArialMT-64" transform="translate(811.474609 0)"/>
       <use xlink:href="#ArialMT-5f" transform="translate(867.089844 0)"/>
       <use xlink:href="#ArialMT-4d" transform="translate(922.705078 0)"/>
       <use xlink:href="#ArialMT-43" transform="translate(1006.005859 0)"/>
       <use xlink:href="#ArialMT-45" transform="translate(1078.222656 0)"/>
       <use xlink:href="#ArialMT-31" transform="translate(1144.921875 0)"/>
       <use xlink:href="#ArialMT-38" transform="translate(1200.537109 0)"/>
      </g>
     </g>
    </g>
    <g id="xtick_6">
     <g id="text_6">
      <!-- UnsortedStepForward -->
      <g style="fill: #262626" transform="translate(567.959083 784.958298) rotate(-45) scale(0.176 -0.176)">
       <defs>
        <path id="ArialMT-55" d="M 3500 4581 
L 4106 4581 
L 4106 1934 
Q 4106 1244 3950 837 
Q 3794 431 3386 176 
Q 2978 -78 2316 -78 
Q 1672 -78 1262 144 
Q 853 366 678 786 
Q 503 1206 503 1934 
L 503 4581 
L 1109 4581 
L 1109 1938 
Q 1109 1341 1220 1058 
Q 1331 775 1601 622 
Q 1872 469 2263 469 
Q 2931 469 3215 772 
Q 3500 1075 3500 1938 
L 3500 4581 
z
" transform="scale(0.015625)"/>
        <path id="ArialMT-73" d="M 197 991 
L 753 1078 
Q 800 744 1014 566 
Q 1228 388 1613 388 
Q 2000 388 2187 545 
Q 2375 703 2375 916 
Q 2375 1106 2209 1216 
Q 2094 1291 1634 1406 
Q 1016 1563 777 1677 
Q 538 1791 414 1992 
Q 291 2194 291 2438 
Q 291 2659 392 2848 
Q 494 3038 669 3163 
Q 800 3259 1026 3326 
Q 1253 3394 1513 3394 
Q 1903 3394 2198 3281 
Q 2494 3169 2634 2976 
Q 2775 2784 2828 2463 
L 2278 2388 
Q 2241 2644 2061 2787 
Q 1881 2931 1553 2931 
Q 1166 2931 1000 2803 
Q 834 2675 834 2503 
Q 834 2394 903 2306 
Q 972 2216 1119 2156 
Q 1203 2125 1616 2013 
Q 2213 1853 2448 1751 
Q 2684 1650 2818 1456 
Q 2953 1263 2953 975 
Q 2953 694 2789 445 
Q 2625 197 2315 61 
Q 2006 -75 1616 -75 
Q 969 -75 630 194 
Q 291 463 197 991 
z
" transform="scale(0.015625)"/>
       </defs>
       <use xlink:href="#ArialMT-55"/>
       <use xlink:href="#ArialMT-6e" transform="translate(72.216797 0)"/>
       <use xlink:href="#ArialMT-73" transform="translate(127.832031 0)"/>
       <use xlink:href="#ArialMT-6f" transform="translate(177.832031 0)"/>
       <use xlink:href="#ArialMT-72" transform="translate(233.447266 0)"/>
       <use xlink:href="#ArialMT-74" transform="translate(266.748047 0)"/>
       <use xlink:href="#ArialMT-65" transform="translate(294.53125 0)"/>
       <use xlink:href="#ArialMT-64" transform="translate(350.146484 0)"/>
       <use xlink:href="#ArialMT-53" transform="translate(405.761719 0)"/>
       <use xlink:href="#ArialMT-74" transform="translate(472.460938 0)"/>
       <use xlink:href="#ArialMT-65" transform="translate(500.244141 0)"/>
       <use xlink:href="#ArialMT-70" transform="translate(555.859375 0)"/>
       <use xlink:href="#ArialMT-46" transform="translate(611.474609 0)"/>
       <use xlink:href="#ArialMT-6f" transform="translate(672.558594 0)"/>
       <use xlink:href="#ArialMT-72" transform="translate(728.173828 0)"/>
       <use xlink:href="#ArialMT-77" transform="translate(761.474609 0)"/>
       <use xlink:href="#ArialMT-61" transform="translate(833.691406 0)"/>
       <use xlink:href="#ArialMT-72" transform="translate(889.306641 0)"/>
       <use xlink:href="#ArialMT-64" transform="translate(922.607422 0)"/>
      </g>
     </g>
    </g>
    <g id="text_7">
     <!-- split_type -->
     <g style="fill: #262626" transform="translate(340.827825 839.762355) scale(0.192 -0.192)">
      <defs>
       <path id="ArialMT-79" d="M 397 -1278 
L 334 -750 
Q 519 -800 656 -800 
Q 844 -800 956 -737 
Q 1069 -675 1141 -563 
Q 1194 -478 1313 -144 
Q 1328 -97 1363 -6 
L 103 3319 
L 709 3319 
L 1400 1397 
Q 1534 1031 1641 628 
Q 1738 1016 1872 1384 
L 2581 3319 
L 3144 3319 
L 1881 -56 
Q 1678 -603 1566 -809 
Q 1416 -1088 1222 -1217 
Q 1028 -1347 759 -1347 
Q 597 -1347 397 -1278 
z
" transform="scale(0.015625)"/>
      </defs>
      <use xlink:href="#ArialMT-73"/>
      <use xlink:href="#ArialMT-70" transform="translate(50 0)"/>
      <use xlink:href="#ArialMT-6c" transform="translate(105.615234 0)"/>
      <use xlink:href="#ArialMT-69" transform="translate(127.832031 0)"/>
      <use xlink:href="#ArialMT-74" transform="translate(150.048828 0)"/>
      <use xlink:href="#ArialMT-5f" transform="translate(177.832031 0)"/>
      <use xlink:href="#ArialMT-74" transform="translate(233.447266 0)"/>
      <use xlink:href="#ArialMT-79" transform="translate(261.230469 0)"/>
      <use xlink:href="#ArialMT-70" transform="translate(311.230469 0)"/>
      <use xlink:href="#ArialMT-65" transform="translate(366.845703 0)"/>
     </g>
    </g>
   </g>
   <g id="matplotlib.axis_2">
    <g id="ytick_1">
     <g id="line2d_1">
      <path d="M 69.846 611.513694 
L 692.917651 611.513694 
" clip-path="url(#pd6024a0a76)" style="fill: none; stroke: #cccccc; stroke-width: 0.8; stroke-linecap: round"/>
     </g>
     <g id="text_8">
      <!-- 0 -->
      <g style="fill: #262626" transform="translate(51.75875 617.812569) scale(0.176 -0.176)">
       <defs>
        <path id="ArialMT-30" d="M 266 2259 
Q 266 3072 433 3567 
Q 600 4063 929 4331 
Q 1259 4600 1759 4600 
Q 2128 4600 2406 4451 
Q 2684 4303 2865 4023 
Q 3047 3744 3150 3342 
Q 3253 2941 3253 2259 
Q 3253 1453 3087 958 
Q 2922 463 2592 192 
Q 2263 -78 1759 -78 
Q 1097 -78 719 397 
Q 266 969 266 2259 
z
M 844 2259 
Q 844 1131 1108 757 
Q 1372 384 1759 384 
Q 2147 384 2411 759 
Q 2675 1134 2675 2259 
Q 2675 3391 2411 3762 
Q 2147 4134 1753 4134 
Q 1366 4134 1134 3806 
Q 844 3388 844 2259 
z
" transform="scale(0.015625)"/>
       </defs>
       <use xlink:href="#ArialMT-30"/>
      </g>
     </g>
    </g>
    <g id="ytick_2">
     <g id="line2d_2">
      <path d="M 69.846 513.856842 
L 692.917651 513.856842 
" clip-path="url(#pd6024a0a76)" style="fill: none; stroke: #cccccc; stroke-width: 0.8; stroke-linecap: round"/>
     </g>
     <g id="text_9">
      <!-- 2 -->
      <g style="fill: #262626" transform="translate(51.75875 520.155717) scale(0.176 -0.176)">
       <defs>
        <path id="ArialMT-32" d="M 3222 541 
L 3222 0 
L 194 0 
Q 188 203 259 391 
Q 375 700 629 1000 
Q 884 1300 1366 1694 
Q 2113 2306 2375 2664 
Q 2638 3022 2638 3341 
Q 2638 3675 2398 3904 
Q 2159 4134 1775 4134 
Q 1369 4134 1125 3890 
Q 881 3647 878 3216 
L 300 3275 
Q 359 3922 746 4261 
Q 1134 4600 1788 4600 
Q 2447 4600 2831 4234 
Q 3216 3869 3216 3328 
Q 3216 3053 3103 2787 
Q 2991 2522 2730 2228 
Q 2469 1934 1863 1422 
Q 1356 997 1212 845 
Q 1069 694 975 541 
L 3222 541 
z
" transform="scale(0.015625)"/>
       </defs>
       <use xlink:href="#ArialMT-32"/>
      </g>
     </g>
    </g>
    <g id="ytick_3">
     <g id="line2d_3">
      <path d="M 69.846 416.19999 
L 692.917651 416.19999 
" clip-path="url(#pd6024a0a76)" style="fill: none; stroke: #cccccc; stroke-width: 0.8; stroke-linecap: round"/>
     </g>
     <g id="text_10">
      <!-- 4 -->
      <g style="fill: #262626" transform="translate(51.75875 422.498865) scale(0.176 -0.176)">
       <defs>
        <path id="ArialMT-34" d="M 2069 0 
L 2069 1097 
L 81 1097 
L 81 1613 
L 2172 4581 
L 2631 4581 
L 2631 1613 
L 3250 1613 
L 3250 1097 
L 2631 1097 
L 2631 0 
L 2069 0 
z
M 2069 1613 
L 2069 3678 
L 634 1613 
L 2069 1613 
z
" transform="scale(0.015625)"/>
       </defs>
       <use xlink:href="#ArialMT-34"/>
      </g>
     </g>
    </g>
    <g id="ytick_4">
     <g id="line2d_4">
      <path d="M 69.846 318.543139 
L 692.917651 318.543139 
" clip-path="url(#pd6024a0a76)" style="fill: none; stroke: #cccccc; stroke-width: 0.8; stroke-linecap: round"/>
     </g>
     <g id="text_11">
      <!-- 6 -->
      <g style="fill: #262626" transform="translate(51.75875 324.842014) scale(0.176 -0.176)">
       <defs>
        <path id="ArialMT-36" d="M 3184 3459 
L 2625 3416 
Q 2550 3747 2413 3897 
Q 2184 4138 1850 4138 
Q 1581 4138 1378 3988 
Q 1113 3794 959 3422 
Q 806 3050 800 2363 
Q 1003 2672 1297 2822 
Q 1591 2972 1913 2972 
Q 2475 2972 2870 2558 
Q 3266 2144 3266 1488 
Q 3266 1056 3080 686 
Q 2894 316 2569 119 
Q 2244 -78 1831 -78 
Q 1128 -78 684 439 
Q 241 956 241 2144 
Q 241 3472 731 4075 
Q 1159 4600 1884 4600 
Q 2425 4600 2770 4297 
Q 3116 3994 3184 3459 
z
M 888 1484 
Q 888 1194 1011 928 
Q 1134 663 1356 523 
Q 1578 384 1822 384 
Q 2178 384 2434 671 
Q 2691 959 2691 1453 
Q 2691 1928 2437 2201 
Q 2184 2475 1800 2475 
Q 1419 2475 1153 2201 
Q 888 1928 888 1484 
z
" transform="scale(0.015625)"/>
       </defs>
       <use xlink:href="#ArialMT-36"/>
      </g>
     </g>
    </g>
    <g id="ytick_5">
     <g id="line2d_5">
      <path d="M 69.846 220.886287 
L 692.917651 220.886287 
" clip-path="url(#pd6024a0a76)" style="fill: none; stroke: #cccccc; stroke-width: 0.8; stroke-linecap: round"/>
     </g>
     <g id="text_12">
      <!-- 8 -->
      <g style="fill: #262626" transform="translate(51.75875 227.185162) scale(0.176 -0.176)">
       <use xlink:href="#ArialMT-38"/>
      </g>
     </g>
    </g>
    <g id="ytick_6">
     <g id="line2d_6">
      <path d="M 69.846 123.229435 
L 692.917651 123.229435 
" clip-path="url(#pd6024a0a76)" style="fill: none; stroke: #cccccc; stroke-width: 0.8; stroke-linecap: round"/>
     </g>
     <g id="text_13">
      <!-- 10 -->
      <g style="fill: #262626" transform="translate(41.9715 129.52831) scale(0.176 -0.176)">
       <use xlink:href="#ArialMT-31"/>
       <use xlink:href="#ArialMT-30" transform="translate(55.615234 0)"/>
      </g>
     </g>
    </g>
    <g id="text_14">
     <!-- novelty_err -->
     <g style="fill: #262626" transform="translate(33.9305 390.626674) rotate(-90) scale(0.192 -0.192)">
      <defs>
       <path id="ArialMT-76" d="M 1344 0 
L 81 3319 
L 675 3319 
L 1388 1331 
Q 1503 1009 1600 663 
Q 1675 925 1809 1294 
L 2547 3319 
L 3125 3319 
L 1869 0 
L 1344 0 
z
" transform="scale(0.015625)"/>
      </defs>
      <use xlink:href="#ArialMT-6e"/>
      <use xlink:href="#ArialMT-6f" transform="translate(55.615234 0)"/>
      <use xlink:href="#ArialMT-76" transform="translate(111.230469 0)"/>
      <use xlink:href="#ArialMT-65" transform="translate(161.230469 0)"/>
      <use xlink:href="#ArialMT-6c" transform="translate(216.845703 0)"/>
      <use xlink:href="#ArialMT-74" transform="translate(239.0625 0)"/>
      <use xlink:href="#ArialMT-79" transform="translate(266.845703 0)"/>
      <use xlink:href="#ArialMT-5f" transform="translate(316.845703 0)"/>
      <use xlink:href="#ArialMT-65" transform="translate(372.460938 0)"/>
      <use xlink:href="#ArialMT-72" transform="translate(428.076172 0)"/>
      <use xlink:href="#ArialMT-72" transform="translate(461.376953 0)"/>
     </g>
    </g>
   </g>
   <g id="FillBetweenPolyCollection_1">
    <defs>
     <path id="ma707f83df8" d="M 137.542005 -238.714543 
L 136.920979 -238.714543 
L 136.093378 -242.872299 
L 134.118287 -247.030054 
L 130.681387 -251.18781 
L 126.173971 -255.345566 
L 121.429997 -259.503321 
L 116.980325 -263.661077 
L 112.7815 -267.818833 
L 108.608077 -271.976588 
L 104.538007 -276.134344 
L 101.063143 -280.2921 
L 98.811315 -284.449855 
L 98.167439 -288.607611 
L 99.044582 -292.765367 
L 100.944044 -296.923123 
L 103.290567 -301.080878 
L 105.786802 -305.238634 
L 108.428614 -309.39639 
L 111.21382 -313.554145 
L 113.995761 -317.711901 
L 116.594979 -321.869657 
L 118.918149 -326.027412 
L 120.99413 -330.185168 
L 122.895458 -334.342924 
L 124.636403 -338.500679 
L 126.221335 -342.658435 
L 127.696315 -346.816191 
L 129.089023 -350.973946 
L 130.357308 -355.131702 
L 131.404999 -359.289458 
L 132.189038 -363.447213 
L 132.784373 -367.604969 
L 133.282792 -371.762725 
L 133.722647 -375.92048 
L 134.143142 -380.078236 
L 134.590225 -384.235992 
L 135.041844 -388.393747 
L 135.418494 -392.551503 
L 135.676028 -396.709259 
L 135.821002 -400.867015 
L 135.877889 -405.02477 
L 135.905721 -409.182526 
L 135.990854 -413.340282 
L 136.161707 -417.498037 
L 136.347223 -421.655793 
L 136.463285 -425.813549 
L 136.509781 -429.971304 
L 136.557828 -434.12906 
L 136.669794 -438.286816 
L 136.839359 -442.444571 
L 136.99996 -446.602327 
L 137.095378 -450.760083 
L 137.125687 -454.917838 
L 137.123872 -459.075594 
L 137.120448 -463.23335 
L 137.129205 -467.391105 
L 137.144655 -471.548861 
L 137.155808 -475.706617 
L 137.161012 -479.864372 
L 137.164491 -484.022128 
L 137.171044 -488.179884 
L 137.183247 -492.337639 
L 137.193191 -496.495395 
L 137.184569 -500.653151 
L 137.150406 -504.810907 
L 137.10548 -508.968662 
L 137.077203 -513.126418 
L 137.083912 -517.284174 
L 137.121975 -521.441929 
L 137.16983 -525.599685 
L 137.205541 -529.757441 
L 137.221711 -533.915196 
L 137.221896 -538.072952 
L 137.210677 -542.230708 
L 137.194622 -546.388463 
L 137.185663 -550.546219 
L 137.191906 -554.703975 
L 137.207728 -558.86173 
L 137.221433 -563.019486 
L 137.227579 -567.177242 
L 137.226313 -571.334997 
L 137.217405 -575.492753 
L 137.201888 -579.650509 
L 137.188063 -583.808264 
L 137.187235 -587.96602 
L 137.200169 -592.123776 
L 137.216097 -596.281532 
L 137.226237 -600.439287 
L 137.230245 -604.597043 
L 137.231274 -608.754799 
L 137.231342 -612.912554 
L 137.230654 -617.07031 
L 137.227644 -621.228066 
L 137.219189 -625.385821 
L 137.204178 -629.543577 
L 137.189376 -633.701333 
L 137.186393 -637.859088 
L 137.197953 -642.016844 
L 137.21417 -646.1746 
L 137.225279 -650.332355 
L 137.237705 -650.332355 
L 137.237705 -650.332355 
L 137.248814 -646.1746 
L 137.265031 -642.016844 
L 137.276591 -637.859088 
L 137.273608 -633.701333 
L 137.258806 -629.543577 
L 137.243795 -625.385821 
L 137.23534 -621.228066 
L 137.23233 -617.07031 
L 137.231642 -612.912554 
L 137.23171 -608.754799 
L 137.232739 -604.597043 
L 137.236747 -600.439287 
L 137.246887 -596.281532 
L 137.262815 -592.123776 
L 137.275749 -587.96602 
L 137.274921 -583.808264 
L 137.261096 -579.650509 
L 137.245579 -575.492753 
L 137.236671 -571.334997 
L 137.235405 -567.177242 
L 137.241551 -563.019486 
L 137.255256 -558.86173 
L 137.271078 -554.703975 
L 137.277321 -550.546219 
L 137.268362 -546.388463 
L 137.252307 -542.230708 
L 137.241088 -538.072952 
L 137.241273 -533.915196 
L 137.257443 -529.757441 
L 137.293154 -525.599685 
L 137.341009 -521.441929 
L 137.379073 -517.284174 
L 137.385782 -513.126418 
L 137.357504 -508.968662 
L 137.312578 -504.810907 
L 137.278415 -500.653151 
L 137.269793 -496.495395 
L 137.279737 -492.337639 
L 137.29194 -488.179884 
L 137.298493 -484.022128 
L 137.301972 -479.864372 
L 137.307176 -475.706617 
L 137.318329 -471.548861 
L 137.333779 -467.391105 
L 137.342536 -463.23335 
L 137.339112 -459.075594 
L 137.337297 -454.917838 
L 137.367606 -450.760083 
L 137.463024 -446.602327 
L 137.623625 -442.444571 
L 137.79319 -438.286816 
L 137.905156 -434.12906 
L 137.953203 -429.971304 
L 137.999699 -425.813549 
L 138.115761 -421.655793 
L 138.301277 -417.498037 
L 138.47213 -413.340282 
L 138.557263 -409.182526 
L 138.585095 -405.02477 
L 138.641982 -400.867015 
L 138.786956 -396.709259 
L 139.044491 -392.551503 
L 139.42114 -388.393747 
L 139.872759 -384.235992 
L 140.319842 -380.078236 
L 140.740337 -375.92048 
L 141.180192 -371.762725 
L 141.678611 -367.604969 
L 142.273946 -363.447213 
L 143.057985 -359.289458 
L 144.105676 -355.131702 
L 145.373961 -350.973946 
L 146.766669 -346.816191 
L 148.241649 -342.658435 
L 149.826581 -338.500679 
L 151.567526 -334.342924 
L 153.468854 -330.185168 
L 155.544835 -326.027412 
L 157.868005 -321.869657 
L 160.467223 -317.711901 
L 163.249164 -313.554145 
L 166.03437 -309.39639 
L 168.676182 -305.238634 
L 171.172418 -301.080878 
L 173.518941 -296.923123 
L 175.418402 -292.765367 
L 176.295545 -288.607611 
L 175.651669 -284.449855 
L 173.399841 -280.2921 
L 169.924977 -276.134344 
L 165.854907 -271.976588 
L 161.681484 -267.818833 
L 157.482659 -263.661077 
L 153.032987 -259.503321 
L 148.289013 -255.345566 
L 143.781597 -251.18781 
L 140.344697 -247.030054 
L 138.369606 -242.872299 
L 137.542005 -238.714543 
z
" style="stroke: #494949"/>
    </defs>
    <g clip-path="url(#pd6024a0a76)">
     <use xlink:href="#ma707f83df8" x="0" y="864" style="fill: #5875a4; stroke: #494949"/>
    </g>
   </g>
   <g id="FillBetweenPolyCollection_2">
    <defs>
     <path id="m58ddd628d0" d="M 234.992722 -241.749431 
L 234.790529 -241.749431 
L 234.510855 -245.025172 
L 233.810445 -248.300914 
L 232.492196 -251.576655 
L 230.528743 -254.852396 
L 228.02123 -258.128137 
L 225.004402 -261.403879 
L 221.398049 -264.67962 
L 217.187721 -267.955361 
L 212.567595 -271.231103 
L 207.894469 -274.506844 
L 203.574815 -277.782585 
L 199.951183 -281.058326 
L 197.274954 -284.334068 
L 195.827572 -287.609809 
L 195.902591 -290.88555 
L 197.512907 -294.161292 
L 200.177167 -297.437033 
L 203.11431 -300.712774 
L 205.771682 -303.988516 
L 208.188254 -307.264257 
L 210.771143 -310.539998 
L 213.769357 -313.815739 
L 217.035444 -317.091481 
L 220.174348 -320.367222 
L 222.812603 -323.642963 
L 224.79396 -326.918705 
L 226.202105 -330.194446 
L 227.233409 -333.470187 
L 228.07468 -336.745928 
L 228.827713 -340.02167 
L 229.473388 -343.297411 
L 229.943028 -346.573152 
L 230.248368 -349.848894 
L 230.53801 -353.124635 
L 230.978288 -356.400376 
L 231.572463 -359.676118 
L 232.1876 -362.951859 
L 232.720647 -366.2276 
L 233.138126 -369.503341 
L 233.419156 -372.779083 
L 233.57296 -376.054824 
L 233.675649 -379.330565 
L 233.805949 -382.606307 
L 233.97211 -385.882048 
L 234.135686 -389.157789 
L 234.260573 -392.433531 
L 234.321297 -395.709272 
L 234.316698 -398.985013 
L 234.286319 -402.260754 
L 234.27939 -405.536496 
L 234.310636 -408.812237 
L 234.353817 -412.087978 
L 234.38058 -415.36372 
L 234.405129 -418.639461 
L 234.46519 -421.915202 
L 234.564555 -425.190943 
L 234.668107 -428.466685 
L 234.74356 -431.742426 
L 234.781569 -435.018167 
L 234.785517 -438.293909 
L 234.768316 -441.56965 
L 234.754469 -444.845391 
L 234.760618 -448.121133 
L 234.779435 -451.396874 
L 234.795958 -454.672615 
L 234.80613 -457.948356 
L 234.814287 -461.224098 
L 234.825757 -464.499839 
L 234.8431 -467.77558 
L 234.862063 -471.051322 
L 234.873146 -474.327063 
L 234.870539 -477.602804 
L 234.85848 -480.878545 
L 234.84829 -484.154287 
L 234.846101 -487.430028 
L 234.846679 -490.705769 
L 234.846081 -493.981511 
L 234.850282 -497.257252 
L 234.86288 -500.532993 
L 234.87699 -503.808735 
L 234.884349 -507.084476 
L 234.881986 -510.360217 
L 234.870843 -513.635958 
L 234.857131 -516.9117 
L 234.851826 -520.187441 
L 234.859941 -523.463182 
L 234.87423 -526.738924 
L 234.885038 -530.014665 
L 234.889897 -533.290406 
L 234.891224 -536.566147 
L 234.89095 -539.841889 
L 234.888569 -543.11763 
L 234.881527 -546.393371 
L 234.86859 -549.669113 
L 234.855388 -552.944854 
L 234.852313 -556.220595 
L 234.862214 -559.496337 
L 234.876451 -562.772078 
L 234.886226 -566.047819 
L 234.897024 -566.047819 
L 234.897024 -566.047819 
L 234.906799 -562.772078 
L 234.921036 -559.496337 
L 234.930938 -556.220595 
L 234.927863 -552.944854 
L 234.914661 -549.669113 
L 234.901724 -546.393371 
L 234.894682 -543.11763 
L 234.8923 -539.841889 
L 234.892027 -536.566147 
L 234.893354 -533.290406 
L 234.898212 -530.014665 
L 234.909021 -526.738924 
L 234.92331 -523.463182 
L 234.931425 -520.187441 
L 234.92612 -516.9117 
L 234.912408 -513.635958 
L 234.901264 -510.360217 
L 234.898902 -507.084476 
L 234.906261 -503.808735 
L 234.920371 -500.532993 
L 234.932969 -497.257252 
L 234.93717 -493.981511 
L 234.936572 -490.705769 
L 234.93715 -487.430028 
L 234.934961 -484.154287 
L 234.92477 -480.878545 
L 234.912711 -477.602804 
L 234.910105 -474.327063 
L 234.921187 -471.051322 
L 234.94015 -467.77558 
L 234.957494 -464.499839 
L 234.968964 -461.224098 
L 234.977121 -457.948356 
L 234.987292 -454.672615 
L 235.003816 -451.396874 
L 235.022633 -448.121133 
L 235.028781 -444.845391 
L 235.014934 -441.56965 
L 234.997734 -438.293909 
L 235.001682 -435.018167 
L 235.039691 -431.742426 
L 235.115144 -428.466685 
L 235.218696 -425.190943 
L 235.31806 -421.915202 
L 235.378121 -418.639461 
L 235.402671 -415.36372 
L 235.429433 -412.087978 
L 235.472615 -408.812237 
L 235.503861 -405.536496 
L 235.496932 -402.260754 
L 235.466553 -398.985013 
L 235.461954 -395.709272 
L 235.522678 -392.433531 
L 235.647564 -389.157789 
L 235.81114 -385.882048 
L 235.977301 -382.606307 
L 236.107602 -379.330565 
L 236.21029 -376.054824 
L 236.364095 -372.779083 
L 236.645125 -369.503341 
L 237.062603 -366.2276 
L 237.59565 -362.951859 
L 238.210787 -359.676118 
L 238.804963 -356.400376 
L 239.24524 -353.124635 
L 239.534883 -349.848894 
L 239.840223 -346.573152 
L 240.309862 -343.297411 
L 240.955538 -340.02167 
L 241.708571 -336.745928 
L 242.549842 -333.470187 
L 243.581146 -330.194446 
L 244.98929 -326.918705 
L 246.970648 -323.642963 
L 249.608902 -320.367222 
L 252.747807 -317.091481 
L 256.013894 -313.815739 
L 259.012108 -310.539998 
L 261.594997 -307.264257 
L 264.011569 -303.988516 
L 266.668941 -300.712774 
L 269.606084 -297.437033 
L 272.270344 -294.161292 
L 273.88066 -290.88555 
L 273.955679 -287.609809 
L 272.508297 -284.334068 
L 269.832068 -281.058326 
L 266.208436 -277.782585 
L 261.888782 -274.506844 
L 257.215656 -271.231103 
L 252.59553 -267.955361 
L 248.385202 -264.67962 
L 244.778849 -261.403879 
L 241.762021 -258.128137 
L 239.254508 -254.852396 
L 237.291055 -251.576655 
L 235.972806 -248.300914 
L 235.272395 -245.025172 
L 234.992722 -241.749431 
z
" style="stroke: #494949"/>
    </defs>
    <g clip-path="url(#pd6024a0a76)">
     <use xlink:href="#m58ddd628d0" x="0" y="864" style="fill: #cc8963; stroke: #494949"/>
    </g>
   </g>
   <g id="FillBetweenPolyCollection_3">
    <defs>
     <path id="mbbd8170d44" d="M 332.670919 -241.340998 
L 332.432598 -241.340998 
L 332.131396 -244.717149 
L 331.450327 -248.0933 
L 330.335724 -251.469452 
L 328.941844 -254.845603 
L 327.413499 -258.221754 
L 325.610365 -261.597905 
L 323.207402 -264.974056 
L 320.025752 -268.350207 
L 316.127097 -271.726358 
L 311.712755 -275.102509 
L 307.145982 -278.47866 
L 302.904319 -281.854811 
L 299.28913 -285.230962 
L 296.376365 -288.607113 
L 294.328184 -291.983264 
L 293.487705 -295.359415 
L 294.134633 -298.735566 
L 296.241957 -302.111717 
L 299.353768 -305.487868 
L 302.777962 -308.864019 
L 306.104041 -312.24017 
L 309.372713 -315.616321 
L 312.660678 -318.992473 
L 315.776253 -322.368624 
L 318.412104 -325.744775 
L 320.40828 -329.120926 
L 321.859447 -332.497077 
L 323.017671 -335.873228 
L 324.075808 -339.249379 
L 325.076116 -342.62553 
L 325.987028 -346.001681 
L 326.776476 -349.377832 
L 327.456757 -352.753983 
L 328.083542 -356.130134 
L 328.666595 -359.506285 
L 329.145948 -362.882436 
L 329.502585 -366.258587 
L 329.809284 -369.634738 
L 330.145741 -373.010889 
L 330.517981 -376.38704 
L 330.850341 -379.763191 
L 331.04407 -383.139343 
L 331.091415 -386.515494 
L 331.113891 -389.891645 
L 331.232925 -393.267796 
L 331.448194 -396.643947 
L 331.67539 -400.020098 
L 331.836641 -403.396249 
L 331.909352 -406.7724 
L 331.94065 -410.148551 
L 332.00054 -413.524702 
L 332.098142 -416.900853 
L 332.173831 -420.277004 
L 332.18449 -423.653155 
L 332.157799 -427.029306 
L 332.149146 -430.405457 
L 332.17772 -433.781608 
L 332.224355 -437.157759 
L 332.271885 -440.53391 
L 332.319911 -443.910061 
L 332.367862 -447.286212 
L 332.408776 -450.662364 
L 332.437109 -454.038515 
L 332.450287 -457.414666 
L 332.448597 -460.790817 
L 332.439794 -464.166968 
L 332.43456 -467.543119 
L 332.434133 -470.91927 
L 332.433578 -474.295421 
L 332.43448 -477.671572 
L 332.440968 -481.047723 
L 332.450414 -484.423874 
L 332.461787 -487.800025 
L 332.480909 -491.176176 
L 332.505931 -494.552327 
L 332.523439 -497.928478 
L 332.525332 -501.304629 
L 332.518098 -504.68078 
L 332.512765 -508.056931 
L 332.510703 -511.433082 
L 332.505252 -514.809233 
L 332.496044 -518.185385 
L 332.492162 -521.561536 
L 332.500577 -524.937687 
L 332.518055 -528.313838 
L 332.535222 -531.689989 
L 332.545765 -535.06614 
L 332.549596 -538.442291 
L 332.548489 -541.818442 
L 332.542246 -545.194593 
L 332.530678 -548.570744 
L 332.517946 -551.946895 
L 332.510159 -555.323046 
L 332.508005 -558.699197 
L 332.508987 -562.075348 
L 332.514676 -565.451499 
L 332.52632 -568.82765 
L 332.538982 -572.203801 
L 332.547217 -575.579952 
L 332.5563 -575.579952 
L 332.5563 -575.579952 
L 332.564535 -572.203801 
L 332.577198 -568.82765 
L 332.588841 -565.451499 
L 332.59453 -562.075348 
L 332.595512 -558.699197 
L 332.593358 -555.323046 
L 332.585572 -551.946895 
L 332.572839 -548.570744 
L 332.561271 -545.194593 
L 332.555029 -541.818442 
L 332.553922 -538.442291 
L 332.557752 -535.06614 
L 332.568295 -531.689989 
L 332.585463 -528.313838 
L 332.60294 -524.937687 
L 332.611355 -521.561536 
L 332.607473 -518.185385 
L 332.598265 -514.809233 
L 332.592815 -511.433082 
L 332.590753 -508.056931 
L 332.585419 -504.68078 
L 332.578186 -501.304629 
L 332.580079 -497.928478 
L 332.597587 -494.552327 
L 332.622608 -491.176176 
L 332.641731 -487.800025 
L 332.653103 -484.423874 
L 332.662549 -481.047723 
L 332.669037 -477.671572 
L 332.669939 -474.295421 
L 332.669385 -470.91927 
L 332.668957 -467.543119 
L 332.663724 -464.166968 
L 332.654921 -460.790817 
L 332.65323 -457.414666 
L 332.666408 -454.038515 
L 332.694741 -450.662364 
L 332.735655 -447.286212 
L 332.783606 -443.910061 
L 332.831632 -440.53391 
L 332.879162 -437.157759 
L 332.925798 -433.781608 
L 332.954371 -430.405457 
L 332.945719 -427.029306 
L 332.919027 -423.653155 
L 332.929686 -420.277004 
L 333.005375 -416.900853 
L 333.102977 -413.524702 
L 333.162867 -410.148551 
L 333.194165 -406.7724 
L 333.266876 -403.396249 
L 333.428127 -400.020098 
L 333.655323 -396.643947 
L 333.870592 -393.267796 
L 333.989627 -389.891645 
L 334.012102 -386.515494 
L 334.059448 -383.139343 
L 334.253176 -379.763191 
L 334.585537 -376.38704 
L 334.957776 -373.010889 
L 335.294233 -369.634738 
L 335.600933 -366.258587 
L 335.95757 -362.882436 
L 336.436923 -359.506285 
L 337.019975 -356.130134 
L 337.64676 -352.753983 
L 338.327041 -349.377832 
L 339.116489 -346.001681 
L 340.027402 -342.62553 
L 341.02771 -339.249379 
L 342.085846 -335.873228 
L 343.24407 -332.497077 
L 344.695237 -329.120926 
L 346.691413 -325.744775 
L 349.327264 -322.368624 
L 352.44284 -318.992473 
L 355.730805 -315.616321 
L 358.999477 -312.24017 
L 362.325555 -308.864019 
L 365.74975 -305.487868 
L 368.86156 -302.111717 
L 370.968885 -298.735566 
L 371.615812 -295.359415 
L 370.775333 -291.983264 
L 368.727152 -288.607113 
L 365.814388 -285.230962 
L 362.199198 -281.854811 
L 357.957536 -278.47866 
L 353.390763 -275.102509 
L 348.97642 -271.726358 
L 345.077766 -268.350207 
L 341.896116 -264.974056 
L 339.493152 -261.597905 
L 337.690019 -258.221754 
L 336.161674 -254.845603 
L 334.767794 -251.469452 
L 333.653191 -248.0933 
L 332.972121 -244.717149 
L 332.670919 -241.340998 
z
" style="stroke: #494949"/>
    </defs>
    <g clip-path="url(#pd6024a0a76)">
     <use xlink:href="#mbbd8170d44" x="0" y="864" style="fill: #5f9e6e; stroke: #494949"/>
    </g>
   </g>
   <g id="FillBetweenPolyCollection_4">
    <defs>
     <path id="me0021c1515" d="M 430.291049 -241.384936 
L 430.132735 -241.384936 
L 429.942937 -244.504309 
L 429.49668 -247.623681 
L 428.687305 -250.743053 
L 427.521161 -253.862426 
L 426.117011 -256.981798 
L 424.586618 -260.10117 
L 422.91664 -263.220543 
L 420.944479 -266.339915 
L 418.420711 -269.459288 
L 415.137529 -272.57866 
L 411.081605 -275.698032 
L 406.499373 -278.817405 
L 401.812987 -281.936777 
L 397.518271 -285.056149 
L 394.137216 -288.175522 
L 392.028978 -291.294894 
L 391.147839 -294.414266 
L 391.222961 -297.533639 
L 392.201396 -300.653011 
L 394.225227 -303.772383 
L 397.188832 -306.891756 
L 400.614083 -310.011128 
L 403.987015 -313.1305 
L 407.049025 -316.249873 
L 409.771567 -319.369245 
L 412.196532 -322.488617 
L 414.35588 -325.60799 
L 416.253476 -328.727362 
L 417.844522 -331.846735 
L 419.080948 -334.966107 
L 420.029332 -338.085479 
L 420.875301 -341.204852 
L 421.756749 -344.324224 
L 422.67975 -347.443596 
L 423.619458 -350.562969 
L 424.57015 -353.682341 
L 425.476372 -356.801713 
L 426.228637 -359.921086 
L 426.750626 -363.040458 
L 427.057067 -366.15983 
L 427.245633 -369.279203 
L 427.440077 -372.398575 
L 427.703481 -375.517947 
L 427.990462 -378.63732 
L 428.211301 -381.756692 
L 428.351234 -384.876064 
L 428.482268 -387.995437 
L 428.649975 -391.114809 
L 428.822152 -394.234182 
L 428.966625 -397.353554 
L 429.099855 -400.472926 
L 429.241766 -403.592299 
L 429.385076 -406.711671 
L 429.515232 -409.831043 
L 429.622388 -412.950416 
L 429.69821 -416.069788 
L 429.740308 -419.18916 
L 429.755217 -422.308533 
L 429.756213 -425.427905 
L 429.763019 -428.547277 
L 429.793063 -431.66665 
L 429.843115 -434.786022 
L 429.887874 -437.905394 
L 429.907523 -441.024767 
L 429.911653 -444.144139 
L 429.927843 -447.263511 
L 429.971212 -450.382884 
L 430.030554 -453.502256 
L 430.080918 -456.621629 
L 430.105332 -459.741001 
L 430.10545 -462.860373 
L 430.096429 -465.979746 
L 430.092566 -469.099118 
L 430.096323 -472.21849 
L 430.103097 -475.337863 
L 430.11282 -478.457235 
L 430.12961 -481.576607 
L 430.153305 -484.69598 
L 430.177645 -487.815352 
L 430.195852 -490.934724 
L 430.205293 -494.054097 
L 430.206417 -497.173469 
L 430.198729 -500.292841 
L 430.180475 -503.412214 
L 430.15434 -506.531586 
L 430.131486 -509.650958 
L 430.124544 -512.770331 
L 430.135495 -515.889703 
L 430.153777 -519.009076 
L 430.166784 -522.128448 
L 430.170772 -525.24782 
L 430.170795 -528.367193 
L 430.171294 -531.486565 
L 430.171879 -534.605937 
L 430.173137 -537.72531 
L 430.178767 -540.844682 
L 430.18935 -543.964054 
L 430.200304 -547.083427 
L 430.207484 -550.202799 
L 430.2163 -550.202799 
L 430.2163 -550.202799 
L 430.22348 -547.083427 
L 430.234434 -543.964054 
L 430.245017 -540.844682 
L 430.250648 -537.72531 
L 430.251905 -534.605937 
L 430.25249 -531.486565 
L 430.252989 -528.367193 
L 430.253012 -525.24782 
L 430.257 -522.128448 
L 430.270008 -519.009076 
L 430.288289 -515.889703 
L 430.29924 -512.770331 
L 430.292298 -509.650958 
L 430.269444 -506.531586 
L 430.24331 -503.412214 
L 430.225055 -500.292841 
L 430.217367 -497.173469 
L 430.218491 -494.054097 
L 430.227932 -490.934724 
L 430.24614 -487.815352 
L 430.270479 -484.69598 
L 430.294175 -481.576607 
L 430.310964 -478.457235 
L 430.320687 -475.337863 
L 430.327461 -472.21849 
L 430.331218 -469.099118 
L 430.327356 -465.979746 
L 430.318334 -462.860373 
L 430.318452 -459.741001 
L 430.342866 -456.621629 
L 430.393231 -453.502256 
L 430.452573 -450.382884 
L 430.495941 -447.263511 
L 430.512131 -444.144139 
L 430.516261 -441.024767 
L 430.53591 -437.905394 
L 430.58067 -434.786022 
L 430.630721 -431.66665 
L 430.660766 -428.547277 
L 430.667571 -425.427905 
L 430.668568 -422.308533 
L 430.683476 -419.18916 
L 430.725574 -416.069788 
L 430.801396 -412.950416 
L 430.908553 -409.831043 
L 431.038708 -406.711671 
L 431.182018 -403.592299 
L 431.323929 -400.472926 
L 431.457159 -397.353554 
L 431.601633 -394.234182 
L 431.77381 -391.114809 
L 431.941516 -387.995437 
L 432.07255 -384.876064 
L 432.212483 -381.756692 
L 432.433322 -378.63732 
L 432.720303 -375.517947 
L 432.983707 -372.398575 
L 433.178151 -369.279203 
L 433.366717 -366.15983 
L 433.673158 -363.040458 
L 434.195147 -359.921086 
L 434.947412 -356.801713 
L 435.853634 -353.682341 
L 436.804326 -350.562969 
L 437.744035 -347.443596 
L 438.667036 -344.324224 
L 439.548483 -341.204852 
L 440.394452 -338.085479 
L 441.342836 -334.966107 
L 442.579262 -331.846735 
L 444.170309 -328.727362 
L 446.067904 -325.60799 
L 448.227253 -322.488617 
L 450.652217 -319.369245 
L 453.374759 -316.249873 
L 456.43677 -313.1305 
L 459.809701 -310.011128 
L 463.234952 -306.891756 
L 466.198557 -303.772383 
L 468.222388 -300.653011 
L 469.200824 -297.533639 
L 469.275945 -294.414266 
L 468.394806 -291.294894 
L 466.286568 -288.175522 
L 462.905513 -285.056149 
L 458.610798 -281.936777 
L 453.924411 -278.817405 
L 449.342179 -275.698032 
L 445.286255 -272.57866 
L 442.003073 -269.459288 
L 439.479305 -266.339915 
L 437.507144 -263.220543 
L 435.837166 -260.10117 
L 434.306773 -256.981798 
L 432.902623 -253.862426 
L 431.73648 -250.743053 
L 430.927105 -247.623681 
L 430.480847 -244.504309 
L 430.291049 -241.384936 
z
" style="stroke: #494949"/>
    </defs>
    <g clip-path="url(#pd6024a0a76)">
     <use xlink:href="#me0021c1515" x="0" y="864" style="fill: #b55d60; stroke: #494949"/>
    </g>
   </g>
   <g id="FillBetweenPolyCollection_5">
    <defs>
     <path id="m4390c1c468" d="M 527.937581 -241.04727 
L 527.80647 -241.04727 
L 527.621243 -244.59169 
L 527.159067 -248.13611 
L 526.304208 -251.68053 
L 525.052468 -255.224951 
L 523.444832 -258.769371 
L 521.429698 -262.313791 
L 518.824512 -265.858211 
L 515.382834 -269.402632 
L 510.962133 -272.947052 
L 505.720522 -276.491472 
L 500.148159 -280.035892 
L 494.979909 -283.580312 
L 491.070191 -287.124733 
L 489.021429 -290.669153 
L 488.807972 -294.213573 
L 490.021672 -297.757993 
L 492.326137 -301.302414 
L 495.439258 -304.846834 
L 499.066546 -308.391254 
L 502.930594 -311.935674 
L 506.634378 -315.480095 
L 509.754481 -319.024515 
L 512.167473 -322.568935 
L 514.10638 -326.113355 
L 515.90559 -329.657776 
L 517.695864 -333.202196 
L 519.321198 -336.746616 
L 520.558308 -340.291036 
L 521.385308 -343.835457 
L 521.981719 -347.379877 
L 522.508764 -350.924297 
L 523.021808 -354.468717 
L 523.570208 -358.013138 
L 524.203839 -361.557558 
L 524.860878 -365.101978 
L 525.396402 -368.646398 
L 525.759957 -372.190819 
L 526.02281 -375.735239 
L 526.237444 -379.279659 
L 526.397615 -382.824079 
L 526.501789 -386.3685 
L 526.575613 -389.91292 
L 526.649861 -393.45734 
L 526.732192 -397.00176 
L 526.813399 -400.546181 
L 526.902819 -404.090601 
L 527.018549 -407.635021 
L 527.147835 -411.179441 
L 527.262515 -414.723862 
L 527.353513 -418.268282 
L 527.419851 -421.812702 
L 527.460659 -425.357122 
L 527.492174 -428.901543 
L 527.535742 -432.445963 
L 527.583506 -435.990383 
L 527.604886 -439.534803 
L 527.591147 -443.079223 
L 527.572287 -446.623644 
L 527.583835 -450.168064 
L 527.63256 -453.712484 
L 527.699622 -457.256904 
L 527.761919 -460.801325 
L 527.804085 -464.345745 
L 527.823439 -467.890165 
L 527.829819 -471.434585 
L 527.83215 -474.979006 
L 527.828391 -478.523426 
L 527.8167 -482.067846 
L 527.805372 -485.612266 
L 527.802432 -489.156687 
L 527.805625 -492.701107 
L 527.809391 -496.245527 
L 527.813808 -499.789947 
L 527.822883 -503.334368 
L 527.837863 -506.878788 
L 527.853961 -510.423208 
L 527.86512 -513.967628 
L 527.870092 -517.512049 
L 527.871034 -521.056469 
L 527.868552 -524.600889 
L 527.859261 -528.145309 
L 527.838341 -531.68973 
L 527.808343 -535.23415 
L 527.785063 -538.77857 
L 527.785388 -542.32299 
L 527.806951 -545.867411 
L 527.829315 -549.411831 
L 527.837714 -552.956251 
L 527.837306 -556.500671 
L 527.840853 -560.045092 
L 527.849687 -563.589512 
L 527.853366 -567.133932 
L 527.843548 -570.678352 
L 527.824251 -574.222773 
L 527.810859 -577.767193 
L 527.815976 -581.311613 
L 527.835588 -584.856033 
L 527.85529 -588.400454 
L 527.866623 -591.944874 
L 527.877428 -591.944874 
L 527.877428 -591.944874 
L 527.888761 -588.400454 
L 527.908463 -584.856033 
L 527.928074 -581.311613 
L 527.933192 -577.767193 
L 527.9198 -574.222773 
L 527.900502 -570.678352 
L 527.890685 -567.133932 
L 527.894364 -563.589512 
L 527.903198 -560.045092 
L 527.906745 -556.500671 
L 527.906337 -552.956251 
L 527.914736 -549.411831 
L 527.9371 -545.867411 
L 527.958662 -542.32299 
L 527.958988 -538.77857 
L 527.935708 -535.23415 
L 527.90571 -531.68973 
L 527.88479 -528.145309 
L 527.875499 -524.600889 
L 527.873016 -521.056469 
L 527.873959 -517.512049 
L 527.878931 -513.967628 
L 527.890089 -510.423208 
L 527.906188 -506.878788 
L 527.921168 -503.334368 
L 527.930242 -499.789947 
L 527.93466 -496.245527 
L 527.938426 -492.701107 
L 527.941619 -489.156687 
L 527.938679 -485.612266 
L 527.927351 -482.067846 
L 527.91566 -478.523426 
L 527.911901 -474.979006 
L 527.914232 -471.434585 
L 527.920612 -467.890165 
L 527.939965 -464.345745 
L 527.982132 -460.801325 
L 528.044429 -457.256904 
L 528.111491 -453.712484 
L 528.160216 -450.168064 
L 528.171764 -446.623644 
L 528.152904 -443.079223 
L 528.139165 -439.534803 
L 528.160545 -435.990383 
L 528.208309 -432.445963 
L 528.251877 -428.901543 
L 528.283392 -425.357122 
L 528.3242 -421.812702 
L 528.390538 -418.268282 
L 528.481536 -414.723862 
L 528.596216 -411.179441 
L 528.725502 -407.635021 
L 528.841231 -404.090601 
L 528.930652 -400.546181 
L 529.011859 -397.00176 
L 529.09419 -393.45734 
L 529.168437 -389.91292 
L 529.242262 -386.3685 
L 529.346436 -382.824079 
L 529.506607 -379.279659 
L 529.721241 -375.735239 
L 529.984094 -372.190819 
L 530.347649 -368.646398 
L 530.883173 -365.101978 
L 531.540212 -361.557558 
L 532.173842 -358.013138 
L 532.722243 -354.468717 
L 533.235287 -350.924297 
L 533.762332 -347.379877 
L 534.358743 -343.835457 
L 535.185743 -340.291036 
L 536.422853 -336.746616 
L 538.048186 -333.202196 
L 539.838461 -329.657776 
L 541.637671 -326.113355 
L 543.576577 -322.568935 
L 545.98957 -319.024515 
L 549.109672 -315.480095 
L 552.813457 -311.935674 
L 556.677504 -308.391254 
L 560.304793 -304.846834 
L 563.417914 -301.302414 
L 565.722379 -297.757993 
L 566.936079 -294.213573 
L 566.722622 -290.669153 
L 564.673859 -287.124733 
L 560.764142 -283.580312 
L 555.595892 -280.035892 
L 550.023529 -276.491472 
L 544.781918 -272.947052 
L 540.361217 -269.402632 
L 536.919539 -265.858211 
L 534.314353 -262.313791 
L 532.299219 -258.769371 
L 530.691582 -255.224951 
L 529.439843 -251.68053 
L 528.584984 -248.13611 
L 528.122808 -244.59169 
L 527.937581 -241.04727 
z
" style="stroke: #494949"/>
    </defs>
    <g clip-path="url(#pd6024a0a76)">
     <use xlink:href="#m4390c1c468" x="0" y="864" style="fill: #857aab; stroke: #494949"/>
    </g>
   </g>
   <g id="FillBetweenPolyCollection_6">
    <defs>
     <path id="m8abe2469f2" d="M 625.672242 -240.32882 
L 625.392076 -240.32882 
L 625.027794 -243.957119 
L 624.145657 -247.585417 
L 622.530785 -251.213715 
L 620.219139 -254.842013 
L 617.502577 -258.470311 
L 614.674544 -262.098609 
L 611.766661 -265.726907 
L 608.575315 -269.355205 
L 604.967576 -272.983503 
L 601.083233 -276.611801 
L 597.17735 -280.240099 
L 593.395486 -283.868397 
L 589.920188 -287.496695 
L 587.330712 -291.124993 
L 586.468105 -294.753291 
L 587.710565 -298.381589 
L 590.5972 -302.009887 
L 594.268818 -305.638185 
L 598.074148 -309.266483 
L 601.750547 -312.894781 
L 605.205378 -316.523079 
L 608.261559 -320.151377 
L 610.712211 -323.779676 
L 612.55899 -327.407974 
L 614.041283 -331.036272 
L 615.403125 -334.66457 
L 616.682356 -338.292868 
L 617.764117 -341.921166 
L 618.591939 -345.549464 
L 619.245733 -349.177762 
L 619.841929 -352.80606 
L 620.417902 -356.434358 
L 620.9314 -360.062656 
L 621.365436 -363.690954 
L 621.772366 -367.319252 
L 622.197872 -370.94755 
L 622.640777 -374.575848 
L 623.086037 -378.204146 
L 623.508597 -381.832444 
L 623.868054 -385.460742 
L 624.130649 -389.08904 
L 624.283124 -392.717338 
L 624.348867 -396.345636 
L 624.401334 -399.973934 
L 624.511613 -403.602233 
L 624.67137 -407.230531 
L 624.814742 -410.858829 
L 624.905296 -414.487127 
L 624.955266 -418.115425 
L 624.986657 -421.743723 
L 625.012978 -425.372021 
L 625.039774 -429.000319 
L 625.064359 -432.628617 
L 625.083957 -436.256915 
L 625.105276 -439.885213 
L 625.141539 -443.513511 
L 625.200251 -447.141809 
L 625.267134 -450.770107 
L 625.309997 -454.398405 
L 625.317599 -458.026703 
L 625.320554 -461.655001 
L 625.351368 -465.283299 
L 625.399765 -468.911597 
L 625.429179 -472.539895 
L 625.424286 -476.168193 
L 625.403258 -479.796492 
L 625.392013 -483.42479 
L 625.402266 -487.053088 
L 625.428761 -490.681386 
L 625.456766 -494.309684 
L 625.476332 -497.937982 
L 625.489062 -501.56628 
L 625.496534 -505.194578 
L 625.492633 -508.822876 
L 625.47551 -512.451174 
L 625.457547 -516.079472 
L 625.453085 -519.70777 
L 625.462438 -523.336068 
L 625.477673 -526.964366 
L 625.494701 -530.592664 
L 625.511185 -534.220962 
L 625.523272 -537.84926 
L 625.529424 -541.477558 
L 625.531558 -545.105856 
L 625.532065 -548.734154 
L 625.532148 -552.362452 
L 625.532158 -555.99075 
L 625.532157 -559.619049 
L 625.532142 -563.247347 
L 625.532018 -566.875645 
L 625.53132 -570.503943 
L 625.52863 -574.132241 
L 625.521683 -577.760539 
L 625.510228 -581.388837 
L 625.499781 -585.017135 
L 625.498447 -588.645433 
L 625.507404 -592.273731 
L 625.51934 -595.902029 
L 625.527477 -599.530327 
L 625.53684 -599.530327 
L 625.53684 -599.530327 
L 625.544978 -595.902029 
L 625.556913 -592.273731 
L 625.56587 -588.645433 
L 625.564536 -585.017135 
L 625.554089 -581.388837 
L 625.542634 -577.760539 
L 625.535688 -574.132241 
L 625.532997 -570.503943 
L 625.532299 -566.875645 
L 625.532175 -563.247347 
L 625.53216 -559.619049 
L 625.53216 -555.99075 
L 625.532169 -552.362452 
L 625.532252 -548.734154 
L 625.532759 -545.105856 
L 625.534894 -541.477558 
L 625.541046 -537.84926 
L 625.553132 -534.220962 
L 625.569616 -530.592664 
L 625.586645 -526.964366 
L 625.60188 -523.336068 
L 625.611232 -519.70777 
L 625.606771 -516.079472 
L 625.588808 -512.451174 
L 625.571684 -508.822876 
L 625.567783 -505.194578 
L 625.575256 -501.56628 
L 625.587986 -497.937982 
L 625.607551 -494.309684 
L 625.635556 -490.681386 
L 625.662051 -487.053088 
L 625.672305 -483.42479 
L 625.661059 -479.796492 
L 625.640032 -476.168193 
L 625.635138 -472.539895 
L 625.664553 -468.911597 
L 625.712949 -465.283299 
L 625.743763 -461.655001 
L 625.746718 -458.026703 
L 625.75432 -454.398405 
L 625.797183 -450.770107 
L 625.864067 -447.141809 
L 625.922778 -443.513511 
L 625.959042 -439.885213 
L 625.980361 -436.256915 
L 625.999958 -432.628617 
L 626.024543 -429.000319 
L 626.051339 -425.372021 
L 626.077661 -421.743723 
L 626.109051 -418.115425 
L 626.159022 -414.487127 
L 626.249575 -410.858829 
L 626.392947 -407.230531 
L 626.552704 -403.602233 
L 626.662984 -399.973934 
L 626.715451 -396.345636 
L 626.781194 -392.717338 
L 626.933669 -389.08904 
L 627.196264 -385.460742 
L 627.55572 -381.832444 
L 627.97828 -378.204146 
L 628.423541 -374.575848 
L 628.866445 -370.94755 
L 629.291951 -367.319252 
L 629.698882 -363.690954 
L 630.132917 -360.062656 
L 630.646416 -356.434358 
L 631.222388 -352.80606 
L 631.818584 -349.177762 
L 632.472379 -345.549464 
L 633.3002 -341.921166 
L 634.381962 -338.292868 
L 635.661193 -334.66457 
L 637.023035 -331.036272 
L 638.505327 -327.407974 
L 640.352106 -323.779676 
L 642.802759 -320.151377 
L 645.858939 -316.523079 
L 649.313771 -312.894781 
L 652.990169 -309.266483 
L 656.7955 -305.638185 
L 660.467118 -302.009887 
L 663.353752 -298.381589 
L 664.596212 -294.753291 
L 663.733606 -291.124993 
L 661.144129 -287.496695 
L 657.668832 -283.868397 
L 653.886968 -280.240099 
L 649.981085 -276.611801 
L 646.096742 -272.983503 
L 642.489003 -269.355205 
L 639.297657 -265.726907 
L 636.389774 -262.098609 
L 633.56174 -258.470311 
L 630.845178 -254.842013 
L 628.533532 -251.213715 
L 626.91866 -247.585417 
L 626.036523 -243.957119 
L 625.672242 -240.32882 
z
" style="stroke: #494949"/>
    </defs>
    <g clip-path="url(#pd6024a0a76)">
     <use xlink:href="#m8abe2469f2" x="0" y="864" style="fill: #8d7866; stroke: #494949"/>
    </g>
   </g>
   <g id="line2d_7">
    <path d="M 137.231492 611.513694 
L 137.231492 485.68159 
" clip-path="url(#pd6024a0a76)" style="fill: none; stroke: #494949; stroke-width: 1.5; stroke-linecap: round"/>
   </g>
   <g id="line2d_8">
    <path d="M 137.231492 583.381196 
L 137.231492 544.181807 
" clip-path="url(#pd6024a0a76)" style="fill: none; stroke: #494949; stroke-width: 4.5; stroke-linecap: round"/>
   </g>
   <g id="line2d_9">
    <path d="M 137.231492 566.952743 
" clip-path="url(#pd6024a0a76)" style="fill: none; stroke: #494949; stroke-width: 1.2; stroke-linecap: round"/>
    <defs>
     <path id="m292908f3b4" d="M 1.875 0 
L -1.875 -0 
" style="stroke: #ffffff; stroke-width: 0.9"/>
    </defs>
    <g clip-path="url(#pd6024a0a76)">
     <use xlink:href="#m292908f3b4" x="137.231492" y="566.952743" style="fill: #ffffff; stroke: #ffffff; stroke-width: 0.9"/>
    </g>
   </g>
   <g id="line2d_10">
    <path d="M 234.891625 611.503367 
L 234.891625 508.559377 
" clip-path="url(#pd6024a0a76)" style="fill: none; stroke: #494949; stroke-width: 1.5; stroke-linecap: round"/>
   </g>
   <g id="line2d_11">
    <path d="M 234.891625 582.433673 
L 234.891625 552.86547 
" clip-path="url(#pd6024a0a76)" style="fill: none; stroke: #494949; stroke-width: 4.5; stroke-linecap: round"/>
   </g>
   <g id="line2d_12">
    <path d="M 234.891625 569.70354 
" clip-path="url(#pd6024a0a76)" style="fill: none; stroke: #494949; stroke-width: 1.2; stroke-linecap: round"/>
    <g clip-path="url(#pd6024a0a76)">
     <use xlink:href="#m292908f3b4" x="234.891625" y="569.70354" style="fill: #ffffff; stroke: #ffffff; stroke-width: 0.9"/>
    </g>
   </g>
   <g id="line2d_13">
    <path d="M 332.551759 611.470822 
L 332.551759 502.209573 
" clip-path="url(#pd6024a0a76)" style="fill: none; stroke: #494949; stroke-width: 1.5; stroke-linecap: round"/>
   </g>
   <g id="line2d_14">
    <path d="M 332.551759 577.76084 
L 332.551759 547.489755 
" clip-path="url(#pd6024a0a76)" style="fill: none; stroke: #494949; stroke-width: 4.5; stroke-linecap: round"/>
   </g>
   <g id="line2d_15">
    <path d="M 332.551759 564.407611 
" clip-path="url(#pd6024a0a76)" style="fill: none; stroke: #494949; stroke-width: 1.2; stroke-linecap: round"/>
    <g clip-path="url(#pd6024a0a76)">
     <use xlink:href="#m292908f3b4" x="332.551759" y="564.407611" style="fill: #ffffff; stroke: #ffffff; stroke-width: 0.9"/>
    </g>
   </g>
   <g id="line2d_16">
    <path d="M 430.211892 611.444968 
L 430.211892 497.751677 
" clip-path="url(#pd6024a0a76)" style="fill: none; stroke: #494949; stroke-width: 1.5; stroke-linecap: round"/>
   </g>
   <g id="line2d_17">
    <path d="M 430.211892 575.975326 
L 430.211892 544.658804 
" clip-path="url(#pd6024a0a76)" style="fill: none; stroke: #494949; stroke-width: 4.5; stroke-linecap: round"/>
   </g>
   <g id="line2d_18">
    <path d="M 430.211892 562.665479 
" clip-path="url(#pd6024a0a76)" style="fill: none; stroke: #494949; stroke-width: 1.2; stroke-linecap: round"/>
    <g clip-path="url(#pd6024a0a76)">
     <use xlink:href="#m292908f3b4" x="430.211892" y="562.665479" style="fill: #ffffff; stroke: #ffffff; stroke-width: 0.9"/>
    </g>
   </g>
   <g id="line2d_19">
    <path d="M 527.872025 611.478898 
L 527.872025 502.579801 
" clip-path="url(#pd6024a0a76)" style="fill: none; stroke: #494949; stroke-width: 1.5; stroke-linecap: round"/>
   </g>
   <g id="line2d_20">
    <path d="M 527.872025 577.41717 
L 527.872025 547.469609 
" clip-path="url(#pd6024a0a76)" style="fill: none; stroke: #494949; stroke-width: 4.5; stroke-linecap: round"/>
   </g>
   <g id="line2d_21">
    <path d="M 527.872025 564.90646 
" clip-path="url(#pd6024a0a76)" style="fill: none; stroke: #494949; stroke-width: 1.2; stroke-linecap: round"/>
    <g clip-path="url(#pd6024a0a76)">
     <use xlink:href="#m292908f3b4" x="527.872025" y="564.90646" style="fill: #ffffff; stroke: #ffffff; stroke-width: 0.9"/>
    </g>
   </g>
   <g id="line2d_22">
    <path d="M 625.532159 611.391623 
L 625.532159 498.988678 
" clip-path="url(#pd6024a0a76)" style="fill: none; stroke: #494949; stroke-width: 1.5; stroke-linecap: round"/>
   </g>
   <g id="line2d_23">
    <path d="M 625.532159 579.491863 
L 625.532159 547.28663 
" clip-path="url(#pd6024a0a76)" style="fill: none; stroke: #494949; stroke-width: 4.5; stroke-linecap: round"/>
   </g>
   <g id="line2d_24">
    <path d="M 625.532159 565.74903 
" clip-path="url(#pd6024a0a76)" style="fill: none; stroke: #494949; stroke-width: 1.2; stroke-linecap: round"/>
    <g clip-path="url(#pd6024a0a76)">
     <use xlink:href="#m292908f3b4" x="625.532159" y="565.74903" style="fill: #ffffff; stroke: #ffffff; stroke-width: 0.9"/>
    </g>
   </g>
   <g id="line2d_25">
    <path d="M 137.231492 458.514815 
L 137.231492 449.459223 
L 234.891625 449.459223 
L 234.891625 458.514815 
" style="fill: none; stroke: #333333; stroke-width: 1.5; stroke-linecap: round"/>
   </g>
   <g id="line2d_26">
    <path d="M 234.891625 424.577035 
L 234.891625 415.521443 
L 332.551759 415.521443 
L 332.551759 424.577035 
" style="fill: none; stroke: #333333; stroke-width: 1.5; stroke-linecap: round"/>
   </g>
   <g id="line2d_27">
    <path d="M 332.551759 390.639255 
L 332.551759 381.583663 
L 430.211892 381.583663 
L 430.211892 390.639255 
" style="fill: none; stroke: #333333; stroke-width: 1.5; stroke-linecap: round"/>
   </g>
   <g id="line2d_28">
    <path d="M 430.211892 356.701476 
L 430.211892 347.645884 
L 527.872025 347.645884 
L 527.872025 356.701476 
" style="fill: none; stroke: #333333; stroke-width: 1.5; stroke-linecap: round"/>
   </g>
   <g id="line2d_29">
    <path d="M 137.231492 356.701476 
L 137.231492 347.645884 
L 332.551759 347.645884 
L 332.551759 356.701476 
" style="fill: none; stroke: #333333; stroke-width: 1.5; stroke-linecap: round"/>
   </g>
   <g id="line2d_30">
    <path d="M 234.891625 322.763696 
L 234.891625 313.708104 
L 430.211892 313.708104 
L 430.211892 322.763696 
" style="fill: none; stroke: #333333; stroke-width: 1.5; stroke-linecap: round"/>
   </g>
   <g id="line2d_31">
    <path d="M 430.211892 288.825916 
L 430.211892 279.770324 
L 625.532159 279.770324 
L 625.532159 288.825916 
" style="fill: none; stroke: #333333; stroke-width: 1.5; stroke-linecap: round"/>
   </g>
   <g id="line2d_32">
    <path d="M 137.231492 254.888136 
L 137.231492 245.832544 
L 430.211892 245.832544 
L 430.211892 254.888136 
" style="fill: none; stroke: #333333; stroke-width: 1.5; stroke-linecap: round"/>
   </g>
   <g id="line2d_33">
    <path d="M 234.891625 220.950357 
L 234.891625 211.894765 
L 527.872025 211.894765 
L 527.872025 220.950357 
" style="fill: none; stroke: #333333; stroke-width: 1.5; stroke-linecap: round"/>
   </g>
   <g id="line2d_34">
    <path d="M 332.551759 187.012577 
L 332.551759 177.956985 
L 625.532159 177.956985 
L 625.532159 187.012577 
" style="fill: none; stroke: #333333; stroke-width: 1.5; stroke-linecap: round"/>
   </g>
   <g id="line2d_35">
    <path d="M 137.231492 153.074797 
L 137.231492 144.019205 
L 527.872025 144.019205 
L 527.872025 153.074797 
" style="fill: none; stroke: #333333; stroke-width: 1.5; stroke-linecap: round"/>
   </g>
   <g id="line2d_36">
    <path d="M 234.891625 119.137017 
L 234.891625 110.081425 
L 625.532159 110.081425 
L 625.532159 119.137017 
" style="fill: none; stroke: #333333; stroke-width: 1.5; stroke-linecap: round"/>
   </g>
   <g id="line2d_37">
    <path d="M 137.231492 85.199238 
L 137.231492 76.143646 
L 625.532159 76.143646 
L 625.532159 85.199238 
" style="fill: none; stroke: #333333; stroke-width: 1.5; stroke-linecap: round"/>
   </g>
   <g id="patch_3">
    <path d="M 69.846 645.866348 
L 69.846 40.416 
" style="fill: none; stroke: #cccccc; stroke-linejoin: miter; stroke-linecap: square"/>
   </g>
   <g id="patch_4">
    <path d="M 692.917651 645.866348 
L 692.917651 40.416 
" style="fill: none; stroke: #cccccc; stroke-linejoin: miter; stroke-linecap: square"/>
   </g>
   <g id="patch_5">
    <path d="M 69.846 645.866348 
L 692.917651 645.866348 
" style="fill: none; stroke: #cccccc; stroke-linejoin: miter; stroke-linecap: square"/>
   </g>
   <g id="patch_6">
    <path d="M 69.846 40.416 
L 692.917651 40.416 
" style="fill: none; stroke: #cccccc; stroke-linejoin: miter; stroke-linecap: square"/>
   </g>
   <g id="text_15">
    <!-- *** -->
    <g style="fill: #262626" transform="translate(174.852059 444.643223) scale(0.192 -0.192)">
     <defs>
      <path id="ArialMT-2a" d="M 200 3741 
L 344 4184 
Q 841 4009 1066 3881 
Q 1006 4447 1003 4659 
L 1456 4659 
Q 1447 4350 1384 3884 
Q 1706 4047 2122 4184 
L 2266 3741 
Q 1869 3609 1488 3566 
Q 1678 3400 2025 2975 
L 1650 2709 
Q 1469 2956 1222 3381 
Q 991 2941 816 2709 
L 447 2975 
Q 809 3422 966 3566 
Q 563 3644 200 3741 
z
" transform="scale(0.015625)"/>
     </defs>
     <use xlink:href="#ArialMT-2a"/>
     <use xlink:href="#ArialMT-2a" transform="translate(38.916016 0)"/>
     <use xlink:href="#ArialMT-2a" transform="translate(77.832031 0)"/>
    </g>
   </g>
   <g id="text_16">
    <!-- **** -->
    <g style="fill: #262626" transform="translate(268.775692 410.705443) scale(0.192 -0.192)">
     <use xlink:href="#ArialMT-2a"/>
     <use xlink:href="#ArialMT-2a" transform="translate(38.916016 0)"/>
     <use xlink:href="#ArialMT-2a" transform="translate(77.832031 0)"/>
     <use xlink:href="#ArialMT-2a" transform="translate(116.748047 0)"/>
    </g>
   </g>
   <g id="text_17">
    <!-- *** -->
    <g style="fill: #262626" transform="translate(370.172325 376.767663) scale(0.192 -0.192)">
     <use xlink:href="#ArialMT-2a"/>
     <use xlink:href="#ArialMT-2a" transform="translate(38.916016 0)"/>
     <use xlink:href="#ArialMT-2a" transform="translate(77.832031 0)"/>
    </g>
   </g>
   <g id="text_18">
    <!-- *** -->
    <g style="fill: #262626" transform="translate(467.832459 342.829884) scale(0.192 -0.192)">
     <use xlink:href="#ArialMT-2a"/>
     <use xlink:href="#ArialMT-2a" transform="translate(38.916016 0)"/>
     <use xlink:href="#ArialMT-2a" transform="translate(77.832031 0)"/>
    </g>
   </g>
   <g id="text_19">
    <!-- **** -->
    <g style="fill: #262626" transform="translate(219.945625 342.829884) scale(0.192 -0.192)">
     <use xlink:href="#ArialMT-2a"/>
     <use xlink:href="#ArialMT-2a" transform="translate(38.916016 0)"/>
     <use xlink:href="#ArialMT-2a" transform="translate(77.832031 0)"/>
     <use xlink:href="#ArialMT-2a" transform="translate(116.748047 0)"/>
    </g>
   </g>
   <g id="text_20">
    <!-- **** -->
    <g style="fill: #262626" transform="translate(317.605759 308.892104) scale(0.192 -0.192)">
     <use xlink:href="#ArialMT-2a"/>
     <use xlink:href="#ArialMT-2a" transform="translate(38.916016 0)"/>
     <use xlink:href="#ArialMT-2a" transform="translate(77.832031 0)"/>
     <use xlink:href="#ArialMT-2a" transform="translate(116.748047 0)"/>
    </g>
   </g>
   <g id="text_21">
    <!-- **** -->
    <g style="fill: #262626" transform="translate(512.926025 274.954324) scale(0.192 -0.192)">
     <use xlink:href="#ArialMT-2a"/>
     <use xlink:href="#ArialMT-2a" transform="translate(38.916016 0)"/>
     <use xlink:href="#ArialMT-2a" transform="translate(77.832031 0)"/>
     <use xlink:href="#ArialMT-2a" transform="translate(116.748047 0)"/>
    </g>
   </g>
   <g id="text_22">
    <!-- **** -->
    <g style="fill: #262626" transform="translate(268.775692 241.016544) scale(0.192 -0.192)">
     <use xlink:href="#ArialMT-2a"/>
     <use xlink:href="#ArialMT-2a" transform="translate(38.916016 0)"/>
     <use xlink:href="#ArialMT-2a" transform="translate(77.832031 0)"/>
     <use xlink:href="#ArialMT-2a" transform="translate(116.748047 0)"/>
    </g>
   </g>
   <g id="text_23">
    <!-- **** -->
    <g style="fill: #262626" transform="translate(366.435825 207.078765) scale(0.192 -0.192)">
     <use xlink:href="#ArialMT-2a"/>
     <use xlink:href="#ArialMT-2a" transform="translate(38.916016 0)"/>
     <use xlink:href="#ArialMT-2a" transform="translate(77.832031 0)"/>
     <use xlink:href="#ArialMT-2a" transform="translate(116.748047 0)"/>
    </g>
   </g>
   <g id="text_24">
    <!-- * -->
    <g style="fill: #262626" transform="translate(475.305459 173.140985) scale(0.192 -0.192)">
     <use xlink:href="#ArialMT-2a"/>
    </g>
   </g>
   <g id="text_25">
    <!-- **** -->
    <g style="fill: #262626" transform="translate(317.605759 139.203205) scale(0.192 -0.192)">
     <use xlink:href="#ArialMT-2a"/>
     <use xlink:href="#ArialMT-2a" transform="translate(38.916016 0)"/>
     <use xlink:href="#ArialMT-2a" transform="translate(77.832031 0)"/>
     <use xlink:href="#ArialMT-2a" transform="translate(116.748047 0)"/>
    </g>
   </g>
   <g id="text_26">
    <!-- **** -->
    <g style="fill: #262626" transform="translate(415.265892 105.265425) scale(0.192 -0.192)">
     <use xlink:href="#ArialMT-2a"/>
     <use xlink:href="#ArialMT-2a" transform="translate(38.916016 0)"/>
     <use xlink:href="#ArialMT-2a" transform="translate(77.832031 0)"/>
     <use xlink:href="#ArialMT-2a" transform="translate(116.748047 0)"/>
    </g>
   </g>
   <g id="text_27">
    <!-- * -->
    <g style="fill: #262626" transform="translate(377.645325 71.327646) scale(0.192 -0.192)">
     <use xlink:href="#ArialMT-2a"/>
    </g>
   </g>
   <g id="text_28">
    <!-- Ranked Novelty Error per Fold per Target -->
    <g style="fill: #262626" transform="translate(206.024325 34.416) scale(0.192 -0.192)">
     <defs>
      <path id="ArialMT-6b" d="M 425 0 
L 425 4581 
L 988 4581 
L 988 1969 
L 2319 3319 
L 3047 3319 
L 1778 2088 
L 3175 0 
L 2481 0 
L 1384 1697 
L 988 1316 
L 988 0 
L 425 0 
z
" transform="scale(0.015625)"/>
      <path id="ArialMT-20" transform="scale(0.015625)"/>
      <path id="ArialMT-4e" d="M 488 0 
L 488 4581 
L 1109 4581 
L 3516 984 
L 3516 4581 
L 4097 4581 
L 4097 0 
L 3475 0 
L 1069 3600 
L 1069 0 
L 488 0 
z
" transform="scale(0.015625)"/>
      <path id="ArialMT-54" d="M 1659 0 
L 1659 4041 
L 150 4041 
L 150 4581 
L 3781 4581 
L 3781 4041 
L 2266 4041 
L 2266 0 
L 1659 0 
z
" transform="scale(0.015625)"/>
     </defs>
     <use xlink:href="#ArialMT-52"/>
     <use xlink:href="#ArialMT-61" transform="translate(72.216797 0)"/>
     <use xlink:href="#ArialMT-6e" transform="translate(127.832031 0)"/>
     <use xlink:href="#ArialMT-6b" transform="translate(183.447266 0)"/>
     <use xlink:href="#ArialMT-65" transform="translate(233.447266 0)"/>
     <use xlink:href="#ArialMT-64" transform="translate(289.0625 0)"/>
     <use xlink:href="#ArialMT-20" transform="translate(344.677734 0)"/>
     <use xlink:href="#ArialMT-4e" transform="translate(372.460938 0)"/>
     <use xlink:href="#ArialMT-6f" transform="translate(444.677734 0)"/>
     <use xlink:href="#ArialMT-76" transform="translate(500.292969 0)"/>
     <use xlink:href="#ArialMT-65" transform="translate(550.292969 0)"/>
     <use xlink:href="#ArialMT-6c" transform="translate(605.908203 0)"/>
     <use xlink:href="#ArialMT-74" transform="translate(628.125 0)"/>
     <use xlink:href="#ArialMT-79" transform="translate(655.908203 0)"/>
     <use xlink:href="#ArialMT-20" transform="translate(705.908203 0)"/>
     <use xlink:href="#ArialMT-45" transform="translate(733.691406 0)"/>
     <use xlink:href="#ArialMT-72" transform="translate(800.390625 0)"/>
     <use xlink:href="#ArialMT-72" transform="translate(833.691406 0)"/>
     <use xlink:href="#ArialMT-6f" transform="translate(866.992188 0)"/>
     <use xlink:href="#ArialMT-72" transform="translate(922.607422 0)"/>
     <use xlink:href="#ArialMT-20" transform="translate(955.908203 0)"/>
     <use xlink:href="#ArialMT-70" transform="translate(983.691406 0)"/>
     <use xlink:href="#ArialMT-65" transform="translate(1039.306641 0)"/>
     <use xlink:href="#ArialMT-72" transform="translate(1094.921875 0)"/>
     <use xlink:href="#ArialMT-20" transform="translate(1128.222656 0)"/>
     <use xlink:href="#ArialMT-46" transform="translate(1156.005859 0)"/>
     <use xlink:href="#ArialMT-6f" transform="translate(1217.089844 0)"/>
     <use xlink:href="#ArialMT-6c" transform="translate(1272.705078 0)"/>
     <use xlink:href="#ArialMT-64" transform="translate(1294.921875 0)"/>
     <use xlink:href="#ArialMT-20" transform="translate(1350.537109 0)"/>
     <use xlink:href="#ArialMT-70" transform="translate(1378.320312 0)"/>
     <use xlink:href="#ArialMT-65" transform="translate(1433.935547 0)"/>
     <use xlink:href="#ArialMT-72" transform="translate(1489.550781 0)"/>
     <use xlink:href="#ArialMT-20" transform="translate(1522.851562 0)"/>
     <use xlink:href="#ArialMT-54" transform="translate(1548.884766 0)"/>
     <use xlink:href="#ArialMT-61" transform="translate(1598.84375 0)"/>
     <use xlink:href="#ArialMT-72" transform="translate(1654.458984 0)"/>
     <use xlink:href="#ArialMT-67" transform="translate(1687.759766 0)"/>
     <use xlink:href="#ArialMT-65" transform="translate(1743.375 0)"/>
     <use xlink:href="#ArialMT-74" transform="translate(1798.990234 0)"/>
    </g>
   </g>
  </g>
 </g>
 <defs>
  <clipPath id="pd6024a0a76">
   <rect x="69.846" y="40.416" width="623.071651" height="605.450348"/>
  </clipPath>
 </defs>
</svg>
