<?xml version="1.0" encoding="utf-8" standalone="no"?>
<!DOCTYPE svg PUBLIC "-//W3C//DTD SVG 1.1//EN"
  "http://www.w3.org/Graphics/SVG/1.1/DTD/svg11.dtd">
<svg xmlns:xlink="http://www.w3.org/1999/xlink" width="576pt" height="936pt" viewBox="0 0 576 936" xmlns="http://www.w3.org/2000/svg" version="1.1">
 <metadata>
  <rdf:RDF xmlns:dc="http://purl.org/dc/elements/1.1/" xmlns:cc="http://creativecommons.org/ns#" xmlns:rdf="http://www.w3.org/1999/02/22-rdf-syntax-ns#">
   <cc:Work>
    <dc:type rdf:resource="http://purl.org/dc/dcmitype/StillImage"/>
    <dc:date>2025-02-25T23:43:08.177236</dc:date>
    <dc:format>image/svg+xml</dc:format>
    <dc:creator>
     <cc:Agent>
      <dc:title>Matplotlib v3.10.0, https://matplotlib.org/</dc:title>
     </cc:Agent>
    </dc:creator>
   </cc:Work>
  </rdf:RDF>
 </metadata>
 <defs>
  <style type="text/css">*{stroke-linejoin: round; stroke-linecap: butt}</style>
 </defs>
 <g id="figure_1">
  <g id="patch_1">
   <path d="M 0 936 
L 576 936 
L 576 0 
L 0 0 
z
" style="fill: #ffffff"/>
  </g>
  <g id="axes_1">
   <g id="patch_2">
    <path d="M 69.846 717.866348 
L 536.848058 717.866348 
L 536.848058 40.416 
L 69.846 40.416 
z
" style="fill: #ffffff"/>
   </g>
   <g id="matplotlib.axis_1">
    <g id="xtick_1">
     <g id="text_1">
      <!-- RandomSplit -->
      <g style="fill: #262626" transform="translate(88.02251 806.472111) rotate(-45) scale(0.176 -0.176)">
       <defs>
        <path id="ArialMT-52" d="M 503 0 
L 503 4581 
L 2534 4581 
Q 3147 4581 3465 4457 
Q 3784 4334 3975 4021 
Q 4166 3709 4166 3331 
Q 4166 2844 3850 2509 
Q 3534 2175 2875 2084 
Q 3116 1969 3241 1856 
Q 3506 1613 3744 1247 
L 4541 0 
L 3778 0 
L 3172 953 
Q 2906 1366 2734 1584 
Q 2563 1803 2427 1890 
Q 2291 1978 2150 2013 
Q 2047 2034 1813 2034 
L 1109 2034 
L 1109 0 
L 503 0 
z
M 1109 2559 
L 2413 2559 
Q 2828 2559 3062 2645 
Q 3297 2731 3419 2920 
Q 3541 3109 3541 3331 
Q 3541 3656 3305 3865 
Q 3069 4075 2559 4075 
L 1109 4075 
L 1109 2559 
z
" transform="scale(0.015625)"/>
        <path id="ArialMT-61" d="M 2588 409 
Q 2275 144 1986 34 
Q 1697 -75 1366 -75 
Q 819 -75 525 192 
Q 231 459 231 875 
Q 231 1119 342 1320 
Q 453 1522 633 1644 
Q 813 1766 1038 1828 
Q 1203 1872 1538 1913 
Q 2219 1994 2541 2106 
Q 2544 2222 2544 2253 
Q 2544 2597 2384 2738 
Q 2169 2928 1744 2928 
Q 1347 2928 1158 2789 
Q 969 2650 878 2297 
L 328 2372 
Q 403 2725 575 2942 
Q 747 3159 1072 3276 
Q 1397 3394 1825 3394 
Q 2250 3394 2515 3294 
Q 2781 3194 2906 3042 
Q 3031 2891 3081 2659 
Q 3109 2516 3109 2141 
L 3109 1391 
Q 3109 606 3145 398 
Q 3181 191 3288 0 
L 2700 0 
Q 2613 175 2588 409 
z
M 2541 1666 
Q 2234 1541 1622 1453 
Q 1275 1403 1131 1340 
Q 988 1278 909 1158 
Q 831 1038 831 891 
Q 831 666 1001 516 
Q 1172 366 1500 366 
Q 1825 366 2078 508 
Q 2331 650 2450 897 
Q 2541 1088 2541 1459 
L 2541 1666 
z
" transform="scale(0.015625)"/>
        <path id="ArialMT-6e" d="M 422 0 
L 422 3319 
L 928 3319 
L 928 2847 
Q 1294 3394 1984 3394 
Q 2284 3394 2536 3286 
Q 2788 3178 2913 3003 
Q 3038 2828 3088 2588 
Q 3119 2431 3119 2041 
L 3119 0 
L 2556 0 
L 2556 2019 
Q 2556 2363 2490 2533 
Q 2425 2703 2258 2804 
Q 2091 2906 1866 2906 
Q 1506 2906 1245 2678 
Q 984 2450 984 1813 
L 984 0 
L 422 0 
z
" transform="scale(0.015625)"/>
        <path id="ArialMT-64" d="M 2575 0 
L 2575 419 
Q 2259 -75 1647 -75 
Q 1250 -75 917 144 
Q 584 363 401 755 
Q 219 1147 219 1656 
Q 219 2153 384 2558 
Q 550 2963 881 3178 
Q 1213 3394 1622 3394 
Q 1922 3394 2156 3267 
Q 2391 3141 2538 2938 
L 2538 4581 
L 3097 4581 
L 3097 0 
L 2575 0 
z
M 797 1656 
Q 797 1019 1065 703 
Q 1334 388 1700 388 
Q 2069 388 2326 689 
Q 2584 991 2584 1609 
Q 2584 2291 2321 2609 
Q 2059 2928 1675 2928 
Q 1300 2928 1048 2622 
Q 797 2316 797 1656 
z
" transform="scale(0.015625)"/>
        <path id="ArialMT-6f" d="M 213 1659 
Q 213 2581 725 3025 
Q 1153 3394 1769 3394 
Q 2453 3394 2887 2945 
Q 3322 2497 3322 1706 
Q 3322 1066 3130 698 
Q 2938 331 2570 128 
Q 2203 -75 1769 -75 
Q 1072 -75 642 372 
Q 213 819 213 1659 
z
M 791 1659 
Q 791 1022 1069 705 
Q 1347 388 1769 388 
Q 2188 388 2466 706 
Q 2744 1025 2744 1678 
Q 2744 2294 2464 2611 
Q 2184 2928 1769 2928 
Q 1347 2928 1069 2612 
Q 791 2297 791 1659 
z
" transform="scale(0.015625)"/>
        <path id="ArialMT-6d" d="M 422 0 
L 422 3319 
L 925 3319 
L 925 2853 
Q 1081 3097 1340 3245 
Q 1600 3394 1931 3394 
Q 2300 3394 2536 3241 
Q 2772 3088 2869 2813 
Q 3263 3394 3894 3394 
Q 4388 3394 4653 3120 
Q 4919 2847 4919 2278 
L 4919 0 
L 4359 0 
L 4359 2091 
Q 4359 2428 4304 2576 
Q 4250 2725 4106 2815 
Q 3963 2906 3769 2906 
Q 3419 2906 3187 2673 
Q 2956 2441 2956 1928 
L 2956 0 
L 2394 0 
L 2394 2156 
Q 2394 2531 2256 2718 
Q 2119 2906 1806 2906 
Q 1569 2906 1367 2781 
Q 1166 2656 1075 2415 
Q 984 2175 984 1722 
L 984 0 
L 422 0 
z
" transform="scale(0.015625)"/>
        <path id="ArialMT-53" d="M 288 1472 
L 859 1522 
Q 900 1178 1048 958 
Q 1197 738 1509 602 
Q 1822 466 2213 466 
Q 2559 466 2825 569 
Q 3091 672 3220 851 
Q 3350 1031 3350 1244 
Q 3350 1459 3225 1620 
Q 3100 1781 2813 1891 
Q 2628 1963 1997 2114 
Q 1366 2266 1113 2400 
Q 784 2572 623 2826 
Q 463 3081 463 3397 
Q 463 3744 659 4045 
Q 856 4347 1234 4503 
Q 1613 4659 2075 4659 
Q 2584 4659 2973 4495 
Q 3363 4331 3572 4012 
Q 3781 3694 3797 3291 
L 3216 3247 
Q 3169 3681 2898 3903 
Q 2628 4125 2100 4125 
Q 1550 4125 1298 3923 
Q 1047 3722 1047 3438 
Q 1047 3191 1225 3031 
Q 1400 2872 2139 2705 
Q 2878 2538 3153 2413 
Q 3553 2228 3743 1945 
Q 3934 1663 3934 1294 
Q 3934 928 3725 604 
Q 3516 281 3123 101 
Q 2731 -78 2241 -78 
Q 1619 -78 1198 103 
Q 778 284 539 648 
Q 300 1013 288 1472 
z
" transform="scale(0.015625)"/>
        <path id="ArialMT-70" d="M 422 -1272 
L 422 3319 
L 934 3319 
L 934 2888 
Q 1116 3141 1344 3267 
Q 1572 3394 1897 3394 
Q 2322 3394 2647 3175 
Q 2972 2956 3137 2557 
Q 3303 2159 3303 1684 
Q 3303 1175 3120 767 
Q 2938 359 2589 142 
Q 2241 -75 1856 -75 
Q 1575 -75 1351 44 
Q 1128 163 984 344 
L 984 -1272 
L 422 -1272 
z
M 931 1641 
Q 931 1000 1190 694 
Q 1450 388 1819 388 
Q 2194 388 2461 705 
Q 2728 1022 2728 1688 
Q 2728 2322 2467 2637 
Q 2206 2953 1844 2953 
Q 1484 2953 1207 2617 
Q 931 2281 931 1641 
z
" transform="scale(0.015625)"/>
        <path id="ArialMT-6c" d="M 409 0 
L 409 4581 
L 972 4581 
L 972 0 
L 409 0 
z
" transform="scale(0.015625)"/>
        <path id="ArialMT-69" d="M 425 3934 
L 425 4581 
L 988 4581 
L 988 3934 
L 425 3934 
z
M 425 0 
L 425 3319 
L 988 3319 
L 988 0 
L 425 0 
z
" transform="scale(0.015625)"/>
        <path id="ArialMT-74" d="M 1650 503 
L 1731 6 
Q 1494 -44 1306 -44 
Q 1000 -44 831 53 
Q 663 150 594 308 
Q 525 466 525 972 
L 525 2881 
L 113 2881 
L 113 3319 
L 525 3319 
L 525 4141 
L 1084 4478 
L 1084 3319 
L 1650 3319 
L 1650 2881 
L 1084 2881 
L 1084 941 
Q 1084 700 1114 631 
Q 1144 563 1211 522 
Q 1278 481 1403 481 
Q 1497 481 1650 503 
z
" transform="scale(0.015625)"/>
       </defs>
       <use xlink:href="#ArialMT-52"/>
       <use xlink:href="#ArialMT-61" transform="translate(72.216797 0)"/>
       <use xlink:href="#ArialMT-6e" transform="translate(127.832031 0)"/>
       <use xlink:href="#ArialMT-64" transform="translate(183.447266 0)"/>
       <use xlink:href="#ArialMT-6f" transform="translate(239.0625 0)"/>
       <use xlink:href="#ArialMT-6d" transform="translate(294.677734 0)"/>
       <use xlink:href="#ArialMT-53" transform="translate(377.978516 0)"/>
       <use xlink:href="#ArialMT-70" transform="translate(444.677734 0)"/>
       <use xlink:href="#ArialMT-6c" transform="translate(500.292969 0)"/>
       <use xlink:href="#ArialMT-69" transform="translate(522.509766 0)"/>
       <use xlink:href="#ArialMT-74" transform="translate(544.726562 0)"/>
      </g>
     </g>
    </g>
    <g id="xtick_2">
     <g id="text_2">
      <!-- ScaffoldSplit -->
      <g style="fill: #262626" transform="translate(162.364688 804.183383) rotate(-45) scale(0.176 -0.176)">
       <defs>
        <path id="ArialMT-63" d="M 2588 1216 
L 3141 1144 
Q 3050 572 2676 248 
Q 2303 -75 1759 -75 
Q 1078 -75 664 370 
Q 250 816 250 1647 
Q 250 2184 428 2587 
Q 606 2991 970 3192 
Q 1334 3394 1763 3394 
Q 2303 3394 2647 3120 
Q 2991 2847 3088 2344 
L 2541 2259 
Q 2463 2594 2264 2762 
Q 2066 2931 1784 2931 
Q 1359 2931 1093 2626 
Q 828 2322 828 1663 
Q 828 994 1084 691 
Q 1341 388 1753 388 
Q 2084 388 2306 591 
Q 2528 794 2588 1216 
z
" transform="scale(0.015625)"/>
        <path id="ArialMT-66" d="M 556 0 
L 556 2881 
L 59 2881 
L 59 3319 
L 556 3319 
L 556 3672 
Q 556 4006 616 4169 
Q 697 4388 901 4523 
Q 1106 4659 1475 4659 
Q 1713 4659 2000 4603 
L 1916 4113 
Q 1741 4144 1584 4144 
Q 1328 4144 1222 4034 
Q 1116 3925 1116 3625 
L 1116 3319 
L 1763 3319 
L 1763 2881 
L 1116 2881 
L 1116 0 
L 556 0 
z
" transform="scale(0.015625)"/>
       </defs>
       <use xlink:href="#ArialMT-53"/>
       <use xlink:href="#ArialMT-63" transform="translate(66.699219 0)"/>
       <use xlink:href="#ArialMT-61" transform="translate(116.699219 0)"/>
       <use xlink:href="#ArialMT-66" transform="translate(172.314453 0)"/>
       <use xlink:href="#ArialMT-66" transform="translate(198.347656 0)"/>
       <use xlink:href="#ArialMT-6f" transform="translate(226.130859 0)"/>
       <use xlink:href="#ArialMT-6c" transform="translate(281.746094 0)"/>
       <use xlink:href="#ArialMT-64" transform="translate(303.962891 0)"/>
       <use xlink:href="#ArialMT-53" transform="translate(359.578125 0)"/>
       <use xlink:href="#ArialMT-70" transform="translate(426.277344 0)"/>
       <use xlink:href="#ArialMT-6c" transform="translate(481.892578 0)"/>
       <use xlink:href="#ArialMT-69" transform="translate(504.109375 0)"/>
       <use xlink:href="#ArialMT-74" transform="translate(526.326172 0)"/>
      </g>
     </g>
    </g>
    <g id="xtick_3">
     <g id="text_3">
      <!-- SortedStepForward_LogD -->
      <g style="fill: #262626" transform="translate(197.68182 879.798908) rotate(-45) scale(0.176 -0.176)">
       <defs>
        <path id="ArialMT-72" d="M 416 0 
L 416 3319 
L 922 3319 
L 922 2816 
Q 1116 3169 1280 3281 
Q 1444 3394 1641 3394 
Q 1925 3394 2219 3213 
L 2025 2691 
Q 1819 2813 1613 2813 
Q 1428 2813 1281 2702 
Q 1134 2591 1072 2394 
Q 978 2094 978 1738 
L 978 0 
L 416 0 
z
" transform="scale(0.015625)"/>
        <path id="ArialMT-65" d="M 2694 1069 
L 3275 997 
Q 3138 488 2766 206 
Q 2394 -75 1816 -75 
Q 1088 -75 661 373 
Q 234 822 234 1631 
Q 234 2469 665 2931 
Q 1097 3394 1784 3394 
Q 2450 3394 2872 2941 
Q 3294 2488 3294 1666 
Q 3294 1616 3291 1516 
L 816 1516 
Q 847 969 1125 678 
Q 1403 388 1819 388 
Q 2128 388 2347 550 
Q 2566 713 2694 1069 
z
M 847 1978 
L 2700 1978 
Q 2663 2397 2488 2606 
Q 2219 2931 1791 2931 
Q 1403 2931 1139 2672 
Q 875 2413 847 1978 
z
" transform="scale(0.015625)"/>
        <path id="ArialMT-46" d="M 525 0 
L 525 4581 
L 3616 4581 
L 3616 4041 
L 1131 4041 
L 1131 2622 
L 3281 2622 
L 3281 2081 
L 1131 2081 
L 1131 0 
L 525 0 
z
" transform="scale(0.015625)"/>
        <path id="ArialMT-77" d="M 1034 0 
L 19 3319 
L 600 3319 
L 1128 1403 
L 1325 691 
Q 1338 744 1497 1375 
L 2025 3319 
L 2603 3319 
L 3100 1394 
L 3266 759 
L 3456 1400 
L 4025 3319 
L 4572 3319 
L 3534 0 
L 2950 0 
L 2422 1988 
L 2294 2553 
L 1622 0 
L 1034 0 
z
" transform="scale(0.015625)"/>
        <path id="ArialMT-5f" d="M -97 -1272 
L -97 -866 
L 3631 -866 
L 3631 -1272 
L -97 -1272 
z
" transform="scale(0.015625)"/>
        <path id="ArialMT-4c" d="M 469 0 
L 469 4581 
L 1075 4581 
L 1075 541 
L 3331 541 
L 3331 0 
L 469 0 
z
" transform="scale(0.015625)"/>
        <path id="ArialMT-67" d="M 319 -275 
L 866 -356 
Q 900 -609 1056 -725 
Q 1266 -881 1628 -881 
Q 2019 -881 2231 -725 
Q 2444 -569 2519 -288 
Q 2563 -116 2559 434 
Q 2191 0 1641 0 
Q 956 0 581 494 
Q 206 988 206 1678 
Q 206 2153 378 2554 
Q 550 2956 876 3175 
Q 1203 3394 1644 3394 
Q 2231 3394 2613 2919 
L 2613 3319 
L 3131 3319 
L 3131 450 
Q 3131 -325 2973 -648 
Q 2816 -972 2473 -1159 
Q 2131 -1347 1631 -1347 
Q 1038 -1347 672 -1080 
Q 306 -813 319 -275 
z
M 784 1719 
Q 784 1066 1043 766 
Q 1303 466 1694 466 
Q 2081 466 2343 764 
Q 2606 1063 2606 1700 
Q 2606 2309 2336 2618 
Q 2066 2928 1684 2928 
Q 1309 2928 1046 2623 
Q 784 2319 784 1719 
z
" transform="scale(0.015625)"/>
        <path id="ArialMT-44" d="M 494 0 
L 494 4581 
L 2072 4581 
Q 2606 4581 2888 4516 
Q 3281 4425 3559 4188 
Q 3922 3881 4101 3404 
Q 4281 2928 4281 2316 
Q 4281 1794 4159 1391 
Q 4038 988 3847 723 
Q 3656 459 3429 307 
Q 3203 156 2883 78 
Q 2563 0 2147 0 
L 494 0 
z
M 1100 541 
L 2078 541 
Q 2531 541 2789 625 
Q 3047 709 3200 863 
Q 3416 1078 3536 1442 
Q 3656 1806 3656 2325 
Q 3656 3044 3420 3430 
Q 3184 3816 2847 3947 
Q 2603 4041 2063 4041 
L 1100 4041 
L 1100 541 
z
" transform="scale(0.015625)"/>
       </defs>
       <use xlink:href="#ArialMT-53"/>
       <use xlink:href="#ArialMT-6f" transform="translate(66.699219 0)"/>
       <use xlink:href="#ArialMT-72" transform="translate(122.314453 0)"/>
       <use xlink:href="#ArialMT-74" transform="translate(155.615234 0)"/>
       <use xlink:href="#ArialMT-65" transform="translate(183.398438 0)"/>
       <use xlink:href="#ArialMT-64" transform="translate(239.013672 0)"/>
       <use xlink:href="#ArialMT-53" transform="translate(294.628906 0)"/>
       <use xlink:href="#ArialMT-74" transform="translate(361.328125 0)"/>
       <use xlink:href="#ArialMT-65" transform="translate(389.111328 0)"/>
       <use xlink:href="#ArialMT-70" transform="translate(444.726562 0)"/>
       <use xlink:href="#ArialMT-46" transform="translate(500.341797 0)"/>
       <use xlink:href="#ArialMT-6f" transform="translate(561.425781 0)"/>
       <use xlink:href="#ArialMT-72" transform="translate(617.041016 0)"/>
       <use xlink:href="#ArialMT-77" transform="translate(650.341797 0)"/>
       <use xlink:href="#ArialMT-61" transform="translate(722.558594 0)"/>
       <use xlink:href="#ArialMT-72" transform="translate(778.173828 0)"/>
       <use xlink:href="#ArialMT-64" transform="translate(811.474609 0)"/>
       <use xlink:href="#ArialMT-5f" transform="translate(867.089844 0)"/>
       <use xlink:href="#ArialMT-4c" transform="translate(922.705078 0)"/>
       <use xlink:href="#ArialMT-6f" transform="translate(978.320312 0)"/>
       <use xlink:href="#ArialMT-67" transform="translate(1033.935547 0)"/>
       <use xlink:href="#ArialMT-44" transform="translate(1089.550781 0)"/>
      </g>
     </g>
    </g>
    <g id="xtick_4">
     <g id="text_4">
      <!-- SortedStepForward_LogP -->
      <g style="fill: #262626" transform="translate(271.222847 879.112484) rotate(-45) scale(0.176 -0.176)">
       <defs>
        <path id="ArialMT-50" d="M 494 0 
L 494 4581 
L 2222 4581 
Q 2678 4581 2919 4538 
Q 3256 4481 3484 4323 
Q 3713 4166 3852 3881 
Q 3991 3597 3991 3256 
Q 3991 2672 3619 2267 
Q 3247 1863 2275 1863 
L 1100 1863 
L 1100 0 
L 494 0 
z
M 1100 2403 
L 2284 2403 
Q 2872 2403 3119 2622 
Q 3366 2841 3366 3238 
Q 3366 3525 3220 3729 
Q 3075 3934 2838 4000 
Q 2684 4041 2272 4041 
L 1100 4041 
L 1100 2403 
z
" transform="scale(0.015625)"/>
       </defs>
       <use xlink:href="#ArialMT-53"/>
       <use xlink:href="#ArialMT-6f" transform="translate(66.699219 0)"/>
       <use xlink:href="#ArialMT-72" transform="translate(122.314453 0)"/>
       <use xlink:href="#ArialMT-74" transform="translate(155.615234 0)"/>
       <use xlink:href="#ArialMT-65" transform="translate(183.398438 0)"/>
       <use xlink:href="#ArialMT-64" transform="translate(239.013672 0)"/>
       <use xlink:href="#ArialMT-53" transform="translate(294.628906 0)"/>
       <use xlink:href="#ArialMT-74" transform="translate(361.328125 0)"/>
       <use xlink:href="#ArialMT-65" transform="translate(389.111328 0)"/>
       <use xlink:href="#ArialMT-70" transform="translate(444.726562 0)"/>
       <use xlink:href="#ArialMT-46" transform="translate(500.341797 0)"/>
       <use xlink:href="#ArialMT-6f" transform="translate(561.425781 0)"/>
       <use xlink:href="#ArialMT-72" transform="translate(617.041016 0)"/>
       <use xlink:href="#ArialMT-77" transform="translate(650.341797 0)"/>
       <use xlink:href="#ArialMT-61" transform="translate(722.558594 0)"/>
       <use xlink:href="#ArialMT-72" transform="translate(778.173828 0)"/>
       <use xlink:href="#ArialMT-64" transform="translate(811.474609 0)"/>
       <use xlink:href="#ArialMT-5f" transform="translate(867.089844 0)"/>
       <use xlink:href="#ArialMT-4c" transform="translate(922.705078 0)"/>
       <use xlink:href="#ArialMT-6f" transform="translate(978.320312 0)"/>
       <use xlink:href="#ArialMT-67" transform="translate(1033.935547 0)"/>
       <use xlink:href="#ArialMT-50" transform="translate(1089.550781 0)"/>
      </g>
     </g>
    </g>
    <g id="xtick_5">
     <g id="text_5">
      <!-- SortedStepForward_MCE18 -->
      <g style="fill: #262626" transform="translate(338.276876 891.545896) rotate(-45) scale(0.176 -0.176)">
       <defs>
        <path id="ArialMT-4d" d="M 475 0 
L 475 4581 
L 1388 4581 
L 2472 1338 
Q 2622 884 2691 659 
Q 2769 909 2934 1394 
L 4031 4581 
L 4847 4581 
L 4847 0 
L 4263 0 
L 4263 3834 
L 2931 0 
L 2384 0 
L 1059 3900 
L 1059 0 
L 475 0 
z
" transform="scale(0.015625)"/>
        <path id="ArialMT-43" d="M 3763 1606 
L 4369 1453 
Q 4178 706 3683 314 
Q 3188 -78 2472 -78 
Q 1731 -78 1267 223 
Q 803 525 561 1097 
Q 319 1669 319 2325 
Q 319 3041 592 3573 
Q 866 4106 1370 4382 
Q 1875 4659 2481 4659 
Q 3169 4659 3637 4309 
Q 4106 3959 4291 3325 
L 3694 3184 
Q 3534 3684 3231 3912 
Q 2928 4141 2469 4141 
Q 1941 4141 1586 3887 
Q 1231 3634 1087 3207 
Q 944 2781 944 2328 
Q 944 1744 1114 1308 
Q 1284 872 1643 656 
Q 2003 441 2422 441 
Q 2931 441 3284 734 
Q 3638 1028 3763 1606 
z
" transform="scale(0.015625)"/>
        <path id="ArialMT-45" d="M 506 0 
L 506 4581 
L 3819 4581 
L 3819 4041 
L 1113 4041 
L 1113 2638 
L 3647 2638 
L 3647 2100 
L 1113 2100 
L 1113 541 
L 3925 541 
L 3925 0 
L 506 0 
z
" transform="scale(0.015625)"/>
        <path id="ArialMT-31" d="M 2384 0 
L 1822 0 
L 1822 3584 
Q 1619 3391 1289 3197 
Q 959 3003 697 2906 
L 697 3450 
Q 1169 3672 1522 3987 
Q 1875 4303 2022 4600 
L 2384 4600 
L 2384 0 
z
" transform="scale(0.015625)"/>
        <path id="ArialMT-38" d="M 1131 2484 
Q 781 2613 612 2850 
Q 444 3088 444 3419 
Q 444 3919 803 4259 
Q 1163 4600 1759 4600 
Q 2359 4600 2725 4251 
Q 3091 3903 3091 3403 
Q 3091 3084 2923 2848 
Q 2756 2613 2416 2484 
Q 2838 2347 3058 2040 
Q 3278 1734 3278 1309 
Q 3278 722 2862 322 
Q 2447 -78 1769 -78 
Q 1091 -78 675 323 
Q 259 725 259 1325 
Q 259 1772 486 2073 
Q 713 2375 1131 2484 
z
M 1019 3438 
Q 1019 3113 1228 2906 
Q 1438 2700 1772 2700 
Q 2097 2700 2305 2904 
Q 2513 3109 2513 3406 
Q 2513 3716 2298 3927 
Q 2084 4138 1766 4138 
Q 1444 4138 1231 3931 
Q 1019 3725 1019 3438 
z
M 838 1322 
Q 838 1081 952 856 
Q 1066 631 1291 507 
Q 1516 384 1775 384 
Q 2178 384 2440 643 
Q 2703 903 2703 1303 
Q 2703 1709 2433 1975 
Q 2163 2241 1756 2241 
Q 1359 2241 1098 1978 
Q 838 1716 838 1322 
z
" transform="scale(0.015625)"/>
       </defs>
       <use xlink:href="#ArialMT-53"/>
       <use xlink:href="#ArialMT-6f" transform="translate(66.699219 0)"/>
       <use xlink:href="#ArialMT-72" transform="translate(122.314453 0)"/>
       <use xlink:href="#ArialMT-74" transform="translate(155.615234 0)"/>
       <use xlink:href="#ArialMT-65" transform="translate(183.398438 0)"/>
       <use xlink:href="#ArialMT-64" transform="translate(239.013672 0)"/>
       <use xlink:href="#ArialMT-53" transform="translate(294.628906 0)"/>
       <use xlink:href="#ArialMT-74" transform="translate(361.328125 0)"/>
       <use xlink:href="#ArialMT-65" transform="translate(389.111328 0)"/>
       <use xlink:href="#ArialMT-70" transform="translate(444.726562 0)"/>
       <use xlink:href="#ArialMT-46" transform="translate(500.341797 0)"/>
       <use xlink:href="#ArialMT-6f" transform="translate(561.425781 0)"/>
       <use xlink:href="#ArialMT-72" transform="translate(617.041016 0)"/>
       <use xlink:href="#ArialMT-77" transform="translate(650.341797 0)"/>
       <use xlink:href="#ArialMT-61" transform="translate(722.558594 0)"/>
       <use xlink:href="#ArialMT-72" transform="translate(778.173828 0)"/>
       <use xlink:href="#ArialMT-64" transform="translate(811.474609 0)"/>
       <use xlink:href="#ArialMT-5f" transform="translate(867.089844 0)"/>
       <use xlink:href="#ArialMT-4d" transform="translate(922.705078 0)"/>
       <use xlink:href="#ArialMT-43" transform="translate(1006.005859 0)"/>
       <use xlink:href="#ArialMT-45" transform="translate(1078.222656 0)"/>
       <use xlink:href="#ArialMT-31" transform="translate(1144.921875 0)"/>
       <use xlink:href="#ArialMT-38" transform="translate(1200.537109 0)"/>
      </g>
     </g>
    </g>
    <g id="xtick_6">
     <g id="text_6">
      <!-- UnsortedStepForward -->
      <g style="fill: #262626" transform="translate(428.76849 856.958298) rotate(-45) scale(0.176 -0.176)">
       <defs>
        <path id="ArialMT-55" d="M 3500 4581 
L 4106 4581 
L 4106 1934 
Q 4106 1244 3950 837 
Q 3794 431 3386 176 
Q 2978 -78 2316 -78 
Q 1672 -78 1262 144 
Q 853 366 678 786 
Q 503 1206 503 1934 
L 503 4581 
L 1109 4581 
L 1109 1938 
Q 1109 1341 1220 1058 
Q 1331 775 1601 622 
Q 1872 469 2263 469 
Q 2931 469 3215 772 
Q 3500 1075 3500 1938 
L 3500 4581 
z
" transform="scale(0.015625)"/>
        <path id="ArialMT-73" d="M 197 991 
L 753 1078 
Q 800 744 1014 566 
Q 1228 388 1613 388 
Q 2000 388 2187 545 
Q 2375 703 2375 916 
Q 2375 1106 2209 1216 
Q 2094 1291 1634 1406 
Q 1016 1563 777 1677 
Q 538 1791 414 1992 
Q 291 2194 291 2438 
Q 291 2659 392 2848 
Q 494 3038 669 3163 
Q 800 3259 1026 3326 
Q 1253 3394 1513 3394 
Q 1903 3394 2198 3281 
Q 2494 3169 2634 2976 
Q 2775 2784 2828 2463 
L 2278 2388 
Q 2241 2644 2061 2787 
Q 1881 2931 1553 2931 
Q 1166 2931 1000 2803 
Q 834 2675 834 2503 
Q 834 2394 903 2306 
Q 972 2216 1119 2156 
Q 1203 2125 1616 2013 
Q 2213 1853 2448 1751 
Q 2684 1650 2818 1456 
Q 2953 1263 2953 975 
Q 2953 694 2789 445 
Q 2625 197 2315 61 
Q 2006 -75 1616 -75 
Q 969 -75 630 194 
Q 291 463 197 991 
z
" transform="scale(0.015625)"/>
       </defs>
       <use xlink:href="#ArialMT-55"/>
       <use xlink:href="#ArialMT-6e" transform="translate(72.216797 0)"/>
       <use xlink:href="#ArialMT-73" transform="translate(127.832031 0)"/>
       <use xlink:href="#ArialMT-6f" transform="translate(177.832031 0)"/>
       <use xlink:href="#ArialMT-72" transform="translate(233.447266 0)"/>
       <use xlink:href="#ArialMT-74" transform="translate(266.748047 0)"/>
       <use xlink:href="#ArialMT-65" transform="translate(294.53125 0)"/>
       <use xlink:href="#ArialMT-64" transform="translate(350.146484 0)"/>
       <use xlink:href="#ArialMT-53" transform="translate(405.761719 0)"/>
       <use xlink:href="#ArialMT-74" transform="translate(472.460938 0)"/>
       <use xlink:href="#ArialMT-65" transform="translate(500.244141 0)"/>
       <use xlink:href="#ArialMT-70" transform="translate(555.859375 0)"/>
       <use xlink:href="#ArialMT-46" transform="translate(611.474609 0)"/>
       <use xlink:href="#ArialMT-6f" transform="translate(672.558594 0)"/>
       <use xlink:href="#ArialMT-72" transform="translate(728.173828 0)"/>
       <use xlink:href="#ArialMT-77" transform="translate(761.474609 0)"/>
       <use xlink:href="#ArialMT-61" transform="translate(833.691406 0)"/>
       <use xlink:href="#ArialMT-72" transform="translate(889.306641 0)"/>
       <use xlink:href="#ArialMT-64" transform="translate(922.607422 0)"/>
      </g>
     </g>
    </g>
    <g id="text_7">
     <!-- split_type -->
     <g style="fill: #262626" transform="translate(262.793029 911.762355) scale(0.192 -0.192)">
      <defs>
       <path id="ArialMT-79" d="M 397 -1278 
L 334 -750 
Q 519 -800 656 -800 
Q 844 -800 956 -737 
Q 1069 -675 1141 -563 
Q 1194 -478 1313 -144 
Q 1328 -97 1363 -6 
L 103 3319 
L 709 3319 
L 1400 1397 
Q 1534 1031 1641 628 
Q 1738 1016 1872 1384 
L 2581 3319 
L 3144 3319 
L 1881 -56 
Q 1678 -603 1566 -809 
Q 1416 -1088 1222 -1217 
Q 1028 -1347 759 -1347 
Q 597 -1347 397 -1278 
z
" transform="scale(0.015625)"/>
      </defs>
      <use xlink:href="#ArialMT-73"/>
      <use xlink:href="#ArialMT-70" transform="translate(50 0)"/>
      <use xlink:href="#ArialMT-6c" transform="translate(105.615234 0)"/>
      <use xlink:href="#ArialMT-69" transform="translate(127.832031 0)"/>
      <use xlink:href="#ArialMT-74" transform="translate(150.048828 0)"/>
      <use xlink:href="#ArialMT-5f" transform="translate(177.832031 0)"/>
      <use xlink:href="#ArialMT-74" transform="translate(233.447266 0)"/>
      <use xlink:href="#ArialMT-79" transform="translate(261.230469 0)"/>
      <use xlink:href="#ArialMT-70" transform="translate(311.230469 0)"/>
      <use xlink:href="#ArialMT-65" transform="translate(366.845703 0)"/>
     </g>
    </g>
   </g>
   <g id="matplotlib.axis_2">
    <g id="ytick_1">
     <g id="line2d_1">
      <path d="M 69.846 701.756255 
L 536.848058 701.756255 
" clip-path="url(#p2f59fc84c7)" style="fill: none; stroke: #cccccc; stroke-width: 0.8; stroke-linecap: round"/>
     </g>
     <g id="text_8">
      <!-- 0 -->
      <g style="fill: #262626" transform="translate(51.75875 708.05513) scale(0.176 -0.176)">
       <defs>
        <path id="ArialMT-30" d="M 266 2259 
Q 266 3072 433 3567 
Q 600 4063 929 4331 
Q 1259 4600 1759 4600 
Q 2128 4600 2406 4451 
Q 2684 4303 2865 4023 
Q 3047 3744 3150 3342 
Q 3253 2941 3253 2259 
Q 3253 1453 3087 958 
Q 2922 463 2592 192 
Q 2263 -78 1759 -78 
Q 1097 -78 719 397 
Q 266 969 266 2259 
z
M 844 2259 
Q 844 1131 1108 757 
Q 1372 384 1759 384 
Q 2147 384 2411 759 
Q 2675 1134 2675 2259 
Q 2675 3391 2411 3762 
Q 2147 4134 1753 4134 
Q 1366 4134 1134 3806 
Q 844 3388 844 2259 
z
" transform="scale(0.015625)"/>
       </defs>
       <use xlink:href="#ArialMT-30"/>
      </g>
     </g>
    </g>
    <g id="ytick_2">
     <g id="line2d_2">
      <path d="M 69.846 619.831433 
L 536.848058 619.831433 
" clip-path="url(#p2f59fc84c7)" style="fill: none; stroke: #cccccc; stroke-width: 0.8; stroke-linecap: round"/>
     </g>
     <g id="text_9">
      <!-- 2 -->
      <g style="fill: #262626" transform="translate(51.75875 626.130308) scale(0.176 -0.176)">
       <defs>
        <path id="ArialMT-32" d="M 3222 541 
L 3222 0 
L 194 0 
Q 188 203 259 391 
Q 375 700 629 1000 
Q 884 1300 1366 1694 
Q 2113 2306 2375 2664 
Q 2638 3022 2638 3341 
Q 2638 3675 2398 3904 
Q 2159 4134 1775 4134 
Q 1369 4134 1125 3890 
Q 881 3647 878 3216 
L 300 3275 
Q 359 3922 746 4261 
Q 1134 4600 1788 4600 
Q 2447 4600 2831 4234 
Q 3216 3869 3216 3328 
Q 3216 3053 3103 2787 
Q 2991 2522 2730 2228 
Q 2469 1934 1863 1422 
Q 1356 997 1212 845 
Q 1069 694 975 541 
L 3222 541 
z
" transform="scale(0.015625)"/>
       </defs>
       <use xlink:href="#ArialMT-32"/>
      </g>
     </g>
    </g>
    <g id="ytick_3">
     <g id="line2d_3">
      <path d="M 69.846 537.90661 
L 536.848058 537.90661 
" clip-path="url(#p2f59fc84c7)" style="fill: none; stroke: #cccccc; stroke-width: 0.8; stroke-linecap: round"/>
     </g>
     <g id="text_10">
      <!-- 4 -->
      <g style="fill: #262626" transform="translate(51.75875 544.205485) scale(0.176 -0.176)">
       <defs>
        <path id="ArialMT-34" d="M 2069 0 
L 2069 1097 
L 81 1097 
L 81 1613 
L 2172 4581 
L 2631 4581 
L 2631 1613 
L 3250 1613 
L 3250 1097 
L 2631 1097 
L 2631 0 
L 2069 0 
z
M 2069 1613 
L 2069 3678 
L 634 1613 
L 2069 1613 
z
" transform="scale(0.015625)"/>
       </defs>
       <use xlink:href="#ArialMT-34"/>
      </g>
     </g>
    </g>
    <g id="ytick_4">
     <g id="line2d_4">
      <path d="M 69.846 455.981787 
L 536.848058 455.981787 
" clip-path="url(#p2f59fc84c7)" style="fill: none; stroke: #cccccc; stroke-width: 0.8; stroke-linecap: round"/>
     </g>
     <g id="text_11">
      <!-- 6 -->
      <g style="fill: #262626" transform="translate(51.75875 462.280662) scale(0.176 -0.176)">
       <defs>
        <path id="ArialMT-36" d="M 3184 3459 
L 2625 3416 
Q 2550 3747 2413 3897 
Q 2184 4138 1850 4138 
Q 1581 4138 1378 3988 
Q 1113 3794 959 3422 
Q 806 3050 800 2363 
Q 1003 2672 1297 2822 
Q 1591 2972 1913 2972 
Q 2475 2972 2870 2558 
Q 3266 2144 3266 1488 
Q 3266 1056 3080 686 
Q 2894 316 2569 119 
Q 2244 -78 1831 -78 
Q 1128 -78 684 439 
Q 241 956 241 2144 
Q 241 3472 731 4075 
Q 1159 4600 1884 4600 
Q 2425 4600 2770 4297 
Q 3116 3994 3184 3459 
z
M 888 1484 
Q 888 1194 1011 928 
Q 1134 663 1356 523 
Q 1578 384 1822 384 
Q 2178 384 2434 671 
Q 2691 959 2691 1453 
Q 2691 1928 2437 2201 
Q 2184 2475 1800 2475 
Q 1419 2475 1153 2201 
Q 888 1928 888 1484 
z
" transform="scale(0.015625)"/>
       </defs>
       <use xlink:href="#ArialMT-36"/>
      </g>
     </g>
    </g>
    <g id="ytick_5">
     <g id="line2d_5">
      <path d="M 69.846 374.056964 
L 536.848058 374.056964 
" clip-path="url(#p2f59fc84c7)" style="fill: none; stroke: #cccccc; stroke-width: 0.8; stroke-linecap: round"/>
     </g>
     <g id="text_12">
      <!-- 8 -->
      <g style="fill: #262626" transform="translate(51.75875 380.355839) scale(0.176 -0.176)">
       <use xlink:href="#ArialMT-38"/>
      </g>
     </g>
    </g>
    <g id="ytick_6">
     <g id="line2d_6">
      <path d="M 69.846 292.132142 
L 536.848058 292.132142 
" clip-path="url(#p2f59fc84c7)" style="fill: none; stroke: #cccccc; stroke-width: 0.8; stroke-linecap: round"/>
     </g>
     <g id="text_13">
      <!-- 10 -->
      <g style="fill: #262626" transform="translate(41.9715 298.431017) scale(0.176 -0.176)">
       <use xlink:href="#ArialMT-31"/>
       <use xlink:href="#ArialMT-30" transform="translate(55.615234 0)"/>
      </g>
     </g>
    </g>
    <g id="ytick_7">
     <g id="line2d_7">
      <path d="M 69.846 210.207319 
L 536.848058 210.207319 
" clip-path="url(#p2f59fc84c7)" style="fill: none; stroke: #cccccc; stroke-width: 0.8; stroke-linecap: round"/>
     </g>
     <g id="text_14">
      <!-- 12 -->
      <g style="fill: #262626" transform="translate(41.9715 216.506194) scale(0.176 -0.176)">
       <use xlink:href="#ArialMT-31"/>
       <use xlink:href="#ArialMT-32" transform="translate(55.615234 0)"/>
      </g>
     </g>
    </g>
    <g id="ytick_8">
     <g id="line2d_8">
      <path d="M 69.846 128.282496 
L 536.848058 128.282496 
" clip-path="url(#p2f59fc84c7)" style="fill: none; stroke: #cccccc; stroke-width: 0.8; stroke-linecap: round"/>
     </g>
     <g id="text_15">
      <!-- 14 -->
      <g style="fill: #262626" transform="translate(41.9715 134.581371) scale(0.176 -0.176)">
       <use xlink:href="#ArialMT-31"/>
       <use xlink:href="#ArialMT-34" transform="translate(55.615234 0)"/>
      </g>
     </g>
    </g>
    <g id="ytick_9">
     <g id="line2d_9">
      <path d="M 69.846 46.357673 
L 536.848058 46.357673 
" clip-path="url(#p2f59fc84c7)" style="fill: none; stroke: #cccccc; stroke-width: 0.8; stroke-linecap: round"/>
     </g>
     <g id="text_16">
      <!-- 16 -->
      <g style="fill: #262626" transform="translate(41.9715 52.656548) scale(0.176 -0.176)">
       <use xlink:href="#ArialMT-31"/>
       <use xlink:href="#ArialMT-36" transform="translate(55.615234 0)"/>
      </g>
     </g>
    </g>
    <g id="text_17">
     <!-- novelty_err -->
     <g style="fill: #262626" transform="translate(33.9305 426.626674) rotate(-90) scale(0.192 -0.192)">
      <defs>
       <path id="ArialMT-76" d="M 1344 0 
L 81 3319 
L 675 3319 
L 1388 1331 
Q 1503 1009 1600 663 
Q 1675 925 1809 1294 
L 2547 3319 
L 3125 3319 
L 1869 0 
L 1344 0 
z
" transform="scale(0.015625)"/>
      </defs>
      <use xlink:href="#ArialMT-6e"/>
      <use xlink:href="#ArialMT-6f" transform="translate(55.615234 0)"/>
      <use xlink:href="#ArialMT-76" transform="translate(111.230469 0)"/>
      <use xlink:href="#ArialMT-65" transform="translate(161.230469 0)"/>
      <use xlink:href="#ArialMT-6c" transform="translate(216.845703 0)"/>
      <use xlink:href="#ArialMT-74" transform="translate(239.0625 0)"/>
      <use xlink:href="#ArialMT-79" transform="translate(266.845703 0)"/>
      <use xlink:href="#ArialMT-5f" transform="translate(316.845703 0)"/>
      <use xlink:href="#ArialMT-65" transform="translate(372.460938 0)"/>
      <use xlink:href="#ArialMT-72" transform="translate(428.076172 0)"/>
      <use xlink:href="#ArialMT-72" transform="translate(461.376953 0)"/>
     </g>
    </g>
   </g>
   <g id="PatchCollection_1">
    <path d="M 120.123749 701.337562 
L 120.581235 701.337562 
L 120.581235 701.155036 
L 120.123749 701.155036 
z
" clip-path="url(#p2f59fc84c7)" style="fill: #d2d8e2; stroke: #494949; stroke-width: 0.6"/>
    <path d="M 119.895006 701.155036 
L 120.809979 701.155036 
L 120.809979 700.299022 
L 119.895006 700.299022 
z
" clip-path="url(#p2f59fc84c7)" style="fill: #cad2de; stroke: #494949; stroke-width: 0.6"/>
    <path d="M 119.43752 700.299022 
L 121.267465 700.299022 
L 121.267465 698.917039 
L 119.43752 698.917039 
z
" clip-path="url(#p2f59fc84c7)" style="fill: #c1cad9; stroke: #494949; stroke-width: 0.6"/>
    <path d="M 118.522547 698.917039 
L 122.182438 698.917039 
L 122.182438 696.792092 
L 118.522547 696.792092 
z
" clip-path="url(#p2f59fc84c7)" style="fill: #b4c0d3; stroke: #494949; stroke-width: 0.6"/>
    <path d="M 116.692601 696.792092 
L 124.012383 696.792092 
L 124.012383 692.709963 
L 116.692601 692.709963 
z
" clip-path="url(#p2f59fc84c7)" style="fill: #a4b3ca; stroke: #494949; stroke-width: 0.6"/>
    <path d="M 113.032711 692.709963 
L 127.672274 692.709963 
L 127.672274 686.828654 
L 113.032711 686.828654 
z
" clip-path="url(#p2f59fc84c7)" style="fill: #90a3c0; stroke: #494949; stroke-width: 0.6"/>
    <path d="M 105.712929 686.828654 
L 134.992055 686.828654 
L 134.992055 678.155762 
L 105.712929 678.155762 
z
" clip-path="url(#p2f59fc84c7)" style="fill: #778eb3; stroke: #494949; stroke-width: 0.6"/>
    <path d="M 91.073366 678.155762 
L 149.631618 678.155762 
L 149.631618 645.271198 
L 91.073366 645.271198 
z
" clip-path="url(#p2f59fc84c7)" style="fill: #5875a4; stroke: #494949; stroke-width: 0.6"/>
    <path d="M 105.712929 645.271198 
L 134.992055 645.271198 
L 134.992055 627.641267 
L 105.712929 627.641267 
z
" clip-path="url(#p2f59fc84c7)" style="fill: #778eb3; stroke: #494949; stroke-width: 0.6"/>
    <path d="M 113.032711 627.641267 
L 127.672274 627.641267 
L 127.672274 609.9131 
L 113.032711 609.9131 
z
" clip-path="url(#p2f59fc84c7)" style="fill: #90a3c0; stroke: #494949; stroke-width: 0.6"/>
    <path d="M 116.692601 609.9131 
L 124.012383 609.9131 
L 124.012383 592.626434 
L 116.692601 592.626434 
z
" clip-path="url(#p2f59fc84c7)" style="fill: #a4b3ca; stroke: #494949; stroke-width: 0.6"/>
    <path d="M 118.522547 592.626434 
L 122.182438 592.626434 
L 122.182438 571.987737 
L 118.522547 571.987737 
z
" clip-path="url(#p2f59fc84c7)" style="fill: #b4c0d3; stroke: #494949; stroke-width: 0.6"/>
    <path d="M 119.43752 571.987737 
L 121.267465 571.987737 
L 121.267465 554.687558 
L 119.43752 554.687558 
z
" clip-path="url(#p2f59fc84c7)" style="fill: #c1cad9; stroke: #494949; stroke-width: 0.6"/>
    <path d="M 119.895006 554.687558 
L 120.809979 554.687558 
L 120.809979 544.399951 
L 119.895006 544.399951 
z
" clip-path="url(#p2f59fc84c7)" style="fill: #cad2de; stroke: #494949; stroke-width: 0.6"/>
    <path d="M 120.123749 544.399951 
L 120.581235 544.399951 
L 120.581235 495.572079 
L 120.123749 495.572079 
z
" clip-path="url(#p2f59fc84c7)" style="fill: #d2d8e2; stroke: #494949; stroke-width: 0.6"/>
   </g>
   <g id="PathCollection_1">
    <defs>
     <path id="C0_0_1928a6bf5e" d="M 0 2.5 
C 0.663008 2.5 1.29895 2.236584 1.767767 1.767767 
C 2.236584 1.29895 2.5 0.663008 2.5 -0 
C 2.5 -0.663008 2.236584 -1.29895 1.767767 -1.767767 
C 1.29895 -2.236584 0.663008 -2.5 0 -2.5 
C -0.663008 -2.5 -1.29895 -2.236584 -1.767767 -1.767767 
C -2.236584 -1.29895 -2.5 -0.663008 -2.5 0 
C -2.5 0.663008 -2.236584 1.29895 -1.767767 1.767767 
C -1.29895 2.236584 -0.663008 2.5 0 2.5 
z
"/>
    </defs>
    <g clip-path="url(#p2f59fc84c7)">
     <use xlink:href="#C0_0_1928a6bf5e" x="120.352492" y="451.369272" style="fill: none; stroke: #737373; stroke-width: 0.8"/>
    </g>
    <g clip-path="url(#p2f59fc84c7)">
     <use xlink:href="#C0_0_1928a6bf5e" x="120.352492" y="379.55441" style="fill: none; stroke: #737373; stroke-width: 0.8"/>
    </g>
    <g clip-path="url(#p2f59fc84c7)">
     <use xlink:href="#C0_0_1928a6bf5e" x="120.352492" y="701.756255" style="fill: none; stroke: #737373; stroke-width: 0.8"/>
    </g>
    <g clip-path="url(#p2f59fc84c7)">
     <use xlink:href="#C0_0_1928a6bf5e" x="120.352492" y="701.703833" style="fill: none; stroke: #737373; stroke-width: 0.8"/>
    </g>
    <g clip-path="url(#p2f59fc84c7)">
     <use xlink:href="#C0_0_1928a6bf5e" x="120.352492" y="484.821965" style="fill: none; stroke: #737373; stroke-width: 0.8"/>
    </g>
    <g clip-path="url(#p2f59fc84c7)">
     <use xlink:href="#C0_0_1928a6bf5e" x="120.352492" y="701.544197" style="fill: none; stroke: #737373; stroke-width: 0.8"/>
    </g>
    <g clip-path="url(#p2f59fc84c7)">
     <use xlink:href="#C0_0_1928a6bf5e" x="120.352492" y="479.253172" style="fill: none; stroke: #737373; stroke-width: 0.8"/>
    </g>
    <g clip-path="url(#p2f59fc84c7)">
     <use xlink:href="#C0_0_1928a6bf5e" x="120.352492" y="421.883802" style="fill: none; stroke: #737373; stroke-width: 0.8"/>
    </g>
    <g clip-path="url(#p2f59fc84c7)">
     <use xlink:href="#C0_0_1928a6bf5e" x="120.352492" y="701.551677" style="fill: none; stroke: #737373; stroke-width: 0.8"/>
    </g>
    <g clip-path="url(#p2f59fc84c7)">
     <use xlink:href="#C0_0_1928a6bf5e" x="120.352492" y="485.626755" style="fill: none; stroke: #737373; stroke-width: 0.8"/>
    </g>
    <g clip-path="url(#p2f59fc84c7)">
     <use xlink:href="#C0_0_1928a6bf5e" x="120.352492" y="701.721835" style="fill: none; stroke: #737373; stroke-width: 0.8"/>
    </g>
    <g clip-path="url(#p2f59fc84c7)">
     <use xlink:href="#C0_0_1928a6bf5e" x="120.352492" y="701.659953" style="fill: none; stroke: #737373; stroke-width: 0.8"/>
    </g>
    <g clip-path="url(#p2f59fc84c7)">
     <use xlink:href="#C0_0_1928a6bf5e" x="120.352492" y="701.346631" style="fill: none; stroke: #737373; stroke-width: 0.8"/>
    </g>
    <g clip-path="url(#p2f59fc84c7)">
     <use xlink:href="#C0_0_1928a6bf5e" x="120.352492" y="478.148842" style="fill: none; stroke: #737373; stroke-width: 0.8"/>
    </g>
   </g>
   <g id="PatchCollection_2">
    <path d="M 193.321564 701.014177 
L 193.77905 701.014177 
L 193.77905 700.310991 
L 193.321564 700.310991 
z
" clip-path="url(#p2f59fc84c7)" style="fill: #eadcd4; stroke: #494949; stroke-width: 0.6"/>
    <path d="M 193.092821 700.310991 
L 194.007793 700.310991 
L 194.007793 698.212028 
L 193.092821 698.212028 
z
" clip-path="url(#p2f59fc84c7)" style="fill: #e8d6cc; stroke: #494949; stroke-width: 0.6"/>
    <path d="M 192.635334 698.212028 
L 194.46528 698.212028 
L 194.46528 696.362532 
L 192.635334 696.362532 
z
" clip-path="url(#p2f59fc84c7)" style="fill: #e6d0c4; stroke: #494949; stroke-width: 0.6"/>
    <path d="M 191.720362 696.362532 
L 195.380252 696.362532 
L 195.380252 693.230918 
L 191.720362 693.230918 
z
" clip-path="url(#p2f59fc84c7)" style="fill: #e3c7b8; stroke: #494949; stroke-width: 0.6"/>
    <path d="M 189.890416 693.230918 
L 197.210198 693.230918 
L 197.210198 689.102651 
L 189.890416 689.102651 
z
" clip-path="url(#p2f59fc84c7)" style="fill: #dfbca9; stroke: #494949; stroke-width: 0.6"/>
    <path d="M 186.230526 689.102651 
L 200.870088 689.102651 
L 200.870088 683.937151 
L 186.230526 683.937151 
z
" clip-path="url(#p2f59fc84c7)" style="fill: #daaf97; stroke: #494949; stroke-width: 0.6"/>
    <path d="M 178.910744 683.937151 
L 208.18987 683.937151 
L 208.18987 677.36088 
L 178.910744 677.36088 
z
" clip-path="url(#p2f59fc84c7)" style="fill: #d39e80; stroke: #494949; stroke-width: 0.6"/>
    <path d="M 164.271181 677.36088 
L 222.829433 677.36088 
L 222.829433 652.555967 
L 164.271181 652.555967 
z
" clip-path="url(#p2f59fc84c7)" style="fill: #cc8963; stroke: #494949; stroke-width: 0.6"/>
    <path d="M 178.910744 652.555967 
L 208.18987 652.555967 
L 208.18987 638.546878 
L 178.910744 638.546878 
z
" clip-path="url(#p2f59fc84c7)" style="fill: #d39e80; stroke: #494949; stroke-width: 0.6"/>
    <path d="M 186.230526 638.546878 
L 200.870088 638.546878 
L 200.870088 622.76843 
L 186.230526 622.76843 
z
" clip-path="url(#p2f59fc84c7)" style="fill: #daaf97; stroke: #494949; stroke-width: 0.6"/>
    <path d="M 189.890416 622.76843 
L 197.210198 622.76843 
L 197.210198 609.481114 
L 189.890416 609.481114 
z
" clip-path="url(#p2f59fc84c7)" style="fill: #dfbca9; stroke: #494949; stroke-width: 0.6"/>
    <path d="M 191.720362 609.481114 
L 195.380252 609.481114 
L 195.380252 592.407754 
L 191.720362 592.407754 
z
" clip-path="url(#p2f59fc84c7)" style="fill: #e3c7b8; stroke: #494949; stroke-width: 0.6"/>
    <path d="M 192.635334 592.407754 
L 194.46528 592.407754 
L 194.46528 572.06518 
L 192.635334 572.06518 
z
" clip-path="url(#p2f59fc84c7)" style="fill: #e6d0c4; stroke: #494949; stroke-width: 0.6"/>
    <path d="M 193.092821 572.06518 
L 194.007793 572.06518 
L 194.007793 560.149013 
L 193.092821 560.149013 
z
" clip-path="url(#p2f59fc84c7)" style="fill: #e8d6cc; stroke: #494949; stroke-width: 0.6"/>
    <path d="M 193.321564 560.149013 
L 193.77905 560.149013 
L 193.77905 539.708824 
L 193.321564 539.708824 
z
" clip-path="url(#p2f59fc84c7)" style="fill: #eadcd4; stroke: #494949; stroke-width: 0.6"/>
   </g>
   <g id="PathCollection_2">
    <defs>
     <path id="C1_0_835b3abb65" d="M 0 2.5 
C 0.663008 2.5 1.29895 2.236584 1.767767 1.767767 
C 2.236584 1.29895 2.5 0.663008 2.5 -0 
C 2.5 -0.663008 2.236584 -1.29895 1.767767 -1.767767 
C 1.29895 -2.236584 0.663008 -2.5 0 -2.5 
C -0.663008 -2.5 -1.29895 -2.236584 -1.767767 -1.767767 
C -2.236584 -1.29895 -2.5 -0.663008 -2.5 0 
C -2.5 0.663008 -2.236584 1.29895 -1.767767 1.767767 
C -1.29895 2.236584 -0.663008 2.5 0 2.5 
z
"/>
    </defs>
    <g clip-path="url(#p2f59fc84c7)">
     <use xlink:href="#C1_0_835b3abb65" x="193.550307" y="522.822809" style="fill: none; stroke: #737373; stroke-width: 0.8"/>
    </g>
    <g clip-path="url(#p2f59fc84c7)">
     <use xlink:href="#C1_0_835b3abb65" x="193.550307" y="528.612186" style="fill: none; stroke: #737373; stroke-width: 0.8"/>
    </g>
    <g clip-path="url(#p2f59fc84c7)">
     <use xlink:href="#C1_0_835b3abb65" x="193.550307" y="701.078364" style="fill: none; stroke: #737373; stroke-width: 0.8"/>
    </g>
    <g clip-path="url(#p2f59fc84c7)">
     <use xlink:href="#C1_0_835b3abb65" x="193.550307" y="701.133627" style="fill: none; stroke: #737373; stroke-width: 0.8"/>
    </g>
    <g clip-path="url(#p2f59fc84c7)">
     <use xlink:href="#C1_0_835b3abb65" x="193.550307" y="701.532035" style="fill: none; stroke: #737373; stroke-width: 0.8"/>
    </g>
    <g clip-path="url(#p2f59fc84c7)">
     <use xlink:href="#C1_0_835b3abb65" x="193.550307" y="701.574874" style="fill: none; stroke: #737373; stroke-width: 0.8"/>
    </g>
    <g clip-path="url(#p2f59fc84c7)">
     <use xlink:href="#C1_0_835b3abb65" x="193.550307" y="701.053653" style="fill: none; stroke: #737373; stroke-width: 0.8"/>
    </g>
    <g clip-path="url(#p2f59fc84c7)">
     <use xlink:href="#C1_0_835b3abb65" x="193.550307" y="701.747593" style="fill: none; stroke: #737373; stroke-width: 0.8"/>
    </g>
    <g clip-path="url(#p2f59fc84c7)">
     <use xlink:href="#C1_0_835b3abb65" x="193.550307" y="538.76964" style="fill: none; stroke: #737373; stroke-width: 0.8"/>
    </g>
    <g clip-path="url(#p2f59fc84c7)">
     <use xlink:href="#C1_0_835b3abb65" x="193.550307" y="477.49234" style="fill: none; stroke: #737373; stroke-width: 0.8"/>
    </g>
    <g clip-path="url(#p2f59fc84c7)">
     <use xlink:href="#C1_0_835b3abb65" x="193.550307" y="447.723811" style="fill: none; stroke: #737373; stroke-width: 0.8"/>
    </g>
    <g clip-path="url(#p2f59fc84c7)">
     <use xlink:href="#C1_0_835b3abb65" x="193.550307" y="497.422327" style="fill: none; stroke: #737373; stroke-width: 0.8"/>
    </g>
    <g clip-path="url(#p2f59fc84c7)">
     <use xlink:href="#C1_0_835b3abb65" x="193.550307" y="701.607301" style="fill: none; stroke: #737373; stroke-width: 0.8"/>
    </g>
    <g clip-path="url(#p2f59fc84c7)">
     <use xlink:href="#C1_0_835b3abb65" x="193.550307" y="507.08503" style="fill: none; stroke: #737373; stroke-width: 0.8"/>
    </g>
    <g clip-path="url(#p2f59fc84c7)">
     <use xlink:href="#C1_0_835b3abb65" x="193.550307" y="701.405997" style="fill: none; stroke: #737373; stroke-width: 0.8"/>
    </g>
    <g clip-path="url(#p2f59fc84c7)">
     <use xlink:href="#C1_0_835b3abb65" x="193.550307" y="533.70172" style="fill: none; stroke: #737373; stroke-width: 0.8"/>
    </g>
   </g>
   <g id="PatchCollection_3">
    <path d="M 266.63375 701.548703 
L 266.862493 701.548703 
L 266.862493 701.189214 
L 266.63375 701.189214 
z
" clip-path="url(#p2f59fc84c7)" style="fill: #d7e5da; stroke: #494949; stroke-width: 0.6"/>
    <path d="M 266.519379 701.189214 
L 266.976865 701.189214 
L 266.976865 700.363927 
L 266.519379 700.363927 
z
" clip-path="url(#p2f59fc84c7)" style="fill: #d1e1d5; stroke: #494949; stroke-width: 0.6"/>
    <path d="M 266.290635 700.363927 
L 267.205608 700.363927 
L 267.205608 699.244937 
L 266.290635 699.244937 
z
" clip-path="url(#p2f59fc84c7)" style="fill: #caddce; stroke: #494949; stroke-width: 0.6"/>
    <path d="M 265.833149 699.244937 
L 267.663094 699.244937 
L 267.663094 696.10804 
L 265.833149 696.10804 
z
" clip-path="url(#p2f59fc84c7)" style="fill: #c1d7c6; stroke: #494949; stroke-width: 0.6"/>
    <path d="M 264.918176 696.10804 
L 268.578067 696.10804 
L 268.578067 691.355785 
L 264.918176 691.355785 
z
" clip-path="url(#p2f59fc84c7)" style="fill: #b5d1bb; stroke: #494949; stroke-width: 0.6"/>
    <path d="M 263.088231 691.355785 
L 270.408013 691.355785 
L 270.408013 686.398245 
L 263.088231 686.398245 
z
" clip-path="url(#p2f59fc84c7)" style="fill: #a6c8ae; stroke: #494949; stroke-width: 0.6"/>
    <path d="M 259.42834 686.398245 
L 274.067903 686.398245 
L 274.067903 680.533317 
L 259.42834 680.533317 
z
" clip-path="url(#p2f59fc84c7)" style="fill: #94bd9d; stroke: #494949; stroke-width: 0.6"/>
    <path d="M 252.108559 680.533317 
L 281.387685 680.533317 
L 281.387685 673.440817 
L 252.108559 673.440817 
z
" clip-path="url(#p2f59fc84c7)" style="fill: #7caf88; stroke: #494949; stroke-width: 0.6"/>
    <path d="M 237.468996 673.440817 
L 296.027248 673.440817 
L 296.027248 648.046252 
L 237.468996 648.046252 
z
" clip-path="url(#p2f59fc84c7)" style="fill: #5f9e6e; stroke: #494949; stroke-width: 0.6"/>
    <path d="M 252.108559 648.046252 
L 281.387685 648.046252 
L 281.387685 632.320545 
L 252.108559 632.320545 
z
" clip-path="url(#p2f59fc84c7)" style="fill: #7caf88; stroke: #494949; stroke-width: 0.6"/>
    <path d="M 259.42834 632.320545 
L 274.067903 632.320545 
L 274.067903 616.308665 
L 259.42834 616.308665 
z
" clip-path="url(#p2f59fc84c7)" style="fill: #94bd9d; stroke: #494949; stroke-width: 0.6"/>
    <path d="M 263.088231 616.308665 
L 270.408013 616.308665 
L 270.408013 599.988112 
L 263.088231 599.988112 
z
" clip-path="url(#p2f59fc84c7)" style="fill: #a6c8ae; stroke: #494949; stroke-width: 0.6"/>
    <path d="M 264.918176 599.988112 
L 268.578067 599.988112 
L 268.578067 582.381815 
L 264.918176 582.381815 
z
" clip-path="url(#p2f59fc84c7)" style="fill: #b5d1bb; stroke: #494949; stroke-width: 0.6"/>
    <path d="M 265.833149 582.381815 
L 267.663094 582.381815 
L 267.663094 562.230728 
L 265.833149 562.230728 
z
" clip-path="url(#p2f59fc84c7)" style="fill: #c1d7c6; stroke: #494949; stroke-width: 0.6"/>
    <path d="M 266.290635 562.230728 
L 267.205608 562.230728 
L 267.205608 542.640544 
L 266.290635 542.640544 
z
" clip-path="url(#p2f59fc84c7)" style="fill: #caddce; stroke: #494949; stroke-width: 0.6"/>
    <path d="M 266.519379 542.640544 
L 266.976865 542.640544 
L 266.976865 514.536265 
L 266.519379 514.536265 
z
" clip-path="url(#p2f59fc84c7)" style="fill: #d1e1d5; stroke: #494949; stroke-width: 0.6"/>
    <path d="M 266.63375 514.536265 
L 266.862493 514.536265 
L 266.862493 494.10003 
L 266.63375 494.10003 
z
" clip-path="url(#p2f59fc84c7)" style="fill: #d7e5da; stroke: #494949; stroke-width: 0.6"/>
   </g>
   <g id="PathCollection_3">
    <defs>
     <path id="C2_0_98b31b41e9" d="M 0 2.5 
C 0.663008 2.5 1.29895 2.236584 1.767767 1.767767 
C 2.236584 1.29895 2.5 0.663008 2.5 -0 
C 2.5 -0.663008 2.236584 -1.29895 1.767767 -1.767767 
C 1.29895 -2.236584 0.663008 -2.5 0 -2.5 
C -0.663008 -2.5 -1.29895 -2.236584 -1.767767 -1.767767 
C -2.236584 -1.29895 -2.5 -0.663008 -2.5 0 
C -2.5 0.663008 -2.236584 1.29895 -1.767767 1.767767 
C -1.29895 2.236584 -0.663008 2.5 0 2.5 
z
"/>
    </defs>
    <g clip-path="url(#p2f59fc84c7)">
     <use xlink:href="#C2_0_98b31b41e9" x="266.748122" y="701.653656" style="fill: none; stroke: #737373; stroke-width: 0.8"/>
    </g>
    <g clip-path="url(#p2f59fc84c7)">
     <use xlink:href="#C2_0_98b31b41e9" x="266.748122" y="701.661079" style="fill: none; stroke: #737373; stroke-width: 0.8"/>
    </g>
    <g clip-path="url(#p2f59fc84c7)">
     <use xlink:href="#C2_0_98b31b41e9" x="266.748122" y="478.475186" style="fill: none; stroke: #737373; stroke-width: 0.8"/>
    </g>
    <g clip-path="url(#p2f59fc84c7)">
     <use xlink:href="#C2_0_98b31b41e9" x="266.748122" y="473.638289" style="fill: none; stroke: #737373; stroke-width: 0.8"/>
    </g>
    <g clip-path="url(#p2f59fc84c7)">
     <use xlink:href="#C2_0_98b31b41e9" x="266.748122" y="488.288558" style="fill: none; stroke: #737373; stroke-width: 0.8"/>
    </g>
    <g clip-path="url(#p2f59fc84c7)">
     <use xlink:href="#C2_0_98b31b41e9" x="266.748122" y="448.724352" style="fill: none; stroke: #737373; stroke-width: 0.8"/>
    </g>
    <g clip-path="url(#p2f59fc84c7)">
     <use xlink:href="#C2_0_98b31b41e9" x="266.748122" y="701.72029" style="fill: none; stroke: #737373; stroke-width: 0.8"/>
    </g>
    <g clip-path="url(#p2f59fc84c7)">
     <use xlink:href="#C2_0_98b31b41e9" x="266.748122" y="440.097195" style="fill: none; stroke: #737373; stroke-width: 0.8"/>
    </g>
    <g clip-path="url(#p2f59fc84c7)">
     <use xlink:href="#C2_0_98b31b41e9" x="266.748122" y="701.572391" style="fill: none; stroke: #737373; stroke-width: 0.8"/>
    </g>
    <g clip-path="url(#p2f59fc84c7)">
     <use xlink:href="#C2_0_98b31b41e9" x="266.748122" y="701.636649" style="fill: none; stroke: #737373; stroke-width: 0.8"/>
    </g>
   </g>
   <g id="PatchCollection_4">
    <path d="M 339.831565 701.14072 
L 340.060308 701.14072 
L 340.060308 700.44813 
L 339.831565 700.44813 
z
" clip-path="url(#p2f59fc84c7)" style="fill: #e8d9da; stroke: #494949; stroke-width: 0.6"/>
    <path d="M 339.717193 700.44813 
L 340.17468 700.44813 
L 340.17468 699.428224 
L 339.717193 699.428224 
z
" clip-path="url(#p2f59fc84c7)" style="fill: #e6d3d4; stroke: #494949; stroke-width: 0.6"/>
    <path d="M 339.48845 699.428224 
L 340.403423 699.428224 
L 340.403423 697.626417 
L 339.48845 697.626417 
z
" clip-path="url(#p2f59fc84c7)" style="fill: #e2cbcc; stroke: #494949; stroke-width: 0.6"/>
    <path d="M 339.030964 697.626417 
L 340.860909 697.626417 
L 340.860909 694.717949 
L 339.030964 694.717949 
z
" clip-path="url(#p2f59fc84c7)" style="fill: #dfc2c3; stroke: #494949; stroke-width: 0.6"/>
    <path d="M 338.115991 694.717949 
L 341.775882 694.717949 
L 341.775882 690.788555 
L 338.115991 690.788555 
z
" clip-path="url(#p2f59fc84c7)" style="fill: #dab6b7; stroke: #494949; stroke-width: 0.6"/>
    <path d="M 336.286046 690.788555 
L 343.605827 690.788555 
L 343.605827 685.300846 
L 336.286046 685.300846 
z
" clip-path="url(#p2f59fc84c7)" style="fill: #d3a6a8; stroke: #494949; stroke-width: 0.6"/>
    <path d="M 332.626155 685.300846 
L 347.265718 685.300846 
L 347.265718 679.044972 
L 332.626155 679.044972 
z
" clip-path="url(#p2f59fc84c7)" style="fill: #cb9395; stroke: #494949; stroke-width: 0.6"/>
    <path d="M 325.306374 679.044972 
L 354.585499 679.044972 
L 354.585499 671.94294 
L 325.306374 671.94294 
z
" clip-path="url(#p2f59fc84c7)" style="fill: #c27b7d; stroke: #494949; stroke-width: 0.6"/>
    <path d="M 310.666811 671.94294 
L 369.225062 671.94294 
L 369.225062 645.671353 
L 310.666811 645.671353 
z
" clip-path="url(#p2f59fc84c7)" style="fill: #b55d60; stroke: #494949; stroke-width: 0.6"/>
    <path d="M 325.306374 645.671353 
L 354.585499 645.671353 
L 354.585499 629.351422 
L 325.306374 629.351422 
z
" clip-path="url(#p2f59fc84c7)" style="fill: #c27b7d; stroke: #494949; stroke-width: 0.6"/>
    <path d="M 332.626155 629.351422 
L 347.265718 629.351422 
L 347.265718 614.614372 
L 332.626155 614.614372 
z
" clip-path="url(#p2f59fc84c7)" style="fill: #cb9395; stroke: #494949; stroke-width: 0.6"/>
    <path d="M 336.286046 614.614372 
L 343.605827 614.614372 
L 343.605827 596.307789 
L 336.286046 596.307789 
z
" clip-path="url(#p2f59fc84c7)" style="fill: #d3a6a8; stroke: #494949; stroke-width: 0.6"/>
    <path d="M 338.115991 596.307789 
L 341.775882 596.307789 
L 341.775882 578.997043 
L 338.115991 578.997043 
z
" clip-path="url(#p2f59fc84c7)" style="fill: #dab6b7; stroke: #494949; stroke-width: 0.6"/>
    <path d="M 339.030964 578.997043 
L 340.860909 578.997043 
L 340.860909 560.011499 
L 339.030964 560.011499 
z
" clip-path="url(#p2f59fc84c7)" style="fill: #dfc2c3; stroke: #494949; stroke-width: 0.6"/>
    <path d="M 339.48845 560.011499 
L 340.403423 560.011499 
L 340.403423 540.77899 
L 339.48845 540.77899 
z
" clip-path="url(#p2f59fc84c7)" style="fill: #e2cbcc; stroke: #494949; stroke-width: 0.6"/>
    <path d="M 339.717193 540.77899 
L 340.17468 540.77899 
L 340.17468 521.447071 
L 339.717193 521.447071 
z
" clip-path="url(#p2f59fc84c7)" style="fill: #e6d3d4; stroke: #494949; stroke-width: 0.6"/>
    <path d="M 339.831565 521.447071 
L 340.060308 521.447071 
L 340.060308 499.16908 
L 339.831565 499.16908 
z
" clip-path="url(#p2f59fc84c7)" style="fill: #e8d9da; stroke: #494949; stroke-width: 0.6"/>
   </g>
   <g id="PathCollection_4">
    <defs>
     <path id="C3_0_915232ecc6" d="M 0 2.5 
C 0.663008 2.5 1.29895 2.236584 1.767767 1.767767 
C 2.236584 1.29895 2.5 0.663008 2.5 -0 
C 2.5 -0.663008 2.236584 -1.29895 1.767767 -1.767767 
C 1.29895 -2.236584 0.663008 -2.5 0 -2.5 
C -0.663008 -2.5 -1.29895 -2.236584 -1.767767 -1.767767 
C -2.236584 -1.29895 -2.5 -0.663008 -2.5 0 
C -2.5 0.663008 -2.236584 1.29895 -1.767767 1.767767 
C -1.29895 2.236584 -0.663008 2.5 0 2.5 
z
"/>
    </defs>
    <g clip-path="url(#p2f59fc84c7)">
     <use xlink:href="#C3_0_915232ecc6" x="339.945937" y="461.371046" style="fill: none; stroke: #737373; stroke-width: 0.8"/>
    </g>
    <g clip-path="url(#p2f59fc84c7)">
     <use xlink:href="#C3_0_915232ecc6" x="339.945937" y="701.698601" style="fill: none; stroke: #737373; stroke-width: 0.8"/>
    </g>
    <g clip-path="url(#p2f59fc84c7)">
     <use xlink:href="#C3_0_915232ecc6" x="339.945937" y="701.653849" style="fill: none; stroke: #737373; stroke-width: 0.8"/>
    </g>
    <g clip-path="url(#p2f59fc84c7)">
     <use xlink:href="#C3_0_915232ecc6" x="339.945937" y="701.567198" style="fill: none; stroke: #737373; stroke-width: 0.8"/>
    </g>
    <g clip-path="url(#p2f59fc84c7)">
     <use xlink:href="#C3_0_915232ecc6" x="339.945937" y="470.626215" style="fill: none; stroke: #737373; stroke-width: 0.8"/>
    </g>
    <g clip-path="url(#p2f59fc84c7)">
     <use xlink:href="#C3_0_915232ecc6" x="339.945937" y="484.881833" style="fill: none; stroke: #737373; stroke-width: 0.8"/>
    </g>
    <g clip-path="url(#p2f59fc84c7)">
     <use xlink:href="#C3_0_915232ecc6" x="339.945937" y="701.508666" style="fill: none; stroke: #737373; stroke-width: 0.8"/>
    </g>
    <g clip-path="url(#p2f59fc84c7)">
     <use xlink:href="#C3_0_915232ecc6" x="339.945937" y="485.708765" style="fill: none; stroke: #737373; stroke-width: 0.8"/>
    </g>
    <g clip-path="url(#p2f59fc84c7)">
     <use xlink:href="#C3_0_915232ecc6" x="339.945937" y="480.520288" style="fill: none; stroke: #737373; stroke-width: 0.8"/>
    </g>
    <g clip-path="url(#p2f59fc84c7)">
     <use xlink:href="#C3_0_915232ecc6" x="339.945937" y="701.598708" style="fill: none; stroke: #737373; stroke-width: 0.8"/>
    </g>
   </g>
   <g id="PatchCollection_5">
    <path d="M 413.02938 700.902521 
L 413.258123 700.902521 
L 413.258123 700.39809 
L 413.02938 700.39809 
z
" clip-path="url(#p2f59fc84c7)" style="fill: #e0dee6; stroke: #494949; stroke-width: 0.6"/>
    <path d="M 412.915008 700.39809 
L 413.372494 700.39809 
L 413.372494 699.226945 
L 412.915008 699.226945 
z
" clip-path="url(#p2f59fc84c7)" style="fill: #dcd9e3; stroke: #494949; stroke-width: 0.6"/>
    <path d="M 412.686265 699.226945 
L 413.601238 699.226945 
L 413.601238 697.212945 
L 412.686265 697.212945 
z
" clip-path="url(#p2f59fc84c7)" style="fill: #d6d3e0; stroke: #494949; stroke-width: 0.6"/>
    <path d="M 412.228779 697.212945 
L 414.058724 697.212945 
L 414.058724 694.022258 
L 412.228779 694.022258 
z
" clip-path="url(#p2f59fc84c7)" style="fill: #cfcbdb; stroke: #494949; stroke-width: 0.6"/>
    <path d="M 411.313806 694.022258 
L 414.973697 694.022258 
L 414.973697 690.333805 
L 411.313806 690.333805 
z
" clip-path="url(#p2f59fc84c7)" style="fill: #c6c2d5; stroke: #494949; stroke-width: 0.6"/>
    <path d="M 409.483861 690.333805 
L 416.803642 690.333805 
L 416.803642 685.240221 
L 409.483861 685.240221 
z
" clip-path="url(#p2f59fc84c7)" style="fill: #bbb5ce; stroke: #494949; stroke-width: 0.6"/>
    <path d="M 405.82397 685.240221 
L 420.463533 685.240221 
L 420.463533 679.705631 
L 405.82397 679.705631 
z
" clip-path="url(#p2f59fc84c7)" style="fill: #ada6c5; stroke: #494949; stroke-width: 0.6"/>
    <path d="M 398.504188 679.705631 
L 427.783314 679.705631 
L 427.783314 673.152511 
L 398.504188 673.152511 
z
" clip-path="url(#p2f59fc84c7)" style="fill: #9b92b9; stroke: #494949; stroke-width: 0.6"/>
    <path d="M 383.864625 673.152511 
L 442.422877 673.152511 
L 442.422877 648.029352 
L 383.864625 648.029352 
z
" clip-path="url(#p2f59fc84c7)" style="fill: #857aab; stroke: #494949; stroke-width: 0.6"/>
    <path d="M 398.504188 648.029352 
L 427.783314 648.029352 
L 427.783314 632.909911 
L 398.504188 632.909911 
z
" clip-path="url(#p2f59fc84c7)" style="fill: #9b92b9; stroke: #494949; stroke-width: 0.6"/>
    <path d="M 405.82397 632.909911 
L 420.463533 632.909911 
L 420.463533 615.571872 
L 405.82397 615.571872 
z
" clip-path="url(#p2f59fc84c7)" style="fill: #ada6c5; stroke: #494949; stroke-width: 0.6"/>
    <path d="M 409.483861 615.571872 
L 416.803642 615.571872 
L 416.803642 598.167816 
L 409.483861 598.167816 
z
" clip-path="url(#p2f59fc84c7)" style="fill: #bbb5ce; stroke: #494949; stroke-width: 0.6"/>
    <path d="M 411.313806 598.167816 
L 414.973697 598.167816 
L 414.973697 577.605107 
L 411.313806 577.605107 
z
" clip-path="url(#p2f59fc84c7)" style="fill: #c6c2d5; stroke: #494949; stroke-width: 0.6"/>
    <path d="M 412.228779 577.605107 
L 414.058724 577.605107 
L 414.058724 558.930025 
L 412.228779 558.930025 
z
" clip-path="url(#p2f59fc84c7)" style="fill: #cfcbdb; stroke: #494949; stroke-width: 0.6"/>
    <path d="M 412.686265 558.930025 
L 413.601238 558.930025 
L 413.601238 538.242176 
L 412.686265 538.242176 
z
" clip-path="url(#p2f59fc84c7)" style="fill: #d6d3e0; stroke: #494949; stroke-width: 0.6"/>
    <path d="M 412.915008 538.242176 
L 413.372494 538.242176 
L 413.372494 505.901998 
L 412.915008 505.901998 
z
" clip-path="url(#p2f59fc84c7)" style="fill: #dcd9e3; stroke: #494949; stroke-width: 0.6"/>
    <path d="M 413.02938 505.901998 
L 413.258123 505.901998 
L 413.258123 460.844087 
L 413.02938 460.844087 
z
" clip-path="url(#p2f59fc84c7)" style="fill: #e0dee6; stroke: #494949; stroke-width: 0.6"/>
   </g>
   <g id="PathCollection_5">
    <defs>
     <path id="C4_0_eeb44d3699" d="M 0 2.5 
C 0.663008 2.5 1.29895 2.236584 1.767767 1.767767 
C 2.236584 1.29895 2.5 0.663008 2.5 -0 
C 2.5 -0.663008 2.236584 -1.29895 1.767767 -1.767767 
C 1.29895 -2.236584 0.663008 -2.5 0 -2.5 
C -0.663008 -2.5 -1.29895 -2.236584 -1.767767 -1.767767 
C -2.236584 -1.29895 -2.5 -0.663008 -2.5 0 
C -2.5 0.663008 -2.236584 1.29895 -1.767767 1.767767 
C -1.29895 2.236584 -0.663008 2.5 0 2.5 
z
"/>
    </defs>
    <g clip-path="url(#p2f59fc84c7)">
     <use xlink:href="#C4_0_eeb44d3699" x="413.143751" y="457.844779" style="fill: none; stroke: #737373; stroke-width: 0.8"/>
    </g>
    <g clip-path="url(#p2f59fc84c7)">
     <use xlink:href="#C4_0_eeb44d3699" x="413.143751" y="700.992917" style="fill: none; stroke: #737373; stroke-width: 0.8"/>
    </g>
    <g clip-path="url(#p2f59fc84c7)">
     <use xlink:href="#C4_0_eeb44d3699" x="413.143751" y="426.608216" style="fill: none; stroke: #737373; stroke-width: 0.8"/>
    </g>
    <g clip-path="url(#p2f59fc84c7)">
     <use xlink:href="#C4_0_eeb44d3699" x="413.143751" y="445.61196" style="fill: none; stroke: #737373; stroke-width: 0.8"/>
    </g>
    <g clip-path="url(#p2f59fc84c7)">
     <use xlink:href="#C4_0_eeb44d3699" x="413.143751" y="701.727065" style="fill: none; stroke: #737373; stroke-width: 0.8"/>
    </g>
    <g clip-path="url(#p2f59fc84c7)">
     <use xlink:href="#C4_0_eeb44d3699" x="413.143751" y="701.354824" style="fill: none; stroke: #737373; stroke-width: 0.8"/>
    </g>
    <g clip-path="url(#p2f59fc84c7)">
     <use xlink:href="#C4_0_eeb44d3699" x="413.143751" y="429.665019" style="fill: none; stroke: #737373; stroke-width: 0.8"/>
    </g>
    <g clip-path="url(#p2f59fc84c7)">
     <use xlink:href="#C4_0_eeb44d3699" x="413.143751" y="460.174265" style="fill: none; stroke: #737373; stroke-width: 0.8"/>
    </g>
    <g clip-path="url(#p2f59fc84c7)">
     <use xlink:href="#C4_0_eeb44d3699" x="413.143751" y="700.905498" style="fill: none; stroke: #737373; stroke-width: 0.8"/>
    </g>
    <g clip-path="url(#p2f59fc84c7)">
     <use xlink:href="#C4_0_eeb44d3699" x="413.143751" y="701.562155" style="fill: none; stroke: #737373; stroke-width: 0.8"/>
    </g>
   </g>
   <g id="PatchCollection_6">
    <path d="M 486.227195 701.086949 
L 486.455938 701.086949 
L 486.455938 701.02369 
L 486.227195 701.02369 
z
" clip-path="url(#p2f59fc84c7)" style="fill: #e1deda; stroke: #494949; stroke-width: 0.6"/>
    <path d="M 486.112823 701.02369 
L 486.570309 701.02369 
L 486.570309 700.56882 
L 486.112823 700.56882 
z
" clip-path="url(#p2f59fc84c7)" style="fill: #ded9d5; stroke: #494949; stroke-width: 0.6"/>
    <path d="M 485.88408 700.56882 
L 486.799052 700.56882 
L 486.799052 699.264882 
L 485.88408 699.264882 
z
" clip-path="url(#p2f59fc84c7)" style="fill: #d8d2cd; stroke: #494949; stroke-width: 0.6"/>
    <path d="M 485.426593 699.264882 
L 487.256539 699.264882 
L 487.256539 696.790743 
L 485.426593 696.790743 
z
" clip-path="url(#p2f59fc84c7)" style="fill: #d2cbc5; stroke: #494949; stroke-width: 0.6"/>
    <path d="M 484.511621 696.790743 
L 488.171511 696.790743 
L 488.171511 693.984586 
L 484.511621 693.984586 
z
" clip-path="url(#p2f59fc84c7)" style="fill: #c9c1b9; stroke: #494949; stroke-width: 0.6"/>
    <path d="M 482.681675 693.984586 
L 490.001457 693.984586 
L 490.001457 689.342913 
L 482.681675 689.342913 
z
" clip-path="url(#p2f59fc84c7)" style="fill: #bfb4ab; stroke: #494949; stroke-width: 0.6"/>
    <path d="M 479.021785 689.342913 
L 493.661348 689.342913 
L 493.661348 682.964039 
L 479.021785 682.964039 
z
" clip-path="url(#p2f59fc84c7)" style="fill: #b2a599; stroke: #494949; stroke-width: 0.6"/>
    <path d="M 471.702003 682.964039 
L 500.981129 682.964039 
L 500.981129 674.892981 
L 471.702003 674.892981 
z
" clip-path="url(#p2f59fc84c7)" style="fill: #a19182; stroke: #494949; stroke-width: 0.6"/>
    <path d="M 457.06244 674.892981 
L 515.620692 674.892981 
L 515.620692 647.875849 
L 457.06244 647.875849 
z
" clip-path="url(#p2f59fc84c7)" style="fill: #8d7866; stroke: #494949; stroke-width: 0.6"/>
    <path d="M 471.702003 647.875849 
L 500.981129 647.875849 
L 500.981129 630.238865 
L 471.702003 630.238865 
z
" clip-path="url(#p2f59fc84c7)" style="fill: #a19182; stroke: #494949; stroke-width: 0.6"/>
    <path d="M 479.021785 630.238865 
L 493.661348 630.238865 
L 493.661348 612.053627 
L 479.021785 612.053627 
z
" clip-path="url(#p2f59fc84c7)" style="fill: #b2a599; stroke: #494949; stroke-width: 0.6"/>
    <path d="M 482.681675 612.053627 
L 490.001457 612.053627 
L 490.001457 595.639045 
L 482.681675 595.639045 
z
" clip-path="url(#p2f59fc84c7)" style="fill: #bfb4ab; stroke: #494949; stroke-width: 0.6"/>
    <path d="M 484.511621 595.639045 
L 488.171511 595.639045 
L 488.171511 575.295913 
L 484.511621 575.295913 
z
" clip-path="url(#p2f59fc84c7)" style="fill: #c9c1b9; stroke: #494949; stroke-width: 0.6"/>
    <path d="M 485.426593 575.295913 
L 487.256539 575.295913 
L 487.256539 552.311914 
L 485.426593 552.311914 
z
" clip-path="url(#p2f59fc84c7)" style="fill: #d2cbc5; stroke: #494949; stroke-width: 0.6"/>
    <path d="M 485.88408 552.311914 
L 486.799052 552.311914 
L 486.799052 535.529287 
L 485.88408 535.529287 
z
" clip-path="url(#p2f59fc84c7)" style="fill: #d8d2cd; stroke: #494949; stroke-width: 0.6"/>
    <path d="M 486.112823 535.529287 
L 486.570309 535.529287 
L 486.570309 511.04322 
L 486.112823 511.04322 
z
" clip-path="url(#p2f59fc84c7)" style="fill: #ded9d5; stroke: #494949; stroke-width: 0.6"/>
    <path d="M 486.227195 511.04322 
L 486.455938 511.04322 
L 486.455938 494.192668 
L 486.227195 494.192668 
z
" clip-path="url(#p2f59fc84c7)" style="fill: #e1deda; stroke: #494949; stroke-width: 0.6"/>
   </g>
   <g id="PathCollection_6">
    <defs>
     <path id="C5_0_64feda58d7" d="M 0 2.5 
C 0.663008 2.5 1.29895 2.236584 1.767767 1.767767 
C 2.236584 1.29895 2.5 0.663008 2.5 -0 
C 2.5 -0.663008 2.236584 -1.29895 1.767767 -1.767767 
C 1.29895 -2.236584 0.663008 -2.5 0 -2.5 
C -0.663008 -2.5 -1.29895 -2.236584 -1.767767 -1.767767 
C -2.236584 -1.29895 -2.5 -0.663008 -2.5 0 
C -2.5 0.663008 -2.236584 1.29895 -1.767767 1.767767 
C -1.29895 2.236584 -0.663008 2.5 0 2.5 
z
"/>
    </defs>
    <g clip-path="url(#p2f59fc84c7)">
     <use xlink:href="#C5_0_64feda58d7" x="486.341566" y="701.614462" style="fill: none; stroke: #737373; stroke-width: 0.8"/>
    </g>
    <g clip-path="url(#p2f59fc84c7)">
     <use xlink:href="#C5_0_64feda58d7" x="486.341566" y="470.949367" style="fill: none; stroke: #737373; stroke-width: 0.8"/>
    </g>
    <g clip-path="url(#p2f59fc84c7)">
     <use xlink:href="#C5_0_64feda58d7" x="486.341566" y="701.598661" style="fill: none; stroke: #737373; stroke-width: 0.8"/>
    </g>
    <g clip-path="url(#p2f59fc84c7)">
     <use xlink:href="#C5_0_64feda58d7" x="486.341566" y="494.183344" style="fill: none; stroke: #737373; stroke-width: 0.8"/>
    </g>
    <g clip-path="url(#p2f59fc84c7)">
     <use xlink:href="#C5_0_64feda58d7" x="486.341566" y="479.154802" style="fill: none; stroke: #737373; stroke-width: 0.8"/>
    </g>
    <g clip-path="url(#p2f59fc84c7)">
     <use xlink:href="#C5_0_64feda58d7" x="486.341566" y="701.653849" style="fill: none; stroke: #737373; stroke-width: 0.8"/>
    </g>
    <g clip-path="url(#p2f59fc84c7)">
     <use xlink:href="#C5_0_64feda58d7" x="486.341566" y="701.166397" style="fill: none; stroke: #737373; stroke-width: 0.8"/>
    </g>
    <g clip-path="url(#p2f59fc84c7)">
     <use xlink:href="#C5_0_64feda58d7" x="486.341566" y="480.076114" style="fill: none; stroke: #737373; stroke-width: 0.8"/>
    </g>
    <g clip-path="url(#p2f59fc84c7)">
     <use xlink:href="#C5_0_64feda58d7" x="486.341566" y="420.920667" style="fill: none; stroke: #737373; stroke-width: 0.8"/>
    </g>
    <g clip-path="url(#p2f59fc84c7)">
     <use xlink:href="#C5_0_64feda58d7" x="486.341566" y="701.08695" style="fill: none; stroke: #737373; stroke-width: 0.8"/>
    </g>
   </g>
   <g id="line2d_10">
    <path d="M 91.073366 664.373851 
L 149.631618 664.373851 
" clip-path="url(#p2f59fc84c7)" style="fill: none; stroke: #494949; stroke-width: 0.75"/>
   </g>
   <g id="line2d_11">
    <path d="M 164.271181 666.681508 
L 222.829433 666.681508 
" clip-path="url(#p2f59fc84c7)" style="fill: none; stroke: #494949; stroke-width: 0.75"/>
   </g>
   <g id="line2d_12">
    <path d="M 237.468996 662.238726 
L 296.027248 662.238726 
" clip-path="url(#p2f59fc84c7)" style="fill: none; stroke: #494949; stroke-width: 0.75"/>
   </g>
   <g id="line2d_13">
    <path d="M 310.666811 660.777243 
L 369.225062 660.777243 
" clip-path="url(#p2f59fc84c7)" style="fill: none; stroke: #494949; stroke-width: 0.75"/>
   </g>
   <g id="line2d_14">
    <path d="M 383.864625 662.657213 
L 442.422877 662.657213 
" clip-path="url(#p2f59fc84c7)" style="fill: none; stroke: #494949; stroke-width: 0.75"/>
   </g>
   <g id="line2d_15">
    <path d="M 457.06244 663.364049 
L 515.620692 663.364049 
" clip-path="url(#p2f59fc84c7)" style="fill: none; stroke: #494949; stroke-width: 0.75"/>
   </g>
   <g id="line2d_16">
    <path d="M 120.352492 358.289089 
L 120.352492 351.200648 
L 193.550307 351.200648 
L 193.550307 358.289089 
" style="fill: none; stroke: #333333; stroke-width: 1.5; stroke-linecap: round"/>
   </g>
   <g id="line2d_17">
    <path d="M 193.550307 333.221864 
L 193.550307 326.133423 
L 266.748122 326.133423 
L 266.748122 333.221864 
" style="fill: none; stroke: #333333; stroke-width: 1.5; stroke-linecap: round"/>
   </g>
   <g id="line2d_18">
    <path d="M 266.748122 308.154639 
L 266.748122 301.066198 
L 339.945937 301.066198 
L 339.945937 308.154639 
" style="fill: none; stroke: #333333; stroke-width: 1.5; stroke-linecap: round"/>
   </g>
   <g id="line2d_19">
    <path d="M 339.945937 283.087414 
L 339.945937 275.998974 
L 413.143751 275.998974 
L 413.143751 283.087414 
" style="fill: none; stroke: #333333; stroke-width: 1.5; stroke-linecap: round"/>
   </g>
   <g id="line2d_20">
    <path d="M 120.352492 283.087414 
L 120.352492 275.998974 
L 266.748122 275.998974 
L 266.748122 283.087414 
" style="fill: none; stroke: #333333; stroke-width: 1.5; stroke-linecap: round"/>
   </g>
   <g id="line2d_21">
    <path d="M 193.550307 258.020189 
L 193.550307 250.931749 
L 339.945937 250.931749 
L 339.945937 258.020189 
" style="fill: none; stroke: #333333; stroke-width: 1.5; stroke-linecap: round"/>
   </g>
   <g id="line2d_22">
    <path d="M 339.945937 232.952964 
L 339.945937 225.864524 
L 486.341566 225.864524 
L 486.341566 232.952964 
" style="fill: none; stroke: #333333; stroke-width: 1.5; stroke-linecap: round"/>
   </g>
   <g id="line2d_23">
    <path d="M 120.352492 207.88574 
L 120.352492 200.797299 
L 339.945937 200.797299 
L 339.945937 207.88574 
" style="fill: none; stroke: #333333; stroke-width: 1.5; stroke-linecap: round"/>
   </g>
   <g id="line2d_24">
    <path d="M 193.550307 182.818515 
L 193.550307 175.730074 
L 413.143751 175.730074 
L 413.143751 182.818515 
" style="fill: none; stroke: #333333; stroke-width: 1.5; stroke-linecap: round"/>
   </g>
   <g id="line2d_25">
    <path d="M 266.748122 157.75129 
L 266.748122 150.662849 
L 486.341566 150.662849 
L 486.341566 157.75129 
" style="fill: none; stroke: #333333; stroke-width: 1.5; stroke-linecap: round"/>
   </g>
   <g id="line2d_26">
    <path d="M 120.352492 132.684065 
L 120.352492 125.595624 
L 413.143751 125.595624 
L 413.143751 132.684065 
" style="fill: none; stroke: #333333; stroke-width: 1.5; stroke-linecap: round"/>
   </g>
   <g id="line2d_27">
    <path d="M 193.550307 107.61684 
L 193.550307 100.5284 
L 486.341566 100.5284 
L 486.341566 107.61684 
" style="fill: none; stroke: #333333; stroke-width: 1.5; stroke-linecap: round"/>
   </g>
   <g id="line2d_28">
    <path d="M 120.352492 82.549615 
L 120.352492 75.461175 
L 486.341566 75.461175 
L 486.341566 82.549615 
" style="fill: none; stroke: #333333; stroke-width: 1.5; stroke-linecap: round"/>
   </g>
   <g id="patch_3">
    <path d="M 69.846 717.866348 
L 69.846 40.416 
" style="fill: none; stroke: #cccccc; stroke-linejoin: miter; stroke-linecap: square"/>
   </g>
   <g id="patch_4">
    <path d="M 536.848058 717.866348 
L 536.848058 40.416 
" style="fill: none; stroke: #cccccc; stroke-linejoin: miter; stroke-linecap: square"/>
   </g>
   <g id="patch_5">
    <path d="M 69.846 717.866348 
L 536.848058 717.866348 
" style="fill: none; stroke: #cccccc; stroke-linejoin: miter; stroke-linecap: square"/>
   </g>
   <g id="patch_6">
    <path d="M 69.846 40.416 
L 536.848058 40.416 
" style="fill: none; stroke: #cccccc; stroke-linejoin: miter; stroke-linecap: square"/>
   </g>
   <g id="text_18">
    <!-- *** -->
    <g style="fill: #262626" transform="translate(145.7419 346.384648) scale(0.192 -0.192)">
     <defs>
      <path id="ArialMT-2a" d="M 200 3741 
L 344 4184 
Q 841 4009 1066 3881 
Q 1006 4447 1003 4659 
L 1456 4659 
Q 1447 4350 1384 3884 
Q 1706 4047 2122 4184 
L 2266 3741 
Q 1869 3609 1488 3566 
Q 1678 3400 2025 2975 
L 1650 2709 
Q 1469 2956 1222 3381 
Q 991 2941 816 2709 
L 447 2975 
Q 809 3422 966 3566 
Q 563 3644 200 3741 
z
" transform="scale(0.015625)"/>
     </defs>
     <use xlink:href="#ArialMT-2a"/>
     <use xlink:href="#ArialMT-2a" transform="translate(38.916016 0)"/>
     <use xlink:href="#ArialMT-2a" transform="translate(77.832031 0)"/>
    </g>
   </g>
   <g id="text_19">
    <!-- **** -->
    <g style="fill: #262626" transform="translate(215.203214 321.317423) scale(0.192 -0.192)">
     <use xlink:href="#ArialMT-2a"/>
     <use xlink:href="#ArialMT-2a" transform="translate(38.916016 0)"/>
     <use xlink:href="#ArialMT-2a" transform="translate(77.832031 0)"/>
     <use xlink:href="#ArialMT-2a" transform="translate(116.748047 0)"/>
    </g>
   </g>
   <g id="text_20">
    <!-- *** -->
    <g style="fill: #262626" transform="translate(292.137529 296.250198) scale(0.192 -0.192)">
     <use xlink:href="#ArialMT-2a"/>
     <use xlink:href="#ArialMT-2a" transform="translate(38.916016 0)"/>
     <use xlink:href="#ArialMT-2a" transform="translate(77.832031 0)"/>
    </g>
   </g>
   <g id="text_21">
    <!-- *** -->
    <g style="fill: #262626" transform="translate(365.335344 271.182974) scale(0.192 -0.192)">
     <use xlink:href="#ArialMT-2a"/>
     <use xlink:href="#ArialMT-2a" transform="translate(38.916016 0)"/>
     <use xlink:href="#ArialMT-2a" transform="translate(77.832031 0)"/>
    </g>
   </g>
   <g id="text_22">
    <!-- **** -->
    <g style="fill: #262626" transform="translate(178.604307 271.182974) scale(0.192 -0.192)">
     <use xlink:href="#ArialMT-2a"/>
     <use xlink:href="#ArialMT-2a" transform="translate(38.916016 0)"/>
     <use xlink:href="#ArialMT-2a" transform="translate(77.832031 0)"/>
     <use xlink:href="#ArialMT-2a" transform="translate(116.748047 0)"/>
    </g>
   </g>
   <g id="text_23">
    <!-- **** -->
    <g style="fill: #262626" transform="translate(251.802122 246.115749) scale(0.192 -0.192)">
     <use xlink:href="#ArialMT-2a"/>
     <use xlink:href="#ArialMT-2a" transform="translate(38.916016 0)"/>
     <use xlink:href="#ArialMT-2a" transform="translate(77.832031 0)"/>
     <use xlink:href="#ArialMT-2a" transform="translate(116.748047 0)"/>
    </g>
   </g>
   <g id="text_24">
    <!-- **** -->
    <g style="fill: #262626" transform="translate(398.197751 221.048524) scale(0.192 -0.192)">
     <use xlink:href="#ArialMT-2a"/>
     <use xlink:href="#ArialMT-2a" transform="translate(38.916016 0)"/>
     <use xlink:href="#ArialMT-2a" transform="translate(77.832031 0)"/>
     <use xlink:href="#ArialMT-2a" transform="translate(116.748047 0)"/>
    </g>
   </g>
   <g id="text_25">
    <!-- **** -->
    <g style="fill: #262626" transform="translate(215.203214 195.981299) scale(0.192 -0.192)">
     <use xlink:href="#ArialMT-2a"/>
     <use xlink:href="#ArialMT-2a" transform="translate(38.916016 0)"/>
     <use xlink:href="#ArialMT-2a" transform="translate(77.832031 0)"/>
     <use xlink:href="#ArialMT-2a" transform="translate(116.748047 0)"/>
    </g>
   </g>
   <g id="text_26">
    <!-- **** -->
    <g style="fill: #262626" transform="translate(288.401029 170.914074) scale(0.192 -0.192)">
     <use xlink:href="#ArialMT-2a"/>
     <use xlink:href="#ArialMT-2a" transform="translate(38.916016 0)"/>
     <use xlink:href="#ArialMT-2a" transform="translate(77.832031 0)"/>
     <use xlink:href="#ArialMT-2a" transform="translate(116.748047 0)"/>
    </g>
   </g>
   <g id="text_27">
    <!-- * -->
    <g style="fill: #262626" transform="translate(372.808344 145.846849) scale(0.192 -0.192)">
     <use xlink:href="#ArialMT-2a"/>
    </g>
   </g>
   <g id="text_28">
    <!-- **** -->
    <g style="fill: #262626" transform="translate(251.802122 120.779624) scale(0.192 -0.192)">
     <use xlink:href="#ArialMT-2a"/>
     <use xlink:href="#ArialMT-2a" transform="translate(38.916016 0)"/>
     <use xlink:href="#ArialMT-2a" transform="translate(77.832031 0)"/>
     <use xlink:href="#ArialMT-2a" transform="translate(116.748047 0)"/>
    </g>
   </g>
   <g id="text_29">
    <!-- **** -->
    <g style="fill: #262626" transform="translate(324.999937 95.7124) scale(0.192 -0.192)">
     <use xlink:href="#ArialMT-2a"/>
     <use xlink:href="#ArialMT-2a" transform="translate(38.916016 0)"/>
     <use xlink:href="#ArialMT-2a" transform="translate(77.832031 0)"/>
     <use xlink:href="#ArialMT-2a" transform="translate(116.748047 0)"/>
    </g>
   </g>
   <g id="text_30">
    <!-- * -->
    <g style="fill: #262626" transform="translate(299.610529 70.645175) scale(0.192 -0.192)">
     <use xlink:href="#ArialMT-2a"/>
    </g>
   </g>
   <g id="text_31">
    <!-- Ranked Novelty Error per Fold per Target -->
    <g style="fill: #262626" transform="translate(127.989529 34.416) scale(0.192 -0.192)">
     <defs>
      <path id="ArialMT-6b" d="M 425 0 
L 425 4581 
L 988 4581 
L 988 1969 
L 2319 3319 
L 3047 3319 
L 1778 2088 
L 3175 0 
L 2481 0 
L 1384 1697 
L 988 1316 
L 988 0 
L 425 0 
z
" transform="scale(0.015625)"/>
      <path id="ArialMT-20" transform="scale(0.015625)"/>
      <path id="ArialMT-4e" d="M 488 0 
L 488 4581 
L 1109 4581 
L 3516 984 
L 3516 4581 
L 4097 4581 
L 4097 0 
L 3475 0 
L 1069 3600 
L 1069 0 
L 488 0 
z
" transform="scale(0.015625)"/>
      <path id="ArialMT-54" d="M 1659 0 
L 1659 4041 
L 150 4041 
L 150 4581 
L 3781 4581 
L 3781 4041 
L 2266 4041 
L 2266 0 
L 1659 0 
z
" transform="scale(0.015625)"/>
     </defs>
     <use xlink:href="#ArialMT-52"/>
     <use xlink:href="#ArialMT-61" transform="translate(72.216797 0)"/>
     <use xlink:href="#ArialMT-6e" transform="translate(127.832031 0)"/>
     <use xlink:href="#ArialMT-6b" transform="translate(183.447266 0)"/>
     <use xlink:href="#ArialMT-65" transform="translate(233.447266 0)"/>
     <use xlink:href="#ArialMT-64" transform="translate(289.0625 0)"/>
     <use xlink:href="#ArialMT-20" transform="translate(344.677734 0)"/>
     <use xlink:href="#ArialMT-4e" transform="translate(372.460938 0)"/>
     <use xlink:href="#ArialMT-6f" transform="translate(444.677734 0)"/>
     <use xlink:href="#ArialMT-76" transform="translate(500.292969 0)"/>
     <use xlink:href="#ArialMT-65" transform="translate(550.292969 0)"/>
     <use xlink:href="#ArialMT-6c" transform="translate(605.908203 0)"/>
     <use xlink:href="#ArialMT-74" transform="translate(628.125 0)"/>
     <use xlink:href="#ArialMT-79" transform="translate(655.908203 0)"/>
     <use xlink:href="#ArialMT-20" transform="translate(705.908203 0)"/>
     <use xlink:href="#ArialMT-45" transform="translate(733.691406 0)"/>
     <use xlink:href="#ArialMT-72" transform="translate(800.390625 0)"/>
     <use xlink:href="#ArialMT-72" transform="translate(833.691406 0)"/>
     <use xlink:href="#ArialMT-6f" transform="translate(866.992188 0)"/>
     <use xlink:href="#ArialMT-72" transform="translate(922.607422 0)"/>
     <use xlink:href="#ArialMT-20" transform="translate(955.908203 0)"/>
     <use xlink:href="#ArialMT-70" transform="translate(983.691406 0)"/>
     <use xlink:href="#ArialMT-65" transform="translate(1039.306641 0)"/>
     <use xlink:href="#ArialMT-72" transform="translate(1094.921875 0)"/>
     <use xlink:href="#ArialMT-20" transform="translate(1128.222656 0)"/>
     <use xlink:href="#ArialMT-46" transform="translate(1156.005859 0)"/>
     <use xlink:href="#ArialMT-6f" transform="translate(1217.089844 0)"/>
     <use xlink:href="#ArialMT-6c" transform="translate(1272.705078 0)"/>
     <use xlink:href="#ArialMT-64" transform="translate(1294.921875 0)"/>
     <use xlink:href="#ArialMT-20" transform="translate(1350.537109 0)"/>
     <use xlink:href="#ArialMT-70" transform="translate(1378.320312 0)"/>
     <use xlink:href="#ArialMT-65" transform="translate(1433.935547 0)"/>
     <use xlink:href="#ArialMT-72" transform="translate(1489.550781 0)"/>
     <use xlink:href="#ArialMT-20" transform="translate(1522.851562 0)"/>
     <use xlink:href="#ArialMT-54" transform="translate(1548.884766 0)"/>
     <use xlink:href="#ArialMT-61" transform="translate(1598.84375 0)"/>
     <use xlink:href="#ArialMT-72" transform="translate(1654.458984 0)"/>
     <use xlink:href="#ArialMT-67" transform="translate(1687.759766 0)"/>
     <use xlink:href="#ArialMT-65" transform="translate(1743.375 0)"/>
     <use xlink:href="#ArialMT-74" transform="translate(1798.990234 0)"/>
    </g>
   </g>
  </g>
 </g>
 <defs>
  <clipPath id="p2f59fc84c7">
   <rect x="69.846" y="40.416" width="467.002058" height="677.450348"/>
  </clipPath>
 </defs>
</svg>
