<?xml version="1.0" encoding="utf-8" standalone="no"?>
<!DOCTYPE svg PUBLIC "-//W3C//DTD SVG 1.1//EN"
        "http://www.w3.org/Graphics/SVG/1.1/DTD/svg11.dtd">
<svg xmlns:xlink="http://www.w3.org/1999/xlink" width="720pt" height="864pt" viewBox="0 0 720 864"
     xmlns="http://www.w3.org/2000/svg" version="1.1">
    <metadata>
        <rdf:RDF xmlns:dc="http://purl.org/dc/elements/1.1/" xmlns:cc="http://creativecommons.org/ns#"
                 xmlns:rdf="http://www.w3.org/1999/02/22-rdf-syntax-ns#">
            <cc:Work>
                <dc:type rdf:resource="http://purl.org/dc/dcmitype/StillImage"/>
                <dc:date>2025-02-23T00:14:22.105116</dc:date>
                <dc:format>image/svg+xml</dc:format>
                <dc:creator>
                    <cc:Agent>
                        <dc:title>Matplotlib v3.10.0, https://matplotlib.org/</dc:title>
                    </cc:Agent>
                </dc:creator>
            </cc:Work>
        </rdf:RDF>
    </metadata>
    <defs>
        <style type="text/css">*{stroke-linejoin: round; stroke-linecap: butt}</style>
    </defs>
    <g id="figure_1">
        <g id="patch_1">
            <path d="M 0 864
L 720 864 
L 720 0 
L 0 0 
z
" style="fill: #ffffff"/>
        </g>
        <g id="axes_1">
            <g id="patch_2">
                <path d="M 70.86 654.580631
L 698.676378 654.580631 
L 698.676378 38.4 
L 70.86 38.4 
z
" style="fill: #ffffff"/>
            </g>
            <g id="matplotlib.axis_1">
                <g id="xtick_1">
                    <g id="text_1">
                        <!-- RandomSplit -->
                        <g style="fill: #262626"
                           transform="translate(108.449278 742.367284) rotate(-45) scale(0.165 -0.165)">
                            <defs>
                                <path id="ArialMT-52" d="M 503 0
L 503 4581 
L 2534 4581 
Q 3147 4581 3465 4457 
Q 3784 4334 3975 4021 
Q 4166 3709 4166 3331 
Q 4166 2844 3850 2509 
Q 3534 2175 2875 2084 
Q 3116 1969 3241 1856 
Q 3506 1613 3744 1247 
L 4541 0 
L 3778 0 
L 3172 953 
Q 2906 1366 2734 1584 
Q 2563 1803 2427 1890 
Q 2291 1978 2150 2013 
Q 2047 2034 1813 2034 
L 1109 2034 
L 1109 0 
L 503 0 
z
M 1109 2559 
L 2413 2559 
Q 2828 2559 3062 2645 
Q 3297 2731 3419 2920 
Q 3541 3109 3541 3331 
Q 3541 3656 3305 3865 
Q 3069 4075 2559 4075 
L 1109 4075 
L 1109 2559 
z
" transform="scale(0.015625)"/>
                                <path id="ArialMT-61" d="M 2588 409
Q 2275 144 1986 34 
Q 1697 -75 1366 -75 
Q 819 -75 525 192 
Q 231 459 231 875 
Q 231 1119 342 1320 
Q 453 1522 633 1644 
Q 813 1766 1038 1828 
Q 1203 1872 1538 1913 
Q 2219 1994 2541 2106 
Q 2544 2222 2544 2253 
Q 2544 2597 2384 2738 
Q 2169 2928 1744 2928 
Q 1347 2928 1158 2789 
Q 969 2650 878 2297 
L 328 2372 
Q 403 2725 575 2942 
Q 747 3159 1072 3276 
Q 1397 3394 1825 3394 
Q 2250 3394 2515 3294 
Q 2781 3194 2906 3042 
Q 3031 2891 3081 2659 
Q 3109 2516 3109 2141 
L 3109 1391 
Q 3109 606 3145 398 
Q 3181 191 3288 0 
L 2700 0 
Q 2613 175 2588 409 
z
M 2541 1666 
Q 2234 1541 1622 1453 
Q 1275 1403 1131 1340 
Q 988 1278 909 1158 
Q 831 1038 831 891 
Q 831 666 1001 516 
Q 1172 366 1500 366 
Q 1825 366 2078 508 
Q 2331 650 2450 897 
Q 2541 1088 2541 1459 
L 2541 1666 
z
" transform="scale(0.015625)"/>
                                <path id="ArialMT-6e" d="M 422 0
L 422 3319 
L 928 3319 
L 928 2847 
Q 1294 3394 1984 3394 
Q 2284 3394 2536 3286 
Q 2788 3178 2913 3003 
Q 3038 2828 3088 2588 
Q 3119 2431 3119 2041 
L 3119 0 
L 2556 0 
L 2556 2019 
Q 2556 2363 2490 2533 
Q 2425 2703 2258 2804 
Q 2091 2906 1866 2906 
Q 1506 2906 1245 2678 
Q 984 2450 984 1813 
L 984 0 
L 422 0 
z
" transform="scale(0.015625)"/>
                                <path id="ArialMT-64" d="M 2575 0
L 2575 419 
Q 2259 -75 1647 -75 
Q 1250 -75 917 144 
Q 584 363 401 755 
Q 219 1147 219 1656 
Q 219 2153 384 2558 
Q 550 2963 881 3178 
Q 1213 3394 1622 3394 
Q 1922 3394 2156 3267 
Q 2391 3141 2538 2938 
L 2538 4581 
L 3097 4581 
L 3097 0 
L 2575 0 
z
M 797 1656 
Q 797 1019 1065 703 
Q 1334 388 1700 388 
Q 2069 388 2326 689 
Q 2584 991 2584 1609 
Q 2584 2291 2321 2609 
Q 2059 2928 1675 2928 
Q 1300 2928 1048 2622 
Q 797 2316 797 1656 
z
" transform="scale(0.015625)"/>
                                <path id="ArialMT-6f" d="M 213 1659
Q 213 2581 725 3025 
Q 1153 3394 1769 3394 
Q 2453 3394 2887 2945 
Q 3322 2497 3322 1706 
Q 3322 1066 3130 698 
Q 2938 331 2570 128 
Q 2203 -75 1769 -75 
Q 1072 -75 642 372 
Q 213 819 213 1659 
z
M 791 1659 
Q 791 1022 1069 705 
Q 1347 388 1769 388 
Q 2188 388 2466 706 
Q 2744 1025 2744 1678 
Q 2744 2294 2464 2611 
Q 2184 2928 1769 2928 
Q 1347 2928 1069 2612 
Q 791 2297 791 1659 
z
" transform="scale(0.015625)"/>
                                <path id="ArialMT-6d" d="M 422 0
L 422 3319 
L 925 3319 
L 925 2853 
Q 1081 3097 1340 3245 
Q 1600 3394 1931 3394 
Q 2300 3394 2536 3241 
Q 2772 3088 2869 2813 
Q 3263 3394 3894 3394 
Q 4388 3394 4653 3120 
Q 4919 2847 4919 2278 
L 4919 0 
L 4359 0 
L 4359 2091 
Q 4359 2428 4304 2576 
Q 4250 2725 4106 2815 
Q 3963 2906 3769 2906 
Q 3419 2906 3187 2673 
Q 2956 2441 2956 1928 
L 2956 0 
L 2394 0 
L 2394 2156 
Q 2394 2531 2256 2718 
Q 2119 2906 1806 2906 
Q 1569 2906 1367 2781 
Q 1166 2656 1075 2415 
Q 984 2175 984 1722 
L 984 0 
L 422 0 
z
" transform="scale(0.015625)"/>
                                <path id="ArialMT-53" d="M 288 1472
L 859 1522 
Q 900 1178 1048 958 
Q 1197 738 1509 602 
Q 1822 466 2213 466 
Q 2559 466 2825 569 
Q 3091 672 3220 851 
Q 3350 1031 3350 1244 
Q 3350 1459 3225 1620 
Q 3100 1781 2813 1891 
Q 2628 1963 1997 2114 
Q 1366 2266 1113 2400 
Q 784 2572 623 2826 
Q 463 3081 463 3397 
Q 463 3744 659 4045 
Q 856 4347 1234 4503 
Q 1613 4659 2075 4659 
Q 2584 4659 2973 4495 
Q 3363 4331 3572 4012 
Q 3781 3694 3797 3291 
L 3216 3247 
Q 3169 3681 2898 3903 
Q 2628 4125 2100 4125 
Q 1550 4125 1298 3923 
Q 1047 3722 1047 3438 
Q 1047 3191 1225 3031 
Q 1400 2872 2139 2705 
Q 2878 2538 3153 2413 
Q 3553 2228 3743 1945 
Q 3934 1663 3934 1294 
Q 3934 928 3725 604 
Q 3516 281 3123 101 
Q 2731 -78 2241 -78 
Q 1619 -78 1198 103 
Q 778 284 539 648 
Q 300 1013 288 1472 
z
" transform="scale(0.015625)"/>
                                <path id="ArialMT-70" d="M 422 -1272
L 422 3319 
L 934 3319 
L 934 2888 
Q 1116 3141 1344 3267 
Q 1572 3394 1897 3394 
Q 2322 3394 2647 3175 
Q 2972 2956 3137 2557 
Q 3303 2159 3303 1684 
Q 3303 1175 3120 767 
Q 2938 359 2589 142 
Q 2241 -75 1856 -75 
Q 1575 -75 1351 44 
Q 1128 163 984 344 
L 984 -1272 
L 422 -1272 
z
M 931 1641 
Q 931 1000 1190 694 
Q 1450 388 1819 388 
Q 2194 388 2461 705 
Q 2728 1022 2728 1688 
Q 2728 2322 2467 2637 
Q 2206 2953 1844 2953 
Q 1484 2953 1207 2617 
Q 931 2281 931 1641 
z
" transform="scale(0.015625)"/>
                                <path id="ArialMT-6c" d="M 409 0
L 409 4581 
L 972 4581 
L 972 0 
L 409 0 
z
" transform="scale(0.015625)"/>
                                <path id="ArialMT-69" d="M 425 3934
L 425 4581 
L 988 4581 
L 988 3934 
L 425 3934 
z
M 425 0 
L 425 3319 
L 988 3319 
L 988 0 
L 425 0 
z
" transform="scale(0.015625)"/>
                                <path id="ArialMT-74" d="M 1650 503
L 1731 6 
Q 1494 -44 1306 -44 
Q 1000 -44 831 53 
Q 663 150 594 308 
Q 525 466 525 972 
L 525 2881 
L 113 2881 
L 113 3319 
L 525 3319 
L 525 4141 
L 1084 4478 
L 1084 3319 
L 1650 3319 
L 1650 2881 
L 1084 2881 
L 1084 941 
Q 1084 700 1114 631 
Q 1144 563 1211 522 
Q 1278 481 1403 481 
Q 1497 481 1650 503 
z
" transform="scale(0.015625)"/>
                            </defs>
                            <use xlink:href="#ArialMT-52"/>
                            <use xlink:href="#ArialMT-61" transform="translate(72.216797 0)"/>
                            <use xlink:href="#ArialMT-6e" transform="translate(127.832031 0)"/>
                            <use xlink:href="#ArialMT-64" transform="translate(183.447266 0)"/>
                            <use xlink:href="#ArialMT-6f" transform="translate(239.0625 0)"/>
                            <use xlink:href="#ArialMT-6d" transform="translate(294.677734 0)"/>
                            <use xlink:href="#ArialMT-53" transform="translate(377.978516 0)"/>
                            <use xlink:href="#ArialMT-70" transform="translate(444.677734 0)"/>
                            <use xlink:href="#ArialMT-6c" transform="translate(500.292969 0)"/>
                            <use xlink:href="#ArialMT-69" transform="translate(522.509766 0)"/>
                            <use xlink:href="#ArialMT-74" transform="translate(544.726562 0)"/>
                        </g>
                    </g>
                </g>
                <g id="xtick_2">
                    <g id="text_2">
                        <!-- ScaffoldSplit -->
                        <g style="fill: #262626"
                           transform="translate(207.92594 740.221602) rotate(-45) scale(0.165 -0.165)">
                            <defs>
                                <path id="ArialMT-63" d="M 2588 1216
L 3141 1144 
Q 3050 572 2676 248 
Q 2303 -75 1759 -75 
Q 1078 -75 664 370 
Q 250 816 250 1647 
Q 250 2184 428 2587 
Q 606 2991 970 3192 
Q 1334 3394 1763 3394 
Q 2303 3394 2647 3120 
Q 2991 2847 3088 2344 
L 2541 2259 
Q 2463 2594 2264 2762 
Q 2066 2931 1784 2931 
Q 1359 2931 1093 2626 
Q 828 2322 828 1663 
Q 828 994 1084 691 
Q 1341 388 1753 388 
Q 2084 388 2306 591 
Q 2528 794 2588 1216 
z
" transform="scale(0.015625)"/>
                                <path id="ArialMT-66" d="M 556 0
L 556 2881 
L 59 2881 
L 59 3319 
L 556 3319 
L 556 3672 
Q 556 4006 616 4169 
Q 697 4388 901 4523 
Q 1106 4659 1475 4659 
Q 1713 4659 2000 4603 
L 1916 4113 
Q 1741 4144 1584 4144 
Q 1328 4144 1222 4034 
Q 1116 3925 1116 3625 
L 1116 3319 
L 1763 3319 
L 1763 2881 
L 1116 2881 
L 1116 0 
L 556 0 
z
" transform="scale(0.015625)"/>
                            </defs>
                            <use xlink:href="#ArialMT-53"/>
                            <use xlink:href="#ArialMT-63" transform="translate(66.699219 0)"/>
                            <use xlink:href="#ArialMT-61" transform="translate(116.699219 0)"/>
                            <use xlink:href="#ArialMT-66" transform="translate(172.314453 0)"/>
                            <use xlink:href="#ArialMT-66" transform="translate(198.347656 0)"/>
                            <use xlink:href="#ArialMT-6f" transform="translate(226.130859 0)"/>
                            <use xlink:href="#ArialMT-6c" transform="translate(281.746094 0)"/>
                            <use xlink:href="#ArialMT-64" transform="translate(303.962891 0)"/>
                            <use xlink:href="#ArialMT-53" transform="translate(359.578125 0)"/>
                            <use xlink:href="#ArialMT-70" transform="translate(426.277344 0)"/>
                            <use xlink:href="#ArialMT-6c" transform="translate(481.892578 0)"/>
                            <use xlink:href="#ArialMT-69" transform="translate(504.109375 0)"/>
                            <use xlink:href="#ArialMT-74" transform="translate(526.326172 0)"/>
                        </g>
                    </g>
                </g>
                <g id="xtick_3">
                    <g id="text_3">
                        <!-- SortedStepForward_LogD -->
                        <g style="fill: #262626"
                           transform="translate(270.816621 811.111156) rotate(-45) scale(0.165 -0.165)">
                            <defs>
                                <path id="ArialMT-72" d="M 416 0
L 416 3319 
L 922 3319 
L 922 2816 
Q 1116 3169 1280 3281 
Q 1444 3394 1641 3394 
Q 1925 3394 2219 3213 
L 2025 2691 
Q 1819 2813 1613 2813 
Q 1428 2813 1281 2702 
Q 1134 2591 1072 2394 
Q 978 2094 978 1738 
L 978 0 
L 416 0 
z
" transform="scale(0.015625)"/>
                                <path id="ArialMT-65" d="M 2694 1069
L 3275 997 
Q 3138 488 2766 206 
Q 2394 -75 1816 -75 
Q 1088 -75 661 373 
Q 234 822 234 1631 
Q 234 2469 665 2931 
Q 1097 3394 1784 3394 
Q 2450 3394 2872 2941 
Q 3294 2488 3294 1666 
Q 3294 1616 3291 1516 
L 816 1516 
Q 847 969 1125 678 
Q 1403 388 1819 388 
Q 2128 388 2347 550 
Q 2566 713 2694 1069 
z
M 847 1978 
L 2700 1978 
Q 2663 2397 2488 2606 
Q 2219 2931 1791 2931 
Q 1403 2931 1139 2672 
Q 875 2413 847 1978 
z
" transform="scale(0.015625)"/>
                                <path id="ArialMT-46" d="M 525 0
L 525 4581 
L 3616 4581 
L 3616 4041 
L 1131 4041 
L 1131 2622 
L 3281 2622 
L 3281 2081 
L 1131 2081 
L 1131 0 
L 525 0 
z
" transform="scale(0.015625)"/>
                                <path id="ArialMT-77" d="M 1034 0
L 19 3319 
L 600 3319 
L 1128 1403 
L 1325 691 
Q 1338 744 1497 1375 
L 2025 3319 
L 2603 3319 
L 3100 1394 
L 3266 759 
L 3456 1400 
L 4025 3319 
L 4572 3319 
L 3534 0 
L 2950 0 
L 2422 1988 
L 2294 2553 
L 1622 0 
L 1034 0 
z
" transform="scale(0.015625)"/>
                                <path id="ArialMT-5f" d="M -97 -1272
L -97 -866 
L 3631 -866 
L 3631 -1272 
L -97 -1272 
z
" transform="scale(0.015625)"/>
                                <path id="ArialMT-4c" d="M 469 0
L 469 4581 
L 1075 4581 
L 1075 541 
L 3331 541 
L 3331 0 
L 469 0 
z
" transform="scale(0.015625)"/>
                                <path id="ArialMT-67" d="M 319 -275
L 866 -356 
Q 900 -609 1056 -725 
Q 1266 -881 1628 -881 
Q 2019 -881 2231 -725 
Q 2444 -569 2519 -288 
Q 2563 -116 2559 434 
Q 2191 0 1641 0 
Q 956 0 581 494 
Q 206 988 206 1678 
Q 206 2153 378 2554 
Q 550 2956 876 3175 
Q 1203 3394 1644 3394 
Q 2231 3394 2613 2919 
L 2613 3319 
L 3131 3319 
L 3131 450 
Q 3131 -325 2973 -648 
Q 2816 -972 2473 -1159 
Q 2131 -1347 1631 -1347 
Q 1038 -1347 672 -1080 
Q 306 -813 319 -275 
z
M 784 1719 
Q 784 1066 1043 766 
Q 1303 466 1694 466 
Q 2081 466 2343 764 
Q 2606 1063 2606 1700 
Q 2606 2309 2336 2618 
Q 2066 2928 1684 2928 
Q 1309 2928 1046 2623 
Q 784 2319 784 1719 
z
" transform="scale(0.015625)"/>
                                <path id="ArialMT-44" d="M 494 0
L 494 4581 
L 2072 4581 
Q 2606 4581 2888 4516 
Q 3281 4425 3559 4188 
Q 3922 3881 4101 3404 
Q 4281 2928 4281 2316 
Q 4281 1794 4159 1391 
Q 4038 988 3847 723 
Q 3656 459 3429 307 
Q 3203 156 2883 78 
Q 2563 0 2147 0 
L 494 0 
z
M 1100 541 
L 2078 541 
Q 2531 541 2789 625 
Q 3047 709 3200 863 
Q 3416 1078 3536 1442 
Q 3656 1806 3656 2325 
Q 3656 3044 3420 3430 
Q 3184 3816 2847 3947 
Q 2603 4041 2063 4041 
L 1100 4041 
L 1100 541 
z
" transform="scale(0.015625)"/>
                            </defs>
                            <use xlink:href="#ArialMT-53"/>
                            <use xlink:href="#ArialMT-6f" transform="translate(66.699219 0)"/>
                            <use xlink:href="#ArialMT-72" transform="translate(122.314453 0)"/>
                            <use xlink:href="#ArialMT-74" transform="translate(155.615234 0)"/>
                            <use xlink:href="#ArialMT-65" transform="translate(183.398438 0)"/>
                            <use xlink:href="#ArialMT-64" transform="translate(239.013672 0)"/>
                            <use xlink:href="#ArialMT-53" transform="translate(294.628906 0)"/>
                            <use xlink:href="#ArialMT-74" transform="translate(361.328125 0)"/>
                            <use xlink:href="#ArialMT-65" transform="translate(389.111328 0)"/>
                            <use xlink:href="#ArialMT-70" transform="translate(444.726562 0)"/>
                            <use xlink:href="#ArialMT-46" transform="translate(500.341797 0)"/>
                            <use xlink:href="#ArialMT-6f" transform="translate(561.425781 0)"/>
                            <use xlink:href="#ArialMT-72" transform="translate(617.041016 0)"/>
                            <use xlink:href="#ArialMT-77" transform="translate(650.341797 0)"/>
                            <use xlink:href="#ArialMT-61" transform="translate(722.558594 0)"/>
                            <use xlink:href="#ArialMT-72" transform="translate(778.173828 0)"/>
                            <use xlink:href="#ArialMT-64" transform="translate(811.474609 0)"/>
                            <use xlink:href="#ArialMT-5f" transform="translate(867.089844 0)"/>
                            <use xlink:href="#ArialMT-4c" transform="translate(922.705078 0)"/>
                            <use xlink:href="#ArialMT-6f" transform="translate(978.320312 0)"/>
                            <use xlink:href="#ArialMT-67" transform="translate(1033.935547 0)"/>
                            <use xlink:href="#ArialMT-44" transform="translate(1089.550781 0)"/>
                        </g>
                    </g>
                </g>
                <g id="xtick_4">
                    <g id="text_4">
                        <!-- SortedStepForward_LogP -->
                        <g style="fill: #262626"
                           transform="translate(369.542204 810.467633) rotate(-45) scale(0.165 -0.165)">
                            <defs>
                                <path id="ArialMT-50" d="M 494 0
L 494 4581 
L 2222 4581 
Q 2678 4581 2919 4538 
Q 3256 4481 3484 4323 
Q 3713 4166 3852 3881 
Q 3991 3597 3991 3256 
Q 3991 2672 3619 2267 
Q 3247 1863 2275 1863 
L 1100 1863 
L 1100 0 
L 494 0 
z
M 1100 2403 
L 2284 2403 
Q 2872 2403 3119 2622 
Q 3366 2841 3366 3238 
Q 3366 3525 3220 3729 
Q 3075 3934 2838 4000 
Q 2684 4041 2272 4041 
L 1100 4041 
L 1100 2403 
z
" transform="scale(0.015625)"/>
                            </defs>
                            <use xlink:href="#ArialMT-53"/>
                            <use xlink:href="#ArialMT-6f" transform="translate(66.699219 0)"/>
                            <use xlink:href="#ArialMT-72" transform="translate(122.314453 0)"/>
                            <use xlink:href="#ArialMT-74" transform="translate(155.615234 0)"/>
                            <use xlink:href="#ArialMT-65" transform="translate(183.398438 0)"/>
                            <use xlink:href="#ArialMT-64" transform="translate(239.013672 0)"/>
                            <use xlink:href="#ArialMT-53" transform="translate(294.628906 0)"/>
                            <use xlink:href="#ArialMT-74" transform="translate(361.328125 0)"/>
                            <use xlink:href="#ArialMT-65" transform="translate(389.111328 0)"/>
                            <use xlink:href="#ArialMT-70" transform="translate(444.726562 0)"/>
                            <use xlink:href="#ArialMT-46" transform="translate(500.341797 0)"/>
                            <use xlink:href="#ArialMT-6f" transform="translate(561.425781 0)"/>
                            <use xlink:href="#ArialMT-72" transform="translate(617.041016 0)"/>
                            <use xlink:href="#ArialMT-77" transform="translate(650.341797 0)"/>
                            <use xlink:href="#ArialMT-61" transform="translate(722.558594 0)"/>
                            <use xlink:href="#ArialMT-72" transform="translate(778.173828 0)"/>
                            <use xlink:href="#ArialMT-64" transform="translate(811.474609 0)"/>
                            <use xlink:href="#ArialMT-5f" transform="translate(867.089844 0)"/>
                            <use xlink:href="#ArialMT-4c" transform="translate(922.705078 0)"/>
                            <use xlink:href="#ArialMT-6f" transform="translate(978.320312 0)"/>
                            <use xlink:href="#ArialMT-67" transform="translate(1033.935547 0)"/>
                            <use xlink:href="#ArialMT-50" transform="translate(1089.550781 0)"/>
                        </g>
                    </g>
                </g>
                <g id="xtick_5">
                    <g id="text_5">
                        <!-- SortedStepForward_MCE18 -->
                        <g style="fill: #262626"
                           transform="translate(462.186226 822.123957) rotate(-45) scale(0.165 -0.165)">
                            <defs>
                                <path id="ArialMT-4d" d="M 475 0
L 475 4581 
L 1388 4581 
L 2472 1338 
Q 2622 884 2691 659 
Q 2769 909 2934 1394 
L 4031 4581 
L 4847 4581 
L 4847 0 
L 4263 0 
L 4263 3834 
L 2931 0 
L 2384 0 
L 1059 3900 
L 1059 0 
L 475 0 
z
" transform="scale(0.015625)"/>
                                <path id="ArialMT-43" d="M 3763 1606
L 4369 1453 
Q 4178 706 3683 314 
Q 3188 -78 2472 -78 
Q 1731 -78 1267 223 
Q 803 525 561 1097 
Q 319 1669 319 2325 
Q 319 3041 592 3573 
Q 866 4106 1370 4382 
Q 1875 4659 2481 4659 
Q 3169 4659 3637 4309 
Q 4106 3959 4291 3325 
L 3694 3184 
Q 3534 3684 3231 3912 
Q 2928 4141 2469 4141 
Q 1941 4141 1586 3887 
Q 1231 3634 1087 3207 
Q 944 2781 944 2328 
Q 944 1744 1114 1308 
Q 1284 872 1643 656 
Q 2003 441 2422 441 
Q 2931 441 3284 734 
Q 3638 1028 3763 1606 
z
" transform="scale(0.015625)"/>
                                <path id="ArialMT-45" d="M 506 0
L 506 4581 
L 3819 4581 
L 3819 4041 
L 1113 4041 
L 1113 2638 
L 3647 2638 
L 3647 2100 
L 1113 2100 
L 1113 541 
L 3925 541 
L 3925 0 
L 506 0 
z
" transform="scale(0.015625)"/>
                                <path id="ArialMT-31" d="M 2384 0
L 1822 0 
L 1822 3584 
Q 1619 3391 1289 3197 
Q 959 3003 697 2906 
L 697 3450 
Q 1169 3672 1522 3987 
Q 1875 4303 2022 4600 
L 2384 4600 
L 2384 0 
z
" transform="scale(0.015625)"/>
                                <path id="ArialMT-38" d="M 1131 2484
Q 781 2613 612 2850 
Q 444 3088 444 3419 
Q 444 3919 803 4259 
Q 1163 4600 1759 4600 
Q 2359 4600 2725 4251 
Q 3091 3903 3091 3403 
Q 3091 3084 2923 2848 
Q 2756 2613 2416 2484 
Q 2838 2347 3058 2040 
Q 3278 1734 3278 1309 
Q 3278 722 2862 322 
Q 2447 -78 1769 -78 
Q 1091 -78 675 323 
Q 259 725 259 1325 
Q 259 1772 486 2073 
Q 713 2375 1131 2484 
z
M 1019 3438 
Q 1019 3113 1228 2906 
Q 1438 2700 1772 2700 
Q 2097 2700 2305 2904 
Q 2513 3109 2513 3406 
Q 2513 3716 2298 3927 
Q 2084 4138 1766 4138 
Q 1444 4138 1231 3931 
Q 1019 3725 1019 3438 
z
M 838 1322 
Q 838 1081 952 856 
Q 1066 631 1291 507 
Q 1516 384 1775 384 
Q 2178 384 2440 643 
Q 2703 903 2703 1303 
Q 2703 1709 2433 1975 
Q 2163 2241 1756 2241 
Q 1359 2241 1098 1978 
Q 838 1716 838 1322 
z
" transform="scale(0.015625)"/>
                            </defs>
                            <use xlink:href="#ArialMT-53"/>
                            <use xlink:href="#ArialMT-6f" transform="translate(66.699219 0)"/>
                            <use xlink:href="#ArialMT-72" transform="translate(122.314453 0)"/>
                            <use xlink:href="#ArialMT-74" transform="translate(155.615234 0)"/>
                            <use xlink:href="#ArialMT-65" transform="translate(183.398438 0)"/>
                            <use xlink:href="#ArialMT-64" transform="translate(239.013672 0)"/>
                            <use xlink:href="#ArialMT-53" transform="translate(294.628906 0)"/>
                            <use xlink:href="#ArialMT-74" transform="translate(361.328125 0)"/>
                            <use xlink:href="#ArialMT-65" transform="translate(389.111328 0)"/>
                            <use xlink:href="#ArialMT-70" transform="translate(444.726562 0)"/>
                            <use xlink:href="#ArialMT-46" transform="translate(500.341797 0)"/>
                            <use xlink:href="#ArialMT-6f" transform="translate(561.425781 0)"/>
                            <use xlink:href="#ArialMT-72" transform="translate(617.041016 0)"/>
                            <use xlink:href="#ArialMT-77" transform="translate(650.341797 0)"/>
                            <use xlink:href="#ArialMT-61" transform="translate(722.558594 0)"/>
                            <use xlink:href="#ArialMT-72" transform="translate(778.173828 0)"/>
                            <use xlink:href="#ArialMT-64" transform="translate(811.474609 0)"/>
                            <use xlink:href="#ArialMT-5f" transform="translate(867.089844 0)"/>
                            <use xlink:href="#ArialMT-4d" transform="translate(922.705078 0)"/>
                            <use xlink:href="#ArialMT-43" transform="translate(1006.005859 0)"/>
                            <use xlink:href="#ArialMT-45" transform="translate(1078.222656 0)"/>
                            <use xlink:href="#ArialMT-31" transform="translate(1144.921875 0)"/>
                            <use xlink:href="#ArialMT-38" transform="translate(1200.537109 0)"/>
                        </g>
                    </g>
                </g>
                <g id="xtick_6">
                    <g id="text_6">
                        <!-- UnsortedStepForward -->
                        <g style="fill: #262626"
                           transform="translate(576.802983 789.698084) rotate(-45) scale(0.165 -0.165)">
                            <defs>
                                <path id="ArialMT-55" d="M 3500 4581
L 4106 4581 
L 4106 1934 
Q 4106 1244 3950 837 
Q 3794 431 3386 176 
Q 2978 -78 2316 -78 
Q 1672 -78 1262 144 
Q 853 366 678 786 
Q 503 1206 503 1934 
L 503 4581 
L 1109 4581 
L 1109 1938 
Q 1109 1341 1220 1058 
Q 1331 775 1601 622 
Q 1872 469 2263 469 
Q 2931 469 3215 772 
Q 3500 1075 3500 1938 
L 3500 4581 
z
" transform="scale(0.015625)"/>
                                <path id="ArialMT-73" d="M 197 991
L 753 1078 
Q 800 744 1014 566 
Q 1228 388 1613 388 
Q 2000 388 2187 545 
Q 2375 703 2375 916 
Q 2375 1106 2209 1216 
Q 2094 1291 1634 1406 
Q 1016 1563 777 1677 
Q 538 1791 414 1992 
Q 291 2194 291 2438 
Q 291 2659 392 2848 
Q 494 3038 669 3163 
Q 800 3259 1026 3326 
Q 1253 3394 1513 3394 
Q 1903 3394 2198 3281 
Q 2494 3169 2634 2976 
Q 2775 2784 2828 2463 
L 2278 2388 
Q 2241 2644 2061 2787 
Q 1881 2931 1553 2931 
Q 1166 2931 1000 2803 
Q 834 2675 834 2503 
Q 834 2394 903 2306 
Q 972 2216 1119 2156 
Q 1203 2125 1616 2013 
Q 2213 1853 2448 1751 
Q 2684 1650 2818 1456 
Q 2953 1263 2953 975 
Q 2953 694 2789 445 
Q 2625 197 2315 61 
Q 2006 -75 1616 -75 
Q 969 -75 630 194 
Q 291 463 197 991 
z
" transform="scale(0.015625)"/>
                            </defs>
                            <use xlink:href="#ArialMT-55"/>
                            <use xlink:href="#ArialMT-6e" transform="translate(72.216797 0)"/>
                            <use xlink:href="#ArialMT-73" transform="translate(127.832031 0)"/>
                            <use xlink:href="#ArialMT-6f" transform="translate(177.832031 0)"/>
                            <use xlink:href="#ArialMT-72" transform="translate(233.447266 0)"/>
                            <use xlink:href="#ArialMT-74" transform="translate(266.748047 0)"/>
                            <use xlink:href="#ArialMT-65" transform="translate(294.53125 0)"/>
                            <use xlink:href="#ArialMT-64" transform="translate(350.146484 0)"/>
                            <use xlink:href="#ArialMT-53" transform="translate(405.761719 0)"/>
                            <use xlink:href="#ArialMT-74" transform="translate(472.460938 0)"/>
                            <use xlink:href="#ArialMT-65" transform="translate(500.244141 0)"/>
                            <use xlink:href="#ArialMT-70" transform="translate(555.859375 0)"/>
                            <use xlink:href="#ArialMT-46" transform="translate(611.474609 0)"/>
                            <use xlink:href="#ArialMT-6f" transform="translate(672.558594 0)"/>
                            <use xlink:href="#ArialMT-72" transform="translate(728.173828 0)"/>
                            <use xlink:href="#ArialMT-77" transform="translate(761.474609 0)"/>
                            <use xlink:href="#ArialMT-61" transform="translate(833.691406 0)"/>
                            <use xlink:href="#ArialMT-72" transform="translate(889.306641 0)"/>
                            <use xlink:href="#ArialMT-64" transform="translate(922.607422 0)"/>
                        </g>
                    </g>
                </g>
                <g id="text_7">
                    <!-- split_type -->
                    <g style="fill: #262626" transform="translate(346.748814 841.326888) scale(0.18 -0.18)">
                        <defs>
                            <path id="ArialMT-79" d="M 397 -1278
L 334 -750 
Q 519 -800 656 -800 
Q 844 -800 956 -737 
Q 1069 -675 1141 -563 
Q 1194 -478 1313 -144 
Q 1328 -97 1363 -6 
L 103 3319 
L 709 3319 
L 1400 1397 
Q 1534 1031 1641 628 
Q 1738 1016 1872 1384 
L 2581 3319 
L 3144 3319 
L 1881 -56 
Q 1678 -603 1566 -809 
Q 1416 -1088 1222 -1217 
Q 1028 -1347 759 -1347 
Q 597 -1347 397 -1278 
z
" transform="scale(0.015625)"/>
                        </defs>
                        <use xlink:href="#ArialMT-73"/>
                        <use xlink:href="#ArialMT-70" transform="translate(50 0)"/>
                        <use xlink:href="#ArialMT-6c" transform="translate(105.615234 0)"/>
                        <use xlink:href="#ArialMT-69" transform="translate(127.832031 0)"/>
                        <use xlink:href="#ArialMT-74" transform="translate(150.048828 0)"/>
                        <use xlink:href="#ArialMT-5f" transform="translate(177.832031 0)"/>
                        <use xlink:href="#ArialMT-74" transform="translate(233.447266 0)"/>
                        <use xlink:href="#ArialMT-79" transform="translate(261.230469 0)"/>
                        <use xlink:href="#ArialMT-70" transform="translate(311.230469 0)"/>
                        <use xlink:href="#ArialMT-65" transform="translate(366.845703 0)"/>
                    </g>
                </g>
            </g>
            <g id="matplotlib.axis_2">
                <g id="ytick_1">
                    <g id="line2d_1">
                        <path d="M 70.86 618.928947
L 698.676378 618.928947 
" clip-path="url(#p0c0371d2dc)" style="fill: none; stroke: #cccccc; stroke-width: 1.5; stroke-linecap: round"/>
                    </g>
                    <g id="text_8">
                        <!-- 0 -->
                        <g style="fill: #262626" transform="translate(49.184453 624.834143) scale(0.165 -0.165)">
                            <defs>
                                <path id="ArialMT-30" d="M 266 2259
Q 266 3072 433 3567 
Q 600 4063 929 4331 
Q 1259 4600 1759 4600 
Q 2128 4600 2406 4451 
Q 2684 4303 2865 4023 
Q 3047 3744 3150 3342 
Q 3253 2941 3253 2259 
Q 3253 1453 3087 958 
Q 2922 463 2592 192 
Q 2263 -78 1759 -78 
Q 1097 -78 719 397 
Q 266 969 266 2259 
z
M 844 2259 
Q 844 1131 1108 757 
Q 1372 384 1759 384 
Q 2147 384 2411 759 
Q 2675 1134 2675 2259 
Q 2675 3391 2411 3762 
Q 2147 4134 1753 4134 
Q 1366 4134 1134 3806 
Q 844 3388 844 2259 
z
" transform="scale(0.015625)"/>
                            </defs>
                            <use xlink:href="#ArialMT-30"/>
                        </g>
                    </g>
                </g>
                <g id="ytick_2">
                    <g id="line2d_2">
                        <path d="M 70.86 517.579247
L 698.676378 517.579247 
" clip-path="url(#p0c0371d2dc)" style="fill: none; stroke: #cccccc; stroke-width: 1.5; stroke-linecap: round"/>
                    </g>
                    <g id="text_9">
                        <!-- 2 -->
                        <g style="fill: #262626" transform="translate(49.184453 523.484442) scale(0.165 -0.165)">
                            <defs>
                                <path id="ArialMT-32" d="M 3222 541
L 3222 0 
L 194 0 
Q 188 203 259 391 
Q 375 700 629 1000 
Q 884 1300 1366 1694 
Q 2113 2306 2375 2664 
Q 2638 3022 2638 3341 
Q 2638 3675 2398 3904 
Q 2159 4134 1775 4134 
Q 1369 4134 1125 3890 
Q 881 3647 878 3216 
L 300 3275 
Q 359 3922 746 4261 
Q 1134 4600 1788 4600 
Q 2447 4600 2831 4234 
Q 3216 3869 3216 3328 
Q 3216 3053 3103 2787 
Q 2991 2522 2730 2228 
Q 2469 1934 1863 1422 
Q 1356 997 1212 845 
Q 1069 694 975 541 
L 3222 541 
z
" transform="scale(0.015625)"/>
                            </defs>
                            <use xlink:href="#ArialMT-32"/>
                        </g>
                    </g>
                </g>
                <g id="ytick_3">
                    <g id="line2d_3">
                        <path d="M 70.86 416.229546
L 698.676378 416.229546 
" clip-path="url(#p0c0371d2dc)" style="fill: none; stroke: #cccccc; stroke-width: 1.5; stroke-linecap: round"/>
                    </g>
                    <g id="text_10">
                        <!-- 4 -->
                        <g style="fill: #262626" transform="translate(49.184453 422.134741) scale(0.165 -0.165)">
                            <defs>
                                <path id="ArialMT-34" d="M 2069 0
L 2069 1097 
L 81 1097 
L 81 1613 
L 2172 4581 
L 2631 4581 
L 2631 1613 
L 3250 1613 
L 3250 1097 
L 2631 1097 
L 2631 0 
L 2069 0 
z
M 2069 1613 
L 2069 3678 
L 634 1613 
L 2069 1613 
z
" transform="scale(0.015625)"/>
                            </defs>
                            <use xlink:href="#ArialMT-34"/>
                        </g>
                    </g>
                </g>
                <g id="ytick_4">
                    <g id="line2d_4">
                        <path d="M 70.86 314.879845
L 698.676378 314.879845 
" clip-path="url(#p0c0371d2dc)" style="fill: none; stroke: #cccccc; stroke-width: 1.5; stroke-linecap: round"/>
                    </g>
                    <g id="text_11">
                        <!-- 6 -->
                        <g style="fill: #262626" transform="translate(49.184453 320.785041) scale(0.165 -0.165)">
                            <defs>
                                <path id="ArialMT-36" d="M 3184 3459
L 2625 3416 
Q 2550 3747 2413 3897 
Q 2184 4138 1850 4138 
Q 1581 4138 1378 3988 
Q 1113 3794 959 3422 
Q 806 3050 800 2363 
Q 1003 2672 1297 2822 
Q 1591 2972 1913 2972 
Q 2475 2972 2870 2558 
Q 3266 2144 3266 1488 
Q 3266 1056 3080 686 
Q 2894 316 2569 119 
Q 2244 -78 1831 -78 
Q 1128 -78 684 439 
Q 241 956 241 2144 
Q 241 3472 731 4075 
Q 1159 4600 1884 4600 
Q 2425 4600 2770 4297 
Q 3116 3994 3184 3459 
z
M 888 1484 
Q 888 1194 1011 928 
Q 1134 663 1356 523 
Q 1578 384 1822 384 
Q 2178 384 2434 671 
Q 2691 959 2691 1453 
Q 2691 1928 2437 2201 
Q 2184 2475 1800 2475 
Q 1419 2475 1153 2201 
Q 888 1928 888 1484 
z
" transform="scale(0.015625)"/>
                            </defs>
                            <use xlink:href="#ArialMT-36"/>
                        </g>
                    </g>
                </g>
                <g id="ytick_5">
                    <g id="line2d_5">
                        <path d="M 70.86 213.530145
L 698.676378 213.530145 
" clip-path="url(#p0c0371d2dc)" style="fill: none; stroke: #cccccc; stroke-width: 1.5; stroke-linecap: round"/>
                    </g>
                    <g id="text_12">
                        <!-- 8 -->
                        <g style="fill: #262626" transform="translate(49.184453 219.43534) scale(0.165 -0.165)">
                            <use xlink:href="#ArialMT-38"/>
                        </g>
                    </g>
                </g>
                <g id="ytick_6">
                    <g id="line2d_6">
                        <path d="M 70.86 112.180444
L 698.676378 112.180444 
" clip-path="url(#p0c0371d2dc)" style="fill: none; stroke: #cccccc; stroke-width: 1.5; stroke-linecap: round"/>
                    </g>
                    <g id="text_13">
                        <!-- 10 -->
                        <g style="fill: #262626" transform="translate(40.008906 118.085639) scale(0.165 -0.165)">
                            <use xlink:href="#ArialMT-31"/>
                            <use xlink:href="#ArialMT-30" transform="translate(55.615234 0)"/>
                        </g>
                    </g>
                </g>
                <g id="text_14">
                    <!-- novelty_err -->
                    <g style="fill: #262626" transform="translate(32.220469 391.007972) rotate(-90) scale(0.18 -0.18)">
                        <defs>
                            <path id="ArialMT-76" d="M 1344 0
L 81 3319 
L 675 3319 
L 1388 1331 
Q 1503 1009 1600 663 
Q 1675 925 1809 1294 
L 2547 3319 
L 3125 3319 
L 1869 0 
L 1344 0 
z
" transform="scale(0.015625)"/>
                        </defs>
                        <use xlink:href="#ArialMT-6e"/>
                        <use xlink:href="#ArialMT-6f" transform="translate(55.615234 0)"/>
                        <use xlink:href="#ArialMT-76" transform="translate(111.230469 0)"/>
                        <use xlink:href="#ArialMT-65" transform="translate(161.230469 0)"/>
                        <use xlink:href="#ArialMT-6c" transform="translate(216.845703 0)"/>
                        <use xlink:href="#ArialMT-74" transform="translate(239.0625 0)"/>
                        <use xlink:href="#ArialMT-79" transform="translate(266.845703 0)"/>
                        <use xlink:href="#ArialMT-5f" transform="translate(316.845703 0)"/>
                        <use xlink:href="#ArialMT-65" transform="translate(372.460938 0)"/>
                        <use xlink:href="#ArialMT-72" transform="translate(428.076172 0)"/>
                        <use xlink:href="#ArialMT-72" transform="translate(461.376953 0)"/>
                    </g>
                </g>
            </g>
            <g id="FillBetweenPolyCollection_1">
                <defs>
                    <path id="m40088e2e23" d="M 139.071514 -230.778517
L 138.445759 -230.778517 
L 137.611856 -235.093496 
L 135.621724 -239.408475 
L 132.158652 -243.723455 
L 127.616912 -248.038434 
L 122.836812 -252.353413 
L 118.353256 -256.668392 
L 114.122456 -260.983372 
L 109.917252 -265.298351 
L 105.816189 -269.61333 
L 102.314864 -273.92831 
L 100.045888 -278.243289 
L 99.397108 -282.558268 
L 100.280931 -286.873248 
L 102.194857 -291.188227 
L 104.559249 -295.503206 
L 107.074494 -299.818185 
L 109.736423 -304.133165 
L 112.542838 -308.448144 
L 115.345964 -312.763123 
L 117.964976 -317.078103 
L 120.305837 -321.393082 
L 122.397627 -325.708061 
L 124.313433 -330.023041 
L 126.067635 -334.33802 
L 127.664636 -338.652999 
L 129.150849 -342.967978 
L 130.554162 -347.282958 
L 131.832105 -351.597937 
L 132.887774 -355.912916 
L 133.677784 -360.227896 
L 134.277653 -364.542875 
L 134.779867 -368.857854 
L 135.223071 -373.172833 
L 135.646769 -377.487813 
L 136.097257 -381.802792 
L 136.552314 -386.117771 
L 136.931832 -390.432751 
L 137.191328 -394.74773 
L 137.337405 -399.062709 
L 137.394726 -403.377689 
L 137.422769 -407.692668 
L 137.508551 -412.007647 
L 137.680705 -416.322626 
L 137.867634 -420.637606 
L 137.984579 -424.952585 
L 138.03143 -429.267564 
L 138.079842 -433.582544 
L 138.192661 -437.897523 
L 138.363517 -442.212502 
L 138.525342 -446.527482 
L 138.621486 -450.842461 
L 138.652026 -455.15744 
L 138.650197 -459.472419 
L 138.646747 -463.787399 
L 138.655571 -468.102378 
L 138.671138 -472.417357 
L 138.682377 -476.732337 
L 138.68762 -481.047316 
L 138.691126 -485.362295 
L 138.697728 -489.677275 
L 138.710024 -493.992254 
L 138.720044 -498.307233 
L 138.711357 -502.622212 
L 138.676934 -506.937192 
L 138.631665 -511.252171 
L 138.603172 -515.56715 
L 138.609932 -519.88213 
L 138.648286 -524.197109 
L 138.696505 -528.512088 
L 138.732488 -532.827068 
L 138.748781 -537.142047 
L 138.748968 -541.457026 
L 138.737663 -545.772005 
L 138.721485 -550.086985 
L 138.712459 -554.401964 
L 138.718749 -558.716943 
L 138.734691 -563.031923 
L 138.748501 -567.346902 
L 138.754694 -571.661881 
L 138.753418 -575.976861 
L 138.744442 -580.29184 
L 138.728807 -584.606819 
L 138.714877 -588.921798 
L 138.714042 -593.236778 
L 138.727075 -597.551757 
L 138.743124 -601.866736 
L 138.753341 -606.181716 
L 138.75738 -610.496695 
L 138.758417 -614.811674 
L 138.758486 -619.126654 
L 138.757792 -623.441633 
L 138.754759 -627.756612 
L 138.74624 -632.071591 
L 138.731114 -636.386571 
L 138.7162 -640.70155 
L 138.713194 -645.016529 
L 138.724842 -649.331509 
L 138.741183 -653.646488 
L 138.752376 -657.961467 
L 138.764897 -657.961467 
L 138.764897 -657.961467 
L 138.77609 -653.646488 
L 138.792431 -649.331509 
L 138.804079 -645.016529 
L 138.801073 -640.70155 
L 138.786159 -636.386571 
L 138.771033 -632.071591 
L 138.762514 -627.756612 
L 138.759481 -623.441633 
L 138.758787 -619.126654 
L 138.758857 -614.811674 
L 138.759893 -610.496695 
L 138.763932 -606.181716 
L 138.774149 -601.866736 
L 138.790198 -597.551757 
L 138.803231 -593.236778 
L 138.802397 -588.921798 
L 138.788466 -584.606819 
L 138.772831 -580.29184 
L 138.763855 -575.976861 
L 138.76258 -571.661881 
L 138.768773 -567.346902 
L 138.782582 -563.031923 
L 138.798524 -558.716943 
L 138.804814 -554.401964 
L 138.795788 -550.086985 
L 138.77961 -545.772005 
L 138.768306 -541.457026 
L 138.768492 -537.142047 
L 138.784785 -532.827068 
L 138.820768 -528.512088 
L 138.868987 -524.197109 
L 138.907341 -519.88213 
L 138.914101 -515.56715 
L 138.885608 -511.252171 
L 138.84034 -506.937192 
L 138.805917 -502.622212 
L 138.79723 -498.307233 
L 138.807249 -493.992254 
L 138.819545 -489.677275 
L 138.826148 -485.362295 
L 138.829653 -481.047316 
L 138.834896 -476.732337 
L 138.846135 -472.417357 
L 138.861703 -468.102378 
L 138.870526 -463.787399 
L 138.867076 -459.472419 
L 138.865247 -455.15744 
L 138.895787 -450.842461 
L 138.991931 -446.527482 
L 139.153756 -442.212502 
L 139.324612 -437.897523 
L 139.437431 -433.582544 
L 139.485843 -429.267564 
L 139.532694 -424.952585 
L 139.649639 -420.637606 
L 139.836568 -416.322626 
L 140.008722 -412.007647 
L 140.094504 -407.692668 
L 140.122547 -403.377689 
L 140.179868 -399.062709 
L 140.325945 -394.74773 
L 140.585441 -390.432751 
L 140.964959 -386.117771 
L 141.420016 -381.802792 
L 141.870504 -377.487813 
L 142.294202 -373.172833 
L 142.737406 -368.857854 
L 143.23962 -364.542875 
L 143.839489 -360.227896 
L 144.629499 -355.912916 
L 145.685168 -351.597937 
L 146.963111 -347.282958 
L 148.366424 -342.967978 
L 149.852637 -338.652999 
L 151.449638 -334.33802 
L 153.20384 -330.023041 
L 155.119647 -325.708061 
L 157.211437 -321.393082 
L 159.552297 -317.078103 
L 162.171309 -312.763123 
L 164.974435 -308.448144 
L 167.78085 -304.133165 
L 170.442779 -299.818185 
L 172.958024 -295.503206 
L 175.322416 -291.188227 
L 177.236342 -286.873248 
L 178.120165 -282.558268 
L 177.471386 -278.243289 
L 175.202409 -273.92831 
L 171.701084 -269.61333 
L 167.600021 -265.298351 
L 163.394817 -260.983372 
L 159.164017 -256.668392 
L 154.680461 -252.353413 
L 149.900361 -248.038434 
L 145.358621 -243.723455 
L 141.895549 -239.408475 
L 139.905417 -235.093496 
L 139.071514 -230.778517 
z
" style="stroke: #3d3d3d; stroke-width: 1.875"/>
                </defs>
                <g clip-path="url(#p0c0371d2dc)">
                    <use xlink:href="#m40088e2e23" x="0" y="864"
                         style="fill: #3274a1; stroke: #3d3d3d; stroke-width: 1.875"/>
                </g>
            </g>
            <g id="FillBetweenPolyCollection_2">
                <defs>
                    <path id="m49333934c7" d="M 237.264324 -233.928167
L 237.060591 -233.928167 
L 236.778788 -237.327779 
L 236.073044 -240.727391 
L 234.744757 -244.127003 
L 232.766352 -247.526615 
L 230.239744 -250.926227 
L 227.199942 -254.325839 
L 223.566127 -257.725451 
L 219.323737 -261.125063 
L 214.668428 -264.524675 
L 209.959717 -267.924287 
L 205.607168 -271.323899 
L 201.955941 -274.723511 
L 199.259333 -278.123123 
L 197.800929 -281.522735 
L 197.87652 -284.922347 
L 199.499098 -288.321959 
L 202.183647 -291.721571 
L 205.143156 -295.121182 
L 207.820764 -298.520794 
L 210.255738 -301.920406 
L 212.858296 -305.320018 
L 215.879341 -308.71963 
L 219.170301 -312.119242 
L 222.333108 -315.518854 
L 224.991452 -318.918466 
L 226.987898 -322.318078 
L 228.406766 -325.71769 
L 229.445923 -329.117302 
L 230.293601 -332.516914 
L 231.052368 -335.916526 
L 231.70296 -339.316138 
L 232.176176 -342.71575 
L 232.483842 -346.115362 
L 232.775689 -349.514974 
L 233.21932 -352.914586 
L 233.81802 -356.314197 
L 234.437841 -359.713809 
L 234.974947 -363.113421 
L 235.395605 -366.513033 
L 235.678775 -369.912645 
L 235.833751 -373.312257 
L 235.937222 -376.711869 
L 236.068514 -380.111481 
L 236.23594 -383.511093 
L 236.400762 -386.910705 
L 236.526599 -390.310317 
L 236.587786 -393.709929 
L 236.583152 -397.109541 
L 236.552542 -400.509153 
L 236.54556 -403.908765 
L 236.577044 -407.308377 
L 236.620554 -410.707989 
L 236.647521 -414.107601 
L 236.672257 -417.507213 
L 236.732775 -420.906824 
L 236.832897 -424.306436 
L 236.937237 -427.706048 
L 237.013265 -431.10566 
L 237.051563 -434.505272 
L 237.055541 -437.904884 
L 237.03821 -441.304496 
L 237.024257 -444.704108 
L 237.030452 -448.10372 
L 237.049413 -451.503332 
L 237.066062 -454.902944 
L 237.076311 -458.302556 
L 237.08453 -461.702168 
L 237.096087 -465.10178 
L 237.113563 -468.501392 
L 237.13267 -471.901004 
L 237.143838 -475.300616 
L 237.141211 -478.700228 
L 237.12906 -482.099839 
L 237.118792 -485.499451 
L 237.116586 -488.899063 
L 237.117169 -492.298675 
L 237.116566 -495.698287 
L 237.120799 -499.097899 
L 237.133494 -502.497511 
L 237.147711 -505.897123 
L 237.155126 -509.296735 
L 237.152745 -512.696347 
L 237.141517 -516.095959 
L 237.1277 -519.495571 
L 237.122355 -522.895183 
L 237.130532 -526.294795 
L 237.144929 -529.694407 
L 237.15582 -533.094019 
L 237.160716 -536.493631 
L 237.162053 -539.893243 
L 237.161778 -543.292854 
L 237.159378 -546.692466 
L 237.152282 -550.092078 
L 237.139246 -553.49169 
L 237.125944 -556.891302 
L 237.122846 -560.290914 
L 237.132823 -563.690526 
L 237.147168 -567.090138 
L 237.157018 -570.48975 
L 237.167898 -570.48975 
L 237.167898 -570.48975 
L 237.177747 -567.090138 
L 237.192093 -563.690526 
L 237.202069 -560.290914 
L 237.198971 -556.891302 
L 237.185669 -553.49169 
L 237.172633 -550.092078 
L 237.165537 -546.692466 
L 237.163138 -543.292854 
L 237.162862 -539.893243 
L 237.1642 -536.493631 
L 237.169095 -533.094019 
L 237.179986 -529.694407 
L 237.194383 -526.294795 
L 237.20256 -522.895183 
L 237.197215 -519.495571 
L 237.183398 -516.095959 
L 237.17217 -512.696347 
L 237.169789 -509.296735 
L 237.177205 -505.897123 
L 237.191422 -502.497511 
L 237.204116 -499.097899 
L 237.208349 -495.698287 
L 237.207746 -492.298675 
L 237.208329 -488.899063 
L 237.206123 -485.499451 
L 237.195855 -482.099839 
L 237.183704 -478.700228 
L 237.181078 -475.300616 
L 237.192245 -471.901004 
L 237.211352 -468.501392 
L 237.228828 -465.10178 
L 237.240385 -461.702168 
L 237.248604 -458.302556 
L 237.258853 -454.902944 
L 237.275502 -451.503332 
L 237.294463 -448.10372 
L 237.300658 -444.704108 
L 237.286706 -441.304496 
L 237.269374 -437.904884 
L 237.273352 -434.505272 
L 237.31165 -431.10566 
L 237.387679 -427.706048 
L 237.492019 -424.306436 
L 237.59214 -420.906824 
L 237.652658 -417.507213 
L 237.677394 -414.107601 
L 237.704361 -410.707989 
L 237.747871 -407.308377 
L 237.779355 -403.908765 
L 237.772373 -400.509153 
L 237.741763 -397.109541 
L 237.73713 -393.709929 
L 237.798316 -390.310317 
L 237.924153 -386.910705 
L 238.088975 -383.511093 
L 238.256401 -380.111481 
L 238.387694 -376.711869 
L 238.491164 -373.312257 
L 238.64614 -369.912645 
L 238.92931 -366.513033 
L 239.349968 -363.113421 
L 239.887074 -359.713809 
L 240.506895 -356.314197 
L 241.105595 -352.914586 
L 241.549226 -349.514974 
L 241.841074 -346.115362 
L 242.148739 -342.71575 
L 242.621955 -339.316138 
L 243.272547 -335.916526 
L 244.031315 -332.516914 
L 244.878992 -329.117302 
L 245.91815 -325.71769 
L 247.337017 -322.318078 
L 249.333463 -318.918466 
L 251.991808 -315.518854 
L 255.154615 -312.119242 
L 258.445574 -308.71963 
L 261.466619 -305.320018 
L 264.069177 -301.920406 
L 266.504152 -298.520794 
L 269.181759 -295.121182 
L 272.141269 -291.721571 
L 274.825817 -288.321959 
L 276.448396 -284.922347 
L 276.523986 -281.522735 
L 275.065582 -278.123123 
L 272.368974 -274.723511 
L 268.717748 -271.323899 
L 264.365199 -267.924287 
L 259.656487 -264.524675 
L 255.001179 -261.125063 
L 250.758788 -257.725451 
L 247.124973 -254.325839 
L 244.085172 -250.926227 
L 241.558564 -247.526615 
L 239.580159 -244.127003 
L 238.251871 -240.727391 
L 237.546127 -237.327779 
L 237.264324 -233.928167 
z
" style="stroke: #3d3d3d; stroke-width: 1.875"/>
                </defs>
                <g clip-path="url(#p0c0371d2dc)">
                    <use xlink:href="#m49333934c7" x="0" y="864"
                         style="fill: #e1812c; stroke: #3d3d3d; stroke-width: 1.875"/>
                </g>
            </g>
            <g id="FillBetweenPolyCollection_3">
                <defs>
                    <path id="m451a8b868d" d="M 335.686347 -233.50429
L 335.446211 -233.50429 
L 335.142715 -237.008109 
L 334.456459 -240.511928 
L 333.333368 -244.015746 
L 331.928874 -247.519565 
L 330.38889 -251.023383 
L 328.572026 -254.527202 
L 326.150764 -258.031021 
L 322.944885 -261.534839 
L 319.016542 -265.038658 
L 314.568584 -268.542477 
L 309.967035 -272.046295 
L 305.693072 -275.550114 
L 302.050353 -279.053933 
L 299.115407 -282.557751 
L 297.051629 -286.06157 
L 296.20475 -289.565389 
L 296.856604 -293.069207 
L 298.979976 -296.573026 
L 302.115483 -300.076845 
L 305.565753 -303.580663 
L 308.91716 -307.084482 
L 312.210723 -310.588301 
L 315.523726 -314.092119 
L 318.663027 -317.595938 
L 321.31895 -321.099756 
L 323.330327 -324.603575 
L 324.792544 -328.107394 
L 325.959589 -331.611212 
L 327.025783 -335.115031 
L 328.033708 -338.61885 
L 328.951557 -342.122668 
L 329.747017 -345.626487 
L 330.432478 -349.130306 
L 331.064036 -352.634124 
L 331.651529 -356.137943 
L 332.134532 -359.641762 
L 332.493885 -363.14558 
L 332.80292 -366.649399 
L 333.141939 -370.153218 
L 333.517013 -373.657036 
L 333.851905 -377.160855 
L 334.047108 -380.664673 
L 334.094815 -384.168492 
L 334.117461 -387.672311 
L 334.237402 -391.176129 
L 334.45431 -394.679948 
L 334.683237 -398.183767 
L 334.845716 -401.687585 
L 334.91898 -405.191404 
L 334.950517 -408.695223 
L 335.010862 -412.199041 
L 335.109208 -415.70286 
L 335.185473 -419.206679 
L 335.196213 -422.710497 
L 335.169319 -426.214316 
L 335.1606 -429.718135 
L 335.189391 -433.221953 
L 335.236382 -436.725772 
L 335.284274 -440.229591 
L 335.332666 -443.733409 
L 335.380982 -447.237228 
L 335.422207 -450.741046 
L 335.450756 -454.244865 
L 335.464034 -457.748684 
L 335.462331 -461.252502 
L 335.453461 -464.756321 
L 335.448188 -468.26014 
L 335.447757 -471.763958 
L 335.447198 -475.267777 
L 335.448107 -478.771596 
L 335.454645 -482.275414 
L 335.464162 -485.779233 
L 335.475622 -489.283052 
L 335.494889 -492.78687 
L 335.520102 -496.290689 
L 335.537743 -499.794508 
L 335.53965 -503.298326 
L 335.532362 -506.802145 
L 335.526988 -510.305964 
L 335.52491 -513.809782 
L 335.519418 -517.313601 
L 335.51014 -520.817419 
L 335.506229 -524.321238 
L 335.514707 -527.825057 
L 335.532318 -531.328875 
L 335.549616 -534.832694 
L 335.560239 -538.336513 
L 335.564099 -541.840331 
L 335.562984 -545.34415 
L 335.556694 -548.847969 
L 335.545038 -552.351787 
L 335.532208 -555.855606 
L 335.524363 -559.359425 
L 335.522192 -562.863243 
L 335.523181 -566.367062 
L 335.528914 -569.870881 
L 335.540646 -573.374699 
L 335.553405 -576.878518 
L 335.561703 -580.382337 
L 335.570855 -580.382337 
L 335.570855 -580.382337 
L 335.579152 -576.878518 
L 335.591911 -573.374699 
L 335.603643 -569.870881 
L 335.609376 -566.367062 
L 335.610365 -562.863243 
L 335.608195 -559.359425 
L 335.600349 -555.855606 
L 335.58752 -552.351787 
L 335.575864 -548.847969 
L 335.569574 -545.34415 
L 335.568458 -541.840331 
L 335.572318 -538.336513 
L 335.582941 -534.832694 
L 335.600239 -531.328875 
L 335.61785 -527.825057 
L 335.626329 -524.321238 
L 335.622417 -520.817419 
L 335.61314 -517.313601 
L 335.607647 -513.809782 
L 335.60557 -510.305964 
L 335.600196 -506.802145 
L 335.592907 -503.298326 
L 335.594814 -499.794508 
L 335.612455 -496.290689 
L 335.637668 -492.78687 
L 335.656936 -489.283052 
L 335.668395 -485.779233 
L 335.677913 -482.275414 
L 335.68445 -478.771596 
L 335.685359 -475.267777 
L 335.6848 -471.763958 
L 335.684369 -468.26014 
L 335.679096 -464.756321 
L 335.670226 -461.252502 
L 335.668523 -457.748684 
L 335.681801 -454.244865 
L 335.71035 -450.741046 
L 335.751575 -447.237228 
L 335.799892 -443.733409 
L 335.848283 -440.229591 
L 335.896176 -436.725772 
L 335.943166 -433.221953 
L 335.971957 -429.718135 
L 335.963239 -426.214316 
L 335.936344 -422.710497 
L 335.947084 -419.206679 
L 336.023349 -415.70286 
L 336.121695 -412.199041 
L 336.182041 -408.695223 
L 336.213577 -405.191404 
L 336.286842 -401.687585 
L 336.449321 -398.183767 
L 336.678247 -394.679948 
L 336.895155 -391.176129 
L 337.015096 -387.672311 
L 337.037743 -384.168492 
L 337.085449 -380.664673 
L 337.280653 -377.160855 
L 337.615544 -373.657036 
L 337.990618 -370.153218 
L 338.329637 -366.649399 
L 338.638672 -363.14558 
L 338.998025 -359.641762 
L 339.481029 -356.137943 
L 340.068521 -352.634124 
L 340.700079 -349.130306 
L 341.385541 -345.626487 
L 342.181 -342.122668 
L 343.098849 -338.61885 
L 344.106775 -335.115031 
L 345.172969 -331.611212 
L 346.340013 -328.107394 
L 347.80223 -324.603575 
L 349.813608 -321.099756 
L 352.469531 -317.595938 
L 355.608832 -314.092119 
L 358.921834 -310.588301 
L 362.215398 -307.084482 
L 365.566805 -303.580663 
L 369.017074 -300.076845 
L 372.152581 -296.573026 
L 374.275954 -293.069207 
L 374.927807 -289.565389 
L 374.080928 -286.06157 
L 372.01715 -282.557751 
L 369.082205 -279.053933 
L 365.439485 -275.550114 
L 361.165522 -272.046295 
L 356.563973 -268.542477 
L 352.116015 -265.038658 
L 348.187672 -261.534839 
L 344.981793 -258.031021 
L 342.560531 -254.527202 
L 340.743667 -251.023383 
L 339.203684 -247.519565 
L 337.799189 -244.015746 
L 336.676098 -240.511928 
L 335.989842 -237.008109 
L 335.686347 -233.50429 
z
" style="stroke: #3d3d3d; stroke-width: 1.875"/>
                </defs>
                <g clip-path="url(#p0c0371d2dc)">
                    <use xlink:href="#m451a8b868d" x="0" y="864"
                         style="fill: #3a923a; stroke: #3d3d3d; stroke-width: 1.875"/>
                </g>
            </g>
            <g id="FillBetweenPolyCollection_4">
                <defs>
                    <path id="m4827291793" d="M 434.04986 -233.54989
L 433.89034 -233.54989 
L 433.699096 -236.78722 
L 433.249441 -240.02455 
L 432.433902 -243.26188 
L 431.258879 -246.49921 
L 429.844036 -249.73654 
L 428.301989 -252.97387 
L 426.619294 -256.2112 
L 424.632115 -259.44853 
L 422.089128 -262.68586 
L 418.780944 -265.92319 
L 414.694134 -269.160519 
L 410.077009 -272.397849 
L 405.354935 -275.635179 
L 401.027515 -278.872509 
L 397.620713 -282.109839 
L 395.496421 -285.347169 
L 394.608571 -288.584499 
L 394.684265 -291.821829 
L 395.670152 -295.059159 
L 397.709394 -298.296489 
L 400.695567 -301.533819 
L 404.146902 -304.771149 
L 407.545518 -308.008479 
L 410.630846 -311.245809 
L 413.37412 -314.483139 
L 415.817551 -317.720469 
L 417.993343 -320.957799 
L 419.905389 -324.195129 
L 421.508552 -327.432459 
L 422.754393 -330.669789 
L 423.709999 -333.907119 
L 424.56241 -337.144449 
L 425.45057 -340.381779 
L 426.3806 -343.619109 
L 427.327464 -346.856439 
L 428.285395 -350.093769 
L 429.198519 -353.331099 
L 429.956512 -356.568429 
L 430.482476 -359.805759 
L 430.79125 -363.043089 
L 430.981252 -366.280419 
L 431.177177 -369.517749 
L 431.442587 -372.755079 
L 431.731753 -375.992409 
L 431.954274 -379.229739 
L 432.095272 -382.467069 
L 432.227305 -385.704399 
L 432.396288 -388.941729 
L 432.569776 -392.179059 
L 432.71535 -395.416389 
L 432.849595 -398.653719 
L 432.992586 -401.891049 
L 433.136987 -405.128379 
L 433.268134 -408.365709 
L 433.376107 -411.603039 
L 433.452506 -414.840369 
L 433.494924 -418.077699 
L 433.509947 -421.315029 
L 433.510951 -424.552359 
L 433.517808 -427.789689 
L 433.548081 -431.027018 
L 433.598514 -434.264348 
L 433.643614 -437.501678 
L 433.663413 -440.739008 
L 433.667574 -443.976338 
L 433.683888 -447.213668 
L 433.727587 -450.450998 
L 433.78738 -453.688328 
L 433.838129 -456.925658 
L 433.862728 -460.162988 
L 433.862847 -463.400318 
L 433.853757 -466.637648 
L 433.849865 -469.874978 
L 433.853651 -473.112308 
L 433.860476 -476.349638 
L 433.870273 -479.586968 
L 433.887191 -482.824298 
L 433.911066 -486.061628 
L 433.935592 -489.298958 
L 433.953938 -492.536288 
L 433.963451 -495.773618 
L 433.964583 -499.010948 
L 433.956836 -502.248278 
L 433.938443 -505.485608 
L 433.91211 -508.722938 
L 433.889082 -511.960268 
L 433.882087 -515.197598 
L 433.893121 -518.434928 
L 433.911542 -521.672258 
L 433.924648 -524.909588 
L 433.928666 -528.146918 
L 433.92869 -531.384248 
L 433.929193 -534.621578 
L 433.929782 -537.858908 
L 433.931049 -541.096238 
L 433.936722 -544.333568 
L 433.947386 -547.570898 
L 433.958424 -550.808228 
L 433.965658 -554.045558 
L 433.974541 -554.045558 
L 433.974541 -554.045558 
L 433.981776 -550.808228 
L 433.992814 -547.570898 
L 434.003477 -544.333568 
L 434.00915 -541.096238 
L 434.010417 -537.858908 
L 434.011007 -534.621578 
L 434.01151 -531.384248 
L 434.011533 -528.146918 
L 434.015551 -524.909588 
L 434.028658 -521.672258 
L 434.047079 -518.434928 
L 434.058113 -515.197598 
L 434.051118 -511.960268 
L 434.02809 -508.722938 
L 434.001757 -505.485608 
L 433.983363 -502.248278 
L 433.975617 -499.010948 
L 433.976749 -495.773618 
L 433.986262 -492.536288 
L 434.004608 -489.298958 
L 434.029133 -486.061628 
L 434.053009 -482.824298 
L 434.069926 -479.586968 
L 434.079723 -476.349638 
L 434.086549 -473.112308 
L 434.090335 -469.874978 
L 434.086442 -466.637648 
L 434.077353 -463.400318 
L 434.077471 -460.162988 
L 434.102071 -456.925658 
L 434.152819 -453.688328 
L 434.212613 -450.450998 
L 434.256312 -447.213668 
L 434.272625 -443.976338 
L 434.276786 -440.739008 
L 434.296585 -437.501678 
L 434.341686 -434.264348 
L 434.392118 -431.027018 
L 434.422392 -427.789689 
L 434.429248 -424.552359 
L 434.430253 -421.315029 
L 434.445275 -418.077699 
L 434.487693 -414.840369 
L 434.564093 -411.603039 
L 434.672065 -408.365709 
L 434.803212 -405.128379 
L 434.947613 -401.891049 
L 435.090605 -398.653719 
L 435.22485 -395.416389 
L 435.370423 -392.179059 
L 435.543911 -388.941729 
L 435.712895 -385.704399 
L 435.844927 -382.467069 
L 435.985925 -379.229739 
L 436.208446 -375.992409 
L 436.497613 -372.755079 
L 436.763022 -369.517749 
L 436.958947 -366.280419 
L 437.148949 -363.043089 
L 437.457723 -359.805759 
L 437.983688 -356.568429 
L 438.741681 -353.331099 
L 439.654804 -350.093769 
L 440.612736 -346.856439 
L 441.5596 -343.619109 
L 442.48963 -340.381779 
L 443.37779 -337.144449 
L 444.230201 -333.907119 
L 445.185807 -330.669789 
L 446.431648 -327.432459 
L 448.03481 -324.195129 
L 449.946856 -320.957799 
L 452.122648 -317.720469 
L 454.566079 -314.483139 
L 457.309353 -311.245809 
L 460.394681 -308.008479 
L 463.793297 -304.771149 
L 467.244632 -301.533819 
L 470.230805 -298.296489 
L 472.270048 -295.059159 
L 473.255934 -291.821829 
L 473.331628 -288.584499 
L 472.443779 -285.347169 
L 470.319486 -282.109839 
L 466.912685 -278.872509 
L 462.585265 -275.635179 
L 457.863191 -272.397849 
L 453.246065 -269.160519 
L 449.159255 -265.92319 
L 445.851072 -262.68586 
L 443.308085 -259.44853 
L 441.320905 -256.2112 
L 439.638211 -252.97387 
L 438.096164 -249.73654 
L 436.681321 -246.49921 
L 435.506297 -243.26188 
L 434.690759 -240.02455 
L 434.241103 -236.78722 
L 434.04986 -233.54989 
z
" style="stroke: #3d3d3d; stroke-width: 1.875"/>
                </defs>
                <g clip-path="url(#p0c0371d2dc)">
                    <use xlink:href="#m4827291793" x="0" y="864"
                         style="fill: #c03d3e; stroke: #3d3d3d; stroke-width: 1.875"/>
                </g>
            </g>
            <g id="FillBetweenPolyCollection_5">
                <defs>
                    <path id="m0d6b147306" d="M 532.439975 -233.199454
L 532.307866 -233.199454 
L 532.121229 -236.877905 
L 531.655533 -240.556356 
L 530.794165 -244.234807 
L 529.532893 -247.913258 
L 527.913014 -251.591709 
L 525.882534 -255.270159 
L 523.25751 -258.94861 
L 519.789624 -262.627061 
L 515.335259 -266.305512 
L 510.053733 -269.983963 
L 504.438936 -273.662414 
L 499.231329 -277.340865 
L 495.291839 -281.019315 
L 493.227475 -284.697766 
L 493.012392 -288.376217 
L 494.235334 -292.054668 
L 496.557349 -295.733119 
L 499.694176 -299.41157 
L 503.349086 -303.090021 
L 507.242559 -306.768471 
L 510.974548 -310.446922 
L 514.118411 -314.125373 
L 516.549778 -317.803824 
L 518.503449 -321.482275 
L 520.31636 -325.160726 
L 522.120268 -328.839177 
L 523.757978 -332.517628 
L 525.004509 -336.196078 
L 525.837807 -339.874529 
L 526.438759 -343.55298 
L 526.969818 -347.231431 
L 527.486769 -350.909882 
L 528.039345 -354.588333 
L 528.677801 -358.266784 
L 529.339843 -361.945234 
L 529.879445 -365.623685 
L 530.245769 -369.302136 
L 530.510624 -372.980587 
L 530.726892 -376.659038 
L 530.888283 -380.337489 
L 530.99325 -384.01594 
L 531.067637 -387.694391 
L 531.14245 -391.372841 
L 531.225407 -395.051292 
L 531.307233 -398.729743 
L 531.397334 -402.408194 
L 531.513945 -406.086645 
L 531.644216 -409.765096 
L 531.759769 -413.443547 
L 531.85146 -417.121997 
L 531.918303 -420.800448 
L 531.959422 -424.478899 
L 531.991177 -428.15735 
L 532.035076 -431.835801 
L 532.083204 -435.514252 
L 532.104747 -439.192703 
L 532.090904 -442.871153 
L 532.0719 -446.549604 
L 532.083536 -450.228055 
L 532.132632 -453.906506 
L 532.200205 -457.584957 
L 532.262976 -461.263408 
L 532.305464 -464.941859 
L 532.324964 -468.62031 
L 532.331393 -472.29876 
L 532.333742 -475.977211 
L 532.329954 -479.655662 
L 532.318174 -483.334113 
L 532.30676 -487.012564 
L 532.303797 -490.691015 
L 532.307015 -494.369466 
L 532.310809 -498.047916 
L 532.315261 -501.726367 
L 532.324404 -505.404818 
L 532.339499 -509.083269 
L 532.355719 -512.76172 
L 532.366963 -516.440171 
L 532.371972 -520.118622 
L 532.372922 -523.797073 
L 532.370421 -527.475523 
L 532.36106 -531.153974 
L 532.339979 -534.832425 
L 532.309754 -538.510876 
L 532.286296 -542.189327 
L 532.286624 -545.867778 
L 532.308351 -549.546229 
L 532.330885 -553.224679 
L 532.339348 -556.90313 
L 532.338937 -560.581581 
L 532.342511 -564.260032 
L 532.351412 -567.938483 
L 532.355119 -571.616934 
L 532.345227 -575.295385 
L 532.325782 -578.973836 
L 532.312289 -582.652286 
L 532.317445 -586.330737 
L 532.337206 -590.009188 
L 532.357058 -593.687639 
L 532.368477 -597.36609 
L 532.379364 -597.36609 
L 532.379364 -597.36609 
L 532.390783 -593.687639 
L 532.410636 -590.009188 
L 532.430397 -586.330737 
L 532.435553 -582.652286 
L 532.422059 -578.973836 
L 532.402615 -575.295385 
L 532.392723 -571.616934 
L 532.396429 -567.938483 
L 532.405331 -564.260032 
L 532.408905 -560.581581 
L 532.408494 -556.90313 
L 532.416956 -553.224679 
L 532.439491 -549.546229 
L 532.461218 -545.867778 
L 532.461545 -542.189327 
L 532.438088 -538.510876 
L 532.407862 -534.832425 
L 532.386782 -531.153974 
L 532.377421 -527.475523 
L 532.374919 -523.797073 
L 532.375869 -520.118622 
L 532.380879 -516.440171 
L 532.392122 -512.76172 
L 532.408343 -509.083269 
L 532.423438 -505.404818 
L 532.432581 -501.726367 
L 532.437032 -498.047916 
L 532.440827 -494.369466 
L 532.444044 -490.691015 
L 532.441082 -487.012564 
L 532.429667 -483.334113 
L 532.417888 -479.655662 
L 532.4141 -475.977211 
L 532.416449 -472.29876 
L 532.422878 -468.62031 
L 532.442378 -464.941859 
L 532.484866 -461.263408 
L 532.547637 -457.584957 
L 532.61521 -453.906506 
L 532.664306 -450.228055 
L 532.675942 -446.549604 
L 532.656938 -442.871153 
L 532.643095 -439.192703 
L 532.664637 -435.514252 
L 532.712765 -431.835801 
L 532.756665 -428.15735 
L 532.78842 -424.478899 
L 532.829538 -420.800448 
L 532.896382 -417.121997 
L 532.988073 -413.443547 
L 533.103626 -409.765096 
L 533.233896 -406.086645 
L 533.350507 -402.408194 
L 533.440609 -398.729743 
L 533.522435 -395.051292 
L 533.605392 -391.372841 
L 533.680205 -387.694391 
L 533.754591 -384.01594 
L 533.859559 -380.337489 
L 534.02095 -376.659038 
L 534.237218 -372.980587 
L 534.502073 -369.302136 
L 534.868397 -365.623685 
L 535.407999 -361.945234 
L 536.070041 -358.266784 
L 536.708496 -354.588333 
L 537.261073 -350.909882 
L 537.778024 -347.231431 
L 538.309082 -343.55298 
L 538.910035 -339.874529 
L 539.743333 -336.196078 
L 540.989864 -332.517628 
L 542.627574 -328.839177 
L 544.431482 -325.160726 
L 546.244393 -321.482275 
L 548.198064 -317.803824 
L 550.629431 -314.125373 
L 553.773294 -310.446922 
L 557.505283 -306.768471 
L 561.398755 -303.090021 
L 565.053666 -299.41157 
L 568.190493 -295.733119 
L 570.512507 -292.054668 
L 571.735449 -288.376217 
L 571.520367 -284.697766 
L 569.456003 -281.019315 
L 565.516513 -277.340865 
L 560.308906 -273.662414 
L 554.694109 -269.983963 
L 549.412583 -266.305512 
L 544.958218 -262.627061 
L 541.490332 -258.94861 
L 538.865307 -255.270159 
L 536.834828 -251.591709 
L 535.214949 -247.913258 
L 533.953677 -244.234807 
L 533.092309 -240.556356 
L 532.626613 -236.877905 
L 532.439975 -233.199454 
z
" style="stroke: #3d3d3d; stroke-width: 1.875"/>
                </defs>
                <g clip-path="url(#p0c0371d2dc)">
                    <use xlink:href="#m0d6b147306" x="0" y="864"
                         style="fill: #9372b2; stroke: #3d3d3d; stroke-width: 1.875"/>
                </g>
            </g>
            <g id="FillBetweenPolyCollection_6">
                <defs>
                    <path id="m32c979bb47" d="M 630.918892 -232.453837
L 630.636592 -232.453837 
L 630.269537 -236.219338 
L 629.380682 -239.984838 
L 627.753513 -243.750339 
L 625.424263 -247.515839 
L 622.687015 -251.28134 
L 619.837446 -255.04684 
L 616.907419 -258.812341 
L 613.691771 -262.577841 
L 610.056559 -266.343341 
L 606.142636 -270.108842 
L 602.207009 -273.874342 
L 598.396346 -277.639843 
L 594.894584 -281.405343 
L 592.285389 -285.170844 
L 591.416213 -288.936344 
L 592.668135 -292.701845 
L 595.576751 -296.467345 
L 599.276329 -300.232846 
L 603.110637 -303.998346 
L 606.815032 -307.763847 
L 610.296172 -311.529347 
L 613.375625 -315.294848 
L 615.84494 -319.060348 
L 617.705782 -322.825848 
L 619.199362 -326.591349 
L 620.571574 -330.356849 
L 621.860547 -334.12235 
L 622.950546 -337.88785 
L 623.784672 -341.653351 
L 624.443445 -345.418851 
L 625.044181 -349.184352 
L 625.624539 -352.949852 
L 626.141948 -356.715353 
L 626.579289 -360.480853 
L 626.989319 -364.246354 
L 627.418065 -368.011854 
L 627.864342 -371.777355 
L 628.312993 -375.542855 
L 628.738771 -379.308356 
L 629.100965 -383.073856 
L 629.365559 -386.839356 
L 629.519195 -390.604857 
L 629.585439 -394.370357 
L 629.638306 -398.135858 
L 629.749425 -401.901358 
L 629.910399 -405.666859 
L 630.054862 -409.432359 
L 630.146105 -413.19786 
L 630.196456 -416.96336 
L 630.228086 -420.728861 
L 630.254608 -424.494361 
L 630.281608 -428.259862 
L 630.30638 -432.025362 
L 630.326127 -435.790863 
L 630.347608 -439.556363 
L 630.384148 -443.321863 
L 630.443307 -447.087364 
L 630.510699 -450.852864 
L 630.553889 -454.618365 
L 630.561549 -458.383865 
L 630.564526 -462.149366 
L 630.595575 -465.914866 
L 630.64434 -469.680367 
L 630.673978 -473.445867 
L 630.669047 -477.211368 
L 630.64786 -480.976868 
L 630.636529 -484.742369 
L 630.64686 -488.507869 
L 630.673557 -492.27337 
L 630.701775 -496.03887 
L 630.72149 -499.80437 
L 630.734317 -503.569871 
L 630.741846 -507.335371 
L 630.737915 -511.100872 
L 630.720662 -514.866372 
L 630.702562 -518.631873 
L 630.698066 -522.397373 
L 630.70749 -526.162874 
L 630.722841 -529.928374 
L 630.739999 -533.693875 
L 630.756609 -537.459375 
L 630.768787 -541.224876 
L 630.774986 -544.990376 
L 630.777137 -548.755877 
L 630.777648 -552.521377 
L 630.777732 -556.286877 
L 630.777741 -560.052378 
L 630.77774 -563.817878 
L 630.777725 -567.583379 
L 630.7776 -571.348879 
L 630.776897 -575.11438 
L 630.774186 -578.87988 
L 630.767186 -582.645381 
L 630.755645 -586.410881 
L 630.745118 -590.176382 
L 630.743773 -593.941882 
L 630.752799 -597.707383 
L 630.764825 -601.472883 
L 630.773025 -605.238384 
L 630.782459 -605.238384 
L 630.782459 -605.238384 
L 630.790659 -601.472883 
L 630.802685 -597.707383 
L 630.81171 -593.941882 
L 630.810366 -590.176382 
L 630.799839 -586.410881 
L 630.788297 -582.645381 
L 630.781298 -578.87988 
L 630.778587 -575.11438 
L 630.777883 -571.348879 
L 630.777759 -567.583379 
L 630.777743 -563.817878 
L 630.777743 -560.052378 
L 630.777752 -556.286877 
L 630.777836 -552.521377 
L 630.778347 -548.755877 
L 630.780498 -544.990376 
L 630.786696 -541.224876 
L 630.798875 -537.459375 
L 630.815485 -533.693875 
L 630.832643 -529.928374 
L 630.847994 -526.162874 
L 630.857418 -522.397373 
L 630.852922 -518.631873 
L 630.834822 -514.866372 
L 630.817568 -511.100872 
L 630.813638 -507.335371 
L 630.821167 -503.569871 
L 630.833994 -499.80437 
L 630.853708 -496.03887 
L 630.881927 -492.27337 
L 630.908623 -488.507869 
L 630.918955 -484.742369 
L 630.907624 -480.976868 
L 630.886436 -477.211368 
L 630.881506 -473.445867 
L 630.911144 -469.680367 
L 630.959909 -465.914866 
L 630.990958 -462.149366 
L 630.993935 -458.383865 
L 631.001595 -454.618365 
L 631.044784 -450.852864 
L 631.112177 -447.087364 
L 631.171336 -443.321863 
L 631.207876 -439.556363 
L 631.229357 -435.790863 
L 631.249104 -432.025362 
L 631.273876 -428.259862 
L 631.300876 -424.494361 
L 631.327398 -420.728861 
L 631.359028 -416.96336 
L 631.409379 -413.19786 
L 631.500622 -409.432359 
L 631.645085 -405.666859 
L 631.806059 -401.901358 
L 631.917178 -398.135858 
L 631.970045 -394.370357 
L 632.036289 -390.604857 
L 632.189924 -386.839356 
L 632.454519 -383.073856 
L 632.816713 -379.308356 
L 633.242491 -375.542855 
L 633.691142 -371.777355 
L 634.137419 -368.011854 
L 634.566165 -364.246354 
L 634.976195 -360.480853 
L 635.413535 -356.715353 
L 635.930944 -352.949852 
L 636.511303 -349.184352 
L 637.112039 -345.418851 
L 637.770812 -341.653351 
L 638.604937 -337.88785 
L 639.694937 -334.12235 
L 640.983909 -330.356849 
L 642.356121 -326.591349 
L 643.849702 -322.825848 
L 645.710544 -319.060348 
L 648.179859 -315.294848 
L 651.259312 -311.529347 
L 654.740452 -307.763847 
L 658.444847 -303.998346 
L 662.279155 -300.232846 
L 665.978733 -296.467345 
L 668.887349 -292.701845 
L 670.13927 -288.936344 
L 669.270095 -285.170844 
L 666.6609 -281.405343 
L 663.159138 -277.639843 
L 659.348475 -273.874342 
L 655.412848 -270.108842 
L 651.498925 -266.343341 
L 647.863713 -262.577841 
L 644.648065 -258.812341 
L 641.718038 -255.04684 
L 638.868469 -251.28134 
L 636.13122 -247.515839 
L 633.801971 -243.750339 
L 632.174802 -239.984838 
L 631.285947 -236.219338 
L 630.918892 -232.453837 
z
" style="stroke: #3d3d3d; stroke-width: 1.875"/>
                </defs>
                <g clip-path="url(#p0c0371d2dc)">
                    <use xlink:href="#m32c979bb47" x="0" y="864"
                         style="fill: #845b53; stroke: #3d3d3d; stroke-width: 1.875"/>
                </g>
            </g>
            <g id="line2d_7">
                <path d="M 138.758637 618.928947
L 138.758637 488.338561 
" clip-path="url(#p0c0371d2dc)" style="fill: none; stroke: #3d3d3d; stroke-width: 2.8125; stroke-linecap: round"/>
            </g>
            <g id="line2d_8">
                <path d="M 138.758637 589.732632
L 138.758637 549.050936 
" clip-path="url(#p0c0371d2dc)" style="fill: none; stroke: #3d3d3d; stroke-width: 8.4375; stroke-linecap: round"/>
            </g>
            <g id="line2d_9">
                <path d="M 138.758637 572.682945
" clip-path="url(#p0c0371d2dc)" style="fill: none; stroke: #3d3d3d; stroke-width: 2.25; stroke-linecap: round"/>
                <defs>
                    <path id="m25163ced0b" d="M 3.515625 0
L -3.515625 -0 
" style="stroke: #ffffff; stroke-width: 1.6875"/>
                </defs>
                <g clip-path="url(#p0c0371d2dc)">
                    <use xlink:href="#m25163ced0b" x="138.758637" y="572.682945"
                         style="fill: #ffffff; stroke: #ffffff; stroke-width: 1.6875"/>
                </g>
            </g>
            <g id="line2d_10">
                <path d="M 237.162458 618.91823
L 237.162458 512.081461 
" clip-path="url(#p0c0371d2dc)" style="fill: none; stroke: #3d3d3d; stroke-width: 2.8125; stroke-linecap: round"/>
            </g>
            <g id="line2d_11">
                <path d="M 237.162458 588.749279
L 237.162458 558.062968 
" clip-path="url(#p0c0371d2dc)" style="fill: none; stroke: #3d3d3d; stroke-width: 8.4375; stroke-linecap: round"/>
            </g>
            <g id="line2d_12">
                <path d="M 237.162458 575.537762
" clip-path="url(#p0c0371d2dc)" style="fill: none; stroke: #3d3d3d; stroke-width: 2.25; stroke-linecap: round"/>
                <g clip-path="url(#p0c0371d2dc)">
                    <use xlink:href="#m25163ced0b" x="237.162458" y="575.537762"
                         style="fill: #ffffff; stroke: #ffffff; stroke-width: 1.6875"/>
                </g>
            </g>
            <g id="line2d_13">
                <path d="M 335.566279 618.884455
L 335.566279 505.491541 
" clip-path="url(#p0c0371d2dc)" style="fill: none; stroke: #3d3d3d; stroke-width: 2.8125; stroke-linecap: round"/>
            </g>
            <g id="line2d_14">
                <path d="M 335.566279 583.899745
L 335.566279 552.483973 
" clip-path="url(#p0c0371d2dc)" style="fill: none; stroke: #3d3d3d; stroke-width: 8.4375; stroke-linecap: round"/>
            </g>
            <g id="line2d_15">
                <path d="M 335.566279 570.04157
" clip-path="url(#p0c0371d2dc)" style="fill: none; stroke: #3d3d3d; stroke-width: 2.25; stroke-linecap: round"/>
                <g clip-path="url(#p0c0371d2dc)">
                    <use xlink:href="#m25163ced0b" x="335.566279" y="570.04157"
                         style="fill: #ffffff; stroke: #ffffff; stroke-width: 1.6875"/>
                </g>
            </g>
            <g id="line2d_16">
                <path d="M 433.9701 618.857622
L 433.9701 500.865072 
" clip-path="url(#p0c0371d2dc)" style="fill: none; stroke: #3d3d3d; stroke-width: 2.8125; stroke-linecap: round"/>
            </g>
            <g id="line2d_17">
                <path d="M 433.9701 582.046713
L 433.9701 549.545971 
" clip-path="url(#p0c0371d2dc)" style="fill: none; stroke: #3d3d3d; stroke-width: 8.4375; stroke-linecap: round"/>
            </g>
            <g id="line2d_18">
                <path d="M 433.9701 568.23356
" clip-path="url(#p0c0371d2dc)" style="fill: none; stroke: #3d3d3d; stroke-width: 2.25; stroke-linecap: round"/>
                <g clip-path="url(#p0c0371d2dc)">
                    <use xlink:href="#m25163ced0b" x="433.9701" y="568.23356"
                         style="fill: #ffffff; stroke: #ffffff; stroke-width: 1.6875"/>
                </g>
            </g>
            <g id="line2d_19">
                <path d="M 532.373921 618.892836
L 532.373921 505.875769 
" clip-path="url(#p0c0371d2dc)" style="fill: none; stroke: #3d3d3d; stroke-width: 2.8125; stroke-linecap: round"/>
            </g>
            <g id="line2d_20">
                <path d="M 532.373921 583.543079
L 532.373921 552.463065 
" clip-path="url(#p0c0371d2dc)" style="fill: none; stroke: #3d3d3d; stroke-width: 8.4375; stroke-linecap: round"/>
            </g>
            <g id="line2d_21">
                <path d="M 532.373921 570.559282
" clip-path="url(#p0c0371d2dc)" style="fill: none; stroke: #3d3d3d; stroke-width: 2.25; stroke-linecap: round"/>
                <g clip-path="url(#p0c0371d2dc)">
                    <use xlink:href="#m25163ced0b" x="532.373921" y="570.559282"
                         style="fill: #ffffff; stroke: #ffffff; stroke-width: 1.6875"/>
                </g>
            </g>
            <g id="line2d_22">
                <path d="M 630.777742 618.80226
L 630.777742 502.148849 
" clip-path="url(#p0c0371d2dc)" style="fill: none; stroke: #3d3d3d; stroke-width: 2.8125; stroke-linecap: round"/>
            </g>
            <g id="line2d_23">
                <path d="M 630.777742 585.696226
L 630.777742 552.273166 
" clip-path="url(#p0c0371d2dc)" style="fill: none; stroke: #3d3d3d; stroke-width: 8.4375; stroke-linecap: round"/>
            </g>
            <g id="line2d_24">
                <path d="M 630.777742 571.433714
" clip-path="url(#p0c0371d2dc)" style="fill: none; stroke: #3d3d3d; stroke-width: 2.25; stroke-linecap: round"/>
                <g clip-path="url(#p0c0371d2dc)">
                    <use xlink:href="#m25163ced0b" x="630.777742" y="571.433714"
                         style="fill: #ffffff; stroke: #ffffff; stroke-width: 1.6875"/>
                </g>
            </g>
            <g id="line2d_25">
                <path d="M 138.758637 460.144486
L 138.758637 450.746461 
L 237.162458 450.746461 
L 237.162458 460.144486 
" style="fill: none; stroke: #333333; stroke-width: 1.5; stroke-linecap: round"/>
            </g>
            <g id="line2d_26">
                <path d="M 237.162458 425.940467
L 237.162458 416.542442 
L 335.566279 416.542442 
L 335.566279 425.940467 
" style="fill: none; stroke: #333333; stroke-width: 1.5; stroke-linecap: round"/>
            </g>
            <g id="line2d_27">
                <path d="M 335.566279 391.736448
L 335.566279 382.338423 
L 433.9701 382.338423 
L 433.9701 391.736448 
" style="fill: none; stroke: #333333; stroke-width: 1.5; stroke-linecap: round"/>
            </g>
            <g id="line2d_28">
                <path d="M 433.9701 357.532429
L 433.9701 348.134404 
L 532.373921 348.134404 
L 532.373921 357.532429 
" style="fill: none; stroke: #333333; stroke-width: 1.5; stroke-linecap: round"/>
            </g>
            <g id="line2d_29">
                <path d="M 138.758637 357.532429
L 138.758637 348.134404 
L 335.566279 348.134404 
L 335.566279 357.532429 
" style="fill: none; stroke: #333333; stroke-width: 1.5; stroke-linecap: round"/>
            </g>
            <g id="line2d_30">
                <path d="M 237.162458 323.32841
L 237.162458 313.930385 
L 433.9701 313.930385 
L 433.9701 323.32841 
" style="fill: none; stroke: #333333; stroke-width: 1.5; stroke-linecap: round"/>
            </g>
            <g id="line2d_31">
                <path d="M 433.9701 289.124391
L 433.9701 279.726366 
L 630.777742 279.726366 
L 630.777742 289.124391 
" style="fill: none; stroke: #333333; stroke-width: 1.5; stroke-linecap: round"/>
            </g>
            <g id="line2d_32">
                <path d="M 138.758637 254.920372
L 138.758637 245.522347 
L 433.9701 245.522347 
L 433.9701 254.920372 
" style="fill: none; stroke: #333333; stroke-width: 1.5; stroke-linecap: round"/>
            </g>
            <g id="line2d_33">
                <path d="M 237.162458 220.716353
L 237.162458 211.318328 
L 532.373921 211.318328 
L 532.373921 220.716353 
" style="fill: none; stroke: #333333; stroke-width: 1.5; stroke-linecap: round"/>
            </g>
            <g id="line2d_34">
                <path d="M 335.566279 186.512334
L 335.566279 177.114309 
L 630.777742 177.114309 
L 630.777742 186.512334 
" style="fill: none; stroke: #333333; stroke-width: 1.5; stroke-linecap: round"/>
            </g>
            <g id="line2d_35">
                <path d="M 138.758637 152.308315
L 138.758637 142.91029 
L 532.373921 142.91029 
L 532.373921 152.308315 
" style="fill: none; stroke: #333333; stroke-width: 1.5; stroke-linecap: round"/>
            </g>
            <g id="line2d_36">
                <path d="M 237.162458 118.104296
L 237.162458 108.706271 
L 630.777742 108.706271 
L 630.777742 118.104296 
" style="fill: none; stroke: #333333; stroke-width: 1.5; stroke-linecap: round"/>
            </g>
            <g id="line2d_37">
                <path d="M 138.758637 83.900277
L 138.758637 74.502252 
L 630.777742 74.502252 
L 630.777742 83.900277 
" style="fill: none; stroke: #333333; stroke-width: 1.5; stroke-linecap: round"/>
            </g>
            <g id="patch_3">
                <path d="M 70.86 654.580631
L 70.86 38.4 
" style="fill: none; stroke: #cccccc; stroke-width: 1.875; stroke-linejoin: miter; stroke-linecap: square"/>
            </g>
            <g id="patch_4">
                <path d="M 698.676378 654.580631
L 698.676378 38.4 
" style="fill: none; stroke: #cccccc; stroke-width: 1.875; stroke-linejoin: miter; stroke-linecap: square"/>
            </g>
            <g id="patch_5">
                <path d="M 70.86 654.580631
L 698.676378 654.580631 
" style="fill: none; stroke: #cccccc; stroke-width: 1.875; stroke-linejoin: miter; stroke-linecap: square"/>
            </g>
            <g id="patch_6">
                <path d="M 70.86 38.4
L 698.676378 38.4 
" style="fill: none; stroke: #cccccc; stroke-width: 1.875; stroke-linejoin: miter; stroke-linecap: square"/>
            </g>
            <g id="text_15">
                <!-- *** -->
                <g style="fill: #262626" transform="translate(177.451641 446.168961) scale(0.18 -0.18)">
                    <defs>
                        <path id="ArialMT-2a" d="M 200 3741
L 344 4184 
Q 841 4009 1066 3881 
Q 1006 4447 1003 4659 
L 1456 4659 
Q 1447 4350 1384 3884 
Q 1706 4047 2122 4184 
L 2266 3741 
Q 1869 3609 1488 3566 
Q 1678 3400 2025 2975 
L 1650 2709 
Q 1469 2956 1222 3381 
Q 991 2941 816 2709 
L 447 2975 
Q 809 3422 966 3566 
Q 563 3644 200 3741 
z
" transform="scale(0.015625)"/>
                    </defs>
                    <use xlink:href="#ArialMT-2a"/>
                    <use xlink:href="#ArialMT-2a" transform="translate(38.916016 0)"/>
                    <use xlink:href="#ArialMT-2a" transform="translate(77.832031 0)"/>
                </g>
            </g>
            <g id="text_16">
                <!-- **** -->
                <g style="fill: #262626" transform="translate(272.352493 411.964942) scale(0.18 -0.18)">
                    <use xlink:href="#ArialMT-2a"/>
                    <use xlink:href="#ArialMT-2a" transform="translate(38.916016 0)"/>
                    <use xlink:href="#ArialMT-2a" transform="translate(77.832031 0)"/>
                    <use xlink:href="#ArialMT-2a" transform="translate(116.748047 0)"/>
                </g>
            </g>
            <g id="text_17">
                <!-- *** -->
                <g style="fill: #262626" transform="translate(374.259283 377.760923) scale(0.18 -0.18)">
                    <use xlink:href="#ArialMT-2a"/>
                    <use xlink:href="#ArialMT-2a" transform="translate(38.916016 0)"/>
                    <use xlink:href="#ArialMT-2a" transform="translate(77.832031 0)"/>
                </g>
            </g>
            <g id="text_18">
                <!-- *** -->
                <g style="fill: #262626" transform="translate(472.663104 343.556904) scale(0.18 -0.18)">
                    <use xlink:href="#ArialMT-2a"/>
                    <use xlink:href="#ArialMT-2a" transform="translate(38.916016 0)"/>
                    <use xlink:href="#ArialMT-2a" transform="translate(77.832031 0)"/>
                </g>
            </g>
            <g id="text_19">
                <!-- **** -->
                <g style="fill: #262626" transform="translate(223.150583 343.556904) scale(0.18 -0.18)">
                    <use xlink:href="#ArialMT-2a"/>
                    <use xlink:href="#ArialMT-2a" transform="translate(38.916016 0)"/>
                    <use xlink:href="#ArialMT-2a" transform="translate(77.832031 0)"/>
                    <use xlink:href="#ArialMT-2a" transform="translate(116.748047 0)"/>
                </g>
            </g>
            <g id="text_20">
                <!-- **** -->
                <g style="fill: #262626" transform="translate(321.554404 309.352885) scale(0.18 -0.18)">
                    <use xlink:href="#ArialMT-2a"/>
                    <use xlink:href="#ArialMT-2a" transform="translate(38.916016 0)"/>
                    <use xlink:href="#ArialMT-2a" transform="translate(77.832031 0)"/>
                    <use xlink:href="#ArialMT-2a" transform="translate(116.748047 0)"/>
                </g>
            </g>
            <g id="text_21">
                <!-- **** -->
                <g style="fill: #262626" transform="translate(518.362046 275.148866) scale(0.18 -0.18)">
                    <use xlink:href="#ArialMT-2a"/>
                    <use xlink:href="#ArialMT-2a" transform="translate(38.916016 0)"/>
                    <use xlink:href="#ArialMT-2a" transform="translate(77.832031 0)"/>
                    <use xlink:href="#ArialMT-2a" transform="translate(116.748047 0)"/>
                </g>
            </g>
            <g id="text_22">
                <!-- **** -->
                <g style="fill: #262626" transform="translate(272.352493 240.944847) scale(0.18 -0.18)">
                    <use xlink:href="#ArialMT-2a"/>
                    <use xlink:href="#ArialMT-2a" transform="translate(38.916016 0)"/>
                    <use xlink:href="#ArialMT-2a" transform="translate(77.832031 0)"/>
                    <use xlink:href="#ArialMT-2a" transform="translate(116.748047 0)"/>
                </g>
            </g>
            <g id="text_23">
                <!-- **** -->
                <g style="fill: #262626" transform="translate(370.756314 206.740828) scale(0.18 -0.18)">
                    <use xlink:href="#ArialMT-2a"/>
                    <use xlink:href="#ArialMT-2a" transform="translate(38.916016 0)"/>
                    <use xlink:href="#ArialMT-2a" transform="translate(77.832031 0)"/>
                    <use xlink:href="#ArialMT-2a" transform="translate(116.748047 0)"/>
                </g>
            </g>
            <g id="text_24">
                <!-- * -->
                <g style="fill: #262626" transform="translate(479.669042 172.536809) scale(0.18 -0.18)">
                    <use xlink:href="#ArialMT-2a"/>
                </g>
            </g>
            <g id="text_25">
                <!-- **** -->
                <g style="fill: #262626" transform="translate(321.554404 138.33279) scale(0.18 -0.18)">
                    <use xlink:href="#ArialMT-2a"/>
                    <use xlink:href="#ArialMT-2a" transform="translate(38.916016 0)"/>
                    <use xlink:href="#ArialMT-2a" transform="translate(77.832031 0)"/>
                    <use xlink:href="#ArialMT-2a" transform="translate(116.748047 0)"/>
                </g>
            </g>
            <g id="text_26">
                <!-- **** -->
                <g style="fill: #262626" transform="translate(419.958225 104.128771) scale(0.18 -0.18)">
                    <use xlink:href="#ArialMT-2a"/>
                    <use xlink:href="#ArialMT-2a" transform="translate(38.916016 0)"/>
                    <use xlink:href="#ArialMT-2a" transform="translate(77.832031 0)"/>
                    <use xlink:href="#ArialMT-2a" transform="translate(116.748047 0)"/>
                </g>
            </g>
            <g id="text_27">
                <!-- * -->
                <g style="fill: #262626" transform="translate(381.26522 69.924752) scale(0.18 -0.18)">
                    <use xlink:href="#ArialMT-2a"/>
                </g>
            </g>
            <g id="text_28">
                <!-- Ranked Novelty Error per Fold per Target -->
                <g style="fill: #262626" transform="translate(220.370533 32.4) scale(0.18 -0.18)">
                    <defs>
                        <path id="ArialMT-6b" d="M 425 0
L 425 4581 
L 988 4581 
L 988 1969 
L 2319 3319 
L 3047 3319 
L 1778 2088 
L 3175 0 
L 2481 0 
L 1384 1697 
L 988 1316 
L 988 0 
L 425 0 
z
" transform="scale(0.015625)"/>
                        <path id="ArialMT-20" transform="scale(0.015625)"/>
                        <path id="ArialMT-4e" d="M 488 0
L 488 4581 
L 1109 4581 
L 3516 984 
L 3516 4581 
L 4097 4581 
L 4097 0 
L 3475 0 
L 1069 3600 
L 1069 0 
L 488 0 
z
" transform="scale(0.015625)"/>
                        <path id="ArialMT-54" d="M 1659 0
L 1659 4041 
L 150 4041 
L 150 4581 
L 3781 4581 
L 3781 4041 
L 2266 4041 
L 2266 0 
L 1659 0 
z
" transform="scale(0.015625)"/>
                    </defs>
                    <use xlink:href="#ArialMT-52"/>
                    <use xlink:href="#ArialMT-61" transform="translate(72.216797 0)"/>
                    <use xlink:href="#ArialMT-6e" transform="translate(127.832031 0)"/>
                    <use xlink:href="#ArialMT-6b" transform="translate(183.447266 0)"/>
                    <use xlink:href="#ArialMT-65" transform="translate(233.447266 0)"/>
                    <use xlink:href="#ArialMT-64" transform="translate(289.0625 0)"/>
                    <use xlink:href="#ArialMT-20" transform="translate(344.677734 0)"/>
                    <use xlink:href="#ArialMT-4e" transform="translate(372.460938 0)"/>
                    <use xlink:href="#ArialMT-6f" transform="translate(444.677734 0)"/>
                    <use xlink:href="#ArialMT-76" transform="translate(500.292969 0)"/>
                    <use xlink:href="#ArialMT-65" transform="translate(550.292969 0)"/>
                    <use xlink:href="#ArialMT-6c" transform="translate(605.908203 0)"/>
                    <use xlink:href="#ArialMT-74" transform="translate(628.125 0)"/>
                    <use xlink:href="#ArialMT-79" transform="translate(655.908203 0)"/>
                    <use xlink:href="#ArialMT-20" transform="translate(705.908203 0)"/>
                    <use xlink:href="#ArialMT-45" transform="translate(733.691406 0)"/>
                    <use xlink:href="#ArialMT-72" transform="translate(800.390625 0)"/>
                    <use xlink:href="#ArialMT-72" transform="translate(833.691406 0)"/>
                    <use xlink:href="#ArialMT-6f" transform="translate(866.992188 0)"/>
                    <use xlink:href="#ArialMT-72" transform="translate(922.607422 0)"/>
                    <use xlink:href="#ArialMT-20" transform="translate(955.908203 0)"/>
                    <use xlink:href="#ArialMT-70" transform="translate(983.691406 0)"/>
                    <use xlink:href="#ArialMT-65" transform="translate(1039.306641 0)"/>
                    <use xlink:href="#ArialMT-72" transform="translate(1094.921875 0)"/>
                    <use xlink:href="#ArialMT-20" transform="translate(1128.222656 0)"/>
                    <use xlink:href="#ArialMT-46" transform="translate(1156.005859 0)"/>
                    <use xlink:href="#ArialMT-6f" transform="translate(1217.089844 0)"/>
                    <use xlink:href="#ArialMT-6c" transform="translate(1272.705078 0)"/>
                    <use xlink:href="#ArialMT-64" transform="translate(1294.921875 0)"/>
                    <use xlink:href="#ArialMT-20" transform="translate(1350.537109 0)"/>
                    <use xlink:href="#ArialMT-70" transform="translate(1378.320312 0)"/>
                    <use xlink:href="#ArialMT-65" transform="translate(1433.935547 0)"/>
                    <use xlink:href="#ArialMT-72" transform="translate(1489.550781 0)"/>
                    <use xlink:href="#ArialMT-20" transform="translate(1522.851562 0)"/>
                    <use xlink:href="#ArialMT-54" transform="translate(1548.884766 0)"/>
                    <use xlink:href="#ArialMT-61" transform="translate(1598.84375 0)"/>
                    <use xlink:href="#ArialMT-72" transform="translate(1654.458984 0)"/>
                    <use xlink:href="#ArialMT-67" transform="translate(1687.759766 0)"/>
                    <use xlink:href="#ArialMT-65" transform="translate(1743.375 0)"/>
                    <use xlink:href="#ArialMT-74" transform="translate(1798.990234 0)"/>
                </g>
            </g>
        </g>
    </g>
    <defs>
        <clipPath id="p0c0371d2dc">
            <rect x="70.86" y="38.4" width="627.816378" height="616.180631"/>
        </clipPath>
    </defs>
</svg>
