<?xml version="1.0" encoding="utf-8" standalone="no"?>
<!DOCTYPE svg PUBLIC "-//W3C//DTD SVG 1.1//EN"
  "http://www.w3.org/Graphics/SVG/1.1/DTD/svg11.dtd">
<svg xmlns:xlink="http://www.w3.org/1999/xlink" width="576pt" height="936pt" viewBox="0 0 576 936" xmlns="http://www.w3.org/2000/svg" version="1.1">
 <metadata>
  <rdf:RDF xmlns:dc="http://purl.org/dc/elements/1.1/" xmlns:cc="http://creativecommons.org/ns#" xmlns:rdf="http://www.w3.org/1999/02/22-rdf-syntax-ns#">
   <cc:Work>
    <dc:type rdf:resource="http://purl.org/dc/dcmitype/StillImage"/>
    <dc:date>2025-02-23T00:14:29.446983</dc:date>
    <dc:format>image/svg+xml</dc:format>
    <dc:creator>
     <cc:Agent>
      <dc:title>Matplotlib v3.10.0, https://matplotlib.org/</dc:title>
     </cc:Agent>
    </dc:creator>
   </cc:Work>
  </rdf:RDF>
 </metadata>
 <defs>
  <style type="text/css">*{stroke-linejoin: round; stroke-linecap: butt}</style>
 </defs>
 <g id="figure_1">
  <g id="patch_1">
   <path d="M 0 936 
L 576 936 
L 576 0 
L 0 0 
z
" style="fill: #ffffff"/>
  </g>
  <g id="axes_1">
   <g id="patch_2">
    <path d="M 89.22 726.580631 
L 542.606786 726.580631 
L 542.606786 38.4 
L 89.22 38.4 
z
" style="fill: #ffffff"/>
   </g>
   <g id="matplotlib.axis_1">
    <g id="xtick_1">
     <g id="text_1">
      <!-- RandomSplit -->
      <g style="fill: #262626" transform="translate(107.944635 814.367284) rotate(-45) scale(0.165 -0.165)">
       <defs>
        <path id="ArialMT-52" d="M 503 0 
L 503 4581 
L 2534 4581 
Q 3147 4581 3465 4457 
Q 3784 4334 3975 4021 
Q 4166 3709 4166 3331 
Q 4166 2844 3850 2509 
Q 3534 2175 2875 2084 
Q 3116 1969 3241 1856 
Q 3506 1613 3744 1247 
L 4541 0 
L 3778 0 
L 3172 953 
Q 2906 1366 2734 1584 
Q 2563 1803 2427 1890 
Q 2291 1978 2150 2013 
Q 2047 2034 1813 2034 
L 1109 2034 
L 1109 0 
L 503 0 
z
M 1109 2559 
L 2413 2559 
Q 2828 2559 3062 2645 
Q 3297 2731 3419 2920 
Q 3541 3109 3541 3331 
Q 3541 3656 3305 3865 
Q 3069 4075 2559 4075 
L 1109 4075 
L 1109 2559 
z
" transform="scale(0.015625)"/>
        <path id="ArialMT-61" d="M 2588 409 
Q 2275 144 1986 34 
Q 1697 -75 1366 -75 
Q 819 -75 525 192 
Q 231 459 231 875 
Q 231 1119 342 1320 
Q 453 1522 633 1644 
Q 813 1766 1038 1828 
Q 1203 1872 1538 1913 
Q 2219 1994 2541 2106 
Q 2544 2222 2544 2253 
Q 2544 2597 2384 2738 
Q 2169 2928 1744 2928 
Q 1347 2928 1158 2789 
Q 969 2650 878 2297 
L 328 2372 
Q 403 2725 575 2942 
Q 747 3159 1072 3276 
Q 1397 3394 1825 3394 
Q 2250 3394 2515 3294 
Q 2781 3194 2906 3042 
Q 3031 2891 3081 2659 
Q 3109 2516 3109 2141 
L 3109 1391 
Q 3109 606 3145 398 
Q 3181 191 3288 0 
L 2700 0 
Q 2613 175 2588 409 
z
M 2541 1666 
Q 2234 1541 1622 1453 
Q 1275 1403 1131 1340 
Q 988 1278 909 1158 
Q 831 1038 831 891 
Q 831 666 1001 516 
Q 1172 366 1500 366 
Q 1825 366 2078 508 
Q 2331 650 2450 897 
Q 2541 1088 2541 1459 
L 2541 1666 
z
" transform="scale(0.015625)"/>
        <path id="ArialMT-6e" d="M 422 0 
L 422 3319 
L 928 3319 
L 928 2847 
Q 1294 3394 1984 3394 
Q 2284 3394 2536 3286 
Q 2788 3178 2913 3003 
Q 3038 2828 3088 2588 
Q 3119 2431 3119 2041 
L 3119 0 
L 2556 0 
L 2556 2019 
Q 2556 2363 2490 2533 
Q 2425 2703 2258 2804 
Q 2091 2906 1866 2906 
Q 1506 2906 1245 2678 
Q 984 2450 984 1813 
L 984 0 
L 422 0 
z
" transform="scale(0.015625)"/>
        <path id="ArialMT-64" d="M 2575 0 
L 2575 419 
Q 2259 -75 1647 -75 
Q 1250 -75 917 144 
Q 584 363 401 755 
Q 219 1147 219 1656 
Q 219 2153 384 2558 
Q 550 2963 881 3178 
Q 1213 3394 1622 3394 
Q 1922 3394 2156 3267 
Q 2391 3141 2538 2938 
L 2538 4581 
L 3097 4581 
L 3097 0 
L 2575 0 
z
M 797 1656 
Q 797 1019 1065 703 
Q 1334 388 1700 388 
Q 2069 388 2326 689 
Q 2584 991 2584 1609 
Q 2584 2291 2321 2609 
Q 2059 2928 1675 2928 
Q 1300 2928 1048 2622 
Q 797 2316 797 1656 
z
" transform="scale(0.015625)"/>
        <path id="ArialMT-6f" d="M 213 1659 
Q 213 2581 725 3025 
Q 1153 3394 1769 3394 
Q 2453 3394 2887 2945 
Q 3322 2497 3322 1706 
Q 3322 1066 3130 698 
Q 2938 331 2570 128 
Q 2203 -75 1769 -75 
Q 1072 -75 642 372 
Q 213 819 213 1659 
z
M 791 1659 
Q 791 1022 1069 705 
Q 1347 388 1769 388 
Q 2188 388 2466 706 
Q 2744 1025 2744 1678 
Q 2744 2294 2464 2611 
Q 2184 2928 1769 2928 
Q 1347 2928 1069 2612 
Q 791 2297 791 1659 
z
" transform="scale(0.015625)"/>
        <path id="ArialMT-6d" d="M 422 0 
L 422 3319 
L 925 3319 
L 925 2853 
Q 1081 3097 1340 3245 
Q 1600 3394 1931 3394 
Q 2300 3394 2536 3241 
Q 2772 3088 2869 2813 
Q 3263 3394 3894 3394 
Q 4388 3394 4653 3120 
Q 4919 2847 4919 2278 
L 4919 0 
L 4359 0 
L 4359 2091 
Q 4359 2428 4304 2576 
Q 4250 2725 4106 2815 
Q 3963 2906 3769 2906 
Q 3419 2906 3187 2673 
Q 2956 2441 2956 1928 
L 2956 0 
L 2394 0 
L 2394 2156 
Q 2394 2531 2256 2718 
Q 2119 2906 1806 2906 
Q 1569 2906 1367 2781 
Q 1166 2656 1075 2415 
Q 984 2175 984 1722 
L 984 0 
L 422 0 
z
" transform="scale(0.015625)"/>
        <path id="ArialMT-53" d="M 288 1472 
L 859 1522 
Q 900 1178 1048 958 
Q 1197 738 1509 602 
Q 1822 466 2213 466 
Q 2559 466 2825 569 
Q 3091 672 3220 851 
Q 3350 1031 3350 1244 
Q 3350 1459 3225 1620 
Q 3100 1781 2813 1891 
Q 2628 1963 1997 2114 
Q 1366 2266 1113 2400 
Q 784 2572 623 2826 
Q 463 3081 463 3397 
Q 463 3744 659 4045 
Q 856 4347 1234 4503 
Q 1613 4659 2075 4659 
Q 2584 4659 2973 4495 
Q 3363 4331 3572 4012 
Q 3781 3694 3797 3291 
L 3216 3247 
Q 3169 3681 2898 3903 
Q 2628 4125 2100 4125 
Q 1550 4125 1298 3923 
Q 1047 3722 1047 3438 
Q 1047 3191 1225 3031 
Q 1400 2872 2139 2705 
Q 2878 2538 3153 2413 
Q 3553 2228 3743 1945 
Q 3934 1663 3934 1294 
Q 3934 928 3725 604 
Q 3516 281 3123 101 
Q 2731 -78 2241 -78 
Q 1619 -78 1198 103 
Q 778 284 539 648 
Q 300 1013 288 1472 
z
" transform="scale(0.015625)"/>
        <path id="ArialMT-70" d="M 422 -1272 
L 422 3319 
L 934 3319 
L 934 2888 
Q 1116 3141 1344 3267 
Q 1572 3394 1897 3394 
Q 2322 3394 2647 3175 
Q 2972 2956 3137 2557 
Q 3303 2159 3303 1684 
Q 3303 1175 3120 767 
Q 2938 359 2589 142 
Q 2241 -75 1856 -75 
Q 1575 -75 1351 44 
Q 1128 163 984 344 
L 984 -1272 
L 422 -1272 
z
M 931 1641 
Q 931 1000 1190 694 
Q 1450 388 1819 388 
Q 2194 388 2461 705 
Q 2728 1022 2728 1688 
Q 2728 2322 2467 2637 
Q 2206 2953 1844 2953 
Q 1484 2953 1207 2617 
Q 931 2281 931 1641 
z
" transform="scale(0.015625)"/>
        <path id="ArialMT-6c" d="M 409 0 
L 409 4581 
L 972 4581 
L 972 0 
L 409 0 
z
" transform="scale(0.015625)"/>
        <path id="ArialMT-69" d="M 425 3934 
L 425 4581 
L 988 4581 
L 988 3934 
L 425 3934 
z
M 425 0 
L 425 3319 
L 988 3319 
L 988 0 
L 425 0 
z
" transform="scale(0.015625)"/>
        <path id="ArialMT-74" d="M 1650 503 
L 1731 6 
Q 1494 -44 1306 -44 
Q 1000 -44 831 53 
Q 663 150 594 308 
Q 525 466 525 972 
L 525 2881 
L 113 2881 
L 113 3319 
L 525 3319 
L 525 4141 
L 1084 4478 
L 1084 3319 
L 1650 3319 
L 1650 2881 
L 1084 2881 
L 1084 941 
Q 1084 700 1114 631 
Q 1144 563 1211 522 
Q 1278 481 1403 481 
Q 1497 481 1650 503 
z
" transform="scale(0.015625)"/>
       </defs>
       <use xlink:href="#ArialMT-52"/>
       <use xlink:href="#ArialMT-61" transform="translate(72.216797 0)"/>
       <use xlink:href="#ArialMT-6e" transform="translate(127.832031 0)"/>
       <use xlink:href="#ArialMT-64" transform="translate(183.447266 0)"/>
       <use xlink:href="#ArialMT-6f" transform="translate(239.0625 0)"/>
       <use xlink:href="#ArialMT-6d" transform="translate(294.677734 0)"/>
       <use xlink:href="#ArialMT-53" transform="translate(377.978516 0)"/>
       <use xlink:href="#ArialMT-70" transform="translate(444.677734 0)"/>
       <use xlink:href="#ArialMT-6c" transform="translate(500.292969 0)"/>
       <use xlink:href="#ArialMT-69" transform="translate(522.509766 0)"/>
       <use xlink:href="#ArialMT-74" transform="translate(544.726562 0)"/>
      </g>
     </g>
    </g>
    <g id="xtick_2">
     <g id="text_2">
      <!-- ScaffoldSplit -->
      <g style="fill: #262626" transform="translate(180.081236 812.221602) rotate(-45) scale(0.165 -0.165)">
       <defs>
        <path id="ArialMT-63" d="M 2588 1216 
L 3141 1144 
Q 3050 572 2676 248 
Q 2303 -75 1759 -75 
Q 1078 -75 664 370 
Q 250 816 250 1647 
Q 250 2184 428 2587 
Q 606 2991 970 3192 
Q 1334 3394 1763 3394 
Q 2303 3394 2647 3120 
Q 2991 2847 3088 2344 
L 2541 2259 
Q 2463 2594 2264 2762 
Q 2066 2931 1784 2931 
Q 1359 2931 1093 2626 
Q 828 2322 828 1663 
Q 828 994 1084 691 
Q 1341 388 1753 388 
Q 2084 388 2306 591 
Q 2528 794 2588 1216 
z
" transform="scale(0.015625)"/>
        <path id="ArialMT-66" d="M 556 0 
L 556 2881 
L 59 2881 
L 59 3319 
L 556 3319 
L 556 3672 
Q 556 4006 616 4169 
Q 697 4388 901 4523 
Q 1106 4659 1475 4659 
Q 1713 4659 2000 4603 
L 1916 4113 
Q 1741 4144 1584 4144 
Q 1328 4144 1222 4034 
Q 1116 3925 1116 3625 
L 1116 3319 
L 1763 3319 
L 1763 2881 
L 1116 2881 
L 1116 0 
L 556 0 
z
" transform="scale(0.015625)"/>
       </defs>
       <use xlink:href="#ArialMT-53"/>
       <use xlink:href="#ArialMT-63" transform="translate(66.699219 0)"/>
       <use xlink:href="#ArialMT-61" transform="translate(116.699219 0)"/>
       <use xlink:href="#ArialMT-66" transform="translate(172.314453 0)"/>
       <use xlink:href="#ArialMT-66" transform="translate(198.347656 0)"/>
       <use xlink:href="#ArialMT-6f" transform="translate(226.130859 0)"/>
       <use xlink:href="#ArialMT-6c" transform="translate(281.746094 0)"/>
       <use xlink:href="#ArialMT-64" transform="translate(303.962891 0)"/>
       <use xlink:href="#ArialMT-53" transform="translate(359.578125 0)"/>
       <use xlink:href="#ArialMT-70" transform="translate(426.277344 0)"/>
       <use xlink:href="#ArialMT-6c" transform="translate(481.892578 0)"/>
       <use xlink:href="#ArialMT-69" transform="translate(504.109375 0)"/>
       <use xlink:href="#ArialMT-74" transform="translate(526.326172 0)"/>
      </g>
     </g>
    </g>
    <g id="xtick_3">
     <g id="text_3">
      <!-- SortedStepForward_LogD -->
      <g style="fill: #262626" transform="translate(215.631856 883.111156) rotate(-45) scale(0.165 -0.165)">
       <defs>
        <path id="ArialMT-72" d="M 416 0 
L 416 3319 
L 922 3319 
L 922 2816 
Q 1116 3169 1280 3281 
Q 1444 3394 1641 3394 
Q 1925 3394 2219 3213 
L 2025 2691 
Q 1819 2813 1613 2813 
Q 1428 2813 1281 2702 
Q 1134 2591 1072 2394 
Q 978 2094 978 1738 
L 978 0 
L 416 0 
z
" transform="scale(0.015625)"/>
        <path id="ArialMT-65" d="M 2694 1069 
L 3275 997 
Q 3138 488 2766 206 
Q 2394 -75 1816 -75 
Q 1088 -75 661 373 
Q 234 822 234 1631 
Q 234 2469 665 2931 
Q 1097 3394 1784 3394 
Q 2450 3394 2872 2941 
Q 3294 2488 3294 1666 
Q 3294 1616 3291 1516 
L 816 1516 
Q 847 969 1125 678 
Q 1403 388 1819 388 
Q 2128 388 2347 550 
Q 2566 713 2694 1069 
z
M 847 1978 
L 2700 1978 
Q 2663 2397 2488 2606 
Q 2219 2931 1791 2931 
Q 1403 2931 1139 2672 
Q 875 2413 847 1978 
z
" transform="scale(0.015625)"/>
        <path id="ArialMT-46" d="M 525 0 
L 525 4581 
L 3616 4581 
L 3616 4041 
L 1131 4041 
L 1131 2622 
L 3281 2622 
L 3281 2081 
L 1131 2081 
L 1131 0 
L 525 0 
z
" transform="scale(0.015625)"/>
        <path id="ArialMT-77" d="M 1034 0 
L 19 3319 
L 600 3319 
L 1128 1403 
L 1325 691 
Q 1338 744 1497 1375 
L 2025 3319 
L 2603 3319 
L 3100 1394 
L 3266 759 
L 3456 1400 
L 4025 3319 
L 4572 3319 
L 3534 0 
L 2950 0 
L 2422 1988 
L 2294 2553 
L 1622 0 
L 1034 0 
z
" transform="scale(0.015625)"/>
        <path id="ArialMT-5f" d="M -97 -1272 
L -97 -866 
L 3631 -866 
L 3631 -1272 
L -97 -1272 
z
" transform="scale(0.015625)"/>
        <path id="ArialMT-4c" d="M 469 0 
L 469 4581 
L 1075 4581 
L 1075 541 
L 3331 541 
L 3331 0 
L 469 0 
z
" transform="scale(0.015625)"/>
        <path id="ArialMT-67" d="M 319 -275 
L 866 -356 
Q 900 -609 1056 -725 
Q 1266 -881 1628 -881 
Q 2019 -881 2231 -725 
Q 2444 -569 2519 -288 
Q 2563 -116 2559 434 
Q 2191 0 1641 0 
Q 956 0 581 494 
Q 206 988 206 1678 
Q 206 2153 378 2554 
Q 550 2956 876 3175 
Q 1203 3394 1644 3394 
Q 2231 3394 2613 2919 
L 2613 3319 
L 3131 3319 
L 3131 450 
Q 3131 -325 2973 -648 
Q 2816 -972 2473 -1159 
Q 2131 -1347 1631 -1347 
Q 1038 -1347 672 -1080 
Q 306 -813 319 -275 
z
M 784 1719 
Q 784 1066 1043 766 
Q 1303 466 1694 466 
Q 2081 466 2343 764 
Q 2606 1063 2606 1700 
Q 2606 2309 2336 2618 
Q 2066 2928 1684 2928 
Q 1309 2928 1046 2623 
Q 784 2319 784 1719 
z
" transform="scale(0.015625)"/>
        <path id="ArialMT-44" d="M 494 0 
L 494 4581 
L 2072 4581 
Q 2606 4581 2888 4516 
Q 3281 4425 3559 4188 
Q 3922 3881 4101 3404 
Q 4281 2928 4281 2316 
Q 4281 1794 4159 1391 
Q 4038 988 3847 723 
Q 3656 459 3429 307 
Q 3203 156 2883 78 
Q 2563 0 2147 0 
L 494 0 
z
M 1100 541 
L 2078 541 
Q 2531 541 2789 625 
Q 3047 709 3200 863 
Q 3416 1078 3536 1442 
Q 3656 1806 3656 2325 
Q 3656 3044 3420 3430 
Q 3184 3816 2847 3947 
Q 2603 4041 2063 4041 
L 1100 4041 
L 1100 541 
z
" transform="scale(0.015625)"/>
       </defs>
       <use xlink:href="#ArialMT-53"/>
       <use xlink:href="#ArialMT-6f" transform="translate(66.699219 0)"/>
       <use xlink:href="#ArialMT-72" transform="translate(122.314453 0)"/>
       <use xlink:href="#ArialMT-74" transform="translate(155.615234 0)"/>
       <use xlink:href="#ArialMT-65" transform="translate(183.398438 0)"/>
       <use xlink:href="#ArialMT-64" transform="translate(239.013672 0)"/>
       <use xlink:href="#ArialMT-53" transform="translate(294.628906 0)"/>
       <use xlink:href="#ArialMT-74" transform="translate(361.328125 0)"/>
       <use xlink:href="#ArialMT-65" transform="translate(389.111328 0)"/>
       <use xlink:href="#ArialMT-70" transform="translate(444.726562 0)"/>
       <use xlink:href="#ArialMT-46" transform="translate(500.341797 0)"/>
       <use xlink:href="#ArialMT-6f" transform="translate(561.425781 0)"/>
       <use xlink:href="#ArialMT-72" transform="translate(617.041016 0)"/>
       <use xlink:href="#ArialMT-77" transform="translate(650.341797 0)"/>
       <use xlink:href="#ArialMT-61" transform="translate(722.558594 0)"/>
       <use xlink:href="#ArialMT-72" transform="translate(778.173828 0)"/>
       <use xlink:href="#ArialMT-64" transform="translate(811.474609 0)"/>
       <use xlink:href="#ArialMT-5f" transform="translate(867.089844 0)"/>
       <use xlink:href="#ArialMT-4c" transform="translate(922.705078 0)"/>
       <use xlink:href="#ArialMT-6f" transform="translate(978.320312 0)"/>
       <use xlink:href="#ArialMT-67" transform="translate(1033.935547 0)"/>
       <use xlink:href="#ArialMT-44" transform="translate(1089.550781 0)"/>
      </g>
     </g>
    </g>
    <g id="xtick_4">
     <g id="text_4">
      <!-- SortedStepForward_LogP -->
      <g style="fill: #262626" transform="translate(287.017377 882.467633) rotate(-45) scale(0.165 -0.165)">
       <defs>
        <path id="ArialMT-50" d="M 494 0 
L 494 4581 
L 2222 4581 
Q 2678 4581 2919 4538 
Q 3256 4481 3484 4323 
Q 3713 4166 3852 3881 
Q 3991 3597 3991 3256 
Q 3991 2672 3619 2267 
Q 3247 1863 2275 1863 
L 1100 1863 
L 1100 0 
L 494 0 
z
M 1100 2403 
L 2284 2403 
Q 2872 2403 3119 2622 
Q 3366 2841 3366 3238 
Q 3366 3525 3220 3729 
Q 3075 3934 2838 4000 
Q 2684 4041 2272 4041 
L 1100 4041 
L 1100 2403 
z
" transform="scale(0.015625)"/>
       </defs>
       <use xlink:href="#ArialMT-53"/>
       <use xlink:href="#ArialMT-6f" transform="translate(66.699219 0)"/>
       <use xlink:href="#ArialMT-72" transform="translate(122.314453 0)"/>
       <use xlink:href="#ArialMT-74" transform="translate(155.615234 0)"/>
       <use xlink:href="#ArialMT-65" transform="translate(183.398438 0)"/>
       <use xlink:href="#ArialMT-64" transform="translate(239.013672 0)"/>
       <use xlink:href="#ArialMT-53" transform="translate(294.628906 0)"/>
       <use xlink:href="#ArialMT-74" transform="translate(361.328125 0)"/>
       <use xlink:href="#ArialMT-65" transform="translate(389.111328 0)"/>
       <use xlink:href="#ArialMT-70" transform="translate(444.726562 0)"/>
       <use xlink:href="#ArialMT-46" transform="translate(500.341797 0)"/>
       <use xlink:href="#ArialMT-6f" transform="translate(561.425781 0)"/>
       <use xlink:href="#ArialMT-72" transform="translate(617.041016 0)"/>
       <use xlink:href="#ArialMT-77" transform="translate(650.341797 0)"/>
       <use xlink:href="#ArialMT-61" transform="translate(722.558594 0)"/>
       <use xlink:href="#ArialMT-72" transform="translate(778.173828 0)"/>
       <use xlink:href="#ArialMT-64" transform="translate(811.474609 0)"/>
       <use xlink:href="#ArialMT-5f" transform="translate(867.089844 0)"/>
       <use xlink:href="#ArialMT-4c" transform="translate(922.705078 0)"/>
       <use xlink:href="#ArialMT-6f" transform="translate(978.320312 0)"/>
       <use xlink:href="#ArialMT-67" transform="translate(1033.935547 0)"/>
       <use xlink:href="#ArialMT-50" transform="translate(1089.550781 0)"/>
      </g>
     </g>
    </g>
    <g id="xtick_5">
     <g id="text_5">
      <!-- SortedStepForward_MCE18 -->
      <g style="fill: #262626" transform="translate(352.321337 894.123957) rotate(-45) scale(0.165 -0.165)">
       <defs>
        <path id="ArialMT-4d" d="M 475 0 
L 475 4581 
L 1388 4581 
L 2472 1338 
Q 2622 884 2691 659 
Q 2769 909 2934 1394 
L 4031 4581 
L 4847 4581 
L 4847 0 
L 4263 0 
L 4263 3834 
L 2931 0 
L 2384 0 
L 1059 3900 
L 1059 0 
L 475 0 
z
" transform="scale(0.015625)"/>
        <path id="ArialMT-43" d="M 3763 1606 
L 4369 1453 
Q 4178 706 3683 314 
Q 3188 -78 2472 -78 
Q 1731 -78 1267 223 
Q 803 525 561 1097 
Q 319 1669 319 2325 
Q 319 3041 592 3573 
Q 866 4106 1370 4382 
Q 1875 4659 2481 4659 
Q 3169 4659 3637 4309 
Q 4106 3959 4291 3325 
L 3694 3184 
Q 3534 3684 3231 3912 
Q 2928 4141 2469 4141 
Q 1941 4141 1586 3887 
Q 1231 3634 1087 3207 
Q 944 2781 944 2328 
Q 944 1744 1114 1308 
Q 1284 872 1643 656 
Q 2003 441 2422 441 
Q 2931 441 3284 734 
Q 3638 1028 3763 1606 
z
" transform="scale(0.015625)"/>
        <path id="ArialMT-45" d="M 506 0 
L 506 4581 
L 3819 4581 
L 3819 4041 
L 1113 4041 
L 1113 2638 
L 3647 2638 
L 3647 2100 
L 1113 2100 
L 1113 541 
L 3925 541 
L 3925 0 
L 506 0 
z
" transform="scale(0.015625)"/>
        <path id="ArialMT-31" d="M 2384 0 
L 1822 0 
L 1822 3584 
Q 1619 3391 1289 3197 
Q 959 3003 697 2906 
L 697 3450 
Q 1169 3672 1522 3987 
Q 1875 4303 2022 4600 
L 2384 4600 
L 2384 0 
z
" transform="scale(0.015625)"/>
        <path id="ArialMT-38" d="M 1131 2484 
Q 781 2613 612 2850 
Q 444 3088 444 3419 
Q 444 3919 803 4259 
Q 1163 4600 1759 4600 
Q 2359 4600 2725 4251 
Q 3091 3903 3091 3403 
Q 3091 3084 2923 2848 
Q 2756 2613 2416 2484 
Q 2838 2347 3058 2040 
Q 3278 1734 3278 1309 
Q 3278 722 2862 322 
Q 2447 -78 1769 -78 
Q 1091 -78 675 323 
Q 259 725 259 1325 
Q 259 1772 486 2073 
Q 713 2375 1131 2484 
z
M 1019 3438 
Q 1019 3113 1228 2906 
Q 1438 2700 1772 2700 
Q 2097 2700 2305 2904 
Q 2513 3109 2513 3406 
Q 2513 3716 2298 3927 
Q 2084 4138 1766 4138 
Q 1444 4138 1231 3931 
Q 1019 3725 1019 3438 
z
M 838 1322 
Q 838 1081 952 856 
Q 1066 631 1291 507 
Q 1516 384 1775 384 
Q 2178 384 2440 643 
Q 2703 903 2703 1303 
Q 2703 1709 2433 1975 
Q 2163 2241 1756 2241 
Q 1359 2241 1098 1978 
Q 838 1716 838 1322 
z
" transform="scale(0.015625)"/>
       </defs>
       <use xlink:href="#ArialMT-53"/>
       <use xlink:href="#ArialMT-6f" transform="translate(66.699219 0)"/>
       <use xlink:href="#ArialMT-72" transform="translate(122.314453 0)"/>
       <use xlink:href="#ArialMT-74" transform="translate(155.615234 0)"/>
       <use xlink:href="#ArialMT-65" transform="translate(183.398438 0)"/>
       <use xlink:href="#ArialMT-64" transform="translate(239.013672 0)"/>
       <use xlink:href="#ArialMT-53" transform="translate(294.628906 0)"/>
       <use xlink:href="#ArialMT-74" transform="translate(361.328125 0)"/>
       <use xlink:href="#ArialMT-65" transform="translate(389.111328 0)"/>
       <use xlink:href="#ArialMT-70" transform="translate(444.726562 0)"/>
       <use xlink:href="#ArialMT-46" transform="translate(500.341797 0)"/>
       <use xlink:href="#ArialMT-6f" transform="translate(561.425781 0)"/>
       <use xlink:href="#ArialMT-72" transform="translate(617.041016 0)"/>
       <use xlink:href="#ArialMT-77" transform="translate(650.341797 0)"/>
       <use xlink:href="#ArialMT-61" transform="translate(722.558594 0)"/>
       <use xlink:href="#ArialMT-72" transform="translate(778.173828 0)"/>
       <use xlink:href="#ArialMT-64" transform="translate(811.474609 0)"/>
       <use xlink:href="#ArialMT-5f" transform="translate(867.089844 0)"/>
       <use xlink:href="#ArialMT-4d" transform="translate(922.705078 0)"/>
       <use xlink:href="#ArialMT-43" transform="translate(1006.005859 0)"/>
       <use xlink:href="#ArialMT-45" transform="translate(1078.222656 0)"/>
       <use xlink:href="#ArialMT-31" transform="translate(1144.921875 0)"/>
       <use xlink:href="#ArialMT-38" transform="translate(1200.537109 0)"/>
      </g>
     </g>
    </g>
    <g id="xtick_6">
     <g id="text_6">
      <!-- UnsortedStepForward -->
      <g style="fill: #262626" transform="translate(439.598033 861.698084) rotate(-45) scale(0.165 -0.165)">
       <defs>
        <path id="ArialMT-55" d="M 3500 4581 
L 4106 4581 
L 4106 1934 
Q 4106 1244 3950 837 
Q 3794 431 3386 176 
Q 2978 -78 2316 -78 
Q 1672 -78 1262 144 
Q 853 366 678 786 
Q 503 1206 503 1934 
L 503 4581 
L 1109 4581 
L 1109 1938 
Q 1109 1341 1220 1058 
Q 1331 775 1601 622 
Q 1872 469 2263 469 
Q 2931 469 3215 772 
Q 3500 1075 3500 1938 
L 3500 4581 
z
" transform="scale(0.015625)"/>
        <path id="ArialMT-73" d="M 197 991 
L 753 1078 
Q 800 744 1014 566 
Q 1228 388 1613 388 
Q 2000 388 2187 545 
Q 2375 703 2375 916 
Q 2375 1106 2209 1216 
Q 2094 1291 1634 1406 
Q 1016 1563 777 1677 
Q 538 1791 414 1992 
Q 291 2194 291 2438 
Q 291 2659 392 2848 
Q 494 3038 669 3163 
Q 800 3259 1026 3326 
Q 1253 3394 1513 3394 
Q 1903 3394 2198 3281 
Q 2494 3169 2634 2976 
Q 2775 2784 2828 2463 
L 2278 2388 
Q 2241 2644 2061 2787 
Q 1881 2931 1553 2931 
Q 1166 2931 1000 2803 
Q 834 2675 834 2503 
Q 834 2394 903 2306 
Q 972 2216 1119 2156 
Q 1203 2125 1616 2013 
Q 2213 1853 2448 1751 
Q 2684 1650 2818 1456 
Q 2953 1263 2953 975 
Q 2953 694 2789 445 
Q 2625 197 2315 61 
Q 2006 -75 1616 -75 
Q 969 -75 630 194 
Q 291 463 197 991 
z
" transform="scale(0.015625)"/>
       </defs>
       <use xlink:href="#ArialMT-55"/>
       <use xlink:href="#ArialMT-6e" transform="translate(72.216797 0)"/>
       <use xlink:href="#ArialMT-73" transform="translate(127.832031 0)"/>
       <use xlink:href="#ArialMT-6f" transform="translate(177.832031 0)"/>
       <use xlink:href="#ArialMT-72" transform="translate(233.447266 0)"/>
       <use xlink:href="#ArialMT-74" transform="translate(266.748047 0)"/>
       <use xlink:href="#ArialMT-65" transform="translate(294.53125 0)"/>
       <use xlink:href="#ArialMT-64" transform="translate(350.146484 0)"/>
       <use xlink:href="#ArialMT-53" transform="translate(405.761719 0)"/>
       <use xlink:href="#ArialMT-74" transform="translate(472.460938 0)"/>
       <use xlink:href="#ArialMT-65" transform="translate(500.244141 0)"/>
       <use xlink:href="#ArialMT-70" transform="translate(555.859375 0)"/>
       <use xlink:href="#ArialMT-46" transform="translate(611.474609 0)"/>
       <use xlink:href="#ArialMT-6f" transform="translate(672.558594 0)"/>
       <use xlink:href="#ArialMT-72" transform="translate(728.173828 0)"/>
       <use xlink:href="#ArialMT-77" transform="translate(761.474609 0)"/>
       <use xlink:href="#ArialMT-61" transform="translate(833.691406 0)"/>
       <use xlink:href="#ArialMT-72" transform="translate(889.306641 0)"/>
       <use xlink:href="#ArialMT-64" transform="translate(922.607422 0)"/>
      </g>
     </g>
    </g>
    <g id="text_7">
     <!-- split_type -->
     <g style="fill: #262626" transform="translate(277.894018 913.326888) scale(0.18 -0.18)">
      <defs>
       <path id="ArialMT-79" d="M 397 -1278 
L 334 -750 
Q 519 -800 656 -800 
Q 844 -800 956 -737 
Q 1069 -675 1141 -563 
Q 1194 -478 1313 -144 
Q 1328 -97 1363 -6 
L 103 3319 
L 709 3319 
L 1400 1397 
Q 1534 1031 1641 628 
Q 1738 1016 1872 1384 
L 2581 3319 
L 3144 3319 
L 1881 -56 
Q 1678 -603 1566 -809 
Q 1416 -1088 1222 -1217 
Q 1028 -1347 759 -1347 
Q 597 -1347 397 -1278 
z
" transform="scale(0.015625)"/>
      </defs>
      <use xlink:href="#ArialMT-73"/>
      <use xlink:href="#ArialMT-70" transform="translate(50 0)"/>
      <use xlink:href="#ArialMT-6c" transform="translate(105.615234 0)"/>
      <use xlink:href="#ArialMT-69" transform="translate(127.832031 0)"/>
      <use xlink:href="#ArialMT-74" transform="translate(150.048828 0)"/>
      <use xlink:href="#ArialMT-5f" transform="translate(177.832031 0)"/>
      <use xlink:href="#ArialMT-74" transform="translate(233.447266 0)"/>
      <use xlink:href="#ArialMT-79" transform="translate(261.230469 0)"/>
      <use xlink:href="#ArialMT-70" transform="translate(311.230469 0)"/>
      <use xlink:href="#ArialMT-65" transform="translate(366.845703 0)"/>
     </g>
    </g>
   </g>
   <g id="matplotlib.axis_2">
    <g id="ytick_1">
     <g id="line2d_1">
      <path d="M 89.22 702.270376 
L 542.606786 702.270376 
" clip-path="url(#p5175ed5be9)" style="fill: none; stroke: #cccccc; stroke-width: 1.5; stroke-linecap: round"/>
     </g>
     <g id="text_8">
      <!-- 0 -->
      <g style="fill: #262626" transform="translate(67.544453 708.175571) scale(0.165 -0.165)">
       <defs>
        <path id="ArialMT-30" d="M 266 2259 
Q 266 3072 433 3567 
Q 600 4063 929 4331 
Q 1259 4600 1759 4600 
Q 2128 4600 2406 4451 
Q 2684 4303 2865 4023 
Q 3047 3744 3150 3342 
Q 3253 2941 3253 2259 
Q 3253 1453 3087 958 
Q 2922 463 2592 192 
Q 2263 -78 1759 -78 
Q 1097 -78 719 397 
Q 266 969 266 2259 
z
M 844 2259 
Q 844 1131 1108 757 
Q 1372 384 1759 384 
Q 2147 384 2411 759 
Q 2675 1134 2675 2259 
Q 2675 3391 2411 3762 
Q 2147 4134 1753 4134 
Q 1366 4134 1134 3806 
Q 844 3388 844 2259 
z
" transform="scale(0.015625)"/>
       </defs>
       <use xlink:href="#ArialMT-30"/>
      </g>
     </g>
    </g>
    <g id="ytick_2">
     <g id="line2d_2">
      <path d="M 89.22 615.136844 
L 542.606786 615.136844 
" clip-path="url(#p5175ed5be9)" style="fill: none; stroke: #cccccc; stroke-width: 1.5; stroke-linecap: round"/>
     </g>
     <g id="text_9">
      <!-- 250 -->
      <g style="fill: #262626" transform="translate(49.193359 621.04204) scale(0.165 -0.165)">
       <defs>
        <path id="ArialMT-32" d="M 3222 541 
L 3222 0 
L 194 0 
Q 188 203 259 391 
Q 375 700 629 1000 
Q 884 1300 1366 1694 
Q 2113 2306 2375 2664 
Q 2638 3022 2638 3341 
Q 2638 3675 2398 3904 
Q 2159 4134 1775 4134 
Q 1369 4134 1125 3890 
Q 881 3647 878 3216 
L 300 3275 
Q 359 3922 746 4261 
Q 1134 4600 1788 4600 
Q 2447 4600 2831 4234 
Q 3216 3869 3216 3328 
Q 3216 3053 3103 2787 
Q 2991 2522 2730 2228 
Q 2469 1934 1863 1422 
Q 1356 997 1212 845 
Q 1069 694 975 541 
L 3222 541 
z
" transform="scale(0.015625)"/>
        <path id="ArialMT-35" d="M 266 1200 
L 856 1250 
Q 922 819 1161 601 
Q 1400 384 1738 384 
Q 2144 384 2425 690 
Q 2706 997 2706 1503 
Q 2706 1984 2436 2262 
Q 2166 2541 1728 2541 
Q 1456 2541 1237 2417 
Q 1019 2294 894 2097 
L 366 2166 
L 809 4519 
L 3088 4519 
L 3088 3981 
L 1259 3981 
L 1013 2750 
Q 1425 3038 1878 3038 
Q 2478 3038 2890 2622 
Q 3303 2206 3303 1553 
Q 3303 931 2941 478 
Q 2500 -78 1738 -78 
Q 1113 -78 717 272 
Q 322 622 266 1200 
z
" transform="scale(0.015625)"/>
       </defs>
       <use xlink:href="#ArialMT-32"/>
       <use xlink:href="#ArialMT-35" transform="translate(55.615234 0)"/>
       <use xlink:href="#ArialMT-30" transform="translate(111.230469 0)"/>
      </g>
     </g>
    </g>
    <g id="ytick_3">
     <g id="line2d_3">
      <path d="M 89.22 528.003313 
L 542.606786 528.003313 
" clip-path="url(#p5175ed5be9)" style="fill: none; stroke: #cccccc; stroke-width: 1.5; stroke-linecap: round"/>
     </g>
     <g id="text_10">
      <!-- 500 -->
      <g style="fill: #262626" transform="translate(49.193359 533.908508) scale(0.165 -0.165)">
       <use xlink:href="#ArialMT-35"/>
       <use xlink:href="#ArialMT-30" transform="translate(55.615234 0)"/>
       <use xlink:href="#ArialMT-30" transform="translate(111.230469 0)"/>
      </g>
     </g>
    </g>
    <g id="ytick_4">
     <g id="line2d_4">
      <path d="M 89.22 440.869781 
L 542.606786 440.869781 
" clip-path="url(#p5175ed5be9)" style="fill: none; stroke: #cccccc; stroke-width: 1.5; stroke-linecap: round"/>
     </g>
     <g id="text_11">
      <!-- 750 -->
      <g style="fill: #262626" transform="translate(49.193359 446.774977) scale(0.165 -0.165)">
       <defs>
        <path id="ArialMT-37" d="M 303 3981 
L 303 4522 
L 3269 4522 
L 3269 4084 
Q 2831 3619 2401 2847 
Q 1972 2075 1738 1259 
Q 1569 684 1522 0 
L 944 0 
Q 953 541 1156 1306 
Q 1359 2072 1739 2783 
Q 2119 3494 2547 3981 
L 303 3981 
z
" transform="scale(0.015625)"/>
       </defs>
       <use xlink:href="#ArialMT-37"/>
       <use xlink:href="#ArialMT-35" transform="translate(55.615234 0)"/>
       <use xlink:href="#ArialMT-30" transform="translate(111.230469 0)"/>
      </g>
     </g>
    </g>
    <g id="ytick_5">
     <g id="line2d_5">
      <path d="M 89.22 353.73625 
L 542.606786 353.73625 
" clip-path="url(#p5175ed5be9)" style="fill: none; stroke: #cccccc; stroke-width: 1.5; stroke-linecap: round"/>
     </g>
     <g id="text_12">
      <!-- 1000 -->
      <g style="fill: #262626" transform="translate(40.017812 359.641445) scale(0.165 -0.165)">
       <use xlink:href="#ArialMT-31"/>
       <use xlink:href="#ArialMT-30" transform="translate(55.615234 0)"/>
       <use xlink:href="#ArialMT-30" transform="translate(111.230469 0)"/>
       <use xlink:href="#ArialMT-30" transform="translate(166.845703 0)"/>
      </g>
     </g>
    </g>
    <g id="ytick_6">
     <g id="line2d_6">
      <path d="M 89.22 266.602719 
L 542.606786 266.602719 
" clip-path="url(#p5175ed5be9)" style="fill: none; stroke: #cccccc; stroke-width: 1.5; stroke-linecap: round"/>
     </g>
     <g id="text_13">
      <!-- 1250 -->
      <g style="fill: #262626" transform="translate(40.017812 272.507914) scale(0.165 -0.165)">
       <use xlink:href="#ArialMT-31"/>
       <use xlink:href="#ArialMT-32" transform="translate(55.615234 0)"/>
       <use xlink:href="#ArialMT-35" transform="translate(111.230469 0)"/>
       <use xlink:href="#ArialMT-30" transform="translate(166.845703 0)"/>
      </g>
     </g>
    </g>
    <g id="ytick_7">
     <g id="line2d_7">
      <path d="M 89.22 179.469187 
L 542.606786 179.469187 
" clip-path="url(#p5175ed5be9)" style="fill: none; stroke: #cccccc; stroke-width: 1.5; stroke-linecap: round"/>
     </g>
     <g id="text_14">
      <!-- 1500 -->
      <g style="fill: #262626" transform="translate(40.017812 185.374383) scale(0.165 -0.165)">
       <use xlink:href="#ArialMT-31"/>
       <use xlink:href="#ArialMT-35" transform="translate(55.615234 0)"/>
       <use xlink:href="#ArialMT-30" transform="translate(111.230469 0)"/>
       <use xlink:href="#ArialMT-30" transform="translate(166.845703 0)"/>
      </g>
     </g>
    </g>
    <g id="ytick_8">
     <g id="line2d_8">
      <path d="M 89.22 92.335656 
L 542.606786 92.335656 
" clip-path="url(#p5175ed5be9)" style="fill: none; stroke: #cccccc; stroke-width: 1.5; stroke-linecap: round"/>
     </g>
     <g id="text_15">
      <!-- 1750 -->
      <g style="fill: #262626" transform="translate(40.017812 98.240851) scale(0.165 -0.165)">
       <use xlink:href="#ArialMT-31"/>
       <use xlink:href="#ArialMT-37" transform="translate(55.615234 0)"/>
       <use xlink:href="#ArialMT-35" transform="translate(111.230469 0)"/>
       <use xlink:href="#ArialMT-30" transform="translate(166.845703 0)"/>
      </g>
     </g>
    </g>
    <g id="text_16">
     <!-- number of train compounds -->
     <g style="fill: #262626" transform="translate(32.440312 492.041409) rotate(-90) scale(0.18 -0.18)">
      <defs>
       <path id="ArialMT-75" d="M 2597 0 
L 2597 488 
Q 2209 -75 1544 -75 
Q 1250 -75 995 37 
Q 741 150 617 320 
Q 494 491 444 738 
Q 409 903 409 1263 
L 409 3319 
L 972 3319 
L 972 1478 
Q 972 1038 1006 884 
Q 1059 663 1231 536 
Q 1403 409 1656 409 
Q 1909 409 2131 539 
Q 2353 669 2445 892 
Q 2538 1116 2538 1541 
L 2538 3319 
L 3100 3319 
L 3100 0 
L 2597 0 
z
" transform="scale(0.015625)"/>
       <path id="ArialMT-62" d="M 941 0 
L 419 0 
L 419 4581 
L 981 4581 
L 981 2947 
Q 1338 3394 1891 3394 
Q 2197 3394 2470 3270 
Q 2744 3147 2920 2923 
Q 3097 2700 3197 2384 
Q 3297 2069 3297 1709 
Q 3297 856 2875 390 
Q 2453 -75 1863 -75 
Q 1275 -75 941 416 
L 941 0 
z
M 934 1684 
Q 934 1088 1097 822 
Q 1363 388 1816 388 
Q 2184 388 2453 708 
Q 2722 1028 2722 1663 
Q 2722 2313 2464 2622 
Q 2206 2931 1841 2931 
Q 1472 2931 1203 2611 
Q 934 2291 934 1684 
z
" transform="scale(0.015625)"/>
       <path id="ArialMT-20" transform="scale(0.015625)"/>
      </defs>
      <use xlink:href="#ArialMT-6e"/>
      <use xlink:href="#ArialMT-75" transform="translate(55.615234 0)"/>
      <use xlink:href="#ArialMT-6d" transform="translate(111.230469 0)"/>
      <use xlink:href="#ArialMT-62" transform="translate(194.53125 0)"/>
      <use xlink:href="#ArialMT-65" transform="translate(250.146484 0)"/>
      <use xlink:href="#ArialMT-72" transform="translate(305.761719 0)"/>
      <use xlink:href="#ArialMT-20" transform="translate(339.0625 0)"/>
      <use xlink:href="#ArialMT-6f" transform="translate(366.845703 0)"/>
      <use xlink:href="#ArialMT-66" transform="translate(422.460938 0)"/>
      <use xlink:href="#ArialMT-20" transform="translate(450.244141 0)"/>
      <use xlink:href="#ArialMT-74" transform="translate(478.027344 0)"/>
      <use xlink:href="#ArialMT-72" transform="translate(505.810547 0)"/>
      <use xlink:href="#ArialMT-61" transform="translate(539.111328 0)"/>
      <use xlink:href="#ArialMT-69" transform="translate(594.726562 0)"/>
      <use xlink:href="#ArialMT-6e" transform="translate(616.943359 0)"/>
      <use xlink:href="#ArialMT-20" transform="translate(672.558594 0)"/>
      <use xlink:href="#ArialMT-63" transform="translate(700.341797 0)"/>
      <use xlink:href="#ArialMT-6f" transform="translate(750.341797 0)"/>
      <use xlink:href="#ArialMT-6d" transform="translate(805.957031 0)"/>
      <use xlink:href="#ArialMT-70" transform="translate(889.257812 0)"/>
      <use xlink:href="#ArialMT-6f" transform="translate(944.873047 0)"/>
      <use xlink:href="#ArialMT-75" transform="translate(1000.488281 0)"/>
      <use xlink:href="#ArialMT-6e" transform="translate(1056.103516 0)"/>
      <use xlink:href="#ArialMT-64" transform="translate(1111.71875 0)"/>
      <use xlink:href="#ArialMT-73" transform="translate(1167.333984 0)"/>
     </g>
    </g>
   </g>
   <g id="PatchCollection_1">
    <path d="M 138.142957 641.625438 
L 138.365031 641.625438 
L 138.365031 641.625438 
L 138.142957 641.625438 
z
" clip-path="url(#p5175ed5be9)" style="fill: #d2dde6; stroke: #3d3d3d; stroke-width: 1.125"/>
    <path d="M 138.03192 641.625438 
L 138.476068 641.625438 
L 138.476068 641.625438 
L 138.03192 641.625438 
z
" clip-path="url(#p5175ed5be9)" style="fill: #cad8e3; stroke: #3d3d3d; stroke-width: 1.125"/>
    <path d="M 137.809846 641.625438 
L 138.698143 641.625438 
L 138.698143 641.625438 
L 137.809846 641.625438 
z
" clip-path="url(#p5175ed5be9)" style="fill: #c0d1de; stroke: #3d3d3d; stroke-width: 1.125"/>
    <path d="M 137.365697 641.625438 
L 139.142291 641.625438 
L 139.142291 641.276904 
L 137.365697 641.276904 
z
" clip-path="url(#p5175ed5be9)" style="fill: #b4c9d9; stroke: #3d3d3d; stroke-width: 1.125"/>
    <path d="M 136.4774 641.276904 
L 140.030588 641.276904 
L 140.030588 639.534233 
L 136.4774 639.534233 
z
" clip-path="url(#p5175ed5be9)" style="fill: #a4bfd2; stroke: #3d3d3d; stroke-width: 1.125"/>
    <path d="M 134.700806 639.534233 
L 141.807182 639.534233 
L 141.807182 638.140097 
L 134.700806 638.140097 
z
" clip-path="url(#p5175ed5be9)" style="fill: #90b2ca; stroke: #3d3d3d; stroke-width: 1.125"/>
    <path d="M 131.147618 638.140097 
L 145.36037 638.140097 
L 145.36037 636.048892 
L 131.147618 636.048892 
z
" clip-path="url(#p5175ed5be9)" style="fill: #78a2bf; stroke: #3d3d3d; stroke-width: 1.125"/>
    <path d="M 124.041242 636.048892 
L 152.466746 636.048892 
L 152.466746 630.472346 
L 124.041242 630.472346 
z
" clip-path="url(#p5175ed5be9)" style="fill: #588db2; stroke: #3d3d3d; stroke-width: 1.125"/>
    <path d="M 109.82849 630.472346 
L 166.679498 630.472346 
L 166.679498 410.198778 
L 109.82849 410.198778 
z
" clip-path="url(#p5175ed5be9)" style="fill: #3274a1; stroke: #3d3d3d; stroke-width: 1.125"/>
    <path d="M 124.041242 410.198778 
L 152.466746 410.198778 
L 152.466746 285.075027 
L 124.041242 285.075027 
z
" clip-path="url(#p5175ed5be9)" style="fill: #588db2; stroke: #3d3d3d; stroke-width: 1.125"/>
    <path d="M 131.147618 285.075027 
L 145.36037 285.075027 
L 145.36037 243.250932 
L 131.147618 243.250932 
z
" clip-path="url(#p5175ed5be9)" style="fill: #78a2bf; stroke: #3d3d3d; stroke-width: 1.125"/>
    <path d="M 134.700806 243.250932 
L 141.807182 243.250932 
L 141.807182 181.908926 
L 134.700806 181.908926 
z
" clip-path="url(#p5175ed5be9)" style="fill: #90b2ca; stroke: #3d3d3d; stroke-width: 1.125"/>
    <path d="M 136.4774 181.908926 
L 140.030588 181.908926 
L 140.030588 121.961057 
L 136.4774 121.961057 
z
" clip-path="url(#p5175ed5be9)" style="fill: #a4bfd2; stroke: #3d3d3d; stroke-width: 1.125"/>
    <path d="M 137.365697 121.961057 
L 139.142291 121.961057 
L 139.142291 70.029472 
L 137.365697 70.029472 
z
" clip-path="url(#p5175ed5be9)" style="fill: #b4c9d9; stroke: #3d3d3d; stroke-width: 1.125"/>
    <path d="M 137.809846 70.029472 
L 138.698143 70.029472 
L 138.698143 70.029472 
L 137.809846 70.029472 
z
" clip-path="url(#p5175ed5be9)" style="fill: #c0d1de; stroke: #3d3d3d; stroke-width: 1.125"/>
    <path d="M 138.03192 70.029472 
L 138.476068 70.029472 
L 138.476068 70.029472 
L 138.03192 70.029472 
z
" clip-path="url(#p5175ed5be9)" style="fill: #cad8e3; stroke: #3d3d3d; stroke-width: 1.125"/>
    <path d="M 138.142957 70.029472 
L 138.365031 70.029472 
L 138.365031 70.029472 
L 138.142957 70.029472 
z
" clip-path="url(#p5175ed5be9)" style="fill: #d2dde6; stroke: #3d3d3d; stroke-width: 1.125"/>
   </g>
   <g id="PathCollection_1">
    <path d="M 0 938.5 
C 0.663008 938.5 1.29895 938.236584 1.767767 937.767767 
C 2.236584 937.29895 2.5 936.663008 2.5 936 
C 2.5 935.336992 2.236584 934.70105 1.767767 934.232233 
C 1.29895 933.763416 0.663008 933.5 0 933.5 
C -0.663008 933.5 -1.29895 933.763416 -1.767767 934.232233 
C -2.236584 934.70105 -2.5 935.336992 -2.5 936 
C -2.5 936.663008 -2.236584 937.29895 -1.767767 937.767767 
C -1.29895 938.236584 -0.663008 938.5 0 938.5 
" clip-path="url(#p5175ed5be9)" style="fill: none; stroke: #737373; stroke-width: 1.5"/>
   </g>
   <g id="PatchCollection_2">
    <path d="M 209.206717 655.218269 
L 209.428791 655.218269 
L 209.428791 645.807847 
L 209.206717 645.807847 
z
" clip-path="url(#p5175ed5be9)" style="fill: #f0dfd1; stroke: #3d3d3d; stroke-width: 1.125"/>
    <path d="M 209.095679 645.807847 
L 209.539828 645.807847 
L 209.539828 645.807847 
L 209.095679 645.807847 
z
" clip-path="url(#p5175ed5be9)" style="fill: #efdac9; stroke: #3d3d3d; stroke-width: 1.125"/>
    <path d="M 208.873605 645.807847 
L 209.761902 645.807847 
L 209.761902 645.807847 
L 208.873605 645.807847 
z
" clip-path="url(#p5175ed5be9)" style="fill: #eed4be; stroke: #3d3d3d; stroke-width: 1.125"/>
    <path d="M 208.429457 645.807847 
L 210.206051 645.807847 
L 210.206051 642.322506 
L 208.429457 642.322506 
z
" clip-path="url(#p5175ed5be9)" style="fill: #edcdb2; stroke: #3d3d3d; stroke-width: 1.125"/>
    <path d="M 207.54116 642.322506 
L 211.094348 642.322506 
L 211.094348 641.276904 
L 207.54116 641.276904 
z
" clip-path="url(#p5175ed5be9)" style="fill: #ecc4a2; stroke: #3d3d3d; stroke-width: 1.125"/>
    <path d="M 205.764566 641.276904 
L 212.870942 641.276904 
L 212.870942 639.185699 
L 205.764566 639.185699 
z
" clip-path="url(#p5175ed5be9)" style="fill: #eab88d; stroke: #3d3d3d; stroke-width: 1.125"/>
    <path d="M 202.211378 639.185699 
L 216.42413 639.185699 
L 216.42413 636.74596 
L 202.211378 636.74596 
z
" clip-path="url(#p5175ed5be9)" style="fill: #e7aa74; stroke: #3d3d3d; stroke-width: 1.125"/>
    <path d="M 195.105002 636.74596 
L 223.530506 636.74596 
L 223.530506 630.472346 
L 195.105002 630.472346 
z
" clip-path="url(#p5175ed5be9)" style="fill: #e49854; stroke: #3d3d3d; stroke-width: 1.125"/>
    <path d="M 180.89225 630.472346 
L 237.743257 630.472346 
L 237.743257 410.547313 
L 180.89225 410.547313 
z
" clip-path="url(#p5175ed5be9)" style="fill: #e1812c; stroke: #3d3d3d; stroke-width: 1.125"/>
    <path d="M 195.105002 410.547313 
L 223.530506 410.547313 
L 223.530506 285.075027 
L 195.105002 285.075027 
z
" clip-path="url(#p5175ed5be9)" style="fill: #e49854; stroke: #3d3d3d; stroke-width: 1.125"/>
    <path d="M 202.211378 285.075027 
L 216.42413 285.075027 
L 216.42413 243.250932 
L 202.211378 243.250932 
z
" clip-path="url(#p5175ed5be9)" style="fill: #e7aa74; stroke: #3d3d3d; stroke-width: 1.125"/>
    <path d="M 205.764566 243.250932 
L 212.870942 243.250932 
L 212.870942 181.908926 
L 205.764566 181.908926 
z
" clip-path="url(#p5175ed5be9)" style="fill: #eab88d; stroke: #3d3d3d; stroke-width: 1.125"/>
    <path d="M 207.54116 181.908926 
L 211.094348 181.908926 
L 211.094348 121.961057 
L 207.54116 121.961057 
z
" clip-path="url(#p5175ed5be9)" style="fill: #ecc4a2; stroke: #3d3d3d; stroke-width: 1.125"/>
    <path d="M 208.429457 121.961057 
L 210.206051 121.961057 
L 210.206051 70.029472 
L 208.429457 70.029472 
z
" clip-path="url(#p5175ed5be9)" style="fill: #edcdb2; stroke: #3d3d3d; stroke-width: 1.125"/>
    <path d="M 208.873605 70.029472 
L 209.761902 70.029472 
L 209.761902 70.029472 
L 208.873605 70.029472 
z
" clip-path="url(#p5175ed5be9)" style="fill: #eed4be; stroke: #3d3d3d; stroke-width: 1.125"/>
    <path d="M 209.095679 70.029472 
L 209.539828 70.029472 
L 209.539828 70.029472 
L 209.095679 70.029472 
z
" clip-path="url(#p5175ed5be9)" style="fill: #efdac9; stroke: #3d3d3d; stroke-width: 1.125"/>
    <path d="M 209.206717 70.029472 
L 209.428791 70.029472 
L 209.428791 70.029472 
L 209.206717 70.029472 
z
" clip-path="url(#p5175ed5be9)" style="fill: #f0dfd1; stroke: #3d3d3d; stroke-width: 1.125"/>
   </g>
   <g id="PathCollection_2">
    <path d="M 0 938.5 
C 0.663008 938.5 1.29895 938.236584 1.767767 937.767767 
C 2.236584 937.29895 2.5 936.663008 2.5 936 
C 2.5 935.336992 2.236584 934.70105 1.767767 934.232233 
C 1.29895 933.763416 0.663008 933.5 0 933.5 
C -0.663008 933.5 -1.29895 933.763416 -1.767767 934.232233 
C -2.236584 934.70105 -2.5 935.336992 -2.5 936 
C -2.5 936.663008 -2.236584 937.29895 -1.767767 937.767767 
C -1.29895 938.236584 -0.663008 938.5 0 938.5 
" clip-path="url(#p5175ed5be9)" style="fill: none; stroke: #737373; stroke-width: 1.5"/>
   </g>
   <g id="PatchCollection_3">
    <path d="M 280.270476 695.299693 
L 280.49255 695.299693 
L 280.49255 695.299693 
L 280.270476 695.299693 
z
" clip-path="url(#p5175ed5be9)" style="fill: #d0e3d0; stroke: #3d3d3d; stroke-width: 1.125"/>
    <path d="M 280.159439 695.299693 
L 280.603587 695.299693 
L 280.603587 694.951159 
L 280.159439 694.951159 
z
" clip-path="url(#p5175ed5be9)" style="fill: #c9dfc9; stroke: #3d3d3d; stroke-width: 1.125"/>
    <path d="M 279.937365 694.951159 
L 280.825662 694.951159 
L 280.825662 694.951159 
L 279.937365 694.951159 
z
" clip-path="url(#p5175ed5be9)" style="fill: #bfdabf; stroke: #3d3d3d; stroke-width: 1.125"/>
    <path d="M 279.493216 694.951159 
L 281.26981 694.951159 
L 281.26981 694.602625 
L 279.493216 694.602625 
z
" clip-path="url(#p5175ed5be9)" style="fill: #b4d4b4; stroke: #3d3d3d; stroke-width: 1.125"/>
    <path d="M 278.604919 694.602625 
L 282.158107 694.602625 
L 282.158107 693.557022 
L 278.604919 693.557022 
z
" clip-path="url(#p5175ed5be9)" style="fill: #a6cca6; stroke: #3d3d3d; stroke-width: 1.125"/>
    <path d="M 276.828325 693.557022 
L 283.934701 693.557022 
L 283.934701 687.631942 
L 276.828325 687.631942 
z
" clip-path="url(#p5175ed5be9)" style="fill: #93c293; stroke: #3d3d3d; stroke-width: 1.125"/>
    <path d="M 273.275137 687.631942 
L 287.487889 687.631942 
L 287.487889 679.267123 
L 273.275137 679.267123 
z
" clip-path="url(#p5175ed5be9)" style="fill: #7cb57c; stroke: #3d3d3d; stroke-width: 1.125"/>
    <path d="M 266.168761 679.267123 
L 294.594265 679.267123 
L 294.594265 662.886019 
L 266.168761 662.886019 
z
" clip-path="url(#p5175ed5be9)" style="fill: #5fa55f; stroke: #3d3d3d; stroke-width: 1.125"/>
    <path d="M 251.956009 662.886019 
L 308.807017 662.886019 
L 308.807017 549.960963 
L 251.956009 549.960963 
z
" clip-path="url(#p5175ed5be9)" style="fill: #3a923a; stroke: #3d3d3d; stroke-width: 1.125"/>
    <path d="M 266.168761 549.960963 
L 294.594265 549.960963 
L 294.594265 463.175966 
L 266.168761 463.175966 
z
" clip-path="url(#p5175ed5be9)" style="fill: #5fa55f; stroke: #3d3d3d; stroke-width: 1.125"/>
    <path d="M 273.275137 463.175966 
L 287.487889 463.175966 
L 287.487889 376.042434 
L 273.275137 376.042434 
z
" clip-path="url(#p5175ed5be9)" style="fill: #7cb57c; stroke: #3d3d3d; stroke-width: 1.125"/>
    <path d="M 276.828325 376.042434 
L 283.934701 376.042434 
L 283.934701 312.609223 
L 276.828325 312.609223 
z
" clip-path="url(#p5175ed5be9)" style="fill: #93c293; stroke: #3d3d3d; stroke-width: 1.125"/>
    <path d="M 278.604919 312.609223 
L 282.158107 312.609223 
L 282.158107 250.918683 
L 278.604919 250.918683 
z
" clip-path="url(#p5175ed5be9)" style="fill: #a6cca6; stroke: #3d3d3d; stroke-width: 1.125"/>
    <path d="M 279.493216 250.918683 
L 281.26981 250.918683 
L 281.26981 186.43987 
L 279.493216 186.43987 
z
" clip-path="url(#p5175ed5be9)" style="fill: #b4d4b4; stroke: #3d3d3d; stroke-width: 1.125"/>
    <path d="M 279.937365 186.43987 
L 280.825662 186.43987 
L 280.825662 139.736297 
L 279.937365 139.736297 
z
" clip-path="url(#p5175ed5be9)" style="fill: #bfdabf; stroke: #3d3d3d; stroke-width: 1.125"/>
    <path d="M 280.159439 139.736297 
L 280.603587 139.736297 
L 280.603587 121.961057 
L 280.159439 121.961057 
z
" clip-path="url(#p5175ed5be9)" style="fill: #c9dfc9; stroke: #3d3d3d; stroke-width: 1.125"/>
    <path d="M 280.270476 121.961057 
L 280.49255 121.961057 
L 280.49255 69.680938 
L 280.270476 69.680938 
z
" clip-path="url(#p5175ed5be9)" style="fill: #d0e3d0; stroke: #3d3d3d; stroke-width: 1.125"/>
   </g>
   <g id="PathCollection_3">
    <path d="M 0 938.5 
C 0.663008 938.5 1.29895 938.236584 1.767767 937.767767 
C 2.236584 937.29895 2.5 936.663008 2.5 936 
C 2.5 935.336992 2.236584 934.70105 1.767767 934.232233 
C 1.29895 933.763416 0.663008 933.5 0 933.5 
C -0.663008 933.5 -1.29895 933.763416 -1.767767 934.232233 
C -2.236584 934.70105 -2.5 935.336992 -2.5 936 
C -2.5 936.663008 -2.236584 937.29895 -1.767767 937.767767 
C -1.29895 938.236584 -0.663008 938.5 0 938.5 
" clip-path="url(#p5175ed5be9)" style="fill: none; stroke: #737373; stroke-width: 1.5"/>
   </g>
   <g id="PatchCollection_4">
    <path d="M 351.334236 695.299693 
L 351.55631 695.299693 
L 351.55631 695.299693 
L 351.334236 695.299693 
z
" clip-path="url(#p5175ed5be9)" style="fill: #ead4d4; stroke: #3d3d3d; stroke-width: 1.125"/>
    <path d="M 351.223199 695.299693 
L 351.667347 695.299693 
L 351.667347 694.951159 
L 351.223199 694.951159 
z
" clip-path="url(#p5175ed5be9)" style="fill: #e8cdcd; stroke: #3d3d3d; stroke-width: 1.125"/>
    <path d="M 351.001124 694.951159 
L 351.889421 694.951159 
L 351.889421 694.951159 
L 351.001124 694.951159 
z
" clip-path="url(#p5175ed5be9)" style="fill: #e6c3c3; stroke: #3d3d3d; stroke-width: 1.125"/>
    <path d="M 350.556976 694.951159 
L 352.33357 694.951159 
L 352.33357 694.602625 
L 350.556976 694.602625 
z
" clip-path="url(#p5175ed5be9)" style="fill: #e2b8b8; stroke: #3d3d3d; stroke-width: 1.125"/>
    <path d="M 349.668679 694.602625 
L 353.221867 694.602625 
L 353.221867 693.557022 
L 349.668679 693.557022 
z
" clip-path="url(#p5175ed5be9)" style="fill: #dea9a9; stroke: #3d3d3d; stroke-width: 1.125"/>
    <path d="M 347.892085 693.557022 
L 354.998461 693.557022 
L 354.998461 687.631942 
L 347.892085 687.631942 
z
" clip-path="url(#p5175ed5be9)" style="fill: #d99697; stroke: #3d3d3d; stroke-width: 1.125"/>
    <path d="M 344.338897 687.631942 
L 358.551649 687.631942 
L 358.551649 679.267123 
L 344.338897 679.267123 
z
" clip-path="url(#p5175ed5be9)" style="fill: #d37f7f; stroke: #3d3d3d; stroke-width: 1.125"/>
    <path d="M 337.232521 679.267123 
L 365.658025 679.267123 
L 365.658025 662.886019 
L 337.232521 662.886019 
z
" clip-path="url(#p5175ed5be9)" style="fill: #ca6162; stroke: #3d3d3d; stroke-width: 1.125"/>
    <path d="M 323.019769 662.886019 
L 379.870777 662.886019 
L 379.870777 549.960963 
L 323.019769 549.960963 
z
" clip-path="url(#p5175ed5be9)" style="fill: #c03d3e; stroke: #3d3d3d; stroke-width: 1.125"/>
    <path d="M 337.232521 549.960963 
L 365.658025 549.960963 
L 365.658025 463.175966 
L 337.232521 463.175966 
z
" clip-path="url(#p5175ed5be9)" style="fill: #ca6162; stroke: #3d3d3d; stroke-width: 1.125"/>
    <path d="M 344.338897 463.175966 
L 358.551649 463.175966 
L 358.551649 376.042434 
L 344.338897 376.042434 
z
" clip-path="url(#p5175ed5be9)" style="fill: #d37f7f; stroke: #3d3d3d; stroke-width: 1.125"/>
    <path d="M 347.892085 376.042434 
L 354.998461 376.042434 
L 354.998461 312.609223 
L 347.892085 312.609223 
z
" clip-path="url(#p5175ed5be9)" style="fill: #d99697; stroke: #3d3d3d; stroke-width: 1.125"/>
    <path d="M 349.668679 312.609223 
L 353.221867 312.609223 
L 353.221867 250.918683 
L 349.668679 250.918683 
z
" clip-path="url(#p5175ed5be9)" style="fill: #dea9a9; stroke: #3d3d3d; stroke-width: 1.125"/>
    <path d="M 350.556976 250.918683 
L 352.33357 250.918683 
L 352.33357 186.43987 
L 350.556976 186.43987 
z
" clip-path="url(#p5175ed5be9)" style="fill: #e2b8b8; stroke: #3d3d3d; stroke-width: 1.125"/>
    <path d="M 351.001124 186.43987 
L 351.889421 186.43987 
L 351.889421 139.736297 
L 351.001124 139.736297 
z
" clip-path="url(#p5175ed5be9)" style="fill: #e6c3c3; stroke: #3d3d3d; stroke-width: 1.125"/>
    <path d="M 351.223199 139.736297 
L 351.667347 139.736297 
L 351.667347 121.961057 
L 351.223199 121.961057 
z
" clip-path="url(#p5175ed5be9)" style="fill: #e8cdcd; stroke: #3d3d3d; stroke-width: 1.125"/>
    <path d="M 351.334236 121.961057 
L 351.55631 121.961057 
L 351.55631 69.680938 
L 351.334236 69.680938 
z
" clip-path="url(#p5175ed5be9)" style="fill: #ead4d4; stroke: #3d3d3d; stroke-width: 1.125"/>
   </g>
   <g id="PathCollection_4">
    <path d="M 0 938.5 
C 0.663008 938.5 1.29895 938.236584 1.767767 937.767767 
C 2.236584 937.29895 2.5 936.663008 2.5 936 
C 2.5 935.336992 2.236584 934.70105 1.767767 934.232233 
C 1.29895 933.763416 0.663008 933.5 0 933.5 
C -0.663008 933.5 -1.29895 933.763416 -1.767767 934.232233 
C -2.236584 934.70105 -2.5 935.336992 -2.5 936 
C -2.5 936.663008 -2.236584 937.29895 -1.767767 937.767767 
C -1.29895 938.236584 -0.663008 938.5 0 938.5 
" clip-path="url(#p5175ed5be9)" style="fill: none; stroke: #737373; stroke-width: 1.5"/>
   </g>
   <g id="PatchCollection_5">
    <path d="M 422.397995 695.299693 
L 422.620069 695.299693 
L 422.620069 695.299693 
L 422.397995 695.299693 
z
" clip-path="url(#p5175ed5be9)" style="fill: #e2dde8; stroke: #3d3d3d; stroke-width: 1.125"/>
    <path d="M 422.286958 695.299693 
L 422.731107 695.299693 
L 422.731107 694.951159 
L 422.286958 694.951159 
z
" clip-path="url(#p5175ed5be9)" style="fill: #dfd8e5; stroke: #3d3d3d; stroke-width: 1.125"/>
    <path d="M 422.064884 694.951159 
L 422.953181 694.951159 
L 422.953181 694.951159 
L 422.064884 694.951159 
z
" clip-path="url(#p5175ed5be9)" style="fill: #d9d1e2; stroke: #3d3d3d; stroke-width: 1.125"/>
    <path d="M 421.620735 694.951159 
L 423.397329 694.951159 
L 423.397329 694.602625 
L 421.620735 694.602625 
z
" clip-path="url(#p5175ed5be9)" style="fill: #d4c9de; stroke: #3d3d3d; stroke-width: 1.125"/>
    <path d="M 420.732438 694.602625 
L 424.285626 694.602625 
L 424.285626 693.557022 
L 420.732438 693.557022 
z
" clip-path="url(#p5175ed5be9)" style="fill: #ccbed8; stroke: #3d3d3d; stroke-width: 1.125"/>
    <path d="M 418.955844 693.557022 
L 426.06222 693.557022 
L 426.06222 687.631942 
L 418.955844 687.631942 
z
" clip-path="url(#p5175ed5be9)" style="fill: #c2b1d2; stroke: #3d3d3d; stroke-width: 1.125"/>
    <path d="M 415.402656 687.631942 
L 429.615408 687.631942 
L 429.615408 679.267123 
L 415.402656 679.267123 
z
" clip-path="url(#p5175ed5be9)" style="fill: #b6a0ca; stroke: #3d3d3d; stroke-width: 1.125"/>
    <path d="M 408.29628 679.267123 
L 436.721784 679.267123 
L 436.721784 662.886019 
L 408.29628 662.886019 
z
" clip-path="url(#p5175ed5be9)" style="fill: #a78cbf; stroke: #3d3d3d; stroke-width: 1.125"/>
    <path d="M 394.083529 662.886019 
L 450.934536 662.886019 
L 450.934536 549.960963 
L 394.083529 549.960963 
z
" clip-path="url(#p5175ed5be9)" style="fill: #9372b2; stroke: #3d3d3d; stroke-width: 1.125"/>
    <path d="M 408.29628 549.960963 
L 436.721784 549.960963 
L 436.721784 463.175966 
L 408.29628 463.175966 
z
" clip-path="url(#p5175ed5be9)" style="fill: #a78cbf; stroke: #3d3d3d; stroke-width: 1.125"/>
    <path d="M 415.402656 463.175966 
L 429.615408 463.175966 
L 429.615408 376.042434 
L 415.402656 376.042434 
z
" clip-path="url(#p5175ed5be9)" style="fill: #b6a0ca; stroke: #3d3d3d; stroke-width: 1.125"/>
    <path d="M 418.955844 376.042434 
L 426.06222 376.042434 
L 426.06222 312.609223 
L 418.955844 312.609223 
z
" clip-path="url(#p5175ed5be9)" style="fill: #c2b1d2; stroke: #3d3d3d; stroke-width: 1.125"/>
    <path d="M 420.732438 312.609223 
L 424.285626 312.609223 
L 424.285626 250.918683 
L 420.732438 250.918683 
z
" clip-path="url(#p5175ed5be9)" style="fill: #ccbed8; stroke: #3d3d3d; stroke-width: 1.125"/>
    <path d="M 421.620735 250.918683 
L 423.397329 250.918683 
L 423.397329 186.43987 
L 421.620735 186.43987 
z
" clip-path="url(#p5175ed5be9)" style="fill: #d4c9de; stroke: #3d3d3d; stroke-width: 1.125"/>
    <path d="M 422.064884 186.43987 
L 422.953181 186.43987 
L 422.953181 139.736297 
L 422.064884 139.736297 
z
" clip-path="url(#p5175ed5be9)" style="fill: #d9d1e2; stroke: #3d3d3d; stroke-width: 1.125"/>
    <path d="M 422.286958 139.736297 
L 422.731107 139.736297 
L 422.731107 121.961057 
L 422.286958 121.961057 
z
" clip-path="url(#p5175ed5be9)" style="fill: #dfd8e5; stroke: #3d3d3d; stroke-width: 1.125"/>
    <path d="M 422.397995 121.961057 
L 422.620069 121.961057 
L 422.620069 69.680938 
L 422.397995 69.680938 
z
" clip-path="url(#p5175ed5be9)" style="fill: #e2dde8; stroke: #3d3d3d; stroke-width: 1.125"/>
   </g>
   <g id="PathCollection_5">
    <path d="M 0 938.5 
C 0.663008 938.5 1.29895 938.236584 1.767767 937.767767 
C 2.236584 937.29895 2.5 936.663008 2.5 936 
C 2.5 935.336992 2.236584 934.70105 1.767767 934.232233 
C 1.29895 933.763416 0.663008 933.5 0 933.5 
C -0.663008 933.5 -1.29895 933.763416 -1.767767 934.232233 
C -2.236584 934.70105 -2.5 935.336992 -2.5 936 
C -2.5 936.663008 -2.236584 937.29895 -1.767767 937.767767 
C -1.29895 938.236584 -0.663008 938.5 0 938.5 
" clip-path="url(#p5175ed5be9)" style="fill: none; stroke: #737373; stroke-width: 1.5"/>
   </g>
   <g id="PatchCollection_6">
    <path d="M 493.461755 695.299693 
L 493.683829 695.299693 
L 493.683829 695.299693 
L 493.461755 695.299693 
z
" clip-path="url(#p5175ed5be9)" style="fill: #e0d9d8; stroke: #3d3d3d; stroke-width: 1.125"/>
    <path d="M 493.350718 695.299693 
L 493.794866 695.299693 
L 493.794866 694.951159 
L 493.350718 694.951159 
z
" clip-path="url(#p5175ed5be9)" style="fill: #dcd3d1; stroke: #3d3d3d; stroke-width: 1.125"/>
    <path d="M 493.128643 694.951159 
L 494.01694 694.951159 
L 494.01694 694.951159 
L 493.128643 694.951159 
z
" clip-path="url(#p5175ed5be9)" style="fill: #d6cbc9; stroke: #3d3d3d; stroke-width: 1.125"/>
    <path d="M 492.684495 694.951159 
L 494.461089 694.951159 
L 494.461089 694.602625 
L 492.684495 694.602625 
z
" clip-path="url(#p5175ed5be9)" style="fill: #cfc2bf; stroke: #3d3d3d; stroke-width: 1.125"/>
    <path d="M 491.796198 694.602625 
L 495.349386 694.602625 
L 495.349386 693.557022 
L 491.796198 693.557022 
z
" clip-path="url(#p5175ed5be9)" style="fill: #c6b5b2; stroke: #3d3d3d; stroke-width: 1.125"/>
    <path d="M 490.019604 693.557022 
L 497.12598 693.557022 
L 497.12598 687.631942 
L 490.019604 687.631942 
z
" clip-path="url(#p5175ed5be9)" style="fill: #baa6a1; stroke: #3d3d3d; stroke-width: 1.125"/>
    <path d="M 486.466416 687.631942 
L 500.679168 687.631942 
L 500.679168 679.267123 
L 486.466416 679.267123 
z
" clip-path="url(#p5175ed5be9)" style="fill: #ac928d; stroke: #3d3d3d; stroke-width: 1.125"/>
    <path d="M 479.36004 679.267123 
L 507.785544 679.267123 
L 507.785544 662.886019 
L 479.36004 662.886019 
z
" clip-path="url(#p5175ed5be9)" style="fill: #9a7a73; stroke: #3d3d3d; stroke-width: 1.125"/>
    <path d="M 465.147288 662.886019 
L 521.998296 662.886019 
L 521.998296 549.960963 
L 465.147288 549.960963 
z
" clip-path="url(#p5175ed5be9)" style="fill: #845b53; stroke: #3d3d3d; stroke-width: 1.125"/>
    <path d="M 479.36004 549.960963 
L 507.785544 549.960963 
L 507.785544 463.175966 
L 479.36004 463.175966 
z
" clip-path="url(#p5175ed5be9)" style="fill: #9a7a73; stroke: #3d3d3d; stroke-width: 1.125"/>
    <path d="M 486.466416 463.175966 
L 500.679168 463.175966 
L 500.679168 376.042434 
L 486.466416 376.042434 
z
" clip-path="url(#p5175ed5be9)" style="fill: #ac928d; stroke: #3d3d3d; stroke-width: 1.125"/>
    <path d="M 490.019604 376.042434 
L 497.12598 376.042434 
L 497.12598 312.609223 
L 490.019604 312.609223 
z
" clip-path="url(#p5175ed5be9)" style="fill: #baa6a1; stroke: #3d3d3d; stroke-width: 1.125"/>
    <path d="M 491.796198 312.609223 
L 495.349386 312.609223 
L 495.349386 250.918683 
L 491.796198 250.918683 
z
" clip-path="url(#p5175ed5be9)" style="fill: #c6b5b2; stroke: #3d3d3d; stroke-width: 1.125"/>
    <path d="M 492.684495 250.918683 
L 494.461089 250.918683 
L 494.461089 186.43987 
L 492.684495 186.43987 
z
" clip-path="url(#p5175ed5be9)" style="fill: #cfc2bf; stroke: #3d3d3d; stroke-width: 1.125"/>
    <path d="M 493.128643 186.43987 
L 494.01694 186.43987 
L 494.01694 139.736297 
L 493.128643 139.736297 
z
" clip-path="url(#p5175ed5be9)" style="fill: #d6cbc9; stroke: #3d3d3d; stroke-width: 1.125"/>
    <path d="M 493.350718 139.736297 
L 493.794866 139.736297 
L 493.794866 121.961057 
L 493.350718 121.961057 
z
" clip-path="url(#p5175ed5be9)" style="fill: #dcd3d1; stroke: #3d3d3d; stroke-width: 1.125"/>
    <path d="M 493.461755 121.961057 
L 493.683829 121.961057 
L 493.683829 69.680938 
L 493.461755 69.680938 
z
" clip-path="url(#p5175ed5be9)" style="fill: #e0d9d8; stroke: #3d3d3d; stroke-width: 1.125"/>
   </g>
   <g id="PathCollection_6">
    <path d="M 0 938.5 
C 0.663008 938.5 1.29895 938.236584 1.767767 937.767767 
C 2.236584 937.29895 2.5 936.663008 2.5 936 
C 2.5 935.336992 2.236584 934.70105 1.767767 934.232233 
C 1.29895 933.763416 0.663008 933.5 0 933.5 
C -0.663008 933.5 -1.29895 933.763416 -1.767767 934.232233 
C -2.236584 934.70105 -2.5 935.336992 -2.5 936 
C -2.5 936.663008 -2.236584 937.29895 -1.767767 937.767767 
C -1.29895 938.236584 -0.663008 938.5 0 938.5 
" clip-path="url(#p5175ed5be9)" style="fill: none; stroke: #737373; stroke-width: 1.5"/>
   </g>
   <g id="line2d_9">
    <path d="M 109.82849 550.309497 
L 166.679498 550.309497 
" clip-path="url(#p5175ed5be9)" style="fill: none; stroke: #3d3d3d; stroke-width: 1.40625"/>
   </g>
   <g id="line2d_10">
    <path d="M 180.89225 550.309497 
L 237.743257 550.309497 
" clip-path="url(#p5175ed5be9)" style="fill: none; stroke: #3d3d3d; stroke-width: 1.40625"/>
   </g>
   <g id="line2d_11">
    <path d="M 251.956009 632.563551 
L 308.807017 632.563551 
" clip-path="url(#p5175ed5be9)" style="fill: none; stroke: #3d3d3d; stroke-width: 1.40625"/>
   </g>
   <g id="line2d_12">
    <path d="M 323.019769 632.563551 
L 379.870777 632.563551 
" clip-path="url(#p5175ed5be9)" style="fill: none; stroke: #3d3d3d; stroke-width: 1.40625"/>
   </g>
   <g id="line2d_13">
    <path d="M 394.083529 632.563551 
L 450.934536 632.563551 
" clip-path="url(#p5175ed5be9)" style="fill: none; stroke: #3d3d3d; stroke-width: 1.40625"/>
   </g>
   <g id="line2d_14">
    <path d="M 465.147288 632.563551 
L 521.998296 632.563551 
" clip-path="url(#p5175ed5be9)" style="fill: none; stroke: #3d3d3d; stroke-width: 1.40625"/>
   </g>
   <g id="line2d_15">
    <path d="M 209.317754 509.018659 
L 209.317754 495.255046 
L 280.381513 495.255046 
L 280.381513 509.018659 
" style="fill: none; stroke: #333333; stroke-width: 1.5; stroke-linecap: round"/>
   </g>
   <g id="line2d_16">
    <path d="M 138.253994 461.720659 
L 138.253994 447.957046 
L 280.381513 447.957046 
L 280.381513 461.720659 
" style="fill: none; stroke: #333333; stroke-width: 1.5; stroke-linecap: round"/>
   </g>
   <g id="line2d_17">
    <path d="M 209.317754 414.422659 
L 209.317754 400.659046 
L 351.445273 400.659046 
L 351.445273 414.422659 
" style="fill: none; stroke: #333333; stroke-width: 1.5; stroke-linecap: round"/>
   </g>
   <g id="line2d_18">
    <path d="M 138.253994 367.124659 
L 138.253994 353.361046 
L 351.445273 353.361046 
L 351.445273 367.124659 
" style="fill: none; stroke: #333333; stroke-width: 1.5; stroke-linecap: round"/>
   </g>
   <g id="line2d_19">
    <path d="M 209.317754 319.826659 
L 209.317754 306.063046 
L 422.509032 306.063046 
L 422.509032 319.826659 
" style="fill: none; stroke: #333333; stroke-width: 1.5; stroke-linecap: round"/>
   </g>
   <g id="line2d_20">
    <path d="M 138.253994 272.528658 
L 138.253994 258.765046 
L 422.509032 258.765046 
L 422.509032 272.528658 
" style="fill: none; stroke: #333333; stroke-width: 1.5; stroke-linecap: round"/>
   </g>
   <g id="line2d_21">
    <path d="M 209.317754 225.230658 
L 209.317754 211.467046 
L 493.572792 211.467046 
L 493.572792 225.230658 
" style="fill: none; stroke: #333333; stroke-width: 1.5; stroke-linecap: round"/>
   </g>
   <g id="line2d_22">
    <path d="M 138.253994 177.932658 
L 138.253994 164.169046 
L 493.572792 164.169046 
L 493.572792 177.932658 
" style="fill: none; stroke: #333333; stroke-width: 1.5; stroke-linecap: round"/>
   </g>
   <g id="patch_3">
    <path d="M 89.22 726.580631 
L 89.22 38.4 
" style="fill: none; stroke: #cccccc; stroke-width: 1.875; stroke-linejoin: miter; stroke-linecap: square"/>
   </g>
   <g id="patch_4">
    <path d="M 542.606786 726.580631 
L 542.606786 38.4 
" style="fill: none; stroke: #cccccc; stroke-width: 1.875; stroke-linejoin: miter; stroke-linecap: square"/>
   </g>
   <g id="patch_5">
    <path d="M 89.22 726.580631 
L 542.606786 726.580631 
" style="fill: none; stroke: #cccccc; stroke-width: 1.875; stroke-linejoin: miter; stroke-linecap: square"/>
   </g>
   <g id="patch_6">
    <path d="M 89.22 38.4 
L 542.606786 38.4 
" style="fill: none; stroke: #cccccc; stroke-width: 1.875; stroke-linejoin: miter; stroke-linecap: square"/>
   </g>
   <g id="text_17">
    <!-- **** -->
    <g style="fill: #262626" transform="translate(230.837758 490.677546) scale(0.18 -0.18)">
     <defs>
      <path id="ArialMT-2a" d="M 200 3741 
L 344 4184 
Q 841 4009 1066 3881 
Q 1006 4447 1003 4659 
L 1456 4659 
Q 1447 4350 1384 3884 
Q 1706 4047 2122 4184 
L 2266 3741 
Q 1869 3609 1488 3566 
Q 1678 3400 2025 2975 
L 1650 2709 
Q 1469 2956 1222 3381 
Q 991 2941 816 2709 
L 447 2975 
Q 809 3422 966 3566 
Q 563 3644 200 3741 
z
" transform="scale(0.015625)"/>
     </defs>
     <use xlink:href="#ArialMT-2a"/>
     <use xlink:href="#ArialMT-2a" transform="translate(38.916016 0)"/>
     <use xlink:href="#ArialMT-2a" transform="translate(77.832031 0)"/>
     <use xlink:href="#ArialMT-2a" transform="translate(116.748047 0)"/>
    </g>
   </g>
   <g id="text_18">
    <!-- **** -->
    <g style="fill: #262626" transform="translate(195.305879 443.379546) scale(0.18 -0.18)">
     <use xlink:href="#ArialMT-2a"/>
     <use xlink:href="#ArialMT-2a" transform="translate(38.916016 0)"/>
     <use xlink:href="#ArialMT-2a" transform="translate(77.832031 0)"/>
     <use xlink:href="#ArialMT-2a" transform="translate(116.748047 0)"/>
    </g>
   </g>
   <g id="text_19">
    <!-- **** -->
    <g style="fill: #262626" transform="translate(266.369638 396.081546) scale(0.18 -0.18)">
     <use xlink:href="#ArialMT-2a"/>
     <use xlink:href="#ArialMT-2a" transform="translate(38.916016 0)"/>
     <use xlink:href="#ArialMT-2a" transform="translate(77.832031 0)"/>
     <use xlink:href="#ArialMT-2a" transform="translate(116.748047 0)"/>
    </g>
   </g>
   <g id="text_20">
    <!-- **** -->
    <g style="fill: #262626" transform="translate(230.837758 348.783546) scale(0.18 -0.18)">
     <use xlink:href="#ArialMT-2a"/>
     <use xlink:href="#ArialMT-2a" transform="translate(38.916016 0)"/>
     <use xlink:href="#ArialMT-2a" transform="translate(77.832031 0)"/>
     <use xlink:href="#ArialMT-2a" transform="translate(116.748047 0)"/>
    </g>
   </g>
   <g id="text_21">
    <!-- **** -->
    <g style="fill: #262626" transform="translate(301.901518 301.485546) scale(0.18 -0.18)">
     <use xlink:href="#ArialMT-2a"/>
     <use xlink:href="#ArialMT-2a" transform="translate(38.916016 0)"/>
     <use xlink:href="#ArialMT-2a" transform="translate(77.832031 0)"/>
     <use xlink:href="#ArialMT-2a" transform="translate(116.748047 0)"/>
    </g>
   </g>
   <g id="text_22">
    <!-- **** -->
    <g style="fill: #262626" transform="translate(266.369638 254.187546) scale(0.18 -0.18)">
     <use xlink:href="#ArialMT-2a"/>
     <use xlink:href="#ArialMT-2a" transform="translate(38.916016 0)"/>
     <use xlink:href="#ArialMT-2a" transform="translate(77.832031 0)"/>
     <use xlink:href="#ArialMT-2a" transform="translate(116.748047 0)"/>
    </g>
   </g>
   <g id="text_23">
    <!-- **** -->
    <g style="fill: #262626" transform="translate(337.433398 206.889546) scale(0.18 -0.18)">
     <use xlink:href="#ArialMT-2a"/>
     <use xlink:href="#ArialMT-2a" transform="translate(38.916016 0)"/>
     <use xlink:href="#ArialMT-2a" transform="translate(77.832031 0)"/>
     <use xlink:href="#ArialMT-2a" transform="translate(116.748047 0)"/>
    </g>
   </g>
   <g id="text_24">
    <!-- **** -->
    <g style="fill: #262626" transform="translate(301.901518 159.591546) scale(0.18 -0.18)">
     <use xlink:href="#ArialMT-2a"/>
     <use xlink:href="#ArialMT-2a" transform="translate(38.916016 0)"/>
     <use xlink:href="#ArialMT-2a" transform="translate(77.832031 0)"/>
     <use xlink:href="#ArialMT-2a" transform="translate(116.748047 0)"/>
    </g>
   </g>
   <g id="text_25">
    <!-- Ranked Number of Train Compounds per Fold per Target -->
    <g style="fill: #262626" transform="translate(88.476362 32.4) scale(0.18 -0.18)">
     <defs>
      <path id="ArialMT-6b" d="M 425 0 
L 425 4581 
L 988 4581 
L 988 1969 
L 2319 3319 
L 3047 3319 
L 1778 2088 
L 3175 0 
L 2481 0 
L 1384 1697 
L 988 1316 
L 988 0 
L 425 0 
z
" transform="scale(0.015625)"/>
      <path id="ArialMT-4e" d="M 488 0 
L 488 4581 
L 1109 4581 
L 3516 984 
L 3516 4581 
L 4097 4581 
L 4097 0 
L 3475 0 
L 1069 3600 
L 1069 0 
L 488 0 
z
" transform="scale(0.015625)"/>
      <path id="ArialMT-54" d="M 1659 0 
L 1659 4041 
L 150 4041 
L 150 4581 
L 3781 4581 
L 3781 4041 
L 2266 4041 
L 2266 0 
L 1659 0 
z
" transform="scale(0.015625)"/>
     </defs>
     <use xlink:href="#ArialMT-52"/>
     <use xlink:href="#ArialMT-61" transform="translate(72.216797 0)"/>
     <use xlink:href="#ArialMT-6e" transform="translate(127.832031 0)"/>
     <use xlink:href="#ArialMT-6b" transform="translate(183.447266 0)"/>
     <use xlink:href="#ArialMT-65" transform="translate(233.447266 0)"/>
     <use xlink:href="#ArialMT-64" transform="translate(289.0625 0)"/>
     <use xlink:href="#ArialMT-20" transform="translate(344.677734 0)"/>
     <use xlink:href="#ArialMT-4e" transform="translate(372.460938 0)"/>
     <use xlink:href="#ArialMT-75" transform="translate(444.677734 0)"/>
     <use xlink:href="#ArialMT-6d" transform="translate(500.292969 0)"/>
     <use xlink:href="#ArialMT-62" transform="translate(583.59375 0)"/>
     <use xlink:href="#ArialMT-65" transform="translate(639.208984 0)"/>
     <use xlink:href="#ArialMT-72" transform="translate(694.824219 0)"/>
     <use xlink:href="#ArialMT-20" transform="translate(728.125 0)"/>
     <use xlink:href="#ArialMT-6f" transform="translate(755.908203 0)"/>
     <use xlink:href="#ArialMT-66" transform="translate(811.523438 0)"/>
     <use xlink:href="#ArialMT-20" transform="translate(839.306641 0)"/>
     <use xlink:href="#ArialMT-54" transform="translate(865.339844 0)"/>
     <use xlink:href="#ArialMT-72" transform="translate(922.673828 0)"/>
     <use xlink:href="#ArialMT-61" transform="translate(955.974609 0)"/>
     <use xlink:href="#ArialMT-69" transform="translate(1011.589844 0)"/>
     <use xlink:href="#ArialMT-6e" transform="translate(1033.806641 0)"/>
     <use xlink:href="#ArialMT-20" transform="translate(1089.421875 0)"/>
     <use xlink:href="#ArialMT-43" transform="translate(1117.205078 0)"/>
     <use xlink:href="#ArialMT-6f" transform="translate(1189.421875 0)"/>
     <use xlink:href="#ArialMT-6d" transform="translate(1245.037109 0)"/>
     <use xlink:href="#ArialMT-70" transform="translate(1328.337891 0)"/>
     <use xlink:href="#ArialMT-6f" transform="translate(1383.953125 0)"/>
     <use xlink:href="#ArialMT-75" transform="translate(1439.568359 0)"/>
     <use xlink:href="#ArialMT-6e" transform="translate(1495.183594 0)"/>
     <use xlink:href="#ArialMT-64" transform="translate(1550.798828 0)"/>
     <use xlink:href="#ArialMT-73" transform="translate(1606.414062 0)"/>
     <use xlink:href="#ArialMT-20" transform="translate(1656.414062 0)"/>
     <use xlink:href="#ArialMT-70" transform="translate(1684.197266 0)"/>
     <use xlink:href="#ArialMT-65" transform="translate(1739.8125 0)"/>
     <use xlink:href="#ArialMT-72" transform="translate(1795.427734 0)"/>
     <use xlink:href="#ArialMT-20" transform="translate(1828.728516 0)"/>
     <use xlink:href="#ArialMT-46" transform="translate(1856.511719 0)"/>
     <use xlink:href="#ArialMT-6f" transform="translate(1917.595703 0)"/>
     <use xlink:href="#ArialMT-6c" transform="translate(1973.210938 0)"/>
     <use xlink:href="#ArialMT-64" transform="translate(1995.427734 0)"/>
     <use xlink:href="#ArialMT-20" transform="translate(2051.042969 0)"/>
     <use xlink:href="#ArialMT-70" transform="translate(2078.826172 0)"/>
     <use xlink:href="#ArialMT-65" transform="translate(2134.441406 0)"/>
     <use xlink:href="#ArialMT-72" transform="translate(2190.056641 0)"/>
     <use xlink:href="#ArialMT-20" transform="translate(2223.357422 0)"/>
     <use xlink:href="#ArialMT-54" transform="translate(2249.390625 0)"/>
     <use xlink:href="#ArialMT-61" transform="translate(2299.349609 0)"/>
     <use xlink:href="#ArialMT-72" transform="translate(2354.964844 0)"/>
     <use xlink:href="#ArialMT-67" transform="translate(2388.265625 0)"/>
     <use xlink:href="#ArialMT-65" transform="translate(2443.880859 0)"/>
     <use xlink:href="#ArialMT-74" transform="translate(2499.496094 0)"/>
    </g>
   </g>
  </g>
 </g>
 <defs>
  <clipPath id="p5175ed5be9">
   <rect x="89.22" y="38.4" width="453.386786" height="688.180631"/>
  </clipPath>
 </defs>
</svg>
