<?xml version="1.0" encoding="utf-8" standalone="no"?>
<!DOCTYPE svg PUBLIC "-//W3C//DTD SVG 1.1//EN"
  "http://www.w3.org/Graphics/SVG/1.1/DTD/svg11.dtd">
<svg xmlns:xlink="http://www.w3.org/1999/xlink" width="720pt" height="864pt" viewBox="0 0 720 864" xmlns="http://www.w3.org/2000/svg" version="1.1">
 <metadata>
  <rdf:RDF xmlns:dc="http://purl.org/dc/elements/1.1/" xmlns:cc="http://creativecommons.org/ns#" xmlns:rdf="http://www.w3.org/1999/02/22-rdf-syntax-ns#">
   <cc:Work>
    <dc:type rdf:resource="http://purl.org/dc/dcmitype/StillImage"/>
    <dc:date>2025-02-25T23:42:52.359969</dc:date>
    <dc:format>image/svg+xml</dc:format>
    <dc:creator>
     <cc:Agent>
      <dc:title>Matplotlib v3.10.0, https://matplotlib.org/</dc:title>
     </cc:Agent>
    </dc:creator>
   </cc:Work>
  </rdf:RDF>
 </metadata>
 <defs>
  <style type="text/css">*{stroke-linejoin: round; stroke-linecap: butt}</style>
 </defs>
 <g id="figure_1">
  <g id="patch_1">
   <path d="M 0 864 
L 720 864 
L 720 0 
L 0 0 
z
" style="fill: #ffffff"/>
  </g>
  <g id="axes_1">
   <g id="patch_2">
    <path d="M 79.566 645.866348 
L 692.917651 645.866348 
L 692.917651 40.416 
L 79.566 40.416 
z
" style="fill: #ffffff"/>
   </g>
   <g id="matplotlib.axis_1">
    <g id="xtick_1">
     <g id="text_1">
      <!-- RandomSplit -->
      <g style="fill: #262626" transform="translate(113.570287 734.472111) rotate(-45) scale(0.176 -0.176)">
       <defs>
        <path id="ArialMT-52" d="M 503 0 
L 503 4581 
L 2534 4581 
Q 3147 4581 3465 4457 
Q 3784 4334 3975 4021 
Q 4166 3709 4166 3331 
Q 4166 2844 3850 2509 
Q 3534 2175 2875 2084 
Q 3116 1969 3241 1856 
Q 3506 1613 3744 1247 
L 4541 0 
L 3778 0 
L 3172 953 
Q 2906 1366 2734 1584 
Q 2563 1803 2427 1890 
Q 2291 1978 2150 2013 
Q 2047 2034 1813 2034 
L 1109 2034 
L 1109 0 
L 503 0 
z
M 1109 2559 
L 2413 2559 
Q 2828 2559 3062 2645 
Q 3297 2731 3419 2920 
Q 3541 3109 3541 3331 
Q 3541 3656 3305 3865 
Q 3069 4075 2559 4075 
L 1109 4075 
L 1109 2559 
z
" transform="scale(0.015625)"/>
        <path id="ArialMT-61" d="M 2588 409 
Q 2275 144 1986 34 
Q 1697 -75 1366 -75 
Q 819 -75 525 192 
Q 231 459 231 875 
Q 231 1119 342 1320 
Q 453 1522 633 1644 
Q 813 1766 1038 1828 
Q 1203 1872 1538 1913 
Q 2219 1994 2541 2106 
Q 2544 2222 2544 2253 
Q 2544 2597 2384 2738 
Q 2169 2928 1744 2928 
Q 1347 2928 1158 2789 
Q 969 2650 878 2297 
L 328 2372 
Q 403 2725 575 2942 
Q 747 3159 1072 3276 
Q 1397 3394 1825 3394 
Q 2250 3394 2515 3294 
Q 2781 3194 2906 3042 
Q 3031 2891 3081 2659 
Q 3109 2516 3109 2141 
L 3109 1391 
Q 3109 606 3145 398 
Q 3181 191 3288 0 
L 2700 0 
Q 2613 175 2588 409 
z
M 2541 1666 
Q 2234 1541 1622 1453 
Q 1275 1403 1131 1340 
Q 988 1278 909 1158 
Q 831 1038 831 891 
Q 831 666 1001 516 
Q 1172 366 1500 366 
Q 1825 366 2078 508 
Q 2331 650 2450 897 
Q 2541 1088 2541 1459 
L 2541 1666 
z
" transform="scale(0.015625)"/>
        <path id="ArialMT-6e" d="M 422 0 
L 422 3319 
L 928 3319 
L 928 2847 
Q 1294 3394 1984 3394 
Q 2284 3394 2536 3286 
Q 2788 3178 2913 3003 
Q 3038 2828 3088 2588 
Q 3119 2431 3119 2041 
L 3119 0 
L 2556 0 
L 2556 2019 
Q 2556 2363 2490 2533 
Q 2425 2703 2258 2804 
Q 2091 2906 1866 2906 
Q 1506 2906 1245 2678 
Q 984 2450 984 1813 
L 984 0 
L 422 0 
z
" transform="scale(0.015625)"/>
        <path id="ArialMT-64" d="M 2575 0 
L 2575 419 
Q 2259 -75 1647 -75 
Q 1250 -75 917 144 
Q 584 363 401 755 
Q 219 1147 219 1656 
Q 219 2153 384 2558 
Q 550 2963 881 3178 
Q 1213 3394 1622 3394 
Q 1922 3394 2156 3267 
Q 2391 3141 2538 2938 
L 2538 4581 
L 3097 4581 
L 3097 0 
L 2575 0 
z
M 797 1656 
Q 797 1019 1065 703 
Q 1334 388 1700 388 
Q 2069 388 2326 689 
Q 2584 991 2584 1609 
Q 2584 2291 2321 2609 
Q 2059 2928 1675 2928 
Q 1300 2928 1048 2622 
Q 797 2316 797 1656 
z
" transform="scale(0.015625)"/>
        <path id="ArialMT-6f" d="M 213 1659 
Q 213 2581 725 3025 
Q 1153 3394 1769 3394 
Q 2453 3394 2887 2945 
Q 3322 2497 3322 1706 
Q 3322 1066 3130 698 
Q 2938 331 2570 128 
Q 2203 -75 1769 -75 
Q 1072 -75 642 372 
Q 213 819 213 1659 
z
M 791 1659 
Q 791 1022 1069 705 
Q 1347 388 1769 388 
Q 2188 388 2466 706 
Q 2744 1025 2744 1678 
Q 2744 2294 2464 2611 
Q 2184 2928 1769 2928 
Q 1347 2928 1069 2612 
Q 791 2297 791 1659 
z
" transform="scale(0.015625)"/>
        <path id="ArialMT-6d" d="M 422 0 
L 422 3319 
L 925 3319 
L 925 2853 
Q 1081 3097 1340 3245 
Q 1600 3394 1931 3394 
Q 2300 3394 2536 3241 
Q 2772 3088 2869 2813 
Q 3263 3394 3894 3394 
Q 4388 3394 4653 3120 
Q 4919 2847 4919 2278 
L 4919 0 
L 4359 0 
L 4359 2091 
Q 4359 2428 4304 2576 
Q 4250 2725 4106 2815 
Q 3963 2906 3769 2906 
Q 3419 2906 3187 2673 
Q 2956 2441 2956 1928 
L 2956 0 
L 2394 0 
L 2394 2156 
Q 2394 2531 2256 2718 
Q 2119 2906 1806 2906 
Q 1569 2906 1367 2781 
Q 1166 2656 1075 2415 
Q 984 2175 984 1722 
L 984 0 
L 422 0 
z
" transform="scale(0.015625)"/>
        <path id="ArialMT-53" d="M 288 1472 
L 859 1522 
Q 900 1178 1048 958 
Q 1197 738 1509 602 
Q 1822 466 2213 466 
Q 2559 466 2825 569 
Q 3091 672 3220 851 
Q 3350 1031 3350 1244 
Q 3350 1459 3225 1620 
Q 3100 1781 2813 1891 
Q 2628 1963 1997 2114 
Q 1366 2266 1113 2400 
Q 784 2572 623 2826 
Q 463 3081 463 3397 
Q 463 3744 659 4045 
Q 856 4347 1234 4503 
Q 1613 4659 2075 4659 
Q 2584 4659 2973 4495 
Q 3363 4331 3572 4012 
Q 3781 3694 3797 3291 
L 3216 3247 
Q 3169 3681 2898 3903 
Q 2628 4125 2100 4125 
Q 1550 4125 1298 3923 
Q 1047 3722 1047 3438 
Q 1047 3191 1225 3031 
Q 1400 2872 2139 2705 
Q 2878 2538 3153 2413 
Q 3553 2228 3743 1945 
Q 3934 1663 3934 1294 
Q 3934 928 3725 604 
Q 3516 281 3123 101 
Q 2731 -78 2241 -78 
Q 1619 -78 1198 103 
Q 778 284 539 648 
Q 300 1013 288 1472 
z
" transform="scale(0.015625)"/>
        <path id="ArialMT-70" d="M 422 -1272 
L 422 3319 
L 934 3319 
L 934 2888 
Q 1116 3141 1344 3267 
Q 1572 3394 1897 3394 
Q 2322 3394 2647 3175 
Q 2972 2956 3137 2557 
Q 3303 2159 3303 1684 
Q 3303 1175 3120 767 
Q 2938 359 2589 142 
Q 2241 -75 1856 -75 
Q 1575 -75 1351 44 
Q 1128 163 984 344 
L 984 -1272 
L 422 -1272 
z
M 931 1641 
Q 931 1000 1190 694 
Q 1450 388 1819 388 
Q 2194 388 2461 705 
Q 2728 1022 2728 1688 
Q 2728 2322 2467 2637 
Q 2206 2953 1844 2953 
Q 1484 2953 1207 2617 
Q 931 2281 931 1641 
z
" transform="scale(0.015625)"/>
        <path id="ArialMT-6c" d="M 409 0 
L 409 4581 
L 972 4581 
L 972 0 
L 409 0 
z
" transform="scale(0.015625)"/>
        <path id="ArialMT-69" d="M 425 3934 
L 425 4581 
L 988 4581 
L 988 3934 
L 425 3934 
z
M 425 0 
L 425 3319 
L 988 3319 
L 988 0 
L 425 0 
z
" transform="scale(0.015625)"/>
        <path id="ArialMT-74" d="M 1650 503 
L 1731 6 
Q 1494 -44 1306 -44 
Q 1000 -44 831 53 
Q 663 150 594 308 
Q 525 466 525 972 
L 525 2881 
L 113 2881 
L 113 3319 
L 525 3319 
L 525 4141 
L 1084 4478 
L 1084 3319 
L 1650 3319 
L 1650 2881 
L 1084 2881 
L 1084 941 
Q 1084 700 1114 631 
Q 1144 563 1211 522 
Q 1278 481 1403 481 
Q 1497 481 1650 503 
z
" transform="scale(0.015625)"/>
       </defs>
       <use xlink:href="#ArialMT-52"/>
       <use xlink:href="#ArialMT-61" transform="translate(72.216797 0)"/>
       <use xlink:href="#ArialMT-6e" transform="translate(127.832031 0)"/>
       <use xlink:href="#ArialMT-64" transform="translate(183.447266 0)"/>
       <use xlink:href="#ArialMT-6f" transform="translate(239.0625 0)"/>
       <use xlink:href="#ArialMT-6d" transform="translate(294.677734 0)"/>
       <use xlink:href="#ArialMT-53" transform="translate(377.978516 0)"/>
       <use xlink:href="#ArialMT-70" transform="translate(444.677734 0)"/>
       <use xlink:href="#ArialMT-6c" transform="translate(500.292969 0)"/>
       <use xlink:href="#ArialMT-69" transform="translate(522.509766 0)"/>
       <use xlink:href="#ArialMT-74" transform="translate(544.726562 0)"/>
      </g>
     </g>
    </g>
    <g id="xtick_2">
     <g id="text_2">
      <!-- ScaffoldSplit -->
      <g style="fill: #262626" transform="translate(210.851273 732.183383) rotate(-45) scale(0.176 -0.176)">
       <defs>
        <path id="ArialMT-63" d="M 2588 1216 
L 3141 1144 
Q 3050 572 2676 248 
Q 2303 -75 1759 -75 
Q 1078 -75 664 370 
Q 250 816 250 1647 
Q 250 2184 428 2587 
Q 606 2991 970 3192 
Q 1334 3394 1763 3394 
Q 2303 3394 2647 3120 
Q 2991 2847 3088 2344 
L 2541 2259 
Q 2463 2594 2264 2762 
Q 2066 2931 1784 2931 
Q 1359 2931 1093 2626 
Q 828 2322 828 1663 
Q 828 994 1084 691 
Q 1341 388 1753 388 
Q 2084 388 2306 591 
Q 2528 794 2588 1216 
z
" transform="scale(0.015625)"/>
        <path id="ArialMT-66" d="M 556 0 
L 556 2881 
L 59 2881 
L 59 3319 
L 556 3319 
L 556 3672 
Q 556 4006 616 4169 
Q 697 4388 901 4523 
Q 1106 4659 1475 4659 
Q 1713 4659 2000 4603 
L 1916 4113 
Q 1741 4144 1584 4144 
Q 1328 4144 1222 4034 
Q 1116 3925 1116 3625 
L 1116 3319 
L 1763 3319 
L 1763 2881 
L 1116 2881 
L 1116 0 
L 556 0 
z
" transform="scale(0.015625)"/>
       </defs>
       <use xlink:href="#ArialMT-53"/>
       <use xlink:href="#ArialMT-63" transform="translate(66.699219 0)"/>
       <use xlink:href="#ArialMT-61" transform="translate(116.699219 0)"/>
       <use xlink:href="#ArialMT-66" transform="translate(172.314453 0)"/>
       <use xlink:href="#ArialMT-66" transform="translate(198.347656 0)"/>
       <use xlink:href="#ArialMT-6f" transform="translate(226.130859 0)"/>
       <use xlink:href="#ArialMT-6c" transform="translate(281.746094 0)"/>
       <use xlink:href="#ArialMT-64" transform="translate(303.962891 0)"/>
       <use xlink:href="#ArialMT-53" transform="translate(359.578125 0)"/>
       <use xlink:href="#ArialMT-70" transform="translate(426.277344 0)"/>
       <use xlink:href="#ArialMT-6c" transform="translate(481.892578 0)"/>
       <use xlink:href="#ArialMT-69" transform="translate(504.109375 0)"/>
       <use xlink:href="#ArialMT-74" transform="translate(526.326172 0)"/>
      </g>
     </g>
    </g>
    <g id="xtick_3">
     <g id="text_3">
      <!-- SortedStepForward_LogD -->
      <g style="fill: #262626" transform="translate(269.107213 807.798908) rotate(-45) scale(0.176 -0.176)">
       <defs>
        <path id="ArialMT-72" d="M 416 0 
L 416 3319 
L 922 3319 
L 922 2816 
Q 1116 3169 1280 3281 
Q 1444 3394 1641 3394 
Q 1925 3394 2219 3213 
L 2025 2691 
Q 1819 2813 1613 2813 
Q 1428 2813 1281 2702 
Q 1134 2591 1072 2394 
Q 978 2094 978 1738 
L 978 0 
L 416 0 
z
" transform="scale(0.015625)"/>
        <path id="ArialMT-65" d="M 2694 1069 
L 3275 997 
Q 3138 488 2766 206 
Q 2394 -75 1816 -75 
Q 1088 -75 661 373 
Q 234 822 234 1631 
Q 234 2469 665 2931 
Q 1097 3394 1784 3394 
Q 2450 3394 2872 2941 
Q 3294 2488 3294 1666 
Q 3294 1616 3291 1516 
L 816 1516 
Q 847 969 1125 678 
Q 1403 388 1819 388 
Q 2128 388 2347 550 
Q 2566 713 2694 1069 
z
M 847 1978 
L 2700 1978 
Q 2663 2397 2488 2606 
Q 2219 2931 1791 2931 
Q 1403 2931 1139 2672 
Q 875 2413 847 1978 
z
" transform="scale(0.015625)"/>
        <path id="ArialMT-46" d="M 525 0 
L 525 4581 
L 3616 4581 
L 3616 4041 
L 1131 4041 
L 1131 2622 
L 3281 2622 
L 3281 2081 
L 1131 2081 
L 1131 0 
L 525 0 
z
" transform="scale(0.015625)"/>
        <path id="ArialMT-77" d="M 1034 0 
L 19 3319 
L 600 3319 
L 1128 1403 
L 1325 691 
Q 1338 744 1497 1375 
L 2025 3319 
L 2603 3319 
L 3100 1394 
L 3266 759 
L 3456 1400 
L 4025 3319 
L 4572 3319 
L 3534 0 
L 2950 0 
L 2422 1988 
L 2294 2553 
L 1622 0 
L 1034 0 
z
" transform="scale(0.015625)"/>
        <path id="ArialMT-5f" d="M -97 -1272 
L -97 -866 
L 3631 -866 
L 3631 -1272 
L -97 -1272 
z
" transform="scale(0.015625)"/>
        <path id="ArialMT-4c" d="M 469 0 
L 469 4581 
L 1075 4581 
L 1075 541 
L 3331 541 
L 3331 0 
L 469 0 
z
" transform="scale(0.015625)"/>
        <path id="ArialMT-67" d="M 319 -275 
L 866 -356 
Q 900 -609 1056 -725 
Q 1266 -881 1628 -881 
Q 2019 -881 2231 -725 
Q 2444 -569 2519 -288 
Q 2563 -116 2559 434 
Q 2191 0 1641 0 
Q 956 0 581 494 
Q 206 988 206 1678 
Q 206 2153 378 2554 
Q 550 2956 876 3175 
Q 1203 3394 1644 3394 
Q 2231 3394 2613 2919 
L 2613 3319 
L 3131 3319 
L 3131 450 
Q 3131 -325 2973 -648 
Q 2816 -972 2473 -1159 
Q 2131 -1347 1631 -1347 
Q 1038 -1347 672 -1080 
Q 306 -813 319 -275 
z
M 784 1719 
Q 784 1066 1043 766 
Q 1303 466 1694 466 
Q 2081 466 2343 764 
Q 2606 1063 2606 1700 
Q 2606 2309 2336 2618 
Q 2066 2928 1684 2928 
Q 1309 2928 1046 2623 
Q 784 2319 784 1719 
z
" transform="scale(0.015625)"/>
        <path id="ArialMT-44" d="M 494 0 
L 494 4581 
L 2072 4581 
Q 2606 4581 2888 4516 
Q 3281 4425 3559 4188 
Q 3922 3881 4101 3404 
Q 4281 2928 4281 2316 
Q 4281 1794 4159 1391 
Q 4038 988 3847 723 
Q 3656 459 3429 307 
Q 3203 156 2883 78 
Q 2563 0 2147 0 
L 494 0 
z
M 1100 541 
L 2078 541 
Q 2531 541 2789 625 
Q 3047 709 3200 863 
Q 3416 1078 3536 1442 
Q 3656 1806 3656 2325 
Q 3656 3044 3420 3430 
Q 3184 3816 2847 3947 
Q 2603 4041 2063 4041 
L 1100 4041 
L 1100 541 
z
" transform="scale(0.015625)"/>
       </defs>
       <use xlink:href="#ArialMT-53"/>
       <use xlink:href="#ArialMT-6f" transform="translate(66.699219 0)"/>
       <use xlink:href="#ArialMT-72" transform="translate(122.314453 0)"/>
       <use xlink:href="#ArialMT-74" transform="translate(155.615234 0)"/>
       <use xlink:href="#ArialMT-65" transform="translate(183.398438 0)"/>
       <use xlink:href="#ArialMT-64" transform="translate(239.013672 0)"/>
       <use xlink:href="#ArialMT-53" transform="translate(294.628906 0)"/>
       <use xlink:href="#ArialMT-74" transform="translate(361.328125 0)"/>
       <use xlink:href="#ArialMT-65" transform="translate(389.111328 0)"/>
       <use xlink:href="#ArialMT-70" transform="translate(444.726562 0)"/>
       <use xlink:href="#ArialMT-46" transform="translate(500.341797 0)"/>
       <use xlink:href="#ArialMT-6f" transform="translate(561.425781 0)"/>
       <use xlink:href="#ArialMT-72" transform="translate(617.041016 0)"/>
       <use xlink:href="#ArialMT-77" transform="translate(650.341797 0)"/>
       <use xlink:href="#ArialMT-61" transform="translate(722.558594 0)"/>
       <use xlink:href="#ArialMT-72" transform="translate(778.173828 0)"/>
       <use xlink:href="#ArialMT-64" transform="translate(811.474609 0)"/>
       <use xlink:href="#ArialMT-5f" transform="translate(867.089844 0)"/>
       <use xlink:href="#ArialMT-4c" transform="translate(922.705078 0)"/>
       <use xlink:href="#ArialMT-6f" transform="translate(978.320312 0)"/>
       <use xlink:href="#ArialMT-67" transform="translate(1033.935547 0)"/>
       <use xlink:href="#ArialMT-44" transform="translate(1089.550781 0)"/>
      </g>
     </g>
    </g>
    <g id="xtick_4">
     <g id="text_4">
      <!-- SortedStepForward_LogP -->
      <g style="fill: #262626" transform="translate(365.587047 807.112484) rotate(-45) scale(0.176 -0.176)">
       <defs>
        <path id="ArialMT-50" d="M 494 0 
L 494 4581 
L 2222 4581 
Q 2678 4581 2919 4538 
Q 3256 4481 3484 4323 
Q 3713 4166 3852 3881 
Q 3991 3597 3991 3256 
Q 3991 2672 3619 2267 
Q 3247 1863 2275 1863 
L 1100 1863 
L 1100 0 
L 494 0 
z
M 1100 2403 
L 2284 2403 
Q 2872 2403 3119 2622 
Q 3366 2841 3366 3238 
Q 3366 3525 3220 3729 
Q 3075 3934 2838 4000 
Q 2684 4041 2272 4041 
L 1100 4041 
L 1100 2403 
z
" transform="scale(0.015625)"/>
       </defs>
       <use xlink:href="#ArialMT-53"/>
       <use xlink:href="#ArialMT-6f" transform="translate(66.699219 0)"/>
       <use xlink:href="#ArialMT-72" transform="translate(122.314453 0)"/>
       <use xlink:href="#ArialMT-74" transform="translate(155.615234 0)"/>
       <use xlink:href="#ArialMT-65" transform="translate(183.398438 0)"/>
       <use xlink:href="#ArialMT-64" transform="translate(239.013672 0)"/>
       <use xlink:href="#ArialMT-53" transform="translate(294.628906 0)"/>
       <use xlink:href="#ArialMT-74" transform="translate(361.328125 0)"/>
       <use xlink:href="#ArialMT-65" transform="translate(389.111328 0)"/>
       <use xlink:href="#ArialMT-70" transform="translate(444.726562 0)"/>
       <use xlink:href="#ArialMT-46" transform="translate(500.341797 0)"/>
       <use xlink:href="#ArialMT-6f" transform="translate(561.425781 0)"/>
       <use xlink:href="#ArialMT-72" transform="translate(617.041016 0)"/>
       <use xlink:href="#ArialMT-77" transform="translate(650.341797 0)"/>
       <use xlink:href="#ArialMT-61" transform="translate(722.558594 0)"/>
       <use xlink:href="#ArialMT-72" transform="translate(778.173828 0)"/>
       <use xlink:href="#ArialMT-64" transform="translate(811.474609 0)"/>
       <use xlink:href="#ArialMT-5f" transform="translate(867.089844 0)"/>
       <use xlink:href="#ArialMT-4c" transform="translate(922.705078 0)"/>
       <use xlink:href="#ArialMT-6f" transform="translate(978.320312 0)"/>
       <use xlink:href="#ArialMT-67" transform="translate(1033.935547 0)"/>
       <use xlink:href="#ArialMT-50" transform="translate(1089.550781 0)"/>
      </g>
     </g>
    </g>
    <g id="xtick_5">
     <g id="text_5">
      <!-- SortedStepForward_MCE18 -->
      <g style="fill: #262626" transform="translate(455.579884 819.545896) rotate(-45) scale(0.176 -0.176)">
       <defs>
        <path id="ArialMT-4d" d="M 475 0 
L 475 4581 
L 1388 4581 
L 2472 1338 
Q 2622 884 2691 659 
Q 2769 909 2934 1394 
L 4031 4581 
L 4847 4581 
L 4847 0 
L 4263 0 
L 4263 3834 
L 2931 0 
L 2384 0 
L 1059 3900 
L 1059 0 
L 475 0 
z
" transform="scale(0.015625)"/>
        <path id="ArialMT-43" d="M 3763 1606 
L 4369 1453 
Q 4178 706 3683 314 
Q 3188 -78 2472 -78 
Q 1731 -78 1267 223 
Q 803 525 561 1097 
Q 319 1669 319 2325 
Q 319 3041 592 3573 
Q 866 4106 1370 4382 
Q 1875 4659 2481 4659 
Q 3169 4659 3637 4309 
Q 4106 3959 4291 3325 
L 3694 3184 
Q 3534 3684 3231 3912 
Q 2928 4141 2469 4141 
Q 1941 4141 1586 3887 
Q 1231 3634 1087 3207 
Q 944 2781 944 2328 
Q 944 1744 1114 1308 
Q 1284 872 1643 656 
Q 2003 441 2422 441 
Q 2931 441 3284 734 
Q 3638 1028 3763 1606 
z
" transform="scale(0.015625)"/>
        <path id="ArialMT-45" d="M 506 0 
L 506 4581 
L 3819 4581 
L 3819 4041 
L 1113 4041 
L 1113 2638 
L 3647 2638 
L 3647 2100 
L 1113 2100 
L 1113 541 
L 3925 541 
L 3925 0 
L 506 0 
z
" transform="scale(0.015625)"/>
        <path id="ArialMT-31" d="M 2384 0 
L 1822 0 
L 1822 3584 
Q 1619 3391 1289 3197 
Q 959 3003 697 2906 
L 697 3450 
Q 1169 3672 1522 3987 
Q 1875 4303 2022 4600 
L 2384 4600 
L 2384 0 
z
" transform="scale(0.015625)"/>
        <path id="ArialMT-38" d="M 1131 2484 
Q 781 2613 612 2850 
Q 444 3088 444 3419 
Q 444 3919 803 4259 
Q 1163 4600 1759 4600 
Q 2359 4600 2725 4251 
Q 3091 3903 3091 3403 
Q 3091 3084 2923 2848 
Q 2756 2613 2416 2484 
Q 2838 2347 3058 2040 
Q 3278 1734 3278 1309 
Q 3278 722 2862 322 
Q 2447 -78 1769 -78 
Q 1091 -78 675 323 
Q 259 725 259 1325 
Q 259 1772 486 2073 
Q 713 2375 1131 2484 
z
M 1019 3438 
Q 1019 3113 1228 2906 
Q 1438 2700 1772 2700 
Q 2097 2700 2305 2904 
Q 2513 3109 2513 3406 
Q 2513 3716 2298 3927 
Q 2084 4138 1766 4138 
Q 1444 4138 1231 3931 
Q 1019 3725 1019 3438 
z
M 838 1322 
Q 838 1081 952 856 
Q 1066 631 1291 507 
Q 1516 384 1775 384 
Q 2178 384 2440 643 
Q 2703 903 2703 1303 
Q 2703 1709 2433 1975 
Q 2163 2241 1756 2241 
Q 1359 2241 1098 1978 
Q 838 1716 838 1322 
z
" transform="scale(0.015625)"/>
       </defs>
       <use xlink:href="#ArialMT-53"/>
       <use xlink:href="#ArialMT-6f" transform="translate(66.699219 0)"/>
       <use xlink:href="#ArialMT-72" transform="translate(122.314453 0)"/>
       <use xlink:href="#ArialMT-74" transform="translate(155.615234 0)"/>
       <use xlink:href="#ArialMT-65" transform="translate(183.398438 0)"/>
       <use xlink:href="#ArialMT-64" transform="translate(239.013672 0)"/>
       <use xlink:href="#ArialMT-53" transform="translate(294.628906 0)"/>
       <use xlink:href="#ArialMT-74" transform="translate(361.328125 0)"/>
       <use xlink:href="#ArialMT-65" transform="translate(389.111328 0)"/>
       <use xlink:href="#ArialMT-70" transform="translate(444.726562 0)"/>
       <use xlink:href="#ArialMT-46" transform="translate(500.341797 0)"/>
       <use xlink:href="#ArialMT-6f" transform="translate(561.425781 0)"/>
       <use xlink:href="#ArialMT-72" transform="translate(617.041016 0)"/>
       <use xlink:href="#ArialMT-77" transform="translate(650.341797 0)"/>
       <use xlink:href="#ArialMT-61" transform="translate(722.558594 0)"/>
       <use xlink:href="#ArialMT-72" transform="translate(778.173828 0)"/>
       <use xlink:href="#ArialMT-64" transform="translate(811.474609 0)"/>
       <use xlink:href="#ArialMT-5f" transform="translate(867.089844 0)"/>
       <use xlink:href="#ArialMT-4d" transform="translate(922.705078 0)"/>
       <use xlink:href="#ArialMT-43" transform="translate(1006.005859 0)"/>
       <use xlink:href="#ArialMT-45" transform="translate(1078.222656 0)"/>
       <use xlink:href="#ArialMT-31" transform="translate(1144.921875 0)"/>
       <use xlink:href="#ArialMT-38" transform="translate(1200.537109 0)"/>
      </g>
     </g>
    </g>
    <g id="xtick_6">
     <g id="text_6">
      <!-- UnsortedStepForward -->
      <g style="fill: #262626" transform="translate(569.010305 784.958298) rotate(-45) scale(0.176 -0.176)">
       <defs>
        <path id="ArialMT-55" d="M 3500 4581 
L 4106 4581 
L 4106 1934 
Q 4106 1244 3950 837 
Q 3794 431 3386 176 
Q 2978 -78 2316 -78 
Q 1672 -78 1262 144 
Q 853 366 678 786 
Q 503 1206 503 1934 
L 503 4581 
L 1109 4581 
L 1109 1938 
Q 1109 1341 1220 1058 
Q 1331 775 1601 622 
Q 1872 469 2263 469 
Q 2931 469 3215 772 
Q 3500 1075 3500 1938 
L 3500 4581 
z
" transform="scale(0.015625)"/>
        <path id="ArialMT-73" d="M 197 991 
L 753 1078 
Q 800 744 1014 566 
Q 1228 388 1613 388 
Q 2000 388 2187 545 
Q 2375 703 2375 916 
Q 2375 1106 2209 1216 
Q 2094 1291 1634 1406 
Q 1016 1563 777 1677 
Q 538 1791 414 1992 
Q 291 2194 291 2438 
Q 291 2659 392 2848 
Q 494 3038 669 3163 
Q 800 3259 1026 3326 
Q 1253 3394 1513 3394 
Q 1903 3394 2198 3281 
Q 2494 3169 2634 2976 
Q 2775 2784 2828 2463 
L 2278 2388 
Q 2241 2644 2061 2787 
Q 1881 2931 1553 2931 
Q 1166 2931 1000 2803 
Q 834 2675 834 2503 
Q 834 2394 903 2306 
Q 972 2216 1119 2156 
Q 1203 2125 1616 2013 
Q 2213 1853 2448 1751 
Q 2684 1650 2818 1456 
Q 2953 1263 2953 975 
Q 2953 694 2789 445 
Q 2625 197 2315 61 
Q 2006 -75 1616 -75 
Q 969 -75 630 194 
Q 291 463 197 991 
z
" transform="scale(0.015625)"/>
       </defs>
       <use xlink:href="#ArialMT-55"/>
       <use xlink:href="#ArialMT-6e" transform="translate(72.216797 0)"/>
       <use xlink:href="#ArialMT-73" transform="translate(127.832031 0)"/>
       <use xlink:href="#ArialMT-6f" transform="translate(177.832031 0)"/>
       <use xlink:href="#ArialMT-72" transform="translate(233.447266 0)"/>
       <use xlink:href="#ArialMT-74" transform="translate(266.748047 0)"/>
       <use xlink:href="#ArialMT-65" transform="translate(294.53125 0)"/>
       <use xlink:href="#ArialMT-64" transform="translate(350.146484 0)"/>
       <use xlink:href="#ArialMT-53" transform="translate(405.761719 0)"/>
       <use xlink:href="#ArialMT-74" transform="translate(472.460938 0)"/>
       <use xlink:href="#ArialMT-65" transform="translate(500.244141 0)"/>
       <use xlink:href="#ArialMT-70" transform="translate(555.859375 0)"/>
       <use xlink:href="#ArialMT-46" transform="translate(611.474609 0)"/>
       <use xlink:href="#ArialMT-6f" transform="translate(672.558594 0)"/>
       <use xlink:href="#ArialMT-72" transform="translate(728.173828 0)"/>
       <use xlink:href="#ArialMT-77" transform="translate(761.474609 0)"/>
       <use xlink:href="#ArialMT-61" transform="translate(833.691406 0)"/>
       <use xlink:href="#ArialMT-72" transform="translate(889.306641 0)"/>
       <use xlink:href="#ArialMT-64" transform="translate(922.607422 0)"/>
      </g>
     </g>
    </g>
    <g id="text_7">
     <!-- split_type -->
     <g style="fill: #262626" transform="translate(345.687825 839.762355) scale(0.192 -0.192)">
      <defs>
       <path id="ArialMT-79" d="M 397 -1278 
L 334 -750 
Q 519 -800 656 -800 
Q 844 -800 956 -737 
Q 1069 -675 1141 -563 
Q 1194 -478 1313 -144 
Q 1328 -97 1363 -6 
L 103 3319 
L 709 3319 
L 1400 1397 
Q 1534 1031 1641 628 
Q 1738 1016 1872 1384 
L 2581 3319 
L 3144 3319 
L 1881 -56 
Q 1678 -603 1566 -809 
Q 1416 -1088 1222 -1217 
Q 1028 -1347 759 -1347 
Q 597 -1347 397 -1278 
z
" transform="scale(0.015625)"/>
      </defs>
      <use xlink:href="#ArialMT-73"/>
      <use xlink:href="#ArialMT-70" transform="translate(50 0)"/>
      <use xlink:href="#ArialMT-6c" transform="translate(105.615234 0)"/>
      <use xlink:href="#ArialMT-69" transform="translate(127.832031 0)"/>
      <use xlink:href="#ArialMT-74" transform="translate(150.048828 0)"/>
      <use xlink:href="#ArialMT-5f" transform="translate(177.832031 0)"/>
      <use xlink:href="#ArialMT-74" transform="translate(233.447266 0)"/>
      <use xlink:href="#ArialMT-79" transform="translate(261.230469 0)"/>
      <use xlink:href="#ArialMT-70" transform="translate(311.230469 0)"/>
      <use xlink:href="#ArialMT-65" transform="translate(366.845703 0)"/>
     </g>
    </g>
   </g>
   <g id="matplotlib.axis_2">
    <g id="ytick_1">
     <g id="line2d_1">
      <path d="M 79.566 604.452338 
L 692.917651 604.452338 
" clip-path="url(#pc17c3bfe4f)" style="fill: none; stroke: #cccccc; stroke-width: 0.8; stroke-linecap: round"/>
     </g>
     <g id="text_8">
      <!-- 0 -->
      <g style="fill: #262626" transform="translate(61.47875 610.751213) scale(0.176 -0.176)">
       <defs>
        <path id="ArialMT-30" d="M 266 2259 
Q 266 3072 433 3567 
Q 600 4063 929 4331 
Q 1259 4600 1759 4600 
Q 2128 4600 2406 4451 
Q 2684 4303 2865 4023 
Q 3047 3744 3150 3342 
Q 3253 2941 3253 2259 
Q 3253 1453 3087 958 
Q 2922 463 2592 192 
Q 2263 -78 1759 -78 
Q 1097 -78 719 397 
Q 266 969 266 2259 
z
M 844 2259 
Q 844 1131 1108 757 
Q 1372 384 1759 384 
Q 2147 384 2411 759 
Q 2675 1134 2675 2259 
Q 2675 3391 2411 3762 
Q 2147 4134 1753 4134 
Q 1366 4134 1134 3806 
Q 844 3388 844 2259 
z
" transform="scale(0.015625)"/>
       </defs>
       <use xlink:href="#ArialMT-30"/>
      </g>
     </g>
    </g>
    <g id="ytick_2">
     <g id="line2d_2">
      <path d="M 79.566 533.422368 
L 692.917651 533.422368 
" clip-path="url(#pc17c3bfe4f)" style="fill: none; stroke: #cccccc; stroke-width: 0.8; stroke-linecap: round"/>
     </g>
     <g id="text_9">
      <!-- 25 -->
      <g style="fill: #262626" transform="translate(51.6915 539.721243) scale(0.176 -0.176)">
       <defs>
        <path id="ArialMT-32" d="M 3222 541 
L 3222 0 
L 194 0 
Q 188 203 259 391 
Q 375 700 629 1000 
Q 884 1300 1366 1694 
Q 2113 2306 2375 2664 
Q 2638 3022 2638 3341 
Q 2638 3675 2398 3904 
Q 2159 4134 1775 4134 
Q 1369 4134 1125 3890 
Q 881 3647 878 3216 
L 300 3275 
Q 359 3922 746 4261 
Q 1134 4600 1788 4600 
Q 2447 4600 2831 4234 
Q 3216 3869 3216 3328 
Q 3216 3053 3103 2787 
Q 2991 2522 2730 2228 
Q 2469 1934 1863 1422 
Q 1356 997 1212 845 
Q 1069 694 975 541 
L 3222 541 
z
" transform="scale(0.015625)"/>
        <path id="ArialMT-35" d="M 266 1200 
L 856 1250 
Q 922 819 1161 601 
Q 1400 384 1738 384 
Q 2144 384 2425 690 
Q 2706 997 2706 1503 
Q 2706 1984 2436 2262 
Q 2166 2541 1728 2541 
Q 1456 2541 1237 2417 
Q 1019 2294 894 2097 
L 366 2166 
L 809 4519 
L 3088 4519 
L 3088 3981 
L 1259 3981 
L 1013 2750 
Q 1425 3038 1878 3038 
Q 2478 3038 2890 2622 
Q 3303 2206 3303 1553 
Q 3303 931 2941 478 
Q 2500 -78 1738 -78 
Q 1113 -78 717 272 
Q 322 622 266 1200 
z
" transform="scale(0.015625)"/>
       </defs>
       <use xlink:href="#ArialMT-32"/>
       <use xlink:href="#ArialMT-35" transform="translate(55.615234 0)"/>
      </g>
     </g>
    </g>
    <g id="ytick_3">
     <g id="line2d_3">
      <path d="M 79.566 462.392398 
L 692.917651 462.392398 
" clip-path="url(#pc17c3bfe4f)" style="fill: none; stroke: #cccccc; stroke-width: 0.8; stroke-linecap: round"/>
     </g>
     <g id="text_10">
      <!-- 50 -->
      <g style="fill: #262626" transform="translate(51.6915 468.691273) scale(0.176 -0.176)">
       <use xlink:href="#ArialMT-35"/>
       <use xlink:href="#ArialMT-30" transform="translate(55.615234 0)"/>
      </g>
     </g>
    </g>
    <g id="ytick_4">
     <g id="line2d_4">
      <path d="M 79.566 391.362428 
L 692.917651 391.362428 
" clip-path="url(#pc17c3bfe4f)" style="fill: none; stroke: #cccccc; stroke-width: 0.8; stroke-linecap: round"/>
     </g>
     <g id="text_11">
      <!-- 75 -->
      <g style="fill: #262626" transform="translate(51.6915 397.661303) scale(0.176 -0.176)">
       <defs>
        <path id="ArialMT-37" d="M 303 3981 
L 303 4522 
L 3269 4522 
L 3269 4084 
Q 2831 3619 2401 2847 
Q 1972 2075 1738 1259 
Q 1569 684 1522 0 
L 944 0 
Q 953 541 1156 1306 
Q 1359 2072 1739 2783 
Q 2119 3494 2547 3981 
L 303 3981 
z
" transform="scale(0.015625)"/>
       </defs>
       <use xlink:href="#ArialMT-37"/>
       <use xlink:href="#ArialMT-35" transform="translate(55.615234 0)"/>
      </g>
     </g>
    </g>
    <g id="ytick_5">
     <g id="line2d_5">
      <path d="M 79.566 320.332457 
L 692.917651 320.332457 
" clip-path="url(#pc17c3bfe4f)" style="fill: none; stroke: #cccccc; stroke-width: 0.8; stroke-linecap: round"/>
     </g>
     <g id="text_12">
      <!-- 100 -->
      <g style="fill: #262626" transform="translate(41.90425 326.631332) scale(0.176 -0.176)">
       <use xlink:href="#ArialMT-31"/>
       <use xlink:href="#ArialMT-30" transform="translate(55.615234 0)"/>
       <use xlink:href="#ArialMT-30" transform="translate(111.230469 0)"/>
      </g>
     </g>
    </g>
    <g id="ytick_6">
     <g id="line2d_6">
      <path d="M 79.566 249.302487 
L 692.917651 249.302487 
" clip-path="url(#pc17c3bfe4f)" style="fill: none; stroke: #cccccc; stroke-width: 0.8; stroke-linecap: round"/>
     </g>
     <g id="text_13">
      <!-- 125 -->
      <g style="fill: #262626" transform="translate(41.90425 255.601362) scale(0.176 -0.176)">
       <use xlink:href="#ArialMT-31"/>
       <use xlink:href="#ArialMT-32" transform="translate(55.615234 0)"/>
       <use xlink:href="#ArialMT-35" transform="translate(111.230469 0)"/>
      </g>
     </g>
    </g>
    <g id="ytick_7">
     <g id="line2d_7">
      <path d="M 79.566 178.272517 
L 692.917651 178.272517 
" clip-path="url(#pc17c3bfe4f)" style="fill: none; stroke: #cccccc; stroke-width: 0.8; stroke-linecap: round"/>
     </g>
     <g id="text_14">
      <!-- 150 -->
      <g style="fill: #262626" transform="translate(41.90425 184.571392) scale(0.176 -0.176)">
       <use xlink:href="#ArialMT-31"/>
       <use xlink:href="#ArialMT-35" transform="translate(55.615234 0)"/>
       <use xlink:href="#ArialMT-30" transform="translate(111.230469 0)"/>
      </g>
     </g>
    </g>
    <g id="ytick_8">
     <g id="line2d_8">
      <path d="M 79.566 107.242546 
L 692.917651 107.242546 
" clip-path="url(#pc17c3bfe4f)" style="fill: none; stroke: #cccccc; stroke-width: 0.8; stroke-linecap: round"/>
     </g>
     <g id="text_15">
      <!-- 175 -->
      <g style="fill: #262626" transform="translate(41.90425 113.541421) scale(0.176 -0.176)">
       <use xlink:href="#ArialMT-31"/>
       <use xlink:href="#ArialMT-37" transform="translate(55.615234 0)"/>
       <use xlink:href="#ArialMT-35" transform="translate(111.230469 0)"/>
      </g>
     </g>
    </g>
    <g id="text_16">
     <!-- number of novel compounds -->
     <g style="fill: #262626" transform="translate(34.08825 464.270674) rotate(-90) scale(0.192 -0.192)">
      <defs>
       <path id="ArialMT-75" d="M 2597 0 
L 2597 488 
Q 2209 -75 1544 -75 
Q 1250 -75 995 37 
Q 741 150 617 320 
Q 494 491 444 738 
Q 409 903 409 1263 
L 409 3319 
L 972 3319 
L 972 1478 
Q 972 1038 1006 884 
Q 1059 663 1231 536 
Q 1403 409 1656 409 
Q 1909 409 2131 539 
Q 2353 669 2445 892 
Q 2538 1116 2538 1541 
L 2538 3319 
L 3100 3319 
L 3100 0 
L 2597 0 
z
" transform="scale(0.015625)"/>
       <path id="ArialMT-62" d="M 941 0 
L 419 0 
L 419 4581 
L 981 4581 
L 981 2947 
Q 1338 3394 1891 3394 
Q 2197 3394 2470 3270 
Q 2744 3147 2920 2923 
Q 3097 2700 3197 2384 
Q 3297 2069 3297 1709 
Q 3297 856 2875 390 
Q 2453 -75 1863 -75 
Q 1275 -75 941 416 
L 941 0 
z
M 934 1684 
Q 934 1088 1097 822 
Q 1363 388 1816 388 
Q 2184 388 2453 708 
Q 2722 1028 2722 1663 
Q 2722 2313 2464 2622 
Q 2206 2931 1841 2931 
Q 1472 2931 1203 2611 
Q 934 2291 934 1684 
z
" transform="scale(0.015625)"/>
       <path id="ArialMT-20" transform="scale(0.015625)"/>
       <path id="ArialMT-76" d="M 1344 0 
L 81 3319 
L 675 3319 
L 1388 1331 
Q 1503 1009 1600 663 
Q 1675 925 1809 1294 
L 2547 3319 
L 3125 3319 
L 1869 0 
L 1344 0 
z
" transform="scale(0.015625)"/>
      </defs>
      <use xlink:href="#ArialMT-6e"/>
      <use xlink:href="#ArialMT-75" transform="translate(55.615234 0)"/>
      <use xlink:href="#ArialMT-6d" transform="translate(111.230469 0)"/>
      <use xlink:href="#ArialMT-62" transform="translate(194.53125 0)"/>
      <use xlink:href="#ArialMT-65" transform="translate(250.146484 0)"/>
      <use xlink:href="#ArialMT-72" transform="translate(305.761719 0)"/>
      <use xlink:href="#ArialMT-20" transform="translate(339.0625 0)"/>
      <use xlink:href="#ArialMT-6f" transform="translate(366.845703 0)"/>
      <use xlink:href="#ArialMT-66" transform="translate(422.460938 0)"/>
      <use xlink:href="#ArialMT-20" transform="translate(450.244141 0)"/>
      <use xlink:href="#ArialMT-6e" transform="translate(478.027344 0)"/>
      <use xlink:href="#ArialMT-6f" transform="translate(533.642578 0)"/>
      <use xlink:href="#ArialMT-76" transform="translate(589.257812 0)"/>
      <use xlink:href="#ArialMT-65" transform="translate(639.257812 0)"/>
      <use xlink:href="#ArialMT-6c" transform="translate(694.873047 0)"/>
      <use xlink:href="#ArialMT-20" transform="translate(717.089844 0)"/>
      <use xlink:href="#ArialMT-63" transform="translate(744.873047 0)"/>
      <use xlink:href="#ArialMT-6f" transform="translate(794.873047 0)"/>
      <use xlink:href="#ArialMT-6d" transform="translate(850.488281 0)"/>
      <use xlink:href="#ArialMT-70" transform="translate(933.789062 0)"/>
      <use xlink:href="#ArialMT-6f" transform="translate(989.404297 0)"/>
      <use xlink:href="#ArialMT-75" transform="translate(1045.019531 0)"/>
      <use xlink:href="#ArialMT-6e" transform="translate(1100.634766 0)"/>
      <use xlink:href="#ArialMT-64" transform="translate(1156.25 0)"/>
      <use xlink:href="#ArialMT-73" transform="translate(1211.865234 0)"/>
     </g>
    </g>
   </g>
   <g id="FillBetweenPolyCollection_1">
    <defs>
     <path id="m8f09863ead" d="M 151.006278 -257.436369 
L 140.79426 -257.436369 
L 129.836246 -258.167797 
L 114.552078 -258.899225 
L 107.44562 -259.630652 
L 113.819178 -260.36208 
L 120.885347 -261.093508 
L 119.866974 -261.824936 
L 119.258611 -262.556364 
L 125.076844 -263.287792 
L 129.986416 -264.019219 
L 129.607342 -264.750647 
L 129.875291 -265.482075 
L 133.761827 -266.213503 
L 136.502359 -266.944931 
L 136.213989 -267.676359 
L 136.719603 -268.407787 
L 139.274125 -269.139214 
L 140.985535 -269.870642 
L 141.050904 -270.60207 
L 141.490236 -271.333498 
L 142.703005 -272.064926 
L 143.278742 -272.796354 
L 143.158718 -273.527782 
L 143.471965 -274.259209 
L 144.222724 -274.990637 
L 144.590871 -275.722065 
L 144.599564 -276.453493 
L 144.8061 -277.184921 
L 145.173964 -277.916349 
L 145.343442 -278.647776 
L 145.353326 -279.379204 
L 145.400496 -280.110632 
L 145.392633 -280.84206 
L 145.222019 -281.573488 
L 145.113855 -282.304916 
L 145.267737 -283.036344 
L 145.496442 -283.767771 
L 145.585346 -284.499199 
L 145.606921 -285.230627 
L 145.672179 -285.962055 
L 145.730048 -286.693483 
L 145.72897 -287.424911 
L 145.722602 -288.156339 
L 145.735203 -288.887766 
L 145.706179 -289.619194 
L 145.637664 -290.350622 
L 145.633973 -291.08205 
L 145.727241 -291.813478 
L 145.83022 -292.544906 
L 145.881674 -293.276333 
L 145.890552 -294.007761 
L 145.872032 -294.739189 
L 145.831059 -295.470617 
L 145.793888 -296.202045 
L 145.796069 -296.933473 
L 145.825816 -297.664901 
L 145.841683 -298.396328 
L 145.839965 -299.127756 
L 145.841383 -299.859184 
L 145.837555 -300.590612 
L 145.811431 -301.32204 
L 145.788347 -302.053468 
L 145.801841 -302.784895 
L 145.831728 -303.516323 
L 145.842168 -304.247751 
L 145.841031 -304.979179 
L 145.848986 -305.710607 
L 145.85594 -306.442035 
L 145.848749 -307.173463 
L 145.842641 -307.90489 
L 145.850424 -308.636318 
L 145.855799 -309.367746 
L 145.84752 -310.099174 
L 145.842913 -310.830602 
L 145.851629 -311.56203 
L 145.855447 -312.293458 
L 145.846711 -313.024885 
L 145.84595 -313.756313 
L 145.86389 -314.487741 
L 145.885033 -315.219169 
L 145.896315 -315.950597 
L 145.899634 -316.682025 
L 145.900206 -317.413452 
L 145.900266 -318.14488 
L 145.900269 -318.876308 
L 145.900269 -319.607736 
L 145.900269 -320.339164 
L 145.900269 -321.070592 
L 145.900269 -321.80202 
L 145.900269 -322.533447 
L 145.900262 -323.264875 
L 145.900166 -323.996303 
L 145.899326 -324.727731 
L 145.894925 -325.459159 
L 145.881529 -326.190587 
L 145.859609 -326.922014 
L 145.845684 -327.653442 
L 145.854929 -328.38487 
L 145.876967 -329.116298 
L 145.892859 -329.847726 
L 145.90768 -329.847726 
L 145.90768 -329.847726 
L 145.923572 -329.116298 
L 145.94561 -328.38487 
L 145.954854 -327.653442 
L 145.94093 -326.922014 
L 145.91901 -326.190587 
L 145.905614 -325.459159 
L 145.901212 -324.727731 
L 145.900372 -323.996303 
L 145.900276 -323.264875 
L 145.90027 -322.533447 
L 145.900269 -321.80202 
L 145.900269 -321.070592 
L 145.900269 -320.339164 
L 145.900269 -319.607736 
L 145.90027 -318.876308 
L 145.900273 -318.14488 
L 145.900333 -317.413452 
L 145.900905 -316.682025 
L 145.904224 -315.950597 
L 145.915506 -315.219169 
L 145.936649 -314.487741 
L 145.954588 -313.756313 
L 145.953828 -313.024885 
L 145.945092 -312.293458 
L 145.94891 -311.56203 
L 145.957626 -310.830602 
L 145.953019 -310.099174 
L 145.94474 -309.367746 
L 145.950115 -308.636318 
L 145.957898 -307.90489 
L 145.95179 -307.173463 
L 145.944599 -306.442035 
L 145.951553 -305.710607 
L 145.959508 -304.979179 
L 145.95837 -304.247751 
L 145.968811 -303.516323 
L 145.998698 -302.784895 
L 146.012192 -302.053468 
L 145.989108 -301.32204 
L 145.962984 -300.590612 
L 145.959155 -299.859184 
L 145.960574 -299.127756 
L 145.958856 -298.396328 
L 145.974723 -297.664901 
L 146.004469 -296.933473 
L 146.00665 -296.202045 
L 145.96948 -295.470617 
L 145.928507 -294.739189 
L 145.909986 -294.007761 
L 145.918865 -293.276333 
L 145.970319 -292.544906 
L 146.073298 -291.813478 
L 146.166566 -291.08205 
L 146.162875 -290.350622 
L 146.09436 -289.619194 
L 146.065336 -288.887766 
L 146.077936 -288.156339 
L 146.071569 -287.424911 
L 146.070491 -286.693483 
L 146.128359 -285.962055 
L 146.193618 -285.230627 
L 146.215193 -284.499199 
L 146.304097 -283.767771 
L 146.532802 -283.036344 
L 146.686684 -282.304916 
L 146.57852 -281.573488 
L 146.407906 -280.84206 
L 146.400043 -280.110632 
L 146.447212 -279.379204 
L 146.457097 -278.647776 
L 146.626575 -277.916349 
L 146.994439 -277.184921 
L 147.200975 -276.453493 
L 147.209668 -275.722065 
L 147.577815 -274.990637 
L 148.328574 -274.259209 
L 148.641821 -273.527782 
L 148.521797 -272.796354 
L 149.097533 -272.064926 
L 150.310303 -271.333498 
L 150.749635 -270.60207 
L 150.815004 -269.870642 
L 152.526414 -269.139214 
L 155.080936 -268.407787 
L 155.58655 -267.676359 
L 155.29818 -266.944931 
L 158.038712 -266.213503 
L 161.925248 -265.482075 
L 162.193197 -264.750647 
L 161.814123 -264.019219 
L 166.723695 -263.287792 
L 172.541928 -262.556364 
L 171.933565 -261.824936 
L 170.915192 -261.093508 
L 177.981361 -260.36208 
L 184.354918 -259.630652 
L 177.248461 -258.899225 
L 161.964293 -258.167797 
L 151.006278 -257.436369 
z
" style="stroke: #494949"/>
    </defs>
    <g clip-path="url(#pc17c3bfe4f)">
     <use xlink:href="#m8f09863ead" x="0" y="864" style="fill: #5875a4; stroke: #494949"/>
    </g>
   </g>
   <g id="FillBetweenPolyCollection_2">
    <defs>
     <path id="m5e894ce5d3" d="M 245.456884 -247.505815 
L 238.6169 -247.505815 
L 233.879238 -250.303294 
L 226.115749 -253.100773 
L 216.455802 -255.898251 
L 207.880391 -258.69573 
L 203.582243 -261.493209 
L 204.709936 -264.290687 
L 209.77038 -267.088166 
L 216.139635 -269.885645 
L 221.874012 -272.683123 
L 226.280631 -275.480602 
L 229.461355 -278.278081 
L 231.750263 -281.075559 
L 233.440839 -283.873038 
L 234.714046 -286.670517 
L 235.657231 -289.467995 
L 236.334158 -292.265474 
L 236.844222 -295.062953 
L 237.309261 -297.860431 
L 237.802894 -300.65791 
L 238.299436 -303.455389 
L 238.6979 -306.252867 
L 238.908107 -309.050346 
L 238.934072 -311.847824 
L 238.884514 -314.645303 
L 238.895584 -317.442782 
L 239.035234 -320.24026 
L 239.277035 -323.037739 
L 239.552472 -325.835218 
L 239.81501 -328.632696 
L 240.059074 -331.430175 
L 240.294622 -334.227654 
L 240.515024 -337.025132 
L 240.690829 -339.822611 
L 240.78946 -342.62009 
L 240.797285 -345.417568 
L 240.729307 -348.215047 
L 240.630074 -351.012526 
L 240.566044 -353.810004 
L 240.598524 -356.607483 
L 240.743322 -359.404962 
L 240.954681 -362.20244 
L 241.159467 -364.999919 
L 241.311636 -367.797397 
L 241.412644 -370.594876 
L 241.486435 -373.392355 
L 241.54712 -376.189833 
L 241.59264 -378.987312 
L 241.618691 -381.784791 
L 241.628947 -384.582269 
L 241.632105 -387.379748 
L 241.634647 -390.177227 
L 241.639552 -392.974705 
L 241.64993 -395.772184 
L 241.669269 -398.569663 
L 241.696309 -401.367141 
L 241.722907 -404.16462 
L 241.740217 -406.962099 
L 241.745657 -409.759577 
L 241.741847 -412.557056 
L 241.731393 -415.354535 
L 241.716282 -418.152013 
L 241.701229 -420.949492 
L 241.694133 -423.746971 
L 241.702268 -426.544449 
L 241.728672 -429.341928 
L 241.771187 -432.139406 
L 241.822722 -434.936885 
L 241.872552 -437.734364 
L 241.910662 -440.531842 
L 241.933399 -443.329321 
L 241.944663 -446.1268 
L 241.951024 -448.924278 
L 241.956163 -451.721757 
L 241.959732 -454.519236 
L 241.959643 -457.316714 
L 241.954031 -460.114193 
L 241.942166 -462.911672 
L 241.925784 -465.70915 
L 241.91011 -468.506629 
L 241.902514 -471.304108 
L 241.908919 -474.101586 
L 241.929989 -476.899065 
L 241.959559 -479.696544 
L 241.987305 -482.494022 
L 242.004505 -485.291501 
L 242.008551 -488.088979 
L 242.00329 -490.886458 
L 241.995502 -493.683937 
L 241.989456 -496.481415 
L 241.983125 -499.278894 
L 241.970497 -502.076373 
L 241.94961 -504.873851 
L 241.928329 -507.67133 
L 241.920055 -510.468809 
L 241.932291 -513.266287 
L 241.960047 -516.063766 
L 241.990761 -518.861245 
L 242.014292 -521.658723 
L 242.027861 -524.456202 
L 242.045923 -524.456202 
L 242.045923 -524.456202 
L 242.059491 -521.658723 
L 242.083022 -518.861245 
L 242.113737 -516.063766 
L 242.141493 -513.266287 
L 242.153728 -510.468809 
L 242.145455 -507.67133 
L 242.124173 -504.873851 
L 242.103286 -502.076373 
L 242.090659 -499.278894 
L 242.084328 -496.481415 
L 242.078282 -493.683937 
L 242.070494 -490.886458 
L 242.065232 -488.088979 
L 242.069279 -485.291501 
L 242.086479 -482.494022 
L 242.114225 -479.696544 
L 242.143794 -476.899065 
L 242.164865 -474.101586 
L 242.17127 -471.304108 
L 242.163674 -468.506629 
L 242.148 -465.70915 
L 242.131617 -462.911672 
L 242.119753 -460.114193 
L 242.114141 -457.316714 
L 242.114052 -454.519236 
L 242.117621 -451.721757 
L 242.12276 -448.924278 
L 242.129121 -446.1268 
L 242.140385 -443.329321 
L 242.163122 -440.531842 
L 242.201232 -437.734364 
L 242.251061 -434.936885 
L 242.302597 -432.139406 
L 242.345112 -429.341928 
L 242.371516 -426.544449 
L 242.379651 -423.746971 
L 242.372554 -420.949492 
L 242.357501 -418.152013 
L 242.342391 -415.354535 
L 242.331937 -412.557056 
L 242.328127 -409.759577 
L 242.333566 -406.962099 
L 242.350877 -404.16462 
L 242.377475 -401.367141 
L 242.404514 -398.569663 
L 242.423853 -395.772184 
L 242.434232 -392.974705 
L 242.439136 -390.177227 
L 242.441679 -387.379748 
L 242.444837 -384.582269 
L 242.455093 -381.784791 
L 242.481144 -378.987312 
L 242.526664 -376.189833 
L 242.587349 -373.392355 
L 242.66114 -370.594876 
L 242.762148 -367.797397 
L 242.914317 -364.999919 
L 243.119103 -362.20244 
L 243.330461 -359.404962 
L 243.47526 -356.607483 
L 243.507739 -353.810004 
L 243.443709 -351.012526 
L 243.344477 -348.215047 
L 243.276498 -345.417568 
L 243.284324 -342.62009 
L 243.382955 -339.822611 
L 243.558759 -337.025132 
L 243.779162 -334.227654 
L 244.01471 -331.430175 
L 244.258774 -328.632696 
L 244.521312 -325.835218 
L 244.796749 -323.037739 
L 245.038549 -320.24026 
L 245.178199 -317.442782 
L 245.18927 -314.645303 
L 245.139711 -311.847824 
L 245.165676 -309.050346 
L 245.375884 -306.252867 
L 245.774348 -303.455389 
L 246.270889 -300.65791 
L 246.764523 -297.860431 
L 247.229562 -295.062953 
L 247.739626 -292.265474 
L 248.416552 -289.467995 
L 249.359737 -286.670517 
L 250.632945 -283.873038 
L 252.32352 -281.075559 
L 254.612428 -278.278081 
L 257.793152 -275.480602 
L 262.199772 -272.683123 
L 267.934148 -269.885645 
L 274.303403 -267.088166 
L 279.363848 -264.290687 
L 280.491541 -261.493209 
L 276.193393 -258.69573 
L 267.617981 -255.898251 
L 257.958035 -253.100773 
L 250.194546 -250.303294 
L 245.456884 -247.505815 
z
" style="stroke: #494949"/>
    </defs>
    <g clip-path="url(#pc17c3bfe4f)">
     <use xlink:href="#m5e894ce5d3" x="0" y="864" style="fill: #cc8963; stroke: #494949"/>
    </g>
   </g>
   <g id="FillBetweenPolyCollection_3">
    <defs>
     <path id="mdb66795518" d="M 340.768532 -250.390219 
L 335.578496 -250.390219 
L 330.581321 -253.04333 
L 321.642026 -255.696441 
L 310.79416 -258.349552 
L 302.493558 -261.002663 
L 299.718865 -263.655774 
L 301.662041 -266.308885 
L 305.725978 -268.961996 
L 310.142181 -271.615107 
L 314.27264 -274.268218 
L 317.890737 -276.921328 
L 320.953607 -279.574439 
L 323.573528 -282.22755 
L 325.812959 -284.880661 
L 327.645484 -287.533772 
L 329.135304 -290.186883 
L 330.417694 -292.839994 
L 331.508403 -295.493105 
L 332.344412 -298.146216 
L 332.987228 -300.799327 
L 333.610826 -303.452438 
L 334.292253 -306.105549 
L 334.928813 -308.75866 
L 335.385756 -311.411771 
L 335.672208 -314.064882 
L 335.922101 -316.717993 
L 336.212277 -319.371103 
L 336.483479 -322.024214 
L 336.649487 -324.677325 
L 336.693525 -327.330436 
L 336.663132 -329.983547 
L 336.634445 -332.636658 
L 336.671096 -335.289769 
L 336.797727 -337.94288 
L 336.995295 -340.595991 
L 337.203571 -343.249102 
L 337.358272 -345.902213 
L 337.445988 -348.555324 
L 337.502182 -351.208435 
L 337.553497 -353.861546 
L 337.591531 -356.514657 
L 337.610807 -359.167768 
L 337.638367 -361.820878 
L 337.707336 -364.473989 
L 337.814985 -367.1271 
L 337.917276 -369.780211 
L 337.966911 -372.433322 
L 337.953499 -375.086433 
L 337.907274 -377.739544 
L 337.871176 -380.392655 
L 337.870177 -383.045766 
L 337.903746 -385.698877 
L 337.956288 -388.351988 
L 338.003354 -391.005099 
L 338.018791 -393.65821 
L 337.997434 -396.311321 
L 337.970508 -398.964432 
L 337.977399 -401.617543 
L 338.018523 -404.270653 
L 338.056096 -406.923764 
L 338.063899 -409.576875 
L 338.054918 -412.229986 
L 338.052682 -414.883097 
L 338.057486 -417.536208 
L 338.058643 -420.189319 
L 338.060209 -422.84243 
L 338.071572 -425.495541 
L 338.088136 -428.148652 
L 338.101041 -430.801763 
L 338.112752 -433.454874 
L 338.127624 -436.107985 
L 338.13795 -438.761096 
L 338.131077 -441.414207 
L 338.106333 -444.067318 
L 338.080918 -446.720428 
L 338.076612 -449.373539 
L 338.09835 -452.02665 
L 338.130526 -454.679761 
L 338.155436 -457.332872 
L 338.167797 -459.985983 
L 338.17126 -462.639094 
L 338.168963 -465.292205 
L 338.160144 -467.945316 
L 338.144236 -470.598427 
L 338.127605 -473.251538 
L 338.122 -475.904649 
L 338.13181 -478.55776 
L 338.147477 -481.210871 
L 338.155217 -483.863982 
L 338.148772 -486.517093 
L 338.132837 -489.170204 
L 338.119158 -491.823314 
L 338.113839 -494.476425 
L 338.107613 -497.129536 
L 338.089705 -499.782647 
L 338.070303 -502.435758 
L 338.072461 -505.088869 
L 338.100761 -507.74198 
L 338.135815 -510.395091 
L 338.159527 -513.048202 
L 338.187501 -513.048202 
L 338.187501 -513.048202 
L 338.211214 -510.395091 
L 338.246267 -507.74198 
L 338.274568 -505.088869 
L 338.276726 -502.435758 
L 338.257323 -499.782647 
L 338.239415 -497.129536 
L 338.233189 -494.476425 
L 338.22787 -491.823314 
L 338.214191 -489.170204 
L 338.198256 -486.517093 
L 338.191812 -483.863982 
L 338.199552 -481.210871 
L 338.215218 -478.55776 
L 338.225029 -475.904649 
L 338.219423 -473.251538 
L 338.202793 -470.598427 
L 338.186885 -467.945316 
L 338.178065 -465.292205 
L 338.175769 -462.639094 
L 338.179231 -459.985983 
L 338.191592 -457.332872 
L 338.216502 -454.679761 
L 338.248678 -452.02665 
L 338.270416 -449.373539 
L 338.266111 -446.720428 
L 338.240695 -444.067318 
L 338.215952 -441.414207 
L 338.209079 -438.761096 
L 338.219405 -436.107985 
L 338.234276 -433.454874 
L 338.245988 -430.801763 
L 338.258893 -428.148652 
L 338.275457 -425.495541 
L 338.28682 -422.84243 
L 338.288386 -420.189319 
L 338.289542 -417.536208 
L 338.294347 -414.883097 
L 338.29211 -412.229986 
L 338.283129 -409.576875 
L 338.290932 -406.923764 
L 338.328506 -404.270653 
L 338.369629 -401.617543 
L 338.37652 -398.964432 
L 338.349595 -396.311321 
L 338.328237 -393.65821 
L 338.343675 -391.005099 
L 338.39074 -388.351988 
L 338.443282 -385.698877 
L 338.476851 -383.045766 
L 338.475853 -380.392655 
L 338.439754 -377.739544 
L 338.39353 -375.086433 
L 338.380118 -372.433322 
L 338.429752 -369.780211 
L 338.532044 -367.1271 
L 338.639693 -364.473989 
L 338.708661 -361.820878 
L 338.736221 -359.167768 
L 338.755498 -356.514657 
L 338.793531 -353.861546 
L 338.844847 -351.208435 
L 338.901041 -348.555324 
L 338.988757 -345.902213 
L 339.143457 -343.249102 
L 339.351733 -340.595991 
L 339.549301 -337.94288 
L 339.675932 -335.289769 
L 339.712583 -332.636658 
L 339.683897 -329.983547 
L 339.653504 -327.330436 
L 339.697541 -324.677325 
L 339.86355 -322.024214 
L 340.134752 -319.371103 
L 340.424927 -316.717993 
L 340.67482 -314.064882 
L 340.961273 -311.411771 
L 341.418216 -308.75866 
L 342.054775 -306.105549 
L 342.736202 -303.452438 
L 343.359801 -300.799327 
L 344.002617 -298.146216 
L 344.838626 -295.493105 
L 345.929334 -292.839994 
L 347.211725 -290.186883 
L 348.701544 -287.533772 
L 350.534069 -284.880661 
L 352.7735 -282.22755 
L 355.393422 -279.574439 
L 358.456291 -276.921328 
L 362.074389 -274.268218 
L 366.204847 -271.615107 
L 370.621051 -268.961996 
L 374.684987 -266.308885 
L 376.628163 -263.655774 
L 373.853471 -261.002663 
L 365.552869 -258.349552 
L 354.705002 -255.696441 
L 345.765707 -253.04333 
L 340.768532 -250.390219 
z
" style="stroke: #494949"/>
    </defs>
    <g clip-path="url(#pc17c3bfe4f)">
     <use xlink:href="#mdb66795518" x="0" y="864" style="fill: #5f9e6e; stroke: #494949"/>
    </g>
   </g>
   <g id="FillBetweenPolyCollection_4">
    <defs>
     <path id="m5e7b0ae2f5" d="M 436.588199 -250.386301 
L 432.032074 -250.386301 
L 427.053995 -253.240384 
L 417.742192 -256.094467 
L 406.383898 -258.94855 
L 398.039998 -261.802633 
L 395.855488 -264.656716 
L 398.666228 -267.510799 
L 403.400484 -270.364882 
L 407.925771 -273.218965 
L 411.644785 -276.073048 
L 414.801127 -278.927131 
L 417.701887 -281.781214 
L 420.296509 -284.635297 
L 422.287466 -287.489379 
L 423.547887 -290.343462 
L 424.322493 -293.197545 
L 425.021013 -296.051628 
L 425.890514 -298.905711 
L 426.8915 -301.759794 
L 427.815081 -304.613877 
L 428.478579 -307.46796 
L 428.845318 -310.322043 
L 429.059548 -313.176126 
L 429.394498 -316.030209 
L 430.033953 -318.884292 
L 430.870799 -321.738375 
L 431.635487 -324.592458 
L 432.167082 -327.44654 
L 432.469845 -330.300623 
L 432.640879 -333.154706 
L 432.798325 -336.008789 
L 432.966751 -338.862872 
L 433.059466 -341.716955 
L 433.02997 -344.571038 
L 432.95922 -347.425121 
L 432.977704 -350.279204 
L 433.149034 -353.133287 
L 433.416962 -355.98737 
L 433.657877 -358.841453 
L 433.782282 -361.695536 
L 433.778119 -364.549619 
L 433.711984 -367.403701 
L 433.702866 -370.257784 
L 433.809794 -373.111867 
L 433.95841 -375.96595 
L 434.04994 -378.820033 
L 434.082705 -381.674116 
L 434.116159 -384.528199 
L 434.175911 -387.382282 
L 434.234041 -390.236365 
L 434.257951 -393.090448 
L 434.247199 -395.944531 
L 434.225255 -398.798614 
L 434.213458 -401.652697 
L 434.216547 -404.50678 
L 434.224322 -407.360862 
L 434.224029 -410.214945 
L 434.216136 -413.069028 
L 434.213807 -415.923111 
L 434.227386 -418.777194 
L 434.254518 -421.631277 
L 434.282422 -424.48536 
L 434.300296 -427.339443 
L 434.307706 -430.193526 
L 434.309719 -433.047609 
L 434.310023 -435.901692 
L 434.309598 -438.755775 
L 434.30718 -441.609858 
L 434.299059 -444.463941 
L 434.281981 -447.318023 
L 434.261596 -450.172106 
L 434.253376 -453.026189 
L 434.265113 -455.880272 
L 434.285849 -458.734355 
L 434.300728 -461.588438 
L 434.304828 -464.442521 
L 434.298235 -467.296604 
L 434.281185 -470.150687 
L 434.260987 -473.00477 
L 434.253468 -475.858853 
L 434.265817 -478.712936 
L 434.286614 -481.567019 
L 434.301522 -484.421102 
L 434.306836 -487.275184 
L 434.303162 -490.129267 
L 434.28597 -492.98335 
L 434.250605 -495.837433 
L 434.210522 -498.691516 
L 434.197073 -501.545599 
L 434.223089 -504.399682 
L 434.264604 -507.253765 
L 434.293379 -510.107848 
L 434.302772 -512.961931 
L 434.296958 -515.816014 
L 434.279538 -518.670097 
L 434.259756 -521.52418 
L 434.253757 -524.378263 
L 434.267338 -527.232345 
L 434.2881 -530.086428 
L 434.302441 -532.940511 
L 434.317832 -532.940511 
L 434.317832 -532.940511 
L 434.332173 -530.086428 
L 434.352935 -527.232345 
L 434.366517 -524.378263 
L 434.360517 -521.52418 
L 434.340735 -518.670097 
L 434.323315 -515.816014 
L 434.317502 -512.961931 
L 434.326894 -510.107848 
L 434.35567 -507.253765 
L 434.397184 -504.399682 
L 434.4232 -501.545599 
L 434.409751 -498.691516 
L 434.369668 -495.837433 
L 434.334303 -492.98335 
L 434.317112 -490.129267 
L 434.313438 -487.275184 
L 434.318751 -484.421102 
L 434.333659 -481.567019 
L 434.354456 -478.712936 
L 434.366805 -475.858853 
L 434.359287 -473.00477 
L 434.339088 -470.150687 
L 434.322038 -467.296604 
L 434.315445 -464.442521 
L 434.319545 -461.588438 
L 434.334425 -458.734355 
L 434.35516 -455.880272 
L 434.366897 -453.026189 
L 434.358677 -450.172106 
L 434.338293 -447.318023 
L 434.321214 -444.463941 
L 434.313093 -441.609858 
L 434.310675 -438.755775 
L 434.31025 -435.901692 
L 434.310554 -433.047609 
L 434.312567 -430.193526 
L 434.319978 -427.339443 
L 434.337851 -424.48536 
L 434.365755 -421.631277 
L 434.392887 -418.777194 
L 434.406466 -415.923111 
L 434.404137 -413.069028 
L 434.396244 -410.214945 
L 434.395951 -407.360862 
L 434.403726 -404.50678 
L 434.406815 -401.652697 
L 434.395018 -398.798614 
L 434.373075 -395.944531 
L 434.362322 -393.090448 
L 434.386233 -390.236365 
L 434.444362 -387.382282 
L 434.504114 -384.528199 
L 434.537568 -381.674116 
L 434.570333 -378.820033 
L 434.661863 -375.96595 
L 434.810479 -373.111867 
L 434.917407 -370.257784 
L 434.908289 -367.403701 
L 434.842154 -364.549619 
L 434.837991 -361.695536 
L 434.962396 -358.841453 
L 435.203311 -355.98737 
L 435.471239 -353.133287 
L 435.64257 -350.279204 
L 435.661054 -347.425121 
L 435.590303 -344.571038 
L 435.560807 -341.716955 
L 435.653522 -338.862872 
L 435.821949 -336.008789 
L 435.979394 -333.154706 
L 436.150428 -330.300623 
L 436.453191 -327.44654 
L 436.984787 -324.592458 
L 437.749474 -321.738375 
L 438.58632 -318.884292 
L 439.225775 -316.030209 
L 439.560725 -313.176126 
L 439.774955 -310.322043 
L 440.141694 -307.46796 
L 440.805193 -304.613877 
L 441.728773 -301.759794 
L 442.729759 -298.905711 
L 443.59926 -296.051628 
L 444.29778 -293.197545 
L 445.072386 -290.343462 
L 446.332807 -287.489379 
L 448.323764 -284.635297 
L 450.918386 -281.781214 
L 453.819146 -278.927131 
L 456.975488 -276.073048 
L 460.694503 -273.218965 
L 465.219789 -270.364882 
L 469.954045 -267.510799 
L 472.764786 -264.656716 
L 470.580275 -261.802633 
L 462.236375 -258.94855 
L 450.878081 -256.094467 
L 441.566278 -253.240384 
L 436.588199 -250.386301 
z
" style="stroke: #494949"/>
    </defs>
    <g clip-path="url(#pc17c3bfe4f)">
     <use xlink:href="#m5e7b0ae2f5" x="0" y="864" style="fill: #b55d60; stroke: #494949"/>
    </g>
   </g>
   <g id="FillBetweenPolyCollection_5">
    <defs>
     <path id="m6910adfab3" d="M 533.665101 -239.978918 
L 527.228417 -239.978918 
L 522.862072 -244.392103 
L 515.647748 -248.805288 
L 506.404854 -253.218474 
L 497.645104 -257.631659 
L 492.353102 -262.044844 
L 491.99211 -266.458029 
L 495.618857 -270.871214 
L 500.896814 -275.284399 
L 505.807494 -279.697584 
L 509.513818 -284.110769 
L 512.103715 -288.523954 
L 513.941518 -292.937139 
L 515.277082 -297.350324 
L 516.23318 -301.763509 
L 516.951742 -306.176694 
L 517.656611 -310.589879 
L 518.562185 -315.003064 
L 519.736517 -319.416249 
L 521.061769 -323.829434 
L 522.326118 -328.242619 
L 523.36162 -332.655804 
L 524.120579 -337.06899 
L 524.655159 -341.482175 
L 525.048685 -345.89536 
L 525.364994 -350.308545 
L 525.637434 -354.72173 
L 525.879043 -359.134915 
L 526.093452 -363.5481 
L 526.279234 -367.961285 
L 526.432251 -372.37447 
L 526.555994 -376.787655 
L 526.676852 -381.20084 
L 526.844542 -385.614025 
L 527.107019 -390.02721 
L 527.475624 -394.440395 
L 527.90826 -398.85358 
L 528.325111 -403.266765 
L 528.647123 -407.67995 
L 528.834294 -412.093135 
L 528.904476 -416.50632 
L 528.922146 -420.919505 
L 528.959713 -425.332691 
L 529.054245 -429.745876 
L 529.191116 -434.159061 
L 529.325939 -438.572246 
L 529.424246 -442.985431 
L 529.485357 -447.398616 
L 529.53362 -451.811801 
L 529.59023 -456.224986 
L 529.654443 -460.638171 
L 529.709344 -465.051356 
L 529.74104 -469.464541 
L 529.750896 -473.877726 
L 529.753051 -478.290911 
L 529.764231 -482.704096 
L 529.795234 -487.117281 
L 529.847374 -491.530466 
L 529.913203 -495.943651 
L 529.981197 -500.356836 
L 530.042453 -504.770021 
L 530.094312 -509.183206 
L 530.138641 -513.596392 
L 530.178111 -518.009577 
L 530.214041 -522.422762 
L 530.24592 -526.835947 
L 530.271714 -531.249132 
L 530.289554 -535.662317 
L 530.300855 -540.075502 
L 530.311405 -544.488687 
L 530.326741 -548.901872 
L 530.345349 -553.315057 
L 530.358169 -557.728242 
L 530.35619 -562.141427 
L 530.338199 -566.554612 
L 530.311462 -570.967797 
L 530.286309 -575.380982 
L 530.269992 -579.794167 
L 530.263476 -584.207352 
L 530.261813 -588.620537 
L 530.257301 -593.033722 
L 530.244846 -597.446908 
L 530.227955 -601.860093 
L 530.219936 -606.273278 
L 530.235267 -610.686463 
L 530.276673 -615.099648 
L 530.331499 -619.512833 
L 530.381635 -623.926018 
L 530.415829 -628.339203 
L 530.432963 -632.752388 
L 530.437073 -637.165573 
L 530.432088 -641.578758 
L 530.420972 -645.991943 
L 530.407778 -650.405128 
L 530.398378 -654.818313 
L 530.39773 -659.231498 
L 530.406217 -663.644683 
L 530.419405 -668.057868 
L 530.431701 -672.471053 
L 530.439995 -676.884238 
L 530.453523 -676.884238 
L 530.453523 -676.884238 
L 530.461817 -672.471053 
L 530.474113 -668.057868 
L 530.487301 -663.644683 
L 530.495788 -659.231498 
L 530.49514 -654.818313 
L 530.48574 -650.405128 
L 530.472546 -645.991943 
L 530.46143 -641.578758 
L 530.456445 -637.165573 
L 530.460555 -632.752388 
L 530.477689 -628.339203 
L 530.511883 -623.926018 
L 530.562019 -619.512833 
L 530.616845 -615.099648 
L 530.65825 -610.686463 
L 530.673582 -606.273278 
L 530.665563 -601.860093 
L 530.648672 -597.446908 
L 530.636217 -593.033722 
L 530.631705 -588.620537 
L 530.630042 -584.207352 
L 530.623526 -579.794167 
L 530.607209 -575.380982 
L 530.582056 -570.967797 
L 530.555319 -566.554612 
L 530.537328 -562.141427 
L 530.535349 -557.728242 
L 530.548169 -553.315057 
L 530.566777 -548.901872 
L 530.582113 -544.488687 
L 530.592662 -540.075502 
L 530.603964 -535.662317 
L 530.621804 -531.249132 
L 530.647598 -526.835947 
L 530.679476 -522.422762 
L 530.715407 -518.009577 
L 530.754877 -513.596392 
L 530.799206 -509.183206 
L 530.851065 -504.770021 
L 530.912321 -500.356836 
L 530.980315 -495.943651 
L 531.046143 -491.530466 
L 531.098284 -487.117281 
L 531.129286 -482.704096 
L 531.140467 -478.290911 
L 531.142622 -473.877726 
L 531.152478 -469.464541 
L 531.184174 -465.051356 
L 531.239074 -460.638171 
L 531.303288 -456.224986 
L 531.359898 -451.811801 
L 531.408161 -447.398616 
L 531.469272 -442.985431 
L 531.567579 -438.572246 
L 531.702402 -434.159061 
L 531.839272 -429.745876 
L 531.933805 -425.332691 
L 531.971372 -420.919505 
L 531.989042 -416.50632 
L 532.059224 -412.093135 
L 532.246395 -407.67995 
L 532.568407 -403.266765 
L 532.985258 -398.85358 
L 533.417894 -394.440395 
L 533.786499 -390.02721 
L 534.048976 -385.614025 
L 534.216666 -381.20084 
L 534.337524 -376.787655 
L 534.461267 -372.37447 
L 534.614284 -367.961285 
L 534.800065 -363.5481 
L 535.014475 -359.134915 
L 535.256084 -354.72173 
L 535.528524 -350.308545 
L 535.844833 -345.89536 
L 536.238359 -341.482175 
L 536.772939 -337.06899 
L 537.531898 -332.655804 
L 538.5674 -328.242619 
L 539.831749 -323.829434 
L 541.157001 -319.416249 
L 542.331333 -315.003064 
L 543.236907 -310.589879 
L 543.941776 -306.176694 
L 544.660338 -301.763509 
L 545.616436 -297.350324 
L 546.952 -292.937139 
L 548.789802 -288.523954 
L 551.3797 -284.110769 
L 555.086024 -279.697584 
L 559.996704 -275.284399 
L 565.274661 -270.871214 
L 568.901408 -266.458029 
L 568.540416 -262.044844 
L 563.248414 -257.631659 
L 554.488664 -253.218474 
L 545.24577 -248.805288 
L 538.031446 -244.392103 
L 533.665101 -239.978918 
z
" style="stroke: #494949"/>
    </defs>
    <g clip-path="url(#pc17c3bfe4f)">
     <use xlink:href="#m6910adfab3" x="0" y="864" style="fill: #857aab; stroke: #494949"/>
    </g>
   </g>
   <g id="FillBetweenPolyCollection_6">
    <defs>
     <path id="mcb50e52696" d="M 629.522151 -253.632114 
L 623.644611 -253.632114 
L 618.155036 -255.358763 
L 608.692334 -257.085412 
L 597.753218 -258.812061 
L 589.982153 -260.538709 
L 588.128732 -262.265358 
L 591.197517 -263.992007 
L 596.487429 -265.718656 
L 601.986406 -267.445304 
L 606.871413 -269.171953 
L 610.931433 -270.898602 
L 614.147679 -272.625251 
L 616.615277 -274.3519 
L 618.487547 -276.078548 
L 619.904105 -277.805197 
L 620.990476 -279.531846 
L 621.865022 -281.258495 
L 622.609228 -282.985143 
L 623.245019 -284.711792 
L 623.740778 -286.438441 
L 624.053406 -288.16509 
L 624.196908 -289.891738 
L 624.261561 -291.618387 
L 624.345367 -293.345036 
L 624.483471 -295.071685 
L 624.651044 -296.798334 
L 624.811899 -298.524982 
L 624.9528 -300.251631 
L 625.079707 -301.97828 
L 625.19604 -303.704929 
L 625.299304 -305.431577 
L 625.397424 -307.158226 
L 625.503885 -308.884875 
L 625.612187 -310.611524 
L 625.702676 -312.338172 
L 625.776741 -314.064821 
L 625.858692 -315.79147 
L 625.9603 -317.518119 
L 626.063608 -319.244768 
L 626.149013 -320.971416 
L 626.220969 -322.698065 
L 626.290346 -324.424714 
L 626.351587 -326.151363 
L 626.393727 -327.878011 
L 626.419605 -329.60466 
L 626.438272 -331.331309 
L 626.445521 -333.057958 
L 626.43088 -334.784606 
L 626.400435 -336.511255 
L 626.373989 -338.237904 
L 626.363292 -339.964553 
L 626.363028 -341.691201 
L 626.357397 -343.41785 
L 626.337668 -345.144499 
L 626.319595 -346.871148 
L 626.328375 -348.597797 
L 626.35997 -350.324445 
L 626.379586 -352.051094 
L 626.362997 -353.777743 
L 626.321682 -355.504392 
L 626.285997 -357.23104 
L 626.274605 -358.957689 
L 626.284566 -360.684338 
L 626.307966 -362.410987 
L 626.348464 -364.137635 
L 626.41002 -365.864284 
L 626.475705 -367.590933 
L 626.517054 -369.317582 
L 626.523436 -371.044231 
L 626.510011 -372.770879 
L 626.49968 -374.497528 
L 626.503061 -376.224177 
L 626.513927 -377.950826 
L 626.522144 -379.677474 
L 626.528012 -381.404123 
L 626.537637 -383.130772 
L 626.548326 -384.857421 
L 626.550445 -386.584069 
L 626.542914 -388.310718 
L 626.53723 -390.037367 
L 626.543472 -391.764016 
L 626.558526 -393.490665 
L 626.572346 -395.217313 
L 626.579895 -396.943962 
L 626.582598 -398.670611 
L 626.583256 -400.39726 
L 626.583367 -402.123908 
L 626.58338 -403.850557 
L 626.583379 -405.577206 
L 626.583353 -407.303855 
L 626.583153 -409.030503 
L 626.582097 -410.757152 
L 626.578232 -412.483801 
L 626.568703 -414.21045 
L 626.553621 -415.937099 
L 626.540469 -417.663747 
L 626.539373 -419.390396 
L 626.551283 -421.117045 
L 626.566731 -422.843694 
L 626.577238 -424.570342 
L 626.589524 -424.570342 
L 626.589524 -424.570342 
L 626.600032 -422.843694 
L 626.61548 -421.117045 
L 626.627389 -419.390396 
L 626.626294 -417.663747 
L 626.613142 -415.937099 
L 626.59806 -414.21045 
L 626.588531 -412.483801 
L 626.584666 -410.757152 
L 626.583609 -409.030503 
L 626.58341 -407.303855 
L 626.583384 -405.577206 
L 626.583383 -403.850557 
L 626.583396 -402.123908 
L 626.583507 -400.39726 
L 626.584165 -398.670611 
L 626.586868 -396.943962 
L 626.594417 -395.217313 
L 626.608237 -393.490665 
L 626.623291 -391.764016 
L 626.629533 -390.037367 
L 626.623848 -388.310718 
L 626.616318 -386.584069 
L 626.618437 -384.857421 
L 626.629125 -383.130772 
L 626.63875 -381.404123 
L 626.644619 -379.677474 
L 626.652836 -377.950826 
L 626.663701 -376.224177 
L 626.667083 -374.497528 
L 626.656752 -372.770879 
L 626.643326 -371.044231 
L 626.649709 -369.317582 
L 626.691057 -367.590933 
L 626.756742 -365.864284 
L 626.818298 -364.137635 
L 626.858797 -362.410987 
L 626.882197 -360.684338 
L 626.892157 -358.957689 
L 626.880766 -357.23104 
L 626.845081 -355.504392 
L 626.803765 -353.777743 
L 626.787177 -352.051094 
L 626.806793 -350.324445 
L 626.838388 -348.597797 
L 626.847168 -346.871148 
L 626.829094 -345.144499 
L 626.809366 -343.41785 
L 626.803735 -341.691201 
L 626.803471 -339.964553 
L 626.792774 -338.237904 
L 626.766328 -336.511255 
L 626.735883 -334.784606 
L 626.721241 -333.057958 
L 626.728491 -331.331309 
L 626.747158 -329.60466 
L 626.773036 -327.878011 
L 626.815175 -326.151363 
L 626.876416 -324.424714 
L 626.945794 -322.698065 
L 627.01775 -320.971416 
L 627.103155 -319.244768 
L 627.206463 -317.518119 
L 627.30807 -315.79147 
L 627.390021 -314.064821 
L 627.464086 -312.338172 
L 627.554575 -310.611524 
L 627.662877 -308.884875 
L 627.769339 -307.158226 
L 627.867459 -305.431577 
L 627.970723 -303.704929 
L 628.087056 -301.97828 
L 628.213962 -300.251631 
L 628.354864 -298.524982 
L 628.515719 -296.798334 
L 628.683291 -295.071685 
L 628.821396 -293.345036 
L 628.905202 -291.618387 
L 628.969855 -289.891738 
L 629.113357 -288.16509 
L 629.425985 -286.438441 
L 629.921743 -284.711792 
L 630.557535 -282.985143 
L 631.301741 -281.258495 
L 632.176287 -279.531846 
L 633.262658 -277.805197 
L 634.679216 -276.078548 
L 636.551485 -274.3519 
L 639.019084 -272.625251 
L 642.23533 -270.898602 
L 646.295349 -269.171953 
L 651.180356 -267.445304 
L 656.679333 -265.718656 
L 661.969245 -263.992007 
L 665.03803 -262.265358 
L 663.184609 -260.538709 
L 655.413544 -258.812061 
L 644.474428 -257.085412 
L 635.011727 -255.358763 
L 629.522151 -253.632114 
z
" style="stroke: #494949"/>
    </defs>
    <g clip-path="url(#pc17c3bfe4f)">
     <use xlink:href="#mcb50e52696" x="0" y="864" style="fill: #8d7866; stroke: #494949"/>
    </g>
   </g>
   <g id="line2d_9">
    <path d="M 145.900269 604.452338 
L 145.900269 590.246344 
" clip-path="url(#pc17c3bfe4f)" style="fill: none; stroke: #494949; stroke-width: 1.5; stroke-linecap: round"/>
   </g>
   <g id="line2d_10">
    <path d="M 145.900269 604.452338 
L 145.900269 598.769941 
" clip-path="url(#pc17c3bfe4f)" style="fill: none; stroke: #494949; stroke-width: 4.5; stroke-linecap: round"/>
   </g>
   <g id="line2d_11">
    <path d="M 145.900269 601.61114 
" clip-path="url(#pc17c3bfe4f)" style="fill: none; stroke: #494949; stroke-width: 1.2; stroke-linecap: round"/>
    <defs>
     <path id="md01545e7d8" d="M 1.875 0 
L -1.875 -0 
" style="stroke: #ffffff; stroke-width: 0.9"/>
    </defs>
    <g clip-path="url(#pc17c3bfe4f)">
     <use xlink:href="#md01545e7d8" x="145.900269" y="601.61114" style="fill: #ffffff; stroke: #ffffff; stroke-width: 0.9"/>
    </g>
   </g>
   <g id="line2d_12">
    <path d="M 242.036892 604.452338 
L 242.036892 547.628362 
" clip-path="url(#pc17c3bfe4f)" style="fill: none; stroke: #494949; stroke-width: 1.5; stroke-linecap: round"/>
   </g>
   <g id="line2d_13">
    <path d="M 242.036892 604.452338 
L 242.036892 581.722748 
" clip-path="url(#pc17c3bfe4f)" style="fill: none; stroke: #494949; stroke-width: 4.5; stroke-linecap: round"/>
   </g>
   <g id="line2d_14">
    <path d="M 242.036892 598.769941 
" clip-path="url(#pc17c3bfe4f)" style="fill: none; stroke: #494949; stroke-width: 1.2; stroke-linecap: round"/>
    <g clip-path="url(#pc17c3bfe4f)">
     <use xlink:href="#md01545e7d8" x="242.036892" y="598.769941" style="fill: #ffffff; stroke: #ffffff; stroke-width: 0.9"/>
    </g>
   </g>
   <g id="line2d_15">
    <path d="M 338.173514 604.452338 
L 338.173514 553.31076 
" clip-path="url(#pc17c3bfe4f)" style="fill: none; stroke: #494949; stroke-width: 1.5; stroke-linecap: round"/>
   </g>
   <g id="line2d_16">
    <path d="M 338.173514 601.61114 
L 338.173514 581.722748 
" clip-path="url(#pc17c3bfe4f)" style="fill: none; stroke: #494949; stroke-width: 4.5; stroke-linecap: round"/>
   </g>
   <g id="line2d_17">
    <path d="M 338.173514 593.087543 
" clip-path="url(#pc17c3bfe4f)" style="fill: none; stroke: #494949; stroke-width: 1.2; stroke-linecap: round"/>
    <g clip-path="url(#pc17c3bfe4f)">
     <use xlink:href="#md01545e7d8" x="338.173514" y="593.087543" style="fill: #ffffff; stroke: #ffffff; stroke-width: 0.9"/>
    </g>
   </g>
   <g id="line2d_18">
    <path d="M 434.310137 604.452338 
L 434.310137 536.263567 
" clip-path="url(#pc17c3bfe4f)" style="fill: none; stroke: #494949; stroke-width: 1.5; stroke-linecap: round"/>
   </g>
   <g id="line2d_19">
    <path d="M 434.310137 598.769941 
L 434.310137 573.199151 
" clip-path="url(#pc17c3bfe4f)" style="fill: none; stroke: #494949; stroke-width: 4.5; stroke-linecap: round"/>
   </g>
   <g id="line2d_20">
    <path d="M 434.310137 590.246344 
" clip-path="url(#pc17c3bfe4f)" style="fill: none; stroke: #494949; stroke-width: 1.2; stroke-linecap: round"/>
    <g clip-path="url(#pc17c3bfe4f)">
     <use xlink:href="#md01545e7d8" x="434.310137" y="590.246344" style="fill: #ffffff; stroke: #ffffff; stroke-width: 0.9"/>
    </g>
   </g>
   <g id="line2d_21">
    <path d="M 530.446759 604.452338 
L 530.446759 468.074795 
" clip-path="url(#pc17c3bfe4f)" style="fill: none; stroke: #494949; stroke-width: 1.5; stroke-linecap: round"/>
   </g>
   <g id="line2d_22">
    <path d="M 530.446759 601.61114 
L 530.446759 547.628362 
" clip-path="url(#pc17c3bfe4f)" style="fill: none; stroke: #494949; stroke-width: 4.5; stroke-linecap: round"/>
   </g>
   <g id="line2d_23">
    <path d="M 530.446759 584.563947 
" clip-path="url(#pc17c3bfe4f)" style="fill: none; stroke: #494949; stroke-width: 1.2; stroke-linecap: round"/>
    <g clip-path="url(#pc17c3bfe4f)">
     <use xlink:href="#md01545e7d8" x="530.446759" y="584.563947" style="fill: #ffffff; stroke: #ffffff; stroke-width: 0.9"/>
    </g>
   </g>
   <g id="line2d_24">
    <path d="M 626.583381 604.452338 
L 626.583381 581.722748 
" clip-path="url(#pc17c3bfe4f)" style="fill: none; stroke: #494949; stroke-width: 1.5; stroke-linecap: round"/>
   </g>
   <g id="line2d_25">
    <path d="M 626.583381 601.61114 
L 626.583381 593.087543 
" clip-path="url(#pc17c3bfe4f)" style="fill: none; stroke: #494949; stroke-width: 4.5; stroke-linecap: round"/>
   </g>
   <g id="line2d_26">
    <path d="M 626.583381 598.769941 
" clip-path="url(#pc17c3bfe4f)" style="fill: none; stroke: #494949; stroke-width: 1.2; stroke-linecap: round"/>
    <g clip-path="url(#pc17c3bfe4f)">
     <use xlink:href="#md01545e7d8" x="626.583381" y="598.769941" style="fill: #ffffff; stroke: #ffffff; stroke-width: 0.9"/>
    </g>
   </g>
   <g id="line2d_27">
    <path d="M 145.900269 518.792611 
L 145.900269 509.180694 
L 242.036892 509.180694 
L 242.036892 518.792611 
" style="fill: none; stroke: #333333; stroke-width: 1.5; stroke-linecap: round"/>
   </g>
   <g id="line2d_28">
    <path d="M 242.036892 482.769883 
L 242.036892 473.157966 
L 338.173514 473.157966 
L 338.173514 482.769883 
" style="fill: none; stroke: #333333; stroke-width: 1.5; stroke-linecap: round"/>
   </g>
   <g id="line2d_29">
    <path d="M 338.173514 446.747155 
L 338.173514 437.135238 
L 434.310137 437.135238 
L 434.310137 446.747155 
" style="fill: none; stroke: #333333; stroke-width: 1.5; stroke-linecap: round"/>
   </g>
   <g id="line2d_30">
    <path d="M 434.310137 410.724427 
L 434.310137 401.11251 
L 530.446759 401.11251 
L 530.446759 410.724427 
" style="fill: none; stroke: #333333; stroke-width: 1.5; stroke-linecap: round"/>
   </g>
   <g id="line2d_31">
    <path d="M 530.446759 374.701699 
L 530.446759 365.089782 
L 626.583381 365.089782 
L 626.583381 374.701699 
" style="fill: none; stroke: #333333; stroke-width: 1.5; stroke-linecap: round"/>
   </g>
   <g id="line2d_32">
    <path d="M 145.900269 410.724427 
L 145.900269 401.11251 
L 338.173514 401.11251 
L 338.173514 410.724427 
" style="fill: none; stroke: #333333; stroke-width: 1.5; stroke-linecap: round"/>
   </g>
   <g id="line2d_33">
    <path d="M 242.036892 374.701699 
L 242.036892 365.089782 
L 434.310137 365.089782 
L 434.310137 374.701699 
" style="fill: none; stroke: #333333; stroke-width: 1.5; stroke-linecap: round"/>
   </g>
   <g id="line2d_34">
    <path d="M 338.173514 338.678971 
L 338.173514 329.067054 
L 530.446759 329.067054 
L 530.446759 338.678971 
" style="fill: none; stroke: #333333; stroke-width: 1.5; stroke-linecap: round"/>
   </g>
   <g id="line2d_35">
    <path d="M 434.310137 302.656243 
L 434.310137 293.044326 
L 626.583381 293.044326 
L 626.583381 302.656243 
" style="fill: none; stroke: #333333; stroke-width: 1.5; stroke-linecap: round"/>
   </g>
   <g id="line2d_36">
    <path d="M 145.900269 266.633515 
L 145.900269 257.021598 
L 434.310137 257.021598 
L 434.310137 266.633515 
" style="fill: none; stroke: #333333; stroke-width: 1.5; stroke-linecap: round"/>
   </g>
   <g id="line2d_37">
    <path d="M 242.036892 230.610787 
L 242.036892 220.99887 
L 530.446759 220.99887 
L 530.446759 230.610787 
" style="fill: none; stroke: #333333; stroke-width: 1.5; stroke-linecap: round"/>
   </g>
   <g id="line2d_38">
    <path d="M 338.173514 194.588059 
L 338.173514 184.976141 
L 626.583381 184.976141 
L 626.583381 194.588059 
" style="fill: none; stroke: #333333; stroke-width: 1.5; stroke-linecap: round"/>
   </g>
   <g id="line2d_39">
    <path d="M 145.900269 158.56533 
L 145.900269 148.953413 
L 530.446759 148.953413 
L 530.446759 158.56533 
" style="fill: none; stroke: #333333; stroke-width: 1.5; stroke-linecap: round"/>
   </g>
   <g id="line2d_40">
    <path d="M 242.036892 122.542602 
L 242.036892 112.930685 
L 626.583381 112.930685 
L 626.583381 122.542602 
" style="fill: none; stroke: #333333; stroke-width: 1.5; stroke-linecap: round"/>
   </g>
   <g id="line2d_41">
    <path d="M 145.900269 86.519874 
L 145.900269 76.907957 
L 626.583381 76.907957 
L 626.583381 86.519874 
" style="fill: none; stroke: #333333; stroke-width: 1.5; stroke-linecap: round"/>
   </g>
   <g id="patch_3">
    <path d="M 79.566 645.866348 
L 79.566 40.416 
" style="fill: none; stroke: #cccccc; stroke-linejoin: miter; stroke-linecap: square"/>
   </g>
   <g id="patch_4">
    <path d="M 692.917651 645.866348 
L 692.917651 40.416 
" style="fill: none; stroke: #cccccc; stroke-linejoin: miter; stroke-linecap: square"/>
   </g>
   <g id="patch_5">
    <path d="M 79.566 645.866348 
L 692.917651 645.866348 
" style="fill: none; stroke: #cccccc; stroke-linejoin: miter; stroke-linecap: square"/>
   </g>
   <g id="patch_6">
    <path d="M 79.566 40.416 
L 692.917651 40.416 
" style="fill: none; stroke: #cccccc; stroke-linejoin: miter; stroke-linecap: square"/>
   </g>
   <g id="text_17">
    <!-- **** -->
    <g style="fill: #262626" transform="translate(179.022581 504.364694) scale(0.192 -0.192)">
     <defs>
      <path id="ArialMT-2a" d="M 200 3741 
L 344 4184 
Q 841 4009 1066 3881 
Q 1006 4447 1003 4659 
L 1456 4659 
Q 1447 4350 1384 3884 
Q 1706 4047 2122 4184 
L 2266 3741 
Q 1869 3609 1488 3566 
Q 1678 3400 2025 2975 
L 1650 2709 
Q 1469 2956 1222 3381 
Q 991 2941 816 2709 
L 447 2975 
Q 809 3422 966 3566 
Q 563 3644 200 3741 
z
" transform="scale(0.015625)"/>
     </defs>
     <use xlink:href="#ArialMT-2a"/>
     <use xlink:href="#ArialMT-2a" transform="translate(38.916016 0)"/>
     <use xlink:href="#ArialMT-2a" transform="translate(77.832031 0)"/>
     <use xlink:href="#ArialMT-2a" transform="translate(116.748047 0)"/>
    </g>
   </g>
   <g id="text_18">
    <!-- **** -->
    <g style="fill: #262626" transform="translate(275.159203 468.341966) scale(0.192 -0.192)">
     <use xlink:href="#ArialMT-2a"/>
     <use xlink:href="#ArialMT-2a" transform="translate(38.916016 0)"/>
     <use xlink:href="#ArialMT-2a" transform="translate(77.832031 0)"/>
     <use xlink:href="#ArialMT-2a" transform="translate(116.748047 0)"/>
    </g>
   </g>
   <g id="text_19">
    <!-- **** -->
    <g style="fill: #262626" transform="translate(371.295825 432.319238) scale(0.192 -0.192)">
     <use xlink:href="#ArialMT-2a"/>
     <use xlink:href="#ArialMT-2a" transform="translate(38.916016 0)"/>
     <use xlink:href="#ArialMT-2a" transform="translate(77.832031 0)"/>
     <use xlink:href="#ArialMT-2a" transform="translate(116.748047 0)"/>
    </g>
   </g>
   <g id="text_20">
    <!-- **** -->
    <g style="fill: #262626" transform="translate(467.432448 396.29651) scale(0.192 -0.192)">
     <use xlink:href="#ArialMT-2a"/>
     <use xlink:href="#ArialMT-2a" transform="translate(38.916016 0)"/>
     <use xlink:href="#ArialMT-2a" transform="translate(77.832031 0)"/>
     <use xlink:href="#ArialMT-2a" transform="translate(116.748047 0)"/>
    </g>
   </g>
   <g id="text_21">
    <!-- **** -->
    <g style="fill: #262626" transform="translate(563.56907 360.273782) scale(0.192 -0.192)">
     <use xlink:href="#ArialMT-2a"/>
     <use xlink:href="#ArialMT-2a" transform="translate(38.916016 0)"/>
     <use xlink:href="#ArialMT-2a" transform="translate(77.832031 0)"/>
     <use xlink:href="#ArialMT-2a" transform="translate(116.748047 0)"/>
    </g>
   </g>
   <g id="text_22">
    <!-- **** -->
    <g style="fill: #262626" transform="translate(227.090892 396.29651) scale(0.192 -0.192)">
     <use xlink:href="#ArialMT-2a"/>
     <use xlink:href="#ArialMT-2a" transform="translate(38.916016 0)"/>
     <use xlink:href="#ArialMT-2a" transform="translate(77.832031 0)"/>
     <use xlink:href="#ArialMT-2a" transform="translate(116.748047 0)"/>
    </g>
   </g>
   <g id="text_23">
    <!-- **** -->
    <g style="fill: #262626" transform="translate(323.227514 360.273782) scale(0.192 -0.192)">
     <use xlink:href="#ArialMT-2a"/>
     <use xlink:href="#ArialMT-2a" transform="translate(38.916016 0)"/>
     <use xlink:href="#ArialMT-2a" transform="translate(77.832031 0)"/>
     <use xlink:href="#ArialMT-2a" transform="translate(116.748047 0)"/>
    </g>
   </g>
   <g id="text_24">
    <!-- **** -->
    <g style="fill: #262626" transform="translate(419.364137 324.251054) scale(0.192 -0.192)">
     <use xlink:href="#ArialMT-2a"/>
     <use xlink:href="#ArialMT-2a" transform="translate(38.916016 0)"/>
     <use xlink:href="#ArialMT-2a" transform="translate(77.832031 0)"/>
     <use xlink:href="#ArialMT-2a" transform="translate(116.748047 0)"/>
    </g>
   </g>
   <g id="text_25">
    <!-- **** -->
    <g style="fill: #262626" transform="translate(515.500759 288.228326) scale(0.192 -0.192)">
     <use xlink:href="#ArialMT-2a"/>
     <use xlink:href="#ArialMT-2a" transform="translate(38.916016 0)"/>
     <use xlink:href="#ArialMT-2a" transform="translate(77.832031 0)"/>
     <use xlink:href="#ArialMT-2a" transform="translate(116.748047 0)"/>
    </g>
   </g>
   <g id="text_26">
    <!-- **** -->
    <g style="fill: #262626" transform="translate(275.159203 252.205598) scale(0.192 -0.192)">
     <use xlink:href="#ArialMT-2a"/>
     <use xlink:href="#ArialMT-2a" transform="translate(38.916016 0)"/>
     <use xlink:href="#ArialMT-2a" transform="translate(77.832031 0)"/>
     <use xlink:href="#ArialMT-2a" transform="translate(116.748047 0)"/>
    </g>
   </g>
   <g id="text_27">
    <!-- **** -->
    <g style="fill: #262626" transform="translate(371.295825 216.18287) scale(0.192 -0.192)">
     <use xlink:href="#ArialMT-2a"/>
     <use xlink:href="#ArialMT-2a" transform="translate(38.916016 0)"/>
     <use xlink:href="#ArialMT-2a" transform="translate(77.832031 0)"/>
     <use xlink:href="#ArialMT-2a" transform="translate(116.748047 0)"/>
    </g>
   </g>
   <g id="text_28">
    <!-- **** -->
    <g style="fill: #262626" transform="translate(467.432448 180.160141) scale(0.192 -0.192)">
     <use xlink:href="#ArialMT-2a"/>
     <use xlink:href="#ArialMT-2a" transform="translate(38.916016 0)"/>
     <use xlink:href="#ArialMT-2a" transform="translate(77.832031 0)"/>
     <use xlink:href="#ArialMT-2a" transform="translate(116.748047 0)"/>
    </g>
   </g>
   <g id="text_29">
    <!-- **** -->
    <g style="fill: #262626" transform="translate(323.227514 144.137413) scale(0.192 -0.192)">
     <use xlink:href="#ArialMT-2a"/>
     <use xlink:href="#ArialMT-2a" transform="translate(38.916016 0)"/>
     <use xlink:href="#ArialMT-2a" transform="translate(77.832031 0)"/>
     <use xlink:href="#ArialMT-2a" transform="translate(116.748047 0)"/>
    </g>
   </g>
   <g id="text_30">
    <!-- **** -->
    <g style="fill: #262626" transform="translate(419.364137 108.114685) scale(0.192 -0.192)">
     <use xlink:href="#ArialMT-2a"/>
     <use xlink:href="#ArialMT-2a" transform="translate(38.916016 0)"/>
     <use xlink:href="#ArialMT-2a" transform="translate(77.832031 0)"/>
     <use xlink:href="#ArialMT-2a" transform="translate(116.748047 0)"/>
    </g>
   </g>
   <g id="text_31">
    <!-- **** -->
    <g style="fill: #262626" transform="translate(371.295825 72.091957) scale(0.192 -0.192)">
     <use xlink:href="#ArialMT-2a"/>
     <use xlink:href="#ArialMT-2a" transform="translate(38.916016 0)"/>
     <use xlink:href="#ArialMT-2a" transform="translate(77.832031 0)"/>
     <use xlink:href="#ArialMT-2a" transform="translate(116.748047 0)"/>
    </g>
   </g>
   <g id="text_32">
    <!-- Ranked Number of Novel Compounds per Fold per Target -->
    <g style="fill: #262626" transform="translate(140.441325 34.416) scale(0.192 -0.192)">
     <defs>
      <path id="ArialMT-6b" d="M 425 0 
L 425 4581 
L 988 4581 
L 988 1969 
L 2319 3319 
L 3047 3319 
L 1778 2088 
L 3175 0 
L 2481 0 
L 1384 1697 
L 988 1316 
L 988 0 
L 425 0 
z
" transform="scale(0.015625)"/>
      <path id="ArialMT-4e" d="M 488 0 
L 488 4581 
L 1109 4581 
L 3516 984 
L 3516 4581 
L 4097 4581 
L 4097 0 
L 3475 0 
L 1069 3600 
L 1069 0 
L 488 0 
z
" transform="scale(0.015625)"/>
      <path id="ArialMT-54" d="M 1659 0 
L 1659 4041 
L 150 4041 
L 150 4581 
L 3781 4581 
L 3781 4041 
L 2266 4041 
L 2266 0 
L 1659 0 
z
" transform="scale(0.015625)"/>
     </defs>
     <use xlink:href="#ArialMT-52"/>
     <use xlink:href="#ArialMT-61" transform="translate(72.216797 0)"/>
     <use xlink:href="#ArialMT-6e" transform="translate(127.832031 0)"/>
     <use xlink:href="#ArialMT-6b" transform="translate(183.447266 0)"/>
     <use xlink:href="#ArialMT-65" transform="translate(233.447266 0)"/>
     <use xlink:href="#ArialMT-64" transform="translate(289.0625 0)"/>
     <use xlink:href="#ArialMT-20" transform="translate(344.677734 0)"/>
     <use xlink:href="#ArialMT-4e" transform="translate(372.460938 0)"/>
     <use xlink:href="#ArialMT-75" transform="translate(444.677734 0)"/>
     <use xlink:href="#ArialMT-6d" transform="translate(500.292969 0)"/>
     <use xlink:href="#ArialMT-62" transform="translate(583.59375 0)"/>
     <use xlink:href="#ArialMT-65" transform="translate(639.208984 0)"/>
     <use xlink:href="#ArialMT-72" transform="translate(694.824219 0)"/>
     <use xlink:href="#ArialMT-20" transform="translate(728.125 0)"/>
     <use xlink:href="#ArialMT-6f" transform="translate(755.908203 0)"/>
     <use xlink:href="#ArialMT-66" transform="translate(811.523438 0)"/>
     <use xlink:href="#ArialMT-20" transform="translate(839.306641 0)"/>
     <use xlink:href="#ArialMT-4e" transform="translate(867.089844 0)"/>
     <use xlink:href="#ArialMT-6f" transform="translate(939.306641 0)"/>
     <use xlink:href="#ArialMT-76" transform="translate(994.921875 0)"/>
     <use xlink:href="#ArialMT-65" transform="translate(1044.921875 0)"/>
     <use xlink:href="#ArialMT-6c" transform="translate(1100.537109 0)"/>
     <use xlink:href="#ArialMT-20" transform="translate(1122.753906 0)"/>
     <use xlink:href="#ArialMT-43" transform="translate(1150.537109 0)"/>
     <use xlink:href="#ArialMT-6f" transform="translate(1222.753906 0)"/>
     <use xlink:href="#ArialMT-6d" transform="translate(1278.369141 0)"/>
     <use xlink:href="#ArialMT-70" transform="translate(1361.669922 0)"/>
     <use xlink:href="#ArialMT-6f" transform="translate(1417.285156 0)"/>
     <use xlink:href="#ArialMT-75" transform="translate(1472.900391 0)"/>
     <use xlink:href="#ArialMT-6e" transform="translate(1528.515625 0)"/>
     <use xlink:href="#ArialMT-64" transform="translate(1584.130859 0)"/>
     <use xlink:href="#ArialMT-73" transform="translate(1639.746094 0)"/>
     <use xlink:href="#ArialMT-20" transform="translate(1689.746094 0)"/>
     <use xlink:href="#ArialMT-70" transform="translate(1717.529297 0)"/>
     <use xlink:href="#ArialMT-65" transform="translate(1773.144531 0)"/>
     <use xlink:href="#ArialMT-72" transform="translate(1828.759766 0)"/>
     <use xlink:href="#ArialMT-20" transform="translate(1862.060547 0)"/>
     <use xlink:href="#ArialMT-46" transform="translate(1889.84375 0)"/>
     <use xlink:href="#ArialMT-6f" transform="translate(1950.927734 0)"/>
     <use xlink:href="#ArialMT-6c" transform="translate(2006.542969 0)"/>
     <use xlink:href="#ArialMT-64" transform="translate(2028.759766 0)"/>
     <use xlink:href="#ArialMT-20" transform="translate(2084.375 0)"/>
     <use xlink:href="#ArialMT-70" transform="translate(2112.158203 0)"/>
     <use xlink:href="#ArialMT-65" transform="translate(2167.773438 0)"/>
     <use xlink:href="#ArialMT-72" transform="translate(2223.388672 0)"/>
     <use xlink:href="#ArialMT-20" transform="translate(2256.689453 0)"/>
     <use xlink:href="#ArialMT-54" transform="translate(2282.722656 0)"/>
     <use xlink:href="#ArialMT-61" transform="translate(2332.681641 0)"/>
     <use xlink:href="#ArialMT-72" transform="translate(2388.296875 0)"/>
     <use xlink:href="#ArialMT-67" transform="translate(2421.597656 0)"/>
     <use xlink:href="#ArialMT-65" transform="translate(2477.212891 0)"/>
     <use xlink:href="#ArialMT-74" transform="translate(2532.828125 0)"/>
    </g>
   </g>
  </g>
 </g>
 <defs>
  <clipPath id="pc17c3bfe4f">
   <rect x="79.566" y="40.416" width="613.351651" height="605.450348"/>
  </clipPath>
 </defs>
</svg>
