<?xml version="1.0" encoding="utf-8" standalone="no"?>
<!DOCTYPE svg PUBLIC "-//W3C//DTD SVG 1.1//EN"
        "http://www.w3.org/Graphics/SVG/1.1/DTD/svg11.dtd">
<svg xmlns:xlink="http://www.w3.org/1999/xlink" width="720pt" height="864pt" viewBox="0 0 720 864"
     xmlns="http://www.w3.org/2000/svg" version="1.1">
    <metadata>
        <rdf:RDF xmlns:dc="http://purl.org/dc/elements/1.1/" xmlns:cc="http://creativecommons.org/ns#"
                 xmlns:rdf="http://www.w3.org/1999/02/22-rdf-syntax-ns#">
            <cc:Work>
                <dc:type rdf:resource="http://purl.org/dc/dcmitype/StillImage"/>
                <dc:date>2025-02-20T03:50:54.819119</dc:date>
                <dc:format>image/svg+xml</dc:format>
                <dc:creator>
                    <cc:Agent>
                        <dc:title>Matplotlib v3.10.0, https://matplotlib.org/</dc:title>
                    </cc:Agent>
                </dc:creator>
            </cc:Work>
        </rdf:RDF>
    </metadata>
    <defs>
        <style type="text/css">*{stroke-linejoin: round; stroke-linecap: butt}</style>
    </defs>
    <g id="figure_1">
        <g id="patch_1">
            <path d="M 0 864
L 720 864 
L 720 0 
L 0 0 
z
" style="fill: #ffffff"/>
        </g>
        <g id="axes_1">
            <g id="patch_2">
                <path d="M 80.04 654.580631
L 698.676378 654.580631 
L 698.676378 38.4 
L 80.04 38.4 
z
" style="fill: #ffffff"/>
            </g>
            <g id="matplotlib.axis_1">
                <g id="xtick_1">
                    <g id="text_1">
                        <!-- RandomSplit -->
                        <g style="fill: #262626"
                           transform="translate(116.636456 742.367284) rotate(-45) scale(0.165 -0.165)">
                            <defs>
                                <path id="ArialMT-52" d="M 503 0
L 503 4581 
L 2534 4581 
Q 3147 4581 3465 4457 
Q 3784 4334 3975 4021 
Q 4166 3709 4166 3331 
Q 4166 2844 3850 2509 
Q 3534 2175 2875 2084 
Q 3116 1969 3241 1856 
Q 3506 1613 3744 1247 
L 4541 0 
L 3778 0 
L 3172 953 
Q 2906 1366 2734 1584 
Q 2563 1803 2427 1890 
Q 2291 1978 2150 2013 
Q 2047 2034 1813 2034 
L 1109 2034 
L 1109 0 
L 503 0 
z
M 1109 2559 
L 2413 2559 
Q 2828 2559 3062 2645 
Q 3297 2731 3419 2920 
Q 3541 3109 3541 3331 
Q 3541 3656 3305 3865 
Q 3069 4075 2559 4075 
L 1109 4075 
L 1109 2559 
z
" transform="scale(0.015625)"/>
                                <path id="ArialMT-61" d="M 2588 409
Q 2275 144 1986 34 
Q 1697 -75 1366 -75 
Q 819 -75 525 192 
Q 231 459 231 875 
Q 231 1119 342 1320 
Q 453 1522 633 1644 
Q 813 1766 1038 1828 
Q 1203 1872 1538 1913 
Q 2219 1994 2541 2106 
Q 2544 2222 2544 2253 
Q 2544 2597 2384 2738 
Q 2169 2928 1744 2928 
Q 1347 2928 1158 2789 
Q 969 2650 878 2297 
L 328 2372 
Q 403 2725 575 2942 
Q 747 3159 1072 3276 
Q 1397 3394 1825 3394 
Q 2250 3394 2515 3294 
Q 2781 3194 2906 3042 
Q 3031 2891 3081 2659 
Q 3109 2516 3109 2141 
L 3109 1391 
Q 3109 606 3145 398 
Q 3181 191 3288 0 
L 2700 0 
Q 2613 175 2588 409 
z
M 2541 1666 
Q 2234 1541 1622 1453 
Q 1275 1403 1131 1340 
Q 988 1278 909 1158 
Q 831 1038 831 891 
Q 831 666 1001 516 
Q 1172 366 1500 366 
Q 1825 366 2078 508 
Q 2331 650 2450 897 
Q 2541 1088 2541 1459 
L 2541 1666 
z
" transform="scale(0.015625)"/>
                                <path id="ArialMT-6e" d="M 422 0
L 422 3319 
L 928 3319 
L 928 2847 
Q 1294 3394 1984 3394 
Q 2284 3394 2536 3286 
Q 2788 3178 2913 3003 
Q 3038 2828 3088 2588 
Q 3119 2431 3119 2041 
L 3119 0 
L 2556 0 
L 2556 2019 
Q 2556 2363 2490 2533 
Q 2425 2703 2258 2804 
Q 2091 2906 1866 2906 
Q 1506 2906 1245 2678 
Q 984 2450 984 1813 
L 984 0 
L 422 0 
z
" transform="scale(0.015625)"/>
                                <path id="ArialMT-64" d="M 2575 0
L 2575 419 
Q 2259 -75 1647 -75 
Q 1250 -75 917 144 
Q 584 363 401 755 
Q 219 1147 219 1656 
Q 219 2153 384 2558 
Q 550 2963 881 3178 
Q 1213 3394 1622 3394 
Q 1922 3394 2156 3267 
Q 2391 3141 2538 2938 
L 2538 4581 
L 3097 4581 
L 3097 0 
L 2575 0 
z
M 797 1656 
Q 797 1019 1065 703 
Q 1334 388 1700 388 
Q 2069 388 2326 689 
Q 2584 991 2584 1609 
Q 2584 2291 2321 2609 
Q 2059 2928 1675 2928 
Q 1300 2928 1048 2622 
Q 797 2316 797 1656 
z
" transform="scale(0.015625)"/>
                                <path id="ArialMT-6f" d="M 213 1659
Q 213 2581 725 3025 
Q 1153 3394 1769 3394 
Q 2453 3394 2887 2945 
Q 3322 2497 3322 1706 
Q 3322 1066 3130 698 
Q 2938 331 2570 128 
Q 2203 -75 1769 -75 
Q 1072 -75 642 372 
Q 213 819 213 1659 
z
M 791 1659 
Q 791 1022 1069 705 
Q 1347 388 1769 388 
Q 2188 388 2466 706 
Q 2744 1025 2744 1678 
Q 2744 2294 2464 2611 
Q 2184 2928 1769 2928 
Q 1347 2928 1069 2612 
Q 791 2297 791 1659 
z
" transform="scale(0.015625)"/>
                                <path id="ArialMT-6d" d="M 422 0
L 422 3319 
L 925 3319 
L 925 2853 
Q 1081 3097 1340 3245 
Q 1600 3394 1931 3394 
Q 2300 3394 2536 3241 
Q 2772 3088 2869 2813 
Q 3263 3394 3894 3394 
Q 4388 3394 4653 3120 
Q 4919 2847 4919 2278 
L 4919 0 
L 4359 0 
L 4359 2091 
Q 4359 2428 4304 2576 
Q 4250 2725 4106 2815 
Q 3963 2906 3769 2906 
Q 3419 2906 3187 2673 
Q 2956 2441 2956 1928 
L 2956 0 
L 2394 0 
L 2394 2156 
Q 2394 2531 2256 2718 
Q 2119 2906 1806 2906 
Q 1569 2906 1367 2781 
Q 1166 2656 1075 2415 
Q 984 2175 984 1722 
L 984 0 
L 422 0 
z
" transform="scale(0.015625)"/>
                                <path id="ArialMT-53" d="M 288 1472
L 859 1522 
Q 900 1178 1048 958 
Q 1197 738 1509 602 
Q 1822 466 2213 466 
Q 2559 466 2825 569 
Q 3091 672 3220 851 
Q 3350 1031 3350 1244 
Q 3350 1459 3225 1620 
Q 3100 1781 2813 1891 
Q 2628 1963 1997 2114 
Q 1366 2266 1113 2400 
Q 784 2572 623 2826 
Q 463 3081 463 3397 
Q 463 3744 659 4045 
Q 856 4347 1234 4503 
Q 1613 4659 2075 4659 
Q 2584 4659 2973 4495 
Q 3363 4331 3572 4012 
Q 3781 3694 3797 3291 
L 3216 3247 
Q 3169 3681 2898 3903 
Q 2628 4125 2100 4125 
Q 1550 4125 1298 3923 
Q 1047 3722 1047 3438 
Q 1047 3191 1225 3031 
Q 1400 2872 2139 2705 
Q 2878 2538 3153 2413 
Q 3553 2228 3743 1945 
Q 3934 1663 3934 1294 
Q 3934 928 3725 604 
Q 3516 281 3123 101 
Q 2731 -78 2241 -78 
Q 1619 -78 1198 103 
Q 778 284 539 648 
Q 300 1013 288 1472 
z
" transform="scale(0.015625)"/>
                                <path id="ArialMT-70" d="M 422 -1272
L 422 3319 
L 934 3319 
L 934 2888 
Q 1116 3141 1344 3267 
Q 1572 3394 1897 3394 
Q 2322 3394 2647 3175 
Q 2972 2956 3137 2557 
Q 3303 2159 3303 1684 
Q 3303 1175 3120 767 
Q 2938 359 2589 142 
Q 2241 -75 1856 -75 
Q 1575 -75 1351 44 
Q 1128 163 984 344 
L 984 -1272 
L 422 -1272 
z
M 931 1641 
Q 931 1000 1190 694 
Q 1450 388 1819 388 
Q 2194 388 2461 705 
Q 2728 1022 2728 1688 
Q 2728 2322 2467 2637 
Q 2206 2953 1844 2953 
Q 1484 2953 1207 2617 
Q 931 2281 931 1641 
z
" transform="scale(0.015625)"/>
                                <path id="ArialMT-6c" d="M 409 0
L 409 4581 
L 972 4581 
L 972 0 
L 409 0 
z
" transform="scale(0.015625)"/>
                                <path id="ArialMT-69" d="M 425 3934
L 425 4581 
L 988 4581 
L 988 3934 
L 425 3934 
z
M 425 0 
L 425 3319 
L 988 3319 
L 988 0 
L 425 0 
z
" transform="scale(0.015625)"/>
                                <path id="ArialMT-74" d="M 1650 503
L 1731 6 
Q 1494 -44 1306 -44 
Q 1000 -44 831 53 
Q 663 150 594 308 
Q 525 466 525 972 
L 525 2881 
L 113 2881 
L 113 3319 
L 525 3319 
L 525 4141 
L 1084 4478 
L 1084 3319 
L 1650 3319 
L 1650 2881 
L 1084 2881 
L 1084 941 
Q 1084 700 1114 631 
Q 1144 563 1211 522 
Q 1278 481 1403 481 
Q 1497 481 1650 503 
z
" transform="scale(0.015625)"/>
                            </defs>
                            <use xlink:href="#ArialMT-52"/>
                            <use xlink:href="#ArialMT-61" transform="translate(72.216797 0)"/>
                            <use xlink:href="#ArialMT-6e" transform="translate(127.832031 0)"/>
                            <use xlink:href="#ArialMT-64" transform="translate(183.447266 0)"/>
                            <use xlink:href="#ArialMT-6f" transform="translate(239.0625 0)"/>
                            <use xlink:href="#ArialMT-6d" transform="translate(294.677734 0)"/>
                            <use xlink:href="#ArialMT-53" transform="translate(377.978516 0)"/>
                            <use xlink:href="#ArialMT-70" transform="translate(444.677734 0)"/>
                            <use xlink:href="#ArialMT-6c" transform="translate(500.292969 0)"/>
                            <use xlink:href="#ArialMT-69" transform="translate(522.509766 0)"/>
                            <use xlink:href="#ArialMT-74" transform="translate(544.726562 0)"/>
                        </g>
                    </g>
                </g>
                <g id="xtick_2">
                    <g id="text_2">
                        <!-- ScaffoldSplit -->
                        <g style="fill: #262626"
                           transform="translate(214.674247 740.221602) rotate(-45) scale(0.165 -0.165)">
                            <defs>
                                <path id="ArialMT-63" d="M 2588 1216
L 3141 1144 
Q 3050 572 2676 248 
Q 2303 -75 1759 -75 
Q 1078 -75 664 370 
Q 250 816 250 1647 
Q 250 2184 428 2587 
Q 606 2991 970 3192 
Q 1334 3394 1763 3394 
Q 2303 3394 2647 3120 
Q 2991 2847 3088 2344 
L 2541 2259 
Q 2463 2594 2264 2762 
Q 2066 2931 1784 2931 
Q 1359 2931 1093 2626 
Q 828 2322 828 1663 
Q 828 994 1084 691 
Q 1341 388 1753 388 
Q 2084 388 2306 591 
Q 2528 794 2588 1216 
z
" transform="scale(0.015625)"/>
                                <path id="ArialMT-66" d="M 556 0
L 556 2881 
L 59 2881 
L 59 3319 
L 556 3319 
L 556 3672 
Q 556 4006 616 4169 
Q 697 4388 901 4523 
Q 1106 4659 1475 4659 
Q 1713 4659 2000 4603 
L 1916 4113 
Q 1741 4144 1584 4144 
Q 1328 4144 1222 4034 
Q 1116 3925 1116 3625 
L 1116 3319 
L 1763 3319 
L 1763 2881 
L 1116 2881 
L 1116 0 
L 556 0 
z
" transform="scale(0.015625)"/>
                            </defs>
                            <use xlink:href="#ArialMT-53"/>
                            <use xlink:href="#ArialMT-63" transform="translate(66.699219 0)"/>
                            <use xlink:href="#ArialMT-61" transform="translate(116.699219 0)"/>
                            <use xlink:href="#ArialMT-66" transform="translate(172.314453 0)"/>
                            <use xlink:href="#ArialMT-66" transform="translate(198.347656 0)"/>
                            <use xlink:href="#ArialMT-6f" transform="translate(226.130859 0)"/>
                            <use xlink:href="#ArialMT-6c" transform="translate(281.746094 0)"/>
                            <use xlink:href="#ArialMT-64" transform="translate(303.962891 0)"/>
                            <use xlink:href="#ArialMT-53" transform="translate(359.578125 0)"/>
                            <use xlink:href="#ArialMT-70" transform="translate(426.277344 0)"/>
                            <use xlink:href="#ArialMT-6c" transform="translate(481.892578 0)"/>
                            <use xlink:href="#ArialMT-69" transform="translate(504.109375 0)"/>
                            <use xlink:href="#ArialMT-74" transform="translate(526.326172 0)"/>
                        </g>
                    </g>
                </g>
                <g id="xtick_3">
                    <g id="text_3">
                        <!-- SortedStepForward_LogD -->
                        <g style="fill: #262626"
                           transform="translate(276.126057 811.111156) rotate(-45) scale(0.165 -0.165)">
                            <defs>
                                <path id="ArialMT-72" d="M 416 0
L 416 3319 
L 922 3319 
L 922 2816 
Q 1116 3169 1280 3281 
Q 1444 3394 1641 3394 
Q 1925 3394 2219 3213 
L 2025 2691 
Q 1819 2813 1613 2813 
Q 1428 2813 1281 2702 
Q 1134 2591 1072 2394 
Q 978 2094 978 1738 
L 978 0 
L 416 0 
z
" transform="scale(0.015625)"/>
                                <path id="ArialMT-65" d="M 2694 1069
L 3275 997 
Q 3138 488 2766 206 
Q 2394 -75 1816 -75 
Q 1088 -75 661 373 
Q 234 822 234 1631 
Q 234 2469 665 2931 
Q 1097 3394 1784 3394 
Q 2450 3394 2872 2941 
Q 3294 2488 3294 1666 
Q 3294 1616 3291 1516 
L 816 1516 
Q 847 969 1125 678 
Q 1403 388 1819 388 
Q 2128 388 2347 550 
Q 2566 713 2694 1069 
z
M 847 1978 
L 2700 1978 
Q 2663 2397 2488 2606 
Q 2219 2931 1791 2931 
Q 1403 2931 1139 2672 
Q 875 2413 847 1978 
z
" transform="scale(0.015625)"/>
                                <path id="ArialMT-46" d="M 525 0
L 525 4581 
L 3616 4581 
L 3616 4041 
L 1131 4041 
L 1131 2622 
L 3281 2622 
L 3281 2081 
L 1131 2081 
L 1131 0 
L 525 0 
z
" transform="scale(0.015625)"/>
                                <path id="ArialMT-77" d="M 1034 0
L 19 3319 
L 600 3319 
L 1128 1403 
L 1325 691 
Q 1338 744 1497 1375 
L 2025 3319 
L 2603 3319 
L 3100 1394 
L 3266 759 
L 3456 1400 
L 4025 3319 
L 4572 3319 
L 3534 0 
L 2950 0 
L 2422 1988 
L 2294 2553 
L 1622 0 
L 1034 0 
z
" transform="scale(0.015625)"/>
                                <path id="ArialMT-5f" d="M -97 -1272
L -97 -866 
L 3631 -866 
L 3631 -1272 
L -97 -1272 
z
" transform="scale(0.015625)"/>
                                <path id="ArialMT-4c" d="M 469 0
L 469 4581 
L 1075 4581 
L 1075 541 
L 3331 541 
L 3331 0 
L 469 0 
z
" transform="scale(0.015625)"/>
                                <path id="ArialMT-67" d="M 319 -275
L 866 -356 
Q 900 -609 1056 -725 
Q 1266 -881 1628 -881 
Q 2019 -881 2231 -725 
Q 2444 -569 2519 -288 
Q 2563 -116 2559 434 
Q 2191 0 1641 0 
Q 956 0 581 494 
Q 206 988 206 1678 
Q 206 2153 378 2554 
Q 550 2956 876 3175 
Q 1203 3394 1644 3394 
Q 2231 3394 2613 2919 
L 2613 3319 
L 3131 3319 
L 3131 450 
Q 3131 -325 2973 -648 
Q 2816 -972 2473 -1159 
Q 2131 -1347 1631 -1347 
Q 1038 -1347 672 -1080 
Q 306 -813 319 -275 
z
M 784 1719 
Q 784 1066 1043 766 
Q 1303 466 1694 466 
Q 2081 466 2343 764 
Q 2606 1063 2606 1700 
Q 2606 2309 2336 2618 
Q 2066 2928 1684 2928 
Q 1309 2928 1046 2623 
Q 784 2319 784 1719 
z
" transform="scale(0.015625)"/>
                                <path id="ArialMT-44" d="M 494 0
L 494 4581 
L 2072 4581 
Q 2606 4581 2888 4516 
Q 3281 4425 3559 4188 
Q 3922 3881 4101 3404 
Q 4281 2928 4281 2316 
Q 4281 1794 4159 1391 
Q 4038 988 3847 723 
Q 3656 459 3429 307 
Q 3203 156 2883 78 
Q 2563 0 2147 0 
L 494 0 
z
M 1100 541 
L 2078 541 
Q 2531 541 2789 625 
Q 3047 709 3200 863 
Q 3416 1078 3536 1442 
Q 3656 1806 3656 2325 
Q 3656 3044 3420 3430 
Q 3184 3816 2847 3947 
Q 2603 4041 2063 4041 
L 1100 4041 
L 1100 541 
z
" transform="scale(0.015625)"/>
                            </defs>
                            <use xlink:href="#ArialMT-53"/>
                            <use xlink:href="#ArialMT-6f" transform="translate(66.699219 0)"/>
                            <use xlink:href="#ArialMT-72" transform="translate(122.314453 0)"/>
                            <use xlink:href="#ArialMT-74" transform="translate(155.615234 0)"/>
                            <use xlink:href="#ArialMT-65" transform="translate(183.398438 0)"/>
                            <use xlink:href="#ArialMT-64" transform="translate(239.013672 0)"/>
                            <use xlink:href="#ArialMT-53" transform="translate(294.628906 0)"/>
                            <use xlink:href="#ArialMT-74" transform="translate(361.328125 0)"/>
                            <use xlink:href="#ArialMT-65" transform="translate(389.111328 0)"/>
                            <use xlink:href="#ArialMT-70" transform="translate(444.726562 0)"/>
                            <use xlink:href="#ArialMT-46" transform="translate(500.341797 0)"/>
                            <use xlink:href="#ArialMT-6f" transform="translate(561.425781 0)"/>
                            <use xlink:href="#ArialMT-72" transform="translate(617.041016 0)"/>
                            <use xlink:href="#ArialMT-77" transform="translate(650.341797 0)"/>
                            <use xlink:href="#ArialMT-61" transform="translate(722.558594 0)"/>
                            <use xlink:href="#ArialMT-72" transform="translate(778.173828 0)"/>
                            <use xlink:href="#ArialMT-64" transform="translate(811.474609 0)"/>
                            <use xlink:href="#ArialMT-5f" transform="translate(867.089844 0)"/>
                            <use xlink:href="#ArialMT-4c" transform="translate(922.705078 0)"/>
                            <use xlink:href="#ArialMT-6f" transform="translate(978.320312 0)"/>
                            <use xlink:href="#ArialMT-67" transform="translate(1033.935547 0)"/>
                            <use xlink:href="#ArialMT-44" transform="translate(1089.550781 0)"/>
                        </g>
                    </g>
                </g>
                <g id="xtick_4">
                    <g id="text_4">
                        <!-- SortedStepForward_LogP -->
                        <g style="fill: #262626"
                           transform="translate(373.412768 810.467633) rotate(-45) scale(0.165 -0.165)">
                            <defs>
                                <path id="ArialMT-50" d="M 494 0
L 494 4581 
L 2222 4581 
Q 2678 4581 2919 4538 
Q 3256 4481 3484 4323 
Q 3713 4166 3852 3881 
Q 3991 3597 3991 3256 
Q 3991 2672 3619 2267 
Q 3247 1863 2275 1863 
L 1100 1863 
L 1100 0 
L 494 0 
z
M 1100 2403 
L 2284 2403 
Q 2872 2403 3119 2622 
Q 3366 2841 3366 3238 
Q 3366 3525 3220 3729 
Q 3075 3934 2838 4000 
Q 2684 4041 2272 4041 
L 1100 4041 
L 1100 2403 
z
" transform="scale(0.015625)"/>
                            </defs>
                            <use xlink:href="#ArialMT-53"/>
                            <use xlink:href="#ArialMT-6f" transform="translate(66.699219 0)"/>
                            <use xlink:href="#ArialMT-72" transform="translate(122.314453 0)"/>
                            <use xlink:href="#ArialMT-74" transform="translate(155.615234 0)"/>
                            <use xlink:href="#ArialMT-65" transform="translate(183.398438 0)"/>
                            <use xlink:href="#ArialMT-64" transform="translate(239.013672 0)"/>
                            <use xlink:href="#ArialMT-53" transform="translate(294.628906 0)"/>
                            <use xlink:href="#ArialMT-74" transform="translate(361.328125 0)"/>
                            <use xlink:href="#ArialMT-65" transform="translate(389.111328 0)"/>
                            <use xlink:href="#ArialMT-70" transform="translate(444.726562 0)"/>
                            <use xlink:href="#ArialMT-46" transform="translate(500.341797 0)"/>
                            <use xlink:href="#ArialMT-6f" transform="translate(561.425781 0)"/>
                            <use xlink:href="#ArialMT-72" transform="translate(617.041016 0)"/>
                            <use xlink:href="#ArialMT-77" transform="translate(650.341797 0)"/>
                            <use xlink:href="#ArialMT-61" transform="translate(722.558594 0)"/>
                            <use xlink:href="#ArialMT-72" transform="translate(778.173828 0)"/>
                            <use xlink:href="#ArialMT-64" transform="translate(811.474609 0)"/>
                            <use xlink:href="#ArialMT-5f" transform="translate(867.089844 0)"/>
                            <use xlink:href="#ArialMT-4c" transform="translate(922.705078 0)"/>
                            <use xlink:href="#ArialMT-6f" transform="translate(978.320312 0)"/>
                            <use xlink:href="#ArialMT-67" transform="translate(1033.935547 0)"/>
                            <use xlink:href="#ArialMT-50" transform="translate(1089.550781 0)"/>
                        </g>
                    </g>
                </g>
                <g id="xtick_5">
                    <g id="text_5">
                        <!-- SortedStepForward_MCE18 -->
                        <g style="fill: #262626"
                           transform="translate(464.617918 822.123957) rotate(-45) scale(0.165 -0.165)">
                            <defs>
                                <path id="ArialMT-4d" d="M 475 0
L 475 4581 
L 1388 4581 
L 2472 1338 
Q 2622 884 2691 659 
Q 2769 909 2934 1394 
L 4031 4581 
L 4847 4581 
L 4847 0 
L 4263 0 
L 4263 3834 
L 2931 0 
L 2384 0 
L 1059 3900 
L 1059 0 
L 475 0 
z
" transform="scale(0.015625)"/>
                                <path id="ArialMT-43" d="M 3763 1606
L 4369 1453 
Q 4178 706 3683 314 
Q 3188 -78 2472 -78 
Q 1731 -78 1267 223 
Q 803 525 561 1097 
Q 319 1669 319 2325 
Q 319 3041 592 3573 
Q 866 4106 1370 4382 
Q 1875 4659 2481 4659 
Q 3169 4659 3637 4309 
Q 4106 3959 4291 3325 
L 3694 3184 
Q 3534 3684 3231 3912 
Q 2928 4141 2469 4141 
Q 1941 4141 1586 3887 
Q 1231 3634 1087 3207 
Q 944 2781 944 2328 
Q 944 1744 1114 1308 
Q 1284 872 1643 656 
Q 2003 441 2422 441 
Q 2931 441 3284 734 
Q 3638 1028 3763 1606 
z
" transform="scale(0.015625)"/>
                                <path id="ArialMT-45" d="M 506 0
L 506 4581 
L 3819 4581 
L 3819 4041 
L 1113 4041 
L 1113 2638 
L 3647 2638 
L 3647 2100 
L 1113 2100 
L 1113 541 
L 3925 541 
L 3925 0 
L 506 0 
z
" transform="scale(0.015625)"/>
                                <path id="ArialMT-31" d="M 2384 0
L 1822 0 
L 1822 3584 
Q 1619 3391 1289 3197 
Q 959 3003 697 2906 
L 697 3450 
Q 1169 3672 1522 3987 
Q 1875 4303 2022 4600 
L 2384 4600 
L 2384 0 
z
" transform="scale(0.015625)"/>
                                <path id="ArialMT-38" d="M 1131 2484
Q 781 2613 612 2850 
Q 444 3088 444 3419 
Q 444 3919 803 4259 
Q 1163 4600 1759 4600 
Q 2359 4600 2725 4251 
Q 3091 3903 3091 3403 
Q 3091 3084 2923 2848 
Q 2756 2613 2416 2484 
Q 2838 2347 3058 2040 
Q 3278 1734 3278 1309 
Q 3278 722 2862 322 
Q 2447 -78 1769 -78 
Q 1091 -78 675 323 
Q 259 725 259 1325 
Q 259 1772 486 2073 
Q 713 2375 1131 2484 
z
M 1019 3438 
Q 1019 3113 1228 2906 
Q 1438 2700 1772 2700 
Q 2097 2700 2305 2904 
Q 2513 3109 2513 3406 
Q 2513 3716 2298 3927 
Q 2084 4138 1766 4138 
Q 1444 4138 1231 3931 
Q 1019 3725 1019 3438 
z
M 838 1322 
Q 838 1081 952 856 
Q 1066 631 1291 507 
Q 1516 384 1775 384 
Q 2178 384 2440 643 
Q 2703 903 2703 1303 
Q 2703 1709 2433 1975 
Q 2163 2241 1756 2241 
Q 1359 2241 1098 1978 
Q 838 1716 838 1322 
z
" transform="scale(0.015625)"/>
                            </defs>
                            <use xlink:href="#ArialMT-53"/>
                            <use xlink:href="#ArialMT-6f" transform="translate(66.699219 0)"/>
                            <use xlink:href="#ArialMT-72" transform="translate(122.314453 0)"/>
                            <use xlink:href="#ArialMT-74" transform="translate(155.615234 0)"/>
                            <use xlink:href="#ArialMT-65" transform="translate(183.398438 0)"/>
                            <use xlink:href="#ArialMT-64" transform="translate(239.013672 0)"/>
                            <use xlink:href="#ArialMT-53" transform="translate(294.628906 0)"/>
                            <use xlink:href="#ArialMT-74" transform="translate(361.328125 0)"/>
                            <use xlink:href="#ArialMT-65" transform="translate(389.111328 0)"/>
                            <use xlink:href="#ArialMT-70" transform="translate(444.726562 0)"/>
                            <use xlink:href="#ArialMT-46" transform="translate(500.341797 0)"/>
                            <use xlink:href="#ArialMT-6f" transform="translate(561.425781 0)"/>
                            <use xlink:href="#ArialMT-72" transform="translate(617.041016 0)"/>
                            <use xlink:href="#ArialMT-77" transform="translate(650.341797 0)"/>
                            <use xlink:href="#ArialMT-61" transform="translate(722.558594 0)"/>
                            <use xlink:href="#ArialMT-72" transform="translate(778.173828 0)"/>
                            <use xlink:href="#ArialMT-64" transform="translate(811.474609 0)"/>
                            <use xlink:href="#ArialMT-5f" transform="translate(867.089844 0)"/>
                            <use xlink:href="#ArialMT-4d" transform="translate(922.705078 0)"/>
                            <use xlink:href="#ArialMT-43" transform="translate(1006.005859 0)"/>
                            <use xlink:href="#ArialMT-45" transform="translate(1078.222656 0)"/>
                            <use xlink:href="#ArialMT-31" transform="translate(1144.921875 0)"/>
                            <use xlink:href="#ArialMT-38" transform="translate(1200.537109 0)"/>
                        </g>
                    </g>
                </g>
                <g id="xtick_6">
                    <g id="text_6">
                        <!-- UnsortedStepForward -->
                        <g style="fill: #262626"
                           transform="translate(577.795804 789.698084) rotate(-45) scale(0.165 -0.165)">
                            <defs>
                                <path id="ArialMT-55" d="M 3500 4581
L 4106 4581 
L 4106 1934 
Q 4106 1244 3950 837 
Q 3794 431 3386 176 
Q 2978 -78 2316 -78 
Q 1672 -78 1262 144 
Q 853 366 678 786 
Q 503 1206 503 1934 
L 503 4581 
L 1109 4581 
L 1109 1938 
Q 1109 1341 1220 1058 
Q 1331 775 1601 622 
Q 1872 469 2263 469 
Q 2931 469 3215 772 
Q 3500 1075 3500 1938 
L 3500 4581 
z
" transform="scale(0.015625)"/>
                                <path id="ArialMT-73" d="M 197 991
L 753 1078 
Q 800 744 1014 566 
Q 1228 388 1613 388 
Q 2000 388 2187 545 
Q 2375 703 2375 916 
Q 2375 1106 2209 1216 
Q 2094 1291 1634 1406 
Q 1016 1563 777 1677 
Q 538 1791 414 1992 
Q 291 2194 291 2438 
Q 291 2659 392 2848 
Q 494 3038 669 3163 
Q 800 3259 1026 3326 
Q 1253 3394 1513 3394 
Q 1903 3394 2198 3281 
Q 2494 3169 2634 2976 
Q 2775 2784 2828 2463 
L 2278 2388 
Q 2241 2644 2061 2787 
Q 1881 2931 1553 2931 
Q 1166 2931 1000 2803 
Q 834 2675 834 2503 
Q 834 2394 903 2306 
Q 972 2216 1119 2156 
Q 1203 2125 1616 2013 
Q 2213 1853 2448 1751 
Q 2684 1650 2818 1456 
Q 2953 1263 2953 975 
Q 2953 694 2789 445 
Q 2625 197 2315 61 
Q 2006 -75 1616 -75 
Q 969 -75 630 194 
Q 291 463 197 991 
z
" transform="scale(0.015625)"/>
                            </defs>
                            <use xlink:href="#ArialMT-55"/>
                            <use xlink:href="#ArialMT-6e" transform="translate(72.216797 0)"/>
                            <use xlink:href="#ArialMT-73" transform="translate(127.832031 0)"/>
                            <use xlink:href="#ArialMT-6f" transform="translate(177.832031 0)"/>
                            <use xlink:href="#ArialMT-72" transform="translate(233.447266 0)"/>
                            <use xlink:href="#ArialMT-74" transform="translate(266.748047 0)"/>
                            <use xlink:href="#ArialMT-65" transform="translate(294.53125 0)"/>
                            <use xlink:href="#ArialMT-64" transform="translate(350.146484 0)"/>
                            <use xlink:href="#ArialMT-53" transform="translate(405.761719 0)"/>
                            <use xlink:href="#ArialMT-74" transform="translate(472.460938 0)"/>
                            <use xlink:href="#ArialMT-65" transform="translate(500.244141 0)"/>
                            <use xlink:href="#ArialMT-70" transform="translate(555.859375 0)"/>
                            <use xlink:href="#ArialMT-46" transform="translate(611.474609 0)"/>
                            <use xlink:href="#ArialMT-6f" transform="translate(672.558594 0)"/>
                            <use xlink:href="#ArialMT-72" transform="translate(728.173828 0)"/>
                            <use xlink:href="#ArialMT-77" transform="translate(761.474609 0)"/>
                            <use xlink:href="#ArialMT-61" transform="translate(833.691406 0)"/>
                            <use xlink:href="#ArialMT-72" transform="translate(889.306641 0)"/>
                            <use xlink:href="#ArialMT-64" transform="translate(922.607422 0)"/>
                        </g>
                    </g>
                </g>
                <g id="text_7">
                    <!-- split_type -->
                    <g style="fill: #262626" transform="translate(351.338814 841.326888) scale(0.18 -0.18)">
                        <defs>
                            <path id="ArialMT-79" d="M 397 -1278
L 334 -750 
Q 519 -800 656 -800 
Q 844 -800 956 -737 
Q 1069 -675 1141 -563 
Q 1194 -478 1313 -144 
Q 1328 -97 1363 -6 
L 103 3319 
L 709 3319 
L 1400 1397 
Q 1534 1031 1641 628 
Q 1738 1016 1872 1384 
L 2581 3319 
L 3144 3319 
L 1881 -56 
Q 1678 -603 1566 -809 
Q 1416 -1088 1222 -1217 
Q 1028 -1347 759 -1347 
Q 597 -1347 397 -1278 
z
" transform="scale(0.015625)"/>
                        </defs>
                        <use xlink:href="#ArialMT-73"/>
                        <use xlink:href="#ArialMT-70" transform="translate(50 0)"/>
                        <use xlink:href="#ArialMT-6c" transform="translate(105.615234 0)"/>
                        <use xlink:href="#ArialMT-69" transform="translate(127.832031 0)"/>
                        <use xlink:href="#ArialMT-74" transform="translate(150.048828 0)"/>
                        <use xlink:href="#ArialMT-5f" transform="translate(177.832031 0)"/>
                        <use xlink:href="#ArialMT-74" transform="translate(233.447266 0)"/>
                        <use xlink:href="#ArialMT-79" transform="translate(261.230469 0)"/>
                        <use xlink:href="#ArialMT-70" transform="translate(311.230469 0)"/>
                        <use xlink:href="#ArialMT-65" transform="translate(366.845703 0)"/>
                    </g>
                </g>
            </g>
            <g id="matplotlib.axis_2">
                <g id="ytick_1">
                    <g id="line2d_1">
                        <path d="M 80.04 615.517899
L 698.676378 615.517899 
" clip-path="url(#p1ad0738bb8)" style="fill: none; stroke: #cccccc; stroke-width: 1.5; stroke-linecap: round"/>
                    </g>
                    <g id="text_8">
                        <!-- 0 -->
                        <g style="fill: #262626" transform="translate(58.364453 621.423094) scale(0.165 -0.165)">
                            <defs>
                                <path id="ArialMT-30" d="M 266 2259
Q 266 3072 433 3567 
Q 600 4063 929 4331 
Q 1259 4600 1759 4600 
Q 2128 4600 2406 4451 
Q 2684 4303 2865 4023 
Q 3047 3744 3150 3342 
Q 3253 2941 3253 2259 
Q 3253 1453 3087 958 
Q 2922 463 2592 192 
Q 2263 -78 1759 -78 
Q 1097 -78 719 397 
Q 266 969 266 2259 
z
M 844 2259 
Q 844 1131 1108 757 
Q 1372 384 1759 384 
Q 2147 384 2411 759 
Q 2675 1134 2675 2259 
Q 2675 3391 2411 3762 
Q 2147 4134 1753 4134 
Q 1366 4134 1134 3806 
Q 844 3388 844 2259 
z
" transform="scale(0.015625)"/>
                            </defs>
                            <use xlink:href="#ArialMT-30"/>
                        </g>
                    </g>
                </g>
                <g id="ytick_2">
                    <g id="line2d_2">
                        <path d="M 80.04 517.304454
L 698.676378 517.304454 
" clip-path="url(#p1ad0738bb8)" style="fill: none; stroke: #cccccc; stroke-width: 1.5; stroke-linecap: round"/>
                    </g>
                    <g id="text_9">
                        <!-- 20 -->
                        <g style="fill: #262626" transform="translate(49.188906 523.20965) scale(0.165 -0.165)">
                            <defs>
                                <path id="ArialMT-32" d="M 3222 541
L 3222 0 
L 194 0 
Q 188 203 259 391 
Q 375 700 629 1000 
Q 884 1300 1366 1694 
Q 2113 2306 2375 2664 
Q 2638 3022 2638 3341 
Q 2638 3675 2398 3904 
Q 2159 4134 1775 4134 
Q 1369 4134 1125 3890 
Q 881 3647 878 3216 
L 300 3275 
Q 359 3922 746 4261 
Q 1134 4600 1788 4600 
Q 2447 4600 2831 4234 
Q 3216 3869 3216 3328 
Q 3216 3053 3103 2787 
Q 2991 2522 2730 2228 
Q 2469 1934 1863 1422 
Q 1356 997 1212 845 
Q 1069 694 975 541 
L 3222 541 
z
" transform="scale(0.015625)"/>
                            </defs>
                            <use xlink:href="#ArialMT-32"/>
                            <use xlink:href="#ArialMT-30" transform="translate(55.615234 0)"/>
                        </g>
                    </g>
                </g>
                <g id="ytick_3">
                    <g id="line2d_3">
                        <path d="M 80.04 419.09101
L 698.676378 419.09101 
" clip-path="url(#p1ad0738bb8)" style="fill: none; stroke: #cccccc; stroke-width: 1.5; stroke-linecap: round"/>
                    </g>
                    <g id="text_10">
                        <!-- 40 -->
                        <g style="fill: #262626" transform="translate(49.188906 424.996206) scale(0.165 -0.165)">
                            <defs>
                                <path id="ArialMT-34" d="M 2069 0
L 2069 1097 
L 81 1097 
L 81 1613 
L 2172 4581 
L 2631 4581 
L 2631 1613 
L 3250 1613 
L 3250 1097 
L 2631 1097 
L 2631 0 
L 2069 0 
z
M 2069 1613 
L 2069 3678 
L 634 1613 
L 2069 1613 
z
" transform="scale(0.015625)"/>
                            </defs>
                            <use xlink:href="#ArialMT-34"/>
                            <use xlink:href="#ArialMT-30" transform="translate(55.615234 0)"/>
                        </g>
                    </g>
                </g>
                <g id="ytick_4">
                    <g id="line2d_4">
                        <path d="M 80.04 320.877566
L 698.676378 320.877566 
" clip-path="url(#p1ad0738bb8)" style="fill: none; stroke: #cccccc; stroke-width: 1.5; stroke-linecap: round"/>
                    </g>
                    <g id="text_11">
                        <!-- 60 -->
                        <g style="fill: #262626" transform="translate(49.188906 326.782761) scale(0.165 -0.165)">
                            <defs>
                                <path id="ArialMT-36" d="M 3184 3459
L 2625 3416 
Q 2550 3747 2413 3897 
Q 2184 4138 1850 4138 
Q 1581 4138 1378 3988 
Q 1113 3794 959 3422 
Q 806 3050 800 2363 
Q 1003 2672 1297 2822 
Q 1591 2972 1913 2972 
Q 2475 2972 2870 2558 
Q 3266 2144 3266 1488 
Q 3266 1056 3080 686 
Q 2894 316 2569 119 
Q 2244 -78 1831 -78 
Q 1128 -78 684 439 
Q 241 956 241 2144 
Q 241 3472 731 4075 
Q 1159 4600 1884 4600 
Q 2425 4600 2770 4297 
Q 3116 3994 3184 3459 
z
M 888 1484 
Q 888 1194 1011 928 
Q 1134 663 1356 523 
Q 1578 384 1822 384 
Q 2178 384 2434 671 
Q 2691 959 2691 1453 
Q 2691 1928 2437 2201 
Q 2184 2475 1800 2475 
Q 1419 2475 1153 2201 
Q 888 1928 888 1484 
z
" transform="scale(0.015625)"/>
                            </defs>
                            <use xlink:href="#ArialMT-36"/>
                            <use xlink:href="#ArialMT-30" transform="translate(55.615234 0)"/>
                        </g>
                    </g>
                </g>
                <g id="ytick_5">
                    <g id="line2d_5">
                        <path d="M 80.04 222.664122
L 698.676378 222.664122 
" clip-path="url(#p1ad0738bb8)" style="fill: none; stroke: #cccccc; stroke-width: 1.5; stroke-linecap: round"/>
                    </g>
                    <g id="text_12">
                        <!-- 80 -->
                        <g style="fill: #262626" transform="translate(49.188906 228.569317) scale(0.165 -0.165)">
                            <use xlink:href="#ArialMT-38"/>
                            <use xlink:href="#ArialMT-30" transform="translate(55.615234 0)"/>
                        </g>
                    </g>
                </g>
                <g id="ytick_6">
                    <g id="line2d_6">
                        <path d="M 80.04 124.450678
L 698.676378 124.450678 
" clip-path="url(#p1ad0738bb8)" style="fill: none; stroke: #cccccc; stroke-width: 1.5; stroke-linecap: round"/>
                    </g>
                    <g id="text_13">
                        <!-- 100 -->
                        <g style="fill: #262626" transform="translate(40.013359 130.355873) scale(0.165 -0.165)">
                            <use xlink:href="#ArialMT-31"/>
                            <use xlink:href="#ArialMT-30" transform="translate(55.615234 0)"/>
                            <use xlink:href="#ArialMT-30" transform="translate(111.230469 0)"/>
                        </g>
                    </g>
                </g>
                <g id="text_14">
                    <!-- number of novel discovery compounds -->
                    <g style="fill: #262626" transform="translate(32.224922 500.560472) rotate(-90) scale(0.18 -0.18)">
                        <defs>
                            <path id="ArialMT-75" d="M 2597 0
L 2597 488 
Q 2209 -75 1544 -75 
Q 1250 -75 995 37 
Q 741 150 617 320 
Q 494 491 444 738 
Q 409 903 409 1263 
L 409 3319 
L 972 3319 
L 972 1478 
Q 972 1038 1006 884 
Q 1059 663 1231 536 
Q 1403 409 1656 409 
Q 1909 409 2131 539 
Q 2353 669 2445 892 
Q 2538 1116 2538 1541 
L 2538 3319 
L 3100 3319 
L 3100 0 
L 2597 0 
z
" transform="scale(0.015625)"/>
                            <path id="ArialMT-62" d="M 941 0
L 419 0 
L 419 4581 
L 981 4581 
L 981 2947 
Q 1338 3394 1891 3394 
Q 2197 3394 2470 3270 
Q 2744 3147 2920 2923 
Q 3097 2700 3197 2384 
Q 3297 2069 3297 1709 
Q 3297 856 2875 390 
Q 2453 -75 1863 -75 
Q 1275 -75 941 416 
L 941 0 
z
M 934 1684 
Q 934 1088 1097 822 
Q 1363 388 1816 388 
Q 2184 388 2453 708 
Q 2722 1028 2722 1663 
Q 2722 2313 2464 2622 
Q 2206 2931 1841 2931 
Q 1472 2931 1203 2611 
Q 934 2291 934 1684 
z
" transform="scale(0.015625)"/>
                            <path id="ArialMT-20" transform="scale(0.015625)"/>
                            <path id="ArialMT-76" d="M 1344 0
L 81 3319 
L 675 3319 
L 1388 1331 
Q 1503 1009 1600 663 
Q 1675 925 1809 1294 
L 2547 3319 
L 3125 3319 
L 1869 0 
L 1344 0 
z
" transform="scale(0.015625)"/>
                        </defs>
                        <use xlink:href="#ArialMT-6e"/>
                        <use xlink:href="#ArialMT-75" transform="translate(55.615234 0)"/>
                        <use xlink:href="#ArialMT-6d" transform="translate(111.230469 0)"/>
                        <use xlink:href="#ArialMT-62" transform="translate(194.53125 0)"/>
                        <use xlink:href="#ArialMT-65" transform="translate(250.146484 0)"/>
                        <use xlink:href="#ArialMT-72" transform="translate(305.761719 0)"/>
                        <use xlink:href="#ArialMT-20" transform="translate(339.0625 0)"/>
                        <use xlink:href="#ArialMT-6f" transform="translate(366.845703 0)"/>
                        <use xlink:href="#ArialMT-66" transform="translate(422.460938 0)"/>
                        <use xlink:href="#ArialMT-20" transform="translate(450.244141 0)"/>
                        <use xlink:href="#ArialMT-6e" transform="translate(478.027344 0)"/>
                        <use xlink:href="#ArialMT-6f" transform="translate(533.642578 0)"/>
                        <use xlink:href="#ArialMT-76" transform="translate(589.257812 0)"/>
                        <use xlink:href="#ArialMT-65" transform="translate(639.257812 0)"/>
                        <use xlink:href="#ArialMT-6c" transform="translate(694.873047 0)"/>
                        <use xlink:href="#ArialMT-20" transform="translate(717.089844 0)"/>
                        <use xlink:href="#ArialMT-64" transform="translate(744.873047 0)"/>
                        <use xlink:href="#ArialMT-69" transform="translate(800.488281 0)"/>
                        <use xlink:href="#ArialMT-73" transform="translate(822.705078 0)"/>
                        <use xlink:href="#ArialMT-63" transform="translate(872.705078 0)"/>
                        <use xlink:href="#ArialMT-6f" transform="translate(922.705078 0)"/>
                        <use xlink:href="#ArialMT-76" transform="translate(978.320312 0)"/>
                        <use xlink:href="#ArialMT-65" transform="translate(1028.320312 0)"/>
                        <use xlink:href="#ArialMT-72" transform="translate(1083.935547 0)"/>
                        <use xlink:href="#ArialMT-79" transform="translate(1117.236328 0)"/>
                        <use xlink:href="#ArialMT-20" transform="translate(1167.236328 0)"/>
                        <use xlink:href="#ArialMT-63" transform="translate(1195.019531 0)"/>
                        <use xlink:href="#ArialMT-6f" transform="translate(1245.019531 0)"/>
                        <use xlink:href="#ArialMT-6d" transform="translate(1300.634766 0)"/>
                        <use xlink:href="#ArialMT-70" transform="translate(1383.935547 0)"/>
                        <use xlink:href="#ArialMT-6f" transform="translate(1439.550781 0)"/>
                        <use xlink:href="#ArialMT-75" transform="translate(1495.166016 0)"/>
                        <use xlink:href="#ArialMT-6e" transform="translate(1550.78125 0)"/>
                        <use xlink:href="#ArialMT-64" transform="translate(1606.396484 0)"/>
                        <use xlink:href="#ArialMT-73" transform="translate(1662.011719 0)"/>
                    </g>
                </g>
            </g>
            <g id="FillBetweenPolyCollection_1">
                <defs>
                    <path id="m6aec199be1" d="M 152.201675 -247.150254
L 141.689955 -247.150254 
L 134.576067 -247.474777 
L 123.987588 -247.799299 
L 113.342949 -248.123822 
L 108.159835 -248.448344 
L 111.641022 -248.772867 
L 121.603105 -249.097389 
L 132.599746 -249.421912 
L 140.541488 -249.746434 
L 144.691135 -250.070957 
L 146.319301 -250.395479 
L 146.804226 -250.720002 
L 146.893608 -251.044524 
L 146.801244 -251.369047 
L 146.393515 -251.693569 
L 145.24608 -252.018092 
L 142.818148 -252.342614 
L 139.040928 -252.667137 
L 135.007382 -252.991659 
L 132.727129 -253.316182 
L 133.591179 -253.640704 
L 137.054247 -253.965227 
L 141.168066 -254.289749 
L 144.284399 -254.614272 
L 145.979025 -254.938794 
L 146.668747 -255.263317 
L 146.882284 -255.587839 
L 146.928416 -255.912362 
L 146.9123 -256.236884 
L 146.816912 -256.561407 
L 146.536762 -256.885929 
L 145.920852 -257.210452 
L 144.920405 -257.534974 
L 143.789515 -257.859497 
L 143.066955 -258.184019 
L 143.186659 -258.508542 
L 144.072805 -258.833064 
L 145.214228 -259.157587 
L 146.122792 -259.482109 
L 146.637324 -259.806632 
L 146.854607 -260.131154 
L 146.924371 -260.455677 
L 146.940649 -260.780199 
L 146.938613 -261.104722 
L 146.918163 -261.429244 
L 146.855361 -261.753767 
L 146.711952 -262.078289 
L 146.468968 -262.402812 
L 146.179058 -262.727334 
L 145.973521 -263.051857 
L 145.973521 -263.376379 
L 146.179058 -263.700902 
L 146.468968 -264.025424 
L 146.711953 -264.349947 
L 146.855366 -264.674469 
L 146.918223 -264.998992 
L 146.939138 -265.323514 
L 146.944268 -265.648037 
L 146.944059 -265.972559 
L 146.939066 -266.297082 
L 146.923056 -266.621604 
L 146.8851 -266.946127 
L 146.818075 -267.270649 
L 146.733872 -267.595172 
L 146.6685 -267.919694 
L 146.65967 -268.244217 
L 146.712973 -268.568739 
L 146.7964 -268.893262 
L 146.870203 -269.217784 
L 146.91564 -269.542307 
L 146.936318 -269.866829 
L 146.943455 -270.191352 
L 146.945329 -270.515874 
L 146.945603 -270.840397 
L 146.945181 -271.164919 
L 146.943632 -271.489442 
L 146.939807 -271.813964 
L 146.932773 -272.138487 
L 146.923487 -272.463009 
L 146.915669 -272.787532 
L 146.913719 -273.112054 
L 146.918866 -273.436577 
L 146.927971 -273.761099 
L 146.936498 -274.085622 
L 146.941978 -274.410144 
L 146.944569 -274.734667 
L 146.945493 -275.059189 
L 146.945731 -275.383712 
L 146.945691 -275.708234 
L 146.945293 -276.032757 
L 146.943939 -276.357279 
L 146.940487 -276.681802 
L 146.93388 -277.006324 
L 146.924731 -277.330847 
L 146.916444 -277.655369 
L 146.913547 -277.979892 
L 146.917859 -278.304414 
L 146.926715 -278.628937 
L 146.935524 -278.953459 
L 146.941443 -279.277982 
L 146.950188 -279.277982 
L 146.950188 -279.277982 
L 146.956106 -278.953459 
L 146.964915 -278.628937 
L 146.973771 -278.304414 
L 146.978083 -277.979892 
L 146.975187 -277.655369 
L 146.966899 -277.330847 
L 146.95775 -277.006324 
L 146.951143 -276.681802 
L 146.947691 -276.357279 
L 146.946337 -276.032757 
L 146.945939 -275.708234 
L 146.945899 -275.383712 
L 146.946137 -275.059189 
L 146.947061 -274.734667 
L 146.949652 -274.410144 
L 146.955133 -274.085622 
L 146.963659 -273.761099 
L 146.972764 -273.436577 
L 146.977912 -273.112054 
L 146.975961 -272.787532 
L 146.968144 -272.463009 
L 146.958858 -272.138487 
L 146.951823 -271.813964 
L 146.947998 -271.489442 
L 146.946449 -271.164919 
L 146.946028 -270.840397 
L 146.946302 -270.515874 
L 146.948176 -270.191352 
L 146.955312 -269.866829 
L 146.97599 -269.542307 
L 147.021427 -269.217784 
L 147.095231 -268.893262 
L 147.178657 -268.568739 
L 147.231961 -268.244217 
L 147.22313 -267.919694 
L 147.157759 -267.595172 
L 147.073555 -267.270649 
L 147.00653 -266.946127 
L 146.968575 -266.621604 
L 146.952564 -266.297082 
L 146.947572 -265.972559 
L 146.947362 -265.648037 
L 146.952492 -265.323514 
L 146.973407 -264.998992 
L 147.036264 -264.674469 
L 147.179678 -264.349947 
L 147.422662 -264.025424 
L 147.712573 -263.700902 
L 147.918109 -263.376379 
L 147.918109 -263.051857 
L 147.712573 -262.727334 
L 147.422662 -262.402812 
L 147.179678 -262.078289 
L 147.03627 -261.753767 
L 146.973467 -261.429244 
L 146.953017 -261.104722 
L 146.950981 -260.780199 
L 146.967259 -260.455677 
L 147.037024 -260.131154 
L 147.254307 -259.806632 
L 147.768839 -259.482109 
L 148.677403 -259.157587 
L 149.818825 -258.833064 
L 150.704972 -258.508542 
L 150.824675 -258.184019 
L 150.102115 -257.859497 
L 148.971225 -257.534974 
L 147.970779 -257.210452 
L 147.354868 -256.885929 
L 147.074719 -256.561407 
L 146.97933 -256.236884 
L 146.963215 -255.912362 
L 147.009346 -255.587839 
L 147.222883 -255.263317 
L 147.912605 -254.938794 
L 149.607232 -254.614272 
L 152.723564 -254.289749 
L 156.837383 -253.965227 
L 160.300452 -253.640704 
L 161.164501 -253.316182 
L 158.884248 -252.991659 
L 154.850702 -252.667137 
L 151.073482 -252.342614 
L 148.64555 -252.018092 
L 147.498116 -251.693569 
L 147.090386 -251.369047 
L 146.998022 -251.044524 
L 147.087405 -250.720002 
L 147.57233 -250.395479 
L 149.200495 -250.070957 
L 153.350142 -249.746434 
L 161.291884 -249.421912 
L 172.288525 -249.097389 
L 182.250609 -248.772867 
L 185.731795 -248.448344 
L 180.548682 -248.123822 
L 169.904043 -247.799299 
L 159.315563 -247.474777 
L 152.201675 -247.150254 
z
" style="stroke: #3d3d3d; stroke-width: 1.875"/>
                </defs>
                <g clip-path="url(#p1ad0738bb8)">
                    <use xlink:href="#m6aec199be1" x="0" y="864"
                         style="fill: #3274a1; stroke: #3d3d3d; stroke-width: 1.875"/>
                </g>
            </g>
            <g id="FillBetweenPolyCollection_2">
                <defs>
                    <path id="m647c289639" d="M 248.417307 -239.779522
L 239.404222 -239.779522 
L 232.054911 -242.187456 
L 220.67446 -244.595389 
L 209.634067 -247.003322 
L 205.124785 -249.411256 
L 209.067355 -251.819189 
L 217.569503 -254.227123 
L 225.680637 -256.635056 
L 231.296372 -259.042989 
L 234.721458 -261.450923 
L 236.827629 -263.858856 
L 238.220992 -266.26679 
L 239.224158 -268.674723 
L 239.994526 -271.082657 
L 240.595441 -273.49059 
L 241.052742 -275.898523 
L 241.399643 -278.306457 
L 241.691307 -280.71439 
L 241.97897 -283.122324 
L 242.261049 -285.530257 
L 242.47564 -287.93819 
L 242.565628 -290.346124 
L 242.544688 -292.754057 
L 242.49485 -295.161991 
L 242.507321 -297.569924 
L 242.610862 -299.977857 
L 242.750894 -302.385791 
L 242.85247 -304.793724 
L 242.89676 -307.201658 
L 242.931403 -309.609591 
L 243.020835 -312.017525 
L 243.181555 -314.425458 
L 243.359568 -316.833391 
L 243.483875 -319.241325 
L 243.531731 -321.649258 
L 243.525738 -324.057192 
L 243.492256 -326.465125 
L 243.448041 -328.873058 
L 243.412617 -331.280992 
L 243.409105 -333.688925 
L 243.448547 -336.096859 
L 243.517206 -338.504792 
L 243.581055 -340.912725 
L 243.611279 -343.320659 
L 243.609205 -345.728592 
L 243.59814 -348.136526 
L 243.593491 -350.544459 
L 243.591141 -352.952393 
L 243.580186 -355.360326 
L 243.558265 -357.768259 
L 243.536559 -360.176193 
L 243.532831 -362.584126 
L 243.558591 -364.99206 
L 243.611566 -367.399993 
L 243.677268 -369.807926 
L 243.736803 -372.21586 
L 243.777003 -374.623793 
L 243.796996 -377.031727 
L 243.807073 -379.43966 
L 243.81848 -381.847594 
L 243.831253 -384.255527 
L 243.836846 -386.66346 
L 243.834218 -389.071394 
L 243.832901 -391.479327 
L 243.836929 -393.887261 
L 243.838977 -396.295194 
L 243.835823 -398.703127 
L 243.836087 -401.111061 
L 243.845785 -403.518994 
L 243.858441 -405.926928 
L 243.866519 -408.334861 
L 243.872342 -410.742794 
L 243.881468 -413.150728 
L 243.893131 -415.558661 
L 243.902239 -417.966595 
L 243.905481 -420.374528 
L 243.902164 -422.782462 
L 243.89316 -425.190395 
L 243.882456 -427.598328 
L 243.877064 -430.006262 
L 243.881205 -432.414195 
L 243.891601 -434.822129 
L 243.901186 -437.230062 
L 243.90541 -439.637995 
L 243.903111 -442.045929 
L 243.894842 -444.453862 
L 243.883959 -446.861796 
L 243.877165 -449.269729 
L 243.879124 -451.677663 
L 243.886105 -454.085596 
L 243.887825 -456.493529 
L 243.876143 -458.901463 
L 243.852805 -461.309396 
L 243.830234 -463.71733 
L 243.822425 -466.125263 
L 243.833421 -468.533196 
L 243.855985 -470.94113 
L 243.879398 -473.349063 
L 243.896472 -475.756997 
L 243.905695 -478.16493 
L 243.915834 -478.16493 
L 243.915834 -478.16493 
L 243.925058 -475.756997 
L 243.942132 -473.349063 
L 243.965545 -470.94113 
L 243.988109 -468.533196 
L 243.999105 -466.125263 
L 243.991296 -463.71733 
L 243.968724 -461.309396 
L 243.945386 -458.901463 
L 243.933705 -456.493529 
L 243.935425 -454.085596 
L 243.942406 -451.677663 
L 243.944365 -449.269729 
L 243.937571 -446.861796 
L 243.926688 -444.453862 
L 243.918419 -442.045929 
L 243.91612 -439.637995 
L 243.920344 -437.230062 
L 243.929929 -434.822129 
L 243.940325 -432.414195 
L 243.944465 -430.006262 
L 243.939073 -427.598328 
L 243.928369 -425.190395 
L 243.919365 -422.782462 
L 243.916048 -420.374528 
L 243.91929 -417.966595 
L 243.928399 -415.558661 
L 243.940062 -413.150728 
L 243.949188 -410.742794 
L 243.955011 -408.334861 
L 243.963088 -405.926928 
L 243.975745 -403.518994 
L 243.985443 -401.111061 
L 243.985706 -398.703127 
L 243.982553 -396.295194 
L 243.984601 -393.887261 
L 243.988628 -391.479327 
L 243.987311 -389.071394 
L 243.984684 -386.66346 
L 243.990277 -384.255527 
L 244.00305 -381.847594 
L 244.014457 -379.43966 
L 244.024534 -377.031727 
L 244.044526 -374.623793 
L 244.084727 -372.21586 
L 244.144262 -369.807926 
L 244.209964 -367.399993 
L 244.262938 -364.99206 
L 244.288699 -362.584126 
L 244.284971 -360.176193 
L 244.263264 -357.768259 
L 244.241344 -355.360326 
L 244.230389 -352.952393 
L 244.228038 -350.544459 
L 244.22339 -348.136526 
L 244.212324 -345.728592 
L 244.210251 -343.320659 
L 244.240475 -340.912725 
L 244.304324 -338.504792 
L 244.372982 -336.096859 
L 244.412424 -333.688925 
L 244.408912 -331.280992 
L 244.373488 -328.873058 
L 244.329274 -326.465125 
L 244.295791 -324.057192 
L 244.289798 -321.649258 
L 244.337654 -319.241325 
L 244.461961 -316.833391 
L 244.639975 -314.425458 
L 244.800695 -312.017525 
L 244.890127 -309.609591 
L 244.92477 -307.201658 
L 244.969059 -304.793724 
L 245.070636 -302.385791 
L 245.210667 -299.977857 
L 245.314209 -297.569924 
L 245.32668 -295.161991 
L 245.276841 -292.754057 
L 245.255901 -290.346124 
L 245.34589 -287.93819 
L 245.560481 -285.530257 
L 245.84256 -283.122324 
L 246.130223 -280.71439 
L 246.421886 -278.306457 
L 246.768788 -275.898523 
L 247.226088 -273.49059 
L 247.827003 -271.082657 
L 248.597372 -268.674723 
L 249.600538 -266.26679 
L 250.993901 -263.858856 
L 253.100072 -261.450923 
L 256.525157 -259.042989 
L 262.140893 -256.635056 
L 270.252026 -254.227123 
L 278.754174 -251.819189 
L 282.696745 -249.411256 
L 278.187462 -247.003322 
L 267.14707 -244.595389 
L 255.766619 -242.187456 
L 248.417307 -239.779522 
z
" style="stroke: #3d3d3d; stroke-width: 1.875"/>
                </defs>
                <g clip-path="url(#p1ad0738bb8)">
                    <use xlink:href="#m647c289639" x="0" y="864"
                         style="fill: #e1812c; stroke: #3d3d3d; stroke-width: 1.875"/>
                </g>
            </g>
            <g id="FillBetweenPolyCollection_3">
                <defs>
                    <path id="md9bdff212b" d="M 345.221796 -241.747855
L 336.529633 -241.747855 
L 328.137482 -243.868011 
L 315.233318 -245.988166 
L 304.412262 -248.108322 
L 302.089735 -250.228477 
L 307.044781 -252.348632 
L 314.143808 -254.468788 
L 320.368264 -256.588943 
L 324.975214 -258.709098 
L 328.147668 -260.829254 
L 330.270528 -262.949409 
L 331.708912 -265.069564 
L 332.781272 -267.18972 
L 333.742982 -269.309875 
L 334.682896 -271.43003 
L 335.545536 -273.550186 
L 336.312936 -275.670341 
L 337.012961 -277.790497 
L 337.660453 -279.910652 
L 338.163257 -282.030807 
L 338.411316 -284.150963 
L 338.468251 -286.271118 
L 338.533704 -288.391273 
L 338.724875 -290.511429 
L 339.008695 -292.631584 
L 339.317232 -294.751739 
L 339.58064 -296.871895 
L 339.755814 -298.99205 
L 339.87918 -301.112205 
L 340.03108 -303.232361 
L 340.227256 -305.352516 
L 340.387611 -307.472672 
L 340.447012 -309.592827 
L 340.421985 -311.712982 
L 340.367077 -313.833138 
L 340.33905 -315.953293 
L 340.388458 -318.073448 
L 340.511492 -320.193604 
L 340.642071 -322.313759 
L 340.729863 -324.433914 
L 340.773557 -326.55407 
L 340.78828 -328.674225 
L 340.781868 -330.79438 
L 340.757766 -332.914536 
L 340.730878 -335.034691 
L 340.729498 -337.154846 
L 340.76184 -339.275002 
L 340.794882 -341.395157 
L 340.793491 -343.515313 
L 340.760733 -345.635468 
L 340.72344 -347.755623 
L 340.704236 -349.875779 
L 340.717382 -351.995934 
L 340.756155 -354.116089 
L 340.783147 -356.236245 
L 340.771309 -358.3564 
L 340.745483 -360.476555 
L 340.751483 -362.596711 
L 340.794059 -364.716866 
L 340.838643 -366.837021 
L 340.860435 -368.957177 
L 340.85901 -371.077332 
L 340.842833 -373.197488 
L 340.822823 -375.317643 
L 340.808786 -377.437798 
L 340.802623 -379.557954 
L 340.800874 -381.678109 
L 340.800647 -383.798264 
L 340.801093 -385.91842 
L 340.803594 -388.038575 
L 340.811248 -390.15873 
L 340.825842 -392.278886 
L 340.840801 -394.399041 
L 340.844402 -396.519196 
L 340.836211 -398.639352 
L 340.830068 -400.759507 
L 340.833421 -402.879663 
L 340.833231 -404.999818 
L 340.814167 -407.119973 
L 340.784658 -409.240129 
L 340.769545 -411.360284 
L 340.779101 -413.480439 
L 340.803794 -415.600595 
L 340.831924 -417.72075 
L 340.855135 -419.840905 
L 340.86869 -421.961061 
L 340.873847 -424.081216 
L 340.874102 -426.201371 
L 340.869875 -428.321527 
L 340.85882 -430.441682 
L 340.842639 -432.561837 
L 340.831844 -434.681993 
L 340.83487 -436.802148 
L 340.843833 -438.922304 
L 340.843926 -441.042459 
L 340.835001 -443.162614 
L 340.831784 -445.28277 
L 340.842403 -447.402925 
L 340.8586 -449.52308 
L 340.869793 -451.643236 
L 340.881636 -451.643236 
L 340.881636 -451.643236 
L 340.892829 -449.52308 
L 340.909026 -447.402925 
L 340.919645 -445.28277 
L 340.916428 -443.162614 
L 340.907502 -441.042459 
L 340.907596 -438.922304 
L 340.916559 -436.802148 
L 340.919585 -434.681993 
L 340.90879 -432.561837 
L 340.892609 -430.441682 
L 340.881554 -428.321527 
L 340.877327 -426.201371 
L 340.877582 -424.081216 
L 340.882739 -421.961061 
L 340.896294 -419.840905 
L 340.919505 -417.72075 
L 340.947634 -415.600595 
L 340.972327 -413.480439 
L 340.981884 -411.360284 
L 340.966771 -409.240129 
L 340.937262 -407.119973 
L 340.918198 -404.999818 
L 340.918008 -402.879663 
L 340.92136 -400.759507 
L 340.915217 -398.639352 
L 340.907027 -396.519196 
L 340.910628 -394.399041 
L 340.925587 -392.278886 
L 340.940181 -390.15873 
L 340.947835 -388.038575 
L 340.950336 -385.91842 
L 340.950782 -383.798264 
L 340.950554 -381.678109 
L 340.948806 -379.557954 
L 340.942643 -377.437798 
L 340.928605 -375.317643 
L 340.908596 -373.197488 
L 340.892418 -371.077332 
L 340.890994 -368.957177 
L 340.912785 -366.837021 
L 340.957369 -364.716866 
L 340.999946 -362.596711 
L 341.005946 -360.476555 
L 340.98012 -358.3564 
L 340.968282 -356.236245 
L 340.995274 -354.116089 
L 341.034047 -351.995934 
L 341.047193 -349.875779 
L 341.027989 -347.755623 
L 340.990696 -345.635468 
L 340.957938 -343.515313 
L 340.956546 -341.395157 
L 340.989589 -339.275002 
L 341.021931 -337.154846 
L 341.020551 -335.034691 
L 340.993663 -332.914536 
L 340.969561 -330.79438 
L 340.963148 -328.674225 
L 340.977871 -326.55407 
L 341.021566 -324.433914 
L 341.109358 -322.313759 
L 341.239936 -320.193604 
L 341.362971 -318.073448 
L 341.412379 -315.953293 
L 341.384352 -313.833138 
L 341.329443 -311.712982 
L 341.304417 -309.592827 
L 341.363818 -307.472672 
L 341.524173 -305.352516 
L 341.720349 -303.232361 
L 341.872249 -301.112205 
L 341.995615 -298.99205 
L 342.170789 -296.871895 
L 342.434197 -294.751739 
L 342.742734 -292.631584 
L 343.026554 -290.511429 
L 343.217724 -288.391273 
L 343.283178 -286.271118 
L 343.340113 -284.150963 
L 343.588172 -282.030807 
L 344.090976 -279.910652 
L 344.738468 -277.790497 
L 345.438493 -275.670341 
L 346.205893 -273.550186 
L 347.068533 -271.43003 
L 348.008447 -269.309875 
L 348.970157 -267.18972 
L 350.042517 -265.069564 
L 351.480901 -262.949409 
L 353.603761 -260.829254 
L 356.776215 -258.709098 
L 361.383165 -256.588943 
L 367.607621 -254.468788 
L 374.706648 -252.348632 
L 379.661694 -250.228477 
L 377.339167 -248.108322 
L 366.518111 -245.988166 
L 353.613947 -243.868011 
L 345.221796 -241.747855 
z
" style="stroke: #3d3d3d; stroke-width: 1.875"/>
                </defs>
                <g clip-path="url(#p1ad0738bb8)">
                    <use xlink:href="#md9bdff212b" x="0" y="864"
                         style="fill: #3a923a; stroke: #3d3d3d; stroke-width: 1.875"/>
                </g>
            </g>
            <g id="FillBetweenPolyCollection_4">
                <defs>
                    <path id="m460cf9f78e" d="M 441.965505 -241.202417
L 433.715823 -241.202417 
L 426.657476 -243.283989 
L 415.552951 -245.36556 
L 404.520531 -247.447132 
L 399.054684 -249.528704 
L 400.554037 -251.610275 
L 405.993337 -253.691847 
L 412.022981 -255.773418 
L 417.090803 -257.85499 
L 420.93229 -259.936561 
L 423.727238 -262.018133 
L 425.739138 -264.099704 
L 427.282886 -266.181276 
L 428.672041 -268.262848 
L 430.030782 -270.344419 
L 431.190533 -272.425991 
L 431.956694 -274.507562 
L 432.421761 -276.589134 
L 432.86879 -278.670705 
L 433.426012 -280.752277 
L 433.970605 -282.833848 
L 434.365678 -284.91542 
L 434.632441 -286.996992 
L 434.884111 -289.078563 
L 435.196743 -291.160135 
L 435.57642 -293.241706 
L 435.975254 -295.323278 
L 436.308169 -297.404849 
L 436.516996 -299.486421 
L 436.618139 -301.567993 
L 436.669342 -303.649564 
L 436.714414 -305.731136 
L 436.765819 -307.812707 
L 436.806266 -309.894279 
L 436.799861 -311.97585 
L 436.738234 -314.057422 
L 436.679679 -316.138993 
L 436.707182 -318.220565 
L 436.838954 -320.302137 
L 437.018488 -322.383708 
L 437.183653 -324.46528 
L 437.305715 -326.546851 
L 437.387635 -328.628423 
L 437.456216 -330.709994 
L 437.540843 -332.791566 
L 437.640866 -334.873137 
L 437.722883 -336.954709 
L 437.759593 -339.036281 
L 437.755306 -341.117852 
L 437.731063 -343.199424 
L 437.704372 -345.280995 
L 437.684712 -347.362567 
L 437.67429 -349.444138 
L 437.670297 -351.52571 
L 437.669144 -353.607281 
L 437.6684 -355.688853 
L 437.666208 -357.770425 
L 437.660253 -359.851996 
L 437.650321 -361.933568 
L 437.644501 -364.015139 
L 437.658869 -366.096711 
L 437.701602 -368.178282 
L 437.75816 -370.259854 
L 437.804058 -372.341426 
L 437.828744 -374.422997 
L 437.837824 -376.504569 
L 437.840028 -378.58614 
L 437.839702 -380.667712 
L 437.8368 -382.749283 
L 437.828619 -384.830855 
L 437.812873 -386.912426 
L 437.792045 -388.993998 
L 437.773258 -391.07557 
L 437.761769 -393.157141 
L 437.757462 -395.238713 
L 437.758621 -397.320284 
L 437.765606 -399.401856 
L 437.779057 -401.483427 
L 437.794431 -403.564999 
L 437.802272 -405.64657 
L 437.798916 -407.728142 
L 437.793311 -409.809714 
L 437.797152 -411.891285 
L 437.811035 -413.972857 
L 437.82603 -416.054428 
L 437.835446 -418.136 
L 437.839322 -420.217571 
L 437.840414 -422.299143 
L 437.840617 -424.380714 
L 437.840523 -426.462286 
L 437.839684 -428.543858 
L 437.835631 -430.625429 
L 437.822027 -432.707001 
L 437.790904 -434.788572 
L 437.744868 -436.870144 
L 437.707685 -438.951715 
L 437.707563 -441.033287 
L 437.744605 -443.114859 
L 437.790676 -445.19643 
L 437.821908 -447.278002 
L 437.85942 -447.278002 
L 437.85942 -447.278002 
L 437.890652 -445.19643 
L 437.936723 -443.114859 
L 437.973765 -441.033287 
L 437.973643 -438.951715 
L 437.93646 -436.870144 
L 437.890424 -434.788572 
L 437.859301 -432.707001 
L 437.845697 -430.625429 
L 437.841644 -428.543858 
L 437.840805 -426.462286 
L 437.840711 -424.380714 
L 437.840914 -422.299143 
L 437.842006 -420.217571 
L 437.845882 -418.136 
L 437.855298 -416.054428 
L 437.870293 -413.972857 
L 437.884176 -411.891285 
L 437.888017 -409.809714 
L 437.882412 -407.728142 
L 437.879056 -405.64657 
L 437.886898 -403.564999 
L 437.902271 -401.483427 
L 437.915722 -399.401856 
L 437.922707 -397.320284 
L 437.923866 -395.238713 
L 437.919559 -393.157141 
L 437.90807 -391.07557 
L 437.889283 -388.993998 
L 437.868455 -386.912426 
L 437.852709 -384.830855 
L 437.844528 -382.749283 
L 437.841626 -380.667712 
L 437.8413 -378.58614 
L 437.843504 -376.504569 
L 437.852584 -374.422997 
L 437.87727 -372.341426 
L 437.923168 -370.259854 
L 437.979726 -368.178282 
L 438.022459 -366.096711 
L 438.036827 -364.015139 
L 438.031007 -361.933568 
L 438.021075 -359.851996 
L 438.01512 -357.770425 
L 438.012928 -355.688853 
L 438.012184 -353.607281 
L 438.011031 -351.52571 
L 438.007038 -349.444138 
L 437.996616 -347.362567 
L 437.976956 -345.280995 
L 437.950265 -343.199424 
L 437.926022 -341.117852 
L 437.921735 -339.036281 
L 437.958445 -336.954709 
L 438.040462 -334.873137 
L 438.140485 -332.791566 
L 438.225112 -330.709994 
L 438.293693 -328.628423 
L 438.375614 -326.546851 
L 438.497675 -324.46528 
L 438.66284 -322.383708 
L 438.842374 -320.302137 
L 438.974146 -318.220565 
L 439.001649 -316.138993 
L 438.943094 -314.057422 
L 438.881467 -311.97585 
L 438.875063 -309.894279 
L 438.915509 -307.812707 
L 438.966914 -305.731136 
L 439.011986 -303.649564 
L 439.063189 -301.567993 
L 439.164332 -299.486421 
L 439.373159 -297.404849 
L 439.706074 -295.323278 
L 440.104908 -293.241706 
L 440.484585 -291.160135 
L 440.797217 -289.078563 
L 441.048887 -286.996992 
L 441.31565 -284.91542 
L 441.710723 -282.833848 
L 442.255316 -280.752277 
L 442.812538 -278.670705 
L 443.259567 -276.589134 
L 443.724634 -274.507562 
L 444.490795 -272.425991 
L 445.650546 -270.344419 
L 447.009287 -268.262848 
L 448.398442 -266.181276 
L 449.942191 -264.099704 
L 451.95409 -262.018133 
L 454.749038 -259.936561 
L 458.590525 -257.85499 
L 463.658347 -255.773418 
L 469.687991 -253.691847 
L 475.127291 -251.610275 
L 476.626644 -249.528704 
L 471.160797 -247.447132 
L 460.128377 -245.36556 
L 449.023852 -243.283989 
L 441.965505 -241.202417 
z
" style="stroke: #3d3d3d; stroke-width: 1.875"/>
                </defs>
                <g clip-path="url(#p1ad0738bb8)">
                    <use xlink:href="#m460cf9f78e" x="0" y="864"
                         style="fill: #c03d3e; stroke: #3d3d3d; stroke-width: 1.875"/>
                </g>
            </g>
            <g id="FillBetweenPolyCollection_5">
                <defs>
                    <path id="m9cb787b3ee" d="M 538.835175 -233.95249
L 530.776052 -233.95249 
L 521.715229 -238.908676 
L 507.212545 -243.864862 
L 496.019634 -248.821048 
L 496.471813 -253.777234 
L 505.448906 -258.73342 
L 514.610895 -263.689605 
L 520.303957 -268.645791 
L 523.218201 -273.601977 
L 524.846428 -278.558163 
L 526.105855 -283.514349 
L 527.272384 -288.470535 
L 528.197138 -293.426721 
L 528.785188 -298.382907 
L 529.292663 -303.339093 
L 529.90149 -308.295279 
L 530.424177 -313.251465 
L 530.744098 -318.207651 
L 531.09398 -323.163837 
L 531.591189 -328.120023 
L 532.033502 -333.076209 
L 532.296441 -338.032395 
L 532.465873 -342.988581 
L 532.62378 -347.944767 
L 532.725092 -352.900953 
L 532.726671 -357.857139 
L 532.738672 -362.813325 
L 532.894333 -367.769511 
L 533.158322 -372.725697 
L 533.403468 -377.681883 
L 533.586794 -382.638069 
L 533.753048 -387.594255 
L 533.943018 -392.550441 
L 534.148193 -397.506627 
L 534.319572 -402.462813 
L 534.423888 -407.418999 
L 534.487826 -412.375185 
L 534.554836 -417.331371 
L 534.624034 -422.287557 
L 534.673073 -427.243742 
L 534.694074 -432.199928 
L 534.678413 -437.156114 
L 534.634116 -442.1123 
L 534.609515 -447.068486 
L 534.635882 -452.024672 
L 534.683619 -456.980858 
L 534.708129 -461.937044 
L 534.70827 -466.89323 
L 534.719179 -471.849416 
L 534.752487 -476.805602 
L 534.784637 -481.761788 
L 534.800383 -486.717974 
L 534.804745 -491.67416 
L 534.805027 -496.630346 
L 534.802286 -501.586532 
L 534.791572 -506.542718 
L 534.767033 -511.498904 
L 534.736077 -516.45509 
L 534.722848 -521.411276 
L 534.740366 -526.367462 
L 534.771206 -531.323648 
L 534.790917 -536.279834 
L 534.791091 -541.23602 
L 534.776767 -546.192206 
L 534.763032 -551.148392 
L 534.765705 -556.104578 
L 534.782113 -561.060764 
L 534.796925 -566.01695 
L 534.803596 -570.973136 
L 534.80532 -575.929322 
L 534.805587 -580.885508 
L 534.805612 -585.841694 
L 534.805614 -590.797879 
L 534.805614 -595.754065 
L 534.805614 -600.710251 
L 534.805614 -605.666437 
L 534.805614 -610.622623 
L 534.805613 -615.578809 
L 534.805608 -620.534995 
L 534.805528 -625.491181 
L 534.804859 -630.447367 
L 534.801435 -635.403553 
L 534.791077 -640.359739 
L 534.773862 -645.315925 
L 534.76207 -650.272111 
L 534.76812 -655.228297 
L 534.785343 -660.184483 
L 534.798733 -665.140669 
L 534.804147 -670.096855 
L 534.805417 -675.053041 
L 534.805589 -680.009227 
L 534.805502 -684.965413 
L 534.804682 -689.921599 
L 534.800709 -694.877785 
L 534.789404 -699.833971 
L 534.771979 -704.790157 
L 534.761793 -709.746343 
L 534.769768 -714.702529 
L 534.787203 -719.658715 
L 534.799677 -724.614901 
L 534.811551 -724.614901 
L 534.811551 -724.614901 
L 534.824024 -719.658715 
L 534.841459 -714.702529 
L 534.849434 -709.746343 
L 534.839248 -704.790157 
L 534.821823 -699.833971 
L 534.810518 -694.877785 
L 534.806545 -689.921599 
L 534.805726 -684.965413 
L 534.805638 -680.009227 
L 534.80581 -675.053041 
L 534.80708 -670.096855 
L 534.812494 -665.140669 
L 534.825884 -660.184483 
L 534.843107 -655.228297 
L 534.849158 -650.272111 
L 534.837365 -645.315925 
L 534.820151 -640.359739 
L 534.809792 -635.403553 
L 534.806368 -630.447367 
L 534.805699 -625.491181 
L 534.80562 -620.534995 
L 534.805614 -615.578809 
L 534.805614 -610.622623 
L 534.805614 -605.666437 
L 534.805614 -600.710251 
L 534.805614 -595.754065 
L 534.805614 -590.797879 
L 534.805615 -585.841694 
L 534.805641 -580.885508 
L 534.805908 -575.929322 
L 534.807631 -570.973136 
L 534.814303 -566.01695 
L 534.829114 -561.060764 
L 534.845522 -556.104578 
L 534.848195 -551.148392 
L 534.83446 -546.192206 
L 534.820136 -541.23602 
L 534.820311 -536.279834 
L 534.840022 -531.323648 
L 534.870861 -526.367462 
L 534.888379 -521.411276 
L 534.87515 -516.45509 
L 534.844195 -511.498904 
L 534.819655 -506.542718 
L 534.808941 -501.586532 
L 534.806201 -496.630346 
L 534.806482 -491.67416 
L 534.810845 -486.717974 
L 534.82659 -481.761788 
L 534.85874 -476.805602 
L 534.892049 -471.849416 
L 534.902957 -466.89323 
L 534.903099 -461.937044 
L 534.927608 -456.980858 
L 534.975345 -452.024672 
L 535.001712 -447.068486 
L 534.977111 -442.1123 
L 534.932814 -437.156114 
L 534.917153 -432.199928 
L 534.938154 -427.243742 
L 534.987194 -422.287557 
L 535.056392 -417.331371 
L 535.123401 -412.375185 
L 535.187339 -407.418999 
L 535.291655 -402.462813 
L 535.463034 -397.506627 
L 535.668209 -392.550441 
L 535.858179 -387.594255 
L 536.024433 -382.638069 
L 536.207759 -377.681883 
L 536.452905 -372.725697 
L 536.716894 -367.769511 
L 536.872555 -362.813325 
L 536.884556 -357.857139 
L 536.886136 -352.900953 
L 536.987447 -347.944767 
L 537.145354 -342.988581 
L 537.314786 -338.032395 
L 537.577725 -333.076209 
L 538.020038 -328.120023 
L 538.517247 -323.163837 
L 538.867129 -318.207651 
L 539.187051 -313.251465 
L 539.709737 -308.295279 
L 540.318564 -303.339093 
L 540.82604 -298.382907 
L 541.414089 -293.426721 
L 542.338844 -288.470535 
L 543.505372 -283.514349 
L 544.764799 -278.558163 
L 546.393026 -273.601977 
L 549.30727 -268.645791 
L 555.000332 -263.689605 
L 564.162321 -258.73342 
L 573.139414 -253.777234 
L 573.591593 -248.821048 
L 562.398682 -243.864862 
L 547.895998 -238.908676 
L 538.835175 -233.95249 
z
" style="stroke: #3d3d3d; stroke-width: 1.875"/>
                </defs>
                <g clip-path="url(#p1ad0738bb8)">
                    <use xlink:href="#m9cb787b3ee" x="0" y="864"
                         style="fill: #9372b2; stroke: #3d3d3d; stroke-width: 1.875"/>
                </g>
            </g>
            <g id="FillBetweenPolyCollection_6">
                <defs>
                    <path id="m53e4857b0b" d="M 636.925588 -244.361094
L 626.615539 -244.361094 
L 616.605674 -245.684416 
L 602.153801 -247.007737 
L 592.984583 -248.331059 
L 596.202785 -249.65438 
L 605.186876 -250.977701 
L 610.532351 -252.301023 
L 613.212619 -253.624344 
L 617.331913 -254.947666 
L 621.405767 -256.270987 
L 623.306037 -257.594308 
L 624.475206 -258.91763 
L 626.037955 -260.240951 
L 627.036979 -261.564273 
L 627.317394 -262.887594 
L 627.903124 -264.210915 
L 628.814312 -265.534237 
L 629.320662 -266.857558 
L 629.531931 -268.18088 
L 629.942399 -269.504201 
L 630.3992 -270.827522 
L 630.602798 -272.150844 
L 630.711552 -273.474165 
L 630.883438 -274.797487 
L 630.978115 -276.120808 
L 630.956528 -277.44413 
L 630.964177 -278.767451 
L 630.971313 -280.090772 
L 630.856272 -281.414094 
L 630.765479 -282.737415 
L 630.910349 -284.060737 
L 631.18251 -285.384058 
L 631.361726 -286.707379 
L 631.444339 -288.030701 
L 631.516099 -289.354022 
L 631.568992 -290.677344 
L 631.581889 -292.000665 
L 631.585567 -293.323986 
L 631.584362 -294.647308 
L 631.552147 -295.970629 
L 631.518999 -297.293951 
L 631.539441 -298.617272 
L 631.592361 -299.940593 
L 631.623213 -301.263915 
L 631.637512 -302.587236 
L 631.66562 -303.910558 
L 631.698264 -305.233879 
L 631.713464 -306.557201 
L 631.70897 -307.880522 
L 631.680215 -309.203843 
L 631.62236 -310.527165 
L 631.569645 -311.850486 
L 631.566374 -313.173808 
L 631.592423 -314.497129 
L 631.599406 -315.82045 
L 631.600452 -317.143772 
L 631.636634 -318.467093 
L 631.697195 -319.790415 
L 631.741986 -321.113736 
L 631.754472 -322.437057 
L 631.736535 -323.760379 
L 631.695319 -325.0837 
L 631.655996 -326.407022 
L 631.649087 -327.730343 
L 631.66777 -329.053664 
L 631.679848 -330.376986 
L 631.683155 -331.700307 
L 631.699784 -333.023629 
L 631.729936 -334.34695 
L 631.754446 -335.670271 
L 631.763923 -336.993593 
L 631.76033 -338.316914 
L 631.747575 -339.640236 
L 631.734183 -340.963557 
L 631.73233 -342.286879 
L 631.74392 -343.6102 
L 631.757894 -344.933521 
L 631.764118 -346.256843 
L 631.758133 -347.580164 
L 631.737141 -348.903486 
L 631.707602 -350.226807 
L 631.691827 -351.550128 
L 631.705371 -352.87345 
L 631.734828 -354.196771 
L 631.757596 -355.520093 
L 631.767447 -356.843414 
L 631.770053 -358.166735 
L 631.770354 -359.490057 
L 631.769478 -360.813378 
L 631.765636 -362.1367 
L 631.755686 -363.460021 
L 631.740653 -364.783342 
L 631.72968 -366.106664 
L 631.729269 -367.429985 
L 631.731835 -368.753307 
L 631.729471 -370.076628 
L 631.72936 -371.399949 
L 631.739752 -372.723271 
L 631.75486 -374.046592 
L 631.765231 -375.369914 
L 631.775896 -375.369914 
L 631.775896 -375.369914 
L 631.786266 -374.046592 
L 631.801374 -372.723271 
L 631.811767 -371.399949 
L 631.811656 -370.076628 
L 631.809291 -368.753307 
L 631.811857 -367.429985 
L 631.811447 -366.106664 
L 631.800474 -364.783342 
L 631.78544 -363.460021 
L 631.775491 -362.1367 
L 631.771649 -360.813378 
L 631.770773 -359.490057 
L 631.771074 -358.166735 
L 631.773679 -356.843414 
L 631.783531 -355.520093 
L 631.806298 -354.196771 
L 631.835756 -352.87345 
L 631.849299 -351.550128 
L 631.833524 -350.226807 
L 631.803986 -348.903486 
L 631.782994 -347.580164 
L 631.777008 -346.256843 
L 631.783232 -344.933521 
L 631.797206 -343.6102 
L 631.808797 -342.286879 
L 631.806944 -340.963557 
L 631.793551 -339.640236 
L 631.780796 -338.316914 
L 631.777204 -336.993593 
L 631.786681 -335.670271 
L 631.811191 -334.34695 
L 631.841343 -333.023629 
L 631.857972 -331.700307 
L 631.861279 -330.376986 
L 631.873356 -329.053664 
L 631.892039 -327.730343 
L 631.88513 -326.407022 
L 631.845807 -325.0837 
L 631.804592 -323.760379 
L 631.786654 -322.437057 
L 631.79914 -321.113736 
L 631.843931 -319.790415 
L 631.904492 -318.467093 
L 631.940674 -317.143772 
L 631.94172 -315.82045 
L 631.948704 -314.497129 
L 631.974752 -313.173808 
L 631.971482 -311.850486 
L 631.918767 -310.527165 
L 631.860911 -309.203843 
L 631.832156 -307.880522 
L 631.827662 -306.557201 
L 631.842862 -305.233879 
L 631.875506 -303.910558 
L 631.903615 -302.587236 
L 631.917913 -301.263915 
L 631.948766 -299.940593 
L 632.001685 -298.617272 
L 632.022128 -297.293951 
L 631.988979 -295.970629 
L 631.956764 -294.647308 
L 631.955559 -293.323986 
L 631.959238 -292.000665 
L 631.972135 -290.677344 
L 632.025028 -289.354022 
L 632.096787 -288.030701 
L 632.1794 -286.707379 
L 632.358616 -285.384058 
L 632.630777 -284.060737 
L 632.775647 -282.737415 
L 632.684855 -281.414094 
L 632.569814 -280.090772 
L 632.576949 -278.767451 
L 632.584598 -277.44413 
L 632.563012 -276.120808 
L 632.657688 -274.797487 
L 632.829574 -273.474165 
L 632.938329 -272.150844 
L 633.141927 -270.827522 
L 633.598727 -269.504201 
L 634.009195 -268.18088 
L 634.220465 -266.857558 
L 634.726815 -265.534237 
L 635.638002 -264.210915 
L 636.223732 -262.887594 
L 636.504147 -261.564273 
L 637.503172 -260.240951 
L 639.065921 -258.91763 
L 640.23509 -257.594308 
L 642.13536 -256.270987 
L 646.209214 -254.947666 
L 650.328507 -253.624344 
L 653.008776 -252.301023 
L 658.35425 -250.977701 
L 667.338341 -249.65438 
L 670.556543 -248.331059 
L 661.387325 -247.007737 
L 646.935452 -245.684416 
L 636.925588 -244.361094 
z
" style="stroke: #3d3d3d; stroke-width: 1.875"/>
                </defs>
                <g clip-path="url(#p1ad0738bb8)">
                    <use xlink:href="#m53e4857b0b" x="0" y="864"
                         style="fill: #845b53; stroke: #3d3d3d; stroke-width: 1.875"/>
                </g>
            </g>
            <g id="line2d_7">
                <path d="M 146.945815 615.517899
L 146.945815 605.696554 
" clip-path="url(#p1ad0738bb8)" style="fill: none; stroke: #3d3d3d; stroke-width: 2.8125; stroke-linecap: round"/>
            </g>
            <g id="line2d_8">
                <path d="M 146.945815 615.517899
L 146.945815 610.607226 
" clip-path="url(#p1ad0738bb8)" style="fill: none; stroke: #3d3d3d; stroke-width: 8.4375; stroke-linecap: round"/>
            </g>
            <g id="line2d_9">
                <path d="M 146.945815 615.517899
" clip-path="url(#p1ad0738bb8)" style="fill: none; stroke: #3d3d3d; stroke-width: 2.25; stroke-linecap: round"/>
                <defs>
                    <path id="m9fe96c1a7a" d="M 3.515625 0
L -3.515625 -0 
" style="stroke: #ffffff; stroke-width: 1.6875"/>
                </defs>
                <g clip-path="url(#p1ad0738bb8)">
                    <use xlink:href="#m9fe96c1a7a" x="146.945815" y="615.517899"
                         style="fill: #ffffff; stroke: #ffffff; stroke-width: 1.6875"/>
                </g>
            </g>
            <g id="line2d_10">
                <path d="M 243.910765 615.517899
L 243.910765 590.964538 
" clip-path="url(#p1ad0738bb8)" style="fill: none; stroke: #3d3d3d; stroke-width: 2.8125; stroke-linecap: round"/>
            </g>
            <g id="line2d_11">
                <path d="M 243.910765 615.517899
L 243.910765 605.696554 
" clip-path="url(#p1ad0738bb8)" style="fill: none; stroke: #3d3d3d; stroke-width: 8.4375; stroke-linecap: round"/>
            </g>
            <g id="line2d_12">
                <path d="M 243.910765 615.517899
" clip-path="url(#p1ad0738bb8)" style="fill: none; stroke: #3d3d3d; stroke-width: 2.25; stroke-linecap: round"/>
                <g clip-path="url(#p1ad0738bb8)">
                    <use xlink:href="#m9fe96c1a7a" x="243.910765" y="615.517899"
                         style="fill: #ffffff; stroke: #ffffff; stroke-width: 1.6875"/>
                </g>
            </g>
            <g id="line2d_13">
                <path d="M 340.875714 615.517899
L 340.875714 581.143193 
" clip-path="url(#p1ad0738bb8)" style="fill: none; stroke: #3d3d3d; stroke-width: 2.8125; stroke-linecap: round"/>
            </g>
            <g id="line2d_14">
                <path d="M 340.875714 615.517899
L 340.875714 600.785882 
" clip-path="url(#p1ad0738bb8)" style="fill: none; stroke: #3d3d3d; stroke-width: 8.4375; stroke-linecap: round"/>
            </g>
            <g id="line2d_15">
                <path d="M 340.875714 610.607226
" clip-path="url(#p1ad0738bb8)" style="fill: none; stroke: #3d3d3d; stroke-width: 2.25; stroke-linecap: round"/>
                <g clip-path="url(#p1ad0738bb8)">
                    <use xlink:href="#m9fe96c1a7a" x="340.875714" y="610.607226"
                         style="fill: #ffffff; stroke: #ffffff; stroke-width: 1.6875"/>
                </g>
            </g>
            <g id="line2d_16">
                <path d="M 437.840664 615.517899
L 437.840664 566.411176 
" clip-path="url(#p1ad0738bb8)" style="fill: none; stroke: #3d3d3d; stroke-width: 2.8125; stroke-linecap: round"/>
            </g>
            <g id="line2d_17">
                <path d="M 437.840664 615.517899
L 437.840664 595.87521 
" clip-path="url(#p1ad0738bb8)" style="fill: none; stroke: #3d3d3d; stroke-width: 8.4375; stroke-linecap: round"/>
            </g>
            <g id="line2d_18">
                <path d="M 437.840664 610.607226
" clip-path="url(#p1ad0738bb8)" style="fill: none; stroke: #3d3d3d; stroke-width: 2.25; stroke-linecap: round"/>
                <g clip-path="url(#p1ad0738bb8)">
                    <use xlink:href="#m9fe96c1a7a" x="437.840664" y="610.607226"
                         style="fill: #ffffff; stroke: #ffffff; stroke-width: 1.6875"/>
                </g>
            </g>
            <g id="line2d_19">
                <path d="M 534.805614 615.517899
L 534.805614 517.304454 
" clip-path="url(#p1ad0738bb8)" style="fill: none; stroke: #3d3d3d; stroke-width: 2.8125; stroke-linecap: round"/>
            </g>
            <g id="line2d_20">
                <path d="M 534.805614 615.517899
L 534.805614 576.232521 
" clip-path="url(#p1ad0738bb8)" style="fill: none; stroke: #3d3d3d; stroke-width: 8.4375; stroke-linecap: round"/>
            </g>
            <g id="line2d_21">
                <path d="M 534.805614 605.696554
" clip-path="url(#p1ad0738bb8)" style="fill: none; stroke: #3d3d3d; stroke-width: 2.25; stroke-linecap: round"/>
                <g clip-path="url(#p1ad0738bb8)">
                    <use xlink:href="#m9fe96c1a7a" x="534.805614" y="605.696554"
                         style="fill: #ffffff; stroke: #ffffff; stroke-width: 1.6875"/>
                </g>
            </g>
            <g id="line2d_22">
                <path d="M 631.770563 615.517899
L 631.770563 605.696554 
" clip-path="url(#p1ad0738bb8)" style="fill: none; stroke: #3d3d3d; stroke-width: 2.8125; stroke-linecap: round"/>
            </g>
            <g id="line2d_23">
                <path d="M 631.770563 615.517899
L 631.770563 610.607226 
" clip-path="url(#p1ad0738bb8)" style="fill: none; stroke: #3d3d3d; stroke-width: 8.4375; stroke-linecap: round"/>
            </g>
            <g id="line2d_24">
                <path d="M 631.770563 615.517899
" clip-path="url(#p1ad0738bb8)" style="fill: none; stroke: #3d3d3d; stroke-width: 2.25; stroke-linecap: round"/>
                <g clip-path="url(#p1ad0738bb8)">
                    <use xlink:href="#m9fe96c1a7a" x="631.770563" y="615.517899"
                         style="fill: #ffffff; stroke: #ffffff; stroke-width: 1.6875"/>
                </g>
            </g>
            <g id="line2d_25">
                <path d="M 146.945815 558.580818
L 146.945815 547.786245 
L 243.910765 547.786245 
L 243.910765 558.580818 
" style="fill: none; stroke: #333333; stroke-width: 1.5; stroke-linecap: round"/>
            </g>
            <g id="line2d_26">
                <path d="M 243.910765 519.294076
L 243.910765 508.499503 
L 340.875714 508.499503 
L 340.875714 519.294076 
" style="fill: none; stroke: #333333; stroke-width: 1.5; stroke-linecap: round"/>
            </g>
            <g id="line2d_27">
                <path d="M 340.875714 480.007334
L 340.875714 469.212761 
L 437.840664 469.212761 
L 437.840664 480.007334 
" style="fill: none; stroke: #333333; stroke-width: 1.5; stroke-linecap: round"/>
            </g>
            <g id="line2d_28">
                <path d="M 437.840664 440.720592
L 437.840664 429.926019 
L 534.805614 429.926019 
L 534.805614 440.720592 
" style="fill: none; stroke: #333333; stroke-width: 1.5; stroke-linecap: round"/>
            </g>
            <g id="line2d_29">
                <path d="M 534.805614 401.43385
L 534.805614 390.639277 
L 631.770563 390.639277 
L 631.770563 401.43385 
" style="fill: none; stroke: #333333; stroke-width: 1.5; stroke-linecap: round"/>
            </g>
            <g id="line2d_30">
                <path d="M 146.945815 440.720592
L 146.945815 429.926019 
L 340.875714 429.926019 
L 340.875714 440.720592 
" style="fill: none; stroke: #333333; stroke-width: 1.5; stroke-linecap: round"/>
            </g>
            <g id="line2d_31">
                <path d="M 243.910765 401.43385
L 243.910765 390.639277 
L 437.840664 390.639277 
L 437.840664 401.43385 
" style="fill: none; stroke: #333333; stroke-width: 1.5; stroke-linecap: round"/>
            </g>
            <g id="line2d_32">
                <path d="M 340.875714 362.147108
L 340.875714 351.352535 
L 534.805614 351.352535 
L 534.805614 362.147108 
" style="fill: none; stroke: #333333; stroke-width: 1.5; stroke-linecap: round"/>
            </g>
            <g id="line2d_33">
                <path d="M 437.840664 322.860366
L 437.840664 312.065792 
L 631.770563 312.065792 
L 631.770563 322.860366 
" style="fill: none; stroke: #333333; stroke-width: 1.5; stroke-linecap: round"/>
            </g>
            <g id="line2d_34">
                <path d="M 146.945815 283.573623
L 146.945815 272.77905 
L 437.840664 272.77905 
L 437.840664 283.573623 
" style="fill: none; stroke: #333333; stroke-width: 1.5; stroke-linecap: round"/>
            </g>
            <g id="line2d_35">
                <path d="M 243.910765 244.286881
L 243.910765 233.492308 
L 534.805614 233.492308 
L 534.805614 244.286881 
" style="fill: none; stroke: #333333; stroke-width: 1.5; stroke-linecap: round"/>
            </g>
            <g id="line2d_36">
                <path d="M 340.875714 205.000139
L 340.875714 194.205566 
L 631.770563 194.205566 
L 631.770563 205.000139 
" style="fill: none; stroke: #333333; stroke-width: 1.5; stroke-linecap: round"/>
            </g>
            <g id="line2d_37">
                <path d="M 146.945815 165.713397
L 146.945815 154.918824 
L 534.805614 154.918824 
L 534.805614 165.713397 
" style="fill: none; stroke: #333333; stroke-width: 1.5; stroke-linecap: round"/>
            </g>
            <g id="line2d_38">
                <path d="M 243.910765 126.426655
L 243.910765 115.632082 
L 631.770563 115.632082 
L 631.770563 126.426655 
" style="fill: none; stroke: #333333; stroke-width: 1.5; stroke-linecap: round"/>
            </g>
            <g id="line2d_39">
                <path d="M 146.945815 87.139913
L 146.945815 76.34534 
L 631.770563 76.34534 
L 631.770563 87.139913 
" style="fill: none; stroke: #333333; stroke-width: 1.5; stroke-linecap: round"/>
            </g>
            <g id="patch_3">
                <path d="M 80.04 654.580631
L 80.04 38.4 
" style="fill: none; stroke: #cccccc; stroke-width: 1.875; stroke-linejoin: miter; stroke-linecap: square"/>
            </g>
            <g id="patch_4">
                <path d="M 698.676378 654.580631
L 698.676378 38.4 
" style="fill: none; stroke: #cccccc; stroke-width: 1.875; stroke-linejoin: miter; stroke-linecap: square"/>
            </g>
            <g id="patch_5">
                <path d="M 80.04 654.580631
L 698.676378 654.580631 
" style="fill: none; stroke: #cccccc; stroke-width: 1.875; stroke-linejoin: miter; stroke-linecap: square"/>
            </g>
            <g id="patch_6">
                <path d="M 80.04 38.4
L 698.676378 38.4 
" style="fill: none; stroke: #cccccc; stroke-width: 1.875; stroke-linejoin: miter; stroke-linecap: square"/>
            </g>
            <g id="text_15">
                <!-- **** -->
                <g style="fill: #262626" transform="translate(181.416415 543.208745) scale(0.18 -0.18)">
                    <defs>
                        <path id="ArialMT-2a" d="M 200 3741
L 344 4184 
Q 841 4009 1066 3881 
Q 1006 4447 1003 4659 
L 1456 4659 
Q 1447 4350 1384 3884 
Q 1706 4047 2122 4184 
L 2266 3741 
Q 1869 3609 1488 3566 
Q 1678 3400 2025 2975 
L 1650 2709 
Q 1469 2956 1222 3381 
Q 991 2941 816 2709 
L 447 2975 
Q 809 3422 966 3566 
Q 563 3644 200 3741 
z
" transform="scale(0.015625)"/>
                    </defs>
                    <use xlink:href="#ArialMT-2a"/>
                    <use xlink:href="#ArialMT-2a" transform="translate(38.916016 0)"/>
                    <use xlink:href="#ArialMT-2a" transform="translate(77.832031 0)"/>
                    <use xlink:href="#ArialMT-2a" transform="translate(116.748047 0)"/>
                </g>
            </g>
            <g id="text_16">
                <!-- **** -->
                <g style="fill: #262626" transform="translate(278.381365 503.922003) scale(0.18 -0.18)">
                    <use xlink:href="#ArialMT-2a"/>
                    <use xlink:href="#ArialMT-2a" transform="translate(38.916016 0)"/>
                    <use xlink:href="#ArialMT-2a" transform="translate(77.832031 0)"/>
                    <use xlink:href="#ArialMT-2a" transform="translate(116.748047 0)"/>
                </g>
            </g>
            <g id="text_17">
                <!-- **** -->
                <g style="fill: #262626" transform="translate(375.346314 464.635261) scale(0.18 -0.18)">
                    <use xlink:href="#ArialMT-2a"/>
                    <use xlink:href="#ArialMT-2a" transform="translate(38.916016 0)"/>
                    <use xlink:href="#ArialMT-2a" transform="translate(77.832031 0)"/>
                    <use xlink:href="#ArialMT-2a" transform="translate(116.748047 0)"/>
                </g>
            </g>
            <g id="text_18">
                <!-- **** -->
                <g style="fill: #262626" transform="translate(472.311264 425.348519) scale(0.18 -0.18)">
                    <use xlink:href="#ArialMT-2a"/>
                    <use xlink:href="#ArialMT-2a" transform="translate(38.916016 0)"/>
                    <use xlink:href="#ArialMT-2a" transform="translate(77.832031 0)"/>
                    <use xlink:href="#ArialMT-2a" transform="translate(116.748047 0)"/>
                </g>
            </g>
            <g id="text_19">
                <!-- **** -->
                <g style="fill: #262626" transform="translate(569.276213 386.061777) scale(0.18 -0.18)">
                    <use xlink:href="#ArialMT-2a"/>
                    <use xlink:href="#ArialMT-2a" transform="translate(38.916016 0)"/>
                    <use xlink:href="#ArialMT-2a" transform="translate(77.832031 0)"/>
                    <use xlink:href="#ArialMT-2a" transform="translate(116.748047 0)"/>
                </g>
            </g>
            <g id="text_20">
                <!-- **** -->
                <g style="fill: #262626" transform="translate(229.89889 425.348519) scale(0.18 -0.18)">
                    <use xlink:href="#ArialMT-2a"/>
                    <use xlink:href="#ArialMT-2a" transform="translate(38.916016 0)"/>
                    <use xlink:href="#ArialMT-2a" transform="translate(77.832031 0)"/>
                    <use xlink:href="#ArialMT-2a" transform="translate(116.748047 0)"/>
                </g>
            </g>
            <g id="text_21">
                <!-- **** -->
                <g style="fill: #262626" transform="translate(326.863839 386.061777) scale(0.18 -0.18)">
                    <use xlink:href="#ArialMT-2a"/>
                    <use xlink:href="#ArialMT-2a" transform="translate(38.916016 0)"/>
                    <use xlink:href="#ArialMT-2a" transform="translate(77.832031 0)"/>
                    <use xlink:href="#ArialMT-2a" transform="translate(116.748047 0)"/>
                </g>
            </g>
            <g id="text_22">
                <!-- **** -->
                <g style="fill: #262626" transform="translate(423.828789 346.775035) scale(0.18 -0.18)">
                    <use xlink:href="#ArialMT-2a"/>
                    <use xlink:href="#ArialMT-2a" transform="translate(38.916016 0)"/>
                    <use xlink:href="#ArialMT-2a" transform="translate(77.832031 0)"/>
                    <use xlink:href="#ArialMT-2a" transform="translate(116.748047 0)"/>
                </g>
            </g>
            <g id="text_23">
                <!-- **** -->
                <g style="fill: #262626" transform="translate(520.793739 307.488292) scale(0.18 -0.18)">
                    <use xlink:href="#ArialMT-2a"/>
                    <use xlink:href="#ArialMT-2a" transform="translate(38.916016 0)"/>
                    <use xlink:href="#ArialMT-2a" transform="translate(77.832031 0)"/>
                    <use xlink:href="#ArialMT-2a" transform="translate(116.748047 0)"/>
                </g>
            </g>
            <g id="text_24">
                <!-- **** -->
                <g style="fill: #262626" transform="translate(278.381365 268.20155) scale(0.18 -0.18)">
                    <use xlink:href="#ArialMT-2a"/>
                    <use xlink:href="#ArialMT-2a" transform="translate(38.916016 0)"/>
                    <use xlink:href="#ArialMT-2a" transform="translate(77.832031 0)"/>
                    <use xlink:href="#ArialMT-2a" transform="translate(116.748047 0)"/>
                </g>
            </g>
            <g id="text_25">
                <!-- **** -->
                <g style="fill: #262626" transform="translate(375.346314 228.914808) scale(0.18 -0.18)">
                    <use xlink:href="#ArialMT-2a"/>
                    <use xlink:href="#ArialMT-2a" transform="translate(38.916016 0)"/>
                    <use xlink:href="#ArialMT-2a" transform="translate(77.832031 0)"/>
                    <use xlink:href="#ArialMT-2a" transform="translate(116.748047 0)"/>
                </g>
            </g>
            <g id="text_26">
                <!-- **** -->
                <g style="fill: #262626" transform="translate(472.311264 189.628066) scale(0.18 -0.18)">
                    <use xlink:href="#ArialMT-2a"/>
                    <use xlink:href="#ArialMT-2a" transform="translate(38.916016 0)"/>
                    <use xlink:href="#ArialMT-2a" transform="translate(77.832031 0)"/>
                    <use xlink:href="#ArialMT-2a" transform="translate(116.748047 0)"/>
                </g>
            </g>
            <g id="text_27">
                <!-- **** -->
                <g style="fill: #262626" transform="translate(326.863839 150.341324) scale(0.18 -0.18)">
                    <use xlink:href="#ArialMT-2a"/>
                    <use xlink:href="#ArialMT-2a" transform="translate(38.916016 0)"/>
                    <use xlink:href="#ArialMT-2a" transform="translate(77.832031 0)"/>
                    <use xlink:href="#ArialMT-2a" transform="translate(116.748047 0)"/>
                </g>
            </g>
            <g id="text_28">
                <!-- **** -->
                <g style="fill: #262626" transform="translate(423.828789 111.054582) scale(0.18 -0.18)">
                    <use xlink:href="#ArialMT-2a"/>
                    <use xlink:href="#ArialMT-2a" transform="translate(38.916016 0)"/>
                    <use xlink:href="#ArialMT-2a" transform="translate(77.832031 0)"/>
                    <use xlink:href="#ArialMT-2a" transform="translate(116.748047 0)"/>
                </g>
            </g>
            <g id="text_29">
                <!-- **** -->
                <g style="fill: #262626" transform="translate(375.346314 71.76784) scale(0.18 -0.18)">
                    <use xlink:href="#ArialMT-2a"/>
                    <use xlink:href="#ArialMT-2a" transform="translate(38.916016 0)"/>
                    <use xlink:href="#ArialMT-2a" transform="translate(77.832031 0)"/>
                    <use xlink:href="#ArialMT-2a" transform="translate(116.748047 0)"/>
                </g>
            </g>
            <g id="text_30">
                <!-- Ranked Number of Novel Discovery Compounds per Fold per Target -->
                <g style="fill: #262626" transform="translate(116.914127 32.4) scale(0.18 -0.18)">
                    <defs>
                        <path id="ArialMT-6b" d="M 425 0
L 425 4581 
L 988 4581 
L 988 1969 
L 2319 3319 
L 3047 3319 
L 1778 2088 
L 3175 0 
L 2481 0 
L 1384 1697 
L 988 1316 
L 988 0 
L 425 0 
z
" transform="scale(0.015625)"/>
                        <path id="ArialMT-4e" d="M 488 0
L 488 4581 
L 1109 4581 
L 3516 984 
L 3516 4581 
L 4097 4581 
L 4097 0 
L 3475 0 
L 1069 3600 
L 1069 0 
L 488 0 
z
" transform="scale(0.015625)"/>
                        <path id="ArialMT-54" d="M 1659 0
L 1659 4041 
L 150 4041 
L 150 4581 
L 3781 4581 
L 3781 4041 
L 2266 4041 
L 2266 0 
L 1659 0 
z
" transform="scale(0.015625)"/>
                    </defs>
                    <use xlink:href="#ArialMT-52"/>
                    <use xlink:href="#ArialMT-61" transform="translate(72.216797 0)"/>
                    <use xlink:href="#ArialMT-6e" transform="translate(127.832031 0)"/>
                    <use xlink:href="#ArialMT-6b" transform="translate(183.447266 0)"/>
                    <use xlink:href="#ArialMT-65" transform="translate(233.447266 0)"/>
                    <use xlink:href="#ArialMT-64" transform="translate(289.0625 0)"/>
                    <use xlink:href="#ArialMT-20" transform="translate(344.677734 0)"/>
                    <use xlink:href="#ArialMT-4e" transform="translate(372.460938 0)"/>
                    <use xlink:href="#ArialMT-75" transform="translate(444.677734 0)"/>
                    <use xlink:href="#ArialMT-6d" transform="translate(500.292969 0)"/>
                    <use xlink:href="#ArialMT-62" transform="translate(583.59375 0)"/>
                    <use xlink:href="#ArialMT-65" transform="translate(639.208984 0)"/>
                    <use xlink:href="#ArialMT-72" transform="translate(694.824219 0)"/>
                    <use xlink:href="#ArialMT-20" transform="translate(728.125 0)"/>
                    <use xlink:href="#ArialMT-6f" transform="translate(755.908203 0)"/>
                    <use xlink:href="#ArialMT-66" transform="translate(811.523438 0)"/>
                    <use xlink:href="#ArialMT-20" transform="translate(839.306641 0)"/>
                    <use xlink:href="#ArialMT-4e" transform="translate(867.089844 0)"/>
                    <use xlink:href="#ArialMT-6f" transform="translate(939.306641 0)"/>
                    <use xlink:href="#ArialMT-76" transform="translate(994.921875 0)"/>
                    <use xlink:href="#ArialMT-65" transform="translate(1044.921875 0)"/>
                    <use xlink:href="#ArialMT-6c" transform="translate(1100.537109 0)"/>
                    <use xlink:href="#ArialMT-20" transform="translate(1122.753906 0)"/>
                    <use xlink:href="#ArialMT-44" transform="translate(1150.537109 0)"/>
                    <use xlink:href="#ArialMT-69" transform="translate(1222.753906 0)"/>
                    <use xlink:href="#ArialMT-73" transform="translate(1244.970703 0)"/>
                    <use xlink:href="#ArialMT-63" transform="translate(1294.970703 0)"/>
                    <use xlink:href="#ArialMT-6f" transform="translate(1344.970703 0)"/>
                    <use xlink:href="#ArialMT-76" transform="translate(1400.585938 0)"/>
                    <use xlink:href="#ArialMT-65" transform="translate(1450.585938 0)"/>
                    <use xlink:href="#ArialMT-72" transform="translate(1506.201172 0)"/>
                    <use xlink:href="#ArialMT-79" transform="translate(1539.501953 0)"/>
                    <use xlink:href="#ArialMT-20" transform="translate(1589.501953 0)"/>
                    <use xlink:href="#ArialMT-43" transform="translate(1617.285156 0)"/>
                    <use xlink:href="#ArialMT-6f" transform="translate(1689.501953 0)"/>
                    <use xlink:href="#ArialMT-6d" transform="translate(1745.117188 0)"/>
                    <use xlink:href="#ArialMT-70" transform="translate(1828.417969 0)"/>
                    <use xlink:href="#ArialMT-6f" transform="translate(1884.033203 0)"/>
                    <use xlink:href="#ArialMT-75" transform="translate(1939.648438 0)"/>
                    <use xlink:href="#ArialMT-6e" transform="translate(1995.263672 0)"/>
                    <use xlink:href="#ArialMT-64" transform="translate(2050.878906 0)"/>
                    <use xlink:href="#ArialMT-73" transform="translate(2106.494141 0)"/>
                    <use xlink:href="#ArialMT-20" transform="translate(2156.494141 0)"/>
                    <use xlink:href="#ArialMT-70" transform="translate(2184.277344 0)"/>
                    <use xlink:href="#ArialMT-65" transform="translate(2239.892578 0)"/>
                    <use xlink:href="#ArialMT-72" transform="translate(2295.507812 0)"/>
                    <use xlink:href="#ArialMT-20" transform="translate(2328.808594 0)"/>
                    <use xlink:href="#ArialMT-46" transform="translate(2356.591797 0)"/>
                    <use xlink:href="#ArialMT-6f" transform="translate(2417.675781 0)"/>
                    <use xlink:href="#ArialMT-6c" transform="translate(2473.291016 0)"/>
                    <use xlink:href="#ArialMT-64" transform="translate(2495.507812 0)"/>
                    <use xlink:href="#ArialMT-20" transform="translate(2551.123047 0)"/>
                    <use xlink:href="#ArialMT-70" transform="translate(2578.90625 0)"/>
                    <use xlink:href="#ArialMT-65" transform="translate(2634.521484 0)"/>
                    <use xlink:href="#ArialMT-72" transform="translate(2690.136719 0)"/>
                    <use xlink:href="#ArialMT-20" transform="translate(2723.4375 0)"/>
                    <use xlink:href="#ArialMT-54" transform="translate(2749.470703 0)"/>
                    <use xlink:href="#ArialMT-61" transform="translate(2799.429688 0)"/>
                    <use xlink:href="#ArialMT-72" transform="translate(2855.044922 0)"/>
                    <use xlink:href="#ArialMT-67" transform="translate(2888.345703 0)"/>
                    <use xlink:href="#ArialMT-65" transform="translate(2943.960938 0)"/>
                    <use xlink:href="#ArialMT-74" transform="translate(2999.576172 0)"/>
                </g>
            </g>
        </g>
    </g>
    <defs>
        <clipPath id="p1ad0738bb8">
            <rect x="80.04" y="38.4" width="618.636378" height="616.180631"/>
        </clipPath>
    </defs>
</svg>
