<?xml version="1.0" encoding="utf-8" standalone="no"?>
<!DOCTYPE svg PUBLIC "-//W3C//DTD SVG 1.1//EN"
        "http://www.w3.org/Graphics/SVG/1.1/DTD/svg11.dtd">
<svg xmlns:xlink="http://www.w3.org/1999/xlink" width="720pt" height="864pt" viewBox="0 0 720 864"
     xmlns="http://www.w3.org/2000/svg" version="1.1">
    <metadata>
        <rdf:RDF xmlns:dc="http://purl.org/dc/elements/1.1/" xmlns:cc="http://creativecommons.org/ns#"
                 xmlns:rdf="http://www.w3.org/1999/02/22-rdf-syntax-ns#">
            <cc:Work>
                <dc:type rdf:resource="http://purl.org/dc/dcmitype/StillImage"/>
                <dc:date>2025-02-20T03:50:56.073174</dc:date>
                <dc:format>image/svg+xml</dc:format>
                <dc:creator>
                    <cc:Agent>
                        <dc:title>Matplotlib v3.10.0, https://matplotlib.org/</dc:title>
                    </cc:Agent>
                </dc:creator>
            </cc:Work>
        </rdf:RDF>
    </metadata>
    <defs>
        <style type="text/css">*{stroke-linejoin: round; stroke-linecap: butt}</style>
    </defs>
    <g id="figure_1">
        <g id="patch_1">
            <path d="M 0 864
L 720 864 
L 720 0 
L 0 0 
z
" style="fill: #ffffff"/>
        </g>
        <g id="axes_1">
            <g id="patch_2">
                <path d="M 89.22 654.580631
L 698.676378 654.580631 
L 698.676378 38.4 
L 89.22 38.4 
z
" style="fill: #ffffff"/>
            </g>
            <g id="matplotlib.axis_1">
                <g id="xtick_1">
                    <g id="text_1">
                        <!-- RandomSplit -->
                        <g style="fill: #262626"
                           transform="translate(124.823635 742.367284) rotate(-45) scale(0.165 -0.165)">
                            <defs>
                                <path id="ArialMT-52" d="M 503 0
L 503 4581 
L 2534 4581 
Q 3147 4581 3465 4457 
Q 3784 4334 3975 4021 
Q 4166 3709 4166 3331 
Q 4166 2844 3850 2509 
Q 3534 2175 2875 2084 
Q 3116 1969 3241 1856 
Q 3506 1613 3744 1247 
L 4541 0 
L 3778 0 
L 3172 953 
Q 2906 1366 2734 1584 
Q 2563 1803 2427 1890 
Q 2291 1978 2150 2013 
Q 2047 2034 1813 2034 
L 1109 2034 
L 1109 0 
L 503 0 
z
M 1109 2559 
L 2413 2559 
Q 2828 2559 3062 2645 
Q 3297 2731 3419 2920 
Q 3541 3109 3541 3331 
Q 3541 3656 3305 3865 
Q 3069 4075 2559 4075 
L 1109 4075 
L 1109 2559 
z
" transform="scale(0.015625)"/>
                                <path id="ArialMT-61" d="M 2588 409
Q 2275 144 1986 34 
Q 1697 -75 1366 -75 
Q 819 -75 525 192 
Q 231 459 231 875 
Q 231 1119 342 1320 
Q 453 1522 633 1644 
Q 813 1766 1038 1828 
Q 1203 1872 1538 1913 
Q 2219 1994 2541 2106 
Q 2544 2222 2544 2253 
Q 2544 2597 2384 2738 
Q 2169 2928 1744 2928 
Q 1347 2928 1158 2789 
Q 969 2650 878 2297 
L 328 2372 
Q 403 2725 575 2942 
Q 747 3159 1072 3276 
Q 1397 3394 1825 3394 
Q 2250 3394 2515 3294 
Q 2781 3194 2906 3042 
Q 3031 2891 3081 2659 
Q 3109 2516 3109 2141 
L 3109 1391 
Q 3109 606 3145 398 
Q 3181 191 3288 0 
L 2700 0 
Q 2613 175 2588 409 
z
M 2541 1666 
Q 2234 1541 1622 1453 
Q 1275 1403 1131 1340 
Q 988 1278 909 1158 
Q 831 1038 831 891 
Q 831 666 1001 516 
Q 1172 366 1500 366 
Q 1825 366 2078 508 
Q 2331 650 2450 897 
Q 2541 1088 2541 1459 
L 2541 1666 
z
" transform="scale(0.015625)"/>
                                <path id="ArialMT-6e" d="M 422 0
L 422 3319 
L 928 3319 
L 928 2847 
Q 1294 3394 1984 3394 
Q 2284 3394 2536 3286 
Q 2788 3178 2913 3003 
Q 3038 2828 3088 2588 
Q 3119 2431 3119 2041 
L 3119 0 
L 2556 0 
L 2556 2019 
Q 2556 2363 2490 2533 
Q 2425 2703 2258 2804 
Q 2091 2906 1866 2906 
Q 1506 2906 1245 2678 
Q 984 2450 984 1813 
L 984 0 
L 422 0 
z
" transform="scale(0.015625)"/>
                                <path id="ArialMT-64" d="M 2575 0
L 2575 419 
Q 2259 -75 1647 -75 
Q 1250 -75 917 144 
Q 584 363 401 755 
Q 219 1147 219 1656 
Q 219 2153 384 2558 
Q 550 2963 881 3178 
Q 1213 3394 1622 3394 
Q 1922 3394 2156 3267 
Q 2391 3141 2538 2938 
L 2538 4581 
L 3097 4581 
L 3097 0 
L 2575 0 
z
M 797 1656 
Q 797 1019 1065 703 
Q 1334 388 1700 388 
Q 2069 388 2326 689 
Q 2584 991 2584 1609 
Q 2584 2291 2321 2609 
Q 2059 2928 1675 2928 
Q 1300 2928 1048 2622 
Q 797 2316 797 1656 
z
" transform="scale(0.015625)"/>
                                <path id="ArialMT-6f" d="M 213 1659
Q 213 2581 725 3025 
Q 1153 3394 1769 3394 
Q 2453 3394 2887 2945 
Q 3322 2497 3322 1706 
Q 3322 1066 3130 698 
Q 2938 331 2570 128 
Q 2203 -75 1769 -75 
Q 1072 -75 642 372 
Q 213 819 213 1659 
z
M 791 1659 
Q 791 1022 1069 705 
Q 1347 388 1769 388 
Q 2188 388 2466 706 
Q 2744 1025 2744 1678 
Q 2744 2294 2464 2611 
Q 2184 2928 1769 2928 
Q 1347 2928 1069 2612 
Q 791 2297 791 1659 
z
" transform="scale(0.015625)"/>
                                <path id="ArialMT-6d" d="M 422 0
L 422 3319 
L 925 3319 
L 925 2853 
Q 1081 3097 1340 3245 
Q 1600 3394 1931 3394 
Q 2300 3394 2536 3241 
Q 2772 3088 2869 2813 
Q 3263 3394 3894 3394 
Q 4388 3394 4653 3120 
Q 4919 2847 4919 2278 
L 4919 0 
L 4359 0 
L 4359 2091 
Q 4359 2428 4304 2576 
Q 4250 2725 4106 2815 
Q 3963 2906 3769 2906 
Q 3419 2906 3187 2673 
Q 2956 2441 2956 1928 
L 2956 0 
L 2394 0 
L 2394 2156 
Q 2394 2531 2256 2718 
Q 2119 2906 1806 2906 
Q 1569 2906 1367 2781 
Q 1166 2656 1075 2415 
Q 984 2175 984 1722 
L 984 0 
L 422 0 
z
" transform="scale(0.015625)"/>
                                <path id="ArialMT-53" d="M 288 1472
L 859 1522 
Q 900 1178 1048 958 
Q 1197 738 1509 602 
Q 1822 466 2213 466 
Q 2559 466 2825 569 
Q 3091 672 3220 851 
Q 3350 1031 3350 1244 
Q 3350 1459 3225 1620 
Q 3100 1781 2813 1891 
Q 2628 1963 1997 2114 
Q 1366 2266 1113 2400 
Q 784 2572 623 2826 
Q 463 3081 463 3397 
Q 463 3744 659 4045 
Q 856 4347 1234 4503 
Q 1613 4659 2075 4659 
Q 2584 4659 2973 4495 
Q 3363 4331 3572 4012 
Q 3781 3694 3797 3291 
L 3216 3247 
Q 3169 3681 2898 3903 
Q 2628 4125 2100 4125 
Q 1550 4125 1298 3923 
Q 1047 3722 1047 3438 
Q 1047 3191 1225 3031 
Q 1400 2872 2139 2705 
Q 2878 2538 3153 2413 
Q 3553 2228 3743 1945 
Q 3934 1663 3934 1294 
Q 3934 928 3725 604 
Q 3516 281 3123 101 
Q 2731 -78 2241 -78 
Q 1619 -78 1198 103 
Q 778 284 539 648 
Q 300 1013 288 1472 
z
" transform="scale(0.015625)"/>
                                <path id="ArialMT-70" d="M 422 -1272
L 422 3319 
L 934 3319 
L 934 2888 
Q 1116 3141 1344 3267 
Q 1572 3394 1897 3394 
Q 2322 3394 2647 3175 
Q 2972 2956 3137 2557 
Q 3303 2159 3303 1684 
Q 3303 1175 3120 767 
Q 2938 359 2589 142 
Q 2241 -75 1856 -75 
Q 1575 -75 1351 44 
Q 1128 163 984 344 
L 984 -1272 
L 422 -1272 
z
M 931 1641 
Q 931 1000 1190 694 
Q 1450 388 1819 388 
Q 2194 388 2461 705 
Q 2728 1022 2728 1688 
Q 2728 2322 2467 2637 
Q 2206 2953 1844 2953 
Q 1484 2953 1207 2617 
Q 931 2281 931 1641 
z
" transform="scale(0.015625)"/>
                                <path id="ArialMT-6c" d="M 409 0
L 409 4581 
L 972 4581 
L 972 0 
L 409 0 
z
" transform="scale(0.015625)"/>
                                <path id="ArialMT-69" d="M 425 3934
L 425 4581 
L 988 4581 
L 988 3934 
L 425 3934 
z
M 425 0 
L 425 3319 
L 988 3319 
L 988 0 
L 425 0 
z
" transform="scale(0.015625)"/>
                                <path id="ArialMT-74" d="M 1650 503
L 1731 6 
Q 1494 -44 1306 -44 
Q 1000 -44 831 53 
Q 663 150 594 308 
Q 525 466 525 972 
L 525 2881 
L 113 2881 
L 113 3319 
L 525 3319 
L 525 4141 
L 1084 4478 
L 1084 3319 
L 1650 3319 
L 1650 2881 
L 1084 2881 
L 1084 941 
Q 1084 700 1114 631 
Q 1144 563 1211 522 
Q 1278 481 1403 481 
Q 1497 481 1650 503 
z
" transform="scale(0.015625)"/>
                            </defs>
                            <use xlink:href="#ArialMT-52"/>
                            <use xlink:href="#ArialMT-61" transform="translate(72.216797 0)"/>
                            <use xlink:href="#ArialMT-6e" transform="translate(127.832031 0)"/>
                            <use xlink:href="#ArialMT-64" transform="translate(183.447266 0)"/>
                            <use xlink:href="#ArialMT-6f" transform="translate(239.0625 0)"/>
                            <use xlink:href="#ArialMT-6d" transform="translate(294.677734 0)"/>
                            <use xlink:href="#ArialMT-53" transform="translate(377.978516 0)"/>
                            <use xlink:href="#ArialMT-70" transform="translate(444.677734 0)"/>
                            <use xlink:href="#ArialMT-6c" transform="translate(500.292969 0)"/>
                            <use xlink:href="#ArialMT-69" transform="translate(522.509766 0)"/>
                            <use xlink:href="#ArialMT-74" transform="translate(544.726562 0)"/>
                        </g>
                    </g>
                </g>
                <g id="xtick_2">
                    <g id="text_2">
                        <!-- ScaffoldSplit -->
                        <g style="fill: #262626"
                           transform="translate(221.422554 740.221602) rotate(-45) scale(0.165 -0.165)">
                            <defs>
                                <path id="ArialMT-63" d="M 2588 1216
L 3141 1144 
Q 3050 572 2676 248 
Q 2303 -75 1759 -75 
Q 1078 -75 664 370 
Q 250 816 250 1647 
Q 250 2184 428 2587 
Q 606 2991 970 3192 
Q 1334 3394 1763 3394 
Q 2303 3394 2647 3120 
Q 2991 2847 3088 2344 
L 2541 2259 
Q 2463 2594 2264 2762 
Q 2066 2931 1784 2931 
Q 1359 2931 1093 2626 
Q 828 2322 828 1663 
Q 828 994 1084 691 
Q 1341 388 1753 388 
Q 2084 388 2306 591 
Q 2528 794 2588 1216 
z
" transform="scale(0.015625)"/>
                                <path id="ArialMT-66" d="M 556 0
L 556 2881 
L 59 2881 
L 59 3319 
L 556 3319 
L 556 3672 
Q 556 4006 616 4169 
Q 697 4388 901 4523 
Q 1106 4659 1475 4659 
Q 1713 4659 2000 4603 
L 1916 4113 
Q 1741 4144 1584 4144 
Q 1328 4144 1222 4034 
Q 1116 3925 1116 3625 
L 1116 3319 
L 1763 3319 
L 1763 2881 
L 1116 2881 
L 1116 0 
L 556 0 
z
" transform="scale(0.015625)"/>
                            </defs>
                            <use xlink:href="#ArialMT-53"/>
                            <use xlink:href="#ArialMT-63" transform="translate(66.699219 0)"/>
                            <use xlink:href="#ArialMT-61" transform="translate(116.699219 0)"/>
                            <use xlink:href="#ArialMT-66" transform="translate(172.314453 0)"/>
                            <use xlink:href="#ArialMT-66" transform="translate(198.347656 0)"/>
                            <use xlink:href="#ArialMT-6f" transform="translate(226.130859 0)"/>
                            <use xlink:href="#ArialMT-6c" transform="translate(281.746094 0)"/>
                            <use xlink:href="#ArialMT-64" transform="translate(303.962891 0)"/>
                            <use xlink:href="#ArialMT-53" transform="translate(359.578125 0)"/>
                            <use xlink:href="#ArialMT-70" transform="translate(426.277344 0)"/>
                            <use xlink:href="#ArialMT-6c" transform="translate(481.892578 0)"/>
                            <use xlink:href="#ArialMT-69" transform="translate(504.109375 0)"/>
                            <use xlink:href="#ArialMT-74" transform="translate(526.326172 0)"/>
                        </g>
                    </g>
                </g>
                <g id="xtick_3">
                    <g id="text_3">
                        <!-- SortedStepForward_LogD -->
                        <g style="fill: #262626"
                           transform="translate(281.435493 811.111156) rotate(-45) scale(0.165 -0.165)">
                            <defs>
                                <path id="ArialMT-72" d="M 416 0
L 416 3319 
L 922 3319 
L 922 2816 
Q 1116 3169 1280 3281 
Q 1444 3394 1641 3394 
Q 1925 3394 2219 3213 
L 2025 2691 
Q 1819 2813 1613 2813 
Q 1428 2813 1281 2702 
Q 1134 2591 1072 2394 
Q 978 2094 978 1738 
L 978 0 
L 416 0 
z
" transform="scale(0.015625)"/>
                                <path id="ArialMT-65" d="M 2694 1069
L 3275 997 
Q 3138 488 2766 206 
Q 2394 -75 1816 -75 
Q 1088 -75 661 373 
Q 234 822 234 1631 
Q 234 2469 665 2931 
Q 1097 3394 1784 3394 
Q 2450 3394 2872 2941 
Q 3294 2488 3294 1666 
Q 3294 1616 3291 1516 
L 816 1516 
Q 847 969 1125 678 
Q 1403 388 1819 388 
Q 2128 388 2347 550 
Q 2566 713 2694 1069 
z
M 847 1978 
L 2700 1978 
Q 2663 2397 2488 2606 
Q 2219 2931 1791 2931 
Q 1403 2931 1139 2672 
Q 875 2413 847 1978 
z
" transform="scale(0.015625)"/>
                                <path id="ArialMT-46" d="M 525 0
L 525 4581 
L 3616 4581 
L 3616 4041 
L 1131 4041 
L 1131 2622 
L 3281 2622 
L 3281 2081 
L 1131 2081 
L 1131 0 
L 525 0 
z
" transform="scale(0.015625)"/>
                                <path id="ArialMT-77" d="M 1034 0
L 19 3319 
L 600 3319 
L 1128 1403 
L 1325 691 
Q 1338 744 1497 1375 
L 2025 3319 
L 2603 3319 
L 3100 1394 
L 3266 759 
L 3456 1400 
L 4025 3319 
L 4572 3319 
L 3534 0 
L 2950 0 
L 2422 1988 
L 2294 2553 
L 1622 0 
L 1034 0 
z
" transform="scale(0.015625)"/>
                                <path id="ArialMT-5f" d="M -97 -1272
L -97 -866 
L 3631 -866 
L 3631 -1272 
L -97 -1272 
z
" transform="scale(0.015625)"/>
                                <path id="ArialMT-4c" d="M 469 0
L 469 4581 
L 1075 4581 
L 1075 541 
L 3331 541 
L 3331 0 
L 469 0 
z
" transform="scale(0.015625)"/>
                                <path id="ArialMT-67" d="M 319 -275
L 866 -356 
Q 900 -609 1056 -725 
Q 1266 -881 1628 -881 
Q 2019 -881 2231 -725 
Q 2444 -569 2519 -288 
Q 2563 -116 2559 434 
Q 2191 0 1641 0 
Q 956 0 581 494 
Q 206 988 206 1678 
Q 206 2153 378 2554 
Q 550 2956 876 3175 
Q 1203 3394 1644 3394 
Q 2231 3394 2613 2919 
L 2613 3319 
L 3131 3319 
L 3131 450 
Q 3131 -325 2973 -648 
Q 2816 -972 2473 -1159 
Q 2131 -1347 1631 -1347 
Q 1038 -1347 672 -1080 
Q 306 -813 319 -275 
z
M 784 1719 
Q 784 1066 1043 766 
Q 1303 466 1694 466 
Q 2081 466 2343 764 
Q 2606 1063 2606 1700 
Q 2606 2309 2336 2618 
Q 2066 2928 1684 2928 
Q 1309 2928 1046 2623 
Q 784 2319 784 1719 
z
" transform="scale(0.015625)"/>
                                <path id="ArialMT-44" d="M 494 0
L 494 4581 
L 2072 4581 
Q 2606 4581 2888 4516 
Q 3281 4425 3559 4188 
Q 3922 3881 4101 3404 
Q 4281 2928 4281 2316 
Q 4281 1794 4159 1391 
Q 4038 988 3847 723 
Q 3656 459 3429 307 
Q 3203 156 2883 78 
Q 2563 0 2147 0 
L 494 0 
z
M 1100 541 
L 2078 541 
Q 2531 541 2789 625 
Q 3047 709 3200 863 
Q 3416 1078 3536 1442 
Q 3656 1806 3656 2325 
Q 3656 3044 3420 3430 
Q 3184 3816 2847 3947 
Q 2603 4041 2063 4041 
L 1100 4041 
L 1100 541 
z
" transform="scale(0.015625)"/>
                            </defs>
                            <use xlink:href="#ArialMT-53"/>
                            <use xlink:href="#ArialMT-6f" transform="translate(66.699219 0)"/>
                            <use xlink:href="#ArialMT-72" transform="translate(122.314453 0)"/>
                            <use xlink:href="#ArialMT-74" transform="translate(155.615234 0)"/>
                            <use xlink:href="#ArialMT-65" transform="translate(183.398438 0)"/>
                            <use xlink:href="#ArialMT-64" transform="translate(239.013672 0)"/>
                            <use xlink:href="#ArialMT-53" transform="translate(294.628906 0)"/>
                            <use xlink:href="#ArialMT-74" transform="translate(361.328125 0)"/>
                            <use xlink:href="#ArialMT-65" transform="translate(389.111328 0)"/>
                            <use xlink:href="#ArialMT-70" transform="translate(444.726562 0)"/>
                            <use xlink:href="#ArialMT-46" transform="translate(500.341797 0)"/>
                            <use xlink:href="#ArialMT-6f" transform="translate(561.425781 0)"/>
                            <use xlink:href="#ArialMT-72" transform="translate(617.041016 0)"/>
                            <use xlink:href="#ArialMT-77" transform="translate(650.341797 0)"/>
                            <use xlink:href="#ArialMT-61" transform="translate(722.558594 0)"/>
                            <use xlink:href="#ArialMT-72" transform="translate(778.173828 0)"/>
                            <use xlink:href="#ArialMT-64" transform="translate(811.474609 0)"/>
                            <use xlink:href="#ArialMT-5f" transform="translate(867.089844 0)"/>
                            <use xlink:href="#ArialMT-4c" transform="translate(922.705078 0)"/>
                            <use xlink:href="#ArialMT-6f" transform="translate(978.320312 0)"/>
                            <use xlink:href="#ArialMT-67" transform="translate(1033.935547 0)"/>
                            <use xlink:href="#ArialMT-44" transform="translate(1089.550781 0)"/>
                        </g>
                    </g>
                </g>
                <g id="xtick_4">
                    <g id="text_4">
                        <!-- SortedStepForward_LogP -->
                        <g style="fill: #262626"
                           transform="translate(377.283332 810.467633) rotate(-45) scale(0.165 -0.165)">
                            <defs>
                                <path id="ArialMT-50" d="M 494 0
L 494 4581 
L 2222 4581 
Q 2678 4581 2919 4538 
Q 3256 4481 3484 4323 
Q 3713 4166 3852 3881 
Q 3991 3597 3991 3256 
Q 3991 2672 3619 2267 
Q 3247 1863 2275 1863 
L 1100 1863 
L 1100 0 
L 494 0 
z
M 1100 2403 
L 2284 2403 
Q 2872 2403 3119 2622 
Q 3366 2841 3366 3238 
Q 3366 3525 3220 3729 
Q 3075 3934 2838 4000 
Q 2684 4041 2272 4041 
L 1100 4041 
L 1100 2403 
z
" transform="scale(0.015625)"/>
                            </defs>
                            <use xlink:href="#ArialMT-53"/>
                            <use xlink:href="#ArialMT-6f" transform="translate(66.699219 0)"/>
                            <use xlink:href="#ArialMT-72" transform="translate(122.314453 0)"/>
                            <use xlink:href="#ArialMT-74" transform="translate(155.615234 0)"/>
                            <use xlink:href="#ArialMT-65" transform="translate(183.398438 0)"/>
                            <use xlink:href="#ArialMT-64" transform="translate(239.013672 0)"/>
                            <use xlink:href="#ArialMT-53" transform="translate(294.628906 0)"/>
                            <use xlink:href="#ArialMT-74" transform="translate(361.328125 0)"/>
                            <use xlink:href="#ArialMT-65" transform="translate(389.111328 0)"/>
                            <use xlink:href="#ArialMT-70" transform="translate(444.726562 0)"/>
                            <use xlink:href="#ArialMT-46" transform="translate(500.341797 0)"/>
                            <use xlink:href="#ArialMT-6f" transform="translate(561.425781 0)"/>
                            <use xlink:href="#ArialMT-72" transform="translate(617.041016 0)"/>
                            <use xlink:href="#ArialMT-77" transform="translate(650.341797 0)"/>
                            <use xlink:href="#ArialMT-61" transform="translate(722.558594 0)"/>
                            <use xlink:href="#ArialMT-72" transform="translate(778.173828 0)"/>
                            <use xlink:href="#ArialMT-64" transform="translate(811.474609 0)"/>
                            <use xlink:href="#ArialMT-5f" transform="translate(867.089844 0)"/>
                            <use xlink:href="#ArialMT-4c" transform="translate(922.705078 0)"/>
                            <use xlink:href="#ArialMT-6f" transform="translate(978.320312 0)"/>
                            <use xlink:href="#ArialMT-67" transform="translate(1033.935547 0)"/>
                            <use xlink:href="#ArialMT-50" transform="translate(1089.550781 0)"/>
                        </g>
                    </g>
                </g>
                <g id="xtick_5">
                    <g id="text_5">
                        <!-- SortedStepForward_MCE18 -->
                        <g style="fill: #262626"
                           transform="translate(467.049611 822.123957) rotate(-45) scale(0.165 -0.165)">
                            <defs>
                                <path id="ArialMT-4d" d="M 475 0
L 475 4581 
L 1388 4581 
L 2472 1338 
Q 2622 884 2691 659 
Q 2769 909 2934 1394 
L 4031 4581 
L 4847 4581 
L 4847 0 
L 4263 0 
L 4263 3834 
L 2931 0 
L 2384 0 
L 1059 3900 
L 1059 0 
L 475 0 
z
" transform="scale(0.015625)"/>
                                <path id="ArialMT-43" d="M 3763 1606
L 4369 1453 
Q 4178 706 3683 314 
Q 3188 -78 2472 -78 
Q 1731 -78 1267 223 
Q 803 525 561 1097 
Q 319 1669 319 2325 
Q 319 3041 592 3573 
Q 866 4106 1370 4382 
Q 1875 4659 2481 4659 
Q 3169 4659 3637 4309 
Q 4106 3959 4291 3325 
L 3694 3184 
Q 3534 3684 3231 3912 
Q 2928 4141 2469 4141 
Q 1941 4141 1586 3887 
Q 1231 3634 1087 3207 
Q 944 2781 944 2328 
Q 944 1744 1114 1308 
Q 1284 872 1643 656 
Q 2003 441 2422 441 
Q 2931 441 3284 734 
Q 3638 1028 3763 1606 
z
" transform="scale(0.015625)"/>
                                <path id="ArialMT-45" d="M 506 0
L 506 4581 
L 3819 4581 
L 3819 4041 
L 1113 4041 
L 1113 2638 
L 3647 2638 
L 3647 2100 
L 1113 2100 
L 1113 541 
L 3925 541 
L 3925 0 
L 506 0 
z
" transform="scale(0.015625)"/>
                                <path id="ArialMT-31" d="M 2384 0
L 1822 0 
L 1822 3584 
Q 1619 3391 1289 3197 
Q 959 3003 697 2906 
L 697 3450 
Q 1169 3672 1522 3987 
Q 1875 4303 2022 4600 
L 2384 4600 
L 2384 0 
z
" transform="scale(0.015625)"/>
                                <path id="ArialMT-38" d="M 1131 2484
Q 781 2613 612 2850 
Q 444 3088 444 3419 
Q 444 3919 803 4259 
Q 1163 4600 1759 4600 
Q 2359 4600 2725 4251 
Q 3091 3903 3091 3403 
Q 3091 3084 2923 2848 
Q 2756 2613 2416 2484 
Q 2838 2347 3058 2040 
Q 3278 1734 3278 1309 
Q 3278 722 2862 322 
Q 2447 -78 1769 -78 
Q 1091 -78 675 323 
Q 259 725 259 1325 
Q 259 1772 486 2073 
Q 713 2375 1131 2484 
z
M 1019 3438 
Q 1019 3113 1228 2906 
Q 1438 2700 1772 2700 
Q 2097 2700 2305 2904 
Q 2513 3109 2513 3406 
Q 2513 3716 2298 3927 
Q 2084 4138 1766 4138 
Q 1444 4138 1231 3931 
Q 1019 3725 1019 3438 
z
M 838 1322 
Q 838 1081 952 856 
Q 1066 631 1291 507 
Q 1516 384 1775 384 
Q 2178 384 2440 643 
Q 2703 903 2703 1303 
Q 2703 1709 2433 1975 
Q 2163 2241 1756 2241 
Q 1359 2241 1098 1978 
Q 838 1716 838 1322 
z
" transform="scale(0.015625)"/>
                            </defs>
                            <use xlink:href="#ArialMT-53"/>
                            <use xlink:href="#ArialMT-6f" transform="translate(66.699219 0)"/>
                            <use xlink:href="#ArialMT-72" transform="translate(122.314453 0)"/>
                            <use xlink:href="#ArialMT-74" transform="translate(155.615234 0)"/>
                            <use xlink:href="#ArialMT-65" transform="translate(183.398438 0)"/>
                            <use xlink:href="#ArialMT-64" transform="translate(239.013672 0)"/>
                            <use xlink:href="#ArialMT-53" transform="translate(294.628906 0)"/>
                            <use xlink:href="#ArialMT-74" transform="translate(361.328125 0)"/>
                            <use xlink:href="#ArialMT-65" transform="translate(389.111328 0)"/>
                            <use xlink:href="#ArialMT-70" transform="translate(444.726562 0)"/>
                            <use xlink:href="#ArialMT-46" transform="translate(500.341797 0)"/>
                            <use xlink:href="#ArialMT-6f" transform="translate(561.425781 0)"/>
                            <use xlink:href="#ArialMT-72" transform="translate(617.041016 0)"/>
                            <use xlink:href="#ArialMT-77" transform="translate(650.341797 0)"/>
                            <use xlink:href="#ArialMT-61" transform="translate(722.558594 0)"/>
                            <use xlink:href="#ArialMT-72" transform="translate(778.173828 0)"/>
                            <use xlink:href="#ArialMT-64" transform="translate(811.474609 0)"/>
                            <use xlink:href="#ArialMT-5f" transform="translate(867.089844 0)"/>
                            <use xlink:href="#ArialMT-4d" transform="translate(922.705078 0)"/>
                            <use xlink:href="#ArialMT-43" transform="translate(1006.005859 0)"/>
                            <use xlink:href="#ArialMT-45" transform="translate(1078.222656 0)"/>
                            <use xlink:href="#ArialMT-31" transform="translate(1144.921875 0)"/>
                            <use xlink:href="#ArialMT-38" transform="translate(1200.537109 0)"/>
                        </g>
                    </g>
                </g>
                <g id="xtick_6">
                    <g id="text_6">
                        <!-- UnsortedStepForward -->
                        <g style="fill: #262626"
                           transform="translate(578.788626 789.698084) rotate(-45) scale(0.165 -0.165)">
                            <defs>
                                <path id="ArialMT-55" d="M 3500 4581
L 4106 4581 
L 4106 1934 
Q 4106 1244 3950 837 
Q 3794 431 3386 176 
Q 2978 -78 2316 -78 
Q 1672 -78 1262 144 
Q 853 366 678 786 
Q 503 1206 503 1934 
L 503 4581 
L 1109 4581 
L 1109 1938 
Q 1109 1341 1220 1058 
Q 1331 775 1601 622 
Q 1872 469 2263 469 
Q 2931 469 3215 772 
Q 3500 1075 3500 1938 
L 3500 4581 
z
" transform="scale(0.015625)"/>
                                <path id="ArialMT-73" d="M 197 991
L 753 1078 
Q 800 744 1014 566 
Q 1228 388 1613 388 
Q 2000 388 2187 545 
Q 2375 703 2375 916 
Q 2375 1106 2209 1216 
Q 2094 1291 1634 1406 
Q 1016 1563 777 1677 
Q 538 1791 414 1992 
Q 291 2194 291 2438 
Q 291 2659 392 2848 
Q 494 3038 669 3163 
Q 800 3259 1026 3326 
Q 1253 3394 1513 3394 
Q 1903 3394 2198 3281 
Q 2494 3169 2634 2976 
Q 2775 2784 2828 2463 
L 2278 2388 
Q 2241 2644 2061 2787 
Q 1881 2931 1553 2931 
Q 1166 2931 1000 2803 
Q 834 2675 834 2503 
Q 834 2394 903 2306 
Q 972 2216 1119 2156 
Q 1203 2125 1616 2013 
Q 2213 1853 2448 1751 
Q 2684 1650 2818 1456 
Q 2953 1263 2953 975 
Q 2953 694 2789 445 
Q 2625 197 2315 61 
Q 2006 -75 1616 -75 
Q 969 -75 630 194 
Q 291 463 197 991 
z
" transform="scale(0.015625)"/>
                            </defs>
                            <use xlink:href="#ArialMT-55"/>
                            <use xlink:href="#ArialMT-6e" transform="translate(72.216797 0)"/>
                            <use xlink:href="#ArialMT-73" transform="translate(127.832031 0)"/>
                            <use xlink:href="#ArialMT-6f" transform="translate(177.832031 0)"/>
                            <use xlink:href="#ArialMT-72" transform="translate(233.447266 0)"/>
                            <use xlink:href="#ArialMT-74" transform="translate(266.748047 0)"/>
                            <use xlink:href="#ArialMT-65" transform="translate(294.53125 0)"/>
                            <use xlink:href="#ArialMT-64" transform="translate(350.146484 0)"/>
                            <use xlink:href="#ArialMT-53" transform="translate(405.761719 0)"/>
                            <use xlink:href="#ArialMT-74" transform="translate(472.460938 0)"/>
                            <use xlink:href="#ArialMT-65" transform="translate(500.244141 0)"/>
                            <use xlink:href="#ArialMT-70" transform="translate(555.859375 0)"/>
                            <use xlink:href="#ArialMT-46" transform="translate(611.474609 0)"/>
                            <use xlink:href="#ArialMT-6f" transform="translate(672.558594 0)"/>
                            <use xlink:href="#ArialMT-72" transform="translate(728.173828 0)"/>
                            <use xlink:href="#ArialMT-77" transform="translate(761.474609 0)"/>
                            <use xlink:href="#ArialMT-61" transform="translate(833.691406 0)"/>
                            <use xlink:href="#ArialMT-72" transform="translate(889.306641 0)"/>
                            <use xlink:href="#ArialMT-64" transform="translate(922.607422 0)"/>
                        </g>
                    </g>
                </g>
                <g id="text_7">
                    <!-- split_type -->
                    <g style="fill: #262626" transform="translate(355.928814 841.326888) scale(0.18 -0.18)">
                        <defs>
                            <path id="ArialMT-79" d="M 397 -1278
L 334 -750 
Q 519 -800 656 -800 
Q 844 -800 956 -737 
Q 1069 -675 1141 -563 
Q 1194 -478 1313 -144 
Q 1328 -97 1363 -6 
L 103 3319 
L 709 3319 
L 1400 1397 
Q 1534 1031 1641 628 
Q 1738 1016 1872 1384 
L 2581 3319 
L 3144 3319 
L 1881 -56 
Q 1678 -603 1566 -809 
Q 1416 -1088 1222 -1217 
Q 1028 -1347 759 -1347 
Q 597 -1347 397 -1278 
z
" transform="scale(0.015625)"/>
                        </defs>
                        <use xlink:href="#ArialMT-73"/>
                        <use xlink:href="#ArialMT-70" transform="translate(50 0)"/>
                        <use xlink:href="#ArialMT-6c" transform="translate(105.615234 0)"/>
                        <use xlink:href="#ArialMT-69" transform="translate(127.832031 0)"/>
                        <use xlink:href="#ArialMT-74" transform="translate(150.048828 0)"/>
                        <use xlink:href="#ArialMT-5f" transform="translate(177.832031 0)"/>
                        <use xlink:href="#ArialMT-74" transform="translate(233.447266 0)"/>
                        <use xlink:href="#ArialMT-79" transform="translate(261.230469 0)"/>
                        <use xlink:href="#ArialMT-70" transform="translate(311.230469 0)"/>
                        <use xlink:href="#ArialMT-65" transform="translate(366.845703 0)"/>
                    </g>
                </g>
            </g>
            <g id="matplotlib.axis_2">
                <g id="ytick_1">
                    <g id="line2d_1">
                        <path d="M 89.22 619.189783
L 698.676378 619.189783 
" clip-path="url(#p98f0b1eb95)" style="fill: none; stroke: #cccccc; stroke-width: 1.5; stroke-linecap: round"/>
                    </g>
                    <g id="text_8">
                        <!-- 0 -->
                        <g style="fill: #262626" transform="translate(67.544453 625.094979) scale(0.165 -0.165)">
                            <defs>
                                <path id="ArialMT-30" d="M 266 2259
Q 266 3072 433 3567 
Q 600 4063 929 4331 
Q 1259 4600 1759 4600 
Q 2128 4600 2406 4451 
Q 2684 4303 2865 4023 
Q 3047 3744 3150 3342 
Q 3253 2941 3253 2259 
Q 3253 1453 3087 958 
Q 2922 463 2592 192 
Q 2263 -78 1759 -78 
Q 1097 -78 719 397 
Q 266 969 266 2259 
z
M 844 2259 
Q 844 1131 1108 757 
Q 1372 384 1759 384 
Q 2147 384 2411 759 
Q 2675 1134 2675 2259 
Q 2675 3391 2411 3762 
Q 2147 4134 1753 4134 
Q 1366 4134 1134 3806 
Q 844 3388 844 2259 
z
" transform="scale(0.015625)"/>
                            </defs>
                            <use xlink:href="#ArialMT-30"/>
                        </g>
                    </g>
                </g>
                <g id="ytick_2">
                    <g id="line2d_2">
                        <path d="M 89.22 528.106647
L 698.676378 528.106647 
" clip-path="url(#p98f0b1eb95)" style="fill: none; stroke: #cccccc; stroke-width: 1.5; stroke-linecap: round"/>
                    </g>
                    <g id="text_9">
                        <!-- 500 -->
                        <g style="fill: #262626" transform="translate(49.193359 534.011842) scale(0.165 -0.165)">
                            <defs>
                                <path id="ArialMT-35" d="M 266 1200
L 856 1250 
Q 922 819 1161 601 
Q 1400 384 1738 384 
Q 2144 384 2425 690 
Q 2706 997 2706 1503 
Q 2706 1984 2436 2262 
Q 2166 2541 1728 2541 
Q 1456 2541 1237 2417 
Q 1019 2294 894 2097 
L 366 2166 
L 809 4519 
L 3088 4519 
L 3088 3981 
L 1259 3981 
L 1013 2750 
Q 1425 3038 1878 3038 
Q 2478 3038 2890 2622 
Q 3303 2206 3303 1553 
Q 3303 931 2941 478 
Q 2500 -78 1738 -78 
Q 1113 -78 717 272 
Q 322 622 266 1200 
z
" transform="scale(0.015625)"/>
                            </defs>
                            <use xlink:href="#ArialMT-35"/>
                            <use xlink:href="#ArialMT-30" transform="translate(55.615234 0)"/>
                            <use xlink:href="#ArialMT-30" transform="translate(111.230469 0)"/>
                        </g>
                    </g>
                </g>
                <g id="ytick_3">
                    <g id="line2d_3">
                        <path d="M 89.22 437.02351
L 698.676378 437.02351 
" clip-path="url(#p98f0b1eb95)" style="fill: none; stroke: #cccccc; stroke-width: 1.5; stroke-linecap: round"/>
                    </g>
                    <g id="text_10">
                        <!-- 1000 -->
                        <g style="fill: #262626" transform="translate(40.017812 442.928705) scale(0.165 -0.165)">
                            <use xlink:href="#ArialMT-31"/>
                            <use xlink:href="#ArialMT-30" transform="translate(55.615234 0)"/>
                            <use xlink:href="#ArialMT-30" transform="translate(111.230469 0)"/>
                            <use xlink:href="#ArialMT-30" transform="translate(166.845703 0)"/>
                        </g>
                    </g>
                </g>
                <g id="ytick_4">
                    <g id="line2d_4">
                        <path d="M 89.22 345.940373
L 698.676378 345.940373 
" clip-path="url(#p98f0b1eb95)" style="fill: none; stroke: #cccccc; stroke-width: 1.5; stroke-linecap: round"/>
                    </g>
                    <g id="text_11">
                        <!-- 1500 -->
                        <g style="fill: #262626" transform="translate(40.017812 351.845568) scale(0.165 -0.165)">
                            <use xlink:href="#ArialMT-31"/>
                            <use xlink:href="#ArialMT-35" transform="translate(55.615234 0)"/>
                            <use xlink:href="#ArialMT-30" transform="translate(111.230469 0)"/>
                            <use xlink:href="#ArialMT-30" transform="translate(166.845703 0)"/>
                        </g>
                    </g>
                </g>
                <g id="ytick_5">
                    <g id="line2d_5">
                        <path d="M 89.22 254.857236
L 698.676378 254.857236 
" clip-path="url(#p98f0b1eb95)" style="fill: none; stroke: #cccccc; stroke-width: 1.5; stroke-linecap: round"/>
                    </g>
                    <g id="text_12">
                        <!-- 2000 -->
                        <g style="fill: #262626" transform="translate(40.017812 260.762432) scale(0.165 -0.165)">
                            <defs>
                                <path id="ArialMT-32" d="M 3222 541
L 3222 0 
L 194 0 
Q 188 203 259 391 
Q 375 700 629 1000 
Q 884 1300 1366 1694 
Q 2113 2306 2375 2664 
Q 2638 3022 2638 3341 
Q 2638 3675 2398 3904 
Q 2159 4134 1775 4134 
Q 1369 4134 1125 3890 
Q 881 3647 878 3216 
L 300 3275 
Q 359 3922 746 4261 
Q 1134 4600 1788 4600 
Q 2447 4600 2831 4234 
Q 3216 3869 3216 3328 
Q 3216 3053 3103 2787 
Q 2991 2522 2730 2228 
Q 2469 1934 1863 1422 
Q 1356 997 1212 845 
Q 1069 694 975 541 
L 3222 541 
z
" transform="scale(0.015625)"/>
                            </defs>
                            <use xlink:href="#ArialMT-32"/>
                            <use xlink:href="#ArialMT-30" transform="translate(55.615234 0)"/>
                            <use xlink:href="#ArialMT-30" transform="translate(111.230469 0)"/>
                            <use xlink:href="#ArialMT-30" transform="translate(166.845703 0)"/>
                        </g>
                    </g>
                </g>
                <g id="ytick_6">
                    <g id="line2d_6">
                        <path d="M 89.22 163.7741
L 698.676378 163.7741 
" clip-path="url(#p98f0b1eb95)" style="fill: none; stroke: #cccccc; stroke-width: 1.5; stroke-linecap: round"/>
                    </g>
                    <g id="text_13">
                        <!-- 2500 -->
                        <g style="fill: #262626" transform="translate(40.017812 169.679295) scale(0.165 -0.165)">
                            <use xlink:href="#ArialMT-32"/>
                            <use xlink:href="#ArialMT-35" transform="translate(55.615234 0)"/>
                            <use xlink:href="#ArialMT-30" transform="translate(111.230469 0)"/>
                            <use xlink:href="#ArialMT-30" transform="translate(166.845703 0)"/>
                        </g>
                    </g>
                </g>
                <g id="ytick_7">
                    <g id="line2d_7">
                        <path d="M 89.22 72.690963
L 698.676378 72.690963 
" clip-path="url(#p98f0b1eb95)" style="fill: none; stroke: #cccccc; stroke-width: 1.5; stroke-linecap: round"/>
                    </g>
                    <g id="text_14">
                        <!-- 3000 -->
                        <g style="fill: #262626" transform="translate(40.017812 78.596158) scale(0.165 -0.165)">
                            <defs>
                                <path id="ArialMT-33" d="M 269 1209
L 831 1284 
Q 928 806 1161 595 
Q 1394 384 1728 384 
Q 2125 384 2398 659 
Q 2672 934 2672 1341 
Q 2672 1728 2419 1979 
Q 2166 2231 1775 2231 
Q 1616 2231 1378 2169 
L 1441 2663 
Q 1497 2656 1531 2656 
Q 1891 2656 2178 2843 
Q 2466 3031 2466 3422 
Q 2466 3731 2256 3934 
Q 2047 4138 1716 4138 
Q 1388 4138 1169 3931 
Q 950 3725 888 3313 
L 325 3413 
Q 428 3978 793 4289 
Q 1159 4600 1703 4600 
Q 2078 4600 2393 4439 
Q 2709 4278 2876 4000 
Q 3044 3722 3044 3409 
Q 3044 3113 2884 2869 
Q 2725 2625 2413 2481 
Q 2819 2388 3044 2092 
Q 3269 1797 3269 1353 
Q 3269 753 2831 336 
Q 2394 -81 1725 -81 
Q 1122 -81 723 278 
Q 325 638 269 1209 
z
" transform="scale(0.015625)"/>
                            </defs>
                            <use xlink:href="#ArialMT-33"/>
                            <use xlink:href="#ArialMT-30" transform="translate(55.615234 0)"/>
                            <use xlink:href="#ArialMT-30" transform="translate(111.230469 0)"/>
                            <use xlink:href="#ArialMT-30" transform="translate(166.845703 0)"/>
                        </g>
                    </g>
                </g>
                <g id="text_15">
                    <!-- number of train compounds -->
                    <g style="fill: #262626" transform="translate(32.440312 456.041409) rotate(-90) scale(0.18 -0.18)">
                        <defs>
                            <path id="ArialMT-75" d="M 2597 0
L 2597 488 
Q 2209 -75 1544 -75 
Q 1250 -75 995 37 
Q 741 150 617 320 
Q 494 491 444 738 
Q 409 903 409 1263 
L 409 3319 
L 972 3319 
L 972 1478 
Q 972 1038 1006 884 
Q 1059 663 1231 536 
Q 1403 409 1656 409 
Q 1909 409 2131 539 
Q 2353 669 2445 892 
Q 2538 1116 2538 1541 
L 2538 3319 
L 3100 3319 
L 3100 0 
L 2597 0 
z
" transform="scale(0.015625)"/>
                            <path id="ArialMT-62" d="M 941 0
L 419 0 
L 419 4581 
L 981 4581 
L 981 2947 
Q 1338 3394 1891 3394 
Q 2197 3394 2470 3270 
Q 2744 3147 2920 2923 
Q 3097 2700 3197 2384 
Q 3297 2069 3297 1709 
Q 3297 856 2875 390 
Q 2453 -75 1863 -75 
Q 1275 -75 941 416 
L 941 0 
z
M 934 1684 
Q 934 1088 1097 822 
Q 1363 388 1816 388 
Q 2184 388 2453 708 
Q 2722 1028 2722 1663 
Q 2722 2313 2464 2622 
Q 2206 2931 1841 2931 
Q 1472 2931 1203 2611 
Q 934 2291 934 1684 
z
" transform="scale(0.015625)"/>
                            <path id="ArialMT-20" transform="scale(0.015625)"/>
                        </defs>
                        <use xlink:href="#ArialMT-6e"/>
                        <use xlink:href="#ArialMT-75" transform="translate(55.615234 0)"/>
                        <use xlink:href="#ArialMT-6d" transform="translate(111.230469 0)"/>
                        <use xlink:href="#ArialMT-62" transform="translate(194.53125 0)"/>
                        <use xlink:href="#ArialMT-65" transform="translate(250.146484 0)"/>
                        <use xlink:href="#ArialMT-72" transform="translate(305.761719 0)"/>
                        <use xlink:href="#ArialMT-20" transform="translate(339.0625 0)"/>
                        <use xlink:href="#ArialMT-6f" transform="translate(366.845703 0)"/>
                        <use xlink:href="#ArialMT-66" transform="translate(422.460938 0)"/>
                        <use xlink:href="#ArialMT-20" transform="translate(450.244141 0)"/>
                        <use xlink:href="#ArialMT-74" transform="translate(478.027344 0)"/>
                        <use xlink:href="#ArialMT-72" transform="translate(505.810547 0)"/>
                        <use xlink:href="#ArialMT-61" transform="translate(539.111328 0)"/>
                        <use xlink:href="#ArialMT-69" transform="translate(594.726562 0)"/>
                        <use xlink:href="#ArialMT-6e" transform="translate(616.943359 0)"/>
                        <use xlink:href="#ArialMT-20" transform="translate(672.558594 0)"/>
                        <use xlink:href="#ArialMT-63" transform="translate(700.341797 0)"/>
                        <use xlink:href="#ArialMT-6f" transform="translate(750.341797 0)"/>
                        <use xlink:href="#ArialMT-6d" transform="translate(805.957031 0)"/>
                        <use xlink:href="#ArialMT-70" transform="translate(889.257812 0)"/>
                        <use xlink:href="#ArialMT-6f" transform="translate(944.873047 0)"/>
                        <use xlink:href="#ArialMT-75" transform="translate(1000.488281 0)"/>
                        <use xlink:href="#ArialMT-6e" transform="translate(1056.103516 0)"/>
                        <use xlink:href="#ArialMT-64" transform="translate(1111.71875 0)"/>
                        <use xlink:href="#ArialMT-73" transform="translate(1167.333984 0)"/>
                    </g>
                </g>
            </g>
            <g id="FillBetweenPolyCollection_1">
                <defs>
                    <path id="m927d0b1fc7" d="M 157.700211 -249.082212
L 152.565777 -249.082212 
L 150.698568 -252.653955 
L 147.950685 -256.225698 
L 144.218313 -259.797441 
L 139.558184 -263.369184 
L 134.242706 -266.940927 
L 128.760233 -270.51267 
L 123.741255 -274.084413 
L 119.820921 -277.656156 
L 117.480075 -281.227899 
L 116.922563 -284.799642 
L 118.03485 -288.371385 
L 120.439635 -291.943128 
L 123.616403 -295.514871 
L 127.039227 -299.086614 
L 130.284657 -302.658357 
L 133.084609 -306.230101 
L 135.325366 -309.801844 
L 137.011321 -313.373587 
L 138.216215 -316.94533 
L 139.039424 -320.517073 
L 139.57643 -324.088816 
L 139.905442 -327.660559 
L 140.086928 -331.232302 
L 140.169827 -334.804045 
L 140.197628 -338.375788 
L 140.209886 -341.947531 
L 140.239095 -345.519274 
L 140.306512 -349.091017 
L 140.42124 -352.66276 
L 140.584319 -356.234503 
L 140.795829 -359.806246 
L 141.060683 -363.377989 
L 141.389297 -366.949732 
L 141.792264 -370.521475 
L 142.271874 -374.093218 
L 142.81583 -377.664961 
L 143.398275 -381.236704 
L 143.989742 -384.808447 
L 144.572262 -388.380191 
L 145.151651 -391.951934 
L 145.758899 -395.523677 
L 146.437339 -399.09542 
L 147.219644 -402.667163 
L 148.10439 -406.238906 
L 149.042727 -409.810649 
L 149.941453 -413.382392 
L 150.682048 -416.954135 
L 151.149604 -420.525878 
L 151.262946 -424.097621 
L 150.997544 -427.669364 
L 150.394912 -431.241107 
L 149.555294 -434.81285 
L 148.614701 -438.384593 
L 147.712476 -441.956336 
L 146.9598 -445.528079 
L 146.42018 -449.099822 
L 146.108278 -452.671565 
L 146.005026 -456.243308 
L 146.07944 -459.815051 
L 146.305433 -463.386794 
L 146.666529 -466.958537 
L 147.149411 -470.53028 
L 147.733463 -474.102024 
L 148.384459 -477.673767 
L 149.056571 -481.24551 
L 149.701373 -484.817253 
L 150.278914 -488.388996 
L 150.765864 -491.960739 
L 151.158112 -495.532482 
L 151.468152 -499.104225 
L 151.719322 -502.675968 
L 151.939025 -506.247711 
L 152.152217 -509.819454 
L 152.375667 -513.391197 
L 152.613597 -516.96294 
L 152.855948 -520.534683 
L 153.080779 -524.106426 
L 153.261294 -527.678169 
L 153.375807 -531.249912 
L 153.416886 -534.821655 
L 153.395386 -538.393398 
L 153.336952 -541.965141 
L 153.272129 -545.536884 
L 153.224617 -549.108627 
L 153.203438 -552.68037 
L 153.202924 -556.252114 
L 153.210344 -559.823857 
L 153.216839 -563.3956 
L 153.225553 -566.967343 
L 153.252486 -570.539086 
L 153.3197 -574.110829 
L 153.44463 -577.682572 
L 153.631159 -581.254315 
L 153.866745 -584.826058 
L 154.126439 -588.397801 
L 154.381232 -591.969544 
L 154.606601 -595.541287 
L 154.787889 -599.11303 
L 154.921327 -602.684773 
L 155.344661 -602.684773 
L 155.344661 -602.684773 
L 155.478099 -599.11303 
L 155.659387 -595.541287 
L 155.884756 -591.969544 
L 156.139549 -588.397801 
L 156.399243 -584.826058 
L 156.634829 -581.254315 
L 156.821358 -577.682572 
L 156.946288 -574.110829 
L 157.013502 -570.539086 
L 157.040435 -566.967343 
L 157.049148 -563.3956 
L 157.055643 -559.823857 
L 157.063064 -556.252114 
L 157.06255 -552.68037 
L 157.041371 -549.108627 
L 156.993859 -545.536884 
L 156.929036 -541.965141 
L 156.870602 -538.393398 
L 156.849102 -534.821655 
L 156.890181 -531.249912 
L 157.004694 -527.678169 
L 157.185209 -524.106426 
L 157.41004 -520.534683 
L 157.65239 -516.96294 
L 157.89032 -513.391197 
L 158.113771 -509.819454 
L 158.326963 -506.247711 
L 158.546666 -502.675968 
L 158.797836 -499.104225 
L 159.107876 -495.532482 
L 159.500124 -491.960739 
L 159.987074 -488.388996 
L 160.564615 -484.817253 
L 161.209416 -481.24551 
L 161.881529 -477.673767 
L 162.532525 -474.102024 
L 163.116577 -470.53028 
L 163.599458 -466.958537 
L 163.960555 -463.386794 
L 164.186547 -459.815051 
L 164.260962 -456.243308 
L 164.15771 -452.671565 
L 163.845807 -449.099822 
L 163.306187 -445.528079 
L 162.553512 -441.956336 
L 161.651287 -438.384593 
L 160.710694 -434.81285 
L 159.871076 -431.241107 
L 159.268444 -427.669364 
L 159.003042 -424.097621 
L 159.116384 -420.525878 
L 159.58394 -416.954135 
L 160.324535 -413.382392 
L 161.223261 -409.810649 
L 162.161598 -406.238906 
L 163.046343 -402.667163 
L 163.828649 -399.09542 
L 164.507089 -395.523677 
L 165.114337 -391.951934 
L 165.693726 -388.380191 
L 166.276245 -384.808447 
L 166.867713 -381.236704 
L 167.450158 -377.664961 
L 167.994113 -374.093218 
L 168.473724 -370.521475 
L 168.876691 -366.949732 
L 169.205305 -363.377989 
L 169.470159 -359.806246 
L 169.681669 -356.234503 
L 169.844748 -352.66276 
L 169.959476 -349.091017 
L 170.026892 -345.519274 
L 170.056101 -341.947531 
L 170.06836 -338.375788 
L 170.096161 -334.804045 
L 170.17906 -331.232302 
L 170.360545 -327.660559 
L 170.689558 -324.088816 
L 171.226564 -320.517073 
L 172.049772 -316.94533 
L 173.254667 -313.373587 
L 174.940622 -309.801844 
L 177.181379 -306.230101 
L 179.981331 -302.658357 
L 183.226761 -299.086614 
L 186.649584 -295.514871 
L 189.826353 -291.943128 
L 192.231137 -288.371385 
L 193.343425 -284.799642 
L 192.785913 -281.227899 
L 190.445067 -277.656156 
L 186.524733 -274.084413 
L 181.505755 -270.51267 
L 176.023282 -266.940927 
L 170.707804 -263.369184 
L 166.047675 -259.797441 
L 162.315303 -256.225698 
L 159.56742 -252.653955 
L 157.700211 -249.082212 
z
" style="stroke: #3d3d3d; stroke-width: 1.875"/>
                </defs>
                <g clip-path="url(#p98f0b1eb95)">
                    <use xlink:href="#m927d0b1fc7" x="0" y="864"
                         style="fill: #3274a1; stroke: #3d3d3d; stroke-width: 1.875"/>
                </g>
            </g>
            <g id="FillBetweenPolyCollection_2">
                <defs>
                    <path id="mc0c768b6fd" d="M 251.451173 -241.934461
L 249.866971 -241.934461 
L 249.105175 -245.57884 
L 247.80651 -249.22322 
L 245.757369 -252.8676 
L 242.771551 -256.511979 
L 238.766705 -260.156359 
L 233.844975 -263.800738 
L 228.342966 -267.445118 
L 222.815639 -271.089498 
L 217.938764 -274.733877 
L 214.349953 -278.378257 
L 212.481483 -282.022636 
L 212.448641 -285.667016 
L 214.036346 -289.311395 
L 216.784295 -292.955775 
L 220.130377 -296.600155 
L 223.554557 -300.244534 
L 226.676509 -303.888914 
L 229.288791 -307.533293 
L 231.335429 -311.177673 
L 232.861033 -314.822052 
L 233.956117 -318.466432 
L 234.715916 -322.110812 
L 235.219448 -325.755191 
L 235.526791 -329.399571 
L 235.686917 -333.04395 
L 235.746673 -336.68833 
L 235.753929 -340.33271 
L 235.753461 -343.977089 
L 235.779591 -347.621469 
L 235.85168 -351.265848 
L 235.976179 -354.910228 
L 236.154116 -358.554607 
L 236.389167 -362.198987 
L 236.69102 -365.843367 
L 237.071659 -369.487746 
L 237.536611 -373.132126 
L 238.076775 -376.776505 
L 238.667132 -380.420885 
L 239.275497 -384.065265 
L 239.878506 -387.709644 
L 240.476548 -391.354024 
L 241.097997 -394.998403 
L 241.787658 -398.642783 
L 242.582598 -402.287162 
L 243.485773 -405.931542 
L 244.449683 -409.575922 
L 245.377981 -413.220301 
L 246.14532 -416.864681 
L 246.628898 -420.50906 
L 246.741828 -424.15344 
L 246.458623 -427.797819 
L 245.825469 -431.442199 
L 244.951626 -435.086579 
L 243.983354 -438.730958 
L 243.06777 -442.375338 
L 242.318782 -446.019717 
L 241.797511 -449.664097 
L 241.51352 -453.308477 
L 241.443237 -456.952856 
L 241.553819 -460.597236 
L 241.819533 -464.241615 
L 242.224125 -467.885995 
L 242.75203 -471.530374 
L 243.377376 -475.174754 
L 244.059332 -478.819134 
L 244.74692 -482.463513 
L 245.390258 -486.107893 
L 245.952218 -489.752272 
L 246.415446 -493.396652 
L 246.78296 -497.041032 
L 247.073621 -500.685411 
L 247.315048 -504.329791 
L 247.536093 -507.97417 
L 247.759921 -511.61855 
L 247.998226 -515.262929 
L 248.247654 -518.907309 
L 248.490103 -522.551689 
L 248.698214 -526.196068 
L 248.845338 -529.840448 
L 248.916592 -533.484827 
L 248.916053 -537.129207 
L 248.866152 -540.773587 
L 248.798941 -544.417966 
L 248.743162 -548.062346 
L 248.713618 -551.706725 
L 248.708339 -555.351105 
L 248.714884 -558.995484 
L 248.722018 -562.639864 
L 248.729946 -566.284244 
L 248.753246 -569.928623 
L 248.81489 -573.573003 
L 248.93485 -577.217382 
L 249.11958 -580.861762 
L 249.357744 -584.506141 
L 249.623795 -588.150521 
L 249.88686 -591.794901 
L 250.120308 -595.43928 
L 250.307984 -599.08366 
L 250.445566 -602.728039 
L 250.872578 -602.728039 
L 250.872578 -602.728039 
L 251.01016 -599.08366 
L 251.197836 -595.43928 
L 251.431284 -591.794901 
L 251.694349 -588.150521 
L 251.9604 -584.506141 
L 252.198564 -580.861762 
L 252.383294 -577.217382 
L 252.503254 -573.573003 
L 252.564898 -569.928623 
L 252.588198 -566.284244 
L 252.596126 -562.639864 
L 252.60326 -558.995484 
L 252.609805 -555.351105 
L 252.604526 -551.706725 
L 252.574982 -548.062346 
L 252.519203 -544.417966 
L 252.451992 -540.773587 
L 252.402091 -537.129207 
L 252.401552 -533.484827 
L 252.472807 -529.840448 
L 252.61993 -526.196068 
L 252.828041 -522.551689 
L 253.07049 -518.907309 
L 253.319918 -515.262929 
L 253.558223 -511.61855 
L 253.782051 -507.97417 
L 254.003096 -504.329791 
L 254.244523 -500.685411 
L 254.535184 -497.041032 
L 254.902698 -493.396652 
L 255.365926 -489.752272 
L 255.927886 -486.107893 
L 256.571224 -482.463513 
L 257.258812 -478.819134 
L 257.940768 -475.174754 
L 258.566114 -471.530374 
L 259.09402 -467.885995 
L 259.498611 -464.241615 
L 259.764325 -460.597236 
L 259.874907 -456.952856 
L 259.804624 -453.308477 
L 259.520633 -449.664097 
L 258.999362 -446.019717 
L 258.250374 -442.375338 
L 257.33479 -438.730958 
L 256.366518 -435.086579 
L 255.492675 -431.442199 
L 254.859521 -427.797819 
L 254.576316 -424.15344 
L 254.689246 -420.50906 
L 255.172824 -416.864681 
L 255.940163 -413.220301 
L 256.868461 -409.575922 
L 257.832371 -405.931542 
L 258.735547 -402.287162 
L 259.530486 -398.642783 
L 260.220147 -394.998403 
L 260.841596 -391.354024 
L 261.439638 -387.709644 
L 262.042647 -384.065265 
L 262.651012 -380.420885 
L 263.241369 -376.776505 
L 263.781533 -373.132126 
L 264.246485 -369.487746 
L 264.627124 -365.843367 
L 264.928977 -362.198987 
L 265.164028 -358.554607 
L 265.341965 -354.910228 
L 265.466464 -351.265848 
L 265.538553 -347.621469 
L 265.564683 -343.977089 
L 265.564215 -340.33271 
L 265.571471 -336.68833 
L 265.631227 -333.04395 
L 265.791353 -329.399571 
L 266.098696 -325.755191 
L 266.602228 -322.110812 
L 267.362027 -318.466432 
L 268.457111 -314.822052 
L 269.982715 -311.177673 
L 272.029353 -307.533293 
L 274.641635 -303.888914 
L 277.763588 -300.244534 
L 281.187767 -296.600155 
L 284.533849 -292.955775 
L 287.281798 -289.311395 
L 288.869503 -285.667016 
L 288.836661 -282.022636 
L 286.968191 -278.378257 
L 283.37938 -274.733877 
L 278.502505 -271.089498 
L 272.975178 -267.445118 
L 267.473169 -263.800738 
L 262.551439 -260.156359 
L 258.546593 -256.511979 
L 255.560775 -252.8676 
L 253.511634 -249.22322 
L 252.212969 -245.57884 
L 251.451173 -241.934461 
z
" style="stroke: #3d3d3d; stroke-width: 1.875"/>
                </defs>
                <g clip-path="url(#p98f0b1eb95)">
                    <use xlink:href="#mc0c768b6fd" x="0" y="864"
                         style="fill: #e1812c; stroke: #3d3d3d; stroke-width: 1.875"/>
                </g>
            </g>
            <g id="FillBetweenPolyCollection_3">
                <defs>
                    <path id="m114ec6615a" d="M 347.165246 -228.148353
L 345.205054 -228.148353 
L 344.020612 -231.861473 
L 341.915397 -235.574593 
L 338.627259 -239.287712 
L 334.110211 -243.000832 
L 328.647071 -246.713951 
L 322.825236 -250.427071 
L 317.362664 -254.14019 
L 312.880892 -257.85331 
L 309.759748 -261.56643 
L 308.133738 -265.279549 
L 307.974719 -268.992669 
L 309.158581 -272.705788 
L 311.468449 -276.418908 
L 314.574483 -280.132028 
L 318.059556 -283.845147 
L 321.50911 -287.558267 
L 324.613558 -291.271386 
L 327.21688 -294.984506 
L 329.294556 -298.697625 
L 330.899465 -302.410745 
L 332.1208 -306.123865 
L 333.065461 -309.836984 
L 333.842485 -313.550104 
L 334.538291 -317.263223 
L 335.195417 -320.976343 
L 335.814573 -324.689462 
L 336.379818 -328.402582 
L 336.884678 -332.115702 
L 337.339436 -335.828821 
L 337.761736 -339.541941 
L 338.166368 -343.25506 
L 338.563059 -346.96818 
L 338.958385 -350.681299 
L 339.355818 -354.394419 
L 339.753593 -358.107539 
L 340.143615 -361.820658 
L 340.514099 -365.533778 
L 340.855984 -369.246897 
L 341.168827 -372.960017 
L 341.459751 -376.673137 
L 341.734822 -380.386256 
L 341.991968 -384.099376 
L 342.224991 -387.812495 
L 342.435479 -391.525615 
L 342.637946 -395.238734 
L 342.849018 -398.951854 
L 343.0695 -402.664974 
L 343.27836 -406.378093 
L 343.447425 -410.091213 
L 343.564972 -413.804332 
L 343.646398 -417.517452 
L 343.721156 -421.230571 
L 343.806784 -424.943691 
L 343.893363 -428.656811 
L 343.953662 -432.36993 
L 343.971404 -436.08305 
L 343.962377 -439.796169 
L 343.967818 -443.509289 
L 344.024581 -447.222409 
L 344.138493 -450.935528 
L 344.283866 -454.648648 
L 344.426856 -458.361767 
L 344.549755 -462.074887 
L 344.656874 -465.788006 
L 344.7628 -469.501126 
L 344.877883 -473.214246 
L 345.002687 -476.927365 
L 345.131004 -480.640485 
L 345.254318 -484.353604 
L 345.363747 -488.066724 
L 345.451318 -491.779843 
L 345.512876 -495.492963 
L 345.550895 -499.206083 
L 345.574113 -502.919202 
L 345.594228 -506.632322 
L 345.622345 -510.345441 
L 345.666018 -514.058561 
L 345.725917 -517.771681 
L 345.793313 -521.4848 
L 345.852205 -525.19792 
L 345.887346 -528.911039 
L 345.893517 -532.624159 
L 345.879243 -536.337278 
L 345.862269 -540.050398 
L 345.860125 -543.763518 
L 345.881606 -547.476637 
L 345.923308 -551.189757 
L 345.972096 -554.902876 
L 346.011831 -558.615996 
L 346.03123 -562.329115 
L 346.029294 -566.042235 
L 346.015574 -569.755355 
L 346.004911 -573.468474 
L 346.00941 -577.181594 
L 346.032455 -580.894713 
L 346.068281 -584.607833 
L 346.106699 -588.320952 
L 346.139037 -592.034072 
L 346.161431 -595.747192 
L 346.20887 -595.747192 
L 346.20887 -595.747192 
L 346.231263 -592.034072 
L 346.263601 -588.320952 
L 346.302019 -584.607833 
L 346.337845 -580.894713 
L 346.36089 -577.181594 
L 346.36539 -573.468474 
L 346.354726 -569.755355 
L 346.341007 -566.042235 
L 346.33907 -562.329115 
L 346.358469 -558.615996 
L 346.398204 -554.902876 
L 346.446992 -551.189757 
L 346.488694 -547.476637 
L 346.510176 -543.763518 
L 346.508031 -540.050398 
L 346.491058 -536.337278 
L 346.476784 -532.624159 
L 346.482954 -528.911039 
L 346.518095 -525.19792 
L 346.576988 -521.4848 
L 346.644384 -517.771681 
L 346.704283 -514.058561 
L 346.747956 -510.345441 
L 346.776072 -506.632322 
L 346.796188 -502.919202 
L 346.819406 -499.206083 
L 346.857425 -495.492963 
L 346.918983 -491.779843 
L 347.006554 -488.066724 
L 347.115982 -484.353604 
L 347.239296 -480.640485 
L 347.367614 -476.927365 
L 347.492418 -473.214246 
L 347.607501 -469.501126 
L 347.713426 -465.788006 
L 347.820545 -462.074887 
L 347.943444 -458.361767 
L 348.086435 -454.648648 
L 348.231808 -450.935528 
L 348.345719 -447.222409 
L 348.402482 -443.509289 
L 348.407924 -439.796169 
L 348.398896 -436.08305 
L 348.416638 -432.36993 
L 348.476937 -428.656811 
L 348.563517 -424.943691 
L 348.649144 -421.230571 
L 348.723903 -417.517452 
L 348.805328 -413.804332 
L 348.922875 -410.091213 
L 349.09194 -406.378093 
L 349.3008 -402.664974 
L 349.521283 -398.951854 
L 349.732354 -395.238734 
L 349.934821 -391.525615 
L 350.145309 -387.812495 
L 350.378332 -384.099376 
L 350.635478 -380.386256 
L 350.91055 -376.673137 
L 351.201473 -372.960017 
L 351.514316 -369.246897 
L 351.856201 -365.533778 
L 352.226686 -361.820658 
L 352.616707 -358.107539 
L 353.014482 -354.394419 
L 353.411915 -350.681299 
L 353.807241 -346.96818 
L 354.203932 -343.25506 
L 354.608564 -339.541941 
L 355.030864 -335.828821 
L 355.485623 -332.115702 
L 355.990483 -328.402582 
L 356.555728 -324.689462 
L 357.174883 -320.976343 
L 357.83201 -317.263223 
L 358.527816 -313.550104 
L 359.30484 -309.836984 
L 360.2495 -306.123865 
L 361.470836 -302.410745 
L 363.075744 -298.697625 
L 365.153421 -294.984506 
L 367.756742 -291.271386 
L 370.861191 -287.558267 
L 374.310744 -283.845147 
L 377.795817 -280.132028 
L 380.901852 -276.418908 
L 383.21172 -272.705788 
L 384.395581 -268.992669 
L 384.236562 -265.279549 
L 382.610552 -261.56643 
L 379.489408 -257.85331 
L 375.007637 -254.14019 
L 369.545064 -250.427071 
L 363.723229 -246.713951 
L 358.260089 -243.000832 
L 353.743041 -239.287712 
L 350.454904 -235.574593 
L 348.349689 -231.861473 
L 347.165246 -228.148353 
z
" style="stroke: #3d3d3d; stroke-width: 1.875"/>
                </defs>
                <g clip-path="url(#p98f0b1eb95)">
                    <use xlink:href="#m114ec6615a" x="0" y="864"
                         style="fill: #3a923a; stroke: #3d3d3d; stroke-width: 1.875"/>
                </g>
            </g>
            <g id="FillBetweenPolyCollection_4">
                <defs>
                    <path id="m6708156d9f" d="M 442.691324 -228.148353
L 440.731132 -228.148353 
L 439.54669 -231.861473 
L 437.441475 -235.574593 
L 434.153337 -239.287712 
L 429.636289 -243.000832 
L 424.173149 -246.713951 
L 418.351314 -250.427071 
L 412.888742 -254.14019 
L 408.406971 -257.85331 
L 405.285826 -261.56643 
L 403.659816 -265.279549 
L 403.500797 -268.992669 
L 404.684659 -272.705788 
L 406.994527 -276.418908 
L 410.100561 -280.132028 
L 413.585634 -283.845147 
L 417.035188 -287.558267 
L 420.139637 -291.271386 
L 422.742958 -294.984506 
L 424.820634 -298.697625 
L 426.425543 -302.410745 
L 427.646879 -306.123865 
L 428.591539 -309.836984 
L 429.368563 -313.550104 
L 430.064369 -317.263223 
L 430.721495 -320.976343 
L 431.340651 -324.689462 
L 431.905896 -328.402582 
L 432.410756 -332.115702 
L 432.865514 -335.828821 
L 433.287814 -339.541941 
L 433.692446 -343.25506 
L 434.089137 -346.96818 
L 434.484463 -350.681299 
L 434.881896 -354.394419 
L 435.279671 -358.107539 
L 435.669693 -361.820658 
L 436.040177 -365.533778 
L 436.382062 -369.246897 
L 436.694905 -372.960017 
L 436.985829 -376.673137 
L 437.2609 -380.386256 
L 437.518046 -384.099376 
L 437.751069 -387.812495 
L 437.961557 -391.525615 
L 438.164024 -395.238734 
L 438.375096 -398.951854 
L 438.595578 -402.664974 
L 438.804438 -406.378093 
L 438.973503 -410.091213 
L 439.091051 -413.804332 
L 439.172476 -417.517452 
L 439.247234 -421.230571 
L 439.332862 -424.943691 
L 439.419441 -428.656811 
L 439.479741 -432.36993 
L 439.497483 -436.08305 
L 439.488455 -439.796169 
L 439.493896 -443.509289 
L 439.55066 -447.222409 
L 439.664571 -450.935528 
L 439.809944 -454.648648 
L 439.952935 -458.361767 
L 440.075833 -462.074887 
L 440.182952 -465.788006 
L 440.288878 -469.501126 
L 440.403961 -473.214246 
L 440.528765 -476.927365 
L 440.657082 -480.640485 
L 440.780396 -484.353604 
L 440.889825 -488.066724 
L 440.977396 -491.779843 
L 441.038954 -495.492963 
L 441.076973 -499.206083 
L 441.100191 -502.919202 
L 441.120306 -506.632322 
L 441.148423 -510.345441 
L 441.192096 -514.058561 
L 441.251995 -517.771681 
L 441.319391 -521.4848 
L 441.378283 -525.19792 
L 441.413424 -528.911039 
L 441.419595 -532.624159 
L 441.405321 -536.337278 
L 441.388347 -540.050398 
L 441.386203 -543.763518 
L 441.407684 -547.476637 
L 441.449386 -551.189757 
L 441.498174 -554.902876 
L 441.537909 -558.615996 
L 441.557308 -562.329115 
L 441.555372 -566.042235 
L 441.541652 -569.755355 
L 441.530989 -573.468474 
L 441.535488 -577.181594 
L 441.558533 -580.894713 
L 441.594359 -584.607833 
L 441.632777 -588.320952 
L 441.665116 -592.034072 
L 441.687509 -595.747192 
L 441.734948 -595.747192 
L 441.734948 -595.747192 
L 441.757341 -592.034072 
L 441.789679 -588.320952 
L 441.828097 -584.607833 
L 441.863923 -580.894713 
L 441.886968 -577.181594 
L 441.891468 -573.468474 
L 441.880804 -569.755355 
L 441.867085 -566.042235 
L 441.865149 -562.329115 
L 441.884548 -558.615996 
L 441.924282 -554.902876 
L 441.97307 -551.189757 
L 442.014773 -547.476637 
L 442.036254 -543.763518 
L 442.03411 -540.050398 
L 442.017136 -536.337278 
L 442.002862 -532.624159 
L 442.009033 -528.911039 
L 442.044173 -525.19792 
L 442.103066 -521.4848 
L 442.170462 -517.771681 
L 442.230361 -514.058561 
L 442.274034 -510.345441 
L 442.30215 -506.632322 
L 442.322266 -502.919202 
L 442.345484 -499.206083 
L 442.383503 -495.492963 
L 442.445061 -491.779843 
L 442.532632 -488.066724 
L 442.64206 -484.353604 
L 442.765375 -480.640485 
L 442.893692 -476.927365 
L 443.018496 -473.214246 
L 443.133579 -469.501126 
L 443.239504 -465.788006 
L 443.346623 -462.074887 
L 443.469522 -458.361767 
L 443.612513 -454.648648 
L 443.757886 -450.935528 
L 443.871797 -447.222409 
L 443.92856 -443.509289 
L 443.934002 -439.796169 
L 443.924974 -436.08305 
L 443.942716 -432.36993 
L 444.003015 -428.656811 
L 444.089595 -424.943691 
L 444.175222 -421.230571 
L 444.249981 -417.517452 
L 444.331406 -413.804332 
L 444.448953 -410.091213 
L 444.618019 -406.378093 
L 444.826878 -402.664974 
L 445.047361 -398.951854 
L 445.258432 -395.238734 
L 445.460899 -391.525615 
L 445.671387 -387.812495 
L 445.90441 -384.099376 
L 446.161556 -380.386256 
L 446.436628 -376.673137 
L 446.727551 -372.960017 
L 447.040394 -369.246897 
L 447.382279 -365.533778 
L 447.752764 -361.820658 
L 448.142786 -358.107539 
L 448.54056 -354.394419 
L 448.937993 -350.681299 
L 449.333319 -346.96818 
L 449.73001 -343.25506 
L 450.134642 -339.541941 
L 450.556943 -335.828821 
L 451.011701 -332.115702 
L 451.516561 -328.402582 
L 452.081806 -324.689462 
L 452.700961 -320.976343 
L 453.358088 -317.263223 
L 454.053894 -313.550104 
L 454.830918 -309.836984 
L 455.775578 -306.123865 
L 456.996914 -302.410745 
L 458.601822 -298.697625 
L 460.679499 -294.984506 
L 463.28282 -291.271386 
L 466.387269 -287.558267 
L 469.836822 -283.845147 
L 473.321895 -280.132028 
L 476.42793 -276.418908 
L 478.737798 -272.705788 
L 479.92166 -268.992669 
L 479.762641 -265.279549 
L 478.136631 -261.56643 
L 475.015486 -257.85331 
L 470.533715 -254.14019 
L 465.071142 -250.427071 
L 459.249307 -246.713951 
L 453.786167 -243.000832 
L 449.269119 -239.287712 
L 445.980982 -235.574593 
L 443.875767 -231.861473 
L 442.691324 -228.148353 
z
" style="stroke: #3d3d3d; stroke-width: 1.875"/>
                </defs>
                <g clip-path="url(#p98f0b1eb95)">
                    <use xlink:href="#m6708156d9f" x="0" y="864"
                         style="fill: #c03d3e; stroke: #3d3d3d; stroke-width: 1.875"/>
                </g>
            </g>
            <g id="FillBetweenPolyCollection_5">
                <defs>
                    <path id="mead7fa4d4e" d="M 538.217402 -228.148353
L 536.25721 -228.148353 
L 535.072768 -231.861473 
L 532.967553 -235.574593 
L 529.679415 -239.287712 
L 525.162367 -243.000832 
L 519.699228 -246.713951 
L 513.877392 -250.427071 
L 508.41482 -254.14019 
L 503.933049 -257.85331 
L 500.811904 -261.56643 
L 499.185894 -265.279549 
L 499.026875 -268.992669 
L 500.210737 -272.705788 
L 502.520605 -276.418908 
L 505.626639 -280.132028 
L 509.111713 -283.845147 
L 512.561266 -287.558267 
L 515.665715 -291.271386 
L 518.269036 -294.984506 
L 520.346712 -298.697625 
L 521.951621 -302.410745 
L 523.172957 -306.123865 
L 524.117617 -309.836984 
L 524.894641 -313.550104 
L 525.590447 -317.263223 
L 526.247573 -320.976343 
L 526.866729 -324.689462 
L 527.431974 -328.402582 
L 527.936834 -332.115702 
L 528.391592 -335.828821 
L 528.813892 -339.541941 
L 529.218525 -343.25506 
L 529.615215 -346.96818 
L 530.010541 -350.681299 
L 530.407975 -354.394419 
L 530.805749 -358.107539 
L 531.195771 -361.820658 
L 531.566255 -365.533778 
L 531.90814 -369.246897 
L 532.220983 -372.960017 
L 532.511907 -376.673137 
L 532.786978 -380.386256 
L 533.044125 -384.099376 
L 533.277148 -387.812495 
L 533.487635 -391.525615 
L 533.690103 -395.238734 
L 533.901174 -398.951854 
L 534.121656 -402.664974 
L 534.330516 -406.378093 
L 534.499581 -410.091213 
L 534.617129 -413.804332 
L 534.698554 -417.517452 
L 534.773313 -421.230571 
L 534.85894 -424.943691 
L 534.94552 -428.656811 
L 535.005819 -432.36993 
L 535.023561 -436.08305 
L 535.014533 -439.796169 
L 535.019975 -443.509289 
L 535.076738 -447.222409 
L 535.190649 -450.935528 
L 535.336022 -454.648648 
L 535.479013 -458.361767 
L 535.601911 -462.074887 
L 535.70903 -465.788006 
L 535.814956 -469.501126 
L 535.930039 -473.214246 
L 536.054843 -476.927365 
L 536.18316 -480.640485 
L 536.306475 -484.353604 
L 536.415903 -488.066724 
L 536.503474 -491.779843 
L 536.565032 -495.492963 
L 536.603051 -499.206083 
L 536.626269 -502.919202 
L 536.646384 -506.632322 
L 536.674501 -510.345441 
L 536.718174 -514.058561 
L 536.778073 -517.771681 
L 536.845469 -521.4848 
L 536.904361 -525.19792 
L 536.939502 -528.911039 
L 536.945673 -532.624159 
L 536.931399 -536.337278 
L 536.914425 -540.050398 
L 536.912281 -543.763518 
L 536.933762 -547.476637 
L 536.975465 -551.189757 
L 537.024253 -554.902876 
L 537.063987 -558.615996 
L 537.083386 -562.329115 
L 537.08145 -566.042235 
L 537.067731 -569.755355 
L 537.057067 -573.468474 
L 537.061567 -577.181594 
L 537.084611 -580.894713 
L 537.120437 -584.607833 
L 537.158855 -588.320952 
L 537.191194 -592.034072 
L 537.213587 -595.747192 
L 537.261026 -595.747192 
L 537.261026 -595.747192 
L 537.283419 -592.034072 
L 537.315757 -588.320952 
L 537.354175 -584.607833 
L 537.390002 -580.894713 
L 537.413046 -577.181594 
L 537.417546 -573.468474 
L 537.406882 -569.755355 
L 537.393163 -566.042235 
L 537.391227 -562.329115 
L 537.410626 -558.615996 
L 537.45036 -554.902876 
L 537.499148 -551.189757 
L 537.540851 -547.476637 
L 537.562332 -543.763518 
L 537.560188 -540.050398 
L 537.543214 -536.337278 
L 537.52894 -532.624159 
L 537.535111 -528.911039 
L 537.570252 -525.19792 
L 537.629144 -521.4848 
L 537.69654 -517.771681 
L 537.756439 -514.058561 
L 537.800112 -510.345441 
L 537.828228 -506.632322 
L 537.848344 -502.919202 
L 537.871562 -499.206083 
L 537.909581 -495.492963 
L 537.971139 -491.779843 
L 538.05871 -488.066724 
L 538.168138 -484.353604 
L 538.291453 -480.640485 
L 538.41977 -476.927365 
L 538.544574 -473.214246 
L 538.659657 -469.501126 
L 538.765583 -465.788006 
L 538.872702 -462.074887 
L 538.9956 -458.361767 
L 539.138591 -454.648648 
L 539.283964 -450.935528 
L 539.397875 -447.222409 
L 539.454638 -443.509289 
L 539.46008 -439.796169 
L 539.451052 -436.08305 
L 539.468794 -432.36993 
L 539.529093 -428.656811 
L 539.615673 -424.943691 
L 539.7013 -421.230571 
L 539.776059 -417.517452 
L 539.857484 -413.804332 
L 539.975031 -410.091213 
L 540.144097 -406.378093 
L 540.352956 -402.664974 
L 540.573439 -398.951854 
L 540.78451 -395.238734 
L 540.986978 -391.525615 
L 541.197465 -387.812495 
L 541.430488 -384.099376 
L 541.687634 -380.386256 
L 541.962706 -376.673137 
L 542.25363 -372.960017 
L 542.566472 -369.246897 
L 542.908358 -365.533778 
L 543.278842 -361.820658 
L 543.668864 -358.107539 
L 544.066638 -354.394419 
L 544.464071 -350.681299 
L 544.859397 -346.96818 
L 545.256088 -343.25506 
L 545.66072 -339.541941 
L 546.083021 -335.828821 
L 546.537779 -332.115702 
L 547.042639 -328.402582 
L 547.607884 -324.689462 
L 548.227039 -320.976343 
L 548.884166 -317.263223 
L 549.579972 -313.550104 
L 550.356996 -309.836984 
L 551.301656 -306.123865 
L 552.522992 -302.410745 
L 554.127901 -298.697625 
L 556.205577 -294.984506 
L 558.808898 -291.271386 
L 561.913347 -287.558267 
L 565.3629 -283.845147 
L 568.847974 -280.132028 
L 571.954008 -276.418908 
L 574.263876 -272.705788 
L 575.447738 -268.992669 
L 575.288719 -265.279549 
L 573.662709 -261.56643 
L 570.541564 -257.85331 
L 566.059793 -254.14019 
L 560.597221 -250.427071 
L 554.775385 -246.713951 
L 549.312245 -243.000832 
L 544.795198 -239.287712 
L 541.50706 -235.574593 
L 539.401845 -231.861473 
L 538.217402 -228.148353 
z
" style="stroke: #3d3d3d; stroke-width: 1.875"/>
                </defs>
                <g clip-path="url(#p98f0b1eb95)">
                    <use xlink:href="#mead7fa4d4e" x="0" y="864"
                         style="fill: #9372b2; stroke: #3d3d3d; stroke-width: 1.875"/>
                </g>
            </g>
            <g id="FillBetweenPolyCollection_6">
                <defs>
                    <path id="mee953f3987" d="M 633.743481 -228.148353
L 631.783289 -228.148353 
L 630.598846 -231.861473 
L 628.493631 -235.574593 
L 625.205493 -239.287712 
L 620.688446 -243.000832 
L 615.225306 -246.713951 
L 609.40347 -250.427071 
L 603.940898 -254.14019 
L 599.459127 -257.85331 
L 596.337982 -261.56643 
L 594.711972 -265.279549 
L 594.552953 -268.992669 
L 595.736815 -272.705788 
L 598.046683 -276.418908 
L 601.152717 -280.132028 
L 604.637791 -283.845147 
L 608.087344 -287.558267 
L 611.191793 -291.271386 
L 613.795114 -294.984506 
L 615.87279 -298.697625 
L 617.477699 -302.410745 
L 618.699035 -306.123865 
L 619.643695 -309.836984 
L 620.420719 -313.550104 
L 621.116525 -317.263223 
L 621.773652 -320.976343 
L 622.392807 -324.689462 
L 622.958052 -328.402582 
L 623.462912 -332.115702 
L 623.91767 -335.828821 
L 624.339971 -339.541941 
L 624.744603 -343.25506 
L 625.141293 -346.96818 
L 625.53662 -350.681299 
L 625.934053 -354.394419 
L 626.331827 -358.107539 
L 626.721849 -361.820658 
L 627.092333 -365.533778 
L 627.434219 -369.246897 
L 627.747061 -372.960017 
L 628.037985 -376.673137 
L 628.313057 -380.386256 
L 628.570203 -384.099376 
L 628.803226 -387.812495 
L 629.013713 -391.525615 
L 629.216181 -395.238734 
L 629.427252 -398.951854 
L 629.647735 -402.664974 
L 629.856594 -406.378093 
L 630.02566 -410.091213 
L 630.143207 -413.804332 
L 630.224632 -417.517452 
L 630.299391 -421.230571 
L 630.385018 -424.943691 
L 630.471598 -428.656811 
L 630.531897 -432.36993 
L 630.549639 -436.08305 
L 630.540611 -439.796169 
L 630.546053 -443.509289 
L 630.602816 -447.222409 
L 630.716727 -450.935528 
L 630.8621 -454.648648 
L 631.005091 -458.361767 
L 631.127989 -462.074887 
L 631.235108 -465.788006 
L 631.341034 -469.501126 
L 631.456117 -473.214246 
L 631.580921 -476.927365 
L 631.709238 -480.640485 
L 631.832553 -484.353604 
L 631.941981 -488.066724 
L 632.029552 -491.779843 
L 632.09111 -495.492963 
L 632.129129 -499.206083 
L 632.152347 -502.919202 
L 632.172463 -506.632322 
L 632.200579 -510.345441 
L 632.244252 -514.058561 
L 632.304151 -517.771681 
L 632.371547 -521.4848 
L 632.430439 -525.19792 
L 632.46558 -528.911039 
L 632.471751 -532.624159 
L 632.457477 -536.337278 
L 632.440503 -540.050398 
L 632.438359 -543.763518 
L 632.45984 -547.476637 
L 632.501543 -551.189757 
L 632.550331 -554.902876 
L 632.590065 -558.615996 
L 632.609464 -562.329115 
L 632.607528 -566.042235 
L 632.593809 -569.755355 
L 632.583145 -573.468474 
L 632.587645 -577.181594 
L 632.610689 -580.894713 
L 632.646516 -584.607833 
L 632.684933 -588.320952 
L 632.717272 -592.034072 
L 632.739665 -595.747192 
L 632.787104 -595.747192 
L 632.787104 -595.747192 
L 632.809497 -592.034072 
L 632.841836 -588.320952 
L 632.880253 -584.607833 
L 632.91608 -580.894713 
L 632.939124 -577.181594 
L 632.943624 -573.468474 
L 632.93296 -569.755355 
L 632.919241 -566.042235 
L 632.917305 -562.329115 
L 632.936704 -558.615996 
L 632.976438 -554.902876 
L 633.025226 -551.189757 
L 633.066929 -547.476637 
L 633.08841 -543.763518 
L 633.086266 -540.050398 
L 633.069292 -536.337278 
L 633.055018 -532.624159 
L 633.061189 -528.911039 
L 633.09633 -525.19792 
L 633.155222 -521.4848 
L 633.222618 -517.771681 
L 633.282517 -514.058561 
L 633.32619 -510.345441 
L 633.354306 -506.632322 
L 633.374422 -502.919202 
L 633.39764 -499.206083 
L 633.435659 -495.492963 
L 633.497217 -491.779843 
L 633.584788 -488.066724 
L 633.694216 -484.353604 
L 633.817531 -480.640485 
L 633.945848 -476.927365 
L 634.070652 -473.214246 
L 634.185735 -469.501126 
L 634.291661 -465.788006 
L 634.39878 -462.074887 
L 634.521678 -458.361767 
L 634.664669 -454.648648 
L 634.810042 -450.935528 
L 634.923953 -447.222409 
L 634.980716 -443.509289 
L 634.986158 -439.796169 
L 634.97713 -436.08305 
L 634.994872 -432.36993 
L 635.055171 -428.656811 
L 635.141751 -424.943691 
L 635.227378 -421.230571 
L 635.302137 -417.517452 
L 635.383562 -413.804332 
L 635.501109 -410.091213 
L 635.670175 -406.378093 
L 635.879034 -402.664974 
L 636.099517 -398.951854 
L 636.310588 -395.238734 
L 636.513056 -391.525615 
L 636.723543 -387.812495 
L 636.956566 -384.099376 
L 637.213713 -380.386256 
L 637.488784 -376.673137 
L 637.779708 -372.960017 
L 638.09255 -369.246897 
L 638.434436 -365.533778 
L 638.80492 -361.820658 
L 639.194942 -358.107539 
L 639.592716 -354.394419 
L 639.990149 -350.681299 
L 640.385476 -346.96818 
L 640.782166 -343.25506 
L 641.186799 -339.541941 
L 641.609099 -335.828821 
L 642.063857 -332.115702 
L 642.568717 -328.402582 
L 643.133962 -324.689462 
L 643.753118 -320.976343 
L 644.410244 -317.263223 
L 645.10605 -313.550104 
L 645.883074 -309.836984 
L 646.827734 -306.123865 
L 648.04907 -302.410745 
L 649.653979 -298.697625 
L 651.731655 -294.984506 
L 654.334976 -291.271386 
L 657.439425 -287.558267 
L 660.888978 -283.845147 
L 664.374052 -280.132028 
L 667.480086 -276.418908 
L 669.789954 -272.705788 
L 670.973816 -268.992669 
L 670.814797 -265.279549 
L 669.188787 -261.56643 
L 666.067642 -257.85331 
L 661.585871 -254.14019 
L 656.123299 -250.427071 
L 650.301463 -246.713951 
L 644.838323 -243.000832 
L 640.321276 -239.287712 
L 637.033138 -235.574593 
L 634.927923 -231.861473 
L 633.743481 -228.148353 
z
" style="stroke: #3d3d3d; stroke-width: 1.875"/>
                </defs>
                <g clip-path="url(#p98f0b1eb95)">
                    <use xlink:href="#mee953f3987" x="0" y="864"
                         style="fill: #845b53; stroke: #3d3d3d; stroke-width: 1.875"/>
                </g>
            </g>
            <g id="line2d_8">
                <path d="M 155.132994 587.492852
L 155.132994 315.882938 
" clip-path="url(#p98f0b1eb95)" style="fill: none; stroke: #3d3d3d; stroke-width: 2.8125; stroke-linecap: round"/>
            </g>
            <g id="line2d_9">
                <path d="M 155.132994 581.663531
L 155.132994 466.534446 
" clip-path="url(#p98f0b1eb95)" style="fill: none; stroke: #3d3d3d; stroke-width: 8.4375; stroke-linecap: round"/>
            </g>
            <g id="line2d_10">
                <path d="M 155.132994 539.765288
" clip-path="url(#p98f0b1eb95)" style="fill: none; stroke: #3d3d3d; stroke-width: 2.25; stroke-linecap: round"/>
                <defs>
                    <path id="m1749227e4b" d="M 3.515625 0
L -3.515625 -0 
" style="stroke: #ffffff; stroke-width: 1.6875"/>
                </defs>
                <g clip-path="url(#p98f0b1eb95)">
                    <use xlink:href="#m1749227e4b" x="155.132994" y="539.765288"
                         style="fill: #ffffff; stroke: #ffffff; stroke-width: 1.6875"/>
                </g>
            </g>
            <g id="line2d_11">
                <path d="M 250.659072 594.597337
L 250.659072 315.882938 
" clip-path="url(#p98f0b1eb95)" style="fill: none; stroke: #3d3d3d; stroke-width: 2.8125; stroke-linecap: round"/>
            </g>
            <g id="line2d_12">
                <path d="M 250.659072 581.663531
L 250.659072 466.716612 
" clip-path="url(#p98f0b1eb95)" style="fill: none; stroke: #3d3d3d; stroke-width: 8.4375; stroke-linecap: round"/>
            </g>
            <g id="line2d_13">
                <path d="M 250.659072 539.765288
" clip-path="url(#p98f0b1eb95)" style="fill: none; stroke: #3d3d3d; stroke-width: 2.25; stroke-linecap: round"/>
                <g clip-path="url(#p98f0b1eb95)">
                    <use xlink:href="#m1749227e4b" x="250.659072" y="539.765288"
                         style="fill: #ffffff; stroke: #ffffff; stroke-width: 1.6875"/>
                </g>
            </g>
            <g id="line2d_14">
                <path d="M 346.18515 615.546458
L 346.18515 455.60447 
" clip-path="url(#p98f0b1eb95)" style="fill: none; stroke: #3d3d3d; stroke-width: 2.8125; stroke-linecap: round"/>
            </g>
            <g id="line2d_15">
                <path d="M 346.18515 598.604995
L 346.18515 539.583122 
" clip-path="url(#p98f0b1eb95)" style="fill: none; stroke: #3d3d3d; stroke-width: 8.4375; stroke-linecap: round"/>
            </g>
            <g id="line2d_16">
                <path d="M 346.18515 582.756529
" clip-path="url(#p98f0b1eb95)" style="fill: none; stroke: #3d3d3d; stroke-width: 2.25; stroke-linecap: round"/>
                <g clip-path="url(#p98f0b1eb95)">
                    <use xlink:href="#m1749227e4b" x="346.18515" y="582.756529"
                         style="fill: #ffffff; stroke: #ffffff; stroke-width: 1.6875"/>
                </g>
            </g>
            <g id="line2d_17">
                <path d="M 441.711228 615.546458
L 441.711228 455.60447 
" clip-path="url(#p98f0b1eb95)" style="fill: none; stroke: #3d3d3d; stroke-width: 2.8125; stroke-linecap: round"/>
            </g>
            <g id="line2d_18">
                <path d="M 441.711228 598.604995
L 441.711228 539.583122 
" clip-path="url(#p98f0b1eb95)" style="fill: none; stroke: #3d3d3d; stroke-width: 8.4375; stroke-linecap: round"/>
            </g>
            <g id="line2d_19">
                <path d="M 441.711228 582.756529
" clip-path="url(#p98f0b1eb95)" style="fill: none; stroke: #3d3d3d; stroke-width: 2.25; stroke-linecap: round"/>
                <g clip-path="url(#p98f0b1eb95)">
                    <use xlink:href="#m1749227e4b" x="441.711228" y="582.756529"
                         style="fill: #ffffff; stroke: #ffffff; stroke-width: 1.6875"/>
                </g>
            </g>
            <g id="line2d_20">
                <path d="M 537.237306 615.546458
L 537.237306 455.60447 
" clip-path="url(#p98f0b1eb95)" style="fill: none; stroke: #3d3d3d; stroke-width: 2.8125; stroke-linecap: round"/>
            </g>
            <g id="line2d_21">
                <path d="M 537.237306 598.604995
L 537.237306 539.583122 
" clip-path="url(#p98f0b1eb95)" style="fill: none; stroke: #3d3d3d; stroke-width: 8.4375; stroke-linecap: round"/>
            </g>
            <g id="line2d_22">
                <path d="M 537.237306 582.756529
" clip-path="url(#p98f0b1eb95)" style="fill: none; stroke: #3d3d3d; stroke-width: 2.25; stroke-linecap: round"/>
                <g clip-path="url(#p98f0b1eb95)">
                    <use xlink:href="#m1749227e4b" x="537.237306" y="582.756529"
                         style="fill: #ffffff; stroke: #ffffff; stroke-width: 1.6875"/>
                </g>
            </g>
            <g id="line2d_23">
                <path d="M 632.763385 615.546458
L 632.763385 455.60447 
" clip-path="url(#p98f0b1eb95)" style="fill: none; stroke: #3d3d3d; stroke-width: 2.8125; stroke-linecap: round"/>
            </g>
            <g id="line2d_24">
                <path d="M 632.763385 598.604995
L 632.763385 539.583122 
" clip-path="url(#p98f0b1eb95)" style="fill: none; stroke: #3d3d3d; stroke-width: 8.4375; stroke-linecap: round"/>
            </g>
            <g id="line2d_25">
                <path d="M 632.763385 582.756529
" clip-path="url(#p98f0b1eb95)" style="fill: none; stroke: #3d3d3d; stroke-width: 2.25; stroke-linecap: round"/>
                <g clip-path="url(#p98f0b1eb95)">
                    <use xlink:href="#m1749227e4b" x="632.763385" y="582.756529"
                         style="fill: #ffffff; stroke: #ffffff; stroke-width: 1.6875"/>
                </g>
            </g>
            <g id="line2d_26">
                <path d="M 250.659072 291.160679
L 250.659072 282.919926 
L 346.18515 282.919926 
L 346.18515 291.160679 
" style="fill: none; stroke: #333333; stroke-width: 1.5; stroke-linecap: round"/>
            </g>
            <g id="line2d_27">
                <path d="M 155.132994 261.168539
L 155.132994 252.927786 
L 346.18515 252.927786 
L 346.18515 261.168539 
" style="fill: none; stroke: #333333; stroke-width: 1.5; stroke-linecap: round"/>
            </g>
            <g id="line2d_28">
                <path d="M 250.659072 231.176399
L 250.659072 222.935646 
L 441.711228 222.935646 
L 441.711228 231.176399 
" style="fill: none; stroke: #333333; stroke-width: 1.5; stroke-linecap: round"/>
            </g>
            <g id="line2d_29">
                <path d="M 155.132994 201.18426
L 155.132994 192.943507 
L 441.711228 192.943507 
L 441.711228 201.18426 
" style="fill: none; stroke: #333333; stroke-width: 1.5; stroke-linecap: round"/>
            </g>
            <g id="line2d_30">
                <path d="M 250.659072 171.19212
L 250.659072 162.951367 
L 537.237306 162.951367 
L 537.237306 171.19212 
" style="fill: none; stroke: #333333; stroke-width: 1.5; stroke-linecap: round"/>
            </g>
            <g id="line2d_31">
                <path d="M 155.132994 141.199981
L 155.132994 132.959228 
L 537.237306 132.959228 
L 537.237306 141.199981 
" style="fill: none; stroke: #333333; stroke-width: 1.5; stroke-linecap: round"/>
            </g>
            <g id="line2d_32">
                <path d="M 250.659072 111.207841
L 250.659072 102.967088 
L 632.763385 102.967088 
L 632.763385 111.207841 
" style="fill: none; stroke: #333333; stroke-width: 1.5; stroke-linecap: round"/>
            </g>
            <g id="line2d_33">
                <path d="M 155.132994 81.215701
L 155.132994 72.974948 
L 632.763385 72.974948 
L 632.763385 81.215701 
" style="fill: none; stroke: #333333; stroke-width: 1.5; stroke-linecap: round"/>
            </g>
            <g id="patch_3">
                <path d="M 89.22 654.580631
L 89.22 38.4 
" style="fill: none; stroke: #cccccc; stroke-width: 1.875; stroke-linejoin: miter; stroke-linecap: square"/>
            </g>
            <g id="patch_4">
                <path d="M 698.676378 654.580631
L 698.676378 38.4 
" style="fill: none; stroke: #cccccc; stroke-width: 1.875; stroke-linejoin: miter; stroke-linecap: square"/>
            </g>
            <g id="patch_5">
                <path d="M 89.22 654.580631
L 698.676378 654.580631 
" style="fill: none; stroke: #cccccc; stroke-width: 1.875; stroke-linejoin: miter; stroke-linecap: square"/>
            </g>
            <g id="patch_6">
                <path d="M 89.22 38.4
L 698.676378 38.4 
" style="fill: none; stroke: #cccccc; stroke-width: 1.875; stroke-linejoin: miter; stroke-linecap: square"/>
            </g>
            <g id="text_16">
                <!-- **** -->
                <g style="fill: #262626" transform="translate(284.410236 278.342426) scale(0.18 -0.18)">
                    <defs>
                        <path id="ArialMT-2a" d="M 200 3741
L 344 4184 
Q 841 4009 1066 3881 
Q 1006 4447 1003 4659 
L 1456 4659 
Q 1447 4350 1384 3884 
Q 1706 4047 2122 4184 
L 2266 3741 
Q 1869 3609 1488 3566 
Q 1678 3400 2025 2975 
L 1650 2709 
Q 1469 2956 1222 3381 
Q 991 2941 816 2709 
L 447 2975 
Q 809 3422 966 3566 
Q 563 3644 200 3741 
z
" transform="scale(0.015625)"/>
                    </defs>
                    <use xlink:href="#ArialMT-2a"/>
                    <use xlink:href="#ArialMT-2a" transform="translate(38.916016 0)"/>
                    <use xlink:href="#ArialMT-2a" transform="translate(77.832031 0)"/>
                    <use xlink:href="#ArialMT-2a" transform="translate(116.748047 0)"/>
                </g>
            </g>
            <g id="text_17">
                <!-- **** -->
                <g style="fill: #262626" transform="translate(236.647197 248.350286) scale(0.18 -0.18)">
                    <use xlink:href="#ArialMT-2a"/>
                    <use xlink:href="#ArialMT-2a" transform="translate(38.916016 0)"/>
                    <use xlink:href="#ArialMT-2a" transform="translate(77.832031 0)"/>
                    <use xlink:href="#ArialMT-2a" transform="translate(116.748047 0)"/>
                </g>
            </g>
            <g id="text_18">
                <!-- **** -->
                <g style="fill: #262626" transform="translate(332.173275 218.358146) scale(0.18 -0.18)">
                    <use xlink:href="#ArialMT-2a"/>
                    <use xlink:href="#ArialMT-2a" transform="translate(38.916016 0)"/>
                    <use xlink:href="#ArialMT-2a" transform="translate(77.832031 0)"/>
                    <use xlink:href="#ArialMT-2a" transform="translate(116.748047 0)"/>
                </g>
            </g>
            <g id="text_19">
                <!-- **** -->
                <g style="fill: #262626" transform="translate(284.410236 188.366007) scale(0.18 -0.18)">
                    <use xlink:href="#ArialMT-2a"/>
                    <use xlink:href="#ArialMT-2a" transform="translate(38.916016 0)"/>
                    <use xlink:href="#ArialMT-2a" transform="translate(77.832031 0)"/>
                    <use xlink:href="#ArialMT-2a" transform="translate(116.748047 0)"/>
                </g>
            </g>
            <g id="text_20">
                <!-- **** -->
                <g style="fill: #262626" transform="translate(379.936314 158.373867) scale(0.18 -0.18)">
                    <use xlink:href="#ArialMT-2a"/>
                    <use xlink:href="#ArialMT-2a" transform="translate(38.916016 0)"/>
                    <use xlink:href="#ArialMT-2a" transform="translate(77.832031 0)"/>
                    <use xlink:href="#ArialMT-2a" transform="translate(116.748047 0)"/>
                </g>
            </g>
            <g id="text_21">
                <!-- **** -->
                <g style="fill: #262626" transform="translate(332.173275 128.381728) scale(0.18 -0.18)">
                    <use xlink:href="#ArialMT-2a"/>
                    <use xlink:href="#ArialMT-2a" transform="translate(38.916016 0)"/>
                    <use xlink:href="#ArialMT-2a" transform="translate(77.832031 0)"/>
                    <use xlink:href="#ArialMT-2a" transform="translate(116.748047 0)"/>
                </g>
            </g>
            <g id="text_22">
                <!-- **** -->
                <g style="fill: #262626" transform="translate(427.699353 98.389588) scale(0.18 -0.18)">
                    <use xlink:href="#ArialMT-2a"/>
                    <use xlink:href="#ArialMT-2a" transform="translate(38.916016 0)"/>
                    <use xlink:href="#ArialMT-2a" transform="translate(77.832031 0)"/>
                    <use xlink:href="#ArialMT-2a" transform="translate(116.748047 0)"/>
                </g>
            </g>
            <g id="text_23">
                <!-- **** -->
                <g style="fill: #262626" transform="translate(379.936314 68.397448) scale(0.18 -0.18)">
                    <use xlink:href="#ArialMT-2a"/>
                    <use xlink:href="#ArialMT-2a" transform="translate(38.916016 0)"/>
                    <use xlink:href="#ArialMT-2a" transform="translate(77.832031 0)"/>
                    <use xlink:href="#ArialMT-2a" transform="translate(116.748047 0)"/>
                </g>
            </g>
            <g id="text_24">
                <!-- Ranked Number of Train Compounds per Fold per Target -->
                <g style="fill: #262626" transform="translate(166.511158 32.4) scale(0.18 -0.18)">
                    <defs>
                        <path id="ArialMT-6b" d="M 425 0
L 425 4581 
L 988 4581 
L 988 1969 
L 2319 3319 
L 3047 3319 
L 1778 2088 
L 3175 0 
L 2481 0 
L 1384 1697 
L 988 1316 
L 988 0 
L 425 0 
z
" transform="scale(0.015625)"/>
                        <path id="ArialMT-4e" d="M 488 0
L 488 4581 
L 1109 4581 
L 3516 984 
L 3516 4581 
L 4097 4581 
L 4097 0 
L 3475 0 
L 1069 3600 
L 1069 0 
L 488 0 
z
" transform="scale(0.015625)"/>
                        <path id="ArialMT-54" d="M 1659 0
L 1659 4041 
L 150 4041 
L 150 4581 
L 3781 4581 
L 3781 4041 
L 2266 4041 
L 2266 0 
L 1659 0 
z
" transform="scale(0.015625)"/>
                    </defs>
                    <use xlink:href="#ArialMT-52"/>
                    <use xlink:href="#ArialMT-61" transform="translate(72.216797 0)"/>
                    <use xlink:href="#ArialMT-6e" transform="translate(127.832031 0)"/>
                    <use xlink:href="#ArialMT-6b" transform="translate(183.447266 0)"/>
                    <use xlink:href="#ArialMT-65" transform="translate(233.447266 0)"/>
                    <use xlink:href="#ArialMT-64" transform="translate(289.0625 0)"/>
                    <use xlink:href="#ArialMT-20" transform="translate(344.677734 0)"/>
                    <use xlink:href="#ArialMT-4e" transform="translate(372.460938 0)"/>
                    <use xlink:href="#ArialMT-75" transform="translate(444.677734 0)"/>
                    <use xlink:href="#ArialMT-6d" transform="translate(500.292969 0)"/>
                    <use xlink:href="#ArialMT-62" transform="translate(583.59375 0)"/>
                    <use xlink:href="#ArialMT-65" transform="translate(639.208984 0)"/>
                    <use xlink:href="#ArialMT-72" transform="translate(694.824219 0)"/>
                    <use xlink:href="#ArialMT-20" transform="translate(728.125 0)"/>
                    <use xlink:href="#ArialMT-6f" transform="translate(755.908203 0)"/>
                    <use xlink:href="#ArialMT-66" transform="translate(811.523438 0)"/>
                    <use xlink:href="#ArialMT-20" transform="translate(839.306641 0)"/>
                    <use xlink:href="#ArialMT-54" transform="translate(865.339844 0)"/>
                    <use xlink:href="#ArialMT-72" transform="translate(922.673828 0)"/>
                    <use xlink:href="#ArialMT-61" transform="translate(955.974609 0)"/>
                    <use xlink:href="#ArialMT-69" transform="translate(1011.589844 0)"/>
                    <use xlink:href="#ArialMT-6e" transform="translate(1033.806641 0)"/>
                    <use xlink:href="#ArialMT-20" transform="translate(1089.421875 0)"/>
                    <use xlink:href="#ArialMT-43" transform="translate(1117.205078 0)"/>
                    <use xlink:href="#ArialMT-6f" transform="translate(1189.421875 0)"/>
                    <use xlink:href="#ArialMT-6d" transform="translate(1245.037109 0)"/>
                    <use xlink:href="#ArialMT-70" transform="translate(1328.337891 0)"/>
                    <use xlink:href="#ArialMT-6f" transform="translate(1383.953125 0)"/>
                    <use xlink:href="#ArialMT-75" transform="translate(1439.568359 0)"/>
                    <use xlink:href="#ArialMT-6e" transform="translate(1495.183594 0)"/>
                    <use xlink:href="#ArialMT-64" transform="translate(1550.798828 0)"/>
                    <use xlink:href="#ArialMT-73" transform="translate(1606.414062 0)"/>
                    <use xlink:href="#ArialMT-20" transform="translate(1656.414062 0)"/>
                    <use xlink:href="#ArialMT-70" transform="translate(1684.197266 0)"/>
                    <use xlink:href="#ArialMT-65" transform="translate(1739.8125 0)"/>
                    <use xlink:href="#ArialMT-72" transform="translate(1795.427734 0)"/>
                    <use xlink:href="#ArialMT-20" transform="translate(1828.728516 0)"/>
                    <use xlink:href="#ArialMT-46" transform="translate(1856.511719 0)"/>
                    <use xlink:href="#ArialMT-6f" transform="translate(1917.595703 0)"/>
                    <use xlink:href="#ArialMT-6c" transform="translate(1973.210938 0)"/>
                    <use xlink:href="#ArialMT-64" transform="translate(1995.427734 0)"/>
                    <use xlink:href="#ArialMT-20" transform="translate(2051.042969 0)"/>
                    <use xlink:href="#ArialMT-70" transform="translate(2078.826172 0)"/>
                    <use xlink:href="#ArialMT-65" transform="translate(2134.441406 0)"/>
                    <use xlink:href="#ArialMT-72" transform="translate(2190.056641 0)"/>
                    <use xlink:href="#ArialMT-20" transform="translate(2223.357422 0)"/>
                    <use xlink:href="#ArialMT-54" transform="translate(2249.390625 0)"/>
                    <use xlink:href="#ArialMT-61" transform="translate(2299.349609 0)"/>
                    <use xlink:href="#ArialMT-72" transform="translate(2354.964844 0)"/>
                    <use xlink:href="#ArialMT-67" transform="translate(2388.265625 0)"/>
                    <use xlink:href="#ArialMT-65" transform="translate(2443.880859 0)"/>
                    <use xlink:href="#ArialMT-74" transform="translate(2499.496094 0)"/>
                </g>
            </g>
        </g>
    </g>
    <defs>
        <clipPath id="p98f0b1eb95">
            <rect x="89.22" y="38.4" width="609.456378" height="616.180631"/>
        </clipPath>
    </defs>
</svg>
