<?xml version="1.0" encoding="utf-8" standalone="no"?>
<!DOCTYPE svg PUBLIC "-//W3C//DTD SVG 1.1//EN"
  "http://www.w3.org/Graphics/SVG/1.1/DTD/svg11.dtd">
<svg xmlns:xlink="http://www.w3.org/1999/xlink" width="720pt" height="864pt" viewBox="0 0 720 864" xmlns="http://www.w3.org/2000/svg" version="1.1">
 <metadata>
  <rdf:RDF xmlns:dc="http://purl.org/dc/elements/1.1/" xmlns:cc="http://creativecommons.org/ns#" xmlns:rdf="http://www.w3.org/1999/02/22-rdf-syntax-ns#">
   <cc:Work>
    <dc:type rdf:resource="http://purl.org/dc/dcmitype/StillImage"/>
    <dc:date>2025-02-25T23:42:53.120313</dc:date>
    <dc:format>image/svg+xml</dc:format>
    <dc:creator>
     <cc:Agent>
      <dc:title>Matplotlib v3.10.0, https://matplotlib.org/</dc:title>
     </cc:Agent>
    </dc:creator>
   </cc:Work>
  </rdf:RDF>
 </metadata>
 <defs>
  <style type="text/css">*{stroke-linejoin: round; stroke-linecap: butt}</style>
 </defs>
 <g id="figure_1">
  <g id="patch_1">
   <path d="M 0 864 
L 720 864 
L 720 0 
L 0 0 
z
" style="fill: #ffffff"/>
  </g>
  <g id="axes_1">
   <g id="patch_2">
    <path d="M 69.846 645.866348 
L 692.917651 645.866348 
L 692.917651 40.416 
L 69.846 40.416 
z
" style="fill: #ffffff"/>
   </g>
   <g id="matplotlib.axis_1">
    <g id="xtick_1">
     <g id="text_1">
      <!-- RandomSplit -->
      <g style="fill: #262626" transform="translate(104.901509 734.472111) rotate(-45) scale(0.176 -0.176)">
       <defs>
        <path id="ArialMT-52" d="M 503 0 
L 503 4581 
L 2534 4581 
Q 3147 4581 3465 4457 
Q 3784 4334 3975 4021 
Q 4166 3709 4166 3331 
Q 4166 2844 3850 2509 
Q 3534 2175 2875 2084 
Q 3116 1969 3241 1856 
Q 3506 1613 3744 1247 
L 4541 0 
L 3778 0 
L 3172 953 
Q 2906 1366 2734 1584 
Q 2563 1803 2427 1890 
Q 2291 1978 2150 2013 
Q 2047 2034 1813 2034 
L 1109 2034 
L 1109 0 
L 503 0 
z
M 1109 2559 
L 2413 2559 
Q 2828 2559 3062 2645 
Q 3297 2731 3419 2920 
Q 3541 3109 3541 3331 
Q 3541 3656 3305 3865 
Q 3069 4075 2559 4075 
L 1109 4075 
L 1109 2559 
z
" transform="scale(0.015625)"/>
        <path id="ArialMT-61" d="M 2588 409 
Q 2275 144 1986 34 
Q 1697 -75 1366 -75 
Q 819 -75 525 192 
Q 231 459 231 875 
Q 231 1119 342 1320 
Q 453 1522 633 1644 
Q 813 1766 1038 1828 
Q 1203 1872 1538 1913 
Q 2219 1994 2541 2106 
Q 2544 2222 2544 2253 
Q 2544 2597 2384 2738 
Q 2169 2928 1744 2928 
Q 1347 2928 1158 2789 
Q 969 2650 878 2297 
L 328 2372 
Q 403 2725 575 2942 
Q 747 3159 1072 3276 
Q 1397 3394 1825 3394 
Q 2250 3394 2515 3294 
Q 2781 3194 2906 3042 
Q 3031 2891 3081 2659 
Q 3109 2516 3109 2141 
L 3109 1391 
Q 3109 606 3145 398 
Q 3181 191 3288 0 
L 2700 0 
Q 2613 175 2588 409 
z
M 2541 1666 
Q 2234 1541 1622 1453 
Q 1275 1403 1131 1340 
Q 988 1278 909 1158 
Q 831 1038 831 891 
Q 831 666 1001 516 
Q 1172 366 1500 366 
Q 1825 366 2078 508 
Q 2331 650 2450 897 
Q 2541 1088 2541 1459 
L 2541 1666 
z
" transform="scale(0.015625)"/>
        <path id="ArialMT-6e" d="M 422 0 
L 422 3319 
L 928 3319 
L 928 2847 
Q 1294 3394 1984 3394 
Q 2284 3394 2536 3286 
Q 2788 3178 2913 3003 
Q 3038 2828 3088 2588 
Q 3119 2431 3119 2041 
L 3119 0 
L 2556 0 
L 2556 2019 
Q 2556 2363 2490 2533 
Q 2425 2703 2258 2804 
Q 2091 2906 1866 2906 
Q 1506 2906 1245 2678 
Q 984 2450 984 1813 
L 984 0 
L 422 0 
z
" transform="scale(0.015625)"/>
        <path id="ArialMT-64" d="M 2575 0 
L 2575 419 
Q 2259 -75 1647 -75 
Q 1250 -75 917 144 
Q 584 363 401 755 
Q 219 1147 219 1656 
Q 219 2153 384 2558 
Q 550 2963 881 3178 
Q 1213 3394 1622 3394 
Q 1922 3394 2156 3267 
Q 2391 3141 2538 2938 
L 2538 4581 
L 3097 4581 
L 3097 0 
L 2575 0 
z
M 797 1656 
Q 797 1019 1065 703 
Q 1334 388 1700 388 
Q 2069 388 2326 689 
Q 2584 991 2584 1609 
Q 2584 2291 2321 2609 
Q 2059 2928 1675 2928 
Q 1300 2928 1048 2622 
Q 797 2316 797 1656 
z
" transform="scale(0.015625)"/>
        <path id="ArialMT-6f" d="M 213 1659 
Q 213 2581 725 3025 
Q 1153 3394 1769 3394 
Q 2453 3394 2887 2945 
Q 3322 2497 3322 1706 
Q 3322 1066 3130 698 
Q 2938 331 2570 128 
Q 2203 -75 1769 -75 
Q 1072 -75 642 372 
Q 213 819 213 1659 
z
M 791 1659 
Q 791 1022 1069 705 
Q 1347 388 1769 388 
Q 2188 388 2466 706 
Q 2744 1025 2744 1678 
Q 2744 2294 2464 2611 
Q 2184 2928 1769 2928 
Q 1347 2928 1069 2612 
Q 791 2297 791 1659 
z
" transform="scale(0.015625)"/>
        <path id="ArialMT-6d" d="M 422 0 
L 422 3319 
L 925 3319 
L 925 2853 
Q 1081 3097 1340 3245 
Q 1600 3394 1931 3394 
Q 2300 3394 2536 3241 
Q 2772 3088 2869 2813 
Q 3263 3394 3894 3394 
Q 4388 3394 4653 3120 
Q 4919 2847 4919 2278 
L 4919 0 
L 4359 0 
L 4359 2091 
Q 4359 2428 4304 2576 
Q 4250 2725 4106 2815 
Q 3963 2906 3769 2906 
Q 3419 2906 3187 2673 
Q 2956 2441 2956 1928 
L 2956 0 
L 2394 0 
L 2394 2156 
Q 2394 2531 2256 2718 
Q 2119 2906 1806 2906 
Q 1569 2906 1367 2781 
Q 1166 2656 1075 2415 
Q 984 2175 984 1722 
L 984 0 
L 422 0 
z
" transform="scale(0.015625)"/>
        <path id="ArialMT-53" d="M 288 1472 
L 859 1522 
Q 900 1178 1048 958 
Q 1197 738 1509 602 
Q 1822 466 2213 466 
Q 2559 466 2825 569 
Q 3091 672 3220 851 
Q 3350 1031 3350 1244 
Q 3350 1459 3225 1620 
Q 3100 1781 2813 1891 
Q 2628 1963 1997 2114 
Q 1366 2266 1113 2400 
Q 784 2572 623 2826 
Q 463 3081 463 3397 
Q 463 3744 659 4045 
Q 856 4347 1234 4503 
Q 1613 4659 2075 4659 
Q 2584 4659 2973 4495 
Q 3363 4331 3572 4012 
Q 3781 3694 3797 3291 
L 3216 3247 
Q 3169 3681 2898 3903 
Q 2628 4125 2100 4125 
Q 1550 4125 1298 3923 
Q 1047 3722 1047 3438 
Q 1047 3191 1225 3031 
Q 1400 2872 2139 2705 
Q 2878 2538 3153 2413 
Q 3553 2228 3743 1945 
Q 3934 1663 3934 1294 
Q 3934 928 3725 604 
Q 3516 281 3123 101 
Q 2731 -78 2241 -78 
Q 1619 -78 1198 103 
Q 778 284 539 648 
Q 300 1013 288 1472 
z
" transform="scale(0.015625)"/>
        <path id="ArialMT-70" d="M 422 -1272 
L 422 3319 
L 934 3319 
L 934 2888 
Q 1116 3141 1344 3267 
Q 1572 3394 1897 3394 
Q 2322 3394 2647 3175 
Q 2972 2956 3137 2557 
Q 3303 2159 3303 1684 
Q 3303 1175 3120 767 
Q 2938 359 2589 142 
Q 2241 -75 1856 -75 
Q 1575 -75 1351 44 
Q 1128 163 984 344 
L 984 -1272 
L 422 -1272 
z
M 931 1641 
Q 931 1000 1190 694 
Q 1450 388 1819 388 
Q 2194 388 2461 705 
Q 2728 1022 2728 1688 
Q 2728 2322 2467 2637 
Q 2206 2953 1844 2953 
Q 1484 2953 1207 2617 
Q 931 2281 931 1641 
z
" transform="scale(0.015625)"/>
        <path id="ArialMT-6c" d="M 409 0 
L 409 4581 
L 972 4581 
L 972 0 
L 409 0 
z
" transform="scale(0.015625)"/>
        <path id="ArialMT-69" d="M 425 3934 
L 425 4581 
L 988 4581 
L 988 3934 
L 425 3934 
z
M 425 0 
L 425 3319 
L 988 3319 
L 988 0 
L 425 0 
z
" transform="scale(0.015625)"/>
        <path id="ArialMT-74" d="M 1650 503 
L 1731 6 
Q 1494 -44 1306 -44 
Q 1000 -44 831 53 
Q 663 150 594 308 
Q 525 466 525 972 
L 525 2881 
L 113 2881 
L 113 3319 
L 525 3319 
L 525 4141 
L 1084 4478 
L 1084 3319 
L 1650 3319 
L 1650 2881 
L 1084 2881 
L 1084 941 
Q 1084 700 1114 631 
Q 1144 563 1211 522 
Q 1278 481 1403 481 
Q 1497 481 1650 503 
z
" transform="scale(0.015625)"/>
       </defs>
       <use xlink:href="#ArialMT-52"/>
       <use xlink:href="#ArialMT-61" transform="translate(72.216797 0)"/>
       <use xlink:href="#ArialMT-6e" transform="translate(127.832031 0)"/>
       <use xlink:href="#ArialMT-64" transform="translate(183.447266 0)"/>
       <use xlink:href="#ArialMT-6f" transform="translate(239.0625 0)"/>
       <use xlink:href="#ArialMT-6d" transform="translate(294.677734 0)"/>
       <use xlink:href="#ArialMT-53" transform="translate(377.978516 0)"/>
       <use xlink:href="#ArialMT-70" transform="translate(444.677734 0)"/>
       <use xlink:href="#ArialMT-6c" transform="translate(500.292969 0)"/>
       <use xlink:href="#ArialMT-69" transform="translate(522.509766 0)"/>
       <use xlink:href="#ArialMT-74" transform="translate(544.726562 0)"/>
      </g>
     </g>
    </g>
    <g id="xtick_2">
     <g id="text_2">
      <!-- ScaffoldSplit -->
      <g style="fill: #262626" transform="translate(203.706007 732.183383) rotate(-45) scale(0.176 -0.176)">
       <defs>
        <path id="ArialMT-63" d="M 2588 1216 
L 3141 1144 
Q 3050 572 2676 248 
Q 2303 -75 1759 -75 
Q 1078 -75 664 370 
Q 250 816 250 1647 
Q 250 2184 428 2587 
Q 606 2991 970 3192 
Q 1334 3394 1763 3394 
Q 2303 3394 2647 3120 
Q 2991 2847 3088 2344 
L 2541 2259 
Q 2463 2594 2264 2762 
Q 2066 2931 1784 2931 
Q 1359 2931 1093 2626 
Q 828 2322 828 1663 
Q 828 994 1084 691 
Q 1341 388 1753 388 
Q 2084 388 2306 591 
Q 2528 794 2588 1216 
z
" transform="scale(0.015625)"/>
        <path id="ArialMT-66" d="M 556 0 
L 556 2881 
L 59 2881 
L 59 3319 
L 556 3319 
L 556 3672 
Q 556 4006 616 4169 
Q 697 4388 901 4523 
Q 1106 4659 1475 4659 
Q 1713 4659 2000 4603 
L 1916 4113 
Q 1741 4144 1584 4144 
Q 1328 4144 1222 4034 
Q 1116 3925 1116 3625 
L 1116 3319 
L 1763 3319 
L 1763 2881 
L 1116 2881 
L 1116 0 
L 556 0 
z
" transform="scale(0.015625)"/>
       </defs>
       <use xlink:href="#ArialMT-53"/>
       <use xlink:href="#ArialMT-63" transform="translate(66.699219 0)"/>
       <use xlink:href="#ArialMT-61" transform="translate(116.699219 0)"/>
       <use xlink:href="#ArialMT-66" transform="translate(172.314453 0)"/>
       <use xlink:href="#ArialMT-66" transform="translate(198.347656 0)"/>
       <use xlink:href="#ArialMT-6f" transform="translate(226.130859 0)"/>
       <use xlink:href="#ArialMT-6c" transform="translate(281.746094 0)"/>
       <use xlink:href="#ArialMT-64" transform="translate(303.962891 0)"/>
       <use xlink:href="#ArialMT-53" transform="translate(359.578125 0)"/>
       <use xlink:href="#ArialMT-70" transform="translate(426.277344 0)"/>
       <use xlink:href="#ArialMT-6c" transform="translate(481.892578 0)"/>
       <use xlink:href="#ArialMT-69" transform="translate(504.109375 0)"/>
       <use xlink:href="#ArialMT-74" transform="translate(526.326172 0)"/>
      </g>
     </g>
    </g>
    <g id="xtick_3">
     <g id="text_3">
      <!-- SortedStepForward_LogD -->
      <g style="fill: #262626" transform="translate(263.485457 807.798908) rotate(-45) scale(0.176 -0.176)">
       <defs>
        <path id="ArialMT-72" d="M 416 0 
L 416 3319 
L 922 3319 
L 922 2816 
Q 1116 3169 1280 3281 
Q 1444 3394 1641 3394 
Q 1925 3394 2219 3213 
L 2025 2691 
Q 1819 2813 1613 2813 
Q 1428 2813 1281 2702 
Q 1134 2591 1072 2394 
Q 978 2094 978 1738 
L 978 0 
L 416 0 
z
" transform="scale(0.015625)"/>
        <path id="ArialMT-65" d="M 2694 1069 
L 3275 997 
Q 3138 488 2766 206 
Q 2394 -75 1816 -75 
Q 1088 -75 661 373 
Q 234 822 234 1631 
Q 234 2469 665 2931 
Q 1097 3394 1784 3394 
Q 2450 3394 2872 2941 
Q 3294 2488 3294 1666 
Q 3294 1616 3291 1516 
L 816 1516 
Q 847 969 1125 678 
Q 1403 388 1819 388 
Q 2128 388 2347 550 
Q 2566 713 2694 1069 
z
M 847 1978 
L 2700 1978 
Q 2663 2397 2488 2606 
Q 2219 2931 1791 2931 
Q 1403 2931 1139 2672 
Q 875 2413 847 1978 
z
" transform="scale(0.015625)"/>
        <path id="ArialMT-46" d="M 525 0 
L 525 4581 
L 3616 4581 
L 3616 4041 
L 1131 4041 
L 1131 2622 
L 3281 2622 
L 3281 2081 
L 1131 2081 
L 1131 0 
L 525 0 
z
" transform="scale(0.015625)"/>
        <path id="ArialMT-77" d="M 1034 0 
L 19 3319 
L 600 3319 
L 1128 1403 
L 1325 691 
Q 1338 744 1497 1375 
L 2025 3319 
L 2603 3319 
L 3100 1394 
L 3266 759 
L 3456 1400 
L 4025 3319 
L 4572 3319 
L 3534 0 
L 2950 0 
L 2422 1988 
L 2294 2553 
L 1622 0 
L 1034 0 
z
" transform="scale(0.015625)"/>
        <path id="ArialMT-5f" d="M -97 -1272 
L -97 -866 
L 3631 -866 
L 3631 -1272 
L -97 -1272 
z
" transform="scale(0.015625)"/>
        <path id="ArialMT-4c" d="M 469 0 
L 469 4581 
L 1075 4581 
L 1075 541 
L 3331 541 
L 3331 0 
L 469 0 
z
" transform="scale(0.015625)"/>
        <path id="ArialMT-67" d="M 319 -275 
L 866 -356 
Q 900 -609 1056 -725 
Q 1266 -881 1628 -881 
Q 2019 -881 2231 -725 
Q 2444 -569 2519 -288 
Q 2563 -116 2559 434 
Q 2191 0 1641 0 
Q 956 0 581 494 
Q 206 988 206 1678 
Q 206 2153 378 2554 
Q 550 2956 876 3175 
Q 1203 3394 1644 3394 
Q 2231 3394 2613 2919 
L 2613 3319 
L 3131 3319 
L 3131 450 
Q 3131 -325 2973 -648 
Q 2816 -972 2473 -1159 
Q 2131 -1347 1631 -1347 
Q 1038 -1347 672 -1080 
Q 306 -813 319 -275 
z
M 784 1719 
Q 784 1066 1043 766 
Q 1303 466 1694 466 
Q 2081 466 2343 764 
Q 2606 1063 2606 1700 
Q 2606 2309 2336 2618 
Q 2066 2928 1684 2928 
Q 1309 2928 1046 2623 
Q 784 2319 784 1719 
z
" transform="scale(0.015625)"/>
        <path id="ArialMT-44" d="M 494 0 
L 494 4581 
L 2072 4581 
Q 2606 4581 2888 4516 
Q 3281 4425 3559 4188 
Q 3922 3881 4101 3404 
Q 4281 2928 4281 2316 
Q 4281 1794 4159 1391 
Q 4038 988 3847 723 
Q 3656 459 3429 307 
Q 3203 156 2883 78 
Q 2563 0 2147 0 
L 494 0 
z
M 1100 541 
L 2078 541 
Q 2531 541 2789 625 
Q 3047 709 3200 863 
Q 3416 1078 3536 1442 
Q 3656 1806 3656 2325 
Q 3656 3044 3420 3430 
Q 3184 3816 2847 3947 
Q 2603 4041 2063 4041 
L 1100 4041 
L 1100 541 
z
" transform="scale(0.015625)"/>
       </defs>
       <use xlink:href="#ArialMT-53"/>
       <use xlink:href="#ArialMT-6f" transform="translate(66.699219 0)"/>
       <use xlink:href="#ArialMT-72" transform="translate(122.314453 0)"/>
       <use xlink:href="#ArialMT-74" transform="translate(155.615234 0)"/>
       <use xlink:href="#ArialMT-65" transform="translate(183.398438 0)"/>
       <use xlink:href="#ArialMT-64" transform="translate(239.013672 0)"/>
       <use xlink:href="#ArialMT-53" transform="translate(294.628906 0)"/>
       <use xlink:href="#ArialMT-74" transform="translate(361.328125 0)"/>
       <use xlink:href="#ArialMT-65" transform="translate(389.111328 0)"/>
       <use xlink:href="#ArialMT-70" transform="translate(444.726562 0)"/>
       <use xlink:href="#ArialMT-46" transform="translate(500.341797 0)"/>
       <use xlink:href="#ArialMT-6f" transform="translate(561.425781 0)"/>
       <use xlink:href="#ArialMT-72" transform="translate(617.041016 0)"/>
       <use xlink:href="#ArialMT-77" transform="translate(650.341797 0)"/>
       <use xlink:href="#ArialMT-61" transform="translate(722.558594 0)"/>
       <use xlink:href="#ArialMT-72" transform="translate(778.173828 0)"/>
       <use xlink:href="#ArialMT-64" transform="translate(811.474609 0)"/>
       <use xlink:href="#ArialMT-5f" transform="translate(867.089844 0)"/>
       <use xlink:href="#ArialMT-4c" transform="translate(922.705078 0)"/>
       <use xlink:href="#ArialMT-6f" transform="translate(978.320312 0)"/>
       <use xlink:href="#ArialMT-67" transform="translate(1033.935547 0)"/>
       <use xlink:href="#ArialMT-44" transform="translate(1089.550781 0)"/>
      </g>
     </g>
    </g>
    <g id="xtick_4">
     <g id="text_4">
      <!-- SortedStepForward_LogP -->
      <g style="fill: #262626" transform="translate(361.488803 807.112484) rotate(-45) scale(0.176 -0.176)">
       <defs>
        <path id="ArialMT-50" d="M 494 0 
L 494 4581 
L 2222 4581 
Q 2678 4581 2919 4538 
Q 3256 4481 3484 4323 
Q 3713 4166 3852 3881 
Q 3991 3597 3991 3256 
Q 3991 2672 3619 2267 
Q 3247 1863 2275 1863 
L 1100 1863 
L 1100 0 
L 494 0 
z
M 1100 2403 
L 2284 2403 
Q 2872 2403 3119 2622 
Q 3366 2841 3366 3238 
Q 3366 3525 3220 3729 
Q 3075 3934 2838 4000 
Q 2684 4041 2272 4041 
L 1100 4041 
L 1100 2403 
z
" transform="scale(0.015625)"/>
       </defs>
       <use xlink:href="#ArialMT-53"/>
       <use xlink:href="#ArialMT-6f" transform="translate(66.699219 0)"/>
       <use xlink:href="#ArialMT-72" transform="translate(122.314453 0)"/>
       <use xlink:href="#ArialMT-74" transform="translate(155.615234 0)"/>
       <use xlink:href="#ArialMT-65" transform="translate(183.398438 0)"/>
       <use xlink:href="#ArialMT-64" transform="translate(239.013672 0)"/>
       <use xlink:href="#ArialMT-53" transform="translate(294.628906 0)"/>
       <use xlink:href="#ArialMT-74" transform="translate(361.328125 0)"/>
       <use xlink:href="#ArialMT-65" transform="translate(389.111328 0)"/>
       <use xlink:href="#ArialMT-70" transform="translate(444.726562 0)"/>
       <use xlink:href="#ArialMT-46" transform="translate(500.341797 0)"/>
       <use xlink:href="#ArialMT-6f" transform="translate(561.425781 0)"/>
       <use xlink:href="#ArialMT-72" transform="translate(617.041016 0)"/>
       <use xlink:href="#ArialMT-77" transform="translate(650.341797 0)"/>
       <use xlink:href="#ArialMT-61" transform="translate(722.558594 0)"/>
       <use xlink:href="#ArialMT-72" transform="translate(778.173828 0)"/>
       <use xlink:href="#ArialMT-64" transform="translate(811.474609 0)"/>
       <use xlink:href="#ArialMT-5f" transform="translate(867.089844 0)"/>
       <use xlink:href="#ArialMT-4c" transform="translate(922.705078 0)"/>
       <use xlink:href="#ArialMT-6f" transform="translate(978.320312 0)"/>
       <use xlink:href="#ArialMT-67" transform="translate(1033.935547 0)"/>
       <use xlink:href="#ArialMT-50" transform="translate(1089.550781 0)"/>
      </g>
     </g>
    </g>
    <g id="xtick_5">
     <g id="text_5">
      <!-- SortedStepForward_MCE18 -->
      <g style="fill: #262626" transform="translate(453.00515 819.545896) rotate(-45) scale(0.176 -0.176)">
       <defs>
        <path id="ArialMT-4d" d="M 475 0 
L 475 4581 
L 1388 4581 
L 2472 1338 
Q 2622 884 2691 659 
Q 2769 909 2934 1394 
L 4031 4581 
L 4847 4581 
L 4847 0 
L 4263 0 
L 4263 3834 
L 2931 0 
L 2384 0 
L 1059 3900 
L 1059 0 
L 475 0 
z
" transform="scale(0.015625)"/>
        <path id="ArialMT-43" d="M 3763 1606 
L 4369 1453 
Q 4178 706 3683 314 
Q 3188 -78 2472 -78 
Q 1731 -78 1267 223 
Q 803 525 561 1097 
Q 319 1669 319 2325 
Q 319 3041 592 3573 
Q 866 4106 1370 4382 
Q 1875 4659 2481 4659 
Q 3169 4659 3637 4309 
Q 4106 3959 4291 3325 
L 3694 3184 
Q 3534 3684 3231 3912 
Q 2928 4141 2469 4141 
Q 1941 4141 1586 3887 
Q 1231 3634 1087 3207 
Q 944 2781 944 2328 
Q 944 1744 1114 1308 
Q 1284 872 1643 656 
Q 2003 441 2422 441 
Q 2931 441 3284 734 
Q 3638 1028 3763 1606 
z
" transform="scale(0.015625)"/>
        <path id="ArialMT-45" d="M 506 0 
L 506 4581 
L 3819 4581 
L 3819 4041 
L 1113 4041 
L 1113 2638 
L 3647 2638 
L 3647 2100 
L 1113 2100 
L 1113 541 
L 3925 541 
L 3925 0 
L 506 0 
z
" transform="scale(0.015625)"/>
        <path id="ArialMT-31" d="M 2384 0 
L 1822 0 
L 1822 3584 
Q 1619 3391 1289 3197 
Q 959 3003 697 2906 
L 697 3450 
Q 1169 3672 1522 3987 
Q 1875 4303 2022 4600 
L 2384 4600 
L 2384 0 
z
" transform="scale(0.015625)"/>
        <path id="ArialMT-38" d="M 1131 2484 
Q 781 2613 612 2850 
Q 444 3088 444 3419 
Q 444 3919 803 4259 
Q 1163 4600 1759 4600 
Q 2359 4600 2725 4251 
Q 3091 3903 3091 3403 
Q 3091 3084 2923 2848 
Q 2756 2613 2416 2484 
Q 2838 2347 3058 2040 
Q 3278 1734 3278 1309 
Q 3278 722 2862 322 
Q 2447 -78 1769 -78 
Q 1091 -78 675 323 
Q 259 725 259 1325 
Q 259 1772 486 2073 
Q 713 2375 1131 2484 
z
M 1019 3438 
Q 1019 3113 1228 2906 
Q 1438 2700 1772 2700 
Q 2097 2700 2305 2904 
Q 2513 3109 2513 3406 
Q 2513 3716 2298 3927 
Q 2084 4138 1766 4138 
Q 1444 4138 1231 3931 
Q 1019 3725 1019 3438 
z
M 838 1322 
Q 838 1081 952 856 
Q 1066 631 1291 507 
Q 1516 384 1775 384 
Q 2178 384 2440 643 
Q 2703 903 2703 1303 
Q 2703 1709 2433 1975 
Q 2163 2241 1756 2241 
Q 1359 2241 1098 1978 
Q 838 1716 838 1322 
z
" transform="scale(0.015625)"/>
       </defs>
       <use xlink:href="#ArialMT-53"/>
       <use xlink:href="#ArialMT-6f" transform="translate(66.699219 0)"/>
       <use xlink:href="#ArialMT-72" transform="translate(122.314453 0)"/>
       <use xlink:href="#ArialMT-74" transform="translate(155.615234 0)"/>
       <use xlink:href="#ArialMT-65" transform="translate(183.398438 0)"/>
       <use xlink:href="#ArialMT-64" transform="translate(239.013672 0)"/>
       <use xlink:href="#ArialMT-53" transform="translate(294.628906 0)"/>
       <use xlink:href="#ArialMT-74" transform="translate(361.328125 0)"/>
       <use xlink:href="#ArialMT-65" transform="translate(389.111328 0)"/>
       <use xlink:href="#ArialMT-70" transform="translate(444.726562 0)"/>
       <use xlink:href="#ArialMT-46" transform="translate(500.341797 0)"/>
       <use xlink:href="#ArialMT-6f" transform="translate(561.425781 0)"/>
       <use xlink:href="#ArialMT-72" transform="translate(617.041016 0)"/>
       <use xlink:href="#ArialMT-77" transform="translate(650.341797 0)"/>
       <use xlink:href="#ArialMT-61" transform="translate(722.558594 0)"/>
       <use xlink:href="#ArialMT-72" transform="translate(778.173828 0)"/>
       <use xlink:href="#ArialMT-64" transform="translate(811.474609 0)"/>
       <use xlink:href="#ArialMT-5f" transform="translate(867.089844 0)"/>
       <use xlink:href="#ArialMT-4d" transform="translate(922.705078 0)"/>
       <use xlink:href="#ArialMT-43" transform="translate(1006.005859 0)"/>
       <use xlink:href="#ArialMT-45" transform="translate(1078.222656 0)"/>
       <use xlink:href="#ArialMT-31" transform="translate(1144.921875 0)"/>
       <use xlink:href="#ArialMT-38" transform="translate(1200.537109 0)"/>
      </g>
     </g>
    </g>
    <g id="xtick_6">
     <g id="text_6">
      <!-- UnsortedStepForward -->
      <g style="fill: #262626" transform="translate(567.959083 784.958298) rotate(-45) scale(0.176 -0.176)">
       <defs>
        <path id="ArialMT-55" d="M 3500 4581 
L 4106 4581 
L 4106 1934 
Q 4106 1244 3950 837 
Q 3794 431 3386 176 
Q 2978 -78 2316 -78 
Q 1672 -78 1262 144 
Q 853 366 678 786 
Q 503 1206 503 1934 
L 503 4581 
L 1109 4581 
L 1109 1938 
Q 1109 1341 1220 1058 
Q 1331 775 1601 622 
Q 1872 469 2263 469 
Q 2931 469 3215 772 
Q 3500 1075 3500 1938 
L 3500 4581 
z
" transform="scale(0.015625)"/>
        <path id="ArialMT-73" d="M 197 991 
L 753 1078 
Q 800 744 1014 566 
Q 1228 388 1613 388 
Q 2000 388 2187 545 
Q 2375 703 2375 916 
Q 2375 1106 2209 1216 
Q 2094 1291 1634 1406 
Q 1016 1563 777 1677 
Q 538 1791 414 1992 
Q 291 2194 291 2438 
Q 291 2659 392 2848 
Q 494 3038 669 3163 
Q 800 3259 1026 3326 
Q 1253 3394 1513 3394 
Q 1903 3394 2198 3281 
Q 2494 3169 2634 2976 
Q 2775 2784 2828 2463 
L 2278 2388 
Q 2241 2644 2061 2787 
Q 1881 2931 1553 2931 
Q 1166 2931 1000 2803 
Q 834 2675 834 2503 
Q 834 2394 903 2306 
Q 972 2216 1119 2156 
Q 1203 2125 1616 2013 
Q 2213 1853 2448 1751 
Q 2684 1650 2818 1456 
Q 2953 1263 2953 975 
Q 2953 694 2789 445 
Q 2625 197 2315 61 
Q 2006 -75 1616 -75 
Q 969 -75 630 194 
Q 291 463 197 991 
z
" transform="scale(0.015625)"/>
       </defs>
       <use xlink:href="#ArialMT-55"/>
       <use xlink:href="#ArialMT-6e" transform="translate(72.216797 0)"/>
       <use xlink:href="#ArialMT-73" transform="translate(127.832031 0)"/>
       <use xlink:href="#ArialMT-6f" transform="translate(177.832031 0)"/>
       <use xlink:href="#ArialMT-72" transform="translate(233.447266 0)"/>
       <use xlink:href="#ArialMT-74" transform="translate(266.748047 0)"/>
       <use xlink:href="#ArialMT-65" transform="translate(294.53125 0)"/>
       <use xlink:href="#ArialMT-64" transform="translate(350.146484 0)"/>
       <use xlink:href="#ArialMT-53" transform="translate(405.761719 0)"/>
       <use xlink:href="#ArialMT-74" transform="translate(472.460938 0)"/>
       <use xlink:href="#ArialMT-65" transform="translate(500.244141 0)"/>
       <use xlink:href="#ArialMT-70" transform="translate(555.859375 0)"/>
       <use xlink:href="#ArialMT-46" transform="translate(611.474609 0)"/>
       <use xlink:href="#ArialMT-6f" transform="translate(672.558594 0)"/>
       <use xlink:href="#ArialMT-72" transform="translate(728.173828 0)"/>
       <use xlink:href="#ArialMT-77" transform="translate(761.474609 0)"/>
       <use xlink:href="#ArialMT-61" transform="translate(833.691406 0)"/>
       <use xlink:href="#ArialMT-72" transform="translate(889.306641 0)"/>
       <use xlink:href="#ArialMT-64" transform="translate(922.607422 0)"/>
      </g>
     </g>
    </g>
    <g id="text_7">
     <!-- split_type -->
     <g style="fill: #262626" transform="translate(340.827825 839.762355) scale(0.192 -0.192)">
      <defs>
       <path id="ArialMT-79" d="M 397 -1278 
L 334 -750 
Q 519 -800 656 -800 
Q 844 -800 956 -737 
Q 1069 -675 1141 -563 
Q 1194 -478 1313 -144 
Q 1328 -97 1363 -6 
L 103 3319 
L 709 3319 
L 1400 1397 
Q 1534 1031 1641 628 
Q 1738 1016 1872 1384 
L 2581 3319 
L 3144 3319 
L 1881 -56 
Q 1678 -603 1566 -809 
Q 1416 -1088 1222 -1217 
Q 1028 -1347 759 -1347 
Q 597 -1347 397 -1278 
z
" transform="scale(0.015625)"/>
      </defs>
      <use xlink:href="#ArialMT-73"/>
      <use xlink:href="#ArialMT-70" transform="translate(50 0)"/>
      <use xlink:href="#ArialMT-6c" transform="translate(105.615234 0)"/>
      <use xlink:href="#ArialMT-69" transform="translate(127.832031 0)"/>
      <use xlink:href="#ArialMT-74" transform="translate(150.048828 0)"/>
      <use xlink:href="#ArialMT-5f" transform="translate(177.832031 0)"/>
      <use xlink:href="#ArialMT-74" transform="translate(233.447266 0)"/>
      <use xlink:href="#ArialMT-79" transform="translate(261.230469 0)"/>
      <use xlink:href="#ArialMT-70" transform="translate(311.230469 0)"/>
      <use xlink:href="#ArialMT-65" transform="translate(366.845703 0)"/>
     </g>
    </g>
   </g>
   <g id="matplotlib.axis_2">
    <g id="ytick_1">
     <g id="line2d_1">
      <path d="M 69.846 608.054912 
L 692.917651 608.054912 
" clip-path="url(#pfdeebef6ee)" style="fill: none; stroke: #cccccc; stroke-width: 0.8; stroke-linecap: round"/>
     </g>
     <g id="text_8">
      <!-- 0 -->
      <g style="fill: #262626" transform="translate(51.75875 614.353787) scale(0.176 -0.176)">
       <defs>
        <path id="ArialMT-30" d="M 266 2259 
Q 266 3072 433 3567 
Q 600 4063 929 4331 
Q 1259 4600 1759 4600 
Q 2128 4600 2406 4451 
Q 2684 4303 2865 4023 
Q 3047 3744 3150 3342 
Q 3253 2941 3253 2259 
Q 3253 1453 3087 958 
Q 2922 463 2592 192 
Q 2263 -78 1759 -78 
Q 1097 -78 719 397 
Q 266 969 266 2259 
z
M 844 2259 
Q 844 1131 1108 757 
Q 1372 384 1759 384 
Q 2147 384 2411 759 
Q 2675 1134 2675 2259 
Q 2675 3391 2411 3762 
Q 2147 4134 1753 4134 
Q 1366 4134 1134 3806 
Q 844 3388 844 2259 
z
" transform="scale(0.015625)"/>
       </defs>
       <use xlink:href="#ArialMT-30"/>
      </g>
     </g>
    </g>
    <g id="ytick_2">
     <g id="line2d_2">
      <path d="M 69.846 530.80911 
L 692.917651 530.80911 
" clip-path="url(#pfdeebef6ee)" style="fill: none; stroke: #cccccc; stroke-width: 0.8; stroke-linecap: round"/>
     </g>
     <g id="text_9">
      <!-- 5 -->
      <g style="fill: #262626" transform="translate(51.75875 537.107985) scale(0.176 -0.176)">
       <defs>
        <path id="ArialMT-35" d="M 266 1200 
L 856 1250 
Q 922 819 1161 601 
Q 1400 384 1738 384 
Q 2144 384 2425 690 
Q 2706 997 2706 1503 
Q 2706 1984 2436 2262 
Q 2166 2541 1728 2541 
Q 1456 2541 1237 2417 
Q 1019 2294 894 2097 
L 366 2166 
L 809 4519 
L 3088 4519 
L 3088 3981 
L 1259 3981 
L 1013 2750 
Q 1425 3038 1878 3038 
Q 2478 3038 2890 2622 
Q 3303 2206 3303 1553 
Q 3303 931 2941 478 
Q 2500 -78 1738 -78 
Q 1113 -78 717 272 
Q 322 622 266 1200 
z
" transform="scale(0.015625)"/>
       </defs>
       <use xlink:href="#ArialMT-35"/>
      </g>
     </g>
    </g>
    <g id="ytick_3">
     <g id="line2d_3">
      <path d="M 69.846 453.563309 
L 692.917651 453.563309 
" clip-path="url(#pfdeebef6ee)" style="fill: none; stroke: #cccccc; stroke-width: 0.8; stroke-linecap: round"/>
     </g>
     <g id="text_10">
      <!-- 10 -->
      <g style="fill: #262626" transform="translate(41.9715 459.862184) scale(0.176 -0.176)">
       <use xlink:href="#ArialMT-31"/>
       <use xlink:href="#ArialMT-30" transform="translate(55.615234 0)"/>
      </g>
     </g>
    </g>
    <g id="ytick_4">
     <g id="line2d_4">
      <path d="M 69.846 376.317507 
L 692.917651 376.317507 
" clip-path="url(#pfdeebef6ee)" style="fill: none; stroke: #cccccc; stroke-width: 0.8; stroke-linecap: round"/>
     </g>
     <g id="text_11">
      <!-- 15 -->
      <g style="fill: #262626" transform="translate(41.9715 382.616382) scale(0.176 -0.176)">
       <use xlink:href="#ArialMT-31"/>
       <use xlink:href="#ArialMT-35" transform="translate(55.615234 0)"/>
      </g>
     </g>
    </g>
    <g id="ytick_5">
     <g id="line2d_5">
      <path d="M 69.846 299.071705 
L 692.917651 299.071705 
" clip-path="url(#pfdeebef6ee)" style="fill: none; stroke: #cccccc; stroke-width: 0.8; stroke-linecap: round"/>
     </g>
     <g id="text_12">
      <!-- 20 -->
      <g style="fill: #262626" transform="translate(41.9715 305.37058) scale(0.176 -0.176)">
       <defs>
        <path id="ArialMT-32" d="M 3222 541 
L 3222 0 
L 194 0 
Q 188 203 259 391 
Q 375 700 629 1000 
Q 884 1300 1366 1694 
Q 2113 2306 2375 2664 
Q 2638 3022 2638 3341 
Q 2638 3675 2398 3904 
Q 2159 4134 1775 4134 
Q 1369 4134 1125 3890 
Q 881 3647 878 3216 
L 300 3275 
Q 359 3922 746 4261 
Q 1134 4600 1788 4600 
Q 2447 4600 2831 4234 
Q 3216 3869 3216 3328 
Q 3216 3053 3103 2787 
Q 2991 2522 2730 2228 
Q 2469 1934 1863 1422 
Q 1356 997 1212 845 
Q 1069 694 975 541 
L 3222 541 
z
" transform="scale(0.015625)"/>
       </defs>
       <use xlink:href="#ArialMT-32"/>
       <use xlink:href="#ArialMT-30" transform="translate(55.615234 0)"/>
      </g>
     </g>
    </g>
    <g id="ytick_6">
     <g id="line2d_6">
      <path d="M 69.846 221.825904 
L 692.917651 221.825904 
" clip-path="url(#pfdeebef6ee)" style="fill: none; stroke: #cccccc; stroke-width: 0.8; stroke-linecap: round"/>
     </g>
     <g id="text_13">
      <!-- 25 -->
      <g style="fill: #262626" transform="translate(41.9715 228.124779) scale(0.176 -0.176)">
       <use xlink:href="#ArialMT-32"/>
       <use xlink:href="#ArialMT-35" transform="translate(55.615234 0)"/>
      </g>
     </g>
    </g>
    <g id="ytick_7">
     <g id="line2d_7">
      <path d="M 69.846 144.580102 
L 692.917651 144.580102 
" clip-path="url(#pfdeebef6ee)" style="fill: none; stroke: #cccccc; stroke-width: 0.8; stroke-linecap: round"/>
     </g>
     <g id="text_14">
      <!-- 30 -->
      <g style="fill: #262626" transform="translate(41.9715 150.878977) scale(0.176 -0.176)">
       <defs>
        <path id="ArialMT-33" d="M 269 1209 
L 831 1284 
Q 928 806 1161 595 
Q 1394 384 1728 384 
Q 2125 384 2398 659 
Q 2672 934 2672 1341 
Q 2672 1728 2419 1979 
Q 2166 2231 1775 2231 
Q 1616 2231 1378 2169 
L 1441 2663 
Q 1497 2656 1531 2656 
Q 1891 2656 2178 2843 
Q 2466 3031 2466 3422 
Q 2466 3731 2256 3934 
Q 2047 4138 1716 4138 
Q 1388 4138 1169 3931 
Q 950 3725 888 3313 
L 325 3413 
Q 428 3978 793 4289 
Q 1159 4600 1703 4600 
Q 2078 4600 2393 4439 
Q 2709 4278 2876 4000 
Q 3044 3722 3044 3409 
Q 3044 3113 2884 2869 
Q 2725 2625 2413 2481 
Q 2819 2388 3044 2092 
Q 3269 1797 3269 1353 
Q 3269 753 2831 336 
Q 2394 -81 1725 -81 
Q 1122 -81 723 278 
Q 325 638 269 1209 
z
" transform="scale(0.015625)"/>
       </defs>
       <use xlink:href="#ArialMT-33"/>
       <use xlink:href="#ArialMT-30" transform="translate(55.615234 0)"/>
      </g>
     </g>
    </g>
    <g id="ytick_8">
     <g id="line2d_8">
      <path d="M 69.846 67.334301 
L 692.917651 67.334301 
" clip-path="url(#pfdeebef6ee)" style="fill: none; stroke: #cccccc; stroke-width: 0.8; stroke-linecap: round"/>
     </g>
     <g id="text_15">
      <!-- 35 -->
      <g style="fill: #262626" transform="translate(41.9715 73.633176) scale(0.176 -0.176)">
       <use xlink:href="#ArialMT-33"/>
       <use xlink:href="#ArialMT-35" transform="translate(55.615234 0)"/>
      </g>
     </g>
    </g>
    <g id="text_16">
     <!-- number of novel discovery compounds within error range -->
     <g style="fill: #262626" transform="translate(33.9305 584.843674) rotate(-90) scale(0.192 -0.192)">
      <defs>
       <path id="ArialMT-75" d="M 2597 0 
L 2597 488 
Q 2209 -75 1544 -75 
Q 1250 -75 995 37 
Q 741 150 617 320 
Q 494 491 444 738 
Q 409 903 409 1263 
L 409 3319 
L 972 3319 
L 972 1478 
Q 972 1038 1006 884 
Q 1059 663 1231 536 
Q 1403 409 1656 409 
Q 1909 409 2131 539 
Q 2353 669 2445 892 
Q 2538 1116 2538 1541 
L 2538 3319 
L 3100 3319 
L 3100 0 
L 2597 0 
z
" transform="scale(0.015625)"/>
       <path id="ArialMT-62" d="M 941 0 
L 419 0 
L 419 4581 
L 981 4581 
L 981 2947 
Q 1338 3394 1891 3394 
Q 2197 3394 2470 3270 
Q 2744 3147 2920 2923 
Q 3097 2700 3197 2384 
Q 3297 2069 3297 1709 
Q 3297 856 2875 390 
Q 2453 -75 1863 -75 
Q 1275 -75 941 416 
L 941 0 
z
M 934 1684 
Q 934 1088 1097 822 
Q 1363 388 1816 388 
Q 2184 388 2453 708 
Q 2722 1028 2722 1663 
Q 2722 2313 2464 2622 
Q 2206 2931 1841 2931 
Q 1472 2931 1203 2611 
Q 934 2291 934 1684 
z
" transform="scale(0.015625)"/>
       <path id="ArialMT-20" transform="scale(0.015625)"/>
       <path id="ArialMT-76" d="M 1344 0 
L 81 3319 
L 675 3319 
L 1388 1331 
Q 1503 1009 1600 663 
Q 1675 925 1809 1294 
L 2547 3319 
L 3125 3319 
L 1869 0 
L 1344 0 
z
" transform="scale(0.015625)"/>
       <path id="ArialMT-68" d="M 422 0 
L 422 4581 
L 984 4581 
L 984 2938 
Q 1378 3394 1978 3394 
Q 2347 3394 2619 3248 
Q 2891 3103 3008 2847 
Q 3125 2591 3125 2103 
L 3125 0 
L 2563 0 
L 2563 2103 
Q 2563 2525 2380 2717 
Q 2197 2909 1863 2909 
Q 1613 2909 1392 2779 
Q 1172 2650 1078 2428 
Q 984 2206 984 1816 
L 984 0 
L 422 0 
z
" transform="scale(0.015625)"/>
      </defs>
      <use xlink:href="#ArialMT-6e"/>
      <use xlink:href="#ArialMT-75" transform="translate(55.615234 0)"/>
      <use xlink:href="#ArialMT-6d" transform="translate(111.230469 0)"/>
      <use xlink:href="#ArialMT-62" transform="translate(194.53125 0)"/>
      <use xlink:href="#ArialMT-65" transform="translate(250.146484 0)"/>
      <use xlink:href="#ArialMT-72" transform="translate(305.761719 0)"/>
      <use xlink:href="#ArialMT-20" transform="translate(339.0625 0)"/>
      <use xlink:href="#ArialMT-6f" transform="translate(366.845703 0)"/>
      <use xlink:href="#ArialMT-66" transform="translate(422.460938 0)"/>
      <use xlink:href="#ArialMT-20" transform="translate(450.244141 0)"/>
      <use xlink:href="#ArialMT-6e" transform="translate(478.027344 0)"/>
      <use xlink:href="#ArialMT-6f" transform="translate(533.642578 0)"/>
      <use xlink:href="#ArialMT-76" transform="translate(589.257812 0)"/>
      <use xlink:href="#ArialMT-65" transform="translate(639.257812 0)"/>
      <use xlink:href="#ArialMT-6c" transform="translate(694.873047 0)"/>
      <use xlink:href="#ArialMT-20" transform="translate(717.089844 0)"/>
      <use xlink:href="#ArialMT-64" transform="translate(744.873047 0)"/>
      <use xlink:href="#ArialMT-69" transform="translate(800.488281 0)"/>
      <use xlink:href="#ArialMT-73" transform="translate(822.705078 0)"/>
      <use xlink:href="#ArialMT-63" transform="translate(872.705078 0)"/>
      <use xlink:href="#ArialMT-6f" transform="translate(922.705078 0)"/>
      <use xlink:href="#ArialMT-76" transform="translate(978.320312 0)"/>
      <use xlink:href="#ArialMT-65" transform="translate(1028.320312 0)"/>
      <use xlink:href="#ArialMT-72" transform="translate(1083.935547 0)"/>
      <use xlink:href="#ArialMT-79" transform="translate(1117.236328 0)"/>
      <use xlink:href="#ArialMT-20" transform="translate(1167.236328 0)"/>
      <use xlink:href="#ArialMT-63" transform="translate(1195.019531 0)"/>
      <use xlink:href="#ArialMT-6f" transform="translate(1245.019531 0)"/>
      <use xlink:href="#ArialMT-6d" transform="translate(1300.634766 0)"/>
      <use xlink:href="#ArialMT-70" transform="translate(1383.935547 0)"/>
      <use xlink:href="#ArialMT-6f" transform="translate(1439.550781 0)"/>
      <use xlink:href="#ArialMT-75" transform="translate(1495.166016 0)"/>
      <use xlink:href="#ArialMT-6e" transform="translate(1550.78125 0)"/>
      <use xlink:href="#ArialMT-64" transform="translate(1606.396484 0)"/>
      <use xlink:href="#ArialMT-73" transform="translate(1662.011719 0)"/>
      <use xlink:href="#ArialMT-20" transform="translate(1712.011719 0)"/>
      <use xlink:href="#ArialMT-77" transform="translate(1739.794922 0)"/>
      <use xlink:href="#ArialMT-69" transform="translate(1812.011719 0)"/>
      <use xlink:href="#ArialMT-74" transform="translate(1834.228516 0)"/>
      <use xlink:href="#ArialMT-68" transform="translate(1862.011719 0)"/>
      <use xlink:href="#ArialMT-69" transform="translate(1917.626953 0)"/>
      <use xlink:href="#ArialMT-6e" transform="translate(1939.84375 0)"/>
      <use xlink:href="#ArialMT-20" transform="translate(1995.458984 0)"/>
      <use xlink:href="#ArialMT-65" transform="translate(2023.242188 0)"/>
      <use xlink:href="#ArialMT-72" transform="translate(2078.857422 0)"/>
      <use xlink:href="#ArialMT-72" transform="translate(2112.158203 0)"/>
      <use xlink:href="#ArialMT-6f" transform="translate(2145.458984 0)"/>
      <use xlink:href="#ArialMT-72" transform="translate(2201.074219 0)"/>
      <use xlink:href="#ArialMT-20" transform="translate(2234.375 0)"/>
      <use xlink:href="#ArialMT-72" transform="translate(2262.158203 0)"/>
      <use xlink:href="#ArialMT-61" transform="translate(2295.458984 0)"/>
      <use xlink:href="#ArialMT-6e" transform="translate(2351.074219 0)"/>
      <use xlink:href="#ArialMT-67" transform="translate(2406.689453 0)"/>
      <use xlink:href="#ArialMT-65" transform="translate(2462.304688 0)"/>
     </g>
    </g>
   </g>
   <g id="FillBetweenPolyCollection_1">
    <defs>
     <path id="m7a136877d1" d="M 142.527896 -253.972663 
L 131.935088 -253.972663 
L 124.236398 -254.480666 
L 112.777773 -254.98867 
L 101.939389 -255.496673 
L 98.167439 -256.004676 
L 104.069225 -256.51268 
L 115.640218 -257.020683 
L 126.449985 -257.528686 
L 133.102464 -258.03669 
L 136.018709 -258.544693 
L 136.958289 -259.052696 
L 137.184291 -259.5607 
L 137.225238 -260.068703 
L 137.230856 -260.576706 
L 137.231442 -261.08471 
L 137.231489 -261.592713 
L 137.231492 -262.100716 
L 137.231492 -262.60872 
L 137.231492 -263.116723 
L 137.231492 -263.624726 
L 137.231492 -264.13273 
L 137.231492 -264.640733 
L 137.231492 -265.148737 
L 137.231492 -265.65674 
L 137.231489 -266.164743 
L 137.231456 -266.672747 
L 137.231123 -267.18075 
L 137.228573 -267.688753 
L 137.213786 -268.196757 
L 137.149116 -268.70476 
L 136.937555 -269.212763 
L 136.427087 -269.720767 
L 135.543144 -270.22877 
L 134.513697 -270.736773 
L 133.876136 -271.244777 
L 134.054416 -271.75278 
L 134.9243 -272.260783 
L 135.946481 -272.768787 
L 136.682587 -273.27679 
L 137.051665 -273.784793 
L 137.186309 -274.292797 
L 137.222785 -274.8008 
L 137.230205 -275.308803 
L 137.231346 -275.816807 
L 137.231479 -276.32481 
L 137.231491 -276.832814 
L 137.231492 -277.340817 
L 137.231492 -277.84882 
L 137.231492 -278.356824 
L 137.231492 -278.864827 
L 137.231492 -279.37283 
L 137.231492 -279.880834 
L 137.231492 -280.388837 
L 137.231492 -280.89684 
L 137.231492 -281.404844 
L 137.231491 -281.912847 
L 137.231475 -282.42085 
L 137.231339 -282.928854 
L 137.230454 -283.436857 
L 137.226108 -283.94486 
L 137.210064 -284.452864 
L 137.166085 -284.960867 
L 137.078372 -285.46887 
L 136.95657 -285.976874 
L 136.852915 -286.484877 
L 136.831672 -286.992881 
L 136.907643 -287.500884 
L 137.03031 -288.008887 
L 137.13564 -288.516891 
L 137.196467 -289.024894 
L 137.221676 -289.532897 
L 137.229382 -290.040901 
L 137.231144 -290.548904 
L 137.231448 -291.056907 
L 137.231488 -291.564911 
L 137.231492 -292.072914 
L 137.231492 -292.580917 
L 137.231492 -293.088921 
L 137.231492 -293.596924 
L 137.231492 -294.104927 
L 137.231492 -294.612931 
L 137.231492 -295.120934 
L 137.231492 -295.628937 
L 137.231492 -296.136941 
L 137.231492 -296.644944 
L 137.231492 -297.152947 
L 137.23149 -297.660951 
L 137.231476 -298.168954 
L 137.231368 -298.676958 
L 137.230772 -299.184961 
L 137.228297 -299.692964 
L 137.220615 -300.200968 
L 137.203091 -300.708971 
L 137.174615 -301.216974 
L 137.144134 -301.724978 
L 137.128588 -302.232981 
L 137.138524 -302.740984 
L 137.167075 -303.248988 
L 137.19726 -303.756991 
L 137.21754 -304.264994 
L 137.245444 -304.264994 
L 137.245444 -304.264994 
L 137.265724 -303.756991 
L 137.295909 -303.248988 
L 137.32446 -302.740984 
L 137.334396 -302.232981 
L 137.31885 -301.724978 
L 137.288369 -301.216974 
L 137.259893 -300.708971 
L 137.242369 -300.200968 
L 137.234687 -299.692964 
L 137.232212 -299.184961 
L 137.231616 -298.676958 
L 137.231508 -298.168954 
L 137.231494 -297.660951 
L 137.231492 -297.152947 
L 137.231492 -296.644944 
L 137.231492 -296.136941 
L 137.231492 -295.628937 
L 137.231492 -295.120934 
L 137.231492 -294.612931 
L 137.231492 -294.104927 
L 137.231492 -293.596924 
L 137.231492 -293.088921 
L 137.231492 -292.580917 
L 137.231492 -292.072914 
L 137.231496 -291.564911 
L 137.231536 -291.056907 
L 137.23184 -290.548904 
L 137.233602 -290.040901 
L 137.241308 -289.532897 
L 137.266517 -289.024894 
L 137.327344 -288.516891 
L 137.432674 -288.008887 
L 137.555341 -287.500884 
L 137.631312 -286.992881 
L 137.610069 -286.484877 
L 137.506414 -285.976874 
L 137.384613 -285.46887 
L 137.296899 -284.960867 
L 137.25292 -284.452864 
L 137.236876 -283.94486 
L 137.23253 -283.436857 
L 137.231645 -282.928854 
L 137.231509 -282.42085 
L 137.231494 -281.912847 
L 137.231492 -281.404844 
L 137.231492 -280.89684 
L 137.231492 -280.388837 
L 137.231492 -279.880834 
L 137.231492 -279.37283 
L 137.231492 -278.864827 
L 137.231492 -278.356824 
L 137.231492 -277.84882 
L 137.231492 -277.340817 
L 137.231493 -276.832814 
L 137.231505 -276.32481 
L 137.231638 -275.816807 
L 137.232779 -275.308803 
L 137.240199 -274.8008 
L 137.276675 -274.292797 
L 137.411319 -273.784793 
L 137.780397 -273.27679 
L 138.516503 -272.768787 
L 139.538684 -272.260783 
L 140.408568 -271.75278 
L 140.586848 -271.244777 
L 139.949288 -270.736773 
L 138.91984 -270.22877 
L 138.035897 -269.720767 
L 137.525429 -269.212763 
L 137.313868 -268.70476 
L 137.249198 -268.196757 
L 137.234411 -267.688753 
L 137.231861 -267.18075 
L 137.231528 -266.672747 
L 137.231495 -266.164743 
L 137.231492 -265.65674 
L 137.231492 -265.148737 
L 137.231492 -264.640733 
L 137.231492 -264.13273 
L 137.231492 -263.624726 
L 137.231492 -263.116723 
L 137.231492 -262.60872 
L 137.231492 -262.100716 
L 137.231495 -261.592713 
L 137.231542 -261.08471 
L 137.232128 -260.576706 
L 137.237747 -260.068703 
L 137.278693 -259.5607 
L 137.504695 -259.052696 
L 138.444275 -258.544693 
L 141.36052 -258.03669 
L 148.012999 -257.528686 
L 158.822766 -257.020683 
L 170.393759 -256.51268 
L 176.295545 -256.004676 
L 172.523595 -255.496673 
L 161.685211 -254.98867 
L 150.226586 -254.480666 
L 142.527896 -253.972663 
z
" style="stroke: #494949"/>
    </defs>
    <g clip-path="url(#pfdeebef6ee)">
     <use xlink:href="#m7a136877d1" x="0" y="864" style="fill: #5875a4; stroke: #494949"/>
    </g>
   </g>
   <g id="FillBetweenPolyCollection_2">
    <defs>
     <path id="m46794b798f" d="M 240.543677 -245.081959 
L 229.239574 -245.081959 
L 214.167128 -249.514824 
L 195.827572 -253.947688 
L 196.81175 -258.380553 
L 214.541373 -262.813417 
L 225.994436 -267.246282 
L 228.740298 -271.679146 
L 230.790577 -276.112011 
L 232.500379 -280.544875 
L 232.682767 -284.97774 
L 232.936462 -289.410604 
L 233.622922 -293.843469 
L 233.742489 -298.276333 
L 233.642254 -302.709198 
L 233.988192 -307.142062 
L 234.297636 -311.574927 
L 234.272811 -316.007791 
L 234.333902 -320.440656 
L 234.509854 -324.87352 
L 234.504315 -329.306385 
L 234.460432 -333.739249 
L 234.577273 -338.172114 
L 234.666293 -342.604978 
L 234.639071 -347.037843 
L 234.653394 -351.470707 
L 234.678793 -355.903572 
L 234.590359 -360.336436 
L 234.535275 -364.769301 
L 234.635392 -369.202165 
L 234.713761 -373.63503 
L 234.699121 -378.067894 
L 234.722968 -382.500759 
L 234.782355 -386.933623 
L 234.787944 -391.366488 
L 234.778912 -395.799352 
L 234.795684 -400.232217 
L 234.775251 -404.665082 
L 234.726588 -409.097946 
L 234.747235 -413.530811 
L 234.814574 -417.963675 
L 234.844949 -422.39654 
L 234.848921 -426.829404 
L 234.851844 -431.262269 
L 234.8327 -435.695133 
L 234.804366 -440.127998 
L 234.815519 -444.560862 
L 234.848624 -448.993727 
L 234.859978 -453.426591 
L 234.861158 -457.859456 
L 234.868569 -462.29232 
L 234.868613 -466.725185 
L 234.861921 -471.158049 
L 234.866534 -475.590914 
L 234.877532 -480.023778 
L 234.881005 -484.456643 
L 234.880578 -488.889507 
L 234.878267 -493.322372 
L 234.865933 -497.755236 
L 234.852671 -502.188101 
L 234.858098 -506.620965 
L 234.870664 -511.05383 
L 234.872025 -515.486694 
L 234.871683 -519.919559 
L 234.876508 -524.352423 
L 234.876022 -528.785288 
L 234.871685 -533.218152 
L 234.875035 -537.651017 
L 234.881254 -542.083881 
L 234.88182 -546.516746 
L 234.88206 -550.94961 
L 234.886207 -555.382475 
L 234.890013 -559.815339 
L 234.891146 -564.248204 
L 234.889685 -568.681068 
L 234.883638 -573.113933 
L 234.874576 -577.546797 
L 234.872928 -581.979662 
L 234.881091 -586.412527 
L 234.888576 -590.845391 
L 234.891172 -595.278256 
L 234.891591 -599.71112 
L 234.891622 -604.143985 
L 234.891589 -608.576849 
L 234.891223 -613.009714 
L 234.889358 -617.442578 
L 234.885053 -621.875443 
L 234.881615 -626.308307 
L 234.882065 -630.741172 
L 234.880194 -635.174036 
L 234.873414 -639.606901 
L 234.871442 -644.039765 
L 234.872203 -648.47263 
L 234.862057 -652.905494 
L 234.852077 -657.338359 
L 234.861296 -661.771223 
L 234.876021 -666.204088 
L 234.880581 -670.636952 
L 234.882275 -675.069817 
L 234.886768 -679.502681 
L 234.890304 -683.935546 
L 234.892947 -683.935546 
L 234.892947 -683.935546 
L 234.896482 -679.502681 
L 234.900976 -675.069817 
L 234.90267 -670.636952 
L 234.90723 -666.204088 
L 234.921955 -661.771223 
L 234.931173 -657.338359 
L 234.921194 -652.905494 
L 234.911048 -648.47263 
L 234.911809 -644.039765 
L 234.909836 -639.606901 
L 234.903057 -635.174036 
L 234.901186 -630.741172 
L 234.901635 -626.308307 
L 234.898198 -621.875443 
L 234.893893 -617.442578 
L 234.892028 -613.009714 
L 234.891662 -608.576849 
L 234.891628 -604.143985 
L 234.89166 -599.71112 
L 234.892079 -595.278256 
L 234.894674 -590.845391 
L 234.90216 -586.412527 
L 234.910323 -581.979662 
L 234.908675 -577.546797 
L 234.899613 -573.113933 
L 234.893566 -568.681068 
L 234.892105 -564.248204 
L 234.893238 -559.815339 
L 234.897044 -555.382475 
L 234.901191 -550.94961 
L 234.901431 -546.516746 
L 234.901997 -542.083881 
L 234.908216 -537.651017 
L 234.911565 -533.218152 
L 234.907229 -528.785288 
L 234.906742 -524.352423 
L 234.911568 -519.919559 
L 234.911226 -515.486694 
L 234.912587 -511.05383 
L 234.925153 -506.620965 
L 234.93058 -502.188101 
L 234.917318 -497.755236 
L 234.904984 -493.322372 
L 234.902673 -488.889507 
L 234.902245 -484.456643 
L 234.905719 -480.023778 
L 234.916717 -475.590914 
L 234.921329 -471.158049 
L 234.914637 -466.725185 
L 234.914682 -462.29232 
L 234.922093 -457.859456 
L 234.923272 -453.426591 
L 234.934627 -448.993727 
L 234.967731 -444.560862 
L 234.978884 -440.127998 
L 234.95055 -435.695133 
L 234.931407 -431.262269 
L 234.934329 -426.829404 
L 234.938302 -422.39654 
L 234.968677 -417.963675 
L 235.036016 -413.530811 
L 235.056663 -409.097946 
L 235.007999 -404.665082 
L 234.987566 -400.232217 
L 235.004339 -395.799352 
L 234.995307 -391.366488 
L 235.000896 -386.933623 
L 235.060282 -382.500759 
L 235.08413 -378.067894 
L 235.069489 -373.63503 
L 235.147859 -369.202165 
L 235.247976 -364.769301 
L 235.192892 -360.336436 
L 235.104457 -355.903572 
L 235.129857 -351.470707 
L 235.14418 -347.037843 
L 235.116957 -342.604978 
L 235.205978 -338.172114 
L 235.322819 -333.739249 
L 235.278936 -329.306385 
L 235.273396 -324.87352 
L 235.449349 -320.440656 
L 235.51044 -316.007791 
L 235.485614 -311.574927 
L 235.795059 -307.142062 
L 236.140997 -302.709198 
L 236.040762 -298.276333 
L 236.160329 -293.843469 
L 236.846789 -289.410604 
L 237.100484 -284.97774 
L 237.282871 -280.544875 
L 238.992674 -276.112011 
L 241.042952 -271.679146 
L 243.788814 -267.246282 
L 255.241878 -262.813417 
L 272.971501 -258.380553 
L 273.955679 -253.947688 
L 255.616123 -249.514824 
L 240.543677 -245.081959 
z
" style="stroke: #494949"/>
    </defs>
    <g clip-path="url(#pfdeebef6ee)">
     <use xlink:href="#m46794b798f" x="0" y="864" style="fill: #cc8963; stroke: #494949"/>
    </g>
   </g>
   <g id="FillBetweenPolyCollection_3">
    <defs>
     <path id="mab474cf2c3" d="M 337.869219 -249.346306 
L 327.234298 -249.346306 
L 315.617686 -251.664344 
L 299.632379 -253.982383 
L 293.487705 -256.300421 
L 304.250773 -258.61846 
L 319.985226 -260.936498 
L 328.778251 -263.254536 
L 330.242607 -265.572575 
L 327.765275 -267.890613 
L 324.754787 -270.208652 
L 324.713606 -272.52669 
L 327.735835 -274.844729 
L 330.704493 -277.162767 
L 331.867864 -279.480806 
L 331.477013 -281.798844 
L 330.220292 -284.116883 
L 329.30306 -286.434921 
L 329.782766 -288.75296 
L 331.106449 -291.070998 
L 332.052689 -293.389037 
L 332.246589 -295.707075 
L 331.853786 -298.025114 
L 331.218337 -300.343152 
L 330.974765 -302.661191 
L 331.412272 -304.979229 
L 332.044339 -307.297268 
L 332.379094 -309.615306 
L 332.364259 -311.933345 
L 332.104682 -314.251383 
L 331.820804 -316.569422 
L 331.818834 -318.88746 
L 332.102587 -321.205498 
L 332.378792 -323.523537 
L 332.480951 -325.841575 
L 332.424746 -328.159614 
L 332.273753 -330.477652 
L 332.165298 -332.795691 
L 332.223283 -335.113729 
L 332.380718 -337.431768 
L 332.492243 -339.749806 
L 332.512505 -342.067845 
L 332.459255 -344.385883 
L 332.37524 -346.703922 
L 332.343571 -349.02196 
L 332.401721 -351.339999 
L 332.484753 -353.658037 
L 332.526298 -355.976076 
L 332.514713 -358.294114 
L 332.459829 -360.612153 
L 332.401616 -362.930191 
L 332.401633 -365.24823 
L 332.460105 -367.566268 
L 332.517474 -369.884307 
L 332.543149 -372.202345 
L 332.547541 -374.520384 
L 332.544527 -376.838422 
L 332.54184 -379.15646 
L 332.543343 -381.474499 
L 332.547223 -383.792537 
L 332.548781 -386.110576 
L 332.543193 -388.428614 
L 332.525514 -390.746653 
L 332.501229 -393.064691 
L 332.492307 -395.38273 
L 332.509052 -397.700768 
L 332.532969 -400.018807 
L 332.546258 -402.336845 
L 332.548791 -404.654884 
L 332.545925 -406.972922 
L 332.542358 -409.290961 
L 332.542388 -411.608999 
L 332.546042 -413.927038 
L 332.5495 -416.245076 
L 332.550428 -418.563115 
L 332.548533 -420.881153 
L 332.544589 -423.199192 
L 332.54184 -425.51723 
L 332.543368 -427.835269 
L 332.547307 -430.153307 
L 332.549316 -432.471346 
L 332.545918 -434.789384 
L 332.534162 -437.107422 
L 332.517993 -439.425461 
L 332.512143 -441.743499 
L 332.52338 -444.061538 
L 332.539285 -446.379576 
L 332.547953 -448.697615 
L 332.549055 -451.015653 
L 332.545929 -453.333692 
L 332.542346 -455.65173 
L 332.542401 -457.969769 
L 332.546051 -460.287807 
L 332.549372 -462.605846 
L 332.549567 -464.923884 
L 332.545337 -467.241923 
L 332.537379 -469.559961 
L 332.531914 -471.878 
L 332.535036 -474.196038 
L 332.543156 -476.514077 
L 332.549057 -478.832115 
L 332.55446 -478.832115 
L 332.55446 -478.832115 
L 332.560361 -476.514077 
L 332.568482 -474.196038 
L 332.571603 -471.878 
L 332.566139 -469.559961 
L 332.55818 -467.241923 
L 332.55395 -464.923884 
L 332.554146 -462.605846 
L 332.557466 -460.287807 
L 332.561117 -457.969769 
L 332.561171 -455.65173 
L 332.557588 -453.333692 
L 332.554463 -451.015653 
L 332.555564 -448.697615 
L 332.564232 -446.379576 
L 332.580137 -444.061538 
L 332.591374 -441.743499 
L 332.585525 -439.425461 
L 332.569356 -437.107422 
L 332.557599 -434.789384 
L 332.554202 -432.471346 
L 332.55621 -430.153307 
L 332.560149 -427.835269 
L 332.561677 -425.51723 
L 332.558928 -423.199192 
L 332.554984 -420.881153 
L 332.55309 -418.563115 
L 332.554018 -416.245076 
L 332.557476 -413.927038 
L 332.561129 -411.608999 
L 332.56116 -409.290961 
L 332.557592 -406.972922 
L 332.554727 -404.654884 
L 332.557259 -402.336845 
L 332.570548 -400.018807 
L 332.594465 -397.700768 
L 332.611211 -395.38273 
L 332.602288 -393.064691 
L 332.578003 -390.746653 
L 332.560325 -388.428614 
L 332.554736 -386.110576 
L 332.556294 -383.792537 
L 332.560174 -381.474499 
L 332.561677 -379.15646 
L 332.55899 -376.838422 
L 332.555977 -374.520384 
L 332.560368 -372.202345 
L 332.586044 -369.884307 
L 332.643413 -367.566268 
L 332.701885 -365.24823 
L 332.701901 -362.930191 
L 332.643689 -360.612153 
L 332.588804 -358.294114 
L 332.57722 -355.976076 
L 332.618765 -353.658037 
L 332.701797 -351.339999 
L 332.759947 -349.02196 
L 332.728278 -346.703922 
L 332.644262 -344.385883 
L 332.591013 -342.067845 
L 332.611274 -339.749806 
L 332.7228 -337.431768 
L 332.880235 -335.113729 
L 332.93822 -332.795691 
L 332.829765 -330.477652 
L 332.678772 -328.159614 
L 332.622567 -325.841575 
L 332.724726 -323.523537 
L 333.000931 -321.205498 
L 333.284684 -318.88746 
L 333.282713 -316.569422 
L 332.998835 -314.251383 
L 332.739259 -311.933345 
L 332.724424 -309.615306 
L 333.059178 -307.297268 
L 333.691245 -304.979229 
L 334.128752 -302.661191 
L 333.88518 -300.343152 
L 333.249732 -298.025114 
L 332.856928 -295.707075 
L 333.050829 -293.389037 
L 333.997069 -291.070998 
L 335.320752 -288.75296 
L 335.800457 -286.434921 
L 334.883225 -284.116883 
L 333.626505 -281.798844 
L 333.235653 -279.480806 
L 334.399024 -277.162767 
L 337.367682 -274.844729 
L 340.389911 -272.52669 
L 340.34873 -270.208652 
L 337.338243 -267.890613 
L 334.860911 -265.572575 
L 336.325266 -263.254536 
L 345.118292 -260.936498 
L 360.852744 -258.61846 
L 371.615812 -256.300421 
L 365.471139 -253.982383 
L 349.485832 -251.664344 
L 337.869219 -249.346306 
z
" style="stroke: #494949"/>
    </defs>
    <g clip-path="url(#pfdeebef6ee)">
     <use xlink:href="#mab474cf2c3" x="0" y="864" style="fill: #5f9e6e; stroke: #494949"/>
    </g>
   </g>
   <g id="FillBetweenPolyCollection_4">
    <defs>
     <path id="m9e9fdfe117" d="M 435.713238 -247.555146 
L 424.710546 -247.555146 
L 409.015579 -251.157787 
L 391.147839 -254.760427 
L 395.714506 -258.363068 
L 415.008241 -261.965708 
L 423.997401 -265.568349 
L 422.434238 -269.170989 
L 422.01309 -272.77363 
L 425.769338 -276.37627 
L 428.079136 -279.978911 
L 427.067888 -283.581551 
L 426.132918 -287.184192 
L 427.540641 -290.786832 
L 429.060835 -294.389473 
L 428.901426 -297.992113 
L 428.21621 -301.594754 
L 428.614347 -305.197394 
L 429.495528 -308.800035 
L 429.620083 -312.402675 
L 429.208818 -316.005316 
L 429.227853 -319.607956 
L 429.710696 -323.210597 
L 429.901685 -326.813237 
L 429.675457 -330.415878 
L 429.569525 -334.018518 
L 429.826454 -337.621159 
L 430.033311 -341.223799 
L 429.96404 -344.82644 
L 429.857626 -348.42908 
L 429.952567 -352.031721 
L 430.088681 -355.634362 
L 430.060134 -359.237002 
L 429.954472 -362.839643 
L 429.982165 -366.442283 
L 430.105843 -370.044924 
L 430.151942 -373.647564 
L 430.1176 -377.250205 
L 430.109608 -380.852845 
L 430.155695 -384.455486 
L 430.184578 -388.058126 
L 430.171126 -391.660767 
L 430.158264 -395.263407 
L 430.175757 -398.866048 
L 430.192149 -402.468688 
L 430.179085 -406.071329 
L 430.159058 -409.673969 
L 430.16882 -413.27661 
L 430.191143 -416.87925 
L 430.190153 -420.481891 
L 430.172533 -424.084531 
L 430.172637 -427.687172 
L 430.191371 -431.289812 
L 430.197732 -434.892453 
L 430.185862 -438.495093 
L 430.180182 -442.097734 
L 430.192208 -445.700374 
L 430.200046 -449.303015 
L 430.190212 -452.905656 
L 430.179753 -456.508296 
L 430.188091 -460.110937 
L 430.200953 -463.713577 
L 430.199736 -467.316218 
L 430.191369 -470.918858 
L 430.193187 -474.521499 
L 430.2015 -478.124139 
L 430.198504 -481.72678 
L 430.184262 -485.32942 
L 430.181067 -488.932061 
L 430.194545 -492.534701 
L 430.202338 -496.137342 
L 430.195921 -499.739982 
L 430.19046 -503.342623 
L 430.197716 -506.945263 
L 430.207401 -510.547904 
L 430.211211 -514.150544 
L 430.211837 -517.753185 
L 430.211779 -521.355825 
L 430.210858 -524.958466 
L 430.207312 -528.561106 
L 430.202187 -532.163747 
L 430.202057 -535.766387 
L 430.207125 -539.369028 
L 430.210787 -542.971668 
L 430.21177 -546.574309 
L 430.211886 -550.17695 
L 430.211892 -553.77959 
L 430.211892 -557.382231 
L 430.211892 -560.984871 
L 430.211892 -564.587512 
L 430.211892 -568.190152 
L 430.211892 -571.792793 
L 430.211892 -575.395433 
L 430.211889 -578.998074 
L 430.211818 -582.600714 
L 430.211121 -586.203355 
L 430.208067 -589.805995 
L 430.202818 -593.408636 
L 430.201597 -597.011276 
L 430.206305 -600.613917 
L 430.210442 -604.216557 
L 430.213342 -604.216557 
L 430.213342 -604.216557 
L 430.217479 -600.613917 
L 430.222187 -597.011276 
L 430.220966 -593.408636 
L 430.215718 -589.805995 
L 430.212663 -586.203355 
L 430.211966 -582.600714 
L 430.211895 -578.998074 
L 430.211892 -575.395433 
L 430.211892 -571.792793 
L 430.211892 -568.190152 
L 430.211892 -564.587512 
L 430.211892 -560.984871 
L 430.211892 -557.382231 
L 430.211892 -553.77959 
L 430.211899 -550.17695 
L 430.212015 -546.574309 
L 430.212997 -542.971668 
L 430.216659 -539.369028 
L 430.221727 -535.766387 
L 430.221597 -532.163747 
L 430.216472 -528.561106 
L 430.212926 -524.958466 
L 430.212005 -521.355825 
L 430.211947 -517.753185 
L 430.212573 -514.150544 
L 430.216383 -510.547904 
L 430.226068 -506.945263 
L 430.233324 -503.342623 
L 430.227863 -499.739982 
L 430.221447 -496.137342 
L 430.229239 -492.534701 
L 430.242717 -488.932061 
L 430.239522 -485.32942 
L 430.22528 -481.72678 
L 430.222284 -478.124139 
L 430.230597 -474.521499 
L 430.232415 -470.918858 
L 430.224048 -467.316218 
L 430.222831 -463.713577 
L 430.235693 -460.110937 
L 430.244031 -456.508296 
L 430.233572 -452.905656 
L 430.223738 -449.303015 
L 430.231577 -445.700374 
L 430.243602 -442.097734 
L 430.237922 -438.495093 
L 430.226052 -434.892453 
L 430.232413 -431.289812 
L 430.251148 -427.687172 
L 430.251251 -424.084531 
L 430.233631 -420.481891 
L 430.232641 -416.87925 
L 430.254964 -413.27661 
L 430.264726 -409.673969 
L 430.244699 -406.071329 
L 430.231635 -402.468688 
L 430.248027 -398.866048 
L 430.26552 -395.263407 
L 430.252658 -391.660767 
L 430.239206 -388.058126 
L 430.268089 -384.455486 
L 430.314176 -380.852845 
L 430.306184 -377.250205 
L 430.271842 -373.647564 
L 430.317941 -370.044924 
L 430.441619 -366.442283 
L 430.469312 -362.839643 
L 430.36365 -359.237002 
L 430.335103 -355.634362 
L 430.471217 -352.031721 
L 430.566158 -348.42908 
L 430.459744 -344.82644 
L 430.390473 -341.223799 
L 430.59733 -337.621159 
L 430.854259 -334.018518 
L 430.748327 -330.415878 
L 430.522099 -326.813237 
L 430.713088 -323.210597 
L 431.195932 -319.607956 
L 431.214966 -316.005316 
L 430.803701 -312.402675 
L 430.928257 -308.800035 
L 431.809437 -305.197394 
L 432.207574 -301.594754 
L 431.522358 -297.992113 
L 431.362949 -294.389473 
L 432.883143 -290.786832 
L 434.290866 -287.184192 
L 433.355896 -283.581551 
L 432.344648 -279.978911 
L 434.654446 -276.37627 
L 438.410694 -272.77363 
L 437.989547 -269.170989 
L 436.426384 -265.568349 
L 445.415543 -261.965708 
L 464.709278 -258.363068 
L 469.275945 -254.760427 
L 451.408206 -251.157787 
L 435.713238 -247.555146 
z
" style="stroke: #494949"/>
    </defs>
    <g clip-path="url(#pfdeebef6ee)">
     <use xlink:href="#m9e9fdfe117" x="0" y="864" style="fill: #b55d60; stroke: #494949"/>
    </g>
   </g>
   <g id="FillBetweenPolyCollection_5">
    <defs>
     <path id="m927b9baa85" d="M 533.170249 -242.638092 
L 522.573802 -242.638092 
L 510.070331 -247.588484 
L 493.382437 -252.538876 
L 488.807972 -257.489268 
L 500.109535 -262.43966 
L 511.776677 -267.390052 
L 517.128076 -272.340444 
L 520.27025 -277.290836 
L 522.010614 -282.241228 
L 522.633542 -287.19162 
L 523.62408 -292.142012 
L 524.369134 -297.092404 
L 524.553228 -302.042796 
L 525.002326 -306.993188 
L 525.346472 -311.943579 
L 525.345242 -316.893971 
L 525.67414 -321.844363 
L 526.108052 -326.794755 
L 526.225344 -331.745147 
L 526.393248 -336.695539 
L 526.584447 -341.645931 
L 526.572901 -346.596323 
L 526.691016 -351.546715 
L 526.97146 -356.497107 
L 527.104164 -361.447499 
L 527.176355 -366.397891 
L 527.267005 -371.348283 
L 527.259984 -376.298675 
L 527.276283 -381.249066 
L 527.395557 -386.199458 
L 527.465442 -391.14985 
L 527.493532 -396.100242 
L 527.555199 -401.050634 
L 527.581424 -406.001026 
L 527.578898 -410.951418 
L 527.599584 -415.90181 
L 527.589435 -420.852202 
L 527.571783 -425.802594 
L 527.62923 -430.752986 
L 527.705723 -435.703378 
L 527.738298 -440.65377 
L 527.750755 -445.604162 
L 527.742848 -450.554553 
L 527.723438 -455.504945 
L 527.739876 -460.455337 
L 527.77809 -465.405729 
L 527.797231 -470.356121 
L 527.805264 -475.306513 
L 527.806877 -480.256905 
L 527.798144 -485.207297 
L 527.800981 -490.157689 
L 527.818154 -495.108081 
L 527.828312 -500.058473 
L 527.833684 -505.008865 
L 527.841372 -509.959257 
L 527.843956 -514.909649 
L 527.840849 -519.86004 
L 527.830589 -524.810432 
L 527.809983 -529.760824 
L 527.800235 -534.711216 
L 527.815916 -539.661608 
L 527.834839 -544.612 
L 527.843715 -549.562392 
L 527.850776 -554.512784 
L 527.856317 -559.463176 
L 527.85871 -564.413568 
L 527.862556 -569.36396 
L 527.867754 -574.314352 
L 527.870896 -579.264744 
L 527.871853 -584.215136 
L 527.87201 -589.165527 
L 527.872025 -594.115919 
L 527.872025 -599.066311 
L 527.872025 -604.016703 
L 527.872025 -608.967095 
L 527.872025 -613.917487 
L 527.872025 -618.867879 
L 527.872025 -623.818271 
L 527.872025 -628.768663 
L 527.872025 -633.719055 
L 527.872025 -638.669447 
L 527.872025 -643.619839 
L 527.872012 -648.570231 
L 527.871872 -653.520623 
L 527.870991 -658.471014 
L 527.868011 -663.421406 
L 527.863069 -668.371798 
L 527.860538 -673.32219 
L 527.863555 -678.272582 
L 527.868435 -683.222974 
L 527.87115 -688.173366 
L 527.871898 -693.123758 
L 527.871949 -698.07415 
L 527.871473 -703.024542 
L 527.869407 -707.974934 
L 527.864886 -712.925326 
L 527.860835 -717.875718 
L 527.861941 -722.82611 
L 527.866801 -727.776501 
L 527.87047 -732.726893 
L 527.873581 -732.726893 
L 527.873581 -732.726893 
L 527.877249 -727.776501 
L 527.882109 -722.82611 
L 527.883216 -717.875718 
L 527.879165 -712.925326 
L 527.874644 -707.974934 
L 527.872578 -703.024542 
L 527.872102 -698.07415 
L 527.872153 -693.123758 
L 527.872901 -688.173366 
L 527.875616 -683.222974 
L 527.880496 -678.272582 
L 527.883513 -673.32219 
L 527.880982 -668.371798 
L 527.87604 -663.421406 
L 527.87306 -658.471014 
L 527.872179 -653.520623 
L 527.872038 -648.570231 
L 527.872026 -643.619839 
L 527.872025 -638.669447 
L 527.872025 -633.719055 
L 527.872025 -628.768663 
L 527.872025 -623.818271 
L 527.872025 -618.867879 
L 527.872025 -613.917487 
L 527.872025 -608.967095 
L 527.872025 -604.016703 
L 527.872025 -599.066311 
L 527.872026 -594.115919 
L 527.872041 -589.165527 
L 527.872198 -584.215136 
L 527.873155 -579.264744 
L 527.876297 -574.314352 
L 527.881495 -569.36396 
L 527.88534 -564.413568 
L 527.887734 -559.463176 
L 527.893275 -554.512784 
L 527.900336 -549.562392 
L 527.909211 -544.612 
L 527.928135 -539.661608 
L 527.943816 -534.711216 
L 527.934068 -529.760824 
L 527.913461 -524.810432 
L 527.903202 -519.86004 
L 527.900095 -514.909649 
L 527.902679 -509.959257 
L 527.910367 -505.008865 
L 527.915739 -500.058473 
L 527.925897 -495.108081 
L 527.94307 -490.157689 
L 527.945907 -485.207297 
L 527.937174 -480.256905 
L 527.938787 -475.306513 
L 527.94682 -470.356121 
L 527.965961 -465.405729 
L 528.004175 -460.455337 
L 528.020613 -455.504945 
L 528.001203 -450.554553 
L 527.993296 -445.604162 
L 528.005753 -440.65377 
L 528.038327 -435.703378 
L 528.114821 -430.752986 
L 528.172267 -425.802594 
L 528.154616 -420.852202 
L 528.144467 -415.90181 
L 528.165152 -410.951418 
L 528.162627 -406.001026 
L 528.188852 -401.050634 
L 528.250519 -396.100242 
L 528.278609 -391.14985 
L 528.348494 -386.199458 
L 528.467768 -381.249066 
L 528.484067 -376.298675 
L 528.477046 -371.348283 
L 528.567696 -366.397891 
L 528.639887 -361.447499 
L 528.772591 -356.497107 
L 529.053034 -351.546715 
L 529.17115 -346.596323 
L 529.159604 -341.645931 
L 529.350802 -336.695539 
L 529.518707 -331.745147 
L 529.635998 -326.794755 
L 530.069911 -321.844363 
L 530.398809 -316.893971 
L 530.397579 -311.943579 
L 530.741725 -306.993188 
L 531.190823 -302.042796 
L 531.374917 -297.092404 
L 532.119971 -292.142012 
L 533.110509 -287.19162 
L 533.733437 -282.241228 
L 535.473801 -277.290836 
L 538.615975 -272.340444 
L 543.967374 -267.390052 
L 555.634515 -262.43966 
L 566.936079 -257.489268 
L 562.361614 -252.538876 
L 545.67372 -247.588484 
L 533.170249 -242.638092 
z
" style="stroke: #494949"/>
    </defs>
    <g clip-path="url(#pfdeebef6ee)">
     <use xlink:href="#m927b9baa85" x="0" y="864" style="fill: #857aab; stroke: #494949"/>
    </g>
   </g>
   <g id="FillBetweenPolyCollection_6">
    <defs>
     <path id="mf35802c551" d="M 631.071408 -250.529704 
L 619.99291 -250.529704 
L 604.470392 -252.823835 
L 586.468105 -255.117967 
L 590.189554 -257.412098 
L 609.934002 -259.706229 
L 622.15967 -262.000361 
L 624.985783 -264.294492 
L 624.26608 -266.588624 
L 621.610671 -268.882755 
L 619.522907 -271.176887 
L 621.039757 -273.471018 
L 623.893509 -275.76515 
L 625.231274 -278.059281 
L 625.403535 -280.353413 
L 624.981119 -282.647544 
L 624.104374 -284.941675 
L 623.724103 -287.235807 
L 624.415268 -289.529938 
L 625.195169 -291.82407 
L 625.47442 -294.118201 
L 625.454033 -296.412333 
L 625.204066 -298.706464 
L 624.82862 -301.000596 
L 624.795987 -303.294727 
L 625.156385 -305.588858 
L 625.43816 -307.88299 
L 625.514054 -310.177121 
L 625.481265 -312.471253 
L 625.349652 -314.765384 
L 625.208696 -317.059516 
L 625.252484 -319.353647 
L 625.414184 -321.647779 
L 625.507403 -323.94191 
L 625.523558 -326.236041 
L 625.49409 -328.530173 
L 625.418211 -330.824304 
L 625.365272 -333.118436 
L 625.412928 -335.412567 
L 625.490596 -337.706699 
L 625.524867 -340.00083 
L 625.529191 -342.294962 
L 625.52002 -344.589093 
L 625.502101 -346.883225 
L 625.495783 -349.177356 
L 625.510684 -351.471487 
L 625.525956 -353.765619 
L 625.530947 -356.05975 
L 625.529147 -358.353882 
L 625.519749 -360.648013 
L 625.506722 -362.942145 
L 625.506722 -365.236276 
L 625.519748 -367.530408 
L 625.529117 -369.824539 
L 625.530513 -372.11867 
L 625.522864 -374.412802 
L 625.499947 -376.706933 
L 625.477595 -379.001065 
L 625.487073 -381.295196 
L 625.513981 -383.589328 
L 625.528456 -385.883459 
L 625.530246 -388.177591 
L 625.522909 -390.471722 
L 625.505663 -392.765853 
L 625.495073 -395.059985 
L 625.506837 -397.354116 
L 625.523716 -399.648248 
L 625.530586 -401.942379 
L 625.530028 -404.236511 
L 625.522325 -406.530642 
L 625.508852 -408.824774 
L 625.505204 -411.118905 
L 625.516951 -413.413036 
L 625.527958 -415.707168 
L 625.53133 -418.001299 
L 625.529921 -420.295431 
L 625.523316 -422.589562 
L 625.514837 -424.883694 
L 625.515605 -427.177825 
L 625.524441 -429.471957 
L 625.530368 -431.766088 
L 625.531462 -434.06022 
L 625.528732 -436.354351 
L 625.52082 -438.648482 
L 625.513803 -440.942614 
L 625.517664 -443.236745 
L 625.526572 -445.530877 
L 625.531032 -447.825008 
L 625.531166 -450.11914 
L 625.527114 -452.413271 
L 625.518336 -454.707403 
L 625.513669 -457.001534 
L 625.520094 -459.295665 
L 625.528311 -461.589797 
L 625.531403 -463.883928 
L 625.530592 -466.17806 
L 625.525088 -468.472191 
L 625.516141 -470.766323 
L 625.514455 -473.060454 
L 625.522613 -475.354586 
L 625.529648 -477.648717 
L 625.534669 -477.648717 
L 625.534669 -477.648717 
L 625.541704 -475.354586 
L 625.549863 -473.060454 
L 625.548176 -470.766323 
L 625.539229 -468.472191 
L 625.533726 -466.17806 
L 625.532915 -463.883928 
L 625.536007 -461.589797 
L 625.544224 -459.295665 
L 625.550649 -457.001534 
L 625.545982 -454.707403 
L 625.537204 -452.413271 
L 625.533152 -450.11914 
L 625.533286 -447.825008 
L 625.537746 -445.530877 
L 625.546654 -443.236745 
L 625.550515 -440.942614 
L 625.543498 -438.648482 
L 625.535586 -436.354351 
L 625.532856 -434.06022 
L 625.53395 -431.766088 
L 625.539877 -429.471957 
L 625.548713 -427.177825 
L 625.54948 -424.883694 
L 625.541001 -422.589562 
L 625.534397 -420.295431 
L 625.532988 -418.001299 
L 625.53636 -415.707168 
L 625.547367 -413.413036 
L 625.559114 -411.118905 
L 625.555465 -408.824774 
L 625.541993 -406.530642 
L 625.53429 -404.236511 
L 625.533732 -401.942379 
L 625.540602 -399.648248 
L 625.55748 -397.354116 
L 625.569245 -395.059985 
L 625.558655 -392.765853 
L 625.541409 -390.471722 
L 625.534071 -388.177591 
L 625.535862 -385.883459 
L 625.550337 -383.589328 
L 625.577245 -381.295196 
L 625.586723 -379.001065 
L 625.564371 -376.706933 
L 625.541454 -374.412802 
L 625.533804 -372.11867 
L 625.5352 -369.824539 
L 625.54457 -367.530408 
L 625.557595 -365.236276 
L 625.557595 -362.942145 
L 625.544569 -360.648013 
L 625.535171 -358.353882 
L 625.53337 -356.05975 
L 625.538362 -353.765619 
L 625.553634 -351.471487 
L 625.568535 -349.177356 
L 625.562217 -346.883225 
L 625.544298 -344.589093 
L 625.535127 -342.294962 
L 625.539451 -340.00083 
L 625.573722 -337.706699 
L 625.65139 -335.412567 
L 625.699046 -333.118436 
L 625.646107 -330.824304 
L 625.570228 -328.530173 
L 625.54076 -326.236041 
L 625.556915 -323.94191 
L 625.650134 -321.647779 
L 625.811833 -319.353647 
L 625.855621 -317.059516 
L 625.714666 -314.765384 
L 625.583053 -312.471253 
L 625.550263 -310.177121 
L 625.626158 -307.88299 
L 625.907932 -305.588858 
L 626.26833 -303.294727 
L 626.235697 -301.000596 
L 625.860252 -298.706464 
L 625.610285 -296.412333 
L 625.589898 -294.118201 
L 625.869148 -291.82407 
L 626.649049 -289.529938 
L 627.340214 -287.235807 
L 626.959944 -284.941675 
L 626.083199 -282.647544 
L 625.660783 -280.353413 
L 625.833043 -278.059281 
L 627.170809 -275.76515 
L 630.02456 -273.471018 
L 631.54141 -271.176887 
L 629.453646 -268.882755 
L 626.798238 -266.588624 
L 626.078534 -264.294492 
L 628.904647 -262.000361 
L 641.130316 -259.706229 
L 660.874764 -257.412098 
L 664.596212 -255.117967 
L 646.593925 -252.823835 
L 631.071408 -250.529704 
z
" style="stroke: #494949"/>
    </defs>
    <g clip-path="url(#pfdeebef6ee)">
     <use xlink:href="#mf35802c551" x="0" y="864" style="fill: #8d7866; stroke: #494949"/>
    </g>
   </g>
   <g id="line2d_9">
    <path d="M 137.231492 608.054912 
L 137.231492 608.054912 
" clip-path="url(#pfdeebef6ee)" style="fill: none; stroke: #494949; stroke-width: 1.5; stroke-linecap: round"/>
   </g>
   <g id="line2d_10">
    <path d="M 137.231492 608.054912 
L 137.231492 608.054912 
" clip-path="url(#pfdeebef6ee)" style="fill: none; stroke: #494949; stroke-width: 4.5; stroke-linecap: round"/>
   </g>
   <g id="line2d_11">
    <path d="M 137.231492 608.054912 
" clip-path="url(#pfdeebef6ee)" style="fill: none; stroke: #494949; stroke-width: 1.2; stroke-linecap: round"/>
    <defs>
     <path id="m2e69780c7d" d="M 1.875 0 
L -1.875 -0 
" style="stroke: #ffffff; stroke-width: 0.9"/>
    </defs>
    <g clip-path="url(#pfdeebef6ee)">
     <use xlink:href="#m2e69780c7d" x="137.231492" y="608.054912" style="fill: #ffffff; stroke: #ffffff; stroke-width: 0.9"/>
    </g>
   </g>
   <g id="line2d_12">
    <path d="M 234.891625 608.054912 
L 234.891625 608.054912 
" clip-path="url(#pfdeebef6ee)" style="fill: none; stroke: #494949; stroke-width: 1.5; stroke-linecap: round"/>
   </g>
   <g id="line2d_13">
    <path d="M 234.891625 608.054912 
L 234.891625 608.054912 
" clip-path="url(#pfdeebef6ee)" style="fill: none; stroke: #494949; stroke-width: 4.5; stroke-linecap: round"/>
   </g>
   <g id="line2d_14">
    <path d="M 234.891625 608.054912 
" clip-path="url(#pfdeebef6ee)" style="fill: none; stroke: #494949; stroke-width: 1.2; stroke-linecap: round"/>
    <g clip-path="url(#pfdeebef6ee)">
     <use xlink:href="#m2e69780c7d" x="234.891625" y="608.054912" style="fill: #ffffff; stroke: #ffffff; stroke-width: 0.9"/>
    </g>
   </g>
   <g id="line2d_15">
    <path d="M 332.551759 608.054912 
L 332.551759 577.156591 
" clip-path="url(#pfdeebef6ee)" style="fill: none; stroke: #494949; stroke-width: 1.5; stroke-linecap: round"/>
   </g>
   <g id="line2d_16">
    <path d="M 332.551759 608.054912 
L 332.551759 592.605752 
" clip-path="url(#pfdeebef6ee)" style="fill: none; stroke: #494949; stroke-width: 4.5; stroke-linecap: round"/>
   </g>
   <g id="line2d_17">
    <path d="M 332.551759 608.054912 
" clip-path="url(#pfdeebef6ee)" style="fill: none; stroke: #494949; stroke-width: 1.2; stroke-linecap: round"/>
    <g clip-path="url(#pfdeebef6ee)">
     <use xlink:href="#m2e69780c7d" x="332.551759" y="608.054912" style="fill: #ffffff; stroke: #ffffff; stroke-width: 0.9"/>
    </g>
   </g>
   <g id="line2d_18">
    <path d="M 430.211892 608.054912 
L 430.211892 577.156591 
" clip-path="url(#pfdeebef6ee)" style="fill: none; stroke: #494949; stroke-width: 1.5; stroke-linecap: round"/>
   </g>
   <g id="line2d_19">
    <path d="M 430.211892 608.054912 
L 430.211892 592.605752 
" clip-path="url(#pfdeebef6ee)" style="fill: none; stroke: #494949; stroke-width: 4.5; stroke-linecap: round"/>
   </g>
   <g id="line2d_20">
    <path d="M 430.211892 608.054912 
" clip-path="url(#pfdeebef6ee)" style="fill: none; stroke: #494949; stroke-width: 1.2; stroke-linecap: round"/>
    <g clip-path="url(#pfdeebef6ee)">
     <use xlink:href="#m2e69780c7d" x="430.211892" y="608.054912" style="fill: #ffffff; stroke: #ffffff; stroke-width: 0.9"/>
    </g>
   </g>
   <g id="line2d_21">
    <path d="M 527.872025 608.054912 
L 527.872025 577.156591 
" clip-path="url(#pfdeebef6ee)" style="fill: none; stroke: #494949; stroke-width: 1.5; stroke-linecap: round"/>
   </g>
   <g id="line2d_22">
    <path d="M 527.872025 608.054912 
L 527.872025 592.605752 
" clip-path="url(#pfdeebef6ee)" style="fill: none; stroke: #494949; stroke-width: 4.5; stroke-linecap: round"/>
   </g>
   <g id="line2d_23">
    <path d="M 527.872025 608.054912 
" clip-path="url(#pfdeebef6ee)" style="fill: none; stroke: #494949; stroke-width: 1.2; stroke-linecap: round"/>
    <g clip-path="url(#pfdeebef6ee)">
     <use xlink:href="#m2e69780c7d" x="527.872025" y="608.054912" style="fill: #ffffff; stroke: #ffffff; stroke-width: 0.9"/>
    </g>
   </g>
   <g id="line2d_24">
    <path d="M 625.532159 608.054912 
L 625.532159 608.054912 
" clip-path="url(#pfdeebef6ee)" style="fill: none; stroke: #494949; stroke-width: 1.5; stroke-linecap: round"/>
   </g>
   <g id="line2d_25">
    <path d="M 625.532159 608.054912 
L 625.532159 608.054912 
" clip-path="url(#pfdeebef6ee)" style="fill: none; stroke: #494949; stroke-width: 4.5; stroke-linecap: round"/>
   </g>
   <g id="line2d_26">
    <path d="M 625.532159 608.054912 
" clip-path="url(#pfdeebef6ee)" style="fill: none; stroke: #494949; stroke-width: 1.2; stroke-linecap: round"/>
    <g clip-path="url(#pfdeebef6ee)">
     <use xlink:href="#m2e69780c7d" x="625.532159" y="608.054912" style="fill: #ffffff; stroke: #ffffff; stroke-width: 0.9"/>
    </g>
   </g>
   <g id="line2d_27">
    <path d="M 137.231492 574.189678 
L 137.231492 563.407725 
L 234.891625 563.407725 
L 234.891625 574.189678 
" style="fill: none; stroke: #333333; stroke-width: 1.5; stroke-linecap: round"/>
   </g>
   <g id="line2d_28">
    <path d="M 234.891625 533.781986 
L 234.891625 523.000033 
L 332.551759 523.000033 
L 332.551759 533.781986 
" style="fill: none; stroke: #333333; stroke-width: 1.5; stroke-linecap: round"/>
   </g>
   <g id="line2d_29">
    <path d="M 332.551759 493.374295 
L 332.551759 482.592341 
L 430.211892 482.592341 
L 430.211892 493.374295 
" style="fill: none; stroke: #333333; stroke-width: 1.5; stroke-linecap: round"/>
   </g>
   <g id="line2d_30">
    <path d="M 430.211892 452.966603 
L 430.211892 442.184649 
L 527.872025 442.184649 
L 527.872025 452.966603 
" style="fill: none; stroke: #333333; stroke-width: 1.5; stroke-linecap: round"/>
   </g>
   <g id="line2d_31">
    <path d="M 527.872025 412.558911 
L 527.872025 401.776957 
L 625.532159 401.776957 
L 625.532159 412.558911 
" style="fill: none; stroke: #333333; stroke-width: 1.5; stroke-linecap: round"/>
   </g>
   <g id="line2d_32">
    <path d="M 137.231492 452.966603 
L 137.231492 442.184649 
L 332.551759 442.184649 
L 332.551759 452.966603 
" style="fill: none; stroke: #333333; stroke-width: 1.5; stroke-linecap: round"/>
   </g>
   <g id="line2d_33">
    <path d="M 234.891625 412.558911 
L 234.891625 401.776957 
L 430.211892 401.776957 
L 430.211892 412.558911 
" style="fill: none; stroke: #333333; stroke-width: 1.5; stroke-linecap: round"/>
   </g>
   <g id="line2d_34">
    <path d="M 332.551759 372.151219 
L 332.551759 361.369265 
L 527.872025 361.369265 
L 527.872025 372.151219 
" style="fill: none; stroke: #333333; stroke-width: 1.5; stroke-linecap: round"/>
   </g>
   <g id="line2d_35">
    <path d="M 430.211892 331.743527 
L 430.211892 320.961573 
L 625.532159 320.961573 
L 625.532159 331.743527 
" style="fill: none; stroke: #333333; stroke-width: 1.5; stroke-linecap: round"/>
   </g>
   <g id="line2d_36">
    <path d="M 137.231492 291.335835 
L 137.231492 280.553881 
L 430.211892 280.553881 
L 430.211892 291.335835 
" style="fill: none; stroke: #333333; stroke-width: 1.5; stroke-linecap: round"/>
   </g>
   <g id="line2d_37">
    <path d="M 234.891625 250.928143 
L 234.891625 240.146189 
L 527.872025 240.146189 
L 527.872025 250.928143 
" style="fill: none; stroke: #333333; stroke-width: 1.5; stroke-linecap: round"/>
   </g>
   <g id="line2d_38">
    <path d="M 332.551759 210.520451 
L 332.551759 199.738497 
L 625.532159 199.738497 
L 625.532159 210.520451 
" style="fill: none; stroke: #333333; stroke-width: 1.5; stroke-linecap: round"/>
   </g>
   <g id="line2d_39">
    <path d="M 137.231492 170.112759 
L 137.231492 159.330805 
L 527.872025 159.330805 
L 527.872025 170.112759 
" style="fill: none; stroke: #333333; stroke-width: 1.5; stroke-linecap: round"/>
   </g>
   <g id="line2d_40">
    <path d="M 234.891625 129.705067 
L 234.891625 118.923113 
L 625.532159 118.923113 
L 625.532159 129.705067 
" style="fill: none; stroke: #333333; stroke-width: 1.5; stroke-linecap: round"/>
   </g>
   <g id="line2d_41">
    <path d="M 137.231492 89.297375 
L 137.231492 78.515421 
L 625.532159 78.515421 
L 625.532159 89.297375 
" style="fill: none; stroke: #333333; stroke-width: 1.5; stroke-linecap: round"/>
   </g>
   <g id="patch_3">
    <path d="M 69.846 645.866348 
L 69.846 40.416 
" style="fill: none; stroke: #cccccc; stroke-linejoin: miter; stroke-linecap: square"/>
   </g>
   <g id="patch_4">
    <path d="M 692.917651 645.866348 
L 692.917651 40.416 
" style="fill: none; stroke: #cccccc; stroke-linejoin: miter; stroke-linecap: square"/>
   </g>
   <g id="patch_5">
    <path d="M 69.846 645.866348 
L 692.917651 645.866348 
" style="fill: none; stroke: #cccccc; stroke-linejoin: miter; stroke-linecap: square"/>
   </g>
   <g id="patch_6">
    <path d="M 69.846 40.416 
L 692.917651 40.416 
" style="fill: none; stroke: #cccccc; stroke-linejoin: miter; stroke-linecap: square"/>
   </g>
   <g id="text_17">
    <!-- **** -->
    <g style="fill: #262626" transform="translate(171.115559 558.591725) scale(0.192 -0.192)">
     <defs>
      <path id="ArialMT-2a" d="M 200 3741 
L 344 4184 
Q 841 4009 1066 3881 
Q 1006 4447 1003 4659 
L 1456 4659 
Q 1447 4350 1384 3884 
Q 1706 4047 2122 4184 
L 2266 3741 
Q 1869 3609 1488 3566 
Q 1678 3400 2025 2975 
L 1650 2709 
Q 1469 2956 1222 3381 
Q 991 2941 816 2709 
L 447 2975 
Q 809 3422 966 3566 
Q 563 3644 200 3741 
z
" transform="scale(0.015625)"/>
     </defs>
     <use xlink:href="#ArialMT-2a"/>
     <use xlink:href="#ArialMT-2a" transform="translate(38.916016 0)"/>
     <use xlink:href="#ArialMT-2a" transform="translate(77.832031 0)"/>
     <use xlink:href="#ArialMT-2a" transform="translate(116.748047 0)"/>
    </g>
   </g>
   <g id="text_18">
    <!-- **** -->
    <g style="fill: #262626" transform="translate(268.775692 518.184033) scale(0.192 -0.192)">
     <use xlink:href="#ArialMT-2a"/>
     <use xlink:href="#ArialMT-2a" transform="translate(38.916016 0)"/>
     <use xlink:href="#ArialMT-2a" transform="translate(77.832031 0)"/>
     <use xlink:href="#ArialMT-2a" transform="translate(116.748047 0)"/>
    </g>
   </g>
   <g id="text_19">
    <!-- *** -->
    <g style="fill: #262626" transform="translate(370.172325 477.776341) scale(0.192 -0.192)">
     <use xlink:href="#ArialMT-2a"/>
     <use xlink:href="#ArialMT-2a" transform="translate(38.916016 0)"/>
     <use xlink:href="#ArialMT-2a" transform="translate(77.832031 0)"/>
    </g>
   </g>
   <g id="text_20">
    <!-- **** -->
    <g style="fill: #262626" transform="translate(464.095959 437.368649) scale(0.192 -0.192)">
     <use xlink:href="#ArialMT-2a"/>
     <use xlink:href="#ArialMT-2a" transform="translate(38.916016 0)"/>
     <use xlink:href="#ArialMT-2a" transform="translate(77.832031 0)"/>
     <use xlink:href="#ArialMT-2a" transform="translate(116.748047 0)"/>
    </g>
   </g>
   <g id="text_21">
    <!-- **** -->
    <g style="fill: #262626" transform="translate(561.756092 396.960957) scale(0.192 -0.192)">
     <use xlink:href="#ArialMT-2a"/>
     <use xlink:href="#ArialMT-2a" transform="translate(38.916016 0)"/>
     <use xlink:href="#ArialMT-2a" transform="translate(77.832031 0)"/>
     <use xlink:href="#ArialMT-2a" transform="translate(116.748047 0)"/>
    </g>
   </g>
   <g id="text_22">
    <!-- **** -->
    <g style="fill: #262626" transform="translate(219.945625 437.368649) scale(0.192 -0.192)">
     <use xlink:href="#ArialMT-2a"/>
     <use xlink:href="#ArialMT-2a" transform="translate(38.916016 0)"/>
     <use xlink:href="#ArialMT-2a" transform="translate(77.832031 0)"/>
     <use xlink:href="#ArialMT-2a" transform="translate(116.748047 0)"/>
    </g>
   </g>
   <g id="text_23">
    <!-- **** -->
    <g style="fill: #262626" transform="translate(317.605759 396.960957) scale(0.192 -0.192)">
     <use xlink:href="#ArialMT-2a"/>
     <use xlink:href="#ArialMT-2a" transform="translate(38.916016 0)"/>
     <use xlink:href="#ArialMT-2a" transform="translate(77.832031 0)"/>
     <use xlink:href="#ArialMT-2a" transform="translate(116.748047 0)"/>
    </g>
   </g>
   <g id="text_24">
    <!-- **** -->
    <g style="fill: #262626" transform="translate(415.265892 356.553265) scale(0.192 -0.192)">
     <use xlink:href="#ArialMT-2a"/>
     <use xlink:href="#ArialMT-2a" transform="translate(38.916016 0)"/>
     <use xlink:href="#ArialMT-2a" transform="translate(77.832031 0)"/>
     <use xlink:href="#ArialMT-2a" transform="translate(116.748047 0)"/>
    </g>
   </g>
   <g id="text_25">
    <!-- **** -->
    <g style="fill: #262626" transform="translate(512.926025 316.145573) scale(0.192 -0.192)">
     <use xlink:href="#ArialMT-2a"/>
     <use xlink:href="#ArialMT-2a" transform="translate(38.916016 0)"/>
     <use xlink:href="#ArialMT-2a" transform="translate(77.832031 0)"/>
     <use xlink:href="#ArialMT-2a" transform="translate(116.748047 0)"/>
    </g>
   </g>
   <g id="text_26">
    <!-- **** -->
    <g style="fill: #262626" transform="translate(268.775692 275.737881) scale(0.192 -0.192)">
     <use xlink:href="#ArialMT-2a"/>
     <use xlink:href="#ArialMT-2a" transform="translate(38.916016 0)"/>
     <use xlink:href="#ArialMT-2a" transform="translate(77.832031 0)"/>
     <use xlink:href="#ArialMT-2a" transform="translate(116.748047 0)"/>
    </g>
   </g>
   <g id="text_27">
    <!-- **** -->
    <g style="fill: #262626" transform="translate(366.435825 235.330189) scale(0.192 -0.192)">
     <use xlink:href="#ArialMT-2a"/>
     <use xlink:href="#ArialMT-2a" transform="translate(38.916016 0)"/>
     <use xlink:href="#ArialMT-2a" transform="translate(77.832031 0)"/>
     <use xlink:href="#ArialMT-2a" transform="translate(116.748047 0)"/>
    </g>
   </g>
   <g id="text_28">
    <!-- **** -->
    <g style="fill: #262626" transform="translate(464.095959 194.922497) scale(0.192 -0.192)">
     <use xlink:href="#ArialMT-2a"/>
     <use xlink:href="#ArialMT-2a" transform="translate(38.916016 0)"/>
     <use xlink:href="#ArialMT-2a" transform="translate(77.832031 0)"/>
     <use xlink:href="#ArialMT-2a" transform="translate(116.748047 0)"/>
    </g>
   </g>
   <g id="text_29">
    <!-- **** -->
    <g style="fill: #262626" transform="translate(317.605759 154.514805) scale(0.192 -0.192)">
     <use xlink:href="#ArialMT-2a"/>
     <use xlink:href="#ArialMT-2a" transform="translate(38.916016 0)"/>
     <use xlink:href="#ArialMT-2a" transform="translate(77.832031 0)"/>
     <use xlink:href="#ArialMT-2a" transform="translate(116.748047 0)"/>
    </g>
   </g>
   <g id="text_30">
    <!-- **** -->
    <g style="fill: #262626" transform="translate(415.265892 114.107113) scale(0.192 -0.192)">
     <use xlink:href="#ArialMT-2a"/>
     <use xlink:href="#ArialMT-2a" transform="translate(38.916016 0)"/>
     <use xlink:href="#ArialMT-2a" transform="translate(77.832031 0)"/>
     <use xlink:href="#ArialMT-2a" transform="translate(116.748047 0)"/>
    </g>
   </g>
   <g id="text_31">
    <!-- **** -->
    <g style="fill: #262626" transform="translate(366.435825 73.699421) scale(0.192 -0.192)">
     <use xlink:href="#ArialMT-2a"/>
     <use xlink:href="#ArialMT-2a" transform="translate(38.916016 0)"/>
     <use xlink:href="#ArialMT-2a" transform="translate(77.832031 0)"/>
     <use xlink:href="#ArialMT-2a" transform="translate(116.748047 0)"/>
    </g>
   </g>
   <g id="text_32">
    <!-- Ranked Number of Novel Discovery compounds within +/-0.5 log units of true pIC50  per Fold per Target -->
    <g style="fill: #262626" transform="translate(-61.034175 34.416) scale(0.192 -0.192)">
     <defs>
      <path id="ArialMT-6b" d="M 425 0 
L 425 4581 
L 988 4581 
L 988 1969 
L 2319 3319 
L 3047 3319 
L 1778 2088 
L 3175 0 
L 2481 0 
L 1384 1697 
L 988 1316 
L 988 0 
L 425 0 
z
" transform="scale(0.015625)"/>
      <path id="ArialMT-4e" d="M 488 0 
L 488 4581 
L 1109 4581 
L 3516 984 
L 3516 4581 
L 4097 4581 
L 4097 0 
L 3475 0 
L 1069 3600 
L 1069 0 
L 488 0 
z
" transform="scale(0.015625)"/>
      <path id="ArialMT-2b" d="M 1603 741 
L 1603 1997 
L 356 1997 
L 356 2522 
L 1603 2522 
L 1603 3769 
L 2134 3769 
L 2134 2522 
L 3381 2522 
L 3381 1997 
L 2134 1997 
L 2134 741 
L 1603 741 
z
" transform="scale(0.015625)"/>
      <path id="ArialMT-2f" d="M 0 -78 
L 1328 4659 
L 1778 4659 
L 453 -78 
L 0 -78 
z
" transform="scale(0.015625)"/>
      <path id="ArialMT-2d" d="M 203 1375 
L 203 1941 
L 1931 1941 
L 1931 1375 
L 203 1375 
z
" transform="scale(0.015625)"/>
      <path id="ArialMT-2e" d="M 581 0 
L 581 641 
L 1222 641 
L 1222 0 
L 581 0 
z
" transform="scale(0.015625)"/>
      <path id="ArialMT-49" d="M 597 0 
L 597 4581 
L 1203 4581 
L 1203 0 
L 597 0 
z
" transform="scale(0.015625)"/>
      <path id="ArialMT-54" d="M 1659 0 
L 1659 4041 
L 150 4041 
L 150 4581 
L 3781 4581 
L 3781 4041 
L 2266 4041 
L 2266 0 
L 1659 0 
z
" transform="scale(0.015625)"/>
     </defs>
     <use xlink:href="#ArialMT-52"/>
     <use xlink:href="#ArialMT-61" transform="translate(72.216797 0)"/>
     <use xlink:href="#ArialMT-6e" transform="translate(127.832031 0)"/>
     <use xlink:href="#ArialMT-6b" transform="translate(183.447266 0)"/>
     <use xlink:href="#ArialMT-65" transform="translate(233.447266 0)"/>
     <use xlink:href="#ArialMT-64" transform="translate(289.0625 0)"/>
     <use xlink:href="#ArialMT-20" transform="translate(344.677734 0)"/>
     <use xlink:href="#ArialMT-4e" transform="translate(372.460938 0)"/>
     <use xlink:href="#ArialMT-75" transform="translate(444.677734 0)"/>
     <use xlink:href="#ArialMT-6d" transform="translate(500.292969 0)"/>
     <use xlink:href="#ArialMT-62" transform="translate(583.59375 0)"/>
     <use xlink:href="#ArialMT-65" transform="translate(639.208984 0)"/>
     <use xlink:href="#ArialMT-72" transform="translate(694.824219 0)"/>
     <use xlink:href="#ArialMT-20" transform="translate(728.125 0)"/>
     <use xlink:href="#ArialMT-6f" transform="translate(755.908203 0)"/>
     <use xlink:href="#ArialMT-66" transform="translate(811.523438 0)"/>
     <use xlink:href="#ArialMT-20" transform="translate(839.306641 0)"/>
     <use xlink:href="#ArialMT-4e" transform="translate(867.089844 0)"/>
     <use xlink:href="#ArialMT-6f" transform="translate(939.306641 0)"/>
     <use xlink:href="#ArialMT-76" transform="translate(994.921875 0)"/>
     <use xlink:href="#ArialMT-65" transform="translate(1044.921875 0)"/>
     <use xlink:href="#ArialMT-6c" transform="translate(1100.537109 0)"/>
     <use xlink:href="#ArialMT-20" transform="translate(1122.753906 0)"/>
     <use xlink:href="#ArialMT-44" transform="translate(1150.537109 0)"/>
     <use xlink:href="#ArialMT-69" transform="translate(1222.753906 0)"/>
     <use xlink:href="#ArialMT-73" transform="translate(1244.970703 0)"/>
     <use xlink:href="#ArialMT-63" transform="translate(1294.970703 0)"/>
     <use xlink:href="#ArialMT-6f" transform="translate(1344.970703 0)"/>
     <use xlink:href="#ArialMT-76" transform="translate(1400.585938 0)"/>
     <use xlink:href="#ArialMT-65" transform="translate(1450.585938 0)"/>
     <use xlink:href="#ArialMT-72" transform="translate(1506.201172 0)"/>
     <use xlink:href="#ArialMT-79" transform="translate(1539.501953 0)"/>
     <use xlink:href="#ArialMT-20" transform="translate(1589.501953 0)"/>
     <use xlink:href="#ArialMT-63" transform="translate(1617.285156 0)"/>
     <use xlink:href="#ArialMT-6f" transform="translate(1667.285156 0)"/>
     <use xlink:href="#ArialMT-6d" transform="translate(1722.900391 0)"/>
     <use xlink:href="#ArialMT-70" transform="translate(1806.201172 0)"/>
     <use xlink:href="#ArialMT-6f" transform="translate(1861.816406 0)"/>
     <use xlink:href="#ArialMT-75" transform="translate(1917.431641 0)"/>
     <use xlink:href="#ArialMT-6e" transform="translate(1973.046875 0)"/>
     <use xlink:href="#ArialMT-64" transform="translate(2028.662109 0)"/>
     <use xlink:href="#ArialMT-73" transform="translate(2084.277344 0)"/>
     <use xlink:href="#ArialMT-20" transform="translate(2134.277344 0)"/>
     <use xlink:href="#ArialMT-77" transform="translate(2162.060547 0)"/>
     <use xlink:href="#ArialMT-69" transform="translate(2234.277344 0)"/>
     <use xlink:href="#ArialMT-74" transform="translate(2256.494141 0)"/>
     <use xlink:href="#ArialMT-68" transform="translate(2284.277344 0)"/>
     <use xlink:href="#ArialMT-69" transform="translate(2339.892578 0)"/>
     <use xlink:href="#ArialMT-6e" transform="translate(2362.109375 0)"/>
     <use xlink:href="#ArialMT-20" transform="translate(2417.724609 0)"/>
     <use xlink:href="#ArialMT-2b" transform="translate(2445.507812 0)"/>
     <use xlink:href="#ArialMT-2f" transform="translate(2503.90625 0)"/>
     <use xlink:href="#ArialMT-2d" transform="translate(2531.689453 0)"/>
     <use xlink:href="#ArialMT-30" transform="translate(2564.990234 0)"/>
     <use xlink:href="#ArialMT-2e" transform="translate(2620.605469 0)"/>
     <use xlink:href="#ArialMT-35" transform="translate(2648.388672 0)"/>
     <use xlink:href="#ArialMT-20" transform="translate(2704.003906 0)"/>
     <use xlink:href="#ArialMT-6c" transform="translate(2731.787109 0)"/>
     <use xlink:href="#ArialMT-6f" transform="translate(2754.003906 0)"/>
     <use xlink:href="#ArialMT-67" transform="translate(2809.619141 0)"/>
     <use xlink:href="#ArialMT-20" transform="translate(2865.234375 0)"/>
     <use xlink:href="#ArialMT-75" transform="translate(2893.017578 0)"/>
     <use xlink:href="#ArialMT-6e" transform="translate(2948.632812 0)"/>
     <use xlink:href="#ArialMT-69" transform="translate(3004.248047 0)"/>
     <use xlink:href="#ArialMT-74" transform="translate(3026.464844 0)"/>
     <use xlink:href="#ArialMT-73" transform="translate(3054.248047 0)"/>
     <use xlink:href="#ArialMT-20" transform="translate(3104.248047 0)"/>
     <use xlink:href="#ArialMT-6f" transform="translate(3132.03125 0)"/>
     <use xlink:href="#ArialMT-66" transform="translate(3187.646484 0)"/>
     <use xlink:href="#ArialMT-20" transform="translate(3215.429688 0)"/>
     <use xlink:href="#ArialMT-74" transform="translate(3243.212891 0)"/>
     <use xlink:href="#ArialMT-72" transform="translate(3270.996094 0)"/>
     <use xlink:href="#ArialMT-75" transform="translate(3304.296875 0)"/>
     <use xlink:href="#ArialMT-65" transform="translate(3359.912109 0)"/>
     <use xlink:href="#ArialMT-20" transform="translate(3415.527344 0)"/>
     <use xlink:href="#ArialMT-70" transform="translate(3443.310547 0)"/>
     <use xlink:href="#ArialMT-49" transform="translate(3498.925781 0)"/>
     <use xlink:href="#ArialMT-43" transform="translate(3526.708984 0)"/>
     <use xlink:href="#ArialMT-35" transform="translate(3598.925781 0)"/>
     <use xlink:href="#ArialMT-30" transform="translate(3654.541016 0)"/>
     <use xlink:href="#ArialMT-20" transform="translate(3710.15625 0)"/>
     <use xlink:href="#ArialMT-20" transform="translate(3737.939453 0)"/>
     <use xlink:href="#ArialMT-70" transform="translate(3765.722656 0)"/>
     <use xlink:href="#ArialMT-65" transform="translate(3821.337891 0)"/>
     <use xlink:href="#ArialMT-72" transform="translate(3876.953125 0)"/>
     <use xlink:href="#ArialMT-20" transform="translate(3910.253906 0)"/>
     <use xlink:href="#ArialMT-46" transform="translate(3938.037109 0)"/>
     <use xlink:href="#ArialMT-6f" transform="translate(3999.121094 0)"/>
     <use xlink:href="#ArialMT-6c" transform="translate(4054.736328 0)"/>
     <use xlink:href="#ArialMT-64" transform="translate(4076.953125 0)"/>
     <use xlink:href="#ArialMT-20" transform="translate(4132.568359 0)"/>
     <use xlink:href="#ArialMT-70" transform="translate(4160.351562 0)"/>
     <use xlink:href="#ArialMT-65" transform="translate(4215.966797 0)"/>
     <use xlink:href="#ArialMT-72" transform="translate(4271.582031 0)"/>
     <use xlink:href="#ArialMT-20" transform="translate(4304.882812 0)"/>
     <use xlink:href="#ArialMT-54" transform="translate(4330.916016 0)"/>
     <use xlink:href="#ArialMT-61" transform="translate(4380.875 0)"/>
     <use xlink:href="#ArialMT-72" transform="translate(4436.490234 0)"/>
     <use xlink:href="#ArialMT-67" transform="translate(4469.791016 0)"/>
     <use xlink:href="#ArialMT-65" transform="translate(4525.40625 0)"/>
     <use xlink:href="#ArialMT-74" transform="translate(4581.021484 0)"/>
    </g>
   </g>
  </g>
 </g>
 <defs>
  <clipPath id="pfdeebef6ee">
   <rect x="69.846" y="40.416" width="623.071651" height="605.450348"/>
  </clipPath>
 </defs>
</svg>
