<?xml version="1.0" encoding="utf-8" standalone="no"?>
<!DOCTYPE svg PUBLIC "-//W3C//DTD SVG 1.1//EN"
  "http://www.w3.org/Graphics/SVG/1.1/DTD/svg11.dtd">
<svg xmlns:xlink="http://www.w3.org/1999/xlink" width="720pt" height="864pt" viewBox="0 0 720 864" xmlns="http://www.w3.org/2000/svg" version="1.1">
 <metadata>
  <rdf:RDF xmlns:dc="http://purl.org/dc/elements/1.1/" xmlns:cc="http://creativecommons.org/ns#" xmlns:rdf="http://www.w3.org/1999/02/22-rdf-syntax-ns#">
   <cc:Work>
    <dc:type rdf:resource="http://purl.org/dc/dcmitype/StillImage"/>
    <dc:date>2025-02-25T23:42:53.742492</dc:date>
    <dc:format>image/svg+xml</dc:format>
    <dc:creator>
     <cc:Agent>
      <dc:title>Matplotlib v3.10.0, https://matplotlib.org/</dc:title>
     </cc:Agent>
    </dc:creator>
   </cc:Work>
  </rdf:RDF>
 </metadata>
 <defs>
  <style type="text/css">*{stroke-linejoin: round; stroke-linecap: butt}</style>
 </defs>
 <g id="figure_1">
  <g id="patch_1">
   <path d="M 0 864 
L 720 864 
L 720 0 
L 0 0 
z
" style="fill: #ffffff"/>
  </g>
  <g id="axes_1">
   <g id="patch_2">
    <path d="M 89.286 645.866348 
L 692.917651 645.866348 
L 692.917651 40.416 
L 89.286 40.416 
z
" style="fill: #ffffff"/>
   </g>
   <g id="matplotlib.axis_1">
    <g id="xtick_1">
     <g id="text_1">
      <!-- RandomSplit -->
      <g style="fill: #262626" transform="translate(122.239064 734.472111) rotate(-45) scale(0.176 -0.176)">
       <defs>
        <path id="ArialMT-52" d="M 503 0 
L 503 4581 
L 2534 4581 
Q 3147 4581 3465 4457 
Q 3784 4334 3975 4021 
Q 4166 3709 4166 3331 
Q 4166 2844 3850 2509 
Q 3534 2175 2875 2084 
Q 3116 1969 3241 1856 
Q 3506 1613 3744 1247 
L 4541 0 
L 3778 0 
L 3172 953 
Q 2906 1366 2734 1584 
Q 2563 1803 2427 1890 
Q 2291 1978 2150 2013 
Q 2047 2034 1813 2034 
L 1109 2034 
L 1109 0 
L 503 0 
z
M 1109 2559 
L 2413 2559 
Q 2828 2559 3062 2645 
Q 3297 2731 3419 2920 
Q 3541 3109 3541 3331 
Q 3541 3656 3305 3865 
Q 3069 4075 2559 4075 
L 1109 4075 
L 1109 2559 
z
" transform="scale(0.015625)"/>
        <path id="ArialMT-61" d="M 2588 409 
Q 2275 144 1986 34 
Q 1697 -75 1366 -75 
Q 819 -75 525 192 
Q 231 459 231 875 
Q 231 1119 342 1320 
Q 453 1522 633 1644 
Q 813 1766 1038 1828 
Q 1203 1872 1538 1913 
Q 2219 1994 2541 2106 
Q 2544 2222 2544 2253 
Q 2544 2597 2384 2738 
Q 2169 2928 1744 2928 
Q 1347 2928 1158 2789 
Q 969 2650 878 2297 
L 328 2372 
Q 403 2725 575 2942 
Q 747 3159 1072 3276 
Q 1397 3394 1825 3394 
Q 2250 3394 2515 3294 
Q 2781 3194 2906 3042 
Q 3031 2891 3081 2659 
Q 3109 2516 3109 2141 
L 3109 1391 
Q 3109 606 3145 398 
Q 3181 191 3288 0 
L 2700 0 
Q 2613 175 2588 409 
z
M 2541 1666 
Q 2234 1541 1622 1453 
Q 1275 1403 1131 1340 
Q 988 1278 909 1158 
Q 831 1038 831 891 
Q 831 666 1001 516 
Q 1172 366 1500 366 
Q 1825 366 2078 508 
Q 2331 650 2450 897 
Q 2541 1088 2541 1459 
L 2541 1666 
z
" transform="scale(0.015625)"/>
        <path id="ArialMT-6e" d="M 422 0 
L 422 3319 
L 928 3319 
L 928 2847 
Q 1294 3394 1984 3394 
Q 2284 3394 2536 3286 
Q 2788 3178 2913 3003 
Q 3038 2828 3088 2588 
Q 3119 2431 3119 2041 
L 3119 0 
L 2556 0 
L 2556 2019 
Q 2556 2363 2490 2533 
Q 2425 2703 2258 2804 
Q 2091 2906 1866 2906 
Q 1506 2906 1245 2678 
Q 984 2450 984 1813 
L 984 0 
L 422 0 
z
" transform="scale(0.015625)"/>
        <path id="ArialMT-64" d="M 2575 0 
L 2575 419 
Q 2259 -75 1647 -75 
Q 1250 -75 917 144 
Q 584 363 401 755 
Q 219 1147 219 1656 
Q 219 2153 384 2558 
Q 550 2963 881 3178 
Q 1213 3394 1622 3394 
Q 1922 3394 2156 3267 
Q 2391 3141 2538 2938 
L 2538 4581 
L 3097 4581 
L 3097 0 
L 2575 0 
z
M 797 1656 
Q 797 1019 1065 703 
Q 1334 388 1700 388 
Q 2069 388 2326 689 
Q 2584 991 2584 1609 
Q 2584 2291 2321 2609 
Q 2059 2928 1675 2928 
Q 1300 2928 1048 2622 
Q 797 2316 797 1656 
z
" transform="scale(0.015625)"/>
        <path id="ArialMT-6f" d="M 213 1659 
Q 213 2581 725 3025 
Q 1153 3394 1769 3394 
Q 2453 3394 2887 2945 
Q 3322 2497 3322 1706 
Q 3322 1066 3130 698 
Q 2938 331 2570 128 
Q 2203 -75 1769 -75 
Q 1072 -75 642 372 
Q 213 819 213 1659 
z
M 791 1659 
Q 791 1022 1069 705 
Q 1347 388 1769 388 
Q 2188 388 2466 706 
Q 2744 1025 2744 1678 
Q 2744 2294 2464 2611 
Q 2184 2928 1769 2928 
Q 1347 2928 1069 2612 
Q 791 2297 791 1659 
z
" transform="scale(0.015625)"/>
        <path id="ArialMT-6d" d="M 422 0 
L 422 3319 
L 925 3319 
L 925 2853 
Q 1081 3097 1340 3245 
Q 1600 3394 1931 3394 
Q 2300 3394 2536 3241 
Q 2772 3088 2869 2813 
Q 3263 3394 3894 3394 
Q 4388 3394 4653 3120 
Q 4919 2847 4919 2278 
L 4919 0 
L 4359 0 
L 4359 2091 
Q 4359 2428 4304 2576 
Q 4250 2725 4106 2815 
Q 3963 2906 3769 2906 
Q 3419 2906 3187 2673 
Q 2956 2441 2956 1928 
L 2956 0 
L 2394 0 
L 2394 2156 
Q 2394 2531 2256 2718 
Q 2119 2906 1806 2906 
Q 1569 2906 1367 2781 
Q 1166 2656 1075 2415 
Q 984 2175 984 1722 
L 984 0 
L 422 0 
z
" transform="scale(0.015625)"/>
        <path id="ArialMT-53" d="M 288 1472 
L 859 1522 
Q 900 1178 1048 958 
Q 1197 738 1509 602 
Q 1822 466 2213 466 
Q 2559 466 2825 569 
Q 3091 672 3220 851 
Q 3350 1031 3350 1244 
Q 3350 1459 3225 1620 
Q 3100 1781 2813 1891 
Q 2628 1963 1997 2114 
Q 1366 2266 1113 2400 
Q 784 2572 623 2826 
Q 463 3081 463 3397 
Q 463 3744 659 4045 
Q 856 4347 1234 4503 
Q 1613 4659 2075 4659 
Q 2584 4659 2973 4495 
Q 3363 4331 3572 4012 
Q 3781 3694 3797 3291 
L 3216 3247 
Q 3169 3681 2898 3903 
Q 2628 4125 2100 4125 
Q 1550 4125 1298 3923 
Q 1047 3722 1047 3438 
Q 1047 3191 1225 3031 
Q 1400 2872 2139 2705 
Q 2878 2538 3153 2413 
Q 3553 2228 3743 1945 
Q 3934 1663 3934 1294 
Q 3934 928 3725 604 
Q 3516 281 3123 101 
Q 2731 -78 2241 -78 
Q 1619 -78 1198 103 
Q 778 284 539 648 
Q 300 1013 288 1472 
z
" transform="scale(0.015625)"/>
        <path id="ArialMT-70" d="M 422 -1272 
L 422 3319 
L 934 3319 
L 934 2888 
Q 1116 3141 1344 3267 
Q 1572 3394 1897 3394 
Q 2322 3394 2647 3175 
Q 2972 2956 3137 2557 
Q 3303 2159 3303 1684 
Q 3303 1175 3120 767 
Q 2938 359 2589 142 
Q 2241 -75 1856 -75 
Q 1575 -75 1351 44 
Q 1128 163 984 344 
L 984 -1272 
L 422 -1272 
z
M 931 1641 
Q 931 1000 1190 694 
Q 1450 388 1819 388 
Q 2194 388 2461 705 
Q 2728 1022 2728 1688 
Q 2728 2322 2467 2637 
Q 2206 2953 1844 2953 
Q 1484 2953 1207 2617 
Q 931 2281 931 1641 
z
" transform="scale(0.015625)"/>
        <path id="ArialMT-6c" d="M 409 0 
L 409 4581 
L 972 4581 
L 972 0 
L 409 0 
z
" transform="scale(0.015625)"/>
        <path id="ArialMT-69" d="M 425 3934 
L 425 4581 
L 988 4581 
L 988 3934 
L 425 3934 
z
M 425 0 
L 425 3319 
L 988 3319 
L 988 0 
L 425 0 
z
" transform="scale(0.015625)"/>
        <path id="ArialMT-74" d="M 1650 503 
L 1731 6 
Q 1494 -44 1306 -44 
Q 1000 -44 831 53 
Q 663 150 594 308 
Q 525 466 525 972 
L 525 2881 
L 113 2881 
L 113 3319 
L 525 3319 
L 525 4141 
L 1084 4478 
L 1084 3319 
L 1650 3319 
L 1650 2881 
L 1084 2881 
L 1084 941 
Q 1084 700 1114 631 
Q 1144 563 1211 522 
Q 1278 481 1403 481 
Q 1497 481 1650 503 
z
" transform="scale(0.015625)"/>
       </defs>
       <use xlink:href="#ArialMT-52"/>
       <use xlink:href="#ArialMT-61" transform="translate(72.216797 0)"/>
       <use xlink:href="#ArialMT-6e" transform="translate(127.832031 0)"/>
       <use xlink:href="#ArialMT-64" transform="translate(183.447266 0)"/>
       <use xlink:href="#ArialMT-6f" transform="translate(239.0625 0)"/>
       <use xlink:href="#ArialMT-6d" transform="translate(294.677734 0)"/>
       <use xlink:href="#ArialMT-53" transform="translate(377.978516 0)"/>
       <use xlink:href="#ArialMT-70" transform="translate(444.677734 0)"/>
       <use xlink:href="#ArialMT-6c" transform="translate(500.292969 0)"/>
       <use xlink:href="#ArialMT-69" transform="translate(522.509766 0)"/>
       <use xlink:href="#ArialMT-74" transform="translate(544.726562 0)"/>
      </g>
     </g>
    </g>
    <g id="xtick_2">
     <g id="text_2">
      <!-- ScaffoldSplit -->
      <g style="fill: #262626" transform="translate(217.99654 732.183383) rotate(-45) scale(0.176 -0.176)">
       <defs>
        <path id="ArialMT-63" d="M 2588 1216 
L 3141 1144 
Q 3050 572 2676 248 
Q 2303 -75 1759 -75 
Q 1078 -75 664 370 
Q 250 816 250 1647 
Q 250 2184 428 2587 
Q 606 2991 970 3192 
Q 1334 3394 1763 3394 
Q 2303 3394 2647 3120 
Q 2991 2847 3088 2344 
L 2541 2259 
Q 2463 2594 2264 2762 
Q 2066 2931 1784 2931 
Q 1359 2931 1093 2626 
Q 828 2322 828 1663 
Q 828 994 1084 691 
Q 1341 388 1753 388 
Q 2084 388 2306 591 
Q 2528 794 2588 1216 
z
" transform="scale(0.015625)"/>
        <path id="ArialMT-66" d="M 556 0 
L 556 2881 
L 59 2881 
L 59 3319 
L 556 3319 
L 556 3672 
Q 556 4006 616 4169 
Q 697 4388 901 4523 
Q 1106 4659 1475 4659 
Q 1713 4659 2000 4603 
L 1916 4113 
Q 1741 4144 1584 4144 
Q 1328 4144 1222 4034 
Q 1116 3925 1116 3625 
L 1116 3319 
L 1763 3319 
L 1763 2881 
L 1116 2881 
L 1116 0 
L 556 0 
z
" transform="scale(0.015625)"/>
       </defs>
       <use xlink:href="#ArialMT-53"/>
       <use xlink:href="#ArialMT-63" transform="translate(66.699219 0)"/>
       <use xlink:href="#ArialMT-61" transform="translate(116.699219 0)"/>
       <use xlink:href="#ArialMT-66" transform="translate(172.314453 0)"/>
       <use xlink:href="#ArialMT-66" transform="translate(198.347656 0)"/>
       <use xlink:href="#ArialMT-6f" transform="translate(226.130859 0)"/>
       <use xlink:href="#ArialMT-6c" transform="translate(281.746094 0)"/>
       <use xlink:href="#ArialMT-64" transform="translate(303.962891 0)"/>
       <use xlink:href="#ArialMT-53" transform="translate(359.578125 0)"/>
       <use xlink:href="#ArialMT-70" transform="translate(426.277344 0)"/>
       <use xlink:href="#ArialMT-6c" transform="translate(481.892578 0)"/>
       <use xlink:href="#ArialMT-69" transform="translate(504.109375 0)"/>
       <use xlink:href="#ArialMT-74" transform="translate(526.326172 0)"/>
      </g>
     </g>
    </g>
    <g id="xtick_3">
     <g id="text_3">
      <!-- SortedStepForward_LogD -->
      <g style="fill: #262626" transform="translate(274.728968 807.798908) rotate(-45) scale(0.176 -0.176)">
       <defs>
        <path id="ArialMT-72" d="M 416 0 
L 416 3319 
L 922 3319 
L 922 2816 
Q 1116 3169 1280 3281 
Q 1444 3394 1641 3394 
Q 1925 3394 2219 3213 
L 2025 2691 
Q 1819 2813 1613 2813 
Q 1428 2813 1281 2702 
Q 1134 2591 1072 2394 
Q 978 2094 978 1738 
L 978 0 
L 416 0 
z
" transform="scale(0.015625)"/>
        <path id="ArialMT-65" d="M 2694 1069 
L 3275 997 
Q 3138 488 2766 206 
Q 2394 -75 1816 -75 
Q 1088 -75 661 373 
Q 234 822 234 1631 
Q 234 2469 665 2931 
Q 1097 3394 1784 3394 
Q 2450 3394 2872 2941 
Q 3294 2488 3294 1666 
Q 3294 1616 3291 1516 
L 816 1516 
Q 847 969 1125 678 
Q 1403 388 1819 388 
Q 2128 388 2347 550 
Q 2566 713 2694 1069 
z
M 847 1978 
L 2700 1978 
Q 2663 2397 2488 2606 
Q 2219 2931 1791 2931 
Q 1403 2931 1139 2672 
Q 875 2413 847 1978 
z
" transform="scale(0.015625)"/>
        <path id="ArialMT-46" d="M 525 0 
L 525 4581 
L 3616 4581 
L 3616 4041 
L 1131 4041 
L 1131 2622 
L 3281 2622 
L 3281 2081 
L 1131 2081 
L 1131 0 
L 525 0 
z
" transform="scale(0.015625)"/>
        <path id="ArialMT-77" d="M 1034 0 
L 19 3319 
L 600 3319 
L 1128 1403 
L 1325 691 
Q 1338 744 1497 1375 
L 2025 3319 
L 2603 3319 
L 3100 1394 
L 3266 759 
L 3456 1400 
L 4025 3319 
L 4572 3319 
L 3534 0 
L 2950 0 
L 2422 1988 
L 2294 2553 
L 1622 0 
L 1034 0 
z
" transform="scale(0.015625)"/>
        <path id="ArialMT-5f" d="M -97 -1272 
L -97 -866 
L 3631 -866 
L 3631 -1272 
L -97 -1272 
z
" transform="scale(0.015625)"/>
        <path id="ArialMT-4c" d="M 469 0 
L 469 4581 
L 1075 4581 
L 1075 541 
L 3331 541 
L 3331 0 
L 469 0 
z
" transform="scale(0.015625)"/>
        <path id="ArialMT-67" d="M 319 -275 
L 866 -356 
Q 900 -609 1056 -725 
Q 1266 -881 1628 -881 
Q 2019 -881 2231 -725 
Q 2444 -569 2519 -288 
Q 2563 -116 2559 434 
Q 2191 0 1641 0 
Q 956 0 581 494 
Q 206 988 206 1678 
Q 206 2153 378 2554 
Q 550 2956 876 3175 
Q 1203 3394 1644 3394 
Q 2231 3394 2613 2919 
L 2613 3319 
L 3131 3319 
L 3131 450 
Q 3131 -325 2973 -648 
Q 2816 -972 2473 -1159 
Q 2131 -1347 1631 -1347 
Q 1038 -1347 672 -1080 
Q 306 -813 319 -275 
z
M 784 1719 
Q 784 1066 1043 766 
Q 1303 466 1694 466 
Q 2081 466 2343 764 
Q 2606 1063 2606 1700 
Q 2606 2309 2336 2618 
Q 2066 2928 1684 2928 
Q 1309 2928 1046 2623 
Q 784 2319 784 1719 
z
" transform="scale(0.015625)"/>
        <path id="ArialMT-44" d="M 494 0 
L 494 4581 
L 2072 4581 
Q 2606 4581 2888 4516 
Q 3281 4425 3559 4188 
Q 3922 3881 4101 3404 
Q 4281 2928 4281 2316 
Q 4281 1794 4159 1391 
Q 4038 988 3847 723 
Q 3656 459 3429 307 
Q 3203 156 2883 78 
Q 2563 0 2147 0 
L 494 0 
z
M 1100 541 
L 2078 541 
Q 2531 541 2789 625 
Q 3047 709 3200 863 
Q 3416 1078 3536 1442 
Q 3656 1806 3656 2325 
Q 3656 3044 3420 3430 
Q 3184 3816 2847 3947 
Q 2603 4041 2063 4041 
L 1100 4041 
L 1100 541 
z
" transform="scale(0.015625)"/>
       </defs>
       <use xlink:href="#ArialMT-53"/>
       <use xlink:href="#ArialMT-6f" transform="translate(66.699219 0)"/>
       <use xlink:href="#ArialMT-72" transform="translate(122.314453 0)"/>
       <use xlink:href="#ArialMT-74" transform="translate(155.615234 0)"/>
       <use xlink:href="#ArialMT-65" transform="translate(183.398438 0)"/>
       <use xlink:href="#ArialMT-64" transform="translate(239.013672 0)"/>
       <use xlink:href="#ArialMT-53" transform="translate(294.628906 0)"/>
       <use xlink:href="#ArialMT-74" transform="translate(361.328125 0)"/>
       <use xlink:href="#ArialMT-65" transform="translate(389.111328 0)"/>
       <use xlink:href="#ArialMT-70" transform="translate(444.726562 0)"/>
       <use xlink:href="#ArialMT-46" transform="translate(500.341797 0)"/>
       <use xlink:href="#ArialMT-6f" transform="translate(561.425781 0)"/>
       <use xlink:href="#ArialMT-72" transform="translate(617.041016 0)"/>
       <use xlink:href="#ArialMT-77" transform="translate(650.341797 0)"/>
       <use xlink:href="#ArialMT-61" transform="translate(722.558594 0)"/>
       <use xlink:href="#ArialMT-72" transform="translate(778.173828 0)"/>
       <use xlink:href="#ArialMT-64" transform="translate(811.474609 0)"/>
       <use xlink:href="#ArialMT-5f" transform="translate(867.089844 0)"/>
       <use xlink:href="#ArialMT-4c" transform="translate(922.705078 0)"/>
       <use xlink:href="#ArialMT-6f" transform="translate(978.320312 0)"/>
       <use xlink:href="#ArialMT-67" transform="translate(1033.935547 0)"/>
       <use xlink:href="#ArialMT-44" transform="translate(1089.550781 0)"/>
      </g>
     </g>
    </g>
    <g id="xtick_4">
     <g id="text_4">
      <!-- SortedStepForward_LogP -->
      <g style="fill: #262626" transform="translate(369.685292 807.112484) rotate(-45) scale(0.176 -0.176)">
       <defs>
        <path id="ArialMT-50" d="M 494 0 
L 494 4581 
L 2222 4581 
Q 2678 4581 2919 4538 
Q 3256 4481 3484 4323 
Q 3713 4166 3852 3881 
Q 3991 3597 3991 3256 
Q 3991 2672 3619 2267 
Q 3247 1863 2275 1863 
L 1100 1863 
L 1100 0 
L 494 0 
z
M 1100 2403 
L 2284 2403 
Q 2872 2403 3119 2622 
Q 3366 2841 3366 3238 
Q 3366 3525 3220 3729 
Q 3075 3934 2838 4000 
Q 2684 4041 2272 4041 
L 1100 4041 
L 1100 2403 
z
" transform="scale(0.015625)"/>
       </defs>
       <use xlink:href="#ArialMT-53"/>
       <use xlink:href="#ArialMT-6f" transform="translate(66.699219 0)"/>
       <use xlink:href="#ArialMT-72" transform="translate(122.314453 0)"/>
       <use xlink:href="#ArialMT-74" transform="translate(155.615234 0)"/>
       <use xlink:href="#ArialMT-65" transform="translate(183.398438 0)"/>
       <use xlink:href="#ArialMT-64" transform="translate(239.013672 0)"/>
       <use xlink:href="#ArialMT-53" transform="translate(294.628906 0)"/>
       <use xlink:href="#ArialMT-74" transform="translate(361.328125 0)"/>
       <use xlink:href="#ArialMT-65" transform="translate(389.111328 0)"/>
       <use xlink:href="#ArialMT-70" transform="translate(444.726562 0)"/>
       <use xlink:href="#ArialMT-46" transform="translate(500.341797 0)"/>
       <use xlink:href="#ArialMT-6f" transform="translate(561.425781 0)"/>
       <use xlink:href="#ArialMT-72" transform="translate(617.041016 0)"/>
       <use xlink:href="#ArialMT-77" transform="translate(650.341797 0)"/>
       <use xlink:href="#ArialMT-61" transform="translate(722.558594 0)"/>
       <use xlink:href="#ArialMT-72" transform="translate(778.173828 0)"/>
       <use xlink:href="#ArialMT-64" transform="translate(811.474609 0)"/>
       <use xlink:href="#ArialMT-5f" transform="translate(867.089844 0)"/>
       <use xlink:href="#ArialMT-4c" transform="translate(922.705078 0)"/>
       <use xlink:href="#ArialMT-6f" transform="translate(978.320312 0)"/>
       <use xlink:href="#ArialMT-67" transform="translate(1033.935547 0)"/>
       <use xlink:href="#ArialMT-50" transform="translate(1089.550781 0)"/>
      </g>
     </g>
    </g>
    <g id="xtick_5">
     <g id="text_5">
      <!-- SortedStepForward_MCE18 -->
      <g style="fill: #262626" transform="translate(458.154618 819.545896) rotate(-45) scale(0.176 -0.176)">
       <defs>
        <path id="ArialMT-4d" d="M 475 0 
L 475 4581 
L 1388 4581 
L 2472 1338 
Q 2622 884 2691 659 
Q 2769 909 2934 1394 
L 4031 4581 
L 4847 4581 
L 4847 0 
L 4263 0 
L 4263 3834 
L 2931 0 
L 2384 0 
L 1059 3900 
L 1059 0 
L 475 0 
z
" transform="scale(0.015625)"/>
        <path id="ArialMT-43" d="M 3763 1606 
L 4369 1453 
Q 4178 706 3683 314 
Q 3188 -78 2472 -78 
Q 1731 -78 1267 223 
Q 803 525 561 1097 
Q 319 1669 319 2325 
Q 319 3041 592 3573 
Q 866 4106 1370 4382 
Q 1875 4659 2481 4659 
Q 3169 4659 3637 4309 
Q 4106 3959 4291 3325 
L 3694 3184 
Q 3534 3684 3231 3912 
Q 2928 4141 2469 4141 
Q 1941 4141 1586 3887 
Q 1231 3634 1087 3207 
Q 944 2781 944 2328 
Q 944 1744 1114 1308 
Q 1284 872 1643 656 
Q 2003 441 2422 441 
Q 2931 441 3284 734 
Q 3638 1028 3763 1606 
z
" transform="scale(0.015625)"/>
        <path id="ArialMT-45" d="M 506 0 
L 506 4581 
L 3819 4581 
L 3819 4041 
L 1113 4041 
L 1113 2638 
L 3647 2638 
L 3647 2100 
L 1113 2100 
L 1113 541 
L 3925 541 
L 3925 0 
L 506 0 
z
" transform="scale(0.015625)"/>
        <path id="ArialMT-31" d="M 2384 0 
L 1822 0 
L 1822 3584 
Q 1619 3391 1289 3197 
Q 959 3003 697 2906 
L 697 3450 
Q 1169 3672 1522 3987 
Q 1875 4303 2022 4600 
L 2384 4600 
L 2384 0 
z
" transform="scale(0.015625)"/>
        <path id="ArialMT-38" d="M 1131 2484 
Q 781 2613 612 2850 
Q 444 3088 444 3419 
Q 444 3919 803 4259 
Q 1163 4600 1759 4600 
Q 2359 4600 2725 4251 
Q 3091 3903 3091 3403 
Q 3091 3084 2923 2848 
Q 2756 2613 2416 2484 
Q 2838 2347 3058 2040 
Q 3278 1734 3278 1309 
Q 3278 722 2862 322 
Q 2447 -78 1769 -78 
Q 1091 -78 675 323 
Q 259 725 259 1325 
Q 259 1772 486 2073 
Q 713 2375 1131 2484 
z
M 1019 3438 
Q 1019 3113 1228 2906 
Q 1438 2700 1772 2700 
Q 2097 2700 2305 2904 
Q 2513 3109 2513 3406 
Q 2513 3716 2298 3927 
Q 2084 4138 1766 4138 
Q 1444 4138 1231 3931 
Q 1019 3725 1019 3438 
z
M 838 1322 
Q 838 1081 952 856 
Q 1066 631 1291 507 
Q 1516 384 1775 384 
Q 2178 384 2440 643 
Q 2703 903 2703 1303 
Q 2703 1709 2433 1975 
Q 2163 2241 1756 2241 
Q 1359 2241 1098 1978 
Q 838 1716 838 1322 
z
" transform="scale(0.015625)"/>
       </defs>
       <use xlink:href="#ArialMT-53"/>
       <use xlink:href="#ArialMT-6f" transform="translate(66.699219 0)"/>
       <use xlink:href="#ArialMT-72" transform="translate(122.314453 0)"/>
       <use xlink:href="#ArialMT-74" transform="translate(155.615234 0)"/>
       <use xlink:href="#ArialMT-65" transform="translate(183.398438 0)"/>
       <use xlink:href="#ArialMT-64" transform="translate(239.013672 0)"/>
       <use xlink:href="#ArialMT-53" transform="translate(294.628906 0)"/>
       <use xlink:href="#ArialMT-74" transform="translate(361.328125 0)"/>
       <use xlink:href="#ArialMT-65" transform="translate(389.111328 0)"/>
       <use xlink:href="#ArialMT-70" transform="translate(444.726562 0)"/>
       <use xlink:href="#ArialMT-46" transform="translate(500.341797 0)"/>
       <use xlink:href="#ArialMT-6f" transform="translate(561.425781 0)"/>
       <use xlink:href="#ArialMT-72" transform="translate(617.041016 0)"/>
       <use xlink:href="#ArialMT-77" transform="translate(650.341797 0)"/>
       <use xlink:href="#ArialMT-61" transform="translate(722.558594 0)"/>
       <use xlink:href="#ArialMT-72" transform="translate(778.173828 0)"/>
       <use xlink:href="#ArialMT-64" transform="translate(811.474609 0)"/>
       <use xlink:href="#ArialMT-5f" transform="translate(867.089844 0)"/>
       <use xlink:href="#ArialMT-4d" transform="translate(922.705078 0)"/>
       <use xlink:href="#ArialMT-43" transform="translate(1006.005859 0)"/>
       <use xlink:href="#ArialMT-45" transform="translate(1078.222656 0)"/>
       <use xlink:href="#ArialMT-31" transform="translate(1144.921875 0)"/>
       <use xlink:href="#ArialMT-38" transform="translate(1200.537109 0)"/>
      </g>
     </g>
    </g>
    <g id="xtick_6">
     <g id="text_6">
      <!-- UnsortedStepForward -->
      <g style="fill: #262626" transform="translate(570.061528 784.958298) rotate(-45) scale(0.176 -0.176)">
       <defs>
        <path id="ArialMT-55" d="M 3500 4581 
L 4106 4581 
L 4106 1934 
Q 4106 1244 3950 837 
Q 3794 431 3386 176 
Q 2978 -78 2316 -78 
Q 1672 -78 1262 144 
Q 853 366 678 786 
Q 503 1206 503 1934 
L 503 4581 
L 1109 4581 
L 1109 1938 
Q 1109 1341 1220 1058 
Q 1331 775 1601 622 
Q 1872 469 2263 469 
Q 2931 469 3215 772 
Q 3500 1075 3500 1938 
L 3500 4581 
z
" transform="scale(0.015625)"/>
        <path id="ArialMT-73" d="M 197 991 
L 753 1078 
Q 800 744 1014 566 
Q 1228 388 1613 388 
Q 2000 388 2187 545 
Q 2375 703 2375 916 
Q 2375 1106 2209 1216 
Q 2094 1291 1634 1406 
Q 1016 1563 777 1677 
Q 538 1791 414 1992 
Q 291 2194 291 2438 
Q 291 2659 392 2848 
Q 494 3038 669 3163 
Q 800 3259 1026 3326 
Q 1253 3394 1513 3394 
Q 1903 3394 2198 3281 
Q 2494 3169 2634 2976 
Q 2775 2784 2828 2463 
L 2278 2388 
Q 2241 2644 2061 2787 
Q 1881 2931 1553 2931 
Q 1166 2931 1000 2803 
Q 834 2675 834 2503 
Q 834 2394 903 2306 
Q 972 2216 1119 2156 
Q 1203 2125 1616 2013 
Q 2213 1853 2448 1751 
Q 2684 1650 2818 1456 
Q 2953 1263 2953 975 
Q 2953 694 2789 445 
Q 2625 197 2315 61 
Q 2006 -75 1616 -75 
Q 969 -75 630 194 
Q 291 463 197 991 
z
" transform="scale(0.015625)"/>
       </defs>
       <use xlink:href="#ArialMT-55"/>
       <use xlink:href="#ArialMT-6e" transform="translate(72.216797 0)"/>
       <use xlink:href="#ArialMT-73" transform="translate(127.832031 0)"/>
       <use xlink:href="#ArialMT-6f" transform="translate(177.832031 0)"/>
       <use xlink:href="#ArialMT-72" transform="translate(233.447266 0)"/>
       <use xlink:href="#ArialMT-74" transform="translate(266.748047 0)"/>
       <use xlink:href="#ArialMT-65" transform="translate(294.53125 0)"/>
       <use xlink:href="#ArialMT-64" transform="translate(350.146484 0)"/>
       <use xlink:href="#ArialMT-53" transform="translate(405.761719 0)"/>
       <use xlink:href="#ArialMT-74" transform="translate(472.460938 0)"/>
       <use xlink:href="#ArialMT-65" transform="translate(500.244141 0)"/>
       <use xlink:href="#ArialMT-70" transform="translate(555.859375 0)"/>
       <use xlink:href="#ArialMT-46" transform="translate(611.474609 0)"/>
       <use xlink:href="#ArialMT-6f" transform="translate(672.558594 0)"/>
       <use xlink:href="#ArialMT-72" transform="translate(728.173828 0)"/>
       <use xlink:href="#ArialMT-77" transform="translate(761.474609 0)"/>
       <use xlink:href="#ArialMT-61" transform="translate(833.691406 0)"/>
       <use xlink:href="#ArialMT-72" transform="translate(889.306641 0)"/>
       <use xlink:href="#ArialMT-64" transform="translate(922.607422 0)"/>
      </g>
     </g>
    </g>
    <g id="text_7">
     <!-- split_type -->
     <g style="fill: #262626" transform="translate(350.547825 839.762355) scale(0.192 -0.192)">
      <defs>
       <path id="ArialMT-79" d="M 397 -1278 
L 334 -750 
Q 519 -800 656 -800 
Q 844 -800 956 -737 
Q 1069 -675 1141 -563 
Q 1194 -478 1313 -144 
Q 1328 -97 1363 -6 
L 103 3319 
L 709 3319 
L 1400 1397 
Q 1534 1031 1641 628 
Q 1738 1016 1872 1384 
L 2581 3319 
L 3144 3319 
L 1881 -56 
Q 1678 -603 1566 -809 
Q 1416 -1088 1222 -1217 
Q 1028 -1347 759 -1347 
Q 597 -1347 397 -1278 
z
" transform="scale(0.015625)"/>
      </defs>
      <use xlink:href="#ArialMT-73"/>
      <use xlink:href="#ArialMT-70" transform="translate(50 0)"/>
      <use xlink:href="#ArialMT-6c" transform="translate(105.615234 0)"/>
      <use xlink:href="#ArialMT-69" transform="translate(127.832031 0)"/>
      <use xlink:href="#ArialMT-74" transform="translate(150.048828 0)"/>
      <use xlink:href="#ArialMT-5f" transform="translate(177.832031 0)"/>
      <use xlink:href="#ArialMT-74" transform="translate(233.447266 0)"/>
      <use xlink:href="#ArialMT-79" transform="translate(261.230469 0)"/>
      <use xlink:href="#ArialMT-70" transform="translate(311.230469 0)"/>
      <use xlink:href="#ArialMT-65" transform="translate(366.845703 0)"/>
     </g>
    </g>
   </g>
   <g id="matplotlib.axis_2">
    <g id="ytick_1">
     <g id="line2d_1">
      <path d="M 89.286 611.480014 
L 692.917651 611.480014 
" clip-path="url(#pe297a89946)" style="fill: none; stroke: #cccccc; stroke-width: 0.8; stroke-linecap: round"/>
     </g>
     <g id="text_8">
      <!-- 0 -->
      <g style="fill: #262626" transform="translate(71.19875 617.778889) scale(0.176 -0.176)">
       <defs>
        <path id="ArialMT-30" d="M 266 2259 
Q 266 3072 433 3567 
Q 600 4063 929 4331 
Q 1259 4600 1759 4600 
Q 2128 4600 2406 4451 
Q 2684 4303 2865 4023 
Q 3047 3744 3150 3342 
Q 3253 2941 3253 2259 
Q 3253 1453 3087 958 
Q 2922 463 2592 192 
Q 2263 -78 1759 -78 
Q 1097 -78 719 397 
Q 266 969 266 2259 
z
M 844 2259 
Q 844 1131 1108 757 
Q 1372 384 1759 384 
Q 2147 384 2411 759 
Q 2675 1134 2675 2259 
Q 2675 3391 2411 3762 
Q 2147 4134 1753 4134 
Q 1366 4134 1134 3806 
Q 844 3388 844 2259 
z
" transform="scale(0.015625)"/>
       </defs>
       <use xlink:href="#ArialMT-30"/>
      </g>
     </g>
    </g>
    <g id="ytick_2">
     <g id="line2d_2">
      <path d="M 89.286 522.982128 
L 692.917651 522.982128 
" clip-path="url(#pe297a89946)" style="fill: none; stroke: #cccccc; stroke-width: 0.8; stroke-linecap: round"/>
     </g>
     <g id="text_9">
      <!-- 500 -->
      <g style="fill: #262626" transform="translate(51.62425 529.281003) scale(0.176 -0.176)">
       <defs>
        <path id="ArialMT-35" d="M 266 1200 
L 856 1250 
Q 922 819 1161 601 
Q 1400 384 1738 384 
Q 2144 384 2425 690 
Q 2706 997 2706 1503 
Q 2706 1984 2436 2262 
Q 2166 2541 1728 2541 
Q 1456 2541 1237 2417 
Q 1019 2294 894 2097 
L 366 2166 
L 809 4519 
L 3088 4519 
L 3088 3981 
L 1259 3981 
L 1013 2750 
Q 1425 3038 1878 3038 
Q 2478 3038 2890 2622 
Q 3303 2206 3303 1553 
Q 3303 931 2941 478 
Q 2500 -78 1738 -78 
Q 1113 -78 717 272 
Q 322 622 266 1200 
z
" transform="scale(0.015625)"/>
       </defs>
       <use xlink:href="#ArialMT-35"/>
       <use xlink:href="#ArialMT-30" transform="translate(55.615234 0)"/>
       <use xlink:href="#ArialMT-30" transform="translate(111.230469 0)"/>
      </g>
     </g>
    </g>
    <g id="ytick_3">
     <g id="line2d_3">
      <path d="M 89.286 434.484242 
L 692.917651 434.484242 
" clip-path="url(#pe297a89946)" style="fill: none; stroke: #cccccc; stroke-width: 0.8; stroke-linecap: round"/>
     </g>
     <g id="text_10">
      <!-- 1000 -->
      <g style="fill: #262626" transform="translate(41.837 440.783117) scale(0.176 -0.176)">
       <use xlink:href="#ArialMT-31"/>
       <use xlink:href="#ArialMT-30" transform="translate(55.615234 0)"/>
       <use xlink:href="#ArialMT-30" transform="translate(111.230469 0)"/>
       <use xlink:href="#ArialMT-30" transform="translate(166.845703 0)"/>
      </g>
     </g>
    </g>
    <g id="ytick_4">
     <g id="line2d_4">
      <path d="M 89.286 345.986356 
L 692.917651 345.986356 
" clip-path="url(#pe297a89946)" style="fill: none; stroke: #cccccc; stroke-width: 0.8; stroke-linecap: round"/>
     </g>
     <g id="text_11">
      <!-- 1500 -->
      <g style="fill: #262626" transform="translate(41.837 352.285231) scale(0.176 -0.176)">
       <use xlink:href="#ArialMT-31"/>
       <use xlink:href="#ArialMT-35" transform="translate(55.615234 0)"/>
       <use xlink:href="#ArialMT-30" transform="translate(111.230469 0)"/>
       <use xlink:href="#ArialMT-30" transform="translate(166.845703 0)"/>
      </g>
     </g>
    </g>
    <g id="ytick_5">
     <g id="line2d_5">
      <path d="M 89.286 257.488471 
L 692.917651 257.488471 
" clip-path="url(#pe297a89946)" style="fill: none; stroke: #cccccc; stroke-width: 0.8; stroke-linecap: round"/>
     </g>
     <g id="text_12">
      <!-- 2000 -->
      <g style="fill: #262626" transform="translate(41.837 263.787346) scale(0.176 -0.176)">
       <defs>
        <path id="ArialMT-32" d="M 3222 541 
L 3222 0 
L 194 0 
Q 188 203 259 391 
Q 375 700 629 1000 
Q 884 1300 1366 1694 
Q 2113 2306 2375 2664 
Q 2638 3022 2638 3341 
Q 2638 3675 2398 3904 
Q 2159 4134 1775 4134 
Q 1369 4134 1125 3890 
Q 881 3647 878 3216 
L 300 3275 
Q 359 3922 746 4261 
Q 1134 4600 1788 4600 
Q 2447 4600 2831 4234 
Q 3216 3869 3216 3328 
Q 3216 3053 3103 2787 
Q 2991 2522 2730 2228 
Q 2469 1934 1863 1422 
Q 1356 997 1212 845 
Q 1069 694 975 541 
L 3222 541 
z
" transform="scale(0.015625)"/>
       </defs>
       <use xlink:href="#ArialMT-32"/>
       <use xlink:href="#ArialMT-30" transform="translate(55.615234 0)"/>
       <use xlink:href="#ArialMT-30" transform="translate(111.230469 0)"/>
       <use xlink:href="#ArialMT-30" transform="translate(166.845703 0)"/>
      </g>
     </g>
    </g>
    <g id="ytick_6">
     <g id="line2d_6">
      <path d="M 89.286 168.990585 
L 692.917651 168.990585 
" clip-path="url(#pe297a89946)" style="fill: none; stroke: #cccccc; stroke-width: 0.8; stroke-linecap: round"/>
     </g>
     <g id="text_13">
      <!-- 2500 -->
      <g style="fill: #262626" transform="translate(41.837 175.28946) scale(0.176 -0.176)">
       <use xlink:href="#ArialMT-32"/>
       <use xlink:href="#ArialMT-35" transform="translate(55.615234 0)"/>
       <use xlink:href="#ArialMT-30" transform="translate(111.230469 0)"/>
       <use xlink:href="#ArialMT-30" transform="translate(166.845703 0)"/>
      </g>
     </g>
    </g>
    <g id="ytick_7">
     <g id="line2d_7">
      <path d="M 89.286 80.492699 
L 692.917651 80.492699 
" clip-path="url(#pe297a89946)" style="fill: none; stroke: #cccccc; stroke-width: 0.8; stroke-linecap: round"/>
     </g>
     <g id="text_14">
      <!-- 3000 -->
      <g style="fill: #262626" transform="translate(41.837 86.791574) scale(0.176 -0.176)">
       <defs>
        <path id="ArialMT-33" d="M 269 1209 
L 831 1284 
Q 928 806 1161 595 
Q 1394 384 1728 384 
Q 2125 384 2398 659 
Q 2672 934 2672 1341 
Q 2672 1728 2419 1979 
Q 2166 2231 1775 2231 
Q 1616 2231 1378 2169 
L 1441 2663 
Q 1497 2656 1531 2656 
Q 1891 2656 2178 2843 
Q 2466 3031 2466 3422 
Q 2466 3731 2256 3934 
Q 2047 4138 1716 4138 
Q 1388 4138 1169 3931 
Q 950 3725 888 3313 
L 325 3413 
Q 428 3978 793 4289 
Q 1159 4600 1703 4600 
Q 2078 4600 2393 4439 
Q 2709 4278 2876 4000 
Q 3044 3722 3044 3409 
Q 3044 3113 2884 2869 
Q 2725 2625 2413 2481 
Q 2819 2388 3044 2092 
Q 3269 1797 3269 1353 
Q 3269 753 2831 336 
Q 2394 -81 1725 -81 
Q 1122 -81 723 278 
Q 325 638 269 1209 
z
" transform="scale(0.015625)"/>
       </defs>
       <use xlink:href="#ArialMT-33"/>
       <use xlink:href="#ArialMT-30" transform="translate(55.615234 0)"/>
       <use xlink:href="#ArialMT-30" transform="translate(111.230469 0)"/>
       <use xlink:href="#ArialMT-30" transform="translate(166.845703 0)"/>
      </g>
     </g>
    </g>
    <g id="text_15">
     <!-- number of train compounds -->
     <g style="fill: #262626" transform="translate(34.021 459.995674) rotate(-90) scale(0.192 -0.192)">
      <defs>
       <path id="ArialMT-75" d="M 2597 0 
L 2597 488 
Q 2209 -75 1544 -75 
Q 1250 -75 995 37 
Q 741 150 617 320 
Q 494 491 444 738 
Q 409 903 409 1263 
L 409 3319 
L 972 3319 
L 972 1478 
Q 972 1038 1006 884 
Q 1059 663 1231 536 
Q 1403 409 1656 409 
Q 1909 409 2131 539 
Q 2353 669 2445 892 
Q 2538 1116 2538 1541 
L 2538 3319 
L 3100 3319 
L 3100 0 
L 2597 0 
z
" transform="scale(0.015625)"/>
       <path id="ArialMT-62" d="M 941 0 
L 419 0 
L 419 4581 
L 981 4581 
L 981 2947 
Q 1338 3394 1891 3394 
Q 2197 3394 2470 3270 
Q 2744 3147 2920 2923 
Q 3097 2700 3197 2384 
Q 3297 2069 3297 1709 
Q 3297 856 2875 390 
Q 2453 -75 1863 -75 
Q 1275 -75 941 416 
L 941 0 
z
M 934 1684 
Q 934 1088 1097 822 
Q 1363 388 1816 388 
Q 2184 388 2453 708 
Q 2722 1028 2722 1663 
Q 2722 2313 2464 2622 
Q 2206 2931 1841 2931 
Q 1472 2931 1203 2611 
Q 934 2291 934 1684 
z
" transform="scale(0.015625)"/>
       <path id="ArialMT-20" transform="scale(0.015625)"/>
      </defs>
      <use xlink:href="#ArialMT-6e"/>
      <use xlink:href="#ArialMT-75" transform="translate(55.615234 0)"/>
      <use xlink:href="#ArialMT-6d" transform="translate(111.230469 0)"/>
      <use xlink:href="#ArialMT-62" transform="translate(194.53125 0)"/>
      <use xlink:href="#ArialMT-65" transform="translate(250.146484 0)"/>
      <use xlink:href="#ArialMT-72" transform="translate(305.761719 0)"/>
      <use xlink:href="#ArialMT-20" transform="translate(339.0625 0)"/>
      <use xlink:href="#ArialMT-6f" transform="translate(366.845703 0)"/>
      <use xlink:href="#ArialMT-66" transform="translate(422.460938 0)"/>
      <use xlink:href="#ArialMT-20" transform="translate(450.244141 0)"/>
      <use xlink:href="#ArialMT-74" transform="translate(478.027344 0)"/>
      <use xlink:href="#ArialMT-72" transform="translate(505.810547 0)"/>
      <use xlink:href="#ArialMT-61" transform="translate(539.111328 0)"/>
      <use xlink:href="#ArialMT-69" transform="translate(594.726562 0)"/>
      <use xlink:href="#ArialMT-6e" transform="translate(616.943359 0)"/>
      <use xlink:href="#ArialMT-20" transform="translate(672.558594 0)"/>
      <use xlink:href="#ArialMT-63" transform="translate(700.341797 0)"/>
      <use xlink:href="#ArialMT-6f" transform="translate(750.341797 0)"/>
      <use xlink:href="#ArialMT-6d" transform="translate(805.957031 0)"/>
      <use xlink:href="#ArialMT-70" transform="translate(889.257812 0)"/>
      <use xlink:href="#ArialMT-6f" transform="translate(944.873047 0)"/>
      <use xlink:href="#ArialMT-75" transform="translate(1000.488281 0)"/>
      <use xlink:href="#ArialMT-6e" transform="translate(1056.103516 0)"/>
      <use xlink:href="#ArialMT-64" transform="translate(1111.71875 0)"/>
      <use xlink:href="#ArialMT-73" transform="translate(1167.333984 0)"/>
     </g>
    </g>
   </g>
   <g id="FillBetweenPolyCollection_1">
    <defs>
     <path id="m9ad127d67e" d="M 157.111728 -256.670728 
L 152.026365 -256.670728 
L 150.177001 -260.141093 
L 147.455381 -263.611457 
L 143.75868 -267.081822 
L 139.14309 -270.552187 
L 133.878413 -274.022552 
L 128.448337 -277.492916 
L 123.477327 -280.963281 
L 119.59446 -284.433646 
L 117.275987 -287.904011 
L 116.723802 -291.374375 
L 117.82546 -294.84474 
L 120.207261 -298.315105 
L 123.353668 -301.78547 
L 126.743779 -305.255835 
L 129.958192 -308.726199 
L 132.731384 -312.196564 
L 134.950726 -315.666929 
L 136.620567 -319.137294 
L 137.813946 -322.607658 
L 138.629287 -326.078023 
L 139.161161 -329.548388 
L 139.487029 -333.018753 
L 139.66678 -336.489117 
L 139.748887 -339.959482 
L 139.776422 -343.429847 
L 139.788563 -346.900212 
L 139.817493 -350.370576 
L 139.884266 -353.840941 
L 139.997897 -357.311306 
L 140.159417 -360.781671 
L 140.368906 -364.252035 
L 140.631229 -367.7224 
L 140.956702 -371.192765 
L 141.355818 -374.66313 
L 141.830844 -378.133494 
L 142.369601 -381.603859 
L 142.946479 -385.074224 
L 143.532294 -388.544589 
L 144.109246 -392.014953 
L 144.683098 -395.485318 
L 145.284542 -398.955683 
L 145.956499 -402.426048 
L 146.731327 -405.896412 
L 147.607617 -409.366777 
L 148.536986 -412.837142 
L 149.427123 -416.307507 
L 150.16064 -419.777871 
L 150.623728 -423.248236 
L 150.735986 -426.718601 
L 150.47312 -430.188966 
L 149.876248 -433.65933 
L 149.044654 -437.129695 
L 148.113051 -440.60006 
L 147.219449 -444.070425 
L 146.473967 -447.540789 
L 145.939504 -451.011154 
L 145.630582 -454.481519 
L 145.528318 -457.951884 
L 145.60202 -461.422248 
L 145.825853 -464.892613 
L 146.183498 -468.362978 
L 146.661765 -471.833343 
L 147.240235 -475.303708 
L 147.885009 -478.774072 
L 148.550698 -482.244437 
L 149.189337 -485.714802 
L 149.761359 -489.185167 
L 150.243655 -492.655531 
L 150.632153 -496.125896 
L 150.939231 -499.596261 
L 151.188 -503.066626 
L 151.405604 -506.53699 
L 151.616758 -510.007355 
L 151.838073 -513.47772 
L 152.073729 -516.948085 
L 152.313763 -520.418449 
L 152.536446 -523.888814 
L 152.715236 -527.359179 
L 152.828654 -530.829544 
L 152.86934 -534.299908 
L 152.848046 -537.770273 
L 152.79017 -541.240638 
L 152.725967 -544.711003 
L 152.678909 -548.181367 
L 152.657932 -551.651732 
L 152.657423 -555.122097 
L 152.664773 -558.592462 
L 152.671206 -562.062826 
L 152.679835 -565.533191 
L 152.706512 -569.003556 
L 152.773083 -572.473921 
L 152.896819 -575.944285 
L 153.081565 -579.41465 
L 153.3149 -582.885015 
L 153.572112 -586.35538 
L 153.82447 -589.825744 
L 154.047685 -593.296109 
L 154.22724 -596.766474 
L 154.359403 -600.236839 
L 154.778691 -600.236839 
L 154.778691 -600.236839 
L 154.910853 -596.766474 
L 155.090409 -593.296109 
L 155.313624 -589.825744 
L 155.565982 -586.35538 
L 155.823194 -582.885015 
L 156.056528 -579.41465 
L 156.241275 -575.944285 
L 156.365011 -572.473921 
L 156.431582 -569.003556 
L 156.458258 -565.533191 
L 156.466888 -562.062826 
L 156.473321 -558.592462 
L 156.480671 -555.122097 
L 156.480162 -551.651732 
L 156.459185 -548.181367 
L 156.412127 -544.711003 
L 156.347923 -541.240638 
L 156.290048 -537.770273 
L 156.268754 -534.299908 
L 156.30944 -530.829544 
L 156.422858 -527.359179 
L 156.601648 -523.888814 
L 156.824331 -520.418449 
L 157.064365 -516.948085 
L 157.300021 -513.47772 
L 157.521336 -510.007355 
L 157.73249 -506.53699 
L 157.950093 -503.066626 
L 158.198863 -499.596261 
L 158.50594 -496.125896 
L 158.894439 -492.655531 
L 159.376735 -489.185167 
L 159.948756 -485.714802 
L 160.587396 -482.244437 
L 161.253085 -478.774072 
L 161.897858 -475.303708 
L 162.476328 -471.833343 
L 162.954595 -468.362978 
L 163.312241 -464.892613 
L 163.536073 -461.422248 
L 163.609776 -457.951884 
L 163.507511 -454.481519 
L 163.19859 -451.011154 
L 162.664127 -447.540789 
L 161.918645 -444.070425 
L 161.025043 -440.60006 
L 160.09344 -437.129695 
L 159.261846 -433.65933 
L 158.664973 -430.188966 
L 158.402108 -426.718601 
L 158.514366 -423.248236 
L 158.977454 -419.777871 
L 159.710971 -416.307507 
L 160.601108 -412.837142 
L 161.530477 -409.366777 
L 162.406766 -405.896412 
L 163.181595 -402.426048 
L 163.853551 -398.955683 
L 164.454996 -395.485318 
L 165.028848 -392.014953 
L 165.6058 -388.544589 
L 166.191614 -385.074224 
L 166.768493 -381.603859 
L 167.307249 -378.133494 
L 167.782276 -374.66313 
L 168.181392 -371.192765 
L 168.506865 -367.7224 
L 168.769188 -364.252035 
L 168.978677 -360.781671 
L 169.140197 -357.311306 
L 169.253828 -353.840941 
L 169.320601 -350.370576 
L 169.349531 -346.900212 
L 169.361672 -343.429847 
L 169.389207 -339.959482 
L 169.471314 -336.489117 
L 169.651065 -333.018753 
L 169.976933 -329.548388 
L 170.508807 -326.078023 
L 171.324147 -322.607658 
L 172.517527 -319.137294 
L 174.187368 -315.666929 
L 176.40671 -312.196564 
L 179.179902 -308.726199 
L 182.394315 -305.255835 
L 185.784425 -301.78547 
L 188.930833 -298.315105 
L 191.312634 -294.84474 
L 192.414291 -291.374375 
L 191.862107 -287.904011 
L 189.543633 -284.433646 
L 185.660767 -280.963281 
L 180.689756 -277.492916 
L 175.259681 -274.022552 
L 169.995004 -270.552187 
L 165.379414 -267.081822 
L 161.682713 -263.611457 
L 158.961092 -260.141093 
L 157.111728 -256.670728 
z
" style="stroke: #494949"/>
    </defs>
    <g clip-path="url(#pe297a89946)">
     <use xlink:href="#m9ad127d67e" x="0" y="864" style="fill: #5875a4; stroke: #494949"/>
    </g>
   </g>
   <g id="FillBetweenPolyCollection_2">
    <defs>
     <path id="m057c07adcc" d="M 249.966689 -249.725855 
L 248.397628 -249.725855 
L 247.643113 -253.266794 
L 246.356859 -256.807734 
L 244.327302 -260.348673 
L 241.37002 -263.889613 
L 237.40345 -267.430553 
L 232.528758 -270.971492 
L 227.079333 -274.512432 
L 221.604832 -278.053372 
L 216.774566 -281.594311 
L 213.220055 -285.135251 
L 211.369442 -288.67619 
L 211.336914 -292.21713 
L 212.909444 -295.75807 
L 215.631131 -299.299009 
L 218.945234 -302.839949 
L 222.336687 -306.380889 
L 225.428802 -309.921828 
L 228.016118 -313.462768 
L 230.043196 -317.003707 
L 231.55422 -320.544647 
L 232.638838 -324.085587 
L 233.391375 -327.626526 
L 233.890095 -331.167466 
L 234.1945 -334.708405 
L 234.353096 -338.249345 
L 234.412281 -341.790285 
L 234.419467 -345.331224 
L 234.419004 -348.872164 
L 234.444884 -352.413104 
L 234.516284 -355.954043 
L 234.639593 -359.494983 
L 234.81583 -363.035922 
L 235.048635 -366.576862 
L 235.347602 -370.117802 
L 235.724603 -373.658741 
L 236.185112 -377.199681 
L 236.720113 -380.740621 
L 237.304828 -384.28156 
L 237.907379 -387.8225 
L 238.504625 -391.363439 
L 239.096951 -394.904379 
L 239.712461 -398.445319 
L 240.39553 -401.986258 
L 241.182873 -405.527198 
L 242.077416 -409.068137 
L 243.032114 -412.609077 
L 243.95154 -416.150017 
L 244.711545 -419.690956 
L 245.190502 -423.231896 
L 245.302352 -426.772836 
L 245.021854 -430.313775 
L 244.394751 -433.854715 
L 243.529259 -437.395654 
L 242.570242 -440.936594 
L 241.663408 -444.477534 
L 240.921578 -448.018473 
L 240.40529 -451.559413 
L 240.124012 -455.100353 
L 240.054401 -458.641292 
L 240.163927 -462.182232 
L 240.427101 -465.723171 
L 240.827826 -469.264111 
L 241.350686 -472.805051 
L 241.970056 -476.34599 
L 242.645494 -479.88693 
L 243.32651 -483.427869 
L 243.9637 -486.968809 
L 244.520289 -490.509749 
L 244.97909 -494.050688 
L 245.343091 -497.591628 
L 245.630975 -501.132568 
L 245.870094 -504.673507 
L 246.089027 -508.214447 
L 246.310715 -511.755386 
L 246.546743 -515.296326 
L 246.793787 -518.837266 
L 247.033919 -522.378205 
L 247.240041 -525.919145 
L 247.385758 -529.460085 
L 247.456332 -533.001024 
L 247.455797 -536.541964 
L 247.406373 -540.082903 
L 247.339805 -543.623843 
L 247.284559 -547.164783 
L 247.255298 -550.705722 
L 247.250069 -554.246662 
L 247.256552 -557.787602 
L 247.263618 -561.328541 
L 247.27147 -564.869481 
L 247.294547 -568.41042 
L 247.355602 -571.95136 
L 247.474415 -575.4923 
L 247.657379 -579.033239 
L 247.893267 -582.574179 
L 248.156775 -586.115118 
L 248.417327 -589.656058 
L 248.648544 -593.196998 
L 248.834426 -596.737937 
L 248.970693 -600.278877 
L 249.393624 -600.278877 
L 249.393624 -600.278877 
L 249.52989 -596.737937 
L 249.715773 -593.196998 
L 249.94699 -589.656058 
L 250.207541 -586.115118 
L 250.471049 -582.574179 
L 250.706937 -579.033239 
L 250.889901 -575.4923 
L 251.008715 -571.95136 
L 251.06977 -568.41042 
L 251.092847 -564.869481 
L 251.100699 -561.328541 
L 251.107765 -557.787602 
L 251.114248 -554.246662 
L 251.109019 -550.705722 
L 251.079757 -547.164783 
L 251.024512 -543.623843 
L 250.957943 -540.082903 
L 250.908519 -536.541964 
L 250.907985 -533.001024 
L 250.978558 -529.460085 
L 251.124276 -525.919145 
L 251.330398 -522.378205 
L 251.57053 -518.837266 
L 251.817574 -515.296326 
L 252.053602 -511.755386 
L 252.27529 -508.214447 
L 252.494223 -504.673507 
L 252.733342 -501.132568 
L 253.021225 -497.591628 
L 253.385227 -494.050688 
L 253.844028 -490.509749 
L 254.400617 -486.968809 
L 255.037806 -483.427869 
L 255.718823 -479.88693 
L 256.394261 -476.34599 
L 257.01363 -472.805051 
L 257.536491 -469.264111 
L 257.937216 -465.723171 
L 258.20039 -462.182232 
L 258.309915 -458.641292 
L 258.240304 -455.100353 
L 257.959027 -451.559413 
L 257.442738 -448.018473 
L 256.700908 -444.477534 
L 255.794075 -440.936594 
L 254.835057 -437.395654 
L 253.969565 -433.854715 
L 253.342463 -430.313775 
L 253.061964 -426.772836 
L 253.173815 -423.231896 
L 253.652771 -419.690956 
L 254.412777 -416.150017 
L 255.332203 -412.609077 
L 256.2869 -409.068137 
L 257.181444 -405.527198 
L 257.968786 -401.986258 
L 258.651855 -398.445319 
L 259.267366 -394.904379 
L 259.859692 -391.363439 
L 260.456938 -387.8225 
L 261.059488 -384.28156 
L 261.644203 -380.740621 
L 262.179205 -377.199681 
L 262.639713 -373.658741 
L 263.016714 -370.117802 
L 263.315682 -366.576862 
L 263.548486 -363.035922 
L 263.724723 -359.494983 
L 263.848032 -355.954043 
L 263.919432 -352.413104 
L 263.945312 -348.872164 
L 263.944849 -345.331224 
L 263.952036 -341.790285 
L 264.011221 -338.249345 
L 264.169817 -334.708405 
L 264.474222 -331.167466 
L 264.972941 -327.626526 
L 265.725479 -324.085587 
L 266.810097 -320.544647 
L 268.321121 -317.003707 
L 270.348198 -313.462768 
L 272.935514 -309.921828 
L 276.027629 -306.380889 
L 279.419083 -302.839949 
L 282.733186 -299.299009 
L 285.454872 -295.75807 
L 287.027403 -292.21713 
L 286.994875 -288.67619 
L 285.144262 -285.135251 
L 281.58975 -281.594311 
L 276.759484 -278.053372 
L 271.284983 -274.512432 
L 265.835559 -270.971492 
L 260.960867 -267.430553 
L 256.994297 -263.889613 
L 254.037015 -260.348673 
L 252.007458 -256.807734 
L 250.721204 -253.266794 
L 249.966689 -249.725855 
z
" style="stroke: #494949"/>
    </defs>
    <g clip-path="url(#pe297a89946)">
     <use xlink:href="#m057c07adcc" x="0" y="864" style="fill: #cc8963; stroke: #494949"/>
    </g>
   </g>
   <g id="FillBetweenPolyCollection_3">
    <defs>
     <path id="mfdfa067f96" d="M 344.765999 -236.331044 
L 342.824541 -236.331044 
L 341.651418 -239.938773 
L 339.566323 -243.546501 
L 336.309611 -247.15423 
L 331.835734 -250.761958 
L 326.424807 -254.369687 
L 320.658612 -257.977415 
L 315.248247 -261.585144 
L 310.809309 -265.192872 
L 307.717994 -268.800601 
L 306.107524 -272.408329 
L 305.950025 -276.016058 
L 307.122572 -279.623787 
L 309.410364 -283.231515 
L 312.486714 -286.839244 
L 315.938479 -290.446972 
L 319.355064 -294.054701 
L 322.429843 -297.662429 
L 325.008284 -301.270158 
L 327.066103 -304.877886 
L 328.655673 -308.485615 
L 329.865336 -312.093343 
L 330.800969 -315.701072 
L 331.570566 -319.3088 
L 332.259722 -322.916529 
L 332.910568 -326.524258 
L 333.523806 -330.131986 
L 334.083649 -333.739715 
L 334.583684 -337.347443 
L 335.034096 -340.955172 
L 335.45236 -344.5629 
L 335.853125 -348.170629 
L 336.246025 -351.778357 
L 336.637573 -355.386086 
L 337.031207 -358.993814 
L 337.42518 -362.601543 
L 337.811475 -366.209271 
L 338.178418 -369.817 
L 338.517036 -373.424729 
L 338.826889 -377.032457 
L 339.115032 -380.640186 
L 339.387475 -384.247914 
L 339.642163 -387.855643 
L 339.872959 -391.463371 
L 340.081435 -395.0711 
L 340.281967 -398.678828 
L 340.491021 -402.286557 
L 340.709397 -405.894285 
L 340.91626 -409.502014 
L 341.08371 -413.109743 
L 341.200134 -416.717471 
L 341.280781 -420.3252 
L 341.354825 -423.932928 
L 341.439634 -427.540657 
L 341.525386 -431.148385 
L 341.585109 -434.756114 
L 341.602681 -438.363842 
L 341.59374 -441.971571 
L 341.599129 -445.579299 
L 341.65535 -449.187028 
L 341.768173 -452.794756 
L 341.912156 -456.402485 
L 342.05378 -460.010214 
L 342.175504 -463.617942 
L 342.2816 -467.225671 
L 342.386513 -470.833399 
L 342.500496 -474.441128 
L 342.624107 -478.048856 
L 342.751198 -481.656585 
L 342.873334 -485.264313 
L 342.981717 -488.872042 
L 343.068451 -492.47977 
L 343.12942 -496.087499 
L 343.167076 -499.695228 
L 343.190072 -503.302956 
L 343.209995 -506.910685 
L 343.237843 -510.518413 
L 343.281099 -514.126142 
L 343.340425 -517.73387 
L 343.407177 -521.341599 
L 343.465507 -524.949327 
L 343.500312 -528.557056 
L 343.506423 -532.164784 
L 343.492286 -535.772513 
L 343.475474 -539.380241 
L 343.473351 -542.98797 
L 343.494627 -546.595699 
L 343.53593 -550.203427 
L 343.584252 -553.811156 
L 343.623607 -557.418884 
L 343.64282 -561.026613 
L 343.640903 -564.634341 
L 343.627315 -568.24207 
L 343.616753 -571.849798 
L 343.621209 -575.457527 
L 343.644034 -579.065255 
L 343.679518 -582.672984 
L 343.717568 -586.280712 
L 343.749598 -589.888441 
L 343.771777 -593.49617 
L 343.818763 -593.49617 
L 343.818763 -593.49617 
L 343.840942 -589.888441 
L 343.872971 -586.280712 
L 343.911022 -582.672984 
L 343.946505 -579.065255 
L 343.96933 -575.457527 
L 343.973787 -571.849798 
L 343.963225 -568.24207 
L 343.949637 -564.634341 
L 343.947719 -561.026613 
L 343.966932 -557.418884 
L 344.006287 -553.811156 
L 344.054609 -550.203427 
L 344.095913 -546.595699 
L 344.117189 -542.98797 
L 344.115065 -539.380241 
L 344.098254 -535.772513 
L 344.084116 -532.164784 
L 344.090228 -528.557056 
L 344.125033 -524.949327 
L 344.183362 -521.341599 
L 344.250114 -517.73387 
L 344.309441 -514.126142 
L 344.352696 -510.518413 
L 344.380544 -506.910685 
L 344.400467 -503.302956 
L 344.423464 -499.695228 
L 344.461119 -496.087499 
L 344.522089 -492.47977 
L 344.608823 -488.872042 
L 344.717205 -485.264313 
L 344.839341 -481.656585 
L 344.966432 -478.048856 
L 345.090043 -474.441128 
L 345.204026 -470.833399 
L 345.30894 -467.225671 
L 345.415035 -463.617942 
L 345.536759 -460.010214 
L 345.678383 -456.402485 
L 345.822367 -452.794756 
L 345.935189 -449.187028 
L 345.99141 -445.579299 
L 345.9968 -441.971571 
L 345.987858 -438.363842 
L 346.00543 -434.756114 
L 346.065153 -431.148385 
L 346.150906 -427.540657 
L 346.235714 -423.932928 
L 346.309759 -420.3252 
L 346.390406 -416.717471 
L 346.506829 -413.109743 
L 346.674279 -409.502014 
L 346.881143 -405.894285 
L 347.099518 -402.286557 
L 347.308572 -398.678828 
L 347.509104 -395.0711 
L 347.71758 -391.463371 
L 347.948376 -387.855643 
L 348.203065 -384.247914 
L 348.475507 -380.640186 
L 348.763651 -377.032457 
L 349.073503 -373.424729 
L 349.412121 -369.817 
L 349.779065 -366.209271 
L 350.165359 -362.601543 
L 350.559332 -358.993814 
L 350.952967 -355.386086 
L 351.344515 -351.778357 
L 351.737414 -348.170629 
L 352.138179 -344.5629 
L 352.556443 -340.955172 
L 353.006855 -337.347443 
L 353.50689 -333.739715 
L 354.066733 -330.131986 
L 354.679971 -326.524258 
L 355.330817 -322.916529 
L 356.019973 -319.3088 
L 356.789571 -315.701072 
L 357.725203 -312.093343 
L 358.934866 -308.485615 
L 360.524436 -304.877886 
L 362.582256 -301.270158 
L 365.160696 -297.662429 
L 368.235475 -294.054701 
L 371.65206 -290.446972 
L 375.103826 -286.839244 
L 378.180175 -283.231515 
L 380.467967 -279.623787 
L 381.640514 -276.016058 
L 381.483015 -272.408329 
L 379.872545 -268.800601 
L 376.78123 -265.192872 
L 372.342292 -261.585144 
L 366.931927 -257.977415 
L 361.165733 -254.369687 
L 355.754805 -250.761958 
L 351.280928 -247.15423 
L 348.024216 -243.546501 
L 345.939121 -239.938773 
L 344.765999 -236.331044 
z
" style="stroke: #494949"/>
    </defs>
    <g clip-path="url(#pe297a89946)">
     <use xlink:href="#mfdfa067f96" x="0" y="864" style="fill: #5f9e6e; stroke: #494949"/>
    </g>
   </g>
   <g id="FillBetweenPolyCollection_4">
    <defs>
     <path id="me524c23813" d="M 439.37911 -236.331044 
L 437.437652 -236.331044 
L 436.26453 -239.938773 
L 434.179435 -243.546501 
L 430.922723 -247.15423 
L 426.448845 -250.761958 
L 421.037918 -254.369687 
L 415.271723 -257.977415 
L 409.861358 -261.585144 
L 405.422421 -265.192872 
L 402.331106 -268.800601 
L 400.720636 -272.408329 
L 400.563137 -276.016058 
L 401.735684 -279.623787 
L 404.023476 -283.231515 
L 407.099825 -286.839244 
L 410.551591 -290.446972 
L 413.968176 -294.054701 
L 417.042954 -297.662429 
L 419.621395 -301.270158 
L 421.679215 -304.877886 
L 423.268785 -308.485615 
L 424.478448 -312.093343 
L 425.41408 -315.701072 
L 426.183678 -319.3088 
L 426.872834 -322.916529 
L 427.52368 -326.524258 
L 428.136918 -330.131986 
L 428.696761 -333.739715 
L 429.196796 -337.347443 
L 429.647207 -340.955172 
L 430.065472 -344.5629 
L 430.466237 -348.170629 
L 430.859136 -351.778357 
L 431.250684 -355.386086 
L 431.644319 -358.993814 
L 432.038292 -362.601543 
L 432.424586 -366.209271 
L 432.79153 -369.817 
L 433.130147 -373.424729 
L 433.44 -377.032457 
L 433.728144 -380.640186 
L 434.000586 -384.247914 
L 434.255275 -387.855643 
L 434.486071 -391.463371 
L 434.694546 -395.0711 
L 434.895079 -398.678828 
L 435.104133 -402.286557 
L 435.322508 -405.894285 
L 435.529372 -409.502014 
L 435.696821 -413.109743 
L 435.813245 -416.717471 
L 435.893892 -420.3252 
L 435.967936 -423.932928 
L 436.052745 -427.540657 
L 436.138497 -431.148385 
L 436.19822 -434.756114 
L 436.215793 -438.363842 
L 436.206851 -441.971571 
L 436.212241 -445.579299 
L 436.268462 -449.187028 
L 436.381284 -452.794756 
L 436.525268 -456.402485 
L 436.666892 -460.010214 
L 436.788616 -463.617942 
L 436.894711 -467.225671 
L 436.999624 -470.833399 
L 437.113607 -474.441128 
L 437.237219 -478.048856 
L 437.36431 -481.656585 
L 437.486445 -485.264313 
L 437.594828 -488.872042 
L 437.681562 -492.47977 
L 437.742532 -496.087499 
L 437.780187 -499.695228 
L 437.803183 -503.302956 
L 437.823107 -506.910685 
L 437.850954 -510.518413 
L 437.89421 -514.126142 
L 437.953537 -517.73387 
L 438.020288 -521.341599 
L 438.078618 -524.949327 
L 438.113423 -528.557056 
L 438.119535 -532.164784 
L 438.105397 -535.772513 
L 438.088586 -539.380241 
L 438.086462 -542.98797 
L 438.107738 -546.595699 
L 438.149042 -550.203427 
L 438.197363 -553.811156 
L 438.236718 -557.418884 
L 438.255932 -561.026613 
L 438.254014 -564.634341 
L 438.240426 -568.24207 
L 438.229864 -571.849798 
L 438.234321 -575.457527 
L 438.257145 -579.065255 
L 438.292629 -582.672984 
L 438.33068 -586.280712 
L 438.362709 -589.888441 
L 438.384888 -593.49617 
L 438.431874 -593.49617 
L 438.431874 -593.49617 
L 438.454053 -589.888441 
L 438.486082 -586.280712 
L 438.524133 -582.672984 
L 438.559617 -579.065255 
L 438.582441 -575.457527 
L 438.586898 -571.849798 
L 438.576336 -568.24207 
L 438.562748 -564.634341 
L 438.56083 -561.026613 
L 438.580044 -557.418884 
L 438.619399 -553.811156 
L 438.66772 -550.203427 
L 438.709024 -546.595699 
L 438.7303 -542.98797 
L 438.728176 -539.380241 
L 438.711365 -535.772513 
L 438.697227 -532.164784 
L 438.703339 -528.557056 
L 438.738144 -524.949327 
L 438.796474 -521.341599 
L 438.863225 -517.73387 
L 438.922552 -514.126142 
L 438.965808 -510.518413 
L 438.993655 -506.910685 
L 439.013579 -503.302956 
L 439.036575 -499.695228 
L 439.07423 -496.087499 
L 439.1352 -492.47977 
L 439.221934 -488.872042 
L 439.330317 -485.264313 
L 439.452453 -481.656585 
L 439.579543 -478.048856 
L 439.703155 -474.441128 
L 439.817138 -470.833399 
L 439.922051 -467.225671 
L 440.028146 -463.617942 
L 440.14987 -460.010214 
L 440.291495 -456.402485 
L 440.435478 -452.794756 
L 440.548301 -449.187028 
L 440.604521 -445.579299 
L 440.609911 -441.971571 
L 440.600969 -438.363842 
L 440.618542 -434.756114 
L 440.678265 -431.148385 
L 440.764017 -427.540657 
L 440.848826 -423.932928 
L 440.92287 -420.3252 
L 441.003517 -416.717471 
L 441.119941 -413.109743 
L 441.28739 -409.502014 
L 441.494254 -405.894285 
L 441.712629 -402.286557 
L 441.921683 -398.678828 
L 442.122216 -395.0711 
L 442.330692 -391.463371 
L 442.561488 -387.855643 
L 442.816176 -384.247914 
L 443.088619 -380.640186 
L 443.376762 -377.032457 
L 443.686615 -373.424729 
L 444.025233 -369.817 
L 444.392176 -366.209271 
L 444.77847 -362.601543 
L 445.172443 -358.993814 
L 445.566078 -355.386086 
L 445.957626 -351.778357 
L 446.350525 -348.170629 
L 446.75129 -344.5629 
L 447.169555 -340.955172 
L 447.619967 -337.347443 
L 448.120002 -333.739715 
L 448.679844 -330.131986 
L 449.293082 -326.524258 
L 449.943929 -322.916529 
L 450.633085 -319.3088 
L 451.402682 -315.701072 
L 452.338314 -312.093343 
L 453.547977 -308.485615 
L 455.137548 -304.877886 
L 457.195367 -301.270158 
L 459.773808 -297.662429 
L 462.848586 -294.054701 
L 466.265172 -290.446972 
L 469.716937 -286.839244 
L 472.793286 -283.231515 
L 475.081078 -279.623787 
L 476.253626 -276.016058 
L 476.096126 -272.408329 
L 474.485657 -268.800601 
L 471.394342 -265.192872 
L 466.955404 -261.585144 
L 461.545039 -257.977415 
L 455.778844 -254.369687 
L 450.367917 -250.761958 
L 445.89404 -247.15423 
L 442.637327 -243.546501 
L 440.552233 -239.938773 
L 439.37911 -236.331044 
z
" style="stroke: #494949"/>
    </defs>
    <g clip-path="url(#pe297a89946)">
     <use xlink:href="#me524c23813" x="0" y="864" style="fill: #b55d60; stroke: #494949"/>
    </g>
   </g>
   <g id="FillBetweenPolyCollection_5">
    <defs>
     <path id="m849d491a9e" d="M 533.992221 -236.331044 
L 532.050764 -236.331044 
L 530.877641 -239.938773 
L 528.792546 -243.546501 
L 525.535834 -247.15423 
L 521.061957 -250.761958 
L 515.651029 -254.369687 
L 509.884835 -257.977415 
L 504.47447 -261.585144 
L 500.035532 -265.192872 
L 496.944217 -268.800601 
L 495.333747 -272.408329 
L 495.176248 -276.016058 
L 496.348795 -279.623787 
L 498.636587 -283.231515 
L 501.712936 -286.839244 
L 505.164702 -290.446972 
L 508.581287 -294.054701 
L 511.656066 -297.662429 
L 514.234506 -301.270158 
L 516.292326 -304.877886 
L 517.881896 -308.485615 
L 519.091559 -312.093343 
L 520.027191 -315.701072 
L 520.796789 -319.3088 
L 521.485945 -322.916529 
L 522.136791 -326.524258 
L 522.750029 -330.131986 
L 523.309872 -333.739715 
L 523.809907 -337.347443 
L 524.260319 -340.955172 
L 524.678583 -344.5629 
L 525.079348 -348.170629 
L 525.472248 -351.778357 
L 525.863796 -355.386086 
L 526.25743 -358.993814 
L 526.651403 -362.601543 
L 527.037698 -366.209271 
L 527.404641 -369.817 
L 527.743259 -373.424729 
L 528.053112 -377.032457 
L 528.341255 -380.640186 
L 528.613697 -384.247914 
L 528.868386 -387.855643 
L 529.099182 -391.463371 
L 529.307658 -395.0711 
L 529.50819 -398.678828 
L 529.717244 -402.286557 
L 529.93562 -405.894285 
L 530.142483 -409.502014 
L 530.309933 -413.109743 
L 530.426356 -416.717471 
L 530.507004 -420.3252 
L 530.581048 -423.932928 
L 530.665857 -427.540657 
L 530.751609 -431.148385 
L 530.811332 -434.756114 
L 530.828904 -438.363842 
L 530.819963 -441.971571 
L 530.825352 -445.579299 
L 530.881573 -449.187028 
L 530.994395 -452.794756 
L 531.138379 -456.402485 
L 531.280003 -460.010214 
L 531.401727 -463.617942 
L 531.507823 -467.225671 
L 531.612736 -470.833399 
L 531.726719 -474.441128 
L 531.85033 -478.048856 
L 531.977421 -481.656585 
L 532.099557 -485.264313 
L 532.207939 -488.872042 
L 532.294673 -492.47977 
L 532.355643 -496.087499 
L 532.393299 -499.695228 
L 532.416295 -503.302956 
L 532.436218 -506.910685 
L 532.464066 -510.518413 
L 532.507321 -514.126142 
L 532.566648 -517.73387 
L 532.6334 -521.341599 
L 532.691729 -524.949327 
L 532.726534 -528.557056 
L 532.732646 -532.164784 
L 532.718509 -535.772513 
L 532.701697 -539.380241 
L 532.699573 -542.98797 
L 532.720849 -546.595699 
L 532.762153 -550.203427 
L 532.810475 -553.811156 
L 532.84983 -557.418884 
L 532.869043 -561.026613 
L 532.867125 -564.634341 
L 532.853537 -568.24207 
L 532.842975 -571.849798 
L 532.847432 -575.457527 
L 532.870257 -579.065255 
L 532.905741 -582.672984 
L 532.943791 -586.280712 
L 532.97582 -589.888441 
L 532.998 -593.49617 
L 533.044985 -593.49617 
L 533.044985 -593.49617 
L 533.067165 -589.888441 
L 533.099194 -586.280712 
L 533.137244 -582.672984 
L 533.172728 -579.065255 
L 533.195553 -575.457527 
L 533.20001 -571.849798 
L 533.189448 -568.24207 
L 533.17586 -564.634341 
L 533.173942 -561.026613 
L 533.193155 -557.418884 
L 533.23251 -553.811156 
L 533.280832 -550.203427 
L 533.322136 -546.595699 
L 533.343412 -542.98797 
L 533.341288 -539.380241 
L 533.324476 -535.772513 
L 533.310339 -532.164784 
L 533.316451 -528.557056 
L 533.351256 -524.949327 
L 533.409585 -521.341599 
L 533.476337 -517.73387 
L 533.535664 -514.126142 
L 533.578919 -510.518413 
L 533.606767 -506.910685 
L 533.62669 -503.302956 
L 533.649686 -499.695228 
L 533.687342 -496.087499 
L 533.748312 -492.47977 
L 533.835046 -488.872042 
L 533.943428 -485.264313 
L 534.065564 -481.656585 
L 534.192655 -478.048856 
L 534.316266 -474.441128 
L 534.430249 -470.833399 
L 534.535163 -467.225671 
L 534.641258 -463.617942 
L 534.762982 -460.010214 
L 534.904606 -456.402485 
L 535.04859 -452.794756 
L 535.161412 -449.187028 
L 535.217633 -445.579299 
L 535.223022 -441.971571 
L 535.214081 -438.363842 
L 535.231653 -434.756114 
L 535.291376 -431.148385 
L 535.377128 -427.540657 
L 535.461937 -423.932928 
L 535.535981 -420.3252 
L 535.616629 -416.717471 
L 535.733052 -413.109743 
L 535.900502 -409.502014 
L 536.107365 -405.894285 
L 536.325741 -402.286557 
L 536.534795 -398.678828 
L 536.735327 -395.0711 
L 536.943803 -391.463371 
L 537.174599 -387.855643 
L 537.429288 -384.247914 
L 537.70173 -380.640186 
L 537.989873 -377.032457 
L 538.299726 -373.424729 
L 538.638344 -369.817 
L 539.005287 -366.209271 
L 539.391582 -362.601543 
L 539.785555 -358.993814 
L 540.179189 -355.386086 
L 540.570737 -351.778357 
L 540.963637 -348.170629 
L 541.364402 -344.5629 
L 541.782666 -340.955172 
L 542.233078 -337.347443 
L 542.733113 -333.739715 
L 543.292956 -330.131986 
L 543.906194 -326.524258 
L 544.55704 -322.916529 
L 545.246196 -319.3088 
L 546.015794 -315.701072 
L 546.951426 -312.093343 
L 548.161089 -308.485615 
L 549.750659 -304.877886 
L 551.808479 -301.270158 
L 554.386919 -297.662429 
L 557.461698 -294.054701 
L 560.878283 -290.446972 
L 564.330049 -286.839244 
L 567.406398 -283.231515 
L 569.69419 -279.623787 
L 570.866737 -276.016058 
L 570.709238 -272.408329 
L 569.098768 -268.800601 
L 566.007453 -265.192872 
L 561.568515 -261.585144 
L 556.15815 -257.977415 
L 550.391956 -254.369687 
L 544.981028 -250.761958 
L 540.507151 -247.15423 
L 537.250439 -243.546501 
L 535.165344 -239.938773 
L 533.992221 -236.331044 
z
" style="stroke: #494949"/>
    </defs>
    <g clip-path="url(#pe297a89946)">
     <use xlink:href="#m849d491a9e" x="0" y="864" style="fill: #857aab; stroke: #494949"/>
    </g>
   </g>
   <g id="FillBetweenPolyCollection_6">
    <defs>
     <path id="m7acb197692" d="M 628.605333 -236.331044 
L 626.663875 -236.331044 
L 625.490752 -239.938773 
L 623.405658 -243.546501 
L 620.148945 -247.15423 
L 615.675068 -250.761958 
L 610.264141 -254.369687 
L 604.497946 -257.977415 
L 599.087581 -261.585144 
L 594.648643 -265.192872 
L 591.557328 -268.800601 
L 589.946859 -272.408329 
L 589.789359 -276.016058 
L 590.961907 -279.623787 
L 593.249699 -283.231515 
L 596.326048 -286.839244 
L 599.777813 -290.446972 
L 603.194399 -294.054701 
L 606.269177 -297.662429 
L 608.847618 -301.270158 
L 610.905437 -304.877886 
L 612.495008 -308.485615 
L 613.704671 -312.093343 
L 614.640303 -315.701072 
L 615.4099 -319.3088 
L 616.099056 -322.916529 
L 616.749903 -326.524258 
L 617.363141 -330.131986 
L 617.922983 -333.739715 
L 618.423018 -337.347443 
L 618.87343 -340.955172 
L 619.291695 -344.5629 
L 619.69246 -348.170629 
L 620.085359 -351.778357 
L 620.476907 -355.386086 
L 620.870542 -358.993814 
L 621.264515 -362.601543 
L 621.650809 -366.209271 
L 622.017752 -369.817 
L 622.35637 -373.424729 
L 622.666223 -377.032457 
L 622.954366 -380.640186 
L 623.226809 -384.247914 
L 623.481497 -387.855643 
L 623.712293 -391.463371 
L 623.920769 -395.0711 
L 624.121302 -398.678828 
L 624.330356 -402.286557 
L 624.548731 -405.894285 
L 624.755595 -409.502014 
L 624.923044 -413.109743 
L 625.039468 -416.717471 
L 625.120115 -420.3252 
L 625.194159 -423.932928 
L 625.278968 -427.540657 
L 625.36472 -431.148385 
L 625.424443 -434.756114 
L 625.442016 -438.363842 
L 625.433074 -441.971571 
L 625.438464 -445.579299 
L 625.494684 -449.187028 
L 625.607507 -452.794756 
L 625.75149 -456.402485 
L 625.893115 -460.010214 
L 626.014839 -463.617942 
L 626.120934 -467.225671 
L 626.225847 -470.833399 
L 626.33983 -474.441128 
L 626.463442 -478.048856 
L 626.590532 -481.656585 
L 626.712668 -485.264313 
L 626.821051 -488.872042 
L 626.907785 -492.47977 
L 626.968755 -496.087499 
L 627.00641 -499.695228 
L 627.029406 -503.302956 
L 627.04933 -506.910685 
L 627.077177 -510.518413 
L 627.120433 -514.126142 
L 627.17976 -517.73387 
L 627.246511 -521.341599 
L 627.304841 -524.949327 
L 627.339646 -528.557056 
L 627.345758 -532.164784 
L 627.33162 -535.772513 
L 627.314809 -539.380241 
L 627.312685 -542.98797 
L 627.333961 -546.595699 
L 627.375265 -550.203427 
L 627.423586 -553.811156 
L 627.462941 -557.418884 
L 627.482155 -561.026613 
L 627.480237 -564.634341 
L 627.466649 -568.24207 
L 627.456087 -571.849798 
L 627.460544 -575.457527 
L 627.483368 -579.065255 
L 627.518852 -582.672984 
L 627.556903 -586.280712 
L 627.588932 -589.888441 
L 627.611111 -593.49617 
L 627.658097 -593.49617 
L 627.658097 -593.49617 
L 627.680276 -589.888441 
L 627.712305 -586.280712 
L 627.750356 -582.672984 
L 627.78584 -579.065255 
L 627.808664 -575.457527 
L 627.813121 -571.849798 
L 627.802559 -568.24207 
L 627.788971 -564.634341 
L 627.787053 -561.026613 
L 627.806267 -557.418884 
L 627.845622 -553.811156 
L 627.893943 -550.203427 
L 627.935247 -546.595699 
L 627.956523 -542.98797 
L 627.954399 -539.380241 
L 627.937588 -535.772513 
L 627.92345 -532.164784 
L 627.929562 -528.557056 
L 627.964367 -524.949327 
L 628.022697 -521.341599 
L 628.089448 -517.73387 
L 628.148775 -514.126142 
L 628.192031 -510.518413 
L 628.219878 -506.910685 
L 628.239802 -503.302956 
L 628.262798 -499.695228 
L 628.300453 -496.087499 
L 628.361423 -492.47977 
L 628.448157 -488.872042 
L 628.55654 -485.264313 
L 628.678675 -481.656585 
L 628.805766 -478.048856 
L 628.929378 -474.441128 
L 629.043361 -470.833399 
L 629.148274 -467.225671 
L 629.254369 -463.617942 
L 629.376093 -460.010214 
L 629.517717 -456.402485 
L 629.661701 -452.794756 
L 629.774523 -449.187028 
L 629.830744 -445.579299 
L 629.836134 -441.971571 
L 629.827192 -438.363842 
L 629.844765 -434.756114 
L 629.904488 -431.148385 
L 629.99024 -427.540657 
L 630.075049 -423.932928 
L 630.149093 -420.3252 
L 630.22974 -416.717471 
L 630.346164 -413.109743 
L 630.513613 -409.502014 
L 630.720477 -405.894285 
L 630.938852 -402.286557 
L 631.147906 -398.678828 
L 631.348439 -395.0711 
L 631.556914 -391.463371 
L 631.78771 -387.855643 
L 632.042399 -384.247914 
L 632.314841 -380.640186 
L 632.602985 -377.032457 
L 632.912838 -373.424729 
L 633.251455 -369.817 
L 633.618399 -366.209271 
L 634.004693 -362.601543 
L 634.398666 -358.993814 
L 634.792301 -355.386086 
L 635.183849 -351.778357 
L 635.576748 -348.170629 
L 635.977513 -344.5629 
L 636.395778 -340.955172 
L 636.846189 -337.347443 
L 637.346224 -333.739715 
L 637.906067 -330.131986 
L 638.519305 -326.524258 
L 639.170151 -322.916529 
L 639.859307 -319.3088 
L 640.628905 -315.701072 
L 641.564537 -312.093343 
L 642.7742 -308.485615 
L 644.36377 -304.877886 
L 646.42159 -301.270158 
L 649.000031 -297.662429 
L 652.074809 -294.054701 
L 655.491394 -290.446972 
L 658.94316 -286.839244 
L 662.019509 -283.231515 
L 664.307301 -279.623787 
L 665.479848 -276.016058 
L 665.322349 -272.408329 
L 663.711879 -268.800601 
L 660.620564 -265.192872 
L 656.181627 -261.585144 
L 650.771262 -257.977415 
L 645.005067 -254.369687 
L 639.59414 -250.761958 
L 635.120262 -247.15423 
L 631.86355 -243.546501 
L 629.778455 -239.938773 
L 628.605333 -236.331044 
z
" style="stroke: #494949"/>
    </defs>
    <g clip-path="url(#pe297a89946)">
     <use xlink:href="#m7acb197692" x="0" y="864" style="fill: #8d7866; stroke: #494949"/>
    </g>
   </g>
   <g id="line2d_8">
    <path d="M 154.569047 580.682749 
L 154.569047 316.782054 
" clip-path="url(#pe297a89946)" style="fill: none; stroke: #494949; stroke-width: 1.5; stroke-linecap: round"/>
   </g>
   <g id="line2d_9">
    <path d="M 154.569047 575.018885 
L 154.569047 463.157557 
" clip-path="url(#pe297a89946)" style="fill: none; stroke: #494949; stroke-width: 4.5; stroke-linecap: round"/>
   </g>
   <g id="line2d_10">
    <path d="M 154.569047 534.309857 
" clip-path="url(#pe297a89946)" style="fill: none; stroke: #494949; stroke-width: 1.2; stroke-linecap: round"/>
    <defs>
     <path id="m9d9d71766b" d="M 1.875 0 
L -1.875 -0 
" style="stroke: #ffffff; stroke-width: 0.9"/>
    </defs>
    <g clip-path="url(#pe297a89946)">
     <use xlink:href="#m9d9d71766b" x="154.569047" y="534.309857" style="fill: #ffffff; stroke: #ffffff; stroke-width: 0.9"/>
    </g>
   </g>
   <g id="line2d_11">
    <path d="M 249.182158 587.585584 
L 249.182158 316.782054 
" clip-path="url(#pe297a89946)" style="fill: none; stroke: #494949; stroke-width: 1.5; stroke-linecap: round"/>
   </g>
   <g id="line2d_12">
    <path d="M 249.182158 575.018885 
L 249.182158 463.334553 
" clip-path="url(#pe297a89946)" style="fill: none; stroke: #494949; stroke-width: 4.5; stroke-linecap: round"/>
   </g>
   <g id="line2d_13">
    <path d="M 249.182158 534.309857 
" clip-path="url(#pe297a89946)" style="fill: none; stroke: #494949; stroke-width: 1.2; stroke-linecap: round"/>
    <g clip-path="url(#pe297a89946)">
     <use xlink:href="#m9d9d71766b" x="249.182158" y="534.309857" style="fill: #ffffff; stroke: #ffffff; stroke-width: 0.9"/>
    </g>
   </g>
   <g id="line2d_14">
    <path d="M 343.79527 607.940098 
L 343.79527 452.537811 
" clip-path="url(#pe297a89946)" style="fill: none; stroke: #494949; stroke-width: 1.5; stroke-linecap: round"/>
   </g>
   <g id="line2d_15">
    <path d="M 343.79527 591.479491 
L 343.79527 534.132861 
" clip-path="url(#pe297a89946)" style="fill: none; stroke: #494949; stroke-width: 4.5; stroke-linecap: round"/>
   </g>
   <g id="line2d_16">
    <path d="M 343.79527 576.080859 
" clip-path="url(#pe297a89946)" style="fill: none; stroke: #494949; stroke-width: 1.2; stroke-linecap: round"/>
    <g clip-path="url(#pe297a89946)">
     <use xlink:href="#m9d9d71766b" x="343.79527" y="576.080859" style="fill: #ffffff; stroke: #ffffff; stroke-width: 0.9"/>
    </g>
   </g>
   <g id="line2d_17">
    <path d="M 438.408381 607.940098 
L 438.408381 452.537811 
" clip-path="url(#pe297a89946)" style="fill: none; stroke: #494949; stroke-width: 1.5; stroke-linecap: round"/>
   </g>
   <g id="line2d_18">
    <path d="M 438.408381 591.479491 
L 438.408381 534.132861 
" clip-path="url(#pe297a89946)" style="fill: none; stroke: #494949; stroke-width: 4.5; stroke-linecap: round"/>
   </g>
   <g id="line2d_19">
    <path d="M 438.408381 576.080859 
" clip-path="url(#pe297a89946)" style="fill: none; stroke: #494949; stroke-width: 1.2; stroke-linecap: round"/>
    <g clip-path="url(#pe297a89946)">
     <use xlink:href="#m9d9d71766b" x="438.408381" y="576.080859" style="fill: #ffffff; stroke: #ffffff; stroke-width: 0.9"/>
    </g>
   </g>
   <g id="line2d_20">
    <path d="M 533.021493 607.940098 
L 533.021493 452.537811 
" clip-path="url(#pe297a89946)" style="fill: none; stroke: #494949; stroke-width: 1.5; stroke-linecap: round"/>
   </g>
   <g id="line2d_21">
    <path d="M 533.021493 591.479491 
L 533.021493 534.132861 
" clip-path="url(#pe297a89946)" style="fill: none; stroke: #494949; stroke-width: 4.5; stroke-linecap: round"/>
   </g>
   <g id="line2d_22">
    <path d="M 533.021493 576.080859 
" clip-path="url(#pe297a89946)" style="fill: none; stroke: #494949; stroke-width: 1.2; stroke-linecap: round"/>
    <g clip-path="url(#pe297a89946)">
     <use xlink:href="#m9d9d71766b" x="533.021493" y="576.080859" style="fill: #ffffff; stroke: #ffffff; stroke-width: 0.9"/>
    </g>
   </g>
   <g id="line2d_23">
    <path d="M 627.634604 607.940098 
L 627.634604 452.537811 
" clip-path="url(#pe297a89946)" style="fill: none; stroke: #494949; stroke-width: 1.5; stroke-linecap: round"/>
   </g>
   <g id="line2d_24">
    <path d="M 627.634604 591.479491 
L 627.634604 534.132861 
" clip-path="url(#pe297a89946)" style="fill: none; stroke: #494949; stroke-width: 4.5; stroke-linecap: round"/>
   </g>
   <g id="line2d_25">
    <path d="M 627.634604 576.080859 
" clip-path="url(#pe297a89946)" style="fill: none; stroke: #494949; stroke-width: 1.2; stroke-linecap: round"/>
    <g clip-path="url(#pe297a89946)">
     <use xlink:href="#m9d9d71766b" x="627.634604" y="576.080859" style="fill: #ffffff; stroke: #ffffff; stroke-width: 0.9"/>
    </g>
   </g>
   <g id="line2d_26">
    <path d="M 249.182158 292.761497 
L 249.182158 284.754645 
L 343.79527 284.754645 
L 343.79527 292.761497 
" style="fill: none; stroke: #333333; stroke-width: 1.5; stroke-linecap: round"/>
   </g>
   <g id="line2d_27">
    <path d="M 154.569047 262.754095 
L 154.569047 254.747242 
L 343.79527 254.747242 
L 343.79527 262.754095 
" style="fill: none; stroke: #333333; stroke-width: 1.5; stroke-linecap: round"/>
   </g>
   <g id="line2d_28">
    <path d="M 249.182158 232.746692 
L 249.182158 224.73984 
L 438.408381 224.73984 
L 438.408381 232.746692 
" style="fill: none; stroke: #333333; stroke-width: 1.5; stroke-linecap: round"/>
   </g>
   <g id="line2d_29">
    <path d="M 154.569047 202.739289 
L 154.569047 194.732437 
L 438.408381 194.732437 
L 438.408381 202.739289 
" style="fill: none; stroke: #333333; stroke-width: 1.5; stroke-linecap: round"/>
   </g>
   <g id="line2d_30">
    <path d="M 249.182158 172.731887 
L 249.182158 164.725035 
L 533.021493 164.725035 
L 533.021493 172.731887 
" style="fill: none; stroke: #333333; stroke-width: 1.5; stroke-linecap: round"/>
   </g>
   <g id="line2d_31">
    <path d="M 154.569047 142.724484 
L 154.569047 134.717632 
L 533.021493 134.717632 
L 533.021493 142.724484 
" style="fill: none; stroke: #333333; stroke-width: 1.5; stroke-linecap: round"/>
   </g>
   <g id="line2d_32">
    <path d="M 249.182158 112.717082 
L 249.182158 104.710229 
L 627.634604 104.710229 
L 627.634604 112.717082 
" style="fill: none; stroke: #333333; stroke-width: 1.5; stroke-linecap: round"/>
   </g>
   <g id="line2d_33">
    <path d="M 154.569047 82.709679 
L 154.569047 74.702827 
L 627.634604 74.702827 
L 627.634604 82.709679 
" style="fill: none; stroke: #333333; stroke-width: 1.5; stroke-linecap: round"/>
   </g>
   <g id="patch_3">
    <path d="M 89.286 645.866348 
L 89.286 40.416 
" style="fill: none; stroke: #cccccc; stroke-linejoin: miter; stroke-linecap: square"/>
   </g>
   <g id="patch_4">
    <path d="M 692.917651 645.866348 
L 692.917651 40.416 
" style="fill: none; stroke: #cccccc; stroke-linejoin: miter; stroke-linecap: square"/>
   </g>
   <g id="patch_5">
    <path d="M 89.286 645.866348 
L 692.917651 645.866348 
" style="fill: none; stroke: #cccccc; stroke-linejoin: miter; stroke-linecap: square"/>
   </g>
   <g id="patch_6">
    <path d="M 89.286 40.416 
L 692.917651 40.416 
" style="fill: none; stroke: #cccccc; stroke-linejoin: miter; stroke-linecap: square"/>
   </g>
   <g id="text_16">
    <!-- **** -->
    <g style="fill: #262626" transform="translate(281.542714 279.938645) scale(0.192 -0.192)">
     <defs>
      <path id="ArialMT-2a" d="M 200 3741 
L 344 4184 
Q 841 4009 1066 3881 
Q 1006 4447 1003 4659 
L 1456 4659 
Q 1447 4350 1384 3884 
Q 1706 4047 2122 4184 
L 2266 3741 
Q 1869 3609 1488 3566 
Q 1678 3400 2025 2975 
L 1650 2709 
Q 1469 2956 1222 3381 
Q 991 2941 816 2709 
L 447 2975 
Q 809 3422 966 3566 
Q 563 3644 200 3741 
z
" transform="scale(0.015625)"/>
     </defs>
     <use xlink:href="#ArialMT-2a"/>
     <use xlink:href="#ArialMT-2a" transform="translate(38.916016 0)"/>
     <use xlink:href="#ArialMT-2a" transform="translate(77.832031 0)"/>
     <use xlink:href="#ArialMT-2a" transform="translate(116.748047 0)"/>
    </g>
   </g>
   <g id="text_17">
    <!-- **** -->
    <g style="fill: #262626" transform="translate(234.236158 249.931242) scale(0.192 -0.192)">
     <use xlink:href="#ArialMT-2a"/>
     <use xlink:href="#ArialMT-2a" transform="translate(38.916016 0)"/>
     <use xlink:href="#ArialMT-2a" transform="translate(77.832031 0)"/>
     <use xlink:href="#ArialMT-2a" transform="translate(116.748047 0)"/>
    </g>
   </g>
   <g id="text_18">
    <!-- **** -->
    <g style="fill: #262626" transform="translate(328.84927 219.92384) scale(0.192 -0.192)">
     <use xlink:href="#ArialMT-2a"/>
     <use xlink:href="#ArialMT-2a" transform="translate(38.916016 0)"/>
     <use xlink:href="#ArialMT-2a" transform="translate(77.832031 0)"/>
     <use xlink:href="#ArialMT-2a" transform="translate(116.748047 0)"/>
    </g>
   </g>
   <g id="text_19">
    <!-- **** -->
    <g style="fill: #262626" transform="translate(281.542714 189.916437) scale(0.192 -0.192)">
     <use xlink:href="#ArialMT-2a"/>
     <use xlink:href="#ArialMT-2a" transform="translate(38.916016 0)"/>
     <use xlink:href="#ArialMT-2a" transform="translate(77.832031 0)"/>
     <use xlink:href="#ArialMT-2a" transform="translate(116.748047 0)"/>
    </g>
   </g>
   <g id="text_20">
    <!-- **** -->
    <g style="fill: #262626" transform="translate(376.155825 159.909035) scale(0.192 -0.192)">
     <use xlink:href="#ArialMT-2a"/>
     <use xlink:href="#ArialMT-2a" transform="translate(38.916016 0)"/>
     <use xlink:href="#ArialMT-2a" transform="translate(77.832031 0)"/>
     <use xlink:href="#ArialMT-2a" transform="translate(116.748047 0)"/>
    </g>
   </g>
   <g id="text_21">
    <!-- **** -->
    <g style="fill: #262626" transform="translate(328.84927 129.901632) scale(0.192 -0.192)">
     <use xlink:href="#ArialMT-2a"/>
     <use xlink:href="#ArialMT-2a" transform="translate(38.916016 0)"/>
     <use xlink:href="#ArialMT-2a" transform="translate(77.832031 0)"/>
     <use xlink:href="#ArialMT-2a" transform="translate(116.748047 0)"/>
    </g>
   </g>
   <g id="text_22">
    <!-- **** -->
    <g style="fill: #262626" transform="translate(423.462381 99.894229) scale(0.192 -0.192)">
     <use xlink:href="#ArialMT-2a"/>
     <use xlink:href="#ArialMT-2a" transform="translate(38.916016 0)"/>
     <use xlink:href="#ArialMT-2a" transform="translate(77.832031 0)"/>
     <use xlink:href="#ArialMT-2a" transform="translate(116.748047 0)"/>
    </g>
   </g>
   <g id="text_23">
    <!-- **** -->
    <g style="fill: #262626" transform="translate(376.155825 69.886827) scale(0.192 -0.192)">
     <use xlink:href="#ArialMT-2a"/>
     <use xlink:href="#ArialMT-2a" transform="translate(38.916016 0)"/>
     <use xlink:href="#ArialMT-2a" transform="translate(77.832031 0)"/>
     <use xlink:href="#ArialMT-2a" transform="translate(116.748047 0)"/>
    </g>
   </g>
   <g id="text_24">
    <!-- Ranked Number of Train Compounds per Fold per Target -->
    <g style="fill: #262626" transform="translate(148.502325 34.416) scale(0.192 -0.192)">
     <defs>
      <path id="ArialMT-6b" d="M 425 0 
L 425 4581 
L 988 4581 
L 988 1969 
L 2319 3319 
L 3047 3319 
L 1778 2088 
L 3175 0 
L 2481 0 
L 1384 1697 
L 988 1316 
L 988 0 
L 425 0 
z
" transform="scale(0.015625)"/>
      <path id="ArialMT-4e" d="M 488 0 
L 488 4581 
L 1109 4581 
L 3516 984 
L 3516 4581 
L 4097 4581 
L 4097 0 
L 3475 0 
L 1069 3600 
L 1069 0 
L 488 0 
z
" transform="scale(0.015625)"/>
      <path id="ArialMT-54" d="M 1659 0 
L 1659 4041 
L 150 4041 
L 150 4581 
L 3781 4581 
L 3781 4041 
L 2266 4041 
L 2266 0 
L 1659 0 
z
" transform="scale(0.015625)"/>
     </defs>
     <use xlink:href="#ArialMT-52"/>
     <use xlink:href="#ArialMT-61" transform="translate(72.216797 0)"/>
     <use xlink:href="#ArialMT-6e" transform="translate(127.832031 0)"/>
     <use xlink:href="#ArialMT-6b" transform="translate(183.447266 0)"/>
     <use xlink:href="#ArialMT-65" transform="translate(233.447266 0)"/>
     <use xlink:href="#ArialMT-64" transform="translate(289.0625 0)"/>
     <use xlink:href="#ArialMT-20" transform="translate(344.677734 0)"/>
     <use xlink:href="#ArialMT-4e" transform="translate(372.460938 0)"/>
     <use xlink:href="#ArialMT-75" transform="translate(444.677734 0)"/>
     <use xlink:href="#ArialMT-6d" transform="translate(500.292969 0)"/>
     <use xlink:href="#ArialMT-62" transform="translate(583.59375 0)"/>
     <use xlink:href="#ArialMT-65" transform="translate(639.208984 0)"/>
     <use xlink:href="#ArialMT-72" transform="translate(694.824219 0)"/>
     <use xlink:href="#ArialMT-20" transform="translate(728.125 0)"/>
     <use xlink:href="#ArialMT-6f" transform="translate(755.908203 0)"/>
     <use xlink:href="#ArialMT-66" transform="translate(811.523438 0)"/>
     <use xlink:href="#ArialMT-20" transform="translate(839.306641 0)"/>
     <use xlink:href="#ArialMT-54" transform="translate(865.339844 0)"/>
     <use xlink:href="#ArialMT-72" transform="translate(922.673828 0)"/>
     <use xlink:href="#ArialMT-61" transform="translate(955.974609 0)"/>
     <use xlink:href="#ArialMT-69" transform="translate(1011.589844 0)"/>
     <use xlink:href="#ArialMT-6e" transform="translate(1033.806641 0)"/>
     <use xlink:href="#ArialMT-20" transform="translate(1089.421875 0)"/>
     <use xlink:href="#ArialMT-43" transform="translate(1117.205078 0)"/>
     <use xlink:href="#ArialMT-6f" transform="translate(1189.421875 0)"/>
     <use xlink:href="#ArialMT-6d" transform="translate(1245.037109 0)"/>
     <use xlink:href="#ArialMT-70" transform="translate(1328.337891 0)"/>
     <use xlink:href="#ArialMT-6f" transform="translate(1383.953125 0)"/>
     <use xlink:href="#ArialMT-75" transform="translate(1439.568359 0)"/>
     <use xlink:href="#ArialMT-6e" transform="translate(1495.183594 0)"/>
     <use xlink:href="#ArialMT-64" transform="translate(1550.798828 0)"/>
     <use xlink:href="#ArialMT-73" transform="translate(1606.414062 0)"/>
     <use xlink:href="#ArialMT-20" transform="translate(1656.414062 0)"/>
     <use xlink:href="#ArialMT-70" transform="translate(1684.197266 0)"/>
     <use xlink:href="#ArialMT-65" transform="translate(1739.8125 0)"/>
     <use xlink:href="#ArialMT-72" transform="translate(1795.427734 0)"/>
     <use xlink:href="#ArialMT-20" transform="translate(1828.728516 0)"/>
     <use xlink:href="#ArialMT-46" transform="translate(1856.511719 0)"/>
     <use xlink:href="#ArialMT-6f" transform="translate(1917.595703 0)"/>
     <use xlink:href="#ArialMT-6c" transform="translate(1973.210938 0)"/>
     <use xlink:href="#ArialMT-64" transform="translate(1995.427734 0)"/>
     <use xlink:href="#ArialMT-20" transform="translate(2051.042969 0)"/>
     <use xlink:href="#ArialMT-70" transform="translate(2078.826172 0)"/>
     <use xlink:href="#ArialMT-65" transform="translate(2134.441406 0)"/>
     <use xlink:href="#ArialMT-72" transform="translate(2190.056641 0)"/>
     <use xlink:href="#ArialMT-20" transform="translate(2223.357422 0)"/>
     <use xlink:href="#ArialMT-54" transform="translate(2249.390625 0)"/>
     <use xlink:href="#ArialMT-61" transform="translate(2299.349609 0)"/>
     <use xlink:href="#ArialMT-72" transform="translate(2354.964844 0)"/>
     <use xlink:href="#ArialMT-67" transform="translate(2388.265625 0)"/>
     <use xlink:href="#ArialMT-65" transform="translate(2443.880859 0)"/>
     <use xlink:href="#ArialMT-74" transform="translate(2499.496094 0)"/>
    </g>
   </g>
  </g>
 </g>
 <defs>
  <clipPath id="pe297a89946">
   <rect x="89.286" y="40.416" width="603.631651" height="605.450348"/>
  </clipPath>
 </defs>
</svg>
