<?xml version="1.0" encoding="utf-8" standalone="no"?>
<!DOCTYPE svg PUBLIC "-//W3C//DTD SVG 1.1//EN"
  "http://www.w3.org/Graphics/SVG/1.1/DTD/svg11.dtd">
<svg xmlns:xlink="http://www.w3.org/1999/xlink" width="720pt" height="864pt" viewBox="0 0 720 864" xmlns="http://www.w3.org/2000/svg" version="1.1">
 <metadata>
  <rdf:RDF xmlns:dc="http://purl.org/dc/elements/1.1/" xmlns:cc="http://creativecommons.org/ns#" xmlns:rdf="http://www.w3.org/1999/02/22-rdf-syntax-ns#">
   <cc:Work>
    <dc:type rdf:resource="http://purl.org/dc/dcmitype/StillImage"/>
    <dc:date>2025-02-25T23:42:51.438964</dc:date>
    <dc:format>image/svg+xml</dc:format>
    <dc:creator>
     <cc:Agent>
      <dc:title>Matplotlib v3.10.0, https://matplotlib.org/</dc:title>
     </cc:Agent>
    </dc:creator>
   </cc:Work>
  </rdf:RDF>
 </metadata>
 <defs>
  <style type="text/css">*{stroke-linejoin: round; stroke-linecap: butt}</style>
 </defs>
 <g id="figure_1">
  <g id="patch_1">
   <path d="M 0 864 
L 720 864 
L 720 0 
L 0 0 
z
" style="fill: #ffffff"/>
  </g>
  <g id="axes_1">
   <g id="patch_2">
    <path d="M 79.566 645.866348 
L 692.917651 645.866348 
L 692.917651 40.416 
L 79.566 40.416 
z
" style="fill: #ffffff"/>
   </g>
   <g id="matplotlib.axis_1">
    <g id="xtick_1">
     <g id="text_1">
      <!-- RandomSplit -->
      <g style="fill: #262626" transform="translate(113.570287 734.472111) rotate(-45) scale(0.176 -0.176)">
       <defs>
        <path id="ArialMT-52" d="M 503 0 
L 503 4581 
L 2534 4581 
Q 3147 4581 3465 4457 
Q 3784 4334 3975 4021 
Q 4166 3709 4166 3331 
Q 4166 2844 3850 2509 
Q 3534 2175 2875 2084 
Q 3116 1969 3241 1856 
Q 3506 1613 3744 1247 
L 4541 0 
L 3778 0 
L 3172 953 
Q 2906 1366 2734 1584 
Q 2563 1803 2427 1890 
Q 2291 1978 2150 2013 
Q 2047 2034 1813 2034 
L 1109 2034 
L 1109 0 
L 503 0 
z
M 1109 2559 
L 2413 2559 
Q 2828 2559 3062 2645 
Q 3297 2731 3419 2920 
Q 3541 3109 3541 3331 
Q 3541 3656 3305 3865 
Q 3069 4075 2559 4075 
L 1109 4075 
L 1109 2559 
z
" transform="scale(0.015625)"/>
        <path id="ArialMT-61" d="M 2588 409 
Q 2275 144 1986 34 
Q 1697 -75 1366 -75 
Q 819 -75 525 192 
Q 231 459 231 875 
Q 231 1119 342 1320 
Q 453 1522 633 1644 
Q 813 1766 1038 1828 
Q 1203 1872 1538 1913 
Q 2219 1994 2541 2106 
Q 2544 2222 2544 2253 
Q 2544 2597 2384 2738 
Q 2169 2928 1744 2928 
Q 1347 2928 1158 2789 
Q 969 2650 878 2297 
L 328 2372 
Q 403 2725 575 2942 
Q 747 3159 1072 3276 
Q 1397 3394 1825 3394 
Q 2250 3394 2515 3294 
Q 2781 3194 2906 3042 
Q 3031 2891 3081 2659 
Q 3109 2516 3109 2141 
L 3109 1391 
Q 3109 606 3145 398 
Q 3181 191 3288 0 
L 2700 0 
Q 2613 175 2588 409 
z
M 2541 1666 
Q 2234 1541 1622 1453 
Q 1275 1403 1131 1340 
Q 988 1278 909 1158 
Q 831 1038 831 891 
Q 831 666 1001 516 
Q 1172 366 1500 366 
Q 1825 366 2078 508 
Q 2331 650 2450 897 
Q 2541 1088 2541 1459 
L 2541 1666 
z
" transform="scale(0.015625)"/>
        <path id="ArialMT-6e" d="M 422 0 
L 422 3319 
L 928 3319 
L 928 2847 
Q 1294 3394 1984 3394 
Q 2284 3394 2536 3286 
Q 2788 3178 2913 3003 
Q 3038 2828 3088 2588 
Q 3119 2431 3119 2041 
L 3119 0 
L 2556 0 
L 2556 2019 
Q 2556 2363 2490 2533 
Q 2425 2703 2258 2804 
Q 2091 2906 1866 2906 
Q 1506 2906 1245 2678 
Q 984 2450 984 1813 
L 984 0 
L 422 0 
z
" transform="scale(0.015625)"/>
        <path id="ArialMT-64" d="M 2575 0 
L 2575 419 
Q 2259 -75 1647 -75 
Q 1250 -75 917 144 
Q 584 363 401 755 
Q 219 1147 219 1656 
Q 219 2153 384 2558 
Q 550 2963 881 3178 
Q 1213 3394 1622 3394 
Q 1922 3394 2156 3267 
Q 2391 3141 2538 2938 
L 2538 4581 
L 3097 4581 
L 3097 0 
L 2575 0 
z
M 797 1656 
Q 797 1019 1065 703 
Q 1334 388 1700 388 
Q 2069 388 2326 689 
Q 2584 991 2584 1609 
Q 2584 2291 2321 2609 
Q 2059 2928 1675 2928 
Q 1300 2928 1048 2622 
Q 797 2316 797 1656 
z
" transform="scale(0.015625)"/>
        <path id="ArialMT-6f" d="M 213 1659 
Q 213 2581 725 3025 
Q 1153 3394 1769 3394 
Q 2453 3394 2887 2945 
Q 3322 2497 3322 1706 
Q 3322 1066 3130 698 
Q 2938 331 2570 128 
Q 2203 -75 1769 -75 
Q 1072 -75 642 372 
Q 213 819 213 1659 
z
M 791 1659 
Q 791 1022 1069 705 
Q 1347 388 1769 388 
Q 2188 388 2466 706 
Q 2744 1025 2744 1678 
Q 2744 2294 2464 2611 
Q 2184 2928 1769 2928 
Q 1347 2928 1069 2612 
Q 791 2297 791 1659 
z
" transform="scale(0.015625)"/>
        <path id="ArialMT-6d" d="M 422 0 
L 422 3319 
L 925 3319 
L 925 2853 
Q 1081 3097 1340 3245 
Q 1600 3394 1931 3394 
Q 2300 3394 2536 3241 
Q 2772 3088 2869 2813 
Q 3263 3394 3894 3394 
Q 4388 3394 4653 3120 
Q 4919 2847 4919 2278 
L 4919 0 
L 4359 0 
L 4359 2091 
Q 4359 2428 4304 2576 
Q 4250 2725 4106 2815 
Q 3963 2906 3769 2906 
Q 3419 2906 3187 2673 
Q 2956 2441 2956 1928 
L 2956 0 
L 2394 0 
L 2394 2156 
Q 2394 2531 2256 2718 
Q 2119 2906 1806 2906 
Q 1569 2906 1367 2781 
Q 1166 2656 1075 2415 
Q 984 2175 984 1722 
L 984 0 
L 422 0 
z
" transform="scale(0.015625)"/>
        <path id="ArialMT-53" d="M 288 1472 
L 859 1522 
Q 900 1178 1048 958 
Q 1197 738 1509 602 
Q 1822 466 2213 466 
Q 2559 466 2825 569 
Q 3091 672 3220 851 
Q 3350 1031 3350 1244 
Q 3350 1459 3225 1620 
Q 3100 1781 2813 1891 
Q 2628 1963 1997 2114 
Q 1366 2266 1113 2400 
Q 784 2572 623 2826 
Q 463 3081 463 3397 
Q 463 3744 659 4045 
Q 856 4347 1234 4503 
Q 1613 4659 2075 4659 
Q 2584 4659 2973 4495 
Q 3363 4331 3572 4012 
Q 3781 3694 3797 3291 
L 3216 3247 
Q 3169 3681 2898 3903 
Q 2628 4125 2100 4125 
Q 1550 4125 1298 3923 
Q 1047 3722 1047 3438 
Q 1047 3191 1225 3031 
Q 1400 2872 2139 2705 
Q 2878 2538 3153 2413 
Q 3553 2228 3743 1945 
Q 3934 1663 3934 1294 
Q 3934 928 3725 604 
Q 3516 281 3123 101 
Q 2731 -78 2241 -78 
Q 1619 -78 1198 103 
Q 778 284 539 648 
Q 300 1013 288 1472 
z
" transform="scale(0.015625)"/>
        <path id="ArialMT-70" d="M 422 -1272 
L 422 3319 
L 934 3319 
L 934 2888 
Q 1116 3141 1344 3267 
Q 1572 3394 1897 3394 
Q 2322 3394 2647 3175 
Q 2972 2956 3137 2557 
Q 3303 2159 3303 1684 
Q 3303 1175 3120 767 
Q 2938 359 2589 142 
Q 2241 -75 1856 -75 
Q 1575 -75 1351 44 
Q 1128 163 984 344 
L 984 -1272 
L 422 -1272 
z
M 931 1641 
Q 931 1000 1190 694 
Q 1450 388 1819 388 
Q 2194 388 2461 705 
Q 2728 1022 2728 1688 
Q 2728 2322 2467 2637 
Q 2206 2953 1844 2953 
Q 1484 2953 1207 2617 
Q 931 2281 931 1641 
z
" transform="scale(0.015625)"/>
        <path id="ArialMT-6c" d="M 409 0 
L 409 4581 
L 972 4581 
L 972 0 
L 409 0 
z
" transform="scale(0.015625)"/>
        <path id="ArialMT-69" d="M 425 3934 
L 425 4581 
L 988 4581 
L 988 3934 
L 425 3934 
z
M 425 0 
L 425 3319 
L 988 3319 
L 988 0 
L 425 0 
z
" transform="scale(0.015625)"/>
        <path id="ArialMT-74" d="M 1650 503 
L 1731 6 
Q 1494 -44 1306 -44 
Q 1000 -44 831 53 
Q 663 150 594 308 
Q 525 466 525 972 
L 525 2881 
L 113 2881 
L 113 3319 
L 525 3319 
L 525 4141 
L 1084 4478 
L 1084 3319 
L 1650 3319 
L 1650 2881 
L 1084 2881 
L 1084 941 
Q 1084 700 1114 631 
Q 1144 563 1211 522 
Q 1278 481 1403 481 
Q 1497 481 1650 503 
z
" transform="scale(0.015625)"/>
       </defs>
       <use xlink:href="#ArialMT-52"/>
       <use xlink:href="#ArialMT-61" transform="translate(72.216797 0)"/>
       <use xlink:href="#ArialMT-6e" transform="translate(127.832031 0)"/>
       <use xlink:href="#ArialMT-64" transform="translate(183.447266 0)"/>
       <use xlink:href="#ArialMT-6f" transform="translate(239.0625 0)"/>
       <use xlink:href="#ArialMT-6d" transform="translate(294.677734 0)"/>
       <use xlink:href="#ArialMT-53" transform="translate(377.978516 0)"/>
       <use xlink:href="#ArialMT-70" transform="translate(444.677734 0)"/>
       <use xlink:href="#ArialMT-6c" transform="translate(500.292969 0)"/>
       <use xlink:href="#ArialMT-69" transform="translate(522.509766 0)"/>
       <use xlink:href="#ArialMT-74" transform="translate(544.726562 0)"/>
      </g>
     </g>
    </g>
    <g id="xtick_2">
     <g id="text_2">
      <!-- ScaffoldSplit -->
      <g style="fill: #262626" transform="translate(210.851273 732.183383) rotate(-45) scale(0.176 -0.176)">
       <defs>
        <path id="ArialMT-63" d="M 2588 1216 
L 3141 1144 
Q 3050 572 2676 248 
Q 2303 -75 1759 -75 
Q 1078 -75 664 370 
Q 250 816 250 1647 
Q 250 2184 428 2587 
Q 606 2991 970 3192 
Q 1334 3394 1763 3394 
Q 2303 3394 2647 3120 
Q 2991 2847 3088 2344 
L 2541 2259 
Q 2463 2594 2264 2762 
Q 2066 2931 1784 2931 
Q 1359 2931 1093 2626 
Q 828 2322 828 1663 
Q 828 994 1084 691 
Q 1341 388 1753 388 
Q 2084 388 2306 591 
Q 2528 794 2588 1216 
z
" transform="scale(0.015625)"/>
        <path id="ArialMT-66" d="M 556 0 
L 556 2881 
L 59 2881 
L 59 3319 
L 556 3319 
L 556 3672 
Q 556 4006 616 4169 
Q 697 4388 901 4523 
Q 1106 4659 1475 4659 
Q 1713 4659 2000 4603 
L 1916 4113 
Q 1741 4144 1584 4144 
Q 1328 4144 1222 4034 
Q 1116 3925 1116 3625 
L 1116 3319 
L 1763 3319 
L 1763 2881 
L 1116 2881 
L 1116 0 
L 556 0 
z
" transform="scale(0.015625)"/>
       </defs>
       <use xlink:href="#ArialMT-53"/>
       <use xlink:href="#ArialMT-63" transform="translate(66.699219 0)"/>
       <use xlink:href="#ArialMT-61" transform="translate(116.699219 0)"/>
       <use xlink:href="#ArialMT-66" transform="translate(172.314453 0)"/>
       <use xlink:href="#ArialMT-66" transform="translate(198.347656 0)"/>
       <use xlink:href="#ArialMT-6f" transform="translate(226.130859 0)"/>
       <use xlink:href="#ArialMT-6c" transform="translate(281.746094 0)"/>
       <use xlink:href="#ArialMT-64" transform="translate(303.962891 0)"/>
       <use xlink:href="#ArialMT-53" transform="translate(359.578125 0)"/>
       <use xlink:href="#ArialMT-70" transform="translate(426.277344 0)"/>
       <use xlink:href="#ArialMT-6c" transform="translate(481.892578 0)"/>
       <use xlink:href="#ArialMT-69" transform="translate(504.109375 0)"/>
       <use xlink:href="#ArialMT-74" transform="translate(526.326172 0)"/>
      </g>
     </g>
    </g>
    <g id="xtick_3">
     <g id="text_3">
      <!-- SortedStepForward_LogD -->
      <g style="fill: #262626" transform="translate(269.107213 807.798908) rotate(-45) scale(0.176 -0.176)">
       <defs>
        <path id="ArialMT-72" d="M 416 0 
L 416 3319 
L 922 3319 
L 922 2816 
Q 1116 3169 1280 3281 
Q 1444 3394 1641 3394 
Q 1925 3394 2219 3213 
L 2025 2691 
Q 1819 2813 1613 2813 
Q 1428 2813 1281 2702 
Q 1134 2591 1072 2394 
Q 978 2094 978 1738 
L 978 0 
L 416 0 
z
" transform="scale(0.015625)"/>
        <path id="ArialMT-65" d="M 2694 1069 
L 3275 997 
Q 3138 488 2766 206 
Q 2394 -75 1816 -75 
Q 1088 -75 661 373 
Q 234 822 234 1631 
Q 234 2469 665 2931 
Q 1097 3394 1784 3394 
Q 2450 3394 2872 2941 
Q 3294 2488 3294 1666 
Q 3294 1616 3291 1516 
L 816 1516 
Q 847 969 1125 678 
Q 1403 388 1819 388 
Q 2128 388 2347 550 
Q 2566 713 2694 1069 
z
M 847 1978 
L 2700 1978 
Q 2663 2397 2488 2606 
Q 2219 2931 1791 2931 
Q 1403 2931 1139 2672 
Q 875 2413 847 1978 
z
" transform="scale(0.015625)"/>
        <path id="ArialMT-46" d="M 525 0 
L 525 4581 
L 3616 4581 
L 3616 4041 
L 1131 4041 
L 1131 2622 
L 3281 2622 
L 3281 2081 
L 1131 2081 
L 1131 0 
L 525 0 
z
" transform="scale(0.015625)"/>
        <path id="ArialMT-77" d="M 1034 0 
L 19 3319 
L 600 3319 
L 1128 1403 
L 1325 691 
Q 1338 744 1497 1375 
L 2025 3319 
L 2603 3319 
L 3100 1394 
L 3266 759 
L 3456 1400 
L 4025 3319 
L 4572 3319 
L 3534 0 
L 2950 0 
L 2422 1988 
L 2294 2553 
L 1622 0 
L 1034 0 
z
" transform="scale(0.015625)"/>
        <path id="ArialMT-5f" d="M -97 -1272 
L -97 -866 
L 3631 -866 
L 3631 -1272 
L -97 -1272 
z
" transform="scale(0.015625)"/>
        <path id="ArialMT-4c" d="M 469 0 
L 469 4581 
L 1075 4581 
L 1075 541 
L 3331 541 
L 3331 0 
L 469 0 
z
" transform="scale(0.015625)"/>
        <path id="ArialMT-67" d="M 319 -275 
L 866 -356 
Q 900 -609 1056 -725 
Q 1266 -881 1628 -881 
Q 2019 -881 2231 -725 
Q 2444 -569 2519 -288 
Q 2563 -116 2559 434 
Q 2191 0 1641 0 
Q 956 0 581 494 
Q 206 988 206 1678 
Q 206 2153 378 2554 
Q 550 2956 876 3175 
Q 1203 3394 1644 3394 
Q 2231 3394 2613 2919 
L 2613 3319 
L 3131 3319 
L 3131 450 
Q 3131 -325 2973 -648 
Q 2816 -972 2473 -1159 
Q 2131 -1347 1631 -1347 
Q 1038 -1347 672 -1080 
Q 306 -813 319 -275 
z
M 784 1719 
Q 784 1066 1043 766 
Q 1303 466 1694 466 
Q 2081 466 2343 764 
Q 2606 1063 2606 1700 
Q 2606 2309 2336 2618 
Q 2066 2928 1684 2928 
Q 1309 2928 1046 2623 
Q 784 2319 784 1719 
z
" transform="scale(0.015625)"/>
        <path id="ArialMT-44" d="M 494 0 
L 494 4581 
L 2072 4581 
Q 2606 4581 2888 4516 
Q 3281 4425 3559 4188 
Q 3922 3881 4101 3404 
Q 4281 2928 4281 2316 
Q 4281 1794 4159 1391 
Q 4038 988 3847 723 
Q 3656 459 3429 307 
Q 3203 156 2883 78 
Q 2563 0 2147 0 
L 494 0 
z
M 1100 541 
L 2078 541 
Q 2531 541 2789 625 
Q 3047 709 3200 863 
Q 3416 1078 3536 1442 
Q 3656 1806 3656 2325 
Q 3656 3044 3420 3430 
Q 3184 3816 2847 3947 
Q 2603 4041 2063 4041 
L 1100 4041 
L 1100 541 
z
" transform="scale(0.015625)"/>
       </defs>
       <use xlink:href="#ArialMT-53"/>
       <use xlink:href="#ArialMT-6f" transform="translate(66.699219 0)"/>
       <use xlink:href="#ArialMT-72" transform="translate(122.314453 0)"/>
       <use xlink:href="#ArialMT-74" transform="translate(155.615234 0)"/>
       <use xlink:href="#ArialMT-65" transform="translate(183.398438 0)"/>
       <use xlink:href="#ArialMT-64" transform="translate(239.013672 0)"/>
       <use xlink:href="#ArialMT-53" transform="translate(294.628906 0)"/>
       <use xlink:href="#ArialMT-74" transform="translate(361.328125 0)"/>
       <use xlink:href="#ArialMT-65" transform="translate(389.111328 0)"/>
       <use xlink:href="#ArialMT-70" transform="translate(444.726562 0)"/>
       <use xlink:href="#ArialMT-46" transform="translate(500.341797 0)"/>
       <use xlink:href="#ArialMT-6f" transform="translate(561.425781 0)"/>
       <use xlink:href="#ArialMT-72" transform="translate(617.041016 0)"/>
       <use xlink:href="#ArialMT-77" transform="translate(650.341797 0)"/>
       <use xlink:href="#ArialMT-61" transform="translate(722.558594 0)"/>
       <use xlink:href="#ArialMT-72" transform="translate(778.173828 0)"/>
       <use xlink:href="#ArialMT-64" transform="translate(811.474609 0)"/>
       <use xlink:href="#ArialMT-5f" transform="translate(867.089844 0)"/>
       <use xlink:href="#ArialMT-4c" transform="translate(922.705078 0)"/>
       <use xlink:href="#ArialMT-6f" transform="translate(978.320312 0)"/>
       <use xlink:href="#ArialMT-67" transform="translate(1033.935547 0)"/>
       <use xlink:href="#ArialMT-44" transform="translate(1089.550781 0)"/>
      </g>
     </g>
    </g>
    <g id="xtick_4">
     <g id="text_4">
      <!-- SortedStepForward_LogP -->
      <g style="fill: #262626" transform="translate(365.587047 807.112484) rotate(-45) scale(0.176 -0.176)">
       <defs>
        <path id="ArialMT-50" d="M 494 0 
L 494 4581 
L 2222 4581 
Q 2678 4581 2919 4538 
Q 3256 4481 3484 4323 
Q 3713 4166 3852 3881 
Q 3991 3597 3991 3256 
Q 3991 2672 3619 2267 
Q 3247 1863 2275 1863 
L 1100 1863 
L 1100 0 
L 494 0 
z
M 1100 2403 
L 2284 2403 
Q 2872 2403 3119 2622 
Q 3366 2841 3366 3238 
Q 3366 3525 3220 3729 
Q 3075 3934 2838 4000 
Q 2684 4041 2272 4041 
L 1100 4041 
L 1100 2403 
z
" transform="scale(0.015625)"/>
       </defs>
       <use xlink:href="#ArialMT-53"/>
       <use xlink:href="#ArialMT-6f" transform="translate(66.699219 0)"/>
       <use xlink:href="#ArialMT-72" transform="translate(122.314453 0)"/>
       <use xlink:href="#ArialMT-74" transform="translate(155.615234 0)"/>
       <use xlink:href="#ArialMT-65" transform="translate(183.398438 0)"/>
       <use xlink:href="#ArialMT-64" transform="translate(239.013672 0)"/>
       <use xlink:href="#ArialMT-53" transform="translate(294.628906 0)"/>
       <use xlink:href="#ArialMT-74" transform="translate(361.328125 0)"/>
       <use xlink:href="#ArialMT-65" transform="translate(389.111328 0)"/>
       <use xlink:href="#ArialMT-70" transform="translate(444.726562 0)"/>
       <use xlink:href="#ArialMT-46" transform="translate(500.341797 0)"/>
       <use xlink:href="#ArialMT-6f" transform="translate(561.425781 0)"/>
       <use xlink:href="#ArialMT-72" transform="translate(617.041016 0)"/>
       <use xlink:href="#ArialMT-77" transform="translate(650.341797 0)"/>
       <use xlink:href="#ArialMT-61" transform="translate(722.558594 0)"/>
       <use xlink:href="#ArialMT-72" transform="translate(778.173828 0)"/>
       <use xlink:href="#ArialMT-64" transform="translate(811.474609 0)"/>
       <use xlink:href="#ArialMT-5f" transform="translate(867.089844 0)"/>
       <use xlink:href="#ArialMT-4c" transform="translate(922.705078 0)"/>
       <use xlink:href="#ArialMT-6f" transform="translate(978.320312 0)"/>
       <use xlink:href="#ArialMT-67" transform="translate(1033.935547 0)"/>
       <use xlink:href="#ArialMT-50" transform="translate(1089.550781 0)"/>
      </g>
     </g>
    </g>
    <g id="xtick_5">
     <g id="text_5">
      <!-- SortedStepForward_MCE18 -->
      <g style="fill: #262626" transform="translate(455.579884 819.545896) rotate(-45) scale(0.176 -0.176)">
       <defs>
        <path id="ArialMT-4d" d="M 475 0 
L 475 4581 
L 1388 4581 
L 2472 1338 
Q 2622 884 2691 659 
Q 2769 909 2934 1394 
L 4031 4581 
L 4847 4581 
L 4847 0 
L 4263 0 
L 4263 3834 
L 2931 0 
L 2384 0 
L 1059 3900 
L 1059 0 
L 475 0 
z
" transform="scale(0.015625)"/>
        <path id="ArialMT-43" d="M 3763 1606 
L 4369 1453 
Q 4178 706 3683 314 
Q 3188 -78 2472 -78 
Q 1731 -78 1267 223 
Q 803 525 561 1097 
Q 319 1669 319 2325 
Q 319 3041 592 3573 
Q 866 4106 1370 4382 
Q 1875 4659 2481 4659 
Q 3169 4659 3637 4309 
Q 4106 3959 4291 3325 
L 3694 3184 
Q 3534 3684 3231 3912 
Q 2928 4141 2469 4141 
Q 1941 4141 1586 3887 
Q 1231 3634 1087 3207 
Q 944 2781 944 2328 
Q 944 1744 1114 1308 
Q 1284 872 1643 656 
Q 2003 441 2422 441 
Q 2931 441 3284 734 
Q 3638 1028 3763 1606 
z
" transform="scale(0.015625)"/>
        <path id="ArialMT-45" d="M 506 0 
L 506 4581 
L 3819 4581 
L 3819 4041 
L 1113 4041 
L 1113 2638 
L 3647 2638 
L 3647 2100 
L 1113 2100 
L 1113 541 
L 3925 541 
L 3925 0 
L 506 0 
z
" transform="scale(0.015625)"/>
        <path id="ArialMT-31" d="M 2384 0 
L 1822 0 
L 1822 3584 
Q 1619 3391 1289 3197 
Q 959 3003 697 2906 
L 697 3450 
Q 1169 3672 1522 3987 
Q 1875 4303 2022 4600 
L 2384 4600 
L 2384 0 
z
" transform="scale(0.015625)"/>
        <path id="ArialMT-38" d="M 1131 2484 
Q 781 2613 612 2850 
Q 444 3088 444 3419 
Q 444 3919 803 4259 
Q 1163 4600 1759 4600 
Q 2359 4600 2725 4251 
Q 3091 3903 3091 3403 
Q 3091 3084 2923 2848 
Q 2756 2613 2416 2484 
Q 2838 2347 3058 2040 
Q 3278 1734 3278 1309 
Q 3278 722 2862 322 
Q 2447 -78 1769 -78 
Q 1091 -78 675 323 
Q 259 725 259 1325 
Q 259 1772 486 2073 
Q 713 2375 1131 2484 
z
M 1019 3438 
Q 1019 3113 1228 2906 
Q 1438 2700 1772 2700 
Q 2097 2700 2305 2904 
Q 2513 3109 2513 3406 
Q 2513 3716 2298 3927 
Q 2084 4138 1766 4138 
Q 1444 4138 1231 3931 
Q 1019 3725 1019 3438 
z
M 838 1322 
Q 838 1081 952 856 
Q 1066 631 1291 507 
Q 1516 384 1775 384 
Q 2178 384 2440 643 
Q 2703 903 2703 1303 
Q 2703 1709 2433 1975 
Q 2163 2241 1756 2241 
Q 1359 2241 1098 1978 
Q 838 1716 838 1322 
z
" transform="scale(0.015625)"/>
       </defs>
       <use xlink:href="#ArialMT-53"/>
       <use xlink:href="#ArialMT-6f" transform="translate(66.699219 0)"/>
       <use xlink:href="#ArialMT-72" transform="translate(122.314453 0)"/>
       <use xlink:href="#ArialMT-74" transform="translate(155.615234 0)"/>
       <use xlink:href="#ArialMT-65" transform="translate(183.398438 0)"/>
       <use xlink:href="#ArialMT-64" transform="translate(239.013672 0)"/>
       <use xlink:href="#ArialMT-53" transform="translate(294.628906 0)"/>
       <use xlink:href="#ArialMT-74" transform="translate(361.328125 0)"/>
       <use xlink:href="#ArialMT-65" transform="translate(389.111328 0)"/>
       <use xlink:href="#ArialMT-70" transform="translate(444.726562 0)"/>
       <use xlink:href="#ArialMT-46" transform="translate(500.341797 0)"/>
       <use xlink:href="#ArialMT-6f" transform="translate(561.425781 0)"/>
       <use xlink:href="#ArialMT-72" transform="translate(617.041016 0)"/>
       <use xlink:href="#ArialMT-77" transform="translate(650.341797 0)"/>
       <use xlink:href="#ArialMT-61" transform="translate(722.558594 0)"/>
       <use xlink:href="#ArialMT-72" transform="translate(778.173828 0)"/>
       <use xlink:href="#ArialMT-64" transform="translate(811.474609 0)"/>
       <use xlink:href="#ArialMT-5f" transform="translate(867.089844 0)"/>
       <use xlink:href="#ArialMT-4d" transform="translate(922.705078 0)"/>
       <use xlink:href="#ArialMT-43" transform="translate(1006.005859 0)"/>
       <use xlink:href="#ArialMT-45" transform="translate(1078.222656 0)"/>
       <use xlink:href="#ArialMT-31" transform="translate(1144.921875 0)"/>
       <use xlink:href="#ArialMT-38" transform="translate(1200.537109 0)"/>
      </g>
     </g>
    </g>
    <g id="xtick_6">
     <g id="text_6">
      <!-- UnsortedStepForward -->
      <g style="fill: #262626" transform="translate(569.010305 784.958298) rotate(-45) scale(0.176 -0.176)">
       <defs>
        <path id="ArialMT-55" d="M 3500 4581 
L 4106 4581 
L 4106 1934 
Q 4106 1244 3950 837 
Q 3794 431 3386 176 
Q 2978 -78 2316 -78 
Q 1672 -78 1262 144 
Q 853 366 678 786 
Q 503 1206 503 1934 
L 503 4581 
L 1109 4581 
L 1109 1938 
Q 1109 1341 1220 1058 
Q 1331 775 1601 622 
Q 1872 469 2263 469 
Q 2931 469 3215 772 
Q 3500 1075 3500 1938 
L 3500 4581 
z
" transform="scale(0.015625)"/>
        <path id="ArialMT-73" d="M 197 991 
L 753 1078 
Q 800 744 1014 566 
Q 1228 388 1613 388 
Q 2000 388 2187 545 
Q 2375 703 2375 916 
Q 2375 1106 2209 1216 
Q 2094 1291 1634 1406 
Q 1016 1563 777 1677 
Q 538 1791 414 1992 
Q 291 2194 291 2438 
Q 291 2659 392 2848 
Q 494 3038 669 3163 
Q 800 3259 1026 3326 
Q 1253 3394 1513 3394 
Q 1903 3394 2198 3281 
Q 2494 3169 2634 2976 
Q 2775 2784 2828 2463 
L 2278 2388 
Q 2241 2644 2061 2787 
Q 1881 2931 1553 2931 
Q 1166 2931 1000 2803 
Q 834 2675 834 2503 
Q 834 2394 903 2306 
Q 972 2216 1119 2156 
Q 1203 2125 1616 2013 
Q 2213 1853 2448 1751 
Q 2684 1650 2818 1456 
Q 2953 1263 2953 975 
Q 2953 694 2789 445 
Q 2625 197 2315 61 
Q 2006 -75 1616 -75 
Q 969 -75 630 194 
Q 291 463 197 991 
z
" transform="scale(0.015625)"/>
       </defs>
       <use xlink:href="#ArialMT-55"/>
       <use xlink:href="#ArialMT-6e" transform="translate(72.216797 0)"/>
       <use xlink:href="#ArialMT-73" transform="translate(127.832031 0)"/>
       <use xlink:href="#ArialMT-6f" transform="translate(177.832031 0)"/>
       <use xlink:href="#ArialMT-72" transform="translate(233.447266 0)"/>
       <use xlink:href="#ArialMT-74" transform="translate(266.748047 0)"/>
       <use xlink:href="#ArialMT-65" transform="translate(294.53125 0)"/>
       <use xlink:href="#ArialMT-64" transform="translate(350.146484 0)"/>
       <use xlink:href="#ArialMT-53" transform="translate(405.761719 0)"/>
       <use xlink:href="#ArialMT-74" transform="translate(472.460938 0)"/>
       <use xlink:href="#ArialMT-65" transform="translate(500.244141 0)"/>
       <use xlink:href="#ArialMT-70" transform="translate(555.859375 0)"/>
       <use xlink:href="#ArialMT-46" transform="translate(611.474609 0)"/>
       <use xlink:href="#ArialMT-6f" transform="translate(672.558594 0)"/>
       <use xlink:href="#ArialMT-72" transform="translate(728.173828 0)"/>
       <use xlink:href="#ArialMT-77" transform="translate(761.474609 0)"/>
       <use xlink:href="#ArialMT-61" transform="translate(833.691406 0)"/>
       <use xlink:href="#ArialMT-72" transform="translate(889.306641 0)"/>
       <use xlink:href="#ArialMT-64" transform="translate(922.607422 0)"/>
      </g>
     </g>
    </g>
    <g id="text_7">
     <!-- split_type -->
     <g style="fill: #262626" transform="translate(345.687825 839.762355) scale(0.192 -0.192)">
      <defs>
       <path id="ArialMT-79" d="M 397 -1278 
L 334 -750 
Q 519 -800 656 -800 
Q 844 -800 956 -737 
Q 1069 -675 1141 -563 
Q 1194 -478 1313 -144 
Q 1328 -97 1363 -6 
L 103 3319 
L 709 3319 
L 1400 1397 
Q 1534 1031 1641 628 
Q 1738 1016 1872 1384 
L 2581 3319 
L 3144 3319 
L 1881 -56 
Q 1678 -603 1566 -809 
Q 1416 -1088 1222 -1217 
Q 1028 -1347 759 -1347 
Q 597 -1347 397 -1278 
z
" transform="scale(0.015625)"/>
      </defs>
      <use xlink:href="#ArialMT-73"/>
      <use xlink:href="#ArialMT-70" transform="translate(50 0)"/>
      <use xlink:href="#ArialMT-6c" transform="translate(105.615234 0)"/>
      <use xlink:href="#ArialMT-69" transform="translate(127.832031 0)"/>
      <use xlink:href="#ArialMT-74" transform="translate(150.048828 0)"/>
      <use xlink:href="#ArialMT-5f" transform="translate(177.832031 0)"/>
      <use xlink:href="#ArialMT-74" transform="translate(233.447266 0)"/>
      <use xlink:href="#ArialMT-79" transform="translate(261.230469 0)"/>
      <use xlink:href="#ArialMT-70" transform="translate(311.230469 0)"/>
      <use xlink:href="#ArialMT-65" transform="translate(366.845703 0)"/>
     </g>
    </g>
   </g>
   <g id="matplotlib.axis_2">
    <g id="ytick_1">
     <g id="line2d_1">
      <path d="M 79.566 583.31063 
L 692.917651 583.31063 
" clip-path="url(#p15bbc61df2)" style="fill: none; stroke: #cccccc; stroke-width: 0.8; stroke-linecap: round"/>
     </g>
     <g id="text_8">
      <!-- 0 -->
      <g style="fill: #262626" transform="translate(61.47875 589.609505) scale(0.176 -0.176)">
       <defs>
        <path id="ArialMT-30" d="M 266 2259 
Q 266 3072 433 3567 
Q 600 4063 929 4331 
Q 1259 4600 1759 4600 
Q 2128 4600 2406 4451 
Q 2684 4303 2865 4023 
Q 3047 3744 3150 3342 
Q 3253 2941 3253 2259 
Q 3253 1453 3087 958 
Q 2922 463 2592 192 
Q 2263 -78 1759 -78 
Q 1097 -78 719 397 
Q 266 969 266 2259 
z
M 844 2259 
Q 844 1131 1108 757 
Q 1372 384 1759 384 
Q 2147 384 2411 759 
Q 2675 1134 2675 2259 
Q 2675 3391 2411 3762 
Q 2147 4134 1753 4134 
Q 1366 4134 1134 3806 
Q 844 3388 844 2259 
z
" transform="scale(0.015625)"/>
       </defs>
       <use xlink:href="#ArialMT-30"/>
      </g>
     </g>
    </g>
    <g id="ytick_2">
     <g id="line2d_2">
      <path d="M 79.566 509.717752 
L 692.917651 509.717752 
" clip-path="url(#p15bbc61df2)" style="fill: none; stroke: #cccccc; stroke-width: 0.8; stroke-linecap: round"/>
     </g>
     <g id="text_9">
      <!-- 20 -->
      <g style="fill: #262626" transform="translate(51.6915 516.016627) scale(0.176 -0.176)">
       <defs>
        <path id="ArialMT-32" d="M 3222 541 
L 3222 0 
L 194 0 
Q 188 203 259 391 
Q 375 700 629 1000 
Q 884 1300 1366 1694 
Q 2113 2306 2375 2664 
Q 2638 3022 2638 3341 
Q 2638 3675 2398 3904 
Q 2159 4134 1775 4134 
Q 1369 4134 1125 3890 
Q 881 3647 878 3216 
L 300 3275 
Q 359 3922 746 4261 
Q 1134 4600 1788 4600 
Q 2447 4600 2831 4234 
Q 3216 3869 3216 3328 
Q 3216 3053 3103 2787 
Q 2991 2522 2730 2228 
Q 2469 1934 1863 1422 
Q 1356 997 1212 845 
Q 1069 694 975 541 
L 3222 541 
z
" transform="scale(0.015625)"/>
       </defs>
       <use xlink:href="#ArialMT-32"/>
       <use xlink:href="#ArialMT-30" transform="translate(55.615234 0)"/>
      </g>
     </g>
    </g>
    <g id="ytick_3">
     <g id="line2d_3">
      <path d="M 79.566 436.124875 
L 692.917651 436.124875 
" clip-path="url(#p15bbc61df2)" style="fill: none; stroke: #cccccc; stroke-width: 0.8; stroke-linecap: round"/>
     </g>
     <g id="text_10">
      <!-- 40 -->
      <g style="fill: #262626" transform="translate(51.6915 442.42375) scale(0.176 -0.176)">
       <defs>
        <path id="ArialMT-34" d="M 2069 0 
L 2069 1097 
L 81 1097 
L 81 1613 
L 2172 4581 
L 2631 4581 
L 2631 1613 
L 3250 1613 
L 3250 1097 
L 2631 1097 
L 2631 0 
L 2069 0 
z
M 2069 1613 
L 2069 3678 
L 634 1613 
L 2069 1613 
z
" transform="scale(0.015625)"/>
       </defs>
       <use xlink:href="#ArialMT-34"/>
       <use xlink:href="#ArialMT-30" transform="translate(55.615234 0)"/>
      </g>
     </g>
    </g>
    <g id="ytick_4">
     <g id="line2d_4">
      <path d="M 79.566 362.531998 
L 692.917651 362.531998 
" clip-path="url(#p15bbc61df2)" style="fill: none; stroke: #cccccc; stroke-width: 0.8; stroke-linecap: round"/>
     </g>
     <g id="text_11">
      <!-- 60 -->
      <g style="fill: #262626" transform="translate(51.6915 368.830873) scale(0.176 -0.176)">
       <defs>
        <path id="ArialMT-36" d="M 3184 3459 
L 2625 3416 
Q 2550 3747 2413 3897 
Q 2184 4138 1850 4138 
Q 1581 4138 1378 3988 
Q 1113 3794 959 3422 
Q 806 3050 800 2363 
Q 1003 2672 1297 2822 
Q 1591 2972 1913 2972 
Q 2475 2972 2870 2558 
Q 3266 2144 3266 1488 
Q 3266 1056 3080 686 
Q 2894 316 2569 119 
Q 2244 -78 1831 -78 
Q 1128 -78 684 439 
Q 241 956 241 2144 
Q 241 3472 731 4075 
Q 1159 4600 1884 4600 
Q 2425 4600 2770 4297 
Q 3116 3994 3184 3459 
z
M 888 1484 
Q 888 1194 1011 928 
Q 1134 663 1356 523 
Q 1578 384 1822 384 
Q 2178 384 2434 671 
Q 2691 959 2691 1453 
Q 2691 1928 2437 2201 
Q 2184 2475 1800 2475 
Q 1419 2475 1153 2201 
Q 888 1928 888 1484 
z
" transform="scale(0.015625)"/>
       </defs>
       <use xlink:href="#ArialMT-36"/>
       <use xlink:href="#ArialMT-30" transform="translate(55.615234 0)"/>
      </g>
     </g>
    </g>
    <g id="ytick_5">
     <g id="line2d_5">
      <path d="M 79.566 288.93912 
L 692.917651 288.93912 
" clip-path="url(#p15bbc61df2)" style="fill: none; stroke: #cccccc; stroke-width: 0.8; stroke-linecap: round"/>
     </g>
     <g id="text_12">
      <!-- 80 -->
      <g style="fill: #262626" transform="translate(51.6915 295.237995) scale(0.176 -0.176)">
       <use xlink:href="#ArialMT-38"/>
       <use xlink:href="#ArialMT-30" transform="translate(55.615234 0)"/>
      </g>
     </g>
    </g>
    <g id="ytick_6">
     <g id="line2d_6">
      <path d="M 79.566 215.346243 
L 692.917651 215.346243 
" clip-path="url(#p15bbc61df2)" style="fill: none; stroke: #cccccc; stroke-width: 0.8; stroke-linecap: round"/>
     </g>
     <g id="text_13">
      <!-- 100 -->
      <g style="fill: #262626" transform="translate(41.90425 221.645118) scale(0.176 -0.176)">
       <use xlink:href="#ArialMT-31"/>
       <use xlink:href="#ArialMT-30" transform="translate(55.615234 0)"/>
       <use xlink:href="#ArialMT-30" transform="translate(111.230469 0)"/>
      </g>
     </g>
    </g>
    <g id="ytick_7">
     <g id="line2d_7">
      <path d="M 79.566 141.753365 
L 692.917651 141.753365 
" clip-path="url(#p15bbc61df2)" style="fill: none; stroke: #cccccc; stroke-width: 0.8; stroke-linecap: round"/>
     </g>
     <g id="text_14">
      <!-- 120 -->
      <g style="fill: #262626" transform="translate(41.90425 148.05224) scale(0.176 -0.176)">
       <use xlink:href="#ArialMT-31"/>
       <use xlink:href="#ArialMT-32" transform="translate(55.615234 0)"/>
       <use xlink:href="#ArialMT-30" transform="translate(111.230469 0)"/>
      </g>
     </g>
    </g>
    <g id="ytick_8">
     <g id="line2d_8">
      <path d="M 79.566 68.160488 
L 692.917651 68.160488 
" clip-path="url(#p15bbc61df2)" style="fill: none; stroke: #cccccc; stroke-width: 0.8; stroke-linecap: round"/>
     </g>
     <g id="text_15">
      <!-- 140 -->
      <g style="fill: #262626" transform="translate(41.90425 74.459363) scale(0.176 -0.176)">
       <use xlink:href="#ArialMT-31"/>
       <use xlink:href="#ArialMT-34" transform="translate(55.615234 0)"/>
       <use xlink:href="#ArialMT-30" transform="translate(111.230469 0)"/>
      </g>
     </g>
    </g>
    <g id="text_16">
     <!-- number of discovery compounds -->
     <g style="fill: #262626" transform="translate(33.86325 481.867174) rotate(-90) scale(0.192 -0.192)">
      <defs>
       <path id="ArialMT-75" d="M 2597 0 
L 2597 488 
Q 2209 -75 1544 -75 
Q 1250 -75 995 37 
Q 741 150 617 320 
Q 494 491 444 738 
Q 409 903 409 1263 
L 409 3319 
L 972 3319 
L 972 1478 
Q 972 1038 1006 884 
Q 1059 663 1231 536 
Q 1403 409 1656 409 
Q 1909 409 2131 539 
Q 2353 669 2445 892 
Q 2538 1116 2538 1541 
L 2538 3319 
L 3100 3319 
L 3100 0 
L 2597 0 
z
" transform="scale(0.015625)"/>
       <path id="ArialMT-62" d="M 941 0 
L 419 0 
L 419 4581 
L 981 4581 
L 981 2947 
Q 1338 3394 1891 3394 
Q 2197 3394 2470 3270 
Q 2744 3147 2920 2923 
Q 3097 2700 3197 2384 
Q 3297 2069 3297 1709 
Q 3297 856 2875 390 
Q 2453 -75 1863 -75 
Q 1275 -75 941 416 
L 941 0 
z
M 934 1684 
Q 934 1088 1097 822 
Q 1363 388 1816 388 
Q 2184 388 2453 708 
Q 2722 1028 2722 1663 
Q 2722 2313 2464 2622 
Q 2206 2931 1841 2931 
Q 1472 2931 1203 2611 
Q 934 2291 934 1684 
z
" transform="scale(0.015625)"/>
       <path id="ArialMT-20" transform="scale(0.015625)"/>
       <path id="ArialMT-76" d="M 1344 0 
L 81 3319 
L 675 3319 
L 1388 1331 
Q 1503 1009 1600 663 
Q 1675 925 1809 1294 
L 2547 3319 
L 3125 3319 
L 1869 0 
L 1344 0 
z
" transform="scale(0.015625)"/>
      </defs>
      <use xlink:href="#ArialMT-6e"/>
      <use xlink:href="#ArialMT-75" transform="translate(55.615234 0)"/>
      <use xlink:href="#ArialMT-6d" transform="translate(111.230469 0)"/>
      <use xlink:href="#ArialMT-62" transform="translate(194.53125 0)"/>
      <use xlink:href="#ArialMT-65" transform="translate(250.146484 0)"/>
      <use xlink:href="#ArialMT-72" transform="translate(305.761719 0)"/>
      <use xlink:href="#ArialMT-20" transform="translate(339.0625 0)"/>
      <use xlink:href="#ArialMT-6f" transform="translate(366.845703 0)"/>
      <use xlink:href="#ArialMT-66" transform="translate(422.460938 0)"/>
      <use xlink:href="#ArialMT-20" transform="translate(450.244141 0)"/>
      <use xlink:href="#ArialMT-64" transform="translate(478.027344 0)"/>
      <use xlink:href="#ArialMT-69" transform="translate(533.642578 0)"/>
      <use xlink:href="#ArialMT-73" transform="translate(555.859375 0)"/>
      <use xlink:href="#ArialMT-63" transform="translate(605.859375 0)"/>
      <use xlink:href="#ArialMT-6f" transform="translate(655.859375 0)"/>
      <use xlink:href="#ArialMT-76" transform="translate(711.474609 0)"/>
      <use xlink:href="#ArialMT-65" transform="translate(761.474609 0)"/>
      <use xlink:href="#ArialMT-72" transform="translate(817.089844 0)"/>
      <use xlink:href="#ArialMT-79" transform="translate(850.390625 0)"/>
      <use xlink:href="#ArialMT-20" transform="translate(900.390625 0)"/>
      <use xlink:href="#ArialMT-63" transform="translate(928.173828 0)"/>
      <use xlink:href="#ArialMT-6f" transform="translate(978.173828 0)"/>
      <use xlink:href="#ArialMT-6d" transform="translate(1033.789062 0)"/>
      <use xlink:href="#ArialMT-70" transform="translate(1117.089844 0)"/>
      <use xlink:href="#ArialMT-6f" transform="translate(1172.705078 0)"/>
      <use xlink:href="#ArialMT-75" transform="translate(1228.320312 0)"/>
      <use xlink:href="#ArialMT-6e" transform="translate(1283.935547 0)"/>
      <use xlink:href="#ArialMT-64" transform="translate(1339.550781 0)"/>
      <use xlink:href="#ArialMT-73" transform="translate(1395.166016 0)"/>
     </g>
    </g>
   </g>
   <g id="FillBetweenPolyCollection_1">
    <defs>
     <path id="m7dea05534c" d="M 146.131757 -253.028967 
L 145.668782 -253.028967 
L 145.39677 -257.936433 
L 144.886183 -262.843899 
L 144.004007 -267.751365 
L 142.598594 -272.658831 
L 140.530352 -277.566297 
L 137.713698 -282.473763 
L 134.157831 -287.381229 
L 129.990233 -292.288695 
L 125.450955 -297.196161 
L 120.856937 -302.103627 
L 116.548767 -307.011093 
L 112.839428 -311.91856 
L 109.980676 -316.826026 
L 108.149678 -321.733492 
L 107.44562 -326.640958 
L 107.883247 -331.548424 
L 109.379971 -336.45589 
L 111.747325 -341.363356 
L 114.70379 -346.270822 
L 117.91848 -351.178288 
L 121.077984 -356.085754 
L 123.952772 -360.99322 
L 126.435253 -365.900686 
L 128.5329 -370.808152 
L 130.321953 -375.715618 
L 131.887233 -380.623084 
L 133.278298 -385.53055 
L 134.498253 -390.438016 
L 135.519776 -395.345482 
L 136.309565 -400.252949 
L 136.845099 -405.160415 
L 137.119979 -410.067881 
L 137.143547 -414.975347 
L 136.940615 -419.882813 
L 136.551468 -424.790279 
L 136.028628 -429.697745 
L 135.428822 -434.605211 
L 134.803645 -439.512677 
L 134.195315 -444.420143 
L 133.641324 -449.327609 
L 133.184975 -454.235075 
L 132.882655 -459.142541 
L 132.798622 -464.050007 
L 132.985481 -468.957473 
L 133.458975 -473.864939 
L 134.181699 -478.772405 
L 135.066976 -483.679871 
L 136.003312 -488.587338 
L 136.888646 -493.494804 
L 137.659101 -498.40227 
L 138.30085 -503.309736 
L 138.842595 -508.217202 
L 139.334471 -513.124668 
L 139.823447 -518.032134 
L 140.334944 -522.9396 
L 140.86666 -527.847066 
L 141.39497 -532.754532 
L 141.888651 -537.661998 
L 142.321921 -542.569464 
L 142.680662 -547.47693 
L 142.961224 -552.384396 
L 143.166107 -557.291862 
L 143.301539 -562.199328 
L 143.378614 -567.106794 
L 143.415669 -572.01426 
L 143.438366 -576.921727 
L 143.475682 -581.829193 
L 143.55275 -586.736659 
L 143.683214 -591.644125 
L 143.864035 -596.551591 
L 144.074956 -601.459057 
L 144.28327 -606.366523 
L 144.452676 -611.273989 
L 144.553316 -616.181455 
L 144.569673 -621.088921 
L 144.504007 -625.996387 
L 144.374856 -630.903853 
L 144.211924 -635.811319 
L 144.049691 -640.718785 
L 143.921786 -645.626251 
L 143.85678 -650.533717 
L 143.874624 -655.441183 
L 143.982893 -660.348649 
L 144.173486 -665.256116 
L 144.42205 -670.163582 
L 144.692269 -675.071048 
L 144.944986 -679.978514 
L 145.149294 -684.88598 
L 145.291174 -689.793446 
L 145.375996 -694.700912 
L 145.423803 -699.608378 
L 145.459589 -704.515844 
L 145.503049 -709.42331 
L 145.562344 -714.330776 
L 145.634036 -719.238242 
L 145.707955 -724.145708 
L 145.77354 -729.053174 
L 145.824277 -733.96064 
L 145.858854 -738.868106 
L 145.941685 -738.868106 
L 145.941685 -738.868106 
L 145.976262 -733.96064 
L 146.026998 -729.053174 
L 146.092584 -724.145708 
L 146.166503 -719.238242 
L 146.238195 -714.330776 
L 146.29749 -709.42331 
L 146.340949 -704.515844 
L 146.376736 -699.608378 
L 146.424543 -694.700912 
L 146.509365 -689.793446 
L 146.651244 -684.88598 
L 146.855552 -679.978514 
L 147.10827 -675.071048 
L 147.378489 -670.163582 
L 147.627053 -665.256116 
L 147.817646 -660.348649 
L 147.925915 -655.441183 
L 147.943759 -650.533717 
L 147.878753 -645.626251 
L 147.750848 -640.718785 
L 147.588615 -635.811319 
L 147.425683 -630.903853 
L 147.296532 -625.996387 
L 147.230866 -621.088921 
L 147.247222 -616.181455 
L 147.347863 -611.273989 
L 147.517269 -606.366523 
L 147.725583 -601.459057 
L 147.936503 -596.551591 
L 148.117325 -591.644125 
L 148.247789 -586.736659 
L 148.324857 -581.829193 
L 148.362173 -576.921727 
L 148.38487 -572.01426 
L 148.421925 -567.106794 
L 148.499 -562.199328 
L 148.634432 -557.291862 
L 148.839314 -552.384396 
L 149.119877 -547.47693 
L 149.478618 -542.569464 
L 149.911888 -537.661998 
L 150.405569 -532.754532 
L 150.933878 -527.847066 
L 151.465595 -522.9396 
L 151.977092 -518.032134 
L 152.466068 -513.124668 
L 152.957944 -508.217202 
L 153.499688 -503.309736 
L 154.141438 -498.40227 
L 154.911893 -493.494804 
L 155.797226 -488.587338 
L 156.733562 -483.679871 
L 157.61884 -478.772405 
L 158.341564 -473.864939 
L 158.815058 -468.957473 
L 159.001917 -464.050007 
L 158.917884 -459.142541 
L 158.615564 -454.235075 
L 158.159215 -449.327609 
L 157.605224 -444.420143 
L 156.996893 -439.512677 
L 156.371717 -434.605211 
L 155.771911 -429.697745 
L 155.249071 -424.790279 
L 154.859924 -419.882813 
L 154.656992 -414.975347 
L 154.68056 -410.067881 
L 154.95544 -405.160415 
L 155.490974 -400.252949 
L 156.280763 -395.345482 
L 157.302286 -390.438016 
L 158.52224 -385.53055 
L 159.913306 -380.623084 
L 161.478586 -375.715618 
L 163.267639 -370.808152 
L 165.365286 -365.900686 
L 167.847767 -360.99322 
L 170.722555 -356.085754 
L 173.882059 -351.178288 
L 177.096749 -346.270822 
L 180.053214 -341.363356 
L 182.420567 -336.45589 
L 183.917292 -331.548424 
L 184.354918 -326.640958 
L 183.650861 -321.733492 
L 181.819863 -316.826026 
L 178.961111 -311.91856 
L 175.251772 -307.011093 
L 170.943602 -302.103627 
L 166.349583 -297.196161 
L 161.810306 -292.288695 
L 157.642708 -287.381229 
L 154.08684 -282.473763 
L 151.270187 -277.566297 
L 149.201945 -272.658831 
L 147.796532 -267.751365 
L 146.914355 -262.843899 
L 146.403769 -257.936433 
L 146.131757 -253.028967 
z
" style="stroke: #494949"/>
    </defs>
    <g clip-path="url(#p15bbc61df2)">
     <use xlink:href="#m7dea05534c" x="0" y="864" style="fill: #5875a4; stroke: #494949"/>
    </g>
   </g>
   <g id="FillBetweenPolyCollection_2">
    <defs>
     <path id="m1960568e95" d="M 242.812624 -247.316299 
L 241.26116 -247.316299 
L 240.532919 -252.562181 
L 239.343468 -257.808063 
L 237.561383 -263.053946 
L 235.101803 -268.299828 
L 231.960006 -273.54571 
L 228.228495 -278.791592 
L 224.092039 -284.037474 
L 219.803378 -289.283357 
L 215.646244 -294.529239 
L 211.892126 -299.775121 
L 208.757472 -305.021003 
L 206.370559 -310.266885 
L 204.758856 -315.512768 
L 203.864055 -320.75865 
L 203.582243 -326.004532 
L 203.814609 -331.250414 
L 204.505447 -336.496296 
L 205.646092 -341.742179 
L 207.239793 -346.988061 
L 209.2476 -352.233943 
L 211.551983 -357.479825 
L 213.966958 -362.725707 
L 216.292456 -367.97159 
L 218.379407 -373.217472 
L 220.165723 -378.463354 
L 221.666565 -383.709236 
L 222.93419 -388.955119 
L 224.017459 -394.201001 
L 224.941439 -399.446883 
L 225.707771 -404.692765 
L 226.305225 -409.938647 
L 226.721916 -415.18453 
L 226.956921 -420.430412 
L 227.030548 -425.676294 
L 226.990196 -430.922176 
L 226.908338 -436.168058 
L 226.872277 -441.413941 
L 226.968185 -446.659823 
L 227.262297 -451.905705 
L 227.78238 -457.151587 
L 228.504847 -462.397469 
L 229.354924 -467.643352 
L 230.224485 -472.889234 
L 231.004158 -478.135116 
L 231.61781 -483.380998 
L 232.044588 -488.62688 
L 232.318755 -493.872763 
L 232.508322 -499.118645 
L 232.684154 -504.364527 
L 232.8953 -509.610409 
L 233.160674 -514.856292 
L 233.475555 -520.102174 
L 233.822921 -525.348056 
L 234.180726 -530.593938 
L 234.524557 -535.83982 
L 234.831186 -541.085703 
L 235.086443 -546.331585 
L 235.29379 -551.577467 
L 235.476428 -556.823349 
L 235.66967 -562.069231 
L 235.907652 -567.315114 
L 236.212297 -572.560996 
L 236.589686 -577.806878 
L 237.03272 -583.05276 
L 237.524948 -588.298642 
L 238.042069 -593.544525 
L 238.552647 -598.790407 
L 239.02244 -604.036289 
L 239.423932 -609.282171 
L 239.746631 -614.528053 
L 240.000766 -619.773936 
L 240.210509 -625.019818 
L 240.400111 -630.2657 
L 240.581172 -635.511582 
L 240.748101 -640.757465 
L 240.883143 -646.003347 
L 240.966787 -651.249229 
L 240.987367 -656.495111 
L 240.945694 -661.740993 
L 240.854391 -666.986876 
L 240.734382 -672.232758 
L 240.611151 -677.47864 
L 240.51147 -682.724522 
L 240.459436 -687.970404 
L 240.471002 -693.216287 
L 240.548441 -698.462169 
L 240.678266 -703.708051 
L 240.835454 -708.953933 
L 240.993228 -714.199815 
L 241.133626 -719.445698 
L 241.252947 -724.69158 
L 241.359173 -729.937462 
L 241.463603 -735.183344 
L 241.572402 -740.429226 
L 241.683075 -745.675109 
L 241.786909 -750.920991 
L 241.874513 -756.166873 
L 241.940453 -761.412755 
L 241.984694 -766.658637 
L 242.08909 -766.658637 
L 242.08909 -766.658637 
L 242.133331 -761.412755 
L 242.19927 -756.166873 
L 242.286875 -750.920991 
L 242.390708 -745.675109 
L 242.501381 -740.429226 
L 242.610181 -735.183344 
L 242.71461 -729.937462 
L 242.820836 -724.69158 
L 242.940158 -719.445698 
L 243.080556 -714.199815 
L 243.238329 -708.953933 
L 243.395517 -703.708051 
L 243.525343 -698.462169 
L 243.602782 -693.216287 
L 243.614348 -687.970404 
L 243.562314 -682.724522 
L 243.462632 -677.47864 
L 243.339402 -672.232758 
L 243.219392 -666.986876 
L 243.12809 -661.740993 
L 243.086417 -656.495111 
L 243.106997 -651.249229 
L 243.19064 -646.003347 
L 243.325682 -640.757465 
L 243.492612 -635.511582 
L 243.673673 -630.2657 
L 243.863274 -625.019818 
L 244.073017 -619.773936 
L 244.327153 -614.528053 
L 244.649852 -609.282171 
L 245.051344 -604.036289 
L 245.521137 -598.790407 
L 246.031714 -593.544525 
L 246.548836 -588.298642 
L 247.041064 -583.05276 
L 247.484098 -577.806878 
L 247.861487 -572.560996 
L 248.166131 -567.315114 
L 248.404114 -562.069231 
L 248.597356 -556.823349 
L 248.779994 -551.577467 
L 248.98734 -546.331585 
L 249.242598 -541.085703 
L 249.549227 -535.83982 
L 249.893058 -530.593938 
L 250.250863 -525.348056 
L 250.598229 -520.102174 
L 250.91311 -514.856292 
L 251.178483 -509.610409 
L 251.38963 -504.364527 
L 251.565462 -499.118645 
L 251.755029 -493.872763 
L 252.029196 -488.62688 
L 252.455974 -483.380998 
L 253.069626 -478.135116 
L 253.849299 -472.889234 
L 254.718859 -467.643352 
L 255.568937 -462.397469 
L 256.291404 -457.151587 
L 256.811486 -451.905705 
L 257.105598 -446.659823 
L 257.201506 -441.413941 
L 257.165446 -436.168058 
L 257.083588 -430.922176 
L 257.043235 -425.676294 
L 257.116863 -420.430412 
L 257.351867 -415.18453 
L 257.768559 -409.938647 
L 258.366012 -404.692765 
L 259.132345 -399.446883 
L 260.056325 -394.201001 
L 261.139593 -388.955119 
L 262.407218 -383.709236 
L 263.908061 -378.463354 
L 265.694376 -373.217472 
L 267.781328 -367.97159 
L 270.106826 -362.725707 
L 272.5218 -357.479825 
L 274.826184 -352.233943 
L 276.833991 -346.988061 
L 278.427692 -341.742179 
L 279.568336 -336.496296 
L 280.259175 -331.250414 
L 280.491541 -326.004532 
L 280.209729 -320.75865 
L 279.314928 -315.512768 
L 277.703225 -310.266885 
L 275.316311 -305.021003 
L 272.181658 -299.775121 
L 268.427539 -294.529239 
L 264.270405 -289.283357 
L 259.981745 -284.037474 
L 255.845288 -278.791592 
L 252.113778 -273.54571 
L 248.971981 -268.299828 
L 246.512401 -263.053946 
L 244.730316 -257.808063 
L 243.540864 -252.562181 
L 242.812624 -247.316299 
z
" style="stroke: #494949"/>
    </defs>
    <g clip-path="url(#p15bbc61df2)">
     <use xlink:href="#m1960568e95" x="0" y="864" style="fill: #cc8963; stroke: #494949"/>
    </g>
   </g>
   <g id="FillBetweenPolyCollection_3">
    <defs>
     <path id="ma8cb960616" d="M 338.503758 -248.584394 
L 337.84327 -248.584394 
L 337.525908 -253.247136 
L 336.985138 -257.909879 
L 336.127349 -262.572621 
L 334.857394 -267.235363 
L 333.096922 -271.898106 
L 330.80301 -276.560848 
L 327.981049 -281.22359 
L 324.688028 -285.886333 
L 321.026949 -290.549075 
L 317.137142 -295.211817 
L 313.186079 -299.87456 
L 309.365247 -304.537302 
L 305.887716 -309.200044 
L 302.981212 -313.862787 
L 300.870221 -318.525529 
L 299.744534 -323.188271 
L 299.718865 -327.851014 
L 300.795753 -332.513756 
L 302.847723 -337.176498 
L 305.630505 -341.839241 
L 308.827185 -346.501983 
L 312.109143 -351.164725 
L 315.192291 -355.827468 
L 317.871666 -360.49021 
L 320.030777 -365.152952 
L 321.634735 -369.815695 
L 322.719293 -374.478437 
L 323.38091 -379.141179 
L 323.76349 -383.803921 
L 324.034621 -388.466664 
L 324.350524 -393.129406 
L 324.818818 -397.792148 
L 325.473262 -402.454891 
L 326.270868 -407.117633 
L 327.112225 -411.780375 
L 327.876667 -416.443118 
L 328.459729 -421.10586 
L 328.801433 -425.768602 
L 328.898483 -430.431345 
L 328.79904 -435.094087 
L 328.583921 -439.756829 
L 328.34139 -444.419572 
L 328.143265 -449.082314 
L 328.028072 -453.745056 
L 327.994095 -458.407799 
L 328.003123 -463.070541 
L 327.994644 -467.733283 
L 327.908588 -472.396026 
L 327.711465 -477.058768 
L 327.41711 -481.72151 
L 327.092347 -486.384253 
L 326.842312 -491.046995 
L 326.778938 -495.709737 
L 326.984768 -500.37248 
L 327.487309 -505.035222 
L 328.254175 -509.697964 
L 329.20883 -514.360707 
L 330.257113 -519.023449 
L 331.311571 -523.686191 
L 332.305071 -528.348934 
L 333.193098 -533.011676 
L 333.949944 -537.674418 
L 334.564447 -542.337161 
L 335.037511 -546.999903 
L 335.380163 -551.662645 
L 335.6102 -556.325388 
L 335.747382 -560.98813 
L 335.809243 -565.650872 
L 335.809938 -570.313615 
L 335.762742 -574.976357 
L 335.684288 -579.639099 
L 335.59717 -584.301842 
L 335.528198 -588.964584 
L 335.502194 -593.627326 
L 335.534117 -598.290068 
L 335.623689 -602.952811 
L 335.755528 -607.615553 
L 335.904823 -612.278295 
L 336.045697 -616.941038 
L 336.158386 -621.60378 
L 336.232605 -626.266522 
L 336.266898 -630.929265 
L 336.265859 -635.592007 
L 336.237675 -640.254749 
L 336.193438 -644.917492 
L 336.14789 -649.580234 
L 336.119876 -654.242976 
L 336.130664 -658.905719 
L 336.199464 -663.568461 
L 336.337411 -668.231203 
L 336.542651 -672.893946 
L 336.799161 -677.556688 
L 337.080342 -682.21943 
L 337.356156 -686.882173 
L 337.600891 -691.544915 
L 337.798592 -696.207657 
L 337.944574 -700.8704 
L 338.043359 -705.533142 
L 338.104723 -710.195884 
L 338.242305 -710.195884 
L 338.242305 -710.195884 
L 338.30367 -705.533142 
L 338.402455 -700.8704 
L 338.548436 -696.207657 
L 338.746137 -691.544915 
L 338.990872 -686.882173 
L 339.266686 -682.21943 
L 339.547867 -677.556688 
L 339.804377 -672.893946 
L 340.009618 -668.231203 
L 340.147565 -663.568461 
L 340.216365 -658.905719 
L 340.227152 -654.242976 
L 340.199139 -649.580234 
L 340.15359 -644.917492 
L 340.109353 -640.254749 
L 340.081169 -635.592007 
L 340.08013 -630.929265 
L 340.114423 -626.266522 
L 340.188643 -621.60378 
L 340.301332 -616.941038 
L 340.442205 -612.278295 
L 340.5915 -607.615553 
L 340.723339 -602.952811 
L 340.812911 -598.290068 
L 340.844834 -593.627326 
L 340.81883 -588.964584 
L 340.749858 -584.301842 
L 340.66274 -579.639099 
L 340.584287 -574.976357 
L 340.53709 -570.313615 
L 340.537785 -565.650872 
L 340.599646 -560.98813 
L 340.736828 -556.325388 
L 340.966866 -551.662645 
L 341.309517 -546.999903 
L 341.782581 -542.337161 
L 342.397084 -537.674418 
L 343.153931 -533.011676 
L 344.041958 -528.348934 
L 345.035457 -523.686191 
L 346.089915 -519.023449 
L 347.138198 -514.360707 
L 348.092854 -509.697964 
L 348.859719 -505.035222 
L 349.36226 -500.37248 
L 349.568091 -495.709737 
L 349.504717 -491.046995 
L 349.254681 -486.384253 
L 348.929918 -481.72151 
L 348.635563 -477.058768 
L 348.43844 -472.396026 
L 348.352384 -467.733283 
L 348.343905 -463.070541 
L 348.352933 -458.407799 
L 348.318956 -453.745056 
L 348.203764 -449.082314 
L 348.005638 -444.419572 
L 347.763107 -439.756829 
L 347.547988 -435.094087 
L 347.448545 -430.431345 
L 347.545595 -425.768602 
L 347.887299 -421.10586 
L 348.470362 -416.443118 
L 349.234804 -411.780375 
L 350.07616 -407.117633 
L 350.873767 -402.454891 
L 351.52821 -397.792148 
L 351.996505 -393.129406 
L 352.312408 -388.466664 
L 352.583538 -383.803921 
L 352.966118 -379.141179 
L 353.627735 -374.478437 
L 354.712293 -369.815695 
L 356.316251 -365.152952 
L 358.475362 -360.49021 
L 361.154738 -355.827468 
L 364.237886 -351.164725 
L 367.519843 -346.501983 
L 370.716524 -341.839241 
L 373.499306 -337.176498 
L 375.551275 -332.513756 
L 376.628163 -327.851014 
L 376.602494 -323.188271 
L 375.476808 -318.525529 
L 373.365816 -313.862787 
L 370.459313 -309.200044 
L 366.981782 -304.537302 
L 363.16095 -299.87456 
L 359.209886 -295.211817 
L 355.32008 -290.549075 
L 351.659001 -285.886333 
L 348.36598 -281.22359 
L 345.544019 -276.560848 
L 343.250107 -271.898106 
L 341.489634 -267.235363 
L 340.219679 -262.572621 
L 339.36189 -257.909879 
L 338.82112 -253.247136 
L 338.503758 -248.584394 
z
" style="stroke: #494949"/>
    </defs>
    <g clip-path="url(#p15bbc61df2)">
     <use xlink:href="#ma8cb960616" x="0" y="864" style="fill: #5f9e6e; stroke: #494949"/>
    </g>
   </g>
   <g id="FillBetweenPolyCollection_4">
    <defs>
     <path id="m88ecf0fc36" d="M 434.631461 -248.578225 
L 433.988812 -248.578225 
L 433.645857 -253.352597 
L 433.029782 -258.126968 
L 432.004933 -262.901339 
L 430.424994 -267.675711 
L 428.166213 -272.450082 
L 425.169739 -277.224453 
L 421.4799 -281.998824 
L 417.262209 -286.773196 
L 412.789337 -291.547567 
L 408.394433 -296.321938 
L 404.404607 -301.09631 
L 401.076648 -305.870681 
L 398.557452 -310.645052 
L 396.882065 -315.419424 
L 396.006286 -320.193795 
L 395.855488 -324.968166 
L 396.364902 -329.742538 
L 397.492983 -334.516909 
L 399.20541 -339.29128 
L 401.443492 -344.065651 
L 404.097986 -348.840023 
L 407.004427 -353.614394 
L 409.963058 -358.388765 
L 412.773617 -363.163137 
L 415.269672 -367.937508 
L 417.340913 -372.711879 
L 418.940706 -377.486251 
L 420.083112 -382.260622 
L 420.834065 -387.034993 
L 421.297405 -391.809365 
L 421.59395 -396.583736 
L 421.834644 -401.358107 
L 422.09476 -406.132478 
L 422.398992 -410.90685 
L 422.723682 -415.681221 
L 423.014605 -420.455592 
L 423.212231 -425.229964 
L 423.274659 -430.004335 
L 423.191076 -434.778706 
L 422.983223 -439.553078 
L 422.696922 -444.327449 
L 422.388948 -449.10182 
L 422.115334 -453.876191 
L 421.925095 -458.650563 
L 421.859349 -463.424934 
L 421.952396 -468.199305 
L 422.230331 -472.973677 
L 422.704774 -477.748048 
L 423.363139 -482.522419 
L 424.160834 -487.296791 
L 425.022272 -492.071162 
L 425.854984 -496.845533 
L 426.574556 -501.619905 
L 427.131005 -506.394276 
L 427.524218 -511.168647 
L 427.800111 -515.943018 
L 428.028455 -520.71739 
L 428.272711 -525.491761 
L 428.566215 -530.266132 
L 428.905352 -535.040504 
L 429.261131 -539.814875 
L 429.601025 -544.589246 
L 429.908357 -549.363618 
L 430.189266 -554.137989 
L 430.465255 -558.91236 
L 430.757485 -563.686732 
L 431.072667 -568.461103 
L 431.397949 -573.235474 
L 431.706116 -578.009845 
L 431.966767 -582.784217 
L 432.156969 -587.558588 
L 432.266819 -592.332959 
L 432.299206 -597.107331 
L 432.266252 -601.881702 
L 432.185488 -606.656073 
L 432.077157 -611.430445 
L 431.96192 -616.204816 
L 431.85791 -620.979187 
L 431.777683 -625.753558 
L 431.727247 -630.52793 
L 431.708705 -635.302301 
L 431.725161 -640.076672 
L 431.78385 -644.851044 
L 431.89413 -649.625415 
L 432.060869 -654.399786 
L 432.277857 -659.174158 
L 432.526498 -663.948529 
L 432.781512 -668.7229 
L 433.020399 -673.497272 
L 433.230974 -678.271643 
L 433.412871 -683.046014 
L 433.573091 -687.820385 
L 433.719182 -692.594757 
L 433.854306 -697.369128 
L 433.97638 -702.143499 
L 434.080611 -706.917871 
L 434.163014 -711.692242 
L 434.222701 -716.466613 
L 434.26213 -721.240985 
L 434.358144 -721.240985 
L 434.358144 -721.240985 
L 434.397572 -716.466613 
L 434.457259 -711.692242 
L 434.539662 -706.917871 
L 434.643894 -702.143499 
L 434.765967 -697.369128 
L 434.901091 -692.594757 
L 435.047182 -687.820385 
L 435.207402 -683.046014 
L 435.389299 -678.271643 
L 435.599874 -673.497272 
L 435.838761 -668.7229 
L 436.093775 -663.948529 
L 436.342416 -659.174158 
L 436.559404 -654.399786 
L 436.726144 -649.625415 
L 436.836424 -644.851044 
L 436.895112 -640.076672 
L 436.911568 -635.302301 
L 436.893027 -630.52793 
L 436.84259 -625.753558 
L 436.762364 -620.979187 
L 436.658353 -616.204816 
L 436.543116 -611.430445 
L 436.434785 -606.656073 
L 436.354022 -601.881702 
L 436.321067 -597.107331 
L 436.353454 -592.332959 
L 436.463304 -587.558588 
L 436.653506 -582.784217 
L 436.914157 -578.009845 
L 437.222324 -573.235474 
L 437.547606 -568.461103 
L 437.862789 -563.686732 
L 438.155019 -558.91236 
L 438.431007 -554.137989 
L 438.711916 -549.363618 
L 439.019248 -544.589246 
L 439.359142 -539.814875 
L 439.714921 -535.040504 
L 440.054058 -530.266132 
L 440.347562 -525.491761 
L 440.591818 -520.71739 
L 440.820162 -515.943018 
L 441.096055 -511.168647 
L 441.489269 -506.394276 
L 442.045718 -501.619905 
L 442.76529 -496.845533 
L 443.598001 -492.071162 
L 444.459439 -487.296791 
L 445.257134 -482.522419 
L 445.915499 -477.748048 
L 446.389942 -472.973677 
L 446.667877 -468.199305 
L 446.760924 -463.424934 
L 446.695178 -458.650563 
L 446.504939 -453.876191 
L 446.231326 -449.10182 
L 445.923351 -444.327449 
L 445.637051 -439.553078 
L 445.429197 -434.778706 
L 445.345614 -430.004335 
L 445.408042 -425.229964 
L 445.605668 -420.455592 
L 445.896591 -415.681221 
L 446.221281 -410.90685 
L 446.525513 -406.132478 
L 446.785629 -401.358107 
L 447.026323 -396.583736 
L 447.322868 -391.809365 
L 447.786208 -387.034993 
L 448.537161 -382.260622 
L 449.679567 -377.486251 
L 451.27936 -372.711879 
L 453.350601 -367.937508 
L 455.846656 -363.163137 
L 458.657215 -358.388765 
L 461.615846 -353.614394 
L 464.522287 -348.840023 
L 467.176781 -344.065651 
L 469.414863 -339.29128 
L 471.12729 -334.516909 
L 472.255371 -329.742538 
L 472.764786 -324.968166 
L 472.613987 -320.193795 
L 471.738208 -315.419424 
L 470.062821 -310.645052 
L 467.543625 -305.870681 
L 464.215667 -301.09631 
L 460.22584 -296.321938 
L 455.830937 -291.547567 
L 451.358064 -286.773196 
L 447.140374 -281.998824 
L 443.450534 -277.224453 
L 440.45406 -272.450082 
L 438.195279 -267.675711 
L 436.61534 -262.901339 
L 435.590491 -258.126968 
L 434.974416 -253.352597 
L 434.631461 -248.578225 
z
" style="stroke: #494949"/>
    </defs>
    <g clip-path="url(#p15bbc61df2)">
     <use xlink:href="#m88ecf0fc36" x="0" y="864" style="fill: #b55d60; stroke: #494949"/>
    </g>
   </g>
   <g id="FillBetweenPolyCollection_5">
    <defs>
     <path id="med4a27b4b6" d="M 531.198035 -245.563886 
L 529.695483 -245.563886 
L 528.951369 -251.105347 
L 527.710014 -256.646809 
L 525.826862 -262.18827 
L 523.224121 -267.729731 
L 519.937089 -273.271193 
L 516.127173 -278.812654 
L 512.048449 -284.354115 
L 507.980596 -289.895577 
L 504.161129 -295.437038 
L 500.748538 -300.978499 
L 497.826855 -306.519961 
L 495.438852 -312.061422 
L 493.624807 -317.602883 
L 492.447392 -323.144345 
L 491.99211 -328.685806 
L 492.341356 -334.227267 
L 493.530061 -339.768729 
L 495.501799 -345.31019 
L 498.08918 -350.851651 
L 501.033838 -356.393113 
L 504.041754 -361.934574 
L 506.851468 -367.476035 
L 509.287798 -373.017497 
L 511.283529 -378.558958 
L 512.867355 -384.100419 
L 514.128642 -389.641881 
L 515.173936 -395.183342 
L 516.08837 -400.724803 
L 516.910645 -406.266265 
L 517.625957 -411.807726 
L 518.177714 -417.349187 
L 518.495434 -422.890648 
L 518.531695 -428.43211 
L 518.2959 -433.973571 
L 517.870289 -439.515032 
L 517.397729 -445.056494 
L 517.042108 -450.597955 
L 516.935908 -456.139416 
L 517.137517 -461.680878 
L 517.61719 -467.222339 
L 518.276784 -472.7638 
L 518.992809 -478.305262 
L 519.663465 -483.846723 
L 520.241205 -489.388184 
L 520.740066 -494.929646 
L 521.217479 -500.471107 
L 521.740128 -506.012568 
L 522.349322 -511.55403 
L 523.040366 -517.095491 
L 523.762636 -522.636952 
L 524.437236 -528.178414 
L 524.983089 -533.719875 
L 525.342138 -539.261336 
L 525.497114 -544.802798 
L 525.477823 -550.344259 
L 525.353749 -555.88572 
L 525.214209 -561.427182 
L 525.142262 -566.968643 
L 525.192191 -572.510104 
L 525.378882 -578.051566 
L 525.68141 -583.593027 
L 526.0566 -589.134488 
L 526.455465 -594.67595 
L 526.836669 -600.217411 
L 527.174144 -605.758872 
L 527.458479 -611.300334 
L 527.693331 -616.841795 
L 527.88919 -622.383256 
L 528.057287 -627.924718 
L 528.205679 -633.466179 
L 528.337999 -639.00764 
L 528.454215 -644.549102 
L 528.55258 -650.090563 
L 528.632207 -655.632024 
L 528.695493 -661.173486 
L 528.749064 -666.714947 
L 528.802254 -672.256408 
L 528.86353 -677.79787 
L 528.936835 -683.339331 
L 529.019999 -688.880792 
L 529.105973 -694.422254 
L 529.186027 -699.963715 
L 529.253313 -705.505176 
L 529.3056 -711.046638 
L 529.3465 -716.588099 
L 529.384722 -722.12956 
L 529.431233 -727.671022 
L 529.49515 -733.212483 
L 529.580216 -738.753944 
L 529.683727 -744.295406 
L 529.798376 -749.836867 
L 529.915552 -755.378328 
L 530.027967 -760.91979 
L 530.130469 -766.461251 
L 530.219571 -772.002712 
L 530.292936 -777.544174 
L 530.349476 -783.085635 
L 530.389756 -788.627096 
L 530.416016 -794.168558 
L 530.477501 -794.168558 
L 530.477501 -794.168558 
L 530.503762 -788.627096 
L 530.544042 -783.085635 
L 530.600582 -777.544174 
L 530.673947 -772.002712 
L 530.763049 -766.461251 
L 530.865551 -760.91979 
L 530.977965 -755.378328 
L 531.095142 -749.836867 
L 531.209791 -744.295406 
L 531.313302 -738.753944 
L 531.398368 -733.212483 
L 531.462285 -727.671022 
L 531.508796 -722.12956 
L 531.547017 -716.588099 
L 531.587918 -711.046638 
L 531.640205 -705.505176 
L 531.707491 -699.963715 
L 531.787545 -694.422254 
L 531.873519 -688.880792 
L 531.956682 -683.339331 
L 532.029988 -677.79787 
L 532.091264 -672.256408 
L 532.144454 -666.714947 
L 532.198025 -661.173486 
L 532.261311 -655.632024 
L 532.340938 -650.090563 
L 532.439302 -644.549102 
L 532.555519 -639.00764 
L 532.687839 -633.466179 
L 532.836231 -627.924718 
L 533.004328 -622.383256 
L 533.200187 -616.841795 
L 533.435039 -611.300334 
L 533.719374 -605.758872 
L 534.056849 -600.217411 
L 534.438053 -594.67595 
L 534.836918 -589.134488 
L 535.212108 -583.593027 
L 535.514636 -578.051566 
L 535.701327 -572.510104 
L 535.751255 -566.968643 
L 535.679309 -561.427182 
L 535.539769 -555.88572 
L 535.415695 -550.344259 
L 535.396403 -544.802798 
L 535.55138 -539.261336 
L 535.910429 -533.719875 
L 536.456282 -528.178414 
L 537.130882 -522.636952 
L 537.853152 -517.095491 
L 538.544196 -511.55403 
L 539.15339 -506.012568 
L 539.676039 -500.471107 
L 540.153452 -494.929646 
L 540.652313 -489.388184 
L 541.230053 -483.846723 
L 541.900709 -478.305262 
L 542.616734 -472.7638 
L 543.276328 -467.222339 
L 543.756 -461.680878 
L 543.95761 -456.139416 
L 543.85141 -450.597955 
L 543.495789 -445.056494 
L 543.023229 -439.515032 
L 542.597618 -433.973571 
L 542.361823 -428.43211 
L 542.398084 -422.890648 
L 542.715804 -417.349187 
L 543.267561 -411.807726 
L 543.982873 -406.266265 
L 544.805148 -400.724803 
L 545.719581 -395.183342 
L 546.764876 -389.641881 
L 548.026163 -384.100419 
L 549.609989 -378.558958 
L 551.60572 -373.017497 
L 554.04205 -367.476035 
L 556.851764 -361.934574 
L 559.85968 -356.393113 
L 562.804338 -350.851651 
L 565.391719 -345.31019 
L 567.363457 -339.768729 
L 568.552162 -334.227267 
L 568.901408 -328.685806 
L 568.446126 -323.144345 
L 567.268711 -317.602883 
L 565.454666 -312.061422 
L 563.066663 -306.519961 
L 560.14498 -300.978499 
L 556.732389 -295.437038 
L 552.912922 -289.895577 
L 548.845068 -284.354115 
L 544.766345 -278.812654 
L 540.956429 -273.271193 
L 537.669397 -267.729731 
L 535.066656 -262.18827 
L 533.183504 -256.646809 
L 531.942149 -251.105347 
L 531.198035 -245.563886 
z
" style="stroke: #494949"/>
    </defs>
    <g clip-path="url(#p15bbc61df2)">
     <use xlink:href="#med4a27b4b6" x="0" y="864" style="fill: #857aab; stroke: #494949"/>
    </g>
   </g>
   <g id="FillBetweenPolyCollection_6">
    <defs>
     <path id="mcbaa11d1bf" d="M 626.873917 -253.06327 
L 626.292846 -253.06327 
L 625.975225 -257.932875 
L 625.398361 -262.80248 
L 624.427933 -267.672085 
L 622.913215 -272.54169 
L 620.716218 -277.411295 
L 617.751669 -282.2809 
L 614.027744 -287.150505 
L 609.673864 -292.02011 
L 604.943676 -296.889714 
L 600.188502 -301.759319 
L 595.80592 -306.628924 
L 592.175448 -311.498529 
L 589.596167 -316.368134 
L 588.239798 -321.237739 
L 588.128732 -326.107344 
L 589.142963 -330.976949 
L 591.053116 -335.846554 
L 593.570102 -340.716159 
L 596.39764 -345.585764 
L 599.274546 -350.455369 
L 601.999642 -355.324974 
L 604.440419 -360.194579 
L 606.532174 -365.064184 
L 608.273825 -369.933789 
L 609.720847 -374.803394 
L 610.970056 -379.672998 
L 612.131388 -384.542603 
L 613.28976 -389.412208 
L 614.4702 -394.281813 
L 615.62303 -399.151418 
L 616.638367 -404.021023 
L 617.384787 -408.890628 
L 617.75543 -413.760233 
L 617.703469 -418.629838 
L 617.256797 -423.499443 
L 616.51159 -428.369048 
L 615.610076 -433.238653 
L 614.709059 -438.108258 
L 613.946484 -442.977863 
L 613.414937 -447.847468 
L 613.150746 -452.717073 
L 613.142166 -457.586678 
L 613.351568 -462.456283 
L 613.739966 -467.325887 
L 614.281896 -472.195492 
L 614.964556 -477.065097 
L 615.774109 -481.934702 
L 616.679545 -486.804307 
L 617.626232 -491.673912 
L 618.545275 -496.543517 
L 619.374285 -501.413122 
L 620.077426 -506.282727 
L 620.653475 -511.152332 
L 621.128834 -516.021937 
L 621.541287 -520.891542 
L 621.923738 -525.761147 
L 622.294594 -530.630752 
L 622.65637 -535.500357 
L 623.000021 -540.369962 
L 623.310914 -545.239567 
L 623.573245 -550.109172 
L 623.772133 -554.978776 
L 623.895154 -559.848381 
L 623.935734 -564.717986 
L 623.898831 -569.587591 
L 623.806143 -574.457196 
L 623.696477 -579.326801 
L 623.618517 -584.196406 
L 623.617233 -589.066011 
L 623.718803 -593.935616 
L 623.920243 -598.805221 
L 624.188337 -603.674826 
L 624.468966 -608.544431 
L 624.704012 -613.414036 
L 624.849999 -618.283641 
L 624.891858 -623.153246 
L 624.846869 -628.022851 
L 624.757372 -632.892456 
L 624.675127 -637.76206 
L 624.643445 -642.631665 
L 624.684082 -647.50127 
L 624.793606 -652.370875 
L 624.949594 -657.24048 
L 625.122758 -662.110085 
L 625.28903 -666.97969 
L 625.436536 -671.849295 
L 625.565535 -676.7189 
L 625.683046 -681.588505 
L 625.796235 -686.45811 
L 625.908334 -691.327715 
L 626.018416 -696.19732 
L 626.123562 -701.066925 
L 626.220945 -705.93653 
L 626.308492 -710.806135 
L 626.384536 -715.67574 
L 626.447569 -720.545345 
L 626.496638 -725.414949 
L 626.531999 -730.284554 
L 626.555334 -735.154159 
L 626.611429 -735.154159 
L 626.611429 -735.154159 
L 626.634764 -730.284554 
L 626.670124 -725.414949 
L 626.719194 -720.545345 
L 626.782226 -715.67574 
L 626.85827 -710.806135 
L 626.945818 -705.93653 
L 627.043201 -701.066925 
L 627.148347 -696.19732 
L 627.258429 -691.327715 
L 627.370527 -686.45811 
L 627.483716 -681.588505 
L 627.601228 -676.7189 
L 627.730227 -671.849295 
L 627.877733 -666.97969 
L 628.044004 -662.110085 
L 628.217169 -657.24048 
L 628.373157 -652.370875 
L 628.48268 -647.50127 
L 628.523317 -642.631665 
L 628.491635 -637.76206 
L 628.40939 -632.892456 
L 628.319894 -628.022851 
L 628.274905 -623.153246 
L 628.316764 -618.283641 
L 628.46275 -613.414036 
L 628.697797 -608.544431 
L 628.978426 -603.674826 
L 629.246519 -598.805221 
L 629.44796 -593.935616 
L 629.54953 -589.066011 
L 629.548245 -584.196406 
L 629.470286 -579.326801 
L 629.36062 -574.457196 
L 629.267932 -569.587591 
L 629.231029 -564.717986 
L 629.271609 -559.848381 
L 629.39463 -554.978776 
L 629.593518 -550.109172 
L 629.855849 -545.239567 
L 630.166742 -540.369962 
L 630.510393 -535.500357 
L 630.872169 -530.630752 
L 631.243024 -525.761147 
L 631.625475 -520.891542 
L 632.037929 -516.021937 
L 632.513288 -511.152332 
L 633.089336 -506.282727 
L 633.792478 -501.413122 
L 634.621488 -496.543517 
L 635.540531 -491.673912 
L 636.487217 -486.804307 
L 637.392654 -481.934702 
L 638.202207 -477.065097 
L 638.884867 -472.195492 
L 639.426797 -467.325887 
L 639.815194 -462.456283 
L 640.024596 -457.586678 
L 640.016017 -452.717073 
L 639.751826 -447.847468 
L 639.220278 -442.977863 
L 638.457703 -438.108258 
L 637.556686 -433.238653 
L 636.655172 -428.369048 
L 635.909966 -423.499443 
L 635.463293 -418.629838 
L 635.411333 -413.760233 
L 635.781975 -408.890628 
L 636.528396 -404.021023 
L 637.543732 -399.151418 
L 638.696562 -394.281813 
L 639.877003 -389.412208 
L 641.035375 -384.542603 
L 642.196707 -379.672998 
L 643.445916 -374.803394 
L 644.892938 -369.933789 
L 646.634589 -365.064184 
L 648.726343 -360.194579 
L 651.167121 -355.324974 
L 653.892217 -350.455369 
L 656.769122 -345.585764 
L 659.596661 -340.716159 
L 662.113647 -335.846554 
L 664.0238 -330.976949 
L 665.03803 -326.107344 
L 664.926965 -321.237739 
L 663.570595 -316.368134 
L 660.991315 -311.498529 
L 657.360842 -306.628924 
L 652.97826 -301.759319 
L 648.223087 -296.889714 
L 643.492899 -292.02011 
L 639.139019 -287.150505 
L 635.415093 -282.2809 
L 632.450545 -277.411295 
L 630.253548 -272.54169 
L 628.738829 -267.672085 
L 627.768401 -262.80248 
L 627.191538 -257.932875 
L 626.873917 -253.06327 
z
" style="stroke: #494949"/>
    </defs>
    <g clip-path="url(#p15bbc61df2)">
     <use xlink:href="#mcbaa11d1bf" x="0" y="864" style="fill: #8d7866; stroke: #494949"/>
    </g>
   </g>
   <g id="line2d_9">
    <path d="M 145.900269 579.630986 
L 145.900269 226.385174 
" clip-path="url(#p15bbc61df2)" style="fill: none; stroke: #494949; stroke-width: 1.5; stroke-linecap: round"/>
   </g>
   <g id="line2d_10">
    <path d="M 145.900269 539.154903 
L 145.900269 414.047012 
" clip-path="url(#p15bbc61df2)" style="fill: none; stroke: #494949; stroke-width: 4.5; stroke-linecap: round"/>
   </g>
   <g id="line2d_11">
    <path d="M 145.900269 509.717752 
" clip-path="url(#p15bbc61df2)" style="fill: none; stroke: #494949; stroke-width: 1.2; stroke-linecap: round"/>
    <defs>
     <path id="mc7d8eb5db7" d="M 1.875 0 
L -1.875 -0 
" style="stroke: #ffffff; stroke-width: 0.9"/>
    </defs>
    <g clip-path="url(#p15bbc61df2)">
     <use xlink:href="#mc7d8eb5db7" x="145.900269" y="509.717752" style="fill: #ffffff; stroke: #ffffff; stroke-width: 0.9"/>
    </g>
   </g>
   <g id="line2d_12">
    <path d="M 242.036892 583.31063 
L 242.036892 222.705531 
" clip-path="url(#p15bbc61df2)" style="fill: none; stroke: #494949; stroke-width: 1.5; stroke-linecap: round"/>
   </g>
   <g id="line2d_13">
    <path d="M 242.036892 542.834547 
L 242.036892 414.047012 
" clip-path="url(#p15bbc61df2)" style="fill: none; stroke: #494949; stroke-width: 4.5; stroke-linecap: round"/>
   </g>
   <g id="line2d_14">
    <path d="M 242.036892 498.678821 
" clip-path="url(#p15bbc61df2)" style="fill: none; stroke: #494949; stroke-width: 1.2; stroke-linecap: round"/>
    <g clip-path="url(#p15bbc61df2)">
     <use xlink:href="#mc7d8eb5db7" x="242.036892" y="498.678821" style="fill: #ffffff; stroke: #ffffff; stroke-width: 0.9"/>
    </g>
   </g>
   <g id="line2d_15">
    <path d="M 338.173514 583.31063 
L 338.173514 230.064818 
" clip-path="url(#p15bbc61df2)" style="fill: none; stroke: #494949; stroke-width: 1.5; stroke-linecap: round"/>
   </g>
   <g id="line2d_16">
    <path d="M 338.173514 539.154903 
L 338.173514 414.047012 
" clip-path="url(#p15bbc61df2)" style="fill: none; stroke: #494949; stroke-width: 4.5; stroke-linecap: round"/>
   </g>
   <g id="line2d_17">
    <path d="M 338.173514 509.717752 
" clip-path="url(#p15bbc61df2)" style="fill: none; stroke: #494949; stroke-width: 1.2; stroke-linecap: round"/>
    <g clip-path="url(#p15bbc61df2)">
     <use xlink:href="#mc7d8eb5db7" x="338.173514" y="509.717752" style="fill: #ffffff; stroke: #ffffff; stroke-width: 0.9"/>
    </g>
   </g>
   <g id="line2d_18">
    <path d="M 434.310137 583.31063 
L 434.310137 230.064818 
" clip-path="url(#p15bbc61df2)" style="fill: none; stroke: #494949; stroke-width: 1.5; stroke-linecap: round"/>
   </g>
   <g id="line2d_19">
    <path d="M 434.310137 542.834547 
L 434.310137 417.726656 
" clip-path="url(#p15bbc61df2)" style="fill: none; stroke: #494949; stroke-width: 4.5; stroke-linecap: round"/>
   </g>
   <g id="line2d_20">
    <path d="M 434.310137 513.397396 
" clip-path="url(#p15bbc61df2)" style="fill: none; stroke: #494949; stroke-width: 1.2; stroke-linecap: round"/>
    <g clip-path="url(#p15bbc61df2)">
     <use xlink:href="#mc7d8eb5db7" x="434.310137" y="513.397396" style="fill: #ffffff; stroke: #ffffff; stroke-width: 0.9"/>
    </g>
   </g>
   <g id="line2d_21">
    <path d="M 530.446759 583.31063 
L 530.446759 219.025887 
" clip-path="url(#p15bbc61df2)" style="fill: none; stroke: #494949; stroke-width: 1.5; stroke-linecap: round"/>
   </g>
   <g id="line2d_22">
    <path d="M 530.446759 539.154903 
L 530.446759 410.367368 
" clip-path="url(#p15bbc61df2)" style="fill: none; stroke: #494949; stroke-width: 4.5; stroke-linecap: round"/>
   </g>
   <g id="line2d_23">
    <path d="M 530.446759 506.038109 
" clip-path="url(#p15bbc61df2)" style="fill: none; stroke: #494949; stroke-width: 1.2; stroke-linecap: round"/>
    <g clip-path="url(#p15bbc61df2)">
     <use xlink:href="#mc7d8eb5db7" x="530.446759" y="506.038109" style="fill: #ffffff; stroke: #ffffff; stroke-width: 0.9"/>
    </g>
   </g>
   <g id="line2d_24">
    <path d="M 626.583381 579.630986 
L 626.583381 230.064818 
" clip-path="url(#p15bbc61df2)" style="fill: none; stroke: #494949; stroke-width: 1.5; stroke-linecap: round"/>
   </g>
   <g id="line2d_25">
    <path d="M 626.583381 542.834547 
L 626.583381 417.726656 
" clip-path="url(#p15bbc61df2)" style="fill: none; stroke: #494949; stroke-width: 4.5; stroke-linecap: round"/>
   </g>
   <g id="line2d_26">
    <path d="M 626.583381 506.038109 
" clip-path="url(#p15bbc61df2)" style="fill: none; stroke: #494949; stroke-width: 1.2; stroke-linecap: round"/>
    <g clip-path="url(#p15bbc61df2)">
     <use xlink:href="#mc7d8eb5db7" x="626.583381" y="506.038109" style="fill: #ffffff; stroke: #ffffff; stroke-width: 0.9"/>
    </g>
   </g>
   <g id="line2d_27">
    <path d="M 242.036892 186.497622 
L 242.036892 174.428319 
L 338.173514 174.428319 
L 338.173514 186.497622 
" style="fill: none; stroke: #333333; stroke-width: 1.5; stroke-linecap: round"/>
   </g>
   <g id="line2d_28">
    <path d="M 434.310137 182.817978 
L 434.310137 170.748676 
L 530.446759 170.748676 
L 530.446759 182.817978 
" style="fill: none; stroke: #333333; stroke-width: 1.5; stroke-linecap: round"/>
   </g>
   <g id="line2d_29">
    <path d="M 242.036892 137.585668 
L 242.036892 125.516366 
L 434.310137 125.516366 
L 434.310137 137.585668 
" style="fill: none; stroke: #333333; stroke-width: 1.5; stroke-linecap: round"/>
   </g>
   <g id="line2d_30">
    <path d="M 145.900269 92.353358 
L 145.900269 80.284055 
L 434.310137 80.284055 
L 434.310137 92.353358 
" style="fill: none; stroke: #333333; stroke-width: 1.5; stroke-linecap: round"/>
   </g>
   <g id="patch_3">
    <path d="M 79.566 645.866348 
L 79.566 40.416 
" style="fill: none; stroke: #cccccc; stroke-linejoin: miter; stroke-linecap: square"/>
   </g>
   <g id="patch_4">
    <path d="M 692.917651 645.866348 
L 692.917651 40.416 
" style="fill: none; stroke: #cccccc; stroke-linejoin: miter; stroke-linecap: square"/>
   </g>
   <g id="patch_5">
    <path d="M 79.566 645.866348 
L 692.917651 645.866348 
" style="fill: none; stroke: #cccccc; stroke-linejoin: miter; stroke-linecap: square"/>
   </g>
   <g id="patch_6">
    <path d="M 79.566 40.416 
L 692.917651 40.416 
" style="fill: none; stroke: #cccccc; stroke-linejoin: miter; stroke-linecap: square"/>
   </g>
   <g id="text_17">
    <!-- * -->
    <g style="fill: #262626" transform="translate(286.368703 169.612319) scale(0.192 -0.192)">
     <defs>
      <path id="ArialMT-2a" d="M 200 3741 
L 344 4184 
Q 841 4009 1066 3881 
Q 1006 4447 1003 4659 
L 1456 4659 
Q 1447 4350 1384 3884 
Q 1706 4047 2122 4184 
L 2266 3741 
Q 1869 3609 1488 3566 
Q 1678 3400 2025 2975 
L 1650 2709 
Q 1469 2956 1222 3381 
Q 991 2941 816 2709 
L 447 2975 
Q 809 3422 966 3566 
Q 563 3644 200 3741 
z
" transform="scale(0.015625)"/>
     </defs>
     <use xlink:href="#ArialMT-2a"/>
    </g>
   </g>
   <g id="text_18">
    <!-- * -->
    <g style="fill: #262626" transform="translate(478.641948 165.932676) scale(0.192 -0.192)">
     <use xlink:href="#ArialMT-2a"/>
    </g>
   </g>
   <g id="text_19">
    <!-- *** -->
    <g style="fill: #262626" transform="translate(326.964014 120.700366) scale(0.192 -0.192)">
     <use xlink:href="#ArialMT-2a"/>
     <use xlink:href="#ArialMT-2a" transform="translate(38.916016 0)"/>
     <use xlink:href="#ArialMT-2a" transform="translate(77.832031 0)"/>
    </g>
   </g>
   <g id="text_20">
    <!-- * -->
    <g style="fill: #262626" transform="translate(286.368703 75.468055) scale(0.192 -0.192)">
     <use xlink:href="#ArialMT-2a"/>
    </g>
   </g>
   <g id="text_21">
    <!-- Ranked Number of Discovery compounds per Fold per Target -->
    <g style="fill: #262626" transform="translate(124.977825 34.416) scale(0.192 -0.192)">
     <defs>
      <path id="ArialMT-6b" d="M 425 0 
L 425 4581 
L 988 4581 
L 988 1969 
L 2319 3319 
L 3047 3319 
L 1778 2088 
L 3175 0 
L 2481 0 
L 1384 1697 
L 988 1316 
L 988 0 
L 425 0 
z
" transform="scale(0.015625)"/>
      <path id="ArialMT-4e" d="M 488 0 
L 488 4581 
L 1109 4581 
L 3516 984 
L 3516 4581 
L 4097 4581 
L 4097 0 
L 3475 0 
L 1069 3600 
L 1069 0 
L 488 0 
z
" transform="scale(0.015625)"/>
      <path id="ArialMT-54" d="M 1659 0 
L 1659 4041 
L 150 4041 
L 150 4581 
L 3781 4581 
L 3781 4041 
L 2266 4041 
L 2266 0 
L 1659 0 
z
" transform="scale(0.015625)"/>
     </defs>
     <use xlink:href="#ArialMT-52"/>
     <use xlink:href="#ArialMT-61" transform="translate(72.216797 0)"/>
     <use xlink:href="#ArialMT-6e" transform="translate(127.832031 0)"/>
     <use xlink:href="#ArialMT-6b" transform="translate(183.447266 0)"/>
     <use xlink:href="#ArialMT-65" transform="translate(233.447266 0)"/>
     <use xlink:href="#ArialMT-64" transform="translate(289.0625 0)"/>
     <use xlink:href="#ArialMT-20" transform="translate(344.677734 0)"/>
     <use xlink:href="#ArialMT-4e" transform="translate(372.460938 0)"/>
     <use xlink:href="#ArialMT-75" transform="translate(444.677734 0)"/>
     <use xlink:href="#ArialMT-6d" transform="translate(500.292969 0)"/>
     <use xlink:href="#ArialMT-62" transform="translate(583.59375 0)"/>
     <use xlink:href="#ArialMT-65" transform="translate(639.208984 0)"/>
     <use xlink:href="#ArialMT-72" transform="translate(694.824219 0)"/>
     <use xlink:href="#ArialMT-20" transform="translate(728.125 0)"/>
     <use xlink:href="#ArialMT-6f" transform="translate(755.908203 0)"/>
     <use xlink:href="#ArialMT-66" transform="translate(811.523438 0)"/>
     <use xlink:href="#ArialMT-20" transform="translate(839.306641 0)"/>
     <use xlink:href="#ArialMT-44" transform="translate(867.089844 0)"/>
     <use xlink:href="#ArialMT-69" transform="translate(939.306641 0)"/>
     <use xlink:href="#ArialMT-73" transform="translate(961.523438 0)"/>
     <use xlink:href="#ArialMT-63" transform="translate(1011.523438 0)"/>
     <use xlink:href="#ArialMT-6f" transform="translate(1061.523438 0)"/>
     <use xlink:href="#ArialMT-76" transform="translate(1117.138672 0)"/>
     <use xlink:href="#ArialMT-65" transform="translate(1167.138672 0)"/>
     <use xlink:href="#ArialMT-72" transform="translate(1222.753906 0)"/>
     <use xlink:href="#ArialMT-79" transform="translate(1256.054688 0)"/>
     <use xlink:href="#ArialMT-20" transform="translate(1306.054688 0)"/>
     <use xlink:href="#ArialMT-63" transform="translate(1333.837891 0)"/>
     <use xlink:href="#ArialMT-6f" transform="translate(1383.837891 0)"/>
     <use xlink:href="#ArialMT-6d" transform="translate(1439.453125 0)"/>
     <use xlink:href="#ArialMT-70" transform="translate(1522.753906 0)"/>
     <use xlink:href="#ArialMT-6f" transform="translate(1578.369141 0)"/>
     <use xlink:href="#ArialMT-75" transform="translate(1633.984375 0)"/>
     <use xlink:href="#ArialMT-6e" transform="translate(1689.599609 0)"/>
     <use xlink:href="#ArialMT-64" transform="translate(1745.214844 0)"/>
     <use xlink:href="#ArialMT-73" transform="translate(1800.830078 0)"/>
     <use xlink:href="#ArialMT-20" transform="translate(1850.830078 0)"/>
     <use xlink:href="#ArialMT-70" transform="translate(1878.613281 0)"/>
     <use xlink:href="#ArialMT-65" transform="translate(1934.228516 0)"/>
     <use xlink:href="#ArialMT-72" transform="translate(1989.84375 0)"/>
     <use xlink:href="#ArialMT-20" transform="translate(2023.144531 0)"/>
     <use xlink:href="#ArialMT-46" transform="translate(2050.927734 0)"/>
     <use xlink:href="#ArialMT-6f" transform="translate(2112.011719 0)"/>
     <use xlink:href="#ArialMT-6c" transform="translate(2167.626953 0)"/>
     <use xlink:href="#ArialMT-64" transform="translate(2189.84375 0)"/>
     <use xlink:href="#ArialMT-20" transform="translate(2245.458984 0)"/>
     <use xlink:href="#ArialMT-70" transform="translate(2273.242188 0)"/>
     <use xlink:href="#ArialMT-65" transform="translate(2328.857422 0)"/>
     <use xlink:href="#ArialMT-72" transform="translate(2384.472656 0)"/>
     <use xlink:href="#ArialMT-20" transform="translate(2417.773438 0)"/>
     <use xlink:href="#ArialMT-54" transform="translate(2443.806641 0)"/>
     <use xlink:href="#ArialMT-61" transform="translate(2493.765625 0)"/>
     <use xlink:href="#ArialMT-72" transform="translate(2549.380859 0)"/>
     <use xlink:href="#ArialMT-67" transform="translate(2582.681641 0)"/>
     <use xlink:href="#ArialMT-65" transform="translate(2638.296875 0)"/>
     <use xlink:href="#ArialMT-74" transform="translate(2693.912109 0)"/>
    </g>
   </g>
  </g>
 </g>
 <defs>
  <clipPath id="p15bbc61df2">
   <rect x="79.566" y="40.416" width="613.351651" height="605.450348"/>
  </clipPath>
 </defs>
</svg>
