<?xml version="1.0" encoding="utf-8" standalone="no"?>
<!DOCTYPE svg PUBLIC "-//W3C//DTD SVG 1.1//EN"
  "http://www.w3.org/Graphics/SVG/1.1/DTD/svg11.dtd">
<svg xmlns:xlink="http://www.w3.org/1999/xlink" width="576pt" height="936pt" viewBox="0 0 576 936" xmlns="http://www.w3.org/2000/svg" version="1.1">
 <metadata>
  <rdf:RDF xmlns:dc="http://purl.org/dc/elements/1.1/" xmlns:cc="http://creativecommons.org/ns#" xmlns:rdf="http://www.w3.org/1999/02/22-rdf-syntax-ns#">
   <cc:Work>
    <dc:type rdf:resource="http://purl.org/dc/dcmitype/StillImage"/>
    <dc:date>2025-02-25T23:43:09.158893</dc:date>
    <dc:format>image/svg+xml</dc:format>
    <dc:creator>
     <cc:Agent>
      <dc:title>Matplotlib v3.10.0, https://matplotlib.org/</dc:title>
     </cc:Agent>
    </dc:creator>
   </cc:Work>
  </rdf:RDF>
 </metadata>
 <defs>
  <style type="text/css">*{stroke-linejoin: round; stroke-linecap: butt}</style>
 </defs>
 <g id="figure_1">
  <g id="patch_1">
   <path d="M 0 936 
L 576 936 
L 576 0 
L 0 0 
z
" style="fill: #ffffff"/>
  </g>
  <g id="axes_1">
   <g id="patch_2">
    <path d="M 79.566 717.866348 
L 536.848058 717.866348 
L 536.848058 40.416 
L 79.566 40.416 
z
" style="fill: #ffffff"/>
   </g>
   <g id="matplotlib.axis_1">
    <g id="xtick_1">
     <g id="text_1">
      <!-- RandomSplit -->
      <g style="fill: #262626" transform="translate(96.691287 806.472111) rotate(-45) scale(0.176 -0.176)">
       <defs>
        <path id="ArialMT-52" d="M 503 0 
L 503 4581 
L 2534 4581 
Q 3147 4581 3465 4457 
Q 3784 4334 3975 4021 
Q 4166 3709 4166 3331 
Q 4166 2844 3850 2509 
Q 3534 2175 2875 2084 
Q 3116 1969 3241 1856 
Q 3506 1613 3744 1247 
L 4541 0 
L 3778 0 
L 3172 953 
Q 2906 1366 2734 1584 
Q 2563 1803 2427 1890 
Q 2291 1978 2150 2013 
Q 2047 2034 1813 2034 
L 1109 2034 
L 1109 0 
L 503 0 
z
M 1109 2559 
L 2413 2559 
Q 2828 2559 3062 2645 
Q 3297 2731 3419 2920 
Q 3541 3109 3541 3331 
Q 3541 3656 3305 3865 
Q 3069 4075 2559 4075 
L 1109 4075 
L 1109 2559 
z
" transform="scale(0.015625)"/>
        <path id="ArialMT-61" d="M 2588 409 
Q 2275 144 1986 34 
Q 1697 -75 1366 -75 
Q 819 -75 525 192 
Q 231 459 231 875 
Q 231 1119 342 1320 
Q 453 1522 633 1644 
Q 813 1766 1038 1828 
Q 1203 1872 1538 1913 
Q 2219 1994 2541 2106 
Q 2544 2222 2544 2253 
Q 2544 2597 2384 2738 
Q 2169 2928 1744 2928 
Q 1347 2928 1158 2789 
Q 969 2650 878 2297 
L 328 2372 
Q 403 2725 575 2942 
Q 747 3159 1072 3276 
Q 1397 3394 1825 3394 
Q 2250 3394 2515 3294 
Q 2781 3194 2906 3042 
Q 3031 2891 3081 2659 
Q 3109 2516 3109 2141 
L 3109 1391 
Q 3109 606 3145 398 
Q 3181 191 3288 0 
L 2700 0 
Q 2613 175 2588 409 
z
M 2541 1666 
Q 2234 1541 1622 1453 
Q 1275 1403 1131 1340 
Q 988 1278 909 1158 
Q 831 1038 831 891 
Q 831 666 1001 516 
Q 1172 366 1500 366 
Q 1825 366 2078 508 
Q 2331 650 2450 897 
Q 2541 1088 2541 1459 
L 2541 1666 
z
" transform="scale(0.015625)"/>
        <path id="ArialMT-6e" d="M 422 0 
L 422 3319 
L 928 3319 
L 928 2847 
Q 1294 3394 1984 3394 
Q 2284 3394 2536 3286 
Q 2788 3178 2913 3003 
Q 3038 2828 3088 2588 
Q 3119 2431 3119 2041 
L 3119 0 
L 2556 0 
L 2556 2019 
Q 2556 2363 2490 2533 
Q 2425 2703 2258 2804 
Q 2091 2906 1866 2906 
Q 1506 2906 1245 2678 
Q 984 2450 984 1813 
L 984 0 
L 422 0 
z
" transform="scale(0.015625)"/>
        <path id="ArialMT-64" d="M 2575 0 
L 2575 419 
Q 2259 -75 1647 -75 
Q 1250 -75 917 144 
Q 584 363 401 755 
Q 219 1147 219 1656 
Q 219 2153 384 2558 
Q 550 2963 881 3178 
Q 1213 3394 1622 3394 
Q 1922 3394 2156 3267 
Q 2391 3141 2538 2938 
L 2538 4581 
L 3097 4581 
L 3097 0 
L 2575 0 
z
M 797 1656 
Q 797 1019 1065 703 
Q 1334 388 1700 388 
Q 2069 388 2326 689 
Q 2584 991 2584 1609 
Q 2584 2291 2321 2609 
Q 2059 2928 1675 2928 
Q 1300 2928 1048 2622 
Q 797 2316 797 1656 
z
" transform="scale(0.015625)"/>
        <path id="ArialMT-6f" d="M 213 1659 
Q 213 2581 725 3025 
Q 1153 3394 1769 3394 
Q 2453 3394 2887 2945 
Q 3322 2497 3322 1706 
Q 3322 1066 3130 698 
Q 2938 331 2570 128 
Q 2203 -75 1769 -75 
Q 1072 -75 642 372 
Q 213 819 213 1659 
z
M 791 1659 
Q 791 1022 1069 705 
Q 1347 388 1769 388 
Q 2188 388 2466 706 
Q 2744 1025 2744 1678 
Q 2744 2294 2464 2611 
Q 2184 2928 1769 2928 
Q 1347 2928 1069 2612 
Q 791 2297 791 1659 
z
" transform="scale(0.015625)"/>
        <path id="ArialMT-6d" d="M 422 0 
L 422 3319 
L 925 3319 
L 925 2853 
Q 1081 3097 1340 3245 
Q 1600 3394 1931 3394 
Q 2300 3394 2536 3241 
Q 2772 3088 2869 2813 
Q 3263 3394 3894 3394 
Q 4388 3394 4653 3120 
Q 4919 2847 4919 2278 
L 4919 0 
L 4359 0 
L 4359 2091 
Q 4359 2428 4304 2576 
Q 4250 2725 4106 2815 
Q 3963 2906 3769 2906 
Q 3419 2906 3187 2673 
Q 2956 2441 2956 1928 
L 2956 0 
L 2394 0 
L 2394 2156 
Q 2394 2531 2256 2718 
Q 2119 2906 1806 2906 
Q 1569 2906 1367 2781 
Q 1166 2656 1075 2415 
Q 984 2175 984 1722 
L 984 0 
L 422 0 
z
" transform="scale(0.015625)"/>
        <path id="ArialMT-53" d="M 288 1472 
L 859 1522 
Q 900 1178 1048 958 
Q 1197 738 1509 602 
Q 1822 466 2213 466 
Q 2559 466 2825 569 
Q 3091 672 3220 851 
Q 3350 1031 3350 1244 
Q 3350 1459 3225 1620 
Q 3100 1781 2813 1891 
Q 2628 1963 1997 2114 
Q 1366 2266 1113 2400 
Q 784 2572 623 2826 
Q 463 3081 463 3397 
Q 463 3744 659 4045 
Q 856 4347 1234 4503 
Q 1613 4659 2075 4659 
Q 2584 4659 2973 4495 
Q 3363 4331 3572 4012 
Q 3781 3694 3797 3291 
L 3216 3247 
Q 3169 3681 2898 3903 
Q 2628 4125 2100 4125 
Q 1550 4125 1298 3923 
Q 1047 3722 1047 3438 
Q 1047 3191 1225 3031 
Q 1400 2872 2139 2705 
Q 2878 2538 3153 2413 
Q 3553 2228 3743 1945 
Q 3934 1663 3934 1294 
Q 3934 928 3725 604 
Q 3516 281 3123 101 
Q 2731 -78 2241 -78 
Q 1619 -78 1198 103 
Q 778 284 539 648 
Q 300 1013 288 1472 
z
" transform="scale(0.015625)"/>
        <path id="ArialMT-70" d="M 422 -1272 
L 422 3319 
L 934 3319 
L 934 2888 
Q 1116 3141 1344 3267 
Q 1572 3394 1897 3394 
Q 2322 3394 2647 3175 
Q 2972 2956 3137 2557 
Q 3303 2159 3303 1684 
Q 3303 1175 3120 767 
Q 2938 359 2589 142 
Q 2241 -75 1856 -75 
Q 1575 -75 1351 44 
Q 1128 163 984 344 
L 984 -1272 
L 422 -1272 
z
M 931 1641 
Q 931 1000 1190 694 
Q 1450 388 1819 388 
Q 2194 388 2461 705 
Q 2728 1022 2728 1688 
Q 2728 2322 2467 2637 
Q 2206 2953 1844 2953 
Q 1484 2953 1207 2617 
Q 931 2281 931 1641 
z
" transform="scale(0.015625)"/>
        <path id="ArialMT-6c" d="M 409 0 
L 409 4581 
L 972 4581 
L 972 0 
L 409 0 
z
" transform="scale(0.015625)"/>
        <path id="ArialMT-69" d="M 425 3934 
L 425 4581 
L 988 4581 
L 988 3934 
L 425 3934 
z
M 425 0 
L 425 3319 
L 988 3319 
L 988 0 
L 425 0 
z
" transform="scale(0.015625)"/>
        <path id="ArialMT-74" d="M 1650 503 
L 1731 6 
Q 1494 -44 1306 -44 
Q 1000 -44 831 53 
Q 663 150 594 308 
Q 525 466 525 972 
L 525 2881 
L 113 2881 
L 113 3319 
L 525 3319 
L 525 4141 
L 1084 4478 
L 1084 3319 
L 1650 3319 
L 1650 2881 
L 1084 2881 
L 1084 941 
Q 1084 700 1114 631 
Q 1144 563 1211 522 
Q 1278 481 1403 481 
Q 1497 481 1650 503 
z
" transform="scale(0.015625)"/>
       </defs>
       <use xlink:href="#ArialMT-52"/>
       <use xlink:href="#ArialMT-61" transform="translate(72.216797 0)"/>
       <use xlink:href="#ArialMT-6e" transform="translate(127.832031 0)"/>
       <use xlink:href="#ArialMT-64" transform="translate(183.447266 0)"/>
       <use xlink:href="#ArialMT-6f" transform="translate(239.0625 0)"/>
       <use xlink:href="#ArialMT-6d" transform="translate(294.677734 0)"/>
       <use xlink:href="#ArialMT-53" transform="translate(377.978516 0)"/>
       <use xlink:href="#ArialMT-70" transform="translate(444.677734 0)"/>
       <use xlink:href="#ArialMT-6c" transform="translate(500.292969 0)"/>
       <use xlink:href="#ArialMT-69" transform="translate(522.509766 0)"/>
       <use xlink:href="#ArialMT-74" transform="translate(544.726562 0)"/>
      </g>
     </g>
    </g>
    <g id="xtick_2">
     <g id="text_2">
      <!-- ScaffoldSplit -->
      <g style="fill: #262626" transform="translate(169.509955 804.183383) rotate(-45) scale(0.176 -0.176)">
       <defs>
        <path id="ArialMT-63" d="M 2588 1216 
L 3141 1144 
Q 3050 572 2676 248 
Q 2303 -75 1759 -75 
Q 1078 -75 664 370 
Q 250 816 250 1647 
Q 250 2184 428 2587 
Q 606 2991 970 3192 
Q 1334 3394 1763 3394 
Q 2303 3394 2647 3120 
Q 2991 2847 3088 2344 
L 2541 2259 
Q 2463 2594 2264 2762 
Q 2066 2931 1784 2931 
Q 1359 2931 1093 2626 
Q 828 2322 828 1663 
Q 828 994 1084 691 
Q 1341 388 1753 388 
Q 2084 388 2306 591 
Q 2528 794 2588 1216 
z
" transform="scale(0.015625)"/>
        <path id="ArialMT-66" d="M 556 0 
L 556 2881 
L 59 2881 
L 59 3319 
L 556 3319 
L 556 3672 
Q 556 4006 616 4169 
Q 697 4388 901 4523 
Q 1106 4659 1475 4659 
Q 1713 4659 2000 4603 
L 1916 4113 
Q 1741 4144 1584 4144 
Q 1328 4144 1222 4034 
Q 1116 3925 1116 3625 
L 1116 3319 
L 1763 3319 
L 1763 2881 
L 1116 2881 
L 1116 0 
L 556 0 
z
" transform="scale(0.015625)"/>
       </defs>
       <use xlink:href="#ArialMT-53"/>
       <use xlink:href="#ArialMT-63" transform="translate(66.699219 0)"/>
       <use xlink:href="#ArialMT-61" transform="translate(116.699219 0)"/>
       <use xlink:href="#ArialMT-66" transform="translate(172.314453 0)"/>
       <use xlink:href="#ArialMT-66" transform="translate(198.347656 0)"/>
       <use xlink:href="#ArialMT-6f" transform="translate(226.130859 0)"/>
       <use xlink:href="#ArialMT-6c" transform="translate(281.746094 0)"/>
       <use xlink:href="#ArialMT-64" transform="translate(303.962891 0)"/>
       <use xlink:href="#ArialMT-53" transform="translate(359.578125 0)"/>
       <use xlink:href="#ArialMT-70" transform="translate(426.277344 0)"/>
       <use xlink:href="#ArialMT-6c" transform="translate(481.892578 0)"/>
       <use xlink:href="#ArialMT-69" transform="translate(504.109375 0)"/>
       <use xlink:href="#ArialMT-74" transform="translate(526.326172 0)"/>
      </g>
     </g>
    </g>
    <g id="xtick_3">
     <g id="text_3">
      <!-- SortedStepForward_LogD -->
      <g style="fill: #262626" transform="translate(203.303576 879.798908) rotate(-45) scale(0.176 -0.176)">
       <defs>
        <path id="ArialMT-72" d="M 416 0 
L 416 3319 
L 922 3319 
L 922 2816 
Q 1116 3169 1280 3281 
Q 1444 3394 1641 3394 
Q 1925 3394 2219 3213 
L 2025 2691 
Q 1819 2813 1613 2813 
Q 1428 2813 1281 2702 
Q 1134 2591 1072 2394 
Q 978 2094 978 1738 
L 978 0 
L 416 0 
z
" transform="scale(0.015625)"/>
        <path id="ArialMT-65" d="M 2694 1069 
L 3275 997 
Q 3138 488 2766 206 
Q 2394 -75 1816 -75 
Q 1088 -75 661 373 
Q 234 822 234 1631 
Q 234 2469 665 2931 
Q 1097 3394 1784 3394 
Q 2450 3394 2872 2941 
Q 3294 2488 3294 1666 
Q 3294 1616 3291 1516 
L 816 1516 
Q 847 969 1125 678 
Q 1403 388 1819 388 
Q 2128 388 2347 550 
Q 2566 713 2694 1069 
z
M 847 1978 
L 2700 1978 
Q 2663 2397 2488 2606 
Q 2219 2931 1791 2931 
Q 1403 2931 1139 2672 
Q 875 2413 847 1978 
z
" transform="scale(0.015625)"/>
        <path id="ArialMT-46" d="M 525 0 
L 525 4581 
L 3616 4581 
L 3616 4041 
L 1131 4041 
L 1131 2622 
L 3281 2622 
L 3281 2081 
L 1131 2081 
L 1131 0 
L 525 0 
z
" transform="scale(0.015625)"/>
        <path id="ArialMT-77" d="M 1034 0 
L 19 3319 
L 600 3319 
L 1128 1403 
L 1325 691 
Q 1338 744 1497 1375 
L 2025 3319 
L 2603 3319 
L 3100 1394 
L 3266 759 
L 3456 1400 
L 4025 3319 
L 4572 3319 
L 3534 0 
L 2950 0 
L 2422 1988 
L 2294 2553 
L 1622 0 
L 1034 0 
z
" transform="scale(0.015625)"/>
        <path id="ArialMT-5f" d="M -97 -1272 
L -97 -866 
L 3631 -866 
L 3631 -1272 
L -97 -1272 
z
" transform="scale(0.015625)"/>
        <path id="ArialMT-4c" d="M 469 0 
L 469 4581 
L 1075 4581 
L 1075 541 
L 3331 541 
L 3331 0 
L 469 0 
z
" transform="scale(0.015625)"/>
        <path id="ArialMT-67" d="M 319 -275 
L 866 -356 
Q 900 -609 1056 -725 
Q 1266 -881 1628 -881 
Q 2019 -881 2231 -725 
Q 2444 -569 2519 -288 
Q 2563 -116 2559 434 
Q 2191 0 1641 0 
Q 956 0 581 494 
Q 206 988 206 1678 
Q 206 2153 378 2554 
Q 550 2956 876 3175 
Q 1203 3394 1644 3394 
Q 2231 3394 2613 2919 
L 2613 3319 
L 3131 3319 
L 3131 450 
Q 3131 -325 2973 -648 
Q 2816 -972 2473 -1159 
Q 2131 -1347 1631 -1347 
Q 1038 -1347 672 -1080 
Q 306 -813 319 -275 
z
M 784 1719 
Q 784 1066 1043 766 
Q 1303 466 1694 466 
Q 2081 466 2343 764 
Q 2606 1063 2606 1700 
Q 2606 2309 2336 2618 
Q 2066 2928 1684 2928 
Q 1309 2928 1046 2623 
Q 784 2319 784 1719 
z
" transform="scale(0.015625)"/>
        <path id="ArialMT-44" d="M 494 0 
L 494 4581 
L 2072 4581 
Q 2606 4581 2888 4516 
Q 3281 4425 3559 4188 
Q 3922 3881 4101 3404 
Q 4281 2928 4281 2316 
Q 4281 1794 4159 1391 
Q 4038 988 3847 723 
Q 3656 459 3429 307 
Q 3203 156 2883 78 
Q 2563 0 2147 0 
L 494 0 
z
M 1100 541 
L 2078 541 
Q 2531 541 2789 625 
Q 3047 709 3200 863 
Q 3416 1078 3536 1442 
Q 3656 1806 3656 2325 
Q 3656 3044 3420 3430 
Q 3184 3816 2847 3947 
Q 2603 4041 2063 4041 
L 1100 4041 
L 1100 541 
z
" transform="scale(0.015625)"/>
       </defs>
       <use xlink:href="#ArialMT-53"/>
       <use xlink:href="#ArialMT-6f" transform="translate(66.699219 0)"/>
       <use xlink:href="#ArialMT-72" transform="translate(122.314453 0)"/>
       <use xlink:href="#ArialMT-74" transform="translate(155.615234 0)"/>
       <use xlink:href="#ArialMT-65" transform="translate(183.398438 0)"/>
       <use xlink:href="#ArialMT-64" transform="translate(239.013672 0)"/>
       <use xlink:href="#ArialMT-53" transform="translate(294.628906 0)"/>
       <use xlink:href="#ArialMT-74" transform="translate(361.328125 0)"/>
       <use xlink:href="#ArialMT-65" transform="translate(389.111328 0)"/>
       <use xlink:href="#ArialMT-70" transform="translate(444.726562 0)"/>
       <use xlink:href="#ArialMT-46" transform="translate(500.341797 0)"/>
       <use xlink:href="#ArialMT-6f" transform="translate(561.425781 0)"/>
       <use xlink:href="#ArialMT-72" transform="translate(617.041016 0)"/>
       <use xlink:href="#ArialMT-77" transform="translate(650.341797 0)"/>
       <use xlink:href="#ArialMT-61" transform="translate(722.558594 0)"/>
       <use xlink:href="#ArialMT-72" transform="translate(778.173828 0)"/>
       <use xlink:href="#ArialMT-64" transform="translate(811.474609 0)"/>
       <use xlink:href="#ArialMT-5f" transform="translate(867.089844 0)"/>
       <use xlink:href="#ArialMT-4c" transform="translate(922.705078 0)"/>
       <use xlink:href="#ArialMT-6f" transform="translate(978.320312 0)"/>
       <use xlink:href="#ArialMT-67" transform="translate(1033.935547 0)"/>
       <use xlink:href="#ArialMT-44" transform="translate(1089.550781 0)"/>
      </g>
     </g>
    </g>
    <g id="xtick_4">
     <g id="text_4">
      <!-- SortedStepForward_LogP -->
      <g style="fill: #262626" transform="translate(275.321092 879.112484) rotate(-45) scale(0.176 -0.176)">
       <defs>
        <path id="ArialMT-50" d="M 494 0 
L 494 4581 
L 2222 4581 
Q 2678 4581 2919 4538 
Q 3256 4481 3484 4323 
Q 3713 4166 3852 3881 
Q 3991 3597 3991 3256 
Q 3991 2672 3619 2267 
Q 3247 1863 2275 1863 
L 1100 1863 
L 1100 0 
L 494 0 
z
M 1100 2403 
L 2284 2403 
Q 2872 2403 3119 2622 
Q 3366 2841 3366 3238 
Q 3366 3525 3220 3729 
Q 3075 3934 2838 4000 
Q 2684 4041 2272 4041 
L 1100 4041 
L 1100 2403 
z
" transform="scale(0.015625)"/>
       </defs>
       <use xlink:href="#ArialMT-53"/>
       <use xlink:href="#ArialMT-6f" transform="translate(66.699219 0)"/>
       <use xlink:href="#ArialMT-72" transform="translate(122.314453 0)"/>
       <use xlink:href="#ArialMT-74" transform="translate(155.615234 0)"/>
       <use xlink:href="#ArialMT-65" transform="translate(183.398438 0)"/>
       <use xlink:href="#ArialMT-64" transform="translate(239.013672 0)"/>
       <use xlink:href="#ArialMT-53" transform="translate(294.628906 0)"/>
       <use xlink:href="#ArialMT-74" transform="translate(361.328125 0)"/>
       <use xlink:href="#ArialMT-65" transform="translate(389.111328 0)"/>
       <use xlink:href="#ArialMT-70" transform="translate(444.726562 0)"/>
       <use xlink:href="#ArialMT-46" transform="translate(500.341797 0)"/>
       <use xlink:href="#ArialMT-6f" transform="translate(561.425781 0)"/>
       <use xlink:href="#ArialMT-72" transform="translate(617.041016 0)"/>
       <use xlink:href="#ArialMT-77" transform="translate(650.341797 0)"/>
       <use xlink:href="#ArialMT-61" transform="translate(722.558594 0)"/>
       <use xlink:href="#ArialMT-72" transform="translate(778.173828 0)"/>
       <use xlink:href="#ArialMT-64" transform="translate(811.474609 0)"/>
       <use xlink:href="#ArialMT-5f" transform="translate(867.089844 0)"/>
       <use xlink:href="#ArialMT-4c" transform="translate(922.705078 0)"/>
       <use xlink:href="#ArialMT-6f" transform="translate(978.320312 0)"/>
       <use xlink:href="#ArialMT-67" transform="translate(1033.935547 0)"/>
       <use xlink:href="#ArialMT-50" transform="translate(1089.550781 0)"/>
      </g>
     </g>
    </g>
    <g id="xtick_5">
     <g id="text_5">
      <!-- SortedStepForward_MCE18 -->
      <g style="fill: #262626" transform="translate(340.85161 891.545896) rotate(-45) scale(0.176 -0.176)">
       <defs>
        <path id="ArialMT-4d" d="M 475 0 
L 475 4581 
L 1388 4581 
L 2472 1338 
Q 2622 884 2691 659 
Q 2769 909 2934 1394 
L 4031 4581 
L 4847 4581 
L 4847 0 
L 4263 0 
L 4263 3834 
L 2931 0 
L 2384 0 
L 1059 3900 
L 1059 0 
L 475 0 
z
" transform="scale(0.015625)"/>
        <path id="ArialMT-43" d="M 3763 1606 
L 4369 1453 
Q 4178 706 3683 314 
Q 3188 -78 2472 -78 
Q 1731 -78 1267 223 
Q 803 525 561 1097 
Q 319 1669 319 2325 
Q 319 3041 592 3573 
Q 866 4106 1370 4382 
Q 1875 4659 2481 4659 
Q 3169 4659 3637 4309 
Q 4106 3959 4291 3325 
L 3694 3184 
Q 3534 3684 3231 3912 
Q 2928 4141 2469 4141 
Q 1941 4141 1586 3887 
Q 1231 3634 1087 3207 
Q 944 2781 944 2328 
Q 944 1744 1114 1308 
Q 1284 872 1643 656 
Q 2003 441 2422 441 
Q 2931 441 3284 734 
Q 3638 1028 3763 1606 
z
" transform="scale(0.015625)"/>
        <path id="ArialMT-45" d="M 506 0 
L 506 4581 
L 3819 4581 
L 3819 4041 
L 1113 4041 
L 1113 2638 
L 3647 2638 
L 3647 2100 
L 1113 2100 
L 1113 541 
L 3925 541 
L 3925 0 
L 506 0 
z
" transform="scale(0.015625)"/>
        <path id="ArialMT-31" d="M 2384 0 
L 1822 0 
L 1822 3584 
Q 1619 3391 1289 3197 
Q 959 3003 697 2906 
L 697 3450 
Q 1169 3672 1522 3987 
Q 1875 4303 2022 4600 
L 2384 4600 
L 2384 0 
z
" transform="scale(0.015625)"/>
        <path id="ArialMT-38" d="M 1131 2484 
Q 781 2613 612 2850 
Q 444 3088 444 3419 
Q 444 3919 803 4259 
Q 1163 4600 1759 4600 
Q 2359 4600 2725 4251 
Q 3091 3903 3091 3403 
Q 3091 3084 2923 2848 
Q 2756 2613 2416 2484 
Q 2838 2347 3058 2040 
Q 3278 1734 3278 1309 
Q 3278 722 2862 322 
Q 2447 -78 1769 -78 
Q 1091 -78 675 323 
Q 259 725 259 1325 
Q 259 1772 486 2073 
Q 713 2375 1131 2484 
z
M 1019 3438 
Q 1019 3113 1228 2906 
Q 1438 2700 1772 2700 
Q 2097 2700 2305 2904 
Q 2513 3109 2513 3406 
Q 2513 3716 2298 3927 
Q 2084 4138 1766 4138 
Q 1444 4138 1231 3931 
Q 1019 3725 1019 3438 
z
M 838 1322 
Q 838 1081 952 856 
Q 1066 631 1291 507 
Q 1516 384 1775 384 
Q 2178 384 2440 643 
Q 2703 903 2703 1303 
Q 2703 1709 2433 1975 
Q 2163 2241 1756 2241 
Q 1359 2241 1098 1978 
Q 838 1716 838 1322 
z
" transform="scale(0.015625)"/>
       </defs>
       <use xlink:href="#ArialMT-53"/>
       <use xlink:href="#ArialMT-6f" transform="translate(66.699219 0)"/>
       <use xlink:href="#ArialMT-72" transform="translate(122.314453 0)"/>
       <use xlink:href="#ArialMT-74" transform="translate(155.615234 0)"/>
       <use xlink:href="#ArialMT-65" transform="translate(183.398438 0)"/>
       <use xlink:href="#ArialMT-64" transform="translate(239.013672 0)"/>
       <use xlink:href="#ArialMT-53" transform="translate(294.628906 0)"/>
       <use xlink:href="#ArialMT-74" transform="translate(361.328125 0)"/>
       <use xlink:href="#ArialMT-65" transform="translate(389.111328 0)"/>
       <use xlink:href="#ArialMT-70" transform="translate(444.726562 0)"/>
       <use xlink:href="#ArialMT-46" transform="translate(500.341797 0)"/>
       <use xlink:href="#ArialMT-6f" transform="translate(561.425781 0)"/>
       <use xlink:href="#ArialMT-72" transform="translate(617.041016 0)"/>
       <use xlink:href="#ArialMT-77" transform="translate(650.341797 0)"/>
       <use xlink:href="#ArialMT-61" transform="translate(722.558594 0)"/>
       <use xlink:href="#ArialMT-72" transform="translate(778.173828 0)"/>
       <use xlink:href="#ArialMT-64" transform="translate(811.474609 0)"/>
       <use xlink:href="#ArialMT-5f" transform="translate(867.089844 0)"/>
       <use xlink:href="#ArialMT-4d" transform="translate(922.705078 0)"/>
       <use xlink:href="#ArialMT-43" transform="translate(1006.005859 0)"/>
       <use xlink:href="#ArialMT-45" transform="translate(1078.222656 0)"/>
       <use xlink:href="#ArialMT-31" transform="translate(1144.921875 0)"/>
       <use xlink:href="#ArialMT-38" transform="translate(1200.537109 0)"/>
      </g>
     </g>
    </g>
    <g id="xtick_6">
     <g id="text_6">
      <!-- UnsortedStepForward -->
      <g style="fill: #262626" transform="translate(429.819713 856.958298) rotate(-45) scale(0.176 -0.176)">
       <defs>
        <path id="ArialMT-55" d="M 3500 4581 
L 4106 4581 
L 4106 1934 
Q 4106 1244 3950 837 
Q 3794 431 3386 176 
Q 2978 -78 2316 -78 
Q 1672 -78 1262 144 
Q 853 366 678 786 
Q 503 1206 503 1934 
L 503 4581 
L 1109 4581 
L 1109 1938 
Q 1109 1341 1220 1058 
Q 1331 775 1601 622 
Q 1872 469 2263 469 
Q 2931 469 3215 772 
Q 3500 1075 3500 1938 
L 3500 4581 
z
" transform="scale(0.015625)"/>
        <path id="ArialMT-73" d="M 197 991 
L 753 1078 
Q 800 744 1014 566 
Q 1228 388 1613 388 
Q 2000 388 2187 545 
Q 2375 703 2375 916 
Q 2375 1106 2209 1216 
Q 2094 1291 1634 1406 
Q 1016 1563 777 1677 
Q 538 1791 414 1992 
Q 291 2194 291 2438 
Q 291 2659 392 2848 
Q 494 3038 669 3163 
Q 800 3259 1026 3326 
Q 1253 3394 1513 3394 
Q 1903 3394 2198 3281 
Q 2494 3169 2634 2976 
Q 2775 2784 2828 2463 
L 2278 2388 
Q 2241 2644 2061 2787 
Q 1881 2931 1553 2931 
Q 1166 2931 1000 2803 
Q 834 2675 834 2503 
Q 834 2394 903 2306 
Q 972 2216 1119 2156 
Q 1203 2125 1616 2013 
Q 2213 1853 2448 1751 
Q 2684 1650 2818 1456 
Q 2953 1263 2953 975 
Q 2953 694 2789 445 
Q 2625 197 2315 61 
Q 2006 -75 1616 -75 
Q 969 -75 630 194 
Q 291 463 197 991 
z
" transform="scale(0.015625)"/>
       </defs>
       <use xlink:href="#ArialMT-55"/>
       <use xlink:href="#ArialMT-6e" transform="translate(72.216797 0)"/>
       <use xlink:href="#ArialMT-73" transform="translate(127.832031 0)"/>
       <use xlink:href="#ArialMT-6f" transform="translate(177.832031 0)"/>
       <use xlink:href="#ArialMT-72" transform="translate(233.447266 0)"/>
       <use xlink:href="#ArialMT-74" transform="translate(266.748047 0)"/>
       <use xlink:href="#ArialMT-65" transform="translate(294.53125 0)"/>
       <use xlink:href="#ArialMT-64" transform="translate(350.146484 0)"/>
       <use xlink:href="#ArialMT-53" transform="translate(405.761719 0)"/>
       <use xlink:href="#ArialMT-74" transform="translate(472.460938 0)"/>
       <use xlink:href="#ArialMT-65" transform="translate(500.244141 0)"/>
       <use xlink:href="#ArialMT-70" transform="translate(555.859375 0)"/>
       <use xlink:href="#ArialMT-46" transform="translate(611.474609 0)"/>
       <use xlink:href="#ArialMT-6f" transform="translate(672.558594 0)"/>
       <use xlink:href="#ArialMT-72" transform="translate(728.173828 0)"/>
       <use xlink:href="#ArialMT-77" transform="translate(761.474609 0)"/>
       <use xlink:href="#ArialMT-61" transform="translate(833.691406 0)"/>
       <use xlink:href="#ArialMT-72" transform="translate(889.306641 0)"/>
       <use xlink:href="#ArialMT-64" transform="translate(922.607422 0)"/>
      </g>
     </g>
    </g>
    <g id="text_7">
     <!-- split_type -->
     <g style="fill: #262626" transform="translate(267.653029 911.762355) scale(0.192 -0.192)">
      <defs>
       <path id="ArialMT-79" d="M 397 -1278 
L 334 -750 
Q 519 -800 656 -800 
Q 844 -800 956 -737 
Q 1069 -675 1141 -563 
Q 1194 -478 1313 -144 
Q 1328 -97 1363 -6 
L 103 3319 
L 709 3319 
L 1400 1397 
Q 1534 1031 1641 628 
Q 1738 1016 1872 1384 
L 2581 3319 
L 3144 3319 
L 1881 -56 
Q 1678 -603 1566 -809 
Q 1416 -1088 1222 -1217 
Q 1028 -1347 759 -1347 
Q 597 -1347 397 -1278 
z
" transform="scale(0.015625)"/>
      </defs>
      <use xlink:href="#ArialMT-73"/>
      <use xlink:href="#ArialMT-70" transform="translate(50 0)"/>
      <use xlink:href="#ArialMT-6c" transform="translate(105.615234 0)"/>
      <use xlink:href="#ArialMT-69" transform="translate(127.832031 0)"/>
      <use xlink:href="#ArialMT-74" transform="translate(150.048828 0)"/>
      <use xlink:href="#ArialMT-5f" transform="translate(177.832031 0)"/>
      <use xlink:href="#ArialMT-74" transform="translate(233.447266 0)"/>
      <use xlink:href="#ArialMT-79" transform="translate(261.230469 0)"/>
      <use xlink:href="#ArialMT-70" transform="translate(311.230469 0)"/>
      <use xlink:href="#ArialMT-65" transform="translate(366.845703 0)"/>
     </g>
    </g>
   </g>
   <g id="matplotlib.axis_2">
    <g id="ytick_1">
     <g id="line2d_1">
      <path d="M 79.566 700.412959 
L 536.848058 700.412959 
" clip-path="url(#p1c4b344068)" style="fill: none; stroke: #cccccc; stroke-width: 0.8; stroke-linecap: round"/>
     </g>
     <g id="text_8">
      <!-- 0 -->
      <g style="fill: #262626" transform="translate(61.47875 706.711834) scale(0.176 -0.176)">
       <defs>
        <path id="ArialMT-30" d="M 266 2259 
Q 266 3072 433 3567 
Q 600 4063 929 4331 
Q 1259 4600 1759 4600 
Q 2128 4600 2406 4451 
Q 2684 4303 2865 4023 
Q 3047 3744 3150 3342 
Q 3253 2941 3253 2259 
Q 3253 1453 3087 958 
Q 2922 463 2592 192 
Q 2263 -78 1759 -78 
Q 1097 -78 719 397 
Q 266 969 266 2259 
z
M 844 2259 
Q 844 1131 1108 757 
Q 1372 384 1759 384 
Q 2147 384 2411 759 
Q 2675 1134 2675 2259 
Q 2675 3391 2411 3762 
Q 2147 4134 1753 4134 
Q 1366 4134 1134 3806 
Q 844 3388 844 2259 
z
" transform="scale(0.015625)"/>
       </defs>
       <use xlink:href="#ArialMT-30"/>
      </g>
     </g>
    </g>
    <g id="ytick_2">
     <g id="line2d_2">
      <path d="M 79.566 609.509892 
L 536.848058 609.509892 
" clip-path="url(#p1c4b344068)" style="fill: none; stroke: #cccccc; stroke-width: 0.8; stroke-linecap: round"/>
     </g>
     <g id="text_9">
      <!-- 25 -->
      <g style="fill: #262626" transform="translate(51.6915 615.808767) scale(0.176 -0.176)">
       <defs>
        <path id="ArialMT-32" d="M 3222 541 
L 3222 0 
L 194 0 
Q 188 203 259 391 
Q 375 700 629 1000 
Q 884 1300 1366 1694 
Q 2113 2306 2375 2664 
Q 2638 3022 2638 3341 
Q 2638 3675 2398 3904 
Q 2159 4134 1775 4134 
Q 1369 4134 1125 3890 
Q 881 3647 878 3216 
L 300 3275 
Q 359 3922 746 4261 
Q 1134 4600 1788 4600 
Q 2447 4600 2831 4234 
Q 3216 3869 3216 3328 
Q 3216 3053 3103 2787 
Q 2991 2522 2730 2228 
Q 2469 1934 1863 1422 
Q 1356 997 1212 845 
Q 1069 694 975 541 
L 3222 541 
z
" transform="scale(0.015625)"/>
        <path id="ArialMT-35" d="M 266 1200 
L 856 1250 
Q 922 819 1161 601 
Q 1400 384 1738 384 
Q 2144 384 2425 690 
Q 2706 997 2706 1503 
Q 2706 1984 2436 2262 
Q 2166 2541 1728 2541 
Q 1456 2541 1237 2417 
Q 1019 2294 894 2097 
L 366 2166 
L 809 4519 
L 3088 4519 
L 3088 3981 
L 1259 3981 
L 1013 2750 
Q 1425 3038 1878 3038 
Q 2478 3038 2890 2622 
Q 3303 2206 3303 1553 
Q 3303 931 2941 478 
Q 2500 -78 1738 -78 
Q 1113 -78 717 272 
Q 322 622 266 1200 
z
" transform="scale(0.015625)"/>
       </defs>
       <use xlink:href="#ArialMT-32"/>
       <use xlink:href="#ArialMT-35" transform="translate(55.615234 0)"/>
      </g>
     </g>
    </g>
    <g id="ytick_3">
     <g id="line2d_3">
      <path d="M 79.566 518.606826 
L 536.848058 518.606826 
" clip-path="url(#p1c4b344068)" style="fill: none; stroke: #cccccc; stroke-width: 0.8; stroke-linecap: round"/>
     </g>
     <g id="text_10">
      <!-- 50 -->
      <g style="fill: #262626" transform="translate(51.6915 524.905701) scale(0.176 -0.176)">
       <use xlink:href="#ArialMT-35"/>
       <use xlink:href="#ArialMT-30" transform="translate(55.615234 0)"/>
      </g>
     </g>
    </g>
    <g id="ytick_4">
     <g id="line2d_4">
      <path d="M 79.566 427.70376 
L 536.848058 427.70376 
" clip-path="url(#p1c4b344068)" style="fill: none; stroke: #cccccc; stroke-width: 0.8; stroke-linecap: round"/>
     </g>
     <g id="text_11">
      <!-- 75 -->
      <g style="fill: #262626" transform="translate(51.6915 434.002635) scale(0.176 -0.176)">
       <defs>
        <path id="ArialMT-37" d="M 303 3981 
L 303 4522 
L 3269 4522 
L 3269 4084 
Q 2831 3619 2401 2847 
Q 1972 2075 1738 1259 
Q 1569 684 1522 0 
L 944 0 
Q 953 541 1156 1306 
Q 1359 2072 1739 2783 
Q 2119 3494 2547 3981 
L 303 3981 
z
" transform="scale(0.015625)"/>
       </defs>
       <use xlink:href="#ArialMT-37"/>
       <use xlink:href="#ArialMT-35" transform="translate(55.615234 0)"/>
      </g>
     </g>
    </g>
    <g id="ytick_5">
     <g id="line2d_5">
      <path d="M 79.566 336.800693 
L 536.848058 336.800693 
" clip-path="url(#p1c4b344068)" style="fill: none; stroke: #cccccc; stroke-width: 0.8; stroke-linecap: round"/>
     </g>
     <g id="text_12">
      <!-- 100 -->
      <g style="fill: #262626" transform="translate(41.90425 343.099568) scale(0.176 -0.176)">
       <use xlink:href="#ArialMT-31"/>
       <use xlink:href="#ArialMT-30" transform="translate(55.615234 0)"/>
       <use xlink:href="#ArialMT-30" transform="translate(111.230469 0)"/>
      </g>
     </g>
    </g>
    <g id="ytick_6">
     <g id="line2d_6">
      <path d="M 79.566 245.897627 
L 536.848058 245.897627 
" clip-path="url(#p1c4b344068)" style="fill: none; stroke: #cccccc; stroke-width: 0.8; stroke-linecap: round"/>
     </g>
     <g id="text_13">
      <!-- 125 -->
      <g style="fill: #262626" transform="translate(41.90425 252.196502) scale(0.176 -0.176)">
       <use xlink:href="#ArialMT-31"/>
       <use xlink:href="#ArialMT-32" transform="translate(55.615234 0)"/>
       <use xlink:href="#ArialMT-35" transform="translate(111.230469 0)"/>
      </g>
     </g>
    </g>
    <g id="ytick_7">
     <g id="line2d_7">
      <path d="M 79.566 154.994561 
L 536.848058 154.994561 
" clip-path="url(#p1c4b344068)" style="fill: none; stroke: #cccccc; stroke-width: 0.8; stroke-linecap: round"/>
     </g>
     <g id="text_14">
      <!-- 150 -->
      <g style="fill: #262626" transform="translate(41.90425 161.293436) scale(0.176 -0.176)">
       <use xlink:href="#ArialMT-31"/>
       <use xlink:href="#ArialMT-35" transform="translate(55.615234 0)"/>
       <use xlink:href="#ArialMT-30" transform="translate(111.230469 0)"/>
      </g>
     </g>
    </g>
    <g id="ytick_8">
     <g id="line2d_8">
      <path d="M 79.566 64.091494 
L 536.848058 64.091494 
" clip-path="url(#p1c4b344068)" style="fill: none; stroke: #cccccc; stroke-width: 0.8; stroke-linecap: round"/>
     </g>
     <g id="text_15">
      <!-- 175 -->
      <g style="fill: #262626" transform="translate(41.90425 70.390369) scale(0.176 -0.176)">
       <use xlink:href="#ArialMT-31"/>
       <use xlink:href="#ArialMT-37" transform="translate(55.615234 0)"/>
       <use xlink:href="#ArialMT-35" transform="translate(111.230469 0)"/>
      </g>
     </g>
    </g>
    <g id="text_16">
     <!-- number of discovery compounds within error range -->
     <g style="fill: #262626" transform="translate(33.86325 595.228174) rotate(-90) scale(0.192 -0.192)">
      <defs>
       <path id="ArialMT-75" d="M 2597 0 
L 2597 488 
Q 2209 -75 1544 -75 
Q 1250 -75 995 37 
Q 741 150 617 320 
Q 494 491 444 738 
Q 409 903 409 1263 
L 409 3319 
L 972 3319 
L 972 1478 
Q 972 1038 1006 884 
Q 1059 663 1231 536 
Q 1403 409 1656 409 
Q 1909 409 2131 539 
Q 2353 669 2445 892 
Q 2538 1116 2538 1541 
L 2538 3319 
L 3100 3319 
L 3100 0 
L 2597 0 
z
" transform="scale(0.015625)"/>
       <path id="ArialMT-62" d="M 941 0 
L 419 0 
L 419 4581 
L 981 4581 
L 981 2947 
Q 1338 3394 1891 3394 
Q 2197 3394 2470 3270 
Q 2744 3147 2920 2923 
Q 3097 2700 3197 2384 
Q 3297 2069 3297 1709 
Q 3297 856 2875 390 
Q 2453 -75 1863 -75 
Q 1275 -75 941 416 
L 941 0 
z
M 934 1684 
Q 934 1088 1097 822 
Q 1363 388 1816 388 
Q 2184 388 2453 708 
Q 2722 1028 2722 1663 
Q 2722 2313 2464 2622 
Q 2206 2931 1841 2931 
Q 1472 2931 1203 2611 
Q 934 2291 934 1684 
z
" transform="scale(0.015625)"/>
       <path id="ArialMT-20" transform="scale(0.015625)"/>
       <path id="ArialMT-76" d="M 1344 0 
L 81 3319 
L 675 3319 
L 1388 1331 
Q 1503 1009 1600 663 
Q 1675 925 1809 1294 
L 2547 3319 
L 3125 3319 
L 1869 0 
L 1344 0 
z
" transform="scale(0.015625)"/>
       <path id="ArialMT-68" d="M 422 0 
L 422 4581 
L 984 4581 
L 984 2938 
Q 1378 3394 1978 3394 
Q 2347 3394 2619 3248 
Q 2891 3103 3008 2847 
Q 3125 2591 3125 2103 
L 3125 0 
L 2563 0 
L 2563 2103 
Q 2563 2525 2380 2717 
Q 2197 2909 1863 2909 
Q 1613 2909 1392 2779 
Q 1172 2650 1078 2428 
Q 984 2206 984 1816 
L 984 0 
L 422 0 
z
" transform="scale(0.015625)"/>
      </defs>
      <use xlink:href="#ArialMT-6e"/>
      <use xlink:href="#ArialMT-75" transform="translate(55.615234 0)"/>
      <use xlink:href="#ArialMT-6d" transform="translate(111.230469 0)"/>
      <use xlink:href="#ArialMT-62" transform="translate(194.53125 0)"/>
      <use xlink:href="#ArialMT-65" transform="translate(250.146484 0)"/>
      <use xlink:href="#ArialMT-72" transform="translate(305.761719 0)"/>
      <use xlink:href="#ArialMT-20" transform="translate(339.0625 0)"/>
      <use xlink:href="#ArialMT-6f" transform="translate(366.845703 0)"/>
      <use xlink:href="#ArialMT-66" transform="translate(422.460938 0)"/>
      <use xlink:href="#ArialMT-20" transform="translate(450.244141 0)"/>
      <use xlink:href="#ArialMT-64" transform="translate(478.027344 0)"/>
      <use xlink:href="#ArialMT-69" transform="translate(533.642578 0)"/>
      <use xlink:href="#ArialMT-73" transform="translate(555.859375 0)"/>
      <use xlink:href="#ArialMT-63" transform="translate(605.859375 0)"/>
      <use xlink:href="#ArialMT-6f" transform="translate(655.859375 0)"/>
      <use xlink:href="#ArialMT-76" transform="translate(711.474609 0)"/>
      <use xlink:href="#ArialMT-65" transform="translate(761.474609 0)"/>
      <use xlink:href="#ArialMT-72" transform="translate(817.089844 0)"/>
      <use xlink:href="#ArialMT-79" transform="translate(850.390625 0)"/>
      <use xlink:href="#ArialMT-20" transform="translate(900.390625 0)"/>
      <use xlink:href="#ArialMT-63" transform="translate(928.173828 0)"/>
      <use xlink:href="#ArialMT-6f" transform="translate(978.173828 0)"/>
      <use xlink:href="#ArialMT-6d" transform="translate(1033.789062 0)"/>
      <use xlink:href="#ArialMT-70" transform="translate(1117.089844 0)"/>
      <use xlink:href="#ArialMT-6f" transform="translate(1172.705078 0)"/>
      <use xlink:href="#ArialMT-75" transform="translate(1228.320312 0)"/>
      <use xlink:href="#ArialMT-6e" transform="translate(1283.935547 0)"/>
      <use xlink:href="#ArialMT-64" transform="translate(1339.550781 0)"/>
      <use xlink:href="#ArialMT-73" transform="translate(1395.166016 0)"/>
      <use xlink:href="#ArialMT-20" transform="translate(1445.166016 0)"/>
      <use xlink:href="#ArialMT-77" transform="translate(1472.949219 0)"/>
      <use xlink:href="#ArialMT-69" transform="translate(1545.166016 0)"/>
      <use xlink:href="#ArialMT-74" transform="translate(1567.382812 0)"/>
      <use xlink:href="#ArialMT-68" transform="translate(1595.166016 0)"/>
      <use xlink:href="#ArialMT-69" transform="translate(1650.78125 0)"/>
      <use xlink:href="#ArialMT-6e" transform="translate(1672.998047 0)"/>
      <use xlink:href="#ArialMT-20" transform="translate(1728.613281 0)"/>
      <use xlink:href="#ArialMT-65" transform="translate(1756.396484 0)"/>
      <use xlink:href="#ArialMT-72" transform="translate(1812.011719 0)"/>
      <use xlink:href="#ArialMT-72" transform="translate(1845.3125 0)"/>
      <use xlink:href="#ArialMT-6f" transform="translate(1878.613281 0)"/>
      <use xlink:href="#ArialMT-72" transform="translate(1934.228516 0)"/>
      <use xlink:href="#ArialMT-20" transform="translate(1967.529297 0)"/>
      <use xlink:href="#ArialMT-72" transform="translate(1995.3125 0)"/>
      <use xlink:href="#ArialMT-61" transform="translate(2028.613281 0)"/>
      <use xlink:href="#ArialMT-6e" transform="translate(2084.228516 0)"/>
      <use xlink:href="#ArialMT-67" transform="translate(2139.84375 0)"/>
      <use xlink:href="#ArialMT-65" transform="translate(2195.458984 0)"/>
     </g>
    </g>
   </g>
   <g id="PatchCollection_1">
    <path d="M 128.909279 700.412959 
L 129.133261 700.412959 
L 129.133261 700.412959 
L 128.909279 700.412959 
z
" clip-path="url(#p1c4b344068)" style="fill: #d8dde5; stroke: #494949; stroke-width: 0.6"/>
    <path d="M 128.797287 700.412959 
L 129.245252 700.412959 
L 129.245252 700.412959 
L 128.797287 700.412959 
z
" clip-path="url(#p1c4b344068)" style="fill: #d2d8e2; stroke: #494949; stroke-width: 0.6"/>
    <path d="M 128.573305 700.412959 
L 129.469234 700.412959 
L 129.469234 696.776836 
L 128.573305 696.776836 
z
" clip-path="url(#p1c4b344068)" style="fill: #cad2de; stroke: #494949; stroke-width: 0.6"/>
    <path d="M 128.125341 696.776836 
L 129.917198 696.776836 
L 129.917198 696.776836 
L 128.125341 696.776836 
z
" clip-path="url(#p1c4b344068)" style="fill: #c1cad9; stroke: #494949; stroke-width: 0.6"/>
    <path d="M 127.229412 696.776836 
L 130.813127 696.776836 
L 130.813127 693.140714 
L 127.229412 693.140714 
z
" clip-path="url(#p1c4b344068)" style="fill: #b4c0d3; stroke: #494949; stroke-width: 0.6"/>
    <path d="M 125.437554 693.140714 
L 132.604985 693.140714 
L 132.604985 689.504591 
L 125.437554 689.504591 
z
" clip-path="url(#p1c4b344068)" style="fill: #a4b3ca; stroke: #494949; stroke-width: 0.6"/>
    <path d="M 121.853839 689.504591 
L 136.1887 689.504591 
L 136.1887 685.868468 
L 121.853839 685.868468 
z
" clip-path="url(#p1c4b344068)" style="fill: #90a3c0; stroke: #494949; stroke-width: 0.6"/>
    <path d="M 114.686409 685.868468 
L 143.35613 685.868468 
L 143.35613 674.9601 
L 114.686409 674.9601 
z
" clip-path="url(#p1c4b344068)" style="fill: #778eb3; stroke: #494949; stroke-width: 0.6"/>
    <path d="M 100.351548 674.9601 
L 157.690991 674.9601 
L 157.690991 594.965402 
L 100.351548 594.965402 
z
" clip-path="url(#p1c4b344068)" style="fill: #5875a4; stroke: #494949; stroke-width: 0.6"/>
    <path d="M 114.686409 594.965402 
L 143.35613 594.965402 
L 143.35613 558.604175 
L 114.686409 558.604175 
z
" clip-path="url(#p1c4b344068)" style="fill: #778eb3; stroke: #494949; stroke-width: 0.6"/>
    <path d="M 121.853839 558.604175 
L 136.1887 558.604175 
L 136.1887 529.969709 
L 121.853839 529.969709 
z
" clip-path="url(#p1c4b344068)" style="fill: #90a3c0; stroke: #494949; stroke-width: 0.6"/>
    <path d="M 125.437554 529.969709 
L 132.604985 529.969709 
L 132.604985 496.79009 
L 125.437554 496.79009 
z
" clip-path="url(#p1c4b344068)" style="fill: #a4b3ca; stroke: #494949; stroke-width: 0.6"/>
    <path d="M 127.229412 496.79009 
L 130.813127 496.79009 
L 130.813127 442.24825 
L 127.229412 442.24825 
z
" clip-path="url(#p1c4b344068)" style="fill: #b4c0d3; stroke: #494949; stroke-width: 0.6"/>
    <path d="M 128.125341 442.24825 
L 129.917198 442.24825 
L 129.917198 420.431514 
L 128.125341 420.431514 
z
" clip-path="url(#p1c4b344068)" style="fill: #c1cad9; stroke: #494949; stroke-width: 0.6"/>
    <path d="M 128.573305 420.431514 
L 129.469234 420.431514 
L 129.469234 398.614778 
L 128.573305 398.614778 
z
" clip-path="url(#p1c4b344068)" style="fill: #cad2de; stroke: #494949; stroke-width: 0.6"/>
    <path d="M 128.797287 398.614778 
L 129.245252 398.614778 
L 129.245252 382.607317 
L 128.797287 382.607317 
z
" clip-path="url(#p1c4b344068)" style="fill: #d2d8e2; stroke: #494949; stroke-width: 0.6"/>
    <path d="M 128.909279 382.607317 
L 129.133261 382.607317 
L 129.133261 373.16192 
L 128.909279 373.16192 
z
" clip-path="url(#p1c4b344068)" style="fill: #d8dde5; stroke: #494949; stroke-width: 0.6"/>
   </g>
   <g id="PathCollection_1">
    <defs>
     <path id="C0_0_b1bc50f9b8" d="M 0 2.5 
C 0.663008 2.5 1.29895 2.236584 1.767767 1.767767 
C 2.236584 1.29895 2.5 0.663008 2.5 -0 
C 2.5 -0.663008 2.236584 -1.29895 1.767767 -1.767767 
C 1.29895 -2.236584 0.663008 -2.5 0 -2.5 
C -0.663008 -2.5 -1.29895 -2.236584 -1.767767 -1.767767 
C -2.236584 -1.29895 -2.5 -0.663008 -2.5 0 
C -2.5 0.663008 -2.236584 1.29895 -1.767767 1.767767 
C -1.29895 2.236584 -0.663008 2.5 0 2.5 
z
"/>
    </defs>
    <g clip-path="url(#p1c4b344068)">
     <use xlink:href="#C0_0_b1bc50f9b8" x="129.02127" y="369.525797" style="fill: none; stroke: #737373; stroke-width: 0.8"/>
    </g>
    <g clip-path="url(#p1c4b344068)">
     <use xlink:href="#C0_0_b1bc50f9b8" x="129.02127" y="358.617429" style="fill: none; stroke: #737373; stroke-width: 0.8"/>
    </g>
    <g clip-path="url(#p1c4b344068)">
     <use xlink:href="#C0_0_b1bc50f9b8" x="129.02127" y="351.345184" style="fill: none; stroke: #737373; stroke-width: 0.8"/>
    </g>
   </g>
   <g id="PatchCollection_2">
    <path d="M 200.583582 700.412959 
L 200.807565 700.412959 
L 200.807565 700.412959 
L 200.583582 700.412959 
z
" clip-path="url(#p1c4b344068)" style="fill: #ece0da; stroke: #494949; stroke-width: 0.6"/>
    <path d="M 200.471591 700.412959 
L 200.919556 700.412959 
L 200.919556 700.412959 
L 200.471591 700.412959 
z
" clip-path="url(#p1c4b344068)" style="fill: #eadcd4; stroke: #494949; stroke-width: 0.6"/>
    <path d="M 200.247609 700.412959 
L 201.143538 700.412959 
L 201.143538 700.412959 
L 200.247609 700.412959 
z
" clip-path="url(#p1c4b344068)" style="fill: #e8d6cc; stroke: #494949; stroke-width: 0.6"/>
    <path d="M 199.799645 700.412959 
L 201.591502 700.412959 
L 201.591502 700.412959 
L 199.799645 700.412959 
z
" clip-path="url(#p1c4b344068)" style="fill: #e6d0c4; stroke: #494949; stroke-width: 0.6"/>
    <path d="M 198.903716 700.412959 
L 202.487431 700.412959 
L 202.487431 700.412959 
L 198.903716 700.412959 
z
" clip-path="url(#p1c4b344068)" style="fill: #e3c7b8; stroke: #494949; stroke-width: 0.6"/>
    <path d="M 197.111858 700.412959 
L 204.279289 700.412959 
L 204.279289 700.412959 
L 197.111858 700.412959 
z
" clip-path="url(#p1c4b344068)" style="fill: #dfbca9; stroke: #494949; stroke-width: 0.6"/>
    <path d="M 193.528143 700.412959 
L 207.863004 700.412959 
L 207.863004 693.140714 
L 193.528143 693.140714 
z
" clip-path="url(#p1c4b344068)" style="fill: #daaf97; stroke: #494949; stroke-width: 0.6"/>
    <path d="M 186.360713 693.140714 
L 215.030434 693.140714 
L 215.030434 682.232346 
L 186.360713 682.232346 
z
" clip-path="url(#p1c4b344068)" style="fill: #d39e80; stroke: #494949; stroke-width: 0.6"/>
    <path d="M 172.025852 682.232346 
L 229.365295 682.232346 
L 229.365295 616.782138 
L 172.025852 616.782138 
z
" clip-path="url(#p1c4b344068)" style="fill: #cc8963; stroke: #494949; stroke-width: 0.6"/>
    <path d="M 186.360713 616.782138 
L 215.030434 616.782138 
L 215.030434 580.420911 
L 186.360713 580.420911 
z
" clip-path="url(#p1c4b344068)" style="fill: #d39e80; stroke: #494949; stroke-width: 0.6"/>
    <path d="M 193.528143 580.420911 
L 207.863004 580.420911 
L 207.863004 544.059685 
L 193.528143 544.059685 
z
" clip-path="url(#p1c4b344068)" style="fill: #daaf97; stroke: #494949; stroke-width: 0.6"/>
    <path d="M 197.111858 544.059685 
L 204.279289 544.059685 
L 204.279289 511.334581 
L 197.111858 511.334581 
z
" clip-path="url(#p1c4b344068)" style="fill: #dfbca9; stroke: #494949; stroke-width: 0.6"/>
    <path d="M 198.903716 511.334581 
L 202.487431 511.334581 
L 202.487431 470.54183 
L 198.903716 470.54183 
z
" clip-path="url(#p1c4b344068)" style="fill: #e3c7b8; stroke: #494949; stroke-width: 0.6"/>
    <path d="M 199.799645 470.54183 
L 201.591502 470.54183 
L 201.591502 434.976005 
L 199.799645 434.976005 
z
" clip-path="url(#p1c4b344068)" style="fill: #e6d0c4; stroke: #494949; stroke-width: 0.6"/>
    <path d="M 200.247609 434.976005 
L 201.143538 434.976005 
L 201.143538 410.233327 
L 200.247609 410.233327 
z
" clip-path="url(#p1c4b344068)" style="fill: #e8d6cc; stroke: #494949; stroke-width: 0.6"/>
    <path d="M 200.471591 410.233327 
L 200.919556 410.233327 
L 200.919556 389.879562 
L 200.471591 389.879562 
z
" clip-path="url(#p1c4b344068)" style="fill: #eadcd4; stroke: #494949; stroke-width: 0.6"/>
    <path d="M 200.583582 389.879562 
L 200.807565 389.879562 
L 200.807565 384.070288 
L 200.583582 384.070288 
z
" clip-path="url(#p1c4b344068)" style="fill: #ece0da; stroke: #494949; stroke-width: 0.6"/>
   </g>
   <g id="PathCollection_2">
    <defs>
     <path id="C1_0_2e2209b46d" d="M 0 2.5 
C 0.663008 2.5 1.29895 2.236584 1.767767 1.767767 
C 2.236584 1.29895 2.5 0.663008 2.5 -0 
C 2.5 -0.663008 2.236584 -1.29895 1.767767 -1.767767 
C 1.29895 -2.236584 0.663008 -2.5 0 -2.5 
C -0.663008 -2.5 -1.29895 -2.236584 -1.767767 -1.767767 
C -2.236584 -1.29895 -2.5 -0.663008 -2.5 0 
C -2.5 0.663008 -2.236584 1.29895 -1.767767 1.767767 
C -1.29895 2.236584 -0.663008 2.5 0 2.5 
z
"/>
    </defs>
    <g clip-path="url(#p1c4b344068)">
     <use xlink:href="#C1_0_2e2209b46d" x="200.695573" y="365.889675" style="fill: none; stroke: #737373; stroke-width: 0.8"/>
    </g>
    <g clip-path="url(#p1c4b344068)">
     <use xlink:href="#C1_0_2e2209b46d" x="200.695573" y="380.434165" style="fill: none; stroke: #737373; stroke-width: 0.8"/>
    </g>
    <g clip-path="url(#p1c4b344068)">
     <use xlink:href="#C1_0_2e2209b46d" x="200.695573" y="373.16192" style="fill: none; stroke: #737373; stroke-width: 0.8"/>
    </g>
    <g clip-path="url(#p1c4b344068)">
     <use xlink:href="#C1_0_2e2209b46d" x="200.695573" y="380.434165" style="fill: none; stroke: #737373; stroke-width: 0.8"/>
    </g>
    <g clip-path="url(#p1c4b344068)">
     <use xlink:href="#C1_0_2e2209b46d" x="200.695573" y="376.798043" style="fill: none; stroke: #737373; stroke-width: 0.8"/>
    </g>
   </g>
   <g id="PatchCollection_3">
    <path d="M 272.257886 700.412959 
L 272.481868 700.412959 
L 272.481868 700.412959 
L 272.257886 700.412959 
z
" clip-path="url(#p1c4b344068)" style="fill: #d7e5da; stroke: #494949; stroke-width: 0.6"/>
    <path d="M 272.145895 700.412959 
L 272.593859 700.412959 
L 272.593859 700.412959 
L 272.145895 700.412959 
z
" clip-path="url(#p1c4b344068)" style="fill: #d1e1d5; stroke: #494949; stroke-width: 0.6"/>
    <path d="M 271.921913 700.412959 
L 272.817842 700.412959 
L 272.817842 700.412959 
L 271.921913 700.412959 
z
" clip-path="url(#p1c4b344068)" style="fill: #caddce; stroke: #494949; stroke-width: 0.6"/>
    <path d="M 271.473948 700.412959 
L 273.265806 700.412959 
L 273.265806 700.412959 
L 271.473948 700.412959 
z
" clip-path="url(#p1c4b344068)" style="fill: #c1d7c6; stroke: #494949; stroke-width: 0.6"/>
    <path d="M 270.57802 700.412959 
L 274.161735 700.412959 
L 274.161735 700.412959 
L 270.57802 700.412959 
z
" clip-path="url(#p1c4b344068)" style="fill: #b5d1bb; stroke: #494949; stroke-width: 0.6"/>
    <path d="M 268.786162 700.412959 
L 275.953592 700.412959 
L 275.953592 696.776836 
L 268.786162 696.776836 
z
" clip-path="url(#p1c4b344068)" style="fill: #a6c8ae; stroke: #494949; stroke-width: 0.6"/>
    <path d="M 265.202447 696.776836 
L 279.537308 696.776836 
L 279.537308 693.140714 
L 265.202447 693.140714 
z
" clip-path="url(#p1c4b344068)" style="fill: #94bd9d; stroke: #494949; stroke-width: 0.6"/>
    <path d="M 258.035016 693.140714 
L 286.704738 693.140714 
L 286.704738 682.232346 
L 258.035016 682.232346 
z
" clip-path="url(#p1c4b344068)" style="fill: #7caf88; stroke: #494949; stroke-width: 0.6"/>
    <path d="M 243.700156 682.232346 
L 301.039599 682.232346 
L 301.039599 616.782138 
L 243.700156 616.782138 
z
" clip-path="url(#p1c4b344068)" style="fill: #5f9e6e; stroke: #494949; stroke-width: 0.6"/>
    <path d="M 258.035016 616.782138 
L 286.704738 616.782138 
L 286.704738 576.784789 
L 258.035016 576.784789 
z
" clip-path="url(#p1c4b344068)" style="fill: #7caf88; stroke: #494949; stroke-width: 0.6"/>
    <path d="M 265.202447 576.784789 
L 279.537308 576.784789 
L 279.537308 547.695807 
L 265.202447 547.695807 
z
" clip-path="url(#p1c4b344068)" style="fill: #94bd9d; stroke: #494949; stroke-width: 0.6"/>
    <path d="M 268.786162 547.695807 
L 275.953592 547.695807 
L 275.953592 518.606826 
L 268.786162 518.606826 
z
" clip-path="url(#p1c4b344068)" style="fill: #a6c8ae; stroke: #494949; stroke-width: 0.6"/>
    <path d="M 270.57802 518.606826 
L 274.161735 518.606826 
L 274.161735 488.722443 
L 270.57802 488.722443 
z
" clip-path="url(#p1c4b344068)" style="fill: #b5d1bb; stroke: #494949; stroke-width: 0.6"/>
    <path d="M 271.473948 488.722443 
L 273.265806 488.722443 
L 273.265806 461.849224 
L 271.473948 461.849224 
z
" clip-path="url(#p1c4b344068)" style="fill: #c1d7c6; stroke: #494949; stroke-width: 0.6"/>
    <path d="M 271.921913 461.849224 
L 272.817842 461.849224 
L 272.817842 442.958431 
L 271.921913 442.958431 
z
" clip-path="url(#p1c4b344068)" style="fill: #caddce; stroke: #494949; stroke-width: 0.6"/>
    <path d="M 272.145895 442.958431 
L 272.593859 442.958431 
L 272.593859 429.876911 
L 272.145895 429.876911 
z
" clip-path="url(#p1c4b344068)" style="fill: #d1e1d5; stroke: #494949; stroke-width: 0.6"/>
    <path d="M 272.257886 429.876911 
L 272.481868 429.876911 
L 272.481868 421.51809 
L 272.257886 421.51809 
z
" clip-path="url(#p1c4b344068)" style="fill: #d7e5da; stroke: #494949; stroke-width: 0.6"/>
   </g>
   <g id="PathCollection_3">
    <defs>
     <path id="C2_0_9159c90ad9" d="M 0 2.5 
C 0.663008 2.5 1.29895 2.236584 1.767767 1.767767 
C 2.236584 1.29895 2.5 0.663008 2.5 -0 
C 2.5 -0.663008 2.236584 -1.29895 1.767767 -1.767767 
C 1.29895 -2.236584 0.663008 -2.5 0 -2.5 
C -0.663008 -2.5 -1.29895 -2.236584 -1.767767 -1.767767 
C -2.236584 -1.29895 -2.5 -0.663008 -2.5 0 
C -2.5 0.663008 -2.236584 1.29895 -1.767767 1.767767 
C -1.29895 2.236584 -0.663008 2.5 0 2.5 
z
"/>
    </defs>
    <g clip-path="url(#p1c4b344068)">
     <use xlink:href="#C2_0_9159c90ad9" x="272.369877" y="420.431514" style="fill: none; stroke: #737373; stroke-width: 0.8"/>
    </g>
    <g clip-path="url(#p1c4b344068)">
     <use xlink:href="#C2_0_9159c90ad9" x="272.369877" y="416.795392" style="fill: none; stroke: #737373; stroke-width: 0.8"/>
    </g>
    <g clip-path="url(#p1c4b344068)">
     <use xlink:href="#C2_0_9159c90ad9" x="272.369877" y="416.795392" style="fill: none; stroke: #737373; stroke-width: 0.8"/>
    </g>
    <g clip-path="url(#p1c4b344068)">
     <use xlink:href="#C2_0_9159c90ad9" x="272.369877" y="409.523146" style="fill: none; stroke: #737373; stroke-width: 0.8"/>
    </g>
    <g clip-path="url(#p1c4b344068)">
     <use xlink:href="#C2_0_9159c90ad9" x="272.369877" y="405.887024" style="fill: none; stroke: #737373; stroke-width: 0.8"/>
    </g>
    <g clip-path="url(#p1c4b344068)">
     <use xlink:href="#C2_0_9159c90ad9" x="272.369877" y="405.887024" style="fill: none; stroke: #737373; stroke-width: 0.8"/>
    </g>
   </g>
   <g id="PatchCollection_4">
    <path d="M 343.93219 700.412959 
L 344.156172 700.412959 
L 344.156172 700.412959 
L 343.93219 700.412959 
z
" clip-path="url(#p1c4b344068)" style="fill: #e8d9da; stroke: #494949; stroke-width: 0.6"/>
    <path d="M 343.820199 700.412959 
L 344.268163 700.412959 
L 344.268163 700.412959 
L 343.820199 700.412959 
z
" clip-path="url(#p1c4b344068)" style="fill: #e6d3d4; stroke: #494949; stroke-width: 0.6"/>
    <path d="M 343.596217 700.412959 
L 344.492145 700.412959 
L 344.492145 700.412959 
L 343.596217 700.412959 
z
" clip-path="url(#p1c4b344068)" style="fill: #e2cbcc; stroke: #494949; stroke-width: 0.6"/>
    <path d="M 343.148252 700.412959 
L 344.94011 700.412959 
L 344.94011 700.412959 
L 343.148252 700.412959 
z
" clip-path="url(#p1c4b344068)" style="fill: #dfc2c3; stroke: #494949; stroke-width: 0.6"/>
    <path d="M 342.252323 700.412959 
L 345.836039 700.412959 
L 345.836039 700.412959 
L 342.252323 700.412959 
z
" clip-path="url(#p1c4b344068)" style="fill: #dab6b7; stroke: #494949; stroke-width: 0.6"/>
    <path d="M 340.460466 700.412959 
L 347.627896 700.412959 
L 347.627896 696.776836 
L 340.460466 696.776836 
z
" clip-path="url(#p1c4b344068)" style="fill: #d3a6a8; stroke: #494949; stroke-width: 0.6"/>
    <path d="M 336.876751 696.776836 
L 351.211611 696.776836 
L 351.211611 693.140714 
L 336.876751 693.140714 
z
" clip-path="url(#p1c4b344068)" style="fill: #cb9395; stroke: #494949; stroke-width: 0.6"/>
    <path d="M 329.70932 693.140714 
L 358.379042 693.140714 
L 358.379042 685.868468 
L 329.70932 685.868468 
z
" clip-path="url(#p1c4b344068)" style="fill: #c27b7d; stroke: #494949; stroke-width: 0.6"/>
    <path d="M 315.37446 685.868468 
L 372.713903 685.868468 
L 372.713903 616.782138 
L 315.37446 616.782138 
z
" clip-path="url(#p1c4b344068)" style="fill: #b55d60; stroke: #494949; stroke-width: 0.6"/>
    <path d="M 329.70932 616.782138 
L 358.379042 616.782138 
L 358.379042 580.420911 
L 329.70932 580.420911 
z
" clip-path="url(#p1c4b344068)" style="fill: #c27b7d; stroke: #494949; stroke-width: 0.6"/>
    <path d="M 336.876751 580.420911 
L 351.211611 580.420911 
L 351.211611 551.33193 
L 336.876751 551.33193 
z
" clip-path="url(#p1c4b344068)" style="fill: #cb9395; stroke: #494949; stroke-width: 0.6"/>
    <path d="M 340.460466 551.33193 
L 347.627896 551.33193 
L 347.627896 522.242949 
L 340.460466 522.242949 
z
" clip-path="url(#p1c4b344068)" style="fill: #d3a6a8; stroke: #494949; stroke-width: 0.6"/>
    <path d="M 342.252323 522.242949 
L 345.836039 522.242949 
L 345.836039 493.153968 
L 342.252323 493.153968 
z
" clip-path="url(#p1c4b344068)" style="fill: #dab6b7; stroke: #494949; stroke-width: 0.6"/>
    <path d="M 343.148252 493.153968 
L 344.94011 493.153968 
L 344.94011 471.337232 
L 343.148252 471.337232 
z
" clip-path="url(#p1c4b344068)" style="fill: #dfc2c3; stroke: #494949; stroke-width: 0.6"/>
    <path d="M 343.596217 471.337232 
L 344.492145 471.337232 
L 344.492145 453.156618 
L 343.596217 453.156618 
z
" clip-path="url(#p1c4b344068)" style="fill: #e2cbcc; stroke: #494949; stroke-width: 0.6"/>
    <path d="M 343.820199 453.156618 
L 344.268163 453.156618 
L 344.268163 426.240788 
L 343.820199 426.240788 
z
" clip-path="url(#p1c4b344068)" style="fill: #e6d3d4; stroke: #494949; stroke-width: 0.6"/>
    <path d="M 343.93219 426.240788 
L 344.156172 426.240788 
L 344.156172 397.151807 
L 343.93219 397.151807 
z
" clip-path="url(#p1c4b344068)" style="fill: #e8d9da; stroke: #494949; stroke-width: 0.6"/>
   </g>
   <g id="PathCollection_4">
    <defs>
     <path id="C3_0_72ff61627c" d="M 0 2.5 
C 0.663008 2.5 1.29895 2.236584 1.767767 1.767767 
C 2.236584 1.29895 2.5 0.663008 2.5 -0 
C 2.5 -0.663008 2.236584 -1.29895 1.767767 -1.767767 
C 1.29895 -2.236584 0.663008 -2.5 0 -2.5 
C -0.663008 -2.5 -1.29895 -2.236584 -1.767767 -1.767767 
C -2.236584 -1.29895 -2.5 -0.663008 -2.5 0 
C -2.5 0.663008 -2.236584 1.29895 -1.767767 1.767767 
C -1.29895 2.236584 -0.663008 2.5 0 2.5 
z
"/>
    </defs>
    <g clip-path="url(#p1c4b344068)">
     <use xlink:href="#C3_0_72ff61627c" x="344.044181" y="384.070288" style="fill: none; stroke: #737373; stroke-width: 0.8"/>
    </g>
    <g clip-path="url(#p1c4b344068)">
     <use xlink:href="#C3_0_72ff61627c" x="344.044181" y="394.978656" style="fill: none; stroke: #737373; stroke-width: 0.8"/>
    </g>
    <g clip-path="url(#p1c4b344068)">
     <use xlink:href="#C3_0_72ff61627c" x="344.044181" y="384.070288" style="fill: none; stroke: #737373; stroke-width: 0.8"/>
    </g>
    <g clip-path="url(#p1c4b344068)">
     <use xlink:href="#C3_0_72ff61627c" x="344.044181" y="380.434165" style="fill: none; stroke: #737373; stroke-width: 0.8"/>
    </g>
    <g clip-path="url(#p1c4b344068)">
     <use xlink:href="#C3_0_72ff61627c" x="344.044181" y="394.978656" style="fill: none; stroke: #737373; stroke-width: 0.8"/>
    </g>
    <g clip-path="url(#p1c4b344068)">
     <use xlink:href="#C3_0_72ff61627c" x="344.044181" y="394.978656" style="fill: none; stroke: #737373; stroke-width: 0.8"/>
    </g>
   </g>
   <g id="PatchCollection_5">
    <path d="M 415.606494 700.412959 
L 415.830476 700.412959 
L 415.830476 700.412959 
L 415.606494 700.412959 
z
" clip-path="url(#p1c4b344068)" style="fill: #e0dee6; stroke: #494949; stroke-width: 0.6"/>
    <path d="M 415.494503 700.412959 
L 415.942467 700.412959 
L 415.942467 700.412959 
L 415.494503 700.412959 
z
" clip-path="url(#p1c4b344068)" style="fill: #dcd9e3; stroke: #494949; stroke-width: 0.6"/>
    <path d="M 415.27052 700.412959 
L 416.166449 700.412959 
L 416.166449 700.412959 
L 415.27052 700.412959 
z
" clip-path="url(#p1c4b344068)" style="fill: #d6d3e0; stroke: #494949; stroke-width: 0.6"/>
    <path d="M 414.822556 700.412959 
L 416.614414 700.412959 
L 416.614414 700.412959 
L 414.822556 700.412959 
z
" clip-path="url(#p1c4b344068)" style="fill: #cfcbdb; stroke: #494949; stroke-width: 0.6"/>
    <path d="M 413.926627 700.412959 
L 417.510342 700.412959 
L 417.510342 700.412959 
L 413.926627 700.412959 
z
" clip-path="url(#p1c4b344068)" style="fill: #c6c2d5; stroke: #494949; stroke-width: 0.6"/>
    <path d="M 412.13477 700.412959 
L 419.3022 700.412959 
L 419.3022 700.412959 
L 412.13477 700.412959 
z
" clip-path="url(#p1c4b344068)" style="fill: #bbb5ce; stroke: #494949; stroke-width: 0.6"/>
    <path d="M 408.551054 700.412959 
L 422.885915 700.412959 
L 422.885915 696.776836 
L 408.551054 696.776836 
z
" clip-path="url(#p1c4b344068)" style="fill: #ada6c5; stroke: #494949; stroke-width: 0.6"/>
    <path d="M 401.383624 696.776836 
L 430.053346 696.776836 
L 430.053346 689.504591 
L 401.383624 689.504591 
z
" clip-path="url(#p1c4b344068)" style="fill: #9b92b9; stroke: #494949; stroke-width: 0.6"/>
    <path d="M 387.048763 689.504591 
L 444.388206 689.504591 
L 444.388206 634.962751 
L 387.048763 634.962751 
z
" clip-path="url(#p1c4b344068)" style="fill: #857aab; stroke: #494949; stroke-width: 0.6"/>
    <path d="M 401.383624 634.962751 
L 430.053346 634.962751 
L 430.053346 591.329279 
L 401.383624 591.329279 
z
" clip-path="url(#p1c4b344068)" style="fill: #9b92b9; stroke: #494949; stroke-width: 0.6"/>
    <path d="M 408.551054 591.329279 
L 422.885915 591.329279 
L 422.885915 558.604175 
L 408.551054 558.604175 
z
" clip-path="url(#p1c4b344068)" style="fill: #ada6c5; stroke: #494949; stroke-width: 0.6"/>
    <path d="M 412.13477 558.604175 
L 419.3022 558.604175 
L 419.3022 525.879071 
L 412.13477 525.879071 
z
" clip-path="url(#p1c4b344068)" style="fill: #bbb5ce; stroke: #494949; stroke-width: 0.6"/>
    <path d="M 413.926627 525.879071 
L 417.510342 525.879071 
L 417.510342 496.79009 
L 413.926627 496.79009 
z
" clip-path="url(#p1c4b344068)" style="fill: #c6c2d5; stroke: #494949; stroke-width: 0.6"/>
    <path d="M 414.822556 496.79009 
L 416.614414 496.79009 
L 416.614414 456.792741 
L 414.822556 456.792741 
z
" clip-path="url(#p1c4b344068)" style="fill: #cfcbdb; stroke: #494949; stroke-width: 0.6"/>
    <path d="M 415.27052 456.792741 
L 416.166449 456.792741 
L 416.166449 427.70376 
L 415.27052 427.70376 
z
" clip-path="url(#p1c4b344068)" style="fill: #d6d3e0; stroke: #494949; stroke-width: 0.6"/>
    <path d="M 415.494503 427.70376 
L 415.942467 427.70376 
L 415.942467 400.78793 
L 415.494503 400.78793 
z
" clip-path="url(#p1c4b344068)" style="fill: #dcd9e3; stroke: #494949; stroke-width: 0.6"/>
    <path d="M 415.606494 400.78793 
L 415.830476 400.78793 
L 415.830476 377.884618 
L 415.606494 377.884618 
z
" clip-path="url(#p1c4b344068)" style="fill: #e0dee6; stroke: #494949; stroke-width: 0.6"/>
   </g>
   <g id="PathCollection_5">
    <defs>
     <path id="C4_0_71cc470dc8" d="M 0 2.5 
C 0.663008 2.5 1.29895 2.236584 1.767767 1.767767 
C 2.236584 1.29895 2.5 0.663008 2.5 -0 
C 2.5 -0.663008 2.236584 -1.29895 1.767767 -1.767767 
C 1.29895 -2.236584 0.663008 -2.5 0 -2.5 
C -0.663008 -2.5 -1.29895 -2.236584 -1.767767 -1.767767 
C -2.236584 -1.29895 -2.5 -0.663008 -2.5 0 
C -2.5 0.663008 -2.236584 1.29895 -1.767767 1.767767 
C -1.29895 2.236584 -0.663008 2.5 0 2.5 
z
"/>
    </defs>
    <g clip-path="url(#p1c4b344068)">
     <use xlink:href="#C4_0_71cc470dc8" x="415.718485" y="351.345184" style="fill: none; stroke: #737373; stroke-width: 0.8"/>
    </g>
    <g clip-path="url(#p1c4b344068)">
     <use xlink:href="#C4_0_71cc470dc8" x="415.718485" y="362.253552" style="fill: none; stroke: #737373; stroke-width: 0.8"/>
    </g>
    <g clip-path="url(#p1c4b344068)">
     <use xlink:href="#C4_0_71cc470dc8" x="415.718485" y="365.889675" style="fill: none; stroke: #737373; stroke-width: 0.8"/>
    </g>
    <g clip-path="url(#p1c4b344068)">
     <use xlink:href="#C4_0_71cc470dc8" x="415.718485" y="369.525797" style="fill: none; stroke: #737373; stroke-width: 0.8"/>
    </g>
    <g clip-path="url(#p1c4b344068)">
     <use xlink:href="#C4_0_71cc470dc8" x="415.718485" y="358.617429" style="fill: none; stroke: #737373; stroke-width: 0.8"/>
    </g>
    <g clip-path="url(#p1c4b344068)">
     <use xlink:href="#C4_0_71cc470dc8" x="415.718485" y="376.798043" style="fill: none; stroke: #737373; stroke-width: 0.8"/>
    </g>
   </g>
   <g id="PatchCollection_6">
    <path d="M 487.280798 700.412959 
L 487.50478 700.412959 
L 487.50478 700.412959 
L 487.280798 700.412959 
z
" clip-path="url(#p1c4b344068)" style="fill: #e1deda; stroke: #494949; stroke-width: 0.6"/>
    <path d="M 487.168806 700.412959 
L 487.616771 700.412959 
L 487.616771 700.412959 
L 487.168806 700.412959 
z
" clip-path="url(#p1c4b344068)" style="fill: #ded9d5; stroke: #494949; stroke-width: 0.6"/>
    <path d="M 486.944824 700.412959 
L 487.840753 700.412959 
L 487.840753 700.412959 
L 486.944824 700.412959 
z
" clip-path="url(#p1c4b344068)" style="fill: #d8d2cd; stroke: #494949; stroke-width: 0.6"/>
    <path d="M 486.49686 700.412959 
L 488.288717 700.412959 
L 488.288717 696.776836 
L 486.49686 696.776836 
z
" clip-path="url(#p1c4b344068)" style="fill: #d2cbc5; stroke: #494949; stroke-width: 0.6"/>
    <path d="M 485.600931 696.776836 
L 489.184646 696.776836 
L 489.184646 696.776836 
L 485.600931 696.776836 
z
" clip-path="url(#p1c4b344068)" style="fill: #c9c1b9; stroke: #494949; stroke-width: 0.6"/>
    <path d="M 483.809073 696.776836 
L 490.976504 696.776836 
L 490.976504 693.140714 
L 483.809073 693.140714 
z
" clip-path="url(#p1c4b344068)" style="fill: #bfb4ab; stroke: #494949; stroke-width: 0.6"/>
    <path d="M 480.225358 693.140714 
L 494.560219 693.140714 
L 494.560219 689.504591 
L 480.225358 689.504591 
z
" clip-path="url(#p1c4b344068)" style="fill: #b2a599; stroke: #494949; stroke-width: 0.6"/>
    <path d="M 473.057928 689.504591 
L 501.727649 689.504591 
L 501.727649 678.596223 
L 473.057928 678.596223 
z
" clip-path="url(#p1c4b344068)" style="fill: #a19182; stroke: #494949; stroke-width: 0.6"/>
    <path d="M 458.723067 678.596223 
L 516.06251 678.596223 
L 516.06251 605.87377 
L 458.723067 605.87377 
z
" clip-path="url(#p1c4b344068)" style="fill: #8d7866; stroke: #494949; stroke-width: 0.6"/>
    <path d="M 473.057928 605.87377 
L 501.727649 605.87377 
L 501.727649 569.512543 
L 473.057928 569.512543 
z
" clip-path="url(#p1c4b344068)" style="fill: #a19182; stroke: #494949; stroke-width: 0.6"/>
    <path d="M 480.225358 569.512543 
L 494.560219 569.512543 
L 494.560219 544.059685 
L 480.225358 544.059685 
z
" clip-path="url(#p1c4b344068)" style="fill: #b2a599; stroke: #494949; stroke-width: 0.6"/>
    <path d="M 483.809073 544.059685 
L 490.976504 544.059685 
L 490.976504 504.062335 
L 483.809073 504.062335 
z
" clip-path="url(#p1c4b344068)" style="fill: #bfb4ab; stroke: #494949; stroke-width: 0.6"/>
    <path d="M 485.600931 504.062335 
L 489.184646 504.062335 
L 489.184646 464.064986 
L 485.600931 464.064986 
z
" clip-path="url(#p1c4b344068)" style="fill: #c9c1b9; stroke: #494949; stroke-width: 0.6"/>
    <path d="M 486.49686 464.064986 
L 488.288717 464.064986 
L 488.288717 438.612128 
L 486.49686 438.612128 
z
" clip-path="url(#p1c4b344068)" style="fill: #d2cbc5; stroke: #494949; stroke-width: 0.6"/>
    <path d="M 486.944824 438.612128 
L 487.840753 438.612128 
L 487.840753 417.505572 
L 486.944824 417.505572 
z
" clip-path="url(#p1c4b344068)" style="fill: #d8d2cd; stroke: #494949; stroke-width: 0.6"/>
    <path d="M 487.168806 417.505572 
L 487.616771 417.505572 
L 487.616771 405.887024 
L 487.168806 405.887024 
z
" clip-path="url(#p1c4b344068)" style="fill: #ded9d5; stroke: #494949; stroke-width: 0.6"/>
    <path d="M 487.280798 405.887024 
L 487.50478 405.887024 
L 487.50478 388.792986 
L 487.280798 388.792986 
z
" clip-path="url(#p1c4b344068)" style="fill: #e1deda; stroke: #494949; stroke-width: 0.6"/>
   </g>
   <g id="PathCollection_6">
    <defs>
     <path id="C5_0_4d5c00708f" d="M 0 2.5 
C 0.663008 2.5 1.29895 2.236584 1.767767 1.767767 
C 2.236584 1.29895 2.5 0.663008 2.5 -0 
C 2.5 -0.663008 2.236584 -1.29895 1.767767 -1.767767 
C 1.29895 -2.236584 0.663008 -2.5 0 -2.5 
C -0.663008 -2.5 -1.29895 -2.236584 -1.767767 -1.767767 
C -2.236584 -1.29895 -2.5 -0.663008 -2.5 0 
C -2.5 0.663008 -2.236584 1.29895 -1.767767 1.767767 
C -1.29895 2.236584 -0.663008 2.5 0 2.5 
z
"/>
    </defs>
    <g clip-path="url(#p1c4b344068)">
     <use xlink:href="#C5_0_4d5c00708f" x="487.392789" y="387.70641" style="fill: none; stroke: #737373; stroke-width: 0.8"/>
    </g>
    <g clip-path="url(#p1c4b344068)">
     <use xlink:href="#C5_0_4d5c00708f" x="487.392789" y="369.525797" style="fill: none; stroke: #737373; stroke-width: 0.8"/>
    </g>
    <g clip-path="url(#p1c4b344068)">
     <use xlink:href="#C5_0_4d5c00708f" x="487.392789" y="376.798043" style="fill: none; stroke: #737373; stroke-width: 0.8"/>
    </g>
    <g clip-path="url(#p1c4b344068)">
     <use xlink:href="#C5_0_4d5c00708f" x="487.392789" y="365.889675" style="fill: none; stroke: #737373; stroke-width: 0.8"/>
    </g>
    <g clip-path="url(#p1c4b344068)">
     <use xlink:href="#C5_0_4d5c00708f" x="487.392789" y="376.798043" style="fill: none; stroke: #737373; stroke-width: 0.8"/>
    </g>
    <g clip-path="url(#p1c4b344068)">
     <use xlink:href="#C5_0_4d5c00708f" x="487.392789" y="387.70641" style="fill: none; stroke: #737373; stroke-width: 0.8"/>
    </g>
   </g>
   <g id="line2d_9">
    <path d="M 100.351548 653.143364 
L 157.690991 653.143364 
" clip-path="url(#p1c4b344068)" style="fill: none; stroke: #494949; stroke-width: 0.75"/>
   </g>
   <g id="line2d_10">
    <path d="M 172.025852 660.41561 
L 229.365295 660.41561 
" clip-path="url(#p1c4b344068)" style="fill: none; stroke: #494949; stroke-width: 0.75"/>
   </g>
   <g id="line2d_11">
    <path d="M 243.700156 660.41561 
L 301.039599 660.41561 
" clip-path="url(#p1c4b344068)" style="fill: none; stroke: #494949; stroke-width: 0.75"/>
   </g>
   <g id="line2d_12">
    <path d="M 315.37446 664.051732 
L 372.713903 664.051732 
" clip-path="url(#p1c4b344068)" style="fill: none; stroke: #494949; stroke-width: 0.75"/>
   </g>
   <g id="line2d_13">
    <path d="M 387.048763 671.323978 
L 444.388206 671.323978 
" clip-path="url(#p1c4b344068)" style="fill: none; stroke: #494949; stroke-width: 0.75"/>
   </g>
   <g id="line2d_14">
    <path d="M 458.723067 660.41561 
L 516.06251 660.41561 
" clip-path="url(#p1c4b344068)" style="fill: none; stroke: #494949; stroke-width: 0.75"/>
   </g>
   <g id="line2d_15">
    <path d="M 129.02127 328.306711 
L 129.02127 320.62722 
L 200.695573 320.62722 
L 200.695573 328.306711 
" style="fill: none; stroke: #333333; stroke-width: 1.5; stroke-linecap: round"/>
   </g>
   <g id="line2d_16">
    <path d="M 344.044181 328.306711 
L 344.044181 320.62722 
L 415.718485 320.62722 
L 415.718485 328.306711 
" style="fill: none; stroke: #333333; stroke-width: 1.5; stroke-linecap: round"/>
   </g>
   <g id="line2d_17">
    <path d="M 415.718485 301.149323 
L 415.718485 293.469832 
L 487.392789 293.469832 
L 487.392789 301.149323 
" style="fill: none; stroke: #333333; stroke-width: 1.5; stroke-linecap: round"/>
   </g>
   <g id="line2d_18">
    <path d="M 129.02127 301.149323 
L 129.02127 293.469832 
L 272.369877 293.469832 
L 272.369877 301.149323 
" style="fill: none; stroke: #333333; stroke-width: 1.5; stroke-linecap: round"/>
   </g>
   <g id="line2d_19">
    <path d="M 272.369877 273.991935 
L 272.369877 266.312444 
L 415.718485 266.312444 
L 415.718485 273.991935 
" style="fill: none; stroke: #333333; stroke-width: 1.5; stroke-linecap: round"/>
   </g>
   <g id="line2d_20">
    <path d="M 344.044181 246.834548 
L 344.044181 239.155057 
L 487.392789 239.155057 
L 487.392789 246.834548 
" style="fill: none; stroke: #333333; stroke-width: 1.5; stroke-linecap: round"/>
   </g>
   <g id="line2d_21">
    <path d="M 129.02127 219.67716 
L 129.02127 211.997669 
L 344.044181 211.997669 
L 344.044181 219.67716 
" style="fill: none; stroke: #333333; stroke-width: 1.5; stroke-linecap: round"/>
   </g>
   <g id="line2d_22">
    <path d="M 200.695573 192.519773 
L 200.695573 184.840281 
L 415.718485 184.840281 
L 415.718485 192.519773 
" style="fill: none; stroke: #333333; stroke-width: 1.5; stroke-linecap: round"/>
   </g>
   <g id="line2d_23">
    <path d="M 272.369877 165.362385 
L 272.369877 157.682894 
L 487.392789 157.682894 
L 487.392789 165.362385 
" style="fill: none; stroke: #333333; stroke-width: 1.5; stroke-linecap: round"/>
   </g>
   <g id="line2d_24">
    <path d="M 129.02127 138.204997 
L 129.02127 130.525506 
L 415.718485 130.525506 
L 415.718485 138.204997 
" style="fill: none; stroke: #333333; stroke-width: 1.5; stroke-linecap: round"/>
   </g>
   <g id="line2d_25">
    <path d="M 200.695573 111.04761 
L 200.695573 103.368119 
L 487.392789 103.368119 
L 487.392789 111.04761 
" style="fill: none; stroke: #333333; stroke-width: 1.5; stroke-linecap: round"/>
   </g>
   <g id="line2d_26">
    <path d="M 129.02127 83.890222 
L 129.02127 76.210731 
L 487.392789 76.210731 
L 487.392789 83.890222 
" style="fill: none; stroke: #333333; stroke-width: 1.5; stroke-linecap: round"/>
   </g>
   <g id="patch_3">
    <path d="M 79.566 717.866348 
L 79.566 40.416 
" style="fill: none; stroke: #cccccc; stroke-linejoin: miter; stroke-linecap: square"/>
   </g>
   <g id="patch_4">
    <path d="M 536.848058 717.866348 
L 536.848058 40.416 
" style="fill: none; stroke: #cccccc; stroke-linejoin: miter; stroke-linecap: square"/>
   </g>
   <g id="patch_5">
    <path d="M 79.566 717.866348 
L 536.848058 717.866348 
" style="fill: none; stroke: #cccccc; stroke-linejoin: miter; stroke-linecap: square"/>
   </g>
   <g id="patch_6">
    <path d="M 79.566 40.416 
L 536.848058 40.416 
" style="fill: none; stroke: #cccccc; stroke-linejoin: miter; stroke-linecap: square"/>
   </g>
   <g id="text_17">
    <!-- **** -->
    <g style="fill: #262626" transform="translate(149.912422 315.81122) scale(0.192 -0.192)">
     <defs>
      <path id="ArialMT-2a" d="M 200 3741 
L 344 4184 
Q 841 4009 1066 3881 
Q 1006 4447 1003 4659 
L 1456 4659 
Q 1447 4350 1384 3884 
Q 1706 4047 2122 4184 
L 2266 3741 
Q 1869 3609 1488 3566 
Q 1678 3400 2025 2975 
L 1650 2709 
Q 1469 2956 1222 3381 
Q 991 2941 816 2709 
L 447 2975 
Q 809 3422 966 3566 
Q 563 3644 200 3741 
z
" transform="scale(0.015625)"/>
     </defs>
     <use xlink:href="#ArialMT-2a"/>
     <use xlink:href="#ArialMT-2a" transform="translate(38.916016 0)"/>
     <use xlink:href="#ArialMT-2a" transform="translate(77.832031 0)"/>
     <use xlink:href="#ArialMT-2a" transform="translate(116.748047 0)"/>
    </g>
   </g>
   <g id="text_18">
    <!-- **** -->
    <g style="fill: #262626" transform="translate(364.935333 315.81122) scale(0.192 -0.192)">
     <use xlink:href="#ArialMT-2a"/>
     <use xlink:href="#ArialMT-2a" transform="translate(38.916016 0)"/>
     <use xlink:href="#ArialMT-2a" transform="translate(77.832031 0)"/>
     <use xlink:href="#ArialMT-2a" transform="translate(116.748047 0)"/>
    </g>
   </g>
   <g id="text_19">
    <!-- **** -->
    <g style="fill: #262626" transform="translate(436.609637 288.653832) scale(0.192 -0.192)">
     <use xlink:href="#ArialMT-2a"/>
     <use xlink:href="#ArialMT-2a" transform="translate(38.916016 0)"/>
     <use xlink:href="#ArialMT-2a" transform="translate(77.832031 0)"/>
     <use xlink:href="#ArialMT-2a" transform="translate(116.748047 0)"/>
    </g>
   </g>
   <g id="text_20">
    <!-- **** -->
    <g style="fill: #262626" transform="translate(185.749573 288.653832) scale(0.192 -0.192)">
     <use xlink:href="#ArialMT-2a"/>
     <use xlink:href="#ArialMT-2a" transform="translate(38.916016 0)"/>
     <use xlink:href="#ArialMT-2a" transform="translate(77.832031 0)"/>
     <use xlink:href="#ArialMT-2a" transform="translate(116.748047 0)"/>
    </g>
   </g>
   <g id="text_21">
    <!-- **** -->
    <g style="fill: #262626" transform="translate(329.098181 261.496444) scale(0.192 -0.192)">
     <use xlink:href="#ArialMT-2a"/>
     <use xlink:href="#ArialMT-2a" transform="translate(38.916016 0)"/>
     <use xlink:href="#ArialMT-2a" transform="translate(77.832031 0)"/>
     <use xlink:href="#ArialMT-2a" transform="translate(116.748047 0)"/>
    </g>
   </g>
   <g id="text_22">
    <!-- **** -->
    <g style="fill: #262626" transform="translate(400.772485 234.339057) scale(0.192 -0.192)">
     <use xlink:href="#ArialMT-2a"/>
     <use xlink:href="#ArialMT-2a" transform="translate(38.916016 0)"/>
     <use xlink:href="#ArialMT-2a" transform="translate(77.832031 0)"/>
     <use xlink:href="#ArialMT-2a" transform="translate(116.748047 0)"/>
    </g>
   </g>
   <g id="text_23">
    <!-- **** -->
    <g style="fill: #262626" transform="translate(221.586725 207.181669) scale(0.192 -0.192)">
     <use xlink:href="#ArialMT-2a"/>
     <use xlink:href="#ArialMT-2a" transform="translate(38.916016 0)"/>
     <use xlink:href="#ArialMT-2a" transform="translate(77.832031 0)"/>
     <use xlink:href="#ArialMT-2a" transform="translate(116.748047 0)"/>
    </g>
   </g>
   <g id="text_24">
    <!-- **** -->
    <g style="fill: #262626" transform="translate(293.261029 180.024281) scale(0.192 -0.192)">
     <use xlink:href="#ArialMT-2a"/>
     <use xlink:href="#ArialMT-2a" transform="translate(38.916016 0)"/>
     <use xlink:href="#ArialMT-2a" transform="translate(77.832031 0)"/>
     <use xlink:href="#ArialMT-2a" transform="translate(116.748047 0)"/>
    </g>
   </g>
   <g id="text_25">
    <!-- **** -->
    <g style="fill: #262626" transform="translate(364.935333 152.866894) scale(0.192 -0.192)">
     <use xlink:href="#ArialMT-2a"/>
     <use xlink:href="#ArialMT-2a" transform="translate(38.916016 0)"/>
     <use xlink:href="#ArialMT-2a" transform="translate(77.832031 0)"/>
     <use xlink:href="#ArialMT-2a" transform="translate(116.748047 0)"/>
    </g>
   </g>
   <g id="text_26">
    <!-- **** -->
    <g style="fill: #262626" transform="translate(257.423877 125.709506) scale(0.192 -0.192)">
     <use xlink:href="#ArialMT-2a"/>
     <use xlink:href="#ArialMT-2a" transform="translate(38.916016 0)"/>
     <use xlink:href="#ArialMT-2a" transform="translate(77.832031 0)"/>
     <use xlink:href="#ArialMT-2a" transform="translate(116.748047 0)"/>
    </g>
   </g>
   <g id="text_27">
    <!-- **** -->
    <g style="fill: #262626" transform="translate(329.098181 98.552119) scale(0.192 -0.192)">
     <use xlink:href="#ArialMT-2a"/>
     <use xlink:href="#ArialMT-2a" transform="translate(38.916016 0)"/>
     <use xlink:href="#ArialMT-2a" transform="translate(77.832031 0)"/>
     <use xlink:href="#ArialMT-2a" transform="translate(116.748047 0)"/>
    </g>
   </g>
   <g id="text_28">
    <!-- **** -->
    <g style="fill: #262626" transform="translate(293.261029 71.394731) scale(0.192 -0.192)">
     <use xlink:href="#ArialMT-2a"/>
     <use xlink:href="#ArialMT-2a" transform="translate(38.916016 0)"/>
     <use xlink:href="#ArialMT-2a" transform="translate(77.832031 0)"/>
     <use xlink:href="#ArialMT-2a" transform="translate(116.748047 0)"/>
    </g>
   </g>
   <g id="text_29">
    <!-- Ranked Number of Discovery compounds within +/-0.5 log units of true pIC50 per Fold per Target -->
    <g style="fill: #262626" transform="translate(-104.331971 34.416) scale(0.192 -0.192)">
     <defs>
      <path id="ArialMT-6b" d="M 425 0 
L 425 4581 
L 988 4581 
L 988 1969 
L 2319 3319 
L 3047 3319 
L 1778 2088 
L 3175 0 
L 2481 0 
L 1384 1697 
L 988 1316 
L 988 0 
L 425 0 
z
" transform="scale(0.015625)"/>
      <path id="ArialMT-4e" d="M 488 0 
L 488 4581 
L 1109 4581 
L 3516 984 
L 3516 4581 
L 4097 4581 
L 4097 0 
L 3475 0 
L 1069 3600 
L 1069 0 
L 488 0 
z
" transform="scale(0.015625)"/>
      <path id="ArialMT-2b" d="M 1603 741 
L 1603 1997 
L 356 1997 
L 356 2522 
L 1603 2522 
L 1603 3769 
L 2134 3769 
L 2134 2522 
L 3381 2522 
L 3381 1997 
L 2134 1997 
L 2134 741 
L 1603 741 
z
" transform="scale(0.015625)"/>
      <path id="ArialMT-2f" d="M 0 -78 
L 1328 4659 
L 1778 4659 
L 453 -78 
L 0 -78 
z
" transform="scale(0.015625)"/>
      <path id="ArialMT-2d" d="M 203 1375 
L 203 1941 
L 1931 1941 
L 1931 1375 
L 203 1375 
z
" transform="scale(0.015625)"/>
      <path id="ArialMT-2e" d="M 581 0 
L 581 641 
L 1222 641 
L 1222 0 
L 581 0 
z
" transform="scale(0.015625)"/>
      <path id="ArialMT-49" d="M 597 0 
L 597 4581 
L 1203 4581 
L 1203 0 
L 597 0 
z
" transform="scale(0.015625)"/>
      <path id="ArialMT-54" d="M 1659 0 
L 1659 4041 
L 150 4041 
L 150 4581 
L 3781 4581 
L 3781 4041 
L 2266 4041 
L 2266 0 
L 1659 0 
z
" transform="scale(0.015625)"/>
     </defs>
     <use xlink:href="#ArialMT-52"/>
     <use xlink:href="#ArialMT-61" transform="translate(72.216797 0)"/>
     <use xlink:href="#ArialMT-6e" transform="translate(127.832031 0)"/>
     <use xlink:href="#ArialMT-6b" transform="translate(183.447266 0)"/>
     <use xlink:href="#ArialMT-65" transform="translate(233.447266 0)"/>
     <use xlink:href="#ArialMT-64" transform="translate(289.0625 0)"/>
     <use xlink:href="#ArialMT-20" transform="translate(344.677734 0)"/>
     <use xlink:href="#ArialMT-4e" transform="translate(372.460938 0)"/>
     <use xlink:href="#ArialMT-75" transform="translate(444.677734 0)"/>
     <use xlink:href="#ArialMT-6d" transform="translate(500.292969 0)"/>
     <use xlink:href="#ArialMT-62" transform="translate(583.59375 0)"/>
     <use xlink:href="#ArialMT-65" transform="translate(639.208984 0)"/>
     <use xlink:href="#ArialMT-72" transform="translate(694.824219 0)"/>
     <use xlink:href="#ArialMT-20" transform="translate(728.125 0)"/>
     <use xlink:href="#ArialMT-6f" transform="translate(755.908203 0)"/>
     <use xlink:href="#ArialMT-66" transform="translate(811.523438 0)"/>
     <use xlink:href="#ArialMT-20" transform="translate(839.306641 0)"/>
     <use xlink:href="#ArialMT-44" transform="translate(867.089844 0)"/>
     <use xlink:href="#ArialMT-69" transform="translate(939.306641 0)"/>
     <use xlink:href="#ArialMT-73" transform="translate(961.523438 0)"/>
     <use xlink:href="#ArialMT-63" transform="translate(1011.523438 0)"/>
     <use xlink:href="#ArialMT-6f" transform="translate(1061.523438 0)"/>
     <use xlink:href="#ArialMT-76" transform="translate(1117.138672 0)"/>
     <use xlink:href="#ArialMT-65" transform="translate(1167.138672 0)"/>
     <use xlink:href="#ArialMT-72" transform="translate(1222.753906 0)"/>
     <use xlink:href="#ArialMT-79" transform="translate(1256.054688 0)"/>
     <use xlink:href="#ArialMT-20" transform="translate(1306.054688 0)"/>
     <use xlink:href="#ArialMT-63" transform="translate(1333.837891 0)"/>
     <use xlink:href="#ArialMT-6f" transform="translate(1383.837891 0)"/>
     <use xlink:href="#ArialMT-6d" transform="translate(1439.453125 0)"/>
     <use xlink:href="#ArialMT-70" transform="translate(1522.753906 0)"/>
     <use xlink:href="#ArialMT-6f" transform="translate(1578.369141 0)"/>
     <use xlink:href="#ArialMT-75" transform="translate(1633.984375 0)"/>
     <use xlink:href="#ArialMT-6e" transform="translate(1689.599609 0)"/>
     <use xlink:href="#ArialMT-64" transform="translate(1745.214844 0)"/>
     <use xlink:href="#ArialMT-73" transform="translate(1800.830078 0)"/>
     <use xlink:href="#ArialMT-20" transform="translate(1850.830078 0)"/>
     <use xlink:href="#ArialMT-77" transform="translate(1878.613281 0)"/>
     <use xlink:href="#ArialMT-69" transform="translate(1950.830078 0)"/>
     <use xlink:href="#ArialMT-74" transform="translate(1973.046875 0)"/>
     <use xlink:href="#ArialMT-68" transform="translate(2000.830078 0)"/>
     <use xlink:href="#ArialMT-69" transform="translate(2056.445312 0)"/>
     <use xlink:href="#ArialMT-6e" transform="translate(2078.662109 0)"/>
     <use xlink:href="#ArialMT-20" transform="translate(2134.277344 0)"/>
     <use xlink:href="#ArialMT-2b" transform="translate(2162.060547 0)"/>
     <use xlink:href="#ArialMT-2f" transform="translate(2220.458984 0)"/>
     <use xlink:href="#ArialMT-2d" transform="translate(2248.242188 0)"/>
     <use xlink:href="#ArialMT-30" transform="translate(2281.542969 0)"/>
     <use xlink:href="#ArialMT-2e" transform="translate(2337.158203 0)"/>
     <use xlink:href="#ArialMT-35" transform="translate(2364.941406 0)"/>
     <use xlink:href="#ArialMT-20" transform="translate(2420.556641 0)"/>
     <use xlink:href="#ArialMT-6c" transform="translate(2448.339844 0)"/>
     <use xlink:href="#ArialMT-6f" transform="translate(2470.556641 0)"/>
     <use xlink:href="#ArialMT-67" transform="translate(2526.171875 0)"/>
     <use xlink:href="#ArialMT-20" transform="translate(2581.787109 0)"/>
     <use xlink:href="#ArialMT-75" transform="translate(2609.570312 0)"/>
     <use xlink:href="#ArialMT-6e" transform="translate(2665.185547 0)"/>
     <use xlink:href="#ArialMT-69" transform="translate(2720.800781 0)"/>
     <use xlink:href="#ArialMT-74" transform="translate(2743.017578 0)"/>
     <use xlink:href="#ArialMT-73" transform="translate(2770.800781 0)"/>
     <use xlink:href="#ArialMT-20" transform="translate(2820.800781 0)"/>
     <use xlink:href="#ArialMT-6f" transform="translate(2848.583984 0)"/>
     <use xlink:href="#ArialMT-66" transform="translate(2904.199219 0)"/>
     <use xlink:href="#ArialMT-20" transform="translate(2931.982422 0)"/>
     <use xlink:href="#ArialMT-74" transform="translate(2959.765625 0)"/>
     <use xlink:href="#ArialMT-72" transform="translate(2987.548828 0)"/>
     <use xlink:href="#ArialMT-75" transform="translate(3020.849609 0)"/>
     <use xlink:href="#ArialMT-65" transform="translate(3076.464844 0)"/>
     <use xlink:href="#ArialMT-20" transform="translate(3132.080078 0)"/>
     <use xlink:href="#ArialMT-70" transform="translate(3159.863281 0)"/>
     <use xlink:href="#ArialMT-49" transform="translate(3215.478516 0)"/>
     <use xlink:href="#ArialMT-43" transform="translate(3243.261719 0)"/>
     <use xlink:href="#ArialMT-35" transform="translate(3315.478516 0)"/>
     <use xlink:href="#ArialMT-30" transform="translate(3371.09375 0)"/>
     <use xlink:href="#ArialMT-20" transform="translate(3426.708984 0)"/>
     <use xlink:href="#ArialMT-70" transform="translate(3454.492188 0)"/>
     <use xlink:href="#ArialMT-65" transform="translate(3510.107422 0)"/>
     <use xlink:href="#ArialMT-72" transform="translate(3565.722656 0)"/>
     <use xlink:href="#ArialMT-20" transform="translate(3599.023438 0)"/>
     <use xlink:href="#ArialMT-46" transform="translate(3626.806641 0)"/>
     <use xlink:href="#ArialMT-6f" transform="translate(3687.890625 0)"/>
     <use xlink:href="#ArialMT-6c" transform="translate(3743.505859 0)"/>
     <use xlink:href="#ArialMT-64" transform="translate(3765.722656 0)"/>
     <use xlink:href="#ArialMT-20" transform="translate(3821.337891 0)"/>
     <use xlink:href="#ArialMT-70" transform="translate(3849.121094 0)"/>
     <use xlink:href="#ArialMT-65" transform="translate(3904.736328 0)"/>
     <use xlink:href="#ArialMT-72" transform="translate(3960.351562 0)"/>
     <use xlink:href="#ArialMT-20" transform="translate(3993.652344 0)"/>
     <use xlink:href="#ArialMT-54" transform="translate(4019.685547 0)"/>
     <use xlink:href="#ArialMT-61" transform="translate(4069.644531 0)"/>
     <use xlink:href="#ArialMT-72" transform="translate(4125.259766 0)"/>
     <use xlink:href="#ArialMT-67" transform="translate(4158.560547 0)"/>
     <use xlink:href="#ArialMT-65" transform="translate(4214.175781 0)"/>
     <use xlink:href="#ArialMT-74" transform="translate(4269.791016 0)"/>
    </g>
   </g>
  </g>
 </g>
 <defs>
  <clipPath id="p1c4b344068">
   <rect x="79.566" y="40.416" width="457.282058" height="677.450348"/>
  </clipPath>
 </defs>
</svg>
