<?xml version="1.0" encoding="utf-8" standalone="no"?>
<!DOCTYPE svg PUBLIC "-//W3C//DTD SVG 1.1//EN"
  "http://www.w3.org/Graphics/SVG/1.1/DTD/svg11.dtd">
<svg xmlns:xlink="http://www.w3.org/1999/xlink" width="720pt" height="864pt" viewBox="0 0 720 864" xmlns="http://www.w3.org/2000/svg" version="1.1">
 <metadata>
  <rdf:RDF xmlns:dc="http://purl.org/dc/elements/1.1/" xmlns:cc="http://creativecommons.org/ns#" xmlns:rdf="http://www.w3.org/1999/02/22-rdf-syntax-ns#">
   <cc:Work>
    <dc:type rdf:resource="http://purl.org/dc/dcmitype/StillImage"/>
    <dc:date>2025-02-25T23:42:51.965568</dc:date>
    <dc:format>image/svg+xml</dc:format>
    <dc:creator>
     <cc:Agent>
      <dc:title>Matplotlib v3.10.0, https://matplotlib.org/</dc:title>
     </cc:Agent>
    </dc:creator>
   </cc:Work>
  </rdf:RDF>
 </metadata>
 <defs>
  <style type="text/css">*{stroke-linejoin: round; stroke-linecap: butt}</style>
 </defs>
 <g id="figure_1">
  <g id="patch_1">
   <path d="M 0 864 
L 720 864 
L 720 0 
L 0 0 
z
" style="fill: #ffffff"/>
  </g>
  <g id="axes_1">
   <g id="patch_2">
    <path d="M 79.566 645.866348 
L 692.917651 645.866348 
L 692.917651 40.416 
L 79.566 40.416 
z
" style="fill: #ffffff"/>
   </g>
   <g id="matplotlib.axis_1">
    <g id="xtick_1">
     <g id="text_1">
      <!-- RandomSplit -->
      <g style="fill: #262626" transform="translate(113.570287 734.472111) rotate(-45) scale(0.176 -0.176)">
       <defs>
        <path id="ArialMT-52" d="M 503 0 
L 503 4581 
L 2534 4581 
Q 3147 4581 3465 4457 
Q 3784 4334 3975 4021 
Q 4166 3709 4166 3331 
Q 4166 2844 3850 2509 
Q 3534 2175 2875 2084 
Q 3116 1969 3241 1856 
Q 3506 1613 3744 1247 
L 4541 0 
L 3778 0 
L 3172 953 
Q 2906 1366 2734 1584 
Q 2563 1803 2427 1890 
Q 2291 1978 2150 2013 
Q 2047 2034 1813 2034 
L 1109 2034 
L 1109 0 
L 503 0 
z
M 1109 2559 
L 2413 2559 
Q 2828 2559 3062 2645 
Q 3297 2731 3419 2920 
Q 3541 3109 3541 3331 
Q 3541 3656 3305 3865 
Q 3069 4075 2559 4075 
L 1109 4075 
L 1109 2559 
z
" transform="scale(0.015625)"/>
        <path id="ArialMT-61" d="M 2588 409 
Q 2275 144 1986 34 
Q 1697 -75 1366 -75 
Q 819 -75 525 192 
Q 231 459 231 875 
Q 231 1119 342 1320 
Q 453 1522 633 1644 
Q 813 1766 1038 1828 
Q 1203 1872 1538 1913 
Q 2219 1994 2541 2106 
Q 2544 2222 2544 2253 
Q 2544 2597 2384 2738 
Q 2169 2928 1744 2928 
Q 1347 2928 1158 2789 
Q 969 2650 878 2297 
L 328 2372 
Q 403 2725 575 2942 
Q 747 3159 1072 3276 
Q 1397 3394 1825 3394 
Q 2250 3394 2515 3294 
Q 2781 3194 2906 3042 
Q 3031 2891 3081 2659 
Q 3109 2516 3109 2141 
L 3109 1391 
Q 3109 606 3145 398 
Q 3181 191 3288 0 
L 2700 0 
Q 2613 175 2588 409 
z
M 2541 1666 
Q 2234 1541 1622 1453 
Q 1275 1403 1131 1340 
Q 988 1278 909 1158 
Q 831 1038 831 891 
Q 831 666 1001 516 
Q 1172 366 1500 366 
Q 1825 366 2078 508 
Q 2331 650 2450 897 
Q 2541 1088 2541 1459 
L 2541 1666 
z
" transform="scale(0.015625)"/>
        <path id="ArialMT-6e" d="M 422 0 
L 422 3319 
L 928 3319 
L 928 2847 
Q 1294 3394 1984 3394 
Q 2284 3394 2536 3286 
Q 2788 3178 2913 3003 
Q 3038 2828 3088 2588 
Q 3119 2431 3119 2041 
L 3119 0 
L 2556 0 
L 2556 2019 
Q 2556 2363 2490 2533 
Q 2425 2703 2258 2804 
Q 2091 2906 1866 2906 
Q 1506 2906 1245 2678 
Q 984 2450 984 1813 
L 984 0 
L 422 0 
z
" transform="scale(0.015625)"/>
        <path id="ArialMT-64" d="M 2575 0 
L 2575 419 
Q 2259 -75 1647 -75 
Q 1250 -75 917 144 
Q 584 363 401 755 
Q 219 1147 219 1656 
Q 219 2153 384 2558 
Q 550 2963 881 3178 
Q 1213 3394 1622 3394 
Q 1922 3394 2156 3267 
Q 2391 3141 2538 2938 
L 2538 4581 
L 3097 4581 
L 3097 0 
L 2575 0 
z
M 797 1656 
Q 797 1019 1065 703 
Q 1334 388 1700 388 
Q 2069 388 2326 689 
Q 2584 991 2584 1609 
Q 2584 2291 2321 2609 
Q 2059 2928 1675 2928 
Q 1300 2928 1048 2622 
Q 797 2316 797 1656 
z
" transform="scale(0.015625)"/>
        <path id="ArialMT-6f" d="M 213 1659 
Q 213 2581 725 3025 
Q 1153 3394 1769 3394 
Q 2453 3394 2887 2945 
Q 3322 2497 3322 1706 
Q 3322 1066 3130 698 
Q 2938 331 2570 128 
Q 2203 -75 1769 -75 
Q 1072 -75 642 372 
Q 213 819 213 1659 
z
M 791 1659 
Q 791 1022 1069 705 
Q 1347 388 1769 388 
Q 2188 388 2466 706 
Q 2744 1025 2744 1678 
Q 2744 2294 2464 2611 
Q 2184 2928 1769 2928 
Q 1347 2928 1069 2612 
Q 791 2297 791 1659 
z
" transform="scale(0.015625)"/>
        <path id="ArialMT-6d" d="M 422 0 
L 422 3319 
L 925 3319 
L 925 2853 
Q 1081 3097 1340 3245 
Q 1600 3394 1931 3394 
Q 2300 3394 2536 3241 
Q 2772 3088 2869 2813 
Q 3263 3394 3894 3394 
Q 4388 3394 4653 3120 
Q 4919 2847 4919 2278 
L 4919 0 
L 4359 0 
L 4359 2091 
Q 4359 2428 4304 2576 
Q 4250 2725 4106 2815 
Q 3963 2906 3769 2906 
Q 3419 2906 3187 2673 
Q 2956 2441 2956 1928 
L 2956 0 
L 2394 0 
L 2394 2156 
Q 2394 2531 2256 2718 
Q 2119 2906 1806 2906 
Q 1569 2906 1367 2781 
Q 1166 2656 1075 2415 
Q 984 2175 984 1722 
L 984 0 
L 422 0 
z
" transform="scale(0.015625)"/>
        <path id="ArialMT-53" d="M 288 1472 
L 859 1522 
Q 900 1178 1048 958 
Q 1197 738 1509 602 
Q 1822 466 2213 466 
Q 2559 466 2825 569 
Q 3091 672 3220 851 
Q 3350 1031 3350 1244 
Q 3350 1459 3225 1620 
Q 3100 1781 2813 1891 
Q 2628 1963 1997 2114 
Q 1366 2266 1113 2400 
Q 784 2572 623 2826 
Q 463 3081 463 3397 
Q 463 3744 659 4045 
Q 856 4347 1234 4503 
Q 1613 4659 2075 4659 
Q 2584 4659 2973 4495 
Q 3363 4331 3572 4012 
Q 3781 3694 3797 3291 
L 3216 3247 
Q 3169 3681 2898 3903 
Q 2628 4125 2100 4125 
Q 1550 4125 1298 3923 
Q 1047 3722 1047 3438 
Q 1047 3191 1225 3031 
Q 1400 2872 2139 2705 
Q 2878 2538 3153 2413 
Q 3553 2228 3743 1945 
Q 3934 1663 3934 1294 
Q 3934 928 3725 604 
Q 3516 281 3123 101 
Q 2731 -78 2241 -78 
Q 1619 -78 1198 103 
Q 778 284 539 648 
Q 300 1013 288 1472 
z
" transform="scale(0.015625)"/>
        <path id="ArialMT-70" d="M 422 -1272 
L 422 3319 
L 934 3319 
L 934 2888 
Q 1116 3141 1344 3267 
Q 1572 3394 1897 3394 
Q 2322 3394 2647 3175 
Q 2972 2956 3137 2557 
Q 3303 2159 3303 1684 
Q 3303 1175 3120 767 
Q 2938 359 2589 142 
Q 2241 -75 1856 -75 
Q 1575 -75 1351 44 
Q 1128 163 984 344 
L 984 -1272 
L 422 -1272 
z
M 931 1641 
Q 931 1000 1190 694 
Q 1450 388 1819 388 
Q 2194 388 2461 705 
Q 2728 1022 2728 1688 
Q 2728 2322 2467 2637 
Q 2206 2953 1844 2953 
Q 1484 2953 1207 2617 
Q 931 2281 931 1641 
z
" transform="scale(0.015625)"/>
        <path id="ArialMT-6c" d="M 409 0 
L 409 4581 
L 972 4581 
L 972 0 
L 409 0 
z
" transform="scale(0.015625)"/>
        <path id="ArialMT-69" d="M 425 3934 
L 425 4581 
L 988 4581 
L 988 3934 
L 425 3934 
z
M 425 0 
L 425 3319 
L 988 3319 
L 988 0 
L 425 0 
z
" transform="scale(0.015625)"/>
        <path id="ArialMT-74" d="M 1650 503 
L 1731 6 
Q 1494 -44 1306 -44 
Q 1000 -44 831 53 
Q 663 150 594 308 
Q 525 466 525 972 
L 525 2881 
L 113 2881 
L 113 3319 
L 525 3319 
L 525 4141 
L 1084 4478 
L 1084 3319 
L 1650 3319 
L 1650 2881 
L 1084 2881 
L 1084 941 
Q 1084 700 1114 631 
Q 1144 563 1211 522 
Q 1278 481 1403 481 
Q 1497 481 1650 503 
z
" transform="scale(0.015625)"/>
       </defs>
       <use xlink:href="#ArialMT-52"/>
       <use xlink:href="#ArialMT-61" transform="translate(72.216797 0)"/>
       <use xlink:href="#ArialMT-6e" transform="translate(127.832031 0)"/>
       <use xlink:href="#ArialMT-64" transform="translate(183.447266 0)"/>
       <use xlink:href="#ArialMT-6f" transform="translate(239.0625 0)"/>
       <use xlink:href="#ArialMT-6d" transform="translate(294.677734 0)"/>
       <use xlink:href="#ArialMT-53" transform="translate(377.978516 0)"/>
       <use xlink:href="#ArialMT-70" transform="translate(444.677734 0)"/>
       <use xlink:href="#ArialMT-6c" transform="translate(500.292969 0)"/>
       <use xlink:href="#ArialMT-69" transform="translate(522.509766 0)"/>
       <use xlink:href="#ArialMT-74" transform="translate(544.726562 0)"/>
      </g>
     </g>
    </g>
    <g id="xtick_2">
     <g id="text_2">
      <!-- ScaffoldSplit -->
      <g style="fill: #262626" transform="translate(210.851273 732.183383) rotate(-45) scale(0.176 -0.176)">
       <defs>
        <path id="ArialMT-63" d="M 2588 1216 
L 3141 1144 
Q 3050 572 2676 248 
Q 2303 -75 1759 -75 
Q 1078 -75 664 370 
Q 250 816 250 1647 
Q 250 2184 428 2587 
Q 606 2991 970 3192 
Q 1334 3394 1763 3394 
Q 2303 3394 2647 3120 
Q 2991 2847 3088 2344 
L 2541 2259 
Q 2463 2594 2264 2762 
Q 2066 2931 1784 2931 
Q 1359 2931 1093 2626 
Q 828 2322 828 1663 
Q 828 994 1084 691 
Q 1341 388 1753 388 
Q 2084 388 2306 591 
Q 2528 794 2588 1216 
z
" transform="scale(0.015625)"/>
        <path id="ArialMT-66" d="M 556 0 
L 556 2881 
L 59 2881 
L 59 3319 
L 556 3319 
L 556 3672 
Q 556 4006 616 4169 
Q 697 4388 901 4523 
Q 1106 4659 1475 4659 
Q 1713 4659 2000 4603 
L 1916 4113 
Q 1741 4144 1584 4144 
Q 1328 4144 1222 4034 
Q 1116 3925 1116 3625 
L 1116 3319 
L 1763 3319 
L 1763 2881 
L 1116 2881 
L 1116 0 
L 556 0 
z
" transform="scale(0.015625)"/>
       </defs>
       <use xlink:href="#ArialMT-53"/>
       <use xlink:href="#ArialMT-63" transform="translate(66.699219 0)"/>
       <use xlink:href="#ArialMT-61" transform="translate(116.699219 0)"/>
       <use xlink:href="#ArialMT-66" transform="translate(172.314453 0)"/>
       <use xlink:href="#ArialMT-66" transform="translate(198.347656 0)"/>
       <use xlink:href="#ArialMT-6f" transform="translate(226.130859 0)"/>
       <use xlink:href="#ArialMT-6c" transform="translate(281.746094 0)"/>
       <use xlink:href="#ArialMT-64" transform="translate(303.962891 0)"/>
       <use xlink:href="#ArialMT-53" transform="translate(359.578125 0)"/>
       <use xlink:href="#ArialMT-70" transform="translate(426.277344 0)"/>
       <use xlink:href="#ArialMT-6c" transform="translate(481.892578 0)"/>
       <use xlink:href="#ArialMT-69" transform="translate(504.109375 0)"/>
       <use xlink:href="#ArialMT-74" transform="translate(526.326172 0)"/>
      </g>
     </g>
    </g>
    <g id="xtick_3">
     <g id="text_3">
      <!-- SortedStepForward_LogD -->
      <g style="fill: #262626" transform="translate(269.107213 807.798908) rotate(-45) scale(0.176 -0.176)">
       <defs>
        <path id="ArialMT-72" d="M 416 0 
L 416 3319 
L 922 3319 
L 922 2816 
Q 1116 3169 1280 3281 
Q 1444 3394 1641 3394 
Q 1925 3394 2219 3213 
L 2025 2691 
Q 1819 2813 1613 2813 
Q 1428 2813 1281 2702 
Q 1134 2591 1072 2394 
Q 978 2094 978 1738 
L 978 0 
L 416 0 
z
" transform="scale(0.015625)"/>
        <path id="ArialMT-65" d="M 2694 1069 
L 3275 997 
Q 3138 488 2766 206 
Q 2394 -75 1816 -75 
Q 1088 -75 661 373 
Q 234 822 234 1631 
Q 234 2469 665 2931 
Q 1097 3394 1784 3394 
Q 2450 3394 2872 2941 
Q 3294 2488 3294 1666 
Q 3294 1616 3291 1516 
L 816 1516 
Q 847 969 1125 678 
Q 1403 388 1819 388 
Q 2128 388 2347 550 
Q 2566 713 2694 1069 
z
M 847 1978 
L 2700 1978 
Q 2663 2397 2488 2606 
Q 2219 2931 1791 2931 
Q 1403 2931 1139 2672 
Q 875 2413 847 1978 
z
" transform="scale(0.015625)"/>
        <path id="ArialMT-46" d="M 525 0 
L 525 4581 
L 3616 4581 
L 3616 4041 
L 1131 4041 
L 1131 2622 
L 3281 2622 
L 3281 2081 
L 1131 2081 
L 1131 0 
L 525 0 
z
" transform="scale(0.015625)"/>
        <path id="ArialMT-77" d="M 1034 0 
L 19 3319 
L 600 3319 
L 1128 1403 
L 1325 691 
Q 1338 744 1497 1375 
L 2025 3319 
L 2603 3319 
L 3100 1394 
L 3266 759 
L 3456 1400 
L 4025 3319 
L 4572 3319 
L 3534 0 
L 2950 0 
L 2422 1988 
L 2294 2553 
L 1622 0 
L 1034 0 
z
" transform="scale(0.015625)"/>
        <path id="ArialMT-5f" d="M -97 -1272 
L -97 -866 
L 3631 -866 
L 3631 -1272 
L -97 -1272 
z
" transform="scale(0.015625)"/>
        <path id="ArialMT-4c" d="M 469 0 
L 469 4581 
L 1075 4581 
L 1075 541 
L 3331 541 
L 3331 0 
L 469 0 
z
" transform="scale(0.015625)"/>
        <path id="ArialMT-67" d="M 319 -275 
L 866 -356 
Q 900 -609 1056 -725 
Q 1266 -881 1628 -881 
Q 2019 -881 2231 -725 
Q 2444 -569 2519 -288 
Q 2563 -116 2559 434 
Q 2191 0 1641 0 
Q 956 0 581 494 
Q 206 988 206 1678 
Q 206 2153 378 2554 
Q 550 2956 876 3175 
Q 1203 3394 1644 3394 
Q 2231 3394 2613 2919 
L 2613 3319 
L 3131 3319 
L 3131 450 
Q 3131 -325 2973 -648 
Q 2816 -972 2473 -1159 
Q 2131 -1347 1631 -1347 
Q 1038 -1347 672 -1080 
Q 306 -813 319 -275 
z
M 784 1719 
Q 784 1066 1043 766 
Q 1303 466 1694 466 
Q 2081 466 2343 764 
Q 2606 1063 2606 1700 
Q 2606 2309 2336 2618 
Q 2066 2928 1684 2928 
Q 1309 2928 1046 2623 
Q 784 2319 784 1719 
z
" transform="scale(0.015625)"/>
        <path id="ArialMT-44" d="M 494 0 
L 494 4581 
L 2072 4581 
Q 2606 4581 2888 4516 
Q 3281 4425 3559 4188 
Q 3922 3881 4101 3404 
Q 4281 2928 4281 2316 
Q 4281 1794 4159 1391 
Q 4038 988 3847 723 
Q 3656 459 3429 307 
Q 3203 156 2883 78 
Q 2563 0 2147 0 
L 494 0 
z
M 1100 541 
L 2078 541 
Q 2531 541 2789 625 
Q 3047 709 3200 863 
Q 3416 1078 3536 1442 
Q 3656 1806 3656 2325 
Q 3656 3044 3420 3430 
Q 3184 3816 2847 3947 
Q 2603 4041 2063 4041 
L 1100 4041 
L 1100 541 
z
" transform="scale(0.015625)"/>
       </defs>
       <use xlink:href="#ArialMT-53"/>
       <use xlink:href="#ArialMT-6f" transform="translate(66.699219 0)"/>
       <use xlink:href="#ArialMT-72" transform="translate(122.314453 0)"/>
       <use xlink:href="#ArialMT-74" transform="translate(155.615234 0)"/>
       <use xlink:href="#ArialMT-65" transform="translate(183.398438 0)"/>
       <use xlink:href="#ArialMT-64" transform="translate(239.013672 0)"/>
       <use xlink:href="#ArialMT-53" transform="translate(294.628906 0)"/>
       <use xlink:href="#ArialMT-74" transform="translate(361.328125 0)"/>
       <use xlink:href="#ArialMT-65" transform="translate(389.111328 0)"/>
       <use xlink:href="#ArialMT-70" transform="translate(444.726562 0)"/>
       <use xlink:href="#ArialMT-46" transform="translate(500.341797 0)"/>
       <use xlink:href="#ArialMT-6f" transform="translate(561.425781 0)"/>
       <use xlink:href="#ArialMT-72" transform="translate(617.041016 0)"/>
       <use xlink:href="#ArialMT-77" transform="translate(650.341797 0)"/>
       <use xlink:href="#ArialMT-61" transform="translate(722.558594 0)"/>
       <use xlink:href="#ArialMT-72" transform="translate(778.173828 0)"/>
       <use xlink:href="#ArialMT-64" transform="translate(811.474609 0)"/>
       <use xlink:href="#ArialMT-5f" transform="translate(867.089844 0)"/>
       <use xlink:href="#ArialMT-4c" transform="translate(922.705078 0)"/>
       <use xlink:href="#ArialMT-6f" transform="translate(978.320312 0)"/>
       <use xlink:href="#ArialMT-67" transform="translate(1033.935547 0)"/>
       <use xlink:href="#ArialMT-44" transform="translate(1089.550781 0)"/>
      </g>
     </g>
    </g>
    <g id="xtick_4">
     <g id="text_4">
      <!-- SortedStepForward_LogP -->
      <g style="fill: #262626" transform="translate(365.587047 807.112484) rotate(-45) scale(0.176 -0.176)">
       <defs>
        <path id="ArialMT-50" d="M 494 0 
L 494 4581 
L 2222 4581 
Q 2678 4581 2919 4538 
Q 3256 4481 3484 4323 
Q 3713 4166 3852 3881 
Q 3991 3597 3991 3256 
Q 3991 2672 3619 2267 
Q 3247 1863 2275 1863 
L 1100 1863 
L 1100 0 
L 494 0 
z
M 1100 2403 
L 2284 2403 
Q 2872 2403 3119 2622 
Q 3366 2841 3366 3238 
Q 3366 3525 3220 3729 
Q 3075 3934 2838 4000 
Q 2684 4041 2272 4041 
L 1100 4041 
L 1100 2403 
z
" transform="scale(0.015625)"/>
       </defs>
       <use xlink:href="#ArialMT-53"/>
       <use xlink:href="#ArialMT-6f" transform="translate(66.699219 0)"/>
       <use xlink:href="#ArialMT-72" transform="translate(122.314453 0)"/>
       <use xlink:href="#ArialMT-74" transform="translate(155.615234 0)"/>
       <use xlink:href="#ArialMT-65" transform="translate(183.398438 0)"/>
       <use xlink:href="#ArialMT-64" transform="translate(239.013672 0)"/>
       <use xlink:href="#ArialMT-53" transform="translate(294.628906 0)"/>
       <use xlink:href="#ArialMT-74" transform="translate(361.328125 0)"/>
       <use xlink:href="#ArialMT-65" transform="translate(389.111328 0)"/>
       <use xlink:href="#ArialMT-70" transform="translate(444.726562 0)"/>
       <use xlink:href="#ArialMT-46" transform="translate(500.341797 0)"/>
       <use xlink:href="#ArialMT-6f" transform="translate(561.425781 0)"/>
       <use xlink:href="#ArialMT-72" transform="translate(617.041016 0)"/>
       <use xlink:href="#ArialMT-77" transform="translate(650.341797 0)"/>
       <use xlink:href="#ArialMT-61" transform="translate(722.558594 0)"/>
       <use xlink:href="#ArialMT-72" transform="translate(778.173828 0)"/>
       <use xlink:href="#ArialMT-64" transform="translate(811.474609 0)"/>
       <use xlink:href="#ArialMT-5f" transform="translate(867.089844 0)"/>
       <use xlink:href="#ArialMT-4c" transform="translate(922.705078 0)"/>
       <use xlink:href="#ArialMT-6f" transform="translate(978.320312 0)"/>
       <use xlink:href="#ArialMT-67" transform="translate(1033.935547 0)"/>
       <use xlink:href="#ArialMT-50" transform="translate(1089.550781 0)"/>
      </g>
     </g>
    </g>
    <g id="xtick_5">
     <g id="text_5">
      <!-- SortedStepForward_MCE18 -->
      <g style="fill: #262626" transform="translate(455.579884 819.545896) rotate(-45) scale(0.176 -0.176)">
       <defs>
        <path id="ArialMT-4d" d="M 475 0 
L 475 4581 
L 1388 4581 
L 2472 1338 
Q 2622 884 2691 659 
Q 2769 909 2934 1394 
L 4031 4581 
L 4847 4581 
L 4847 0 
L 4263 0 
L 4263 3834 
L 2931 0 
L 2384 0 
L 1059 3900 
L 1059 0 
L 475 0 
z
" transform="scale(0.015625)"/>
        <path id="ArialMT-43" d="M 3763 1606 
L 4369 1453 
Q 4178 706 3683 314 
Q 3188 -78 2472 -78 
Q 1731 -78 1267 223 
Q 803 525 561 1097 
Q 319 1669 319 2325 
Q 319 3041 592 3573 
Q 866 4106 1370 4382 
Q 1875 4659 2481 4659 
Q 3169 4659 3637 4309 
Q 4106 3959 4291 3325 
L 3694 3184 
Q 3534 3684 3231 3912 
Q 2928 4141 2469 4141 
Q 1941 4141 1586 3887 
Q 1231 3634 1087 3207 
Q 944 2781 944 2328 
Q 944 1744 1114 1308 
Q 1284 872 1643 656 
Q 2003 441 2422 441 
Q 2931 441 3284 734 
Q 3638 1028 3763 1606 
z
" transform="scale(0.015625)"/>
        <path id="ArialMT-45" d="M 506 0 
L 506 4581 
L 3819 4581 
L 3819 4041 
L 1113 4041 
L 1113 2638 
L 3647 2638 
L 3647 2100 
L 1113 2100 
L 1113 541 
L 3925 541 
L 3925 0 
L 506 0 
z
" transform="scale(0.015625)"/>
        <path id="ArialMT-31" d="M 2384 0 
L 1822 0 
L 1822 3584 
Q 1619 3391 1289 3197 
Q 959 3003 697 2906 
L 697 3450 
Q 1169 3672 1522 3987 
Q 1875 4303 2022 4600 
L 2384 4600 
L 2384 0 
z
" transform="scale(0.015625)"/>
        <path id="ArialMT-38" d="M 1131 2484 
Q 781 2613 612 2850 
Q 444 3088 444 3419 
Q 444 3919 803 4259 
Q 1163 4600 1759 4600 
Q 2359 4600 2725 4251 
Q 3091 3903 3091 3403 
Q 3091 3084 2923 2848 
Q 2756 2613 2416 2484 
Q 2838 2347 3058 2040 
Q 3278 1734 3278 1309 
Q 3278 722 2862 322 
Q 2447 -78 1769 -78 
Q 1091 -78 675 323 
Q 259 725 259 1325 
Q 259 1772 486 2073 
Q 713 2375 1131 2484 
z
M 1019 3438 
Q 1019 3113 1228 2906 
Q 1438 2700 1772 2700 
Q 2097 2700 2305 2904 
Q 2513 3109 2513 3406 
Q 2513 3716 2298 3927 
Q 2084 4138 1766 4138 
Q 1444 4138 1231 3931 
Q 1019 3725 1019 3438 
z
M 838 1322 
Q 838 1081 952 856 
Q 1066 631 1291 507 
Q 1516 384 1775 384 
Q 2178 384 2440 643 
Q 2703 903 2703 1303 
Q 2703 1709 2433 1975 
Q 2163 2241 1756 2241 
Q 1359 2241 1098 1978 
Q 838 1716 838 1322 
z
" transform="scale(0.015625)"/>
       </defs>
       <use xlink:href="#ArialMT-53"/>
       <use xlink:href="#ArialMT-6f" transform="translate(66.699219 0)"/>
       <use xlink:href="#ArialMT-72" transform="translate(122.314453 0)"/>
       <use xlink:href="#ArialMT-74" transform="translate(155.615234 0)"/>
       <use xlink:href="#ArialMT-65" transform="translate(183.398438 0)"/>
       <use xlink:href="#ArialMT-64" transform="translate(239.013672 0)"/>
       <use xlink:href="#ArialMT-53" transform="translate(294.628906 0)"/>
       <use xlink:href="#ArialMT-74" transform="translate(361.328125 0)"/>
       <use xlink:href="#ArialMT-65" transform="translate(389.111328 0)"/>
       <use xlink:href="#ArialMT-70" transform="translate(444.726562 0)"/>
       <use xlink:href="#ArialMT-46" transform="translate(500.341797 0)"/>
       <use xlink:href="#ArialMT-6f" transform="translate(561.425781 0)"/>
       <use xlink:href="#ArialMT-72" transform="translate(617.041016 0)"/>
       <use xlink:href="#ArialMT-77" transform="translate(650.341797 0)"/>
       <use xlink:href="#ArialMT-61" transform="translate(722.558594 0)"/>
       <use xlink:href="#ArialMT-72" transform="translate(778.173828 0)"/>
       <use xlink:href="#ArialMT-64" transform="translate(811.474609 0)"/>
       <use xlink:href="#ArialMT-5f" transform="translate(867.089844 0)"/>
       <use xlink:href="#ArialMT-4d" transform="translate(922.705078 0)"/>
       <use xlink:href="#ArialMT-43" transform="translate(1006.005859 0)"/>
       <use xlink:href="#ArialMT-45" transform="translate(1078.222656 0)"/>
       <use xlink:href="#ArialMT-31" transform="translate(1144.921875 0)"/>
       <use xlink:href="#ArialMT-38" transform="translate(1200.537109 0)"/>
      </g>
     </g>
    </g>
    <g id="xtick_6">
     <g id="text_6">
      <!-- UnsortedStepForward -->
      <g style="fill: #262626" transform="translate(569.010305 784.958298) rotate(-45) scale(0.176 -0.176)">
       <defs>
        <path id="ArialMT-55" d="M 3500 4581 
L 4106 4581 
L 4106 1934 
Q 4106 1244 3950 837 
Q 3794 431 3386 176 
Q 2978 -78 2316 -78 
Q 1672 -78 1262 144 
Q 853 366 678 786 
Q 503 1206 503 1934 
L 503 4581 
L 1109 4581 
L 1109 1938 
Q 1109 1341 1220 1058 
Q 1331 775 1601 622 
Q 1872 469 2263 469 
Q 2931 469 3215 772 
Q 3500 1075 3500 1938 
L 3500 4581 
z
" transform="scale(0.015625)"/>
        <path id="ArialMT-73" d="M 197 991 
L 753 1078 
Q 800 744 1014 566 
Q 1228 388 1613 388 
Q 2000 388 2187 545 
Q 2375 703 2375 916 
Q 2375 1106 2209 1216 
Q 2094 1291 1634 1406 
Q 1016 1563 777 1677 
Q 538 1791 414 1992 
Q 291 2194 291 2438 
Q 291 2659 392 2848 
Q 494 3038 669 3163 
Q 800 3259 1026 3326 
Q 1253 3394 1513 3394 
Q 1903 3394 2198 3281 
Q 2494 3169 2634 2976 
Q 2775 2784 2828 2463 
L 2278 2388 
Q 2241 2644 2061 2787 
Q 1881 2931 1553 2931 
Q 1166 2931 1000 2803 
Q 834 2675 834 2503 
Q 834 2394 903 2306 
Q 972 2216 1119 2156 
Q 1203 2125 1616 2013 
Q 2213 1853 2448 1751 
Q 2684 1650 2818 1456 
Q 2953 1263 2953 975 
Q 2953 694 2789 445 
Q 2625 197 2315 61 
Q 2006 -75 1616 -75 
Q 969 -75 630 194 
Q 291 463 197 991 
z
" transform="scale(0.015625)"/>
       </defs>
       <use xlink:href="#ArialMT-55"/>
       <use xlink:href="#ArialMT-6e" transform="translate(72.216797 0)"/>
       <use xlink:href="#ArialMT-73" transform="translate(127.832031 0)"/>
       <use xlink:href="#ArialMT-6f" transform="translate(177.832031 0)"/>
       <use xlink:href="#ArialMT-72" transform="translate(233.447266 0)"/>
       <use xlink:href="#ArialMT-74" transform="translate(266.748047 0)"/>
       <use xlink:href="#ArialMT-65" transform="translate(294.53125 0)"/>
       <use xlink:href="#ArialMT-64" transform="translate(350.146484 0)"/>
       <use xlink:href="#ArialMT-53" transform="translate(405.761719 0)"/>
       <use xlink:href="#ArialMT-74" transform="translate(472.460938 0)"/>
       <use xlink:href="#ArialMT-65" transform="translate(500.244141 0)"/>
       <use xlink:href="#ArialMT-70" transform="translate(555.859375 0)"/>
       <use xlink:href="#ArialMT-46" transform="translate(611.474609 0)"/>
       <use xlink:href="#ArialMT-6f" transform="translate(672.558594 0)"/>
       <use xlink:href="#ArialMT-72" transform="translate(728.173828 0)"/>
       <use xlink:href="#ArialMT-77" transform="translate(761.474609 0)"/>
       <use xlink:href="#ArialMT-61" transform="translate(833.691406 0)"/>
       <use xlink:href="#ArialMT-72" transform="translate(889.306641 0)"/>
       <use xlink:href="#ArialMT-64" transform="translate(922.607422 0)"/>
      </g>
     </g>
    </g>
    <g id="text_7">
     <!-- split_type -->
     <g style="fill: #262626" transform="translate(345.687825 839.762355) scale(0.192 -0.192)">
      <defs>
       <path id="ArialMT-79" d="M 397 -1278 
L 334 -750 
Q 519 -800 656 -800 
Q 844 -800 956 -737 
Q 1069 -675 1141 -563 
Q 1194 -478 1313 -144 
Q 1328 -97 1363 -6 
L 103 3319 
L 709 3319 
L 1400 1397 
Q 1534 1031 1641 628 
Q 1738 1016 1872 1384 
L 2581 3319 
L 3144 3319 
L 1881 -56 
Q 1678 -603 1566 -809 
Q 1416 -1088 1222 -1217 
Q 1028 -1347 759 -1347 
Q 597 -1347 397 -1278 
z
" transform="scale(0.015625)"/>
      </defs>
      <use xlink:href="#ArialMT-73"/>
      <use xlink:href="#ArialMT-70" transform="translate(50 0)"/>
      <use xlink:href="#ArialMT-6c" transform="translate(105.615234 0)"/>
      <use xlink:href="#ArialMT-69" transform="translate(127.832031 0)"/>
      <use xlink:href="#ArialMT-74" transform="translate(150.048828 0)"/>
      <use xlink:href="#ArialMT-5f" transform="translate(177.832031 0)"/>
      <use xlink:href="#ArialMT-74" transform="translate(233.447266 0)"/>
      <use xlink:href="#ArialMT-79" transform="translate(261.230469 0)"/>
      <use xlink:href="#ArialMT-70" transform="translate(311.230469 0)"/>
      <use xlink:href="#ArialMT-65" transform="translate(366.845703 0)"/>
     </g>
    </g>
   </g>
   <g id="matplotlib.axis_2">
    <g id="ytick_1">
     <g id="line2d_1">
      <path d="M 79.566 606.571612 
L 692.917651 606.571612 
" clip-path="url(#p8f3db91366)" style="fill: none; stroke: #cccccc; stroke-width: 0.8; stroke-linecap: round"/>
     </g>
     <g id="text_8">
      <!-- 0 -->
      <g style="fill: #262626" transform="translate(61.47875 612.870487) scale(0.176 -0.176)">
       <defs>
        <path id="ArialMT-30" d="M 266 2259 
Q 266 3072 433 3567 
Q 600 4063 929 4331 
Q 1259 4600 1759 4600 
Q 2128 4600 2406 4451 
Q 2684 4303 2865 4023 
Q 3047 3744 3150 3342 
Q 3253 2941 3253 2259 
Q 3253 1453 3087 958 
Q 2922 463 2592 192 
Q 2263 -78 1759 -78 
Q 1097 -78 719 397 
Q 266 969 266 2259 
z
M 844 2259 
Q 844 1131 1108 757 
Q 1372 384 1759 384 
Q 2147 384 2411 759 
Q 2675 1134 2675 2259 
Q 2675 3391 2411 3762 
Q 2147 4134 1753 4134 
Q 1366 4134 1134 3806 
Q 844 3388 844 2259 
z
" transform="scale(0.015625)"/>
       </defs>
       <use xlink:href="#ArialMT-30"/>
      </g>
     </g>
    </g>
    <g id="ytick_2">
     <g id="line2d_2">
      <path d="M 79.566 536.333387 
L 692.917651 536.333387 
" clip-path="url(#p8f3db91366)" style="fill: none; stroke: #cccccc; stroke-width: 0.8; stroke-linecap: round"/>
     </g>
     <g id="text_9">
      <!-- 20 -->
      <g style="fill: #262626" transform="translate(51.6915 542.632262) scale(0.176 -0.176)">
       <defs>
        <path id="ArialMT-32" d="M 3222 541 
L 3222 0 
L 194 0 
Q 188 203 259 391 
Q 375 700 629 1000 
Q 884 1300 1366 1694 
Q 2113 2306 2375 2664 
Q 2638 3022 2638 3341 
Q 2638 3675 2398 3904 
Q 2159 4134 1775 4134 
Q 1369 4134 1125 3890 
Q 881 3647 878 3216 
L 300 3275 
Q 359 3922 746 4261 
Q 1134 4600 1788 4600 
Q 2447 4600 2831 4234 
Q 3216 3869 3216 3328 
Q 3216 3053 3103 2787 
Q 2991 2522 2730 2228 
Q 2469 1934 1863 1422 
Q 1356 997 1212 845 
Q 1069 694 975 541 
L 3222 541 
z
" transform="scale(0.015625)"/>
       </defs>
       <use xlink:href="#ArialMT-32"/>
       <use xlink:href="#ArialMT-30" transform="translate(55.615234 0)"/>
      </g>
     </g>
    </g>
    <g id="ytick_3">
     <g id="line2d_3">
      <path d="M 79.566 466.095162 
L 692.917651 466.095162 
" clip-path="url(#p8f3db91366)" style="fill: none; stroke: #cccccc; stroke-width: 0.8; stroke-linecap: round"/>
     </g>
     <g id="text_10">
      <!-- 40 -->
      <g style="fill: #262626" transform="translate(51.6915 472.394037) scale(0.176 -0.176)">
       <defs>
        <path id="ArialMT-34" d="M 2069 0 
L 2069 1097 
L 81 1097 
L 81 1613 
L 2172 4581 
L 2631 4581 
L 2631 1613 
L 3250 1613 
L 3250 1097 
L 2631 1097 
L 2631 0 
L 2069 0 
z
M 2069 1613 
L 2069 3678 
L 634 1613 
L 2069 1613 
z
" transform="scale(0.015625)"/>
       </defs>
       <use xlink:href="#ArialMT-34"/>
       <use xlink:href="#ArialMT-30" transform="translate(55.615234 0)"/>
      </g>
     </g>
    </g>
    <g id="ytick_4">
     <g id="line2d_4">
      <path d="M 79.566 395.856937 
L 692.917651 395.856937 
" clip-path="url(#p8f3db91366)" style="fill: none; stroke: #cccccc; stroke-width: 0.8; stroke-linecap: round"/>
     </g>
     <g id="text_11">
      <!-- 60 -->
      <g style="fill: #262626" transform="translate(51.6915 402.155812) scale(0.176 -0.176)">
       <defs>
        <path id="ArialMT-36" d="M 3184 3459 
L 2625 3416 
Q 2550 3747 2413 3897 
Q 2184 4138 1850 4138 
Q 1581 4138 1378 3988 
Q 1113 3794 959 3422 
Q 806 3050 800 2363 
Q 1003 2672 1297 2822 
Q 1591 2972 1913 2972 
Q 2475 2972 2870 2558 
Q 3266 2144 3266 1488 
Q 3266 1056 3080 686 
Q 2894 316 2569 119 
Q 2244 -78 1831 -78 
Q 1128 -78 684 439 
Q 241 956 241 2144 
Q 241 3472 731 4075 
Q 1159 4600 1884 4600 
Q 2425 4600 2770 4297 
Q 3116 3994 3184 3459 
z
M 888 1484 
Q 888 1194 1011 928 
Q 1134 663 1356 523 
Q 1578 384 1822 384 
Q 2178 384 2434 671 
Q 2691 959 2691 1453 
Q 2691 1928 2437 2201 
Q 2184 2475 1800 2475 
Q 1419 2475 1153 2201 
Q 888 1928 888 1484 
z
" transform="scale(0.015625)"/>
       </defs>
       <use xlink:href="#ArialMT-36"/>
       <use xlink:href="#ArialMT-30" transform="translate(55.615234 0)"/>
      </g>
     </g>
    </g>
    <g id="ytick_5">
     <g id="line2d_5">
      <path d="M 79.566 325.618712 
L 692.917651 325.618712 
" clip-path="url(#p8f3db91366)" style="fill: none; stroke: #cccccc; stroke-width: 0.8; stroke-linecap: round"/>
     </g>
     <g id="text_12">
      <!-- 80 -->
      <g style="fill: #262626" transform="translate(51.6915 331.917587) scale(0.176 -0.176)">
       <use xlink:href="#ArialMT-38"/>
       <use xlink:href="#ArialMT-30" transform="translate(55.615234 0)"/>
      </g>
     </g>
    </g>
    <g id="ytick_6">
     <g id="line2d_6">
      <path d="M 79.566 255.380488 
L 692.917651 255.380488 
" clip-path="url(#p8f3db91366)" style="fill: none; stroke: #cccccc; stroke-width: 0.8; stroke-linecap: round"/>
     </g>
     <g id="text_13">
      <!-- 100 -->
      <g style="fill: #262626" transform="translate(41.90425 261.679363) scale(0.176 -0.176)">
       <use xlink:href="#ArialMT-31"/>
       <use xlink:href="#ArialMT-30" transform="translate(55.615234 0)"/>
       <use xlink:href="#ArialMT-30" transform="translate(111.230469 0)"/>
      </g>
     </g>
    </g>
    <g id="ytick_7">
     <g id="line2d_7">
      <path d="M 79.566 185.142263 
L 692.917651 185.142263 
" clip-path="url(#p8f3db91366)" style="fill: none; stroke: #cccccc; stroke-width: 0.8; stroke-linecap: round"/>
     </g>
     <g id="text_14">
      <!-- 120 -->
      <g style="fill: #262626" transform="translate(41.90425 191.441138) scale(0.176 -0.176)">
       <use xlink:href="#ArialMT-31"/>
       <use xlink:href="#ArialMT-32" transform="translate(55.615234 0)"/>
       <use xlink:href="#ArialMT-30" transform="translate(111.230469 0)"/>
      </g>
     </g>
    </g>
    <g id="ytick_8">
     <g id="line2d_8">
      <path d="M 79.566 114.904038 
L 692.917651 114.904038 
" clip-path="url(#p8f3db91366)" style="fill: none; stroke: #cccccc; stroke-width: 0.8; stroke-linecap: round"/>
     </g>
     <g id="text_15">
      <!-- 140 -->
      <g style="fill: #262626" transform="translate(41.90425 121.202913) scale(0.176 -0.176)">
       <use xlink:href="#ArialMT-31"/>
       <use xlink:href="#ArialMT-34" transform="translate(55.615234 0)"/>
       <use xlink:href="#ArialMT-30" transform="translate(111.230469 0)"/>
      </g>
     </g>
    </g>
    <g id="ytick_9">
     <g id="line2d_9">
      <path d="M 79.566 44.665813 
L 692.917651 44.665813 
" clip-path="url(#p8f3db91366)" style="fill: none; stroke: #cccccc; stroke-width: 0.8; stroke-linecap: round"/>
     </g>
     <g id="text_16">
      <!-- 160 -->
      <g style="fill: #262626" transform="translate(41.90425 50.964688) scale(0.176 -0.176)">
       <use xlink:href="#ArialMT-31"/>
       <use xlink:href="#ArialMT-36" transform="translate(55.615234 0)"/>
       <use xlink:href="#ArialMT-30" transform="translate(111.230469 0)"/>
      </g>
     </g>
    </g>
    <g id="text_17">
     <!-- number of discovery compounds within error range -->
     <g style="fill: #262626" transform="translate(33.86325 559.228174) rotate(-90) scale(0.192 -0.192)">
      <defs>
       <path id="ArialMT-75" d="M 2597 0 
L 2597 488 
Q 2209 -75 1544 -75 
Q 1250 -75 995 37 
Q 741 150 617 320 
Q 494 491 444 738 
Q 409 903 409 1263 
L 409 3319 
L 972 3319 
L 972 1478 
Q 972 1038 1006 884 
Q 1059 663 1231 536 
Q 1403 409 1656 409 
Q 1909 409 2131 539 
Q 2353 669 2445 892 
Q 2538 1116 2538 1541 
L 2538 3319 
L 3100 3319 
L 3100 0 
L 2597 0 
z
" transform="scale(0.015625)"/>
       <path id="ArialMT-62" d="M 941 0 
L 419 0 
L 419 4581 
L 981 4581 
L 981 2947 
Q 1338 3394 1891 3394 
Q 2197 3394 2470 3270 
Q 2744 3147 2920 2923 
Q 3097 2700 3197 2384 
Q 3297 2069 3297 1709 
Q 3297 856 2875 390 
Q 2453 -75 1863 -75 
Q 1275 -75 941 416 
L 941 0 
z
M 934 1684 
Q 934 1088 1097 822 
Q 1363 388 1816 388 
Q 2184 388 2453 708 
Q 2722 1028 2722 1663 
Q 2722 2313 2464 2622 
Q 2206 2931 1841 2931 
Q 1472 2931 1203 2611 
Q 934 2291 934 1684 
z
" transform="scale(0.015625)"/>
       <path id="ArialMT-20" transform="scale(0.015625)"/>
       <path id="ArialMT-76" d="M 1344 0 
L 81 3319 
L 675 3319 
L 1388 1331 
Q 1503 1009 1600 663 
Q 1675 925 1809 1294 
L 2547 3319 
L 3125 3319 
L 1869 0 
L 1344 0 
z
" transform="scale(0.015625)"/>
       <path id="ArialMT-68" d="M 422 0 
L 422 4581 
L 984 4581 
L 984 2938 
Q 1378 3394 1978 3394 
Q 2347 3394 2619 3248 
Q 2891 3103 3008 2847 
Q 3125 2591 3125 2103 
L 3125 0 
L 2563 0 
L 2563 2103 
Q 2563 2525 2380 2717 
Q 2197 2909 1863 2909 
Q 1613 2909 1392 2779 
Q 1172 2650 1078 2428 
Q 984 2206 984 1816 
L 984 0 
L 422 0 
z
" transform="scale(0.015625)"/>
      </defs>
      <use xlink:href="#ArialMT-6e"/>
      <use xlink:href="#ArialMT-75" transform="translate(55.615234 0)"/>
      <use xlink:href="#ArialMT-6d" transform="translate(111.230469 0)"/>
      <use xlink:href="#ArialMT-62" transform="translate(194.53125 0)"/>
      <use xlink:href="#ArialMT-65" transform="translate(250.146484 0)"/>
      <use xlink:href="#ArialMT-72" transform="translate(305.761719 0)"/>
      <use xlink:href="#ArialMT-20" transform="translate(339.0625 0)"/>
      <use xlink:href="#ArialMT-6f" transform="translate(366.845703 0)"/>
      <use xlink:href="#ArialMT-66" transform="translate(422.460938 0)"/>
      <use xlink:href="#ArialMT-20" transform="translate(450.244141 0)"/>
      <use xlink:href="#ArialMT-64" transform="translate(478.027344 0)"/>
      <use xlink:href="#ArialMT-69" transform="translate(533.642578 0)"/>
      <use xlink:href="#ArialMT-73" transform="translate(555.859375 0)"/>
      <use xlink:href="#ArialMT-63" transform="translate(605.859375 0)"/>
      <use xlink:href="#ArialMT-6f" transform="translate(655.859375 0)"/>
      <use xlink:href="#ArialMT-76" transform="translate(711.474609 0)"/>
      <use xlink:href="#ArialMT-65" transform="translate(761.474609 0)"/>
      <use xlink:href="#ArialMT-72" transform="translate(817.089844 0)"/>
      <use xlink:href="#ArialMT-79" transform="translate(850.390625 0)"/>
      <use xlink:href="#ArialMT-20" transform="translate(900.390625 0)"/>
      <use xlink:href="#ArialMT-63" transform="translate(928.173828 0)"/>
      <use xlink:href="#ArialMT-6f" transform="translate(978.173828 0)"/>
      <use xlink:href="#ArialMT-6d" transform="translate(1033.789062 0)"/>
      <use xlink:href="#ArialMT-70" transform="translate(1117.089844 0)"/>
      <use xlink:href="#ArialMT-6f" transform="translate(1172.705078 0)"/>
      <use xlink:href="#ArialMT-75" transform="translate(1228.320312 0)"/>
      <use xlink:href="#ArialMT-6e" transform="translate(1283.935547 0)"/>
      <use xlink:href="#ArialMT-64" transform="translate(1339.550781 0)"/>
      <use xlink:href="#ArialMT-73" transform="translate(1395.166016 0)"/>
      <use xlink:href="#ArialMT-20" transform="translate(1445.166016 0)"/>
      <use xlink:href="#ArialMT-77" transform="translate(1472.949219 0)"/>
      <use xlink:href="#ArialMT-69" transform="translate(1545.166016 0)"/>
      <use xlink:href="#ArialMT-74" transform="translate(1567.382812 0)"/>
      <use xlink:href="#ArialMT-68" transform="translate(1595.166016 0)"/>
      <use xlink:href="#ArialMT-69" transform="translate(1650.78125 0)"/>
      <use xlink:href="#ArialMT-6e" transform="translate(1672.998047 0)"/>
      <use xlink:href="#ArialMT-20" transform="translate(1728.613281 0)"/>
      <use xlink:href="#ArialMT-65" transform="translate(1756.396484 0)"/>
      <use xlink:href="#ArialMT-72" transform="translate(1812.011719 0)"/>
      <use xlink:href="#ArialMT-72" transform="translate(1845.3125 0)"/>
      <use xlink:href="#ArialMT-6f" transform="translate(1878.613281 0)"/>
      <use xlink:href="#ArialMT-72" transform="translate(1934.228516 0)"/>
      <use xlink:href="#ArialMT-20" transform="translate(1967.529297 0)"/>
      <use xlink:href="#ArialMT-72" transform="translate(1995.3125 0)"/>
      <use xlink:href="#ArialMT-61" transform="translate(2028.613281 0)"/>
      <use xlink:href="#ArialMT-6e" transform="translate(2084.228516 0)"/>
      <use xlink:href="#ArialMT-67" transform="translate(2139.84375 0)"/>
      <use xlink:href="#ArialMT-65" transform="translate(2195.458984 0)"/>
     </g>
    </g>
   </g>
   <g id="FillBetweenPolyCollection_1">
    <defs>
     <path id="m753b17876e" d="M 146.258924 -237.030605 
L 145.541615 -237.030605 
L 145.022238 -240.848171 
L 143.973961 -244.665737 
L 142.099657 -248.483303 
L 139.129205 -252.300869 
L 134.955396 -256.118435 
L 129.757198 -259.936001 
L 124.026003 -263.753568 
L 118.450174 -267.571134 
L 113.700536 -271.3887 
L 110.228447 -275.206266 
L 108.179529 -279.023832 
L 107.44562 -282.841398 
L 107.791379 -286.658964 
L 108.966052 -290.47653 
L 110.753168 -294.294097 
L 112.971294 -298.111663 
L 115.464538 -301.929229 
L 118.104311 -305.746795 
L 120.796259 -309.564361 
L 123.477 -313.381927 
L 126.095309 -317.199493 
L 128.586633 -321.017059 
L 130.857015 -324.834625 
L 132.789964 -328.652192 
L 134.278079 -332.469758 
L 135.264698 -336.287324 
L 135.769908 -340.10489 
L 135.88191 -343.922456 
L 135.718376 -347.740022 
L 135.384885 -351.557588 
L 134.958262 -355.375154 
L 134.500598 -359.192721 
L 134.084587 -363.010287 
L 133.802412 -366.827853 
L 133.744001 -370.645419 
L 133.956354 -374.462985 
L 134.414987 -378.280551 
L 135.033226 -382.098117 
L 135.705953 -385.915683 
L 136.356665 -389.73325 
L 136.956564 -393.550816 
L 137.510357 -397.368382 
L 138.029269 -401.185948 
L 138.515753 -405.003514 
L 138.968287 -408.82108 
L 139.395769 -412.638646 
L 139.824505 -416.456212 
L 140.289388 -420.273779 
L 140.815202 -424.091345 
L 141.401592 -427.908911 
L 142.021184 -431.726477 
L 142.630573 -435.544043 
L 143.186891 -439.361609 
L 143.661438 -443.179175 
L 144.044676 -446.996741 
L 144.341975 -450.814308 
L 144.564661 -454.631874 
L 144.723148 -458.44944 
L 144.826168 -462.267006 
L 144.884554 -466.084572 
L 144.914245 -469.902138 
L 144.933954 -473.719704 
L 144.957748 -477.53727 
L 144.987828 -481.354837 
L 145.013882 -485.172403 
L 145.020791 -488.989969 
L 144.999783 -492.807535 
L 144.955181 -496.625101 
L 144.90241 -500.442667 
L 144.859411 -504.260233 
L 144.837854 -508.077799 
L 144.839843 -511.895365 
L 144.861305 -515.712932 
L 144.898072 -519.530498 
L 144.948851 -523.348064 
L 145.01273 -527.16563 
L 145.084856 -530.983196 
L 145.156078 -534.800762 
L 145.21805 -538.618328 
L 145.268981 -542.435894 
L 145.314152 -546.253461 
L 145.360614 -550.071027 
L 145.411071 -553.888593 
L 145.462235 -557.706159 
L 145.50849 -561.523725 
L 145.547226 -565.341291 
L 145.581295 -569.158857 
L 145.61669 -572.976423 
L 145.65759 -576.79399 
L 145.703093 -580.611556 
L 145.748197 -584.429122 
L 145.787656 -588.246688 
L 145.819053 -592.064254 
L 145.842978 -595.88182 
L 145.861224 -599.699386 
L 145.875162 -603.516952 
L 145.885407 -607.334519 
L 145.892325 -611.152085 
L 145.896485 -614.969651 
L 145.904054 -614.969651 
L 145.904054 -614.969651 
L 145.908213 -611.152085 
L 145.915132 -607.334519 
L 145.925377 -603.516952 
L 145.939314 -599.699386 
L 145.957561 -595.88182 
L 145.981486 -592.064254 
L 146.012883 -588.246688 
L 146.052342 -584.429122 
L 146.097446 -580.611556 
L 146.142949 -576.79399 
L 146.183849 -572.976423 
L 146.219244 -569.158857 
L 146.253313 -565.341291 
L 146.292049 -561.523725 
L 146.338304 -557.706159 
L 146.389468 -553.888593 
L 146.439924 -550.071027 
L 146.486387 -546.253461 
L 146.531558 -542.435894 
L 146.582489 -538.618328 
L 146.644461 -534.800762 
L 146.715683 -530.983196 
L 146.787809 -527.16563 
L 146.851688 -523.348064 
L 146.902467 -519.530498 
L 146.939234 -515.712932 
L 146.960696 -511.895365 
L 146.962685 -508.077799 
L 146.941128 -504.260233 
L 146.898129 -500.442667 
L 146.845358 -496.625101 
L 146.800756 -492.807535 
L 146.779747 -488.989969 
L 146.786657 -485.172403 
L 146.812711 -481.354837 
L 146.842791 -477.53727 
L 146.866585 -473.719704 
L 146.886294 -469.902138 
L 146.915985 -466.084572 
L 146.974371 -462.267006 
L 147.07739 -458.44944 
L 147.235878 -454.631874 
L 147.458564 -450.814308 
L 147.755863 -446.996741 
L 148.139101 -443.179175 
L 148.613647 -439.361609 
L 149.169966 -435.544043 
L 149.779354 -431.726477 
L 150.398947 -427.908911 
L 150.985337 -424.091345 
L 151.511151 -420.273779 
L 151.976034 -416.456212 
L 152.40477 -412.638646 
L 152.832252 -408.82108 
L 153.284786 -405.003514 
L 153.77127 -401.185948 
L 154.290182 -397.368382 
L 154.843975 -393.550816 
L 155.443874 -389.73325 
L 156.094586 -385.915683 
L 156.767313 -382.098117 
L 157.385552 -378.280551 
L 157.844185 -374.462985 
L 158.056538 -370.645419 
L 157.998127 -366.827853 
L 157.715952 -363.010287 
L 157.299941 -359.192721 
L 156.842277 -355.375154 
L 156.415653 -351.557588 
L 156.082163 -347.740022 
L 155.918628 -343.922456 
L 156.030631 -340.10489 
L 156.535841 -336.287324 
L 157.52246 -332.469758 
L 159.010575 -328.652192 
L 160.943524 -324.834625 
L 163.213906 -321.017059 
L 165.70523 -317.199493 
L 168.323539 -313.381927 
L 171.00428 -309.564361 
L 173.696228 -305.746795 
L 176.336001 -301.929229 
L 178.829245 -298.111663 
L 181.047371 -294.294097 
L 182.834487 -290.47653 
L 184.00916 -286.658964 
L 184.354918 -282.841398 
L 183.62101 -279.023832 
L 181.572092 -275.206266 
L 178.100003 -271.3887 
L 173.350365 -267.571134 
L 167.774536 -263.753568 
L 162.043341 -259.936001 
L 156.845143 -256.118435 
L 152.671334 -252.300869 
L 149.700882 -248.483303 
L 147.826578 -244.665737 
L 146.778301 -240.848171 
L 146.258924 -237.030605 
z
" style="stroke: #494949"/>
    </defs>
    <g clip-path="url(#p8f3db91366)">
     <use xlink:href="#m753b17876e" x="0" y="864" style="fill: #5875a4; stroke: #494949"/>
    </g>
   </g>
   <g id="FillBetweenPolyCollection_2">
    <defs>
     <path id="m3bb5328250" d="M 243.783121 -238.417489 
L 240.290663 -238.417489 
L 238.26773 -242.065142 
L 234.880942 -245.712795 
L 230.015881 -249.360448 
L 224.027081 -253.008101 
L 217.720922 -256.655753 
L 212.058785 -260.303406 
L 207.756274 -263.951059 
L 205.053061 -267.598712 
L 203.776351 -271.246365 
L 203.582243 -274.894018 
L 204.168576 -278.541671 
L 205.347891 -282.189323 
L 207.006858 -285.836976 
L 209.037326 -289.484629 
L 211.300039 -293.132282 
L 213.632814 -296.779935 
L 215.884864 -300.427588 
L 217.953518 -304.07524 
L 219.804218 -307.722893 
L 221.462356 -311.370546 
L 222.979595 -315.018199 
L 224.393484 -318.665852 
L 225.703235 -322.313505 
L 226.872272 -325.961158 
L 227.851259 -329.60881 
L 228.606732 -333.256463 
L 229.142286 -336.904116 
L 229.505523 -340.551769 
L 229.779128 -344.199422 
L 230.058218 -347.847075 
L 230.421353 -351.494728 
L 230.90712 -355.14238 
L 231.506044 -358.790033 
L 232.169315 -362.437686 
L 232.829744 -366.085339 
L 233.428844 -369.732992 
L 233.941388 -373.380645 
L 234.385092 -377.028297 
L 234.806985 -380.67595 
L 235.252559 -384.323603 
L 235.737393 -387.971256 
L 236.240096 -391.618909 
L 236.719588 -395.266562 
L 237.142468 -398.914215 
L 237.500941 -402.561867 
L 237.810751 -406.20952 
L 238.093569 -409.857173 
L 238.359008 -413.504826 
L 238.600591 -417.152479 
L 238.807729 -420.800132 
L 238.981664 -424.447785 
L 239.140451 -428.095437 
L 239.308802 -431.74309 
L 239.501844 -435.390743 
L 239.715973 -439.038396 
L 239.933534 -442.686049 
L 240.137162 -446.333702 
L 240.32221 -449.981354 
L 240.49766 -453.629007 
L 240.676134 -457.27666 
L 240.86238 -460.924313 
L 241.048771 -464.571966 
L 241.218812 -468.219619 
L 241.354266 -471.867272 
L 241.441795 -475.514924 
L 241.477199 -479.162577 
L 241.466422 -482.81023 
L 241.423246 -486.457883 
L 241.365024 -490.105536 
L 241.308538 -493.753189 
L 241.267044 -497.400842 
L 241.248264 -501.048494 
L 241.253498 -504.696147 
L 241.278842 -508.3438 
L 241.318421 -511.991453 
L 241.367446 -515.639106 
L 241.42294 -519.286759 
L 241.482516 -522.934411 
L 241.543204 -526.582064 
L 241.601336 -530.229717 
L 241.652874 -533.87737 
L 241.693618 -537.525023 
L 241.719695 -541.172676 
L 241.728958 -544.820329 
L 241.722955 -548.467981 
L 241.708086 -552.115634 
L 241.694597 -555.763287 
L 241.693226 -559.41094 
L 241.710942 -563.058593 
L 241.748104 -566.706246 
L 241.798748 -570.353898 
L 241.853786 -574.001551 
L 241.905006 -577.649204 
L 241.947528 -581.296857 
L 241.979924 -584.94451 
L 242.002933 -588.592163 
L 242.018181 -592.239816 
L 242.027496 -595.887468 
L 242.03265 -599.535121 
L 242.041134 -599.535121 
L 242.041134 -599.535121 
L 242.046288 -595.887468 
L 242.055603 -592.239816 
L 242.070851 -588.592163 
L 242.09386 -584.94451 
L 242.126256 -581.296857 
L 242.168778 -577.649204 
L 242.219998 -574.001551 
L 242.275036 -570.353898 
L 242.32568 -566.706246 
L 242.362842 -563.058593 
L 242.380558 -559.41094 
L 242.379186 -555.763287 
L 242.365698 -552.115634 
L 242.350829 -548.467981 
L 242.344825 -544.820329 
L 242.354089 -541.172676 
L 242.380166 -537.525023 
L 242.42091 -533.87737 
L 242.472448 -530.229717 
L 242.530579 -526.582064 
L 242.591268 -522.934411 
L 242.650844 -519.286759 
L 242.706337 -515.639106 
L 242.755362 -511.991453 
L 242.794942 -508.3438 
L 242.820285 -504.696147 
L 242.825519 -501.048494 
L 242.80674 -497.400842 
L 242.765246 -493.753189 
L 242.70876 -490.105536 
L 242.650537 -486.457883 
L 242.607361 -482.81023 
L 242.596584 -479.162577 
L 242.631988 -475.514924 
L 242.719517 -471.867272 
L 242.854971 -468.219619 
L 243.025013 -464.571966 
L 243.211404 -460.924313 
L 243.397649 -457.27666 
L 243.576124 -453.629007 
L 243.751574 -449.981354 
L 243.936622 -446.333702 
L 244.14025 -442.686049 
L 244.357811 -439.038396 
L 244.57194 -435.390743 
L 244.764982 -431.74309 
L 244.933333 -428.095437 
L 245.092119 -424.447785 
L 245.266055 -420.800132 
L 245.473193 -417.152479 
L 245.714776 -413.504826 
L 245.980215 -409.857173 
L 246.263033 -406.20952 
L 246.572842 -402.561867 
L 246.931316 -398.914215 
L 247.354195 -395.266562 
L 247.833688 -391.618909 
L 248.336391 -387.971256 
L 248.821225 -384.323603 
L 249.266798 -380.67595 
L 249.688692 -377.028297 
L 250.132396 -373.380645 
L 250.64494 -369.732992 
L 251.244039 -366.085339 
L 251.904468 -362.437686 
L 252.567739 -358.790033 
L 253.166664 -355.14238 
L 253.652431 -351.494728 
L 254.015565 -347.847075 
L 254.294656 -344.199422 
L 254.568261 -340.551769 
L 254.931498 -336.904116 
L 255.467052 -333.256463 
L 256.222525 -329.60881 
L 257.201511 -325.961158 
L 258.370549 -322.313505 
L 259.6803 -318.665852 
L 261.094188 -315.018199 
L 262.611427 -311.370546 
L 264.269566 -307.722893 
L 266.120266 -304.07524 
L 268.18892 -300.427588 
L 270.44097 -296.779935 
L 272.773744 -293.132282 
L 275.036457 -289.484629 
L 277.066926 -285.836976 
L 278.725893 -282.189323 
L 279.905208 -278.541671 
L 280.491541 -274.894018 
L 280.297433 -271.246365 
L 279.020723 -267.598712 
L 276.31751 -263.951059 
L 272.014999 -260.303406 
L 266.352862 -256.655753 
L 260.046703 -253.008101 
L 254.057902 -249.360448 
L 249.192842 -245.712795 
L 245.806053 -242.065142 
L 243.783121 -238.417489 
z
" style="stroke: #494949"/>
    </defs>
    <g clip-path="url(#p8f3db91366)">
     <use xlink:href="#m3bb5328250" x="0" y="864" style="fill: #cc8963; stroke: #494949"/>
    </g>
   </g>
   <g id="FillBetweenPolyCollection_3">
    <defs>
     <path id="m6921a84d91" d="M 339.300021 -239.216526 
L 337.047008 -239.216526 
L 335.780573 -242.457825 
L 333.601347 -245.699123 
L 330.279954 -248.940421 
L 325.792139 -252.18172 
L 320.412909 -255.423018 
L 314.694894 -258.664316 
L 309.319714 -261.905615 
L 304.892984 -265.146913 
L 301.787997 -268.388211 
L 300.102769 -271.62951 
L 299.718865 -274.870808 
L 300.400636 -278.112106 
L 301.877606 -281.353405 
L 303.889395 -284.594703 
L 306.203735 -287.836001 
L 308.624859 -291.0773 
L 310.999706 -294.318598 
L 313.220801 -297.559896 
L 315.225047 -300.801195 
L 316.991095 -304.042493 
L 318.535934 -307.283791 
L 319.905571 -310.52509 
L 321.15463 -313.766388 
L 322.31948 -317.007686 
L 323.399985 -320.248984 
L 324.363353 -323.490283 
L 325.168692 -326.731581 
L 325.795422 -329.972879 
L 326.256705 -333.214178 
L 326.5921 -336.455476 
L 326.849673 -339.696774 
L 327.072718 -342.938073 
L 327.297157 -346.179371 
L 327.553272 -349.420669 
L 327.86243 -352.661968 
L 328.228107 -355.903266 
L 328.630682 -359.144564 
L 329.035512 -362.385863 
L 329.412558 -365.627161 
L 329.754004 -368.868459 
L 330.076279 -372.109758 
L 330.405363 -375.351056 
L 330.757374 -378.592354 
L 331.128591 -381.833653 
L 331.499899 -385.074951 
L 331.849862 -388.316249 
L 332.166754 -391.557548 
L 332.453616 -394.798846 
L 332.726239 -398.040144 
L 333.006667 -401.281443 
L 333.314497 -404.522741 
L 333.658247 -407.764039 
L 334.030392 -411.005338 
L 334.409367 -414.246636 
L 334.768204 -417.487934 
L 335.08541 -420.729233 
L 335.352724 -423.970531 
L 335.576659 -427.211829 
L 335.773507 -430.453127 
L 335.960081 -433.694426 
L 336.144698 -436.935724 
L 336.32352 -440.177022 
L 336.484352 -443.418321 
L 336.615007 -446.659619 
L 336.710563 -449.900917 
L 336.775656 -453.142216 
L 336.822095 -456.383514 
L 336.864492 -459.624812 
L 336.916144 -462.866111 
L 336.985833 -466.107409 
L 337.075674 -469.348707 
L 337.180494 -472.590006 
L 337.289407 -475.831304 
L 337.389375 -479.072602 
L 337.469547 -482.313901 
L 337.524824 -485.555199 
L 337.557447 -488.796497 
L 337.57595 -492.037796 
L 337.59151 -495.279094 
L 337.612924 -498.520392 
L 337.642671 -501.761691 
L 337.676617 -505.002989 
L 337.707908 -508.244287 
L 337.732597 -511.485586 
L 337.752892 -514.726884 
L 337.775552 -517.968182 
L 337.806819 -521.209481 
L 337.848015 -524.450779 
L 337.895061 -527.692077 
L 337.941677 -530.933376 
L 337.983286 -534.174674 
L 338.018801 -537.415972 
L 338.049705 -540.657271 
L 338.077824 -543.898569 
L 338.103676 -547.139867 
L 338.126344 -550.381165 
L 338.144477 -553.622464 
L 338.157397 -556.863762 
L 338.165505 -560.10506 
L 338.181523 -560.10506 
L 338.181523 -560.10506 
L 338.189631 -556.863762 
L 338.202551 -553.622464 
L 338.220685 -550.381165 
L 338.243352 -547.139867 
L 338.269205 -543.898569 
L 338.297323 -540.657271 
L 338.328228 -537.415972 
L 338.363743 -534.174674 
L 338.405351 -530.933376 
L 338.451967 -527.692077 
L 338.499013 -524.450779 
L 338.540209 -521.209481 
L 338.571476 -517.968182 
L 338.594136 -514.726884 
L 338.614431 -511.485586 
L 338.63912 -508.244287 
L 338.670412 -505.002989 
L 338.704358 -501.761691 
L 338.734105 -498.520392 
L 338.755518 -495.279094 
L 338.771079 -492.037796 
L 338.789582 -488.796497 
L 338.822205 -485.555199 
L 338.877481 -482.313901 
L 338.957653 -479.072602 
L 339.057621 -475.831304 
L 339.166535 -472.590006 
L 339.271355 -469.348707 
L 339.361195 -466.107409 
L 339.430885 -462.866111 
L 339.482536 -459.624812 
L 339.524933 -456.383514 
L 339.571372 -453.142216 
L 339.636466 -449.900917 
L 339.732021 -446.659619 
L 339.862677 -443.418321 
L 340.023508 -440.177022 
L 340.20233 -436.935724 
L 340.386947 -433.694426 
L 340.573521 -430.453127 
L 340.77037 -427.211829 
L 340.994305 -423.970531 
L 341.261619 -420.729233 
L 341.578824 -417.487934 
L 341.937662 -414.246636 
L 342.316636 -411.005338 
L 342.688782 -407.764039 
L 343.032532 -404.522741 
L 343.340361 -401.281443 
L 343.62079 -398.040144 
L 343.893412 -394.798846 
L 344.180274 -391.557548 
L 344.497166 -388.316249 
L 344.84713 -385.074951 
L 345.218437 -381.833653 
L 345.589654 -378.592354 
L 345.941665 -375.351056 
L 346.270749 -372.109758 
L 346.593025 -368.868459 
L 346.93447 -365.627161 
L 347.311516 -362.385863 
L 347.716347 -359.144564 
L 348.118922 -355.903266 
L 348.484599 -352.661968 
L 348.793756 -349.420669 
L 349.049872 -346.179371 
L 349.274311 -342.938073 
L 349.497355 -339.696774 
L 349.754929 -336.455476 
L 350.090324 -333.214178 
L 350.551606 -329.972879 
L 351.178336 -326.731581 
L 351.983675 -323.490283 
L 352.947043 -320.248984 
L 354.027548 -317.007686 
L 355.192399 -313.766388 
L 356.441458 -310.52509 
L 357.811094 -307.283791 
L 359.355933 -304.042493 
L 361.121981 -300.801195 
L 363.126228 -297.559896 
L 365.347322 -294.318598 
L 367.72217 -291.0773 
L 370.143293 -287.836001 
L 372.457634 -284.594703 
L 374.469422 -281.353405 
L 375.946392 -278.112106 
L 376.628163 -274.870808 
L 376.244259 -271.62951 
L 374.559032 -268.388211 
L 371.454045 -265.146913 
L 367.027315 -261.905615 
L 361.652135 -258.664316 
L 355.934119 -255.423018 
L 350.554889 -252.18172 
L 346.067075 -248.940421 
L 342.745682 -245.699123 
L 340.566456 -242.457825 
L 339.300021 -239.216526 
z
" style="stroke: #494949"/>
    </defs>
    <g clip-path="url(#p8f3db91366)">
     <use xlink:href="#m6921a84d91" x="0" y="864" style="fill: #5f9e6e; stroke: #494949"/>
    </g>
   </g>
   <g id="FillBetweenPolyCollection_4">
    <defs>
     <path id="m52645a91af" d="M 435.521358 -239.460224 
L 433.098915 -239.460224 
L 431.574893 -242.944916 
L 428.864385 -246.429608 
L 424.696263 -249.9143 
L 419.155227 -253.398993 
L 412.798641 -256.883685 
L 406.54094 -260.368377 
L 401.330266 -263.853069 
L 397.796484 -267.337761 
L 396.070712 -270.822453 
L 395.855488 -274.307145 
L 396.669134 -277.791837 
L 398.102356 -281.276529 
L 399.946322 -284.761221 
L 402.15409 -288.245914 
L 404.709712 -291.730606 
L 407.521534 -295.215298 
L 410.406364 -298.69999 
L 413.147355 -302.184682 
L 415.565594 -305.669374 
L 417.561427 -309.154066 
L 419.118926 -312.638758 
L 420.287703 -316.12345 
L 421.155793 -319.608142 
L 421.820209 -323.092834 
L 422.358517 -326.577527 
L 422.80737 -330.062219 
L 423.158361 -333.546911 
L 423.378966 -337.031603 
L 423.451528 -340.516295 
L 423.406164 -344.000987 
L 423.323399 -347.485679 
L 423.303936 -350.970371 
L 423.427453 -354.455063 
L 423.726797 -357.939755 
L 424.186995 -361.424447 
L 424.759309 -364.90914 
L 425.376878 -368.393832 
L 425.968701 -371.878524 
L 426.477534 -375.363216 
L 426.882474 -378.847908 
L 427.213094 -382.3326 
L 427.537179 -385.817292 
L 427.921298 -389.301984 
L 428.389544 -392.786676 
L 428.911868 -396.271368 
L 429.429358 -399.75606 
L 429.893543 -403.240753 
L 430.289888 -406.725445 
L 430.63401 -410.210137 
L 430.951223 -413.694829 
L 431.257494 -417.179521 
L 431.552541 -420.664213 
L 431.824044 -424.148905 
L 432.056058 -427.633597 
L 432.236898 -431.118289 
L 432.365753 -434.602981 
L 432.456383 -438.087673 
L 432.533426 -441.572366 
L 432.620345 -445.057058 
L 432.726824 -448.54175 
L 432.84611 -452.026442 
L 432.964047 -455.511134 
L 433.070996 -458.995826 
L 433.166962 -462.480518 
L 433.258147 -465.96521 
L 433.349943 -469.449902 
L 433.441986 -472.934594 
L 433.5279 -476.419286 
L 433.59946 -479.903979 
L 433.652718 -483.388671 
L 433.692189 -486.873363 
L 433.729733 -490.358055 
L 433.778161 -493.842747 
L 433.843736 -497.327439 
L 433.922702 -500.812131 
L 434.003726 -504.296823 
L 434.073839 -507.781515 
L 434.12418 -511.266207 
L 434.153188 -514.750899 
L 434.166488 -518.235592 
L 434.173518 -521.720284 
L 434.182271 -525.204976 
L 434.195144 -528.689668 
L 434.208635 -532.17436 
L 434.216919 -535.659052 
L 434.216371 -539.143744 
L 434.207838 -542.628436 
L 434.19571 -546.113128 
L 434.185206 -549.59782 
L 434.180038 -553.082512 
L 434.181719 -556.567205 
L 434.190265 -560.051897 
L 434.205017 -563.536589 
L 434.224636 -567.021281 
L 434.246667 -570.505973 
L 434.267801 -573.990665 
L 434.28508 -577.475357 
L 434.297096 -580.960049 
L 434.304205 -584.444741 
L 434.316068 -584.444741 
L 434.316068 -584.444741 
L 434.323177 -580.960049 
L 434.335194 -577.475357 
L 434.352472 -573.990665 
L 434.373606 -570.505973 
L 434.395638 -567.021281 
L 434.415256 -563.536589 
L 434.430008 -560.051897 
L 434.438554 -556.567205 
L 434.440235 -553.082512 
L 434.435067 -549.59782 
L 434.424563 -546.113128 
L 434.412435 -542.628436 
L 434.403902 -539.143744 
L 434.403354 -535.659052 
L 434.411638 -532.17436 
L 434.42513 -528.689668 
L 434.438002 -525.204976 
L 434.446756 -521.720284 
L 434.453785 -518.235592 
L 434.467085 -514.750899 
L 434.496093 -511.266207 
L 434.546434 -507.781515 
L 434.616548 -504.296823 
L 434.697571 -500.812131 
L 434.776537 -497.327439 
L 434.842112 -493.842747 
L 434.89054 -490.358055 
L 434.928084 -486.873363 
L 434.967555 -483.388671 
L 435.020813 -479.903979 
L 435.092373 -476.419286 
L 435.178287 -472.934594 
L 435.27033 -469.449902 
L 435.362126 -465.96521 
L 435.453311 -462.480518 
L 435.549277 -458.995826 
L 435.656226 -455.511134 
L 435.774164 -452.026442 
L 435.893449 -448.54175 
L 435.999928 -445.057058 
L 436.086847 -441.572366 
L 436.16389 -438.087673 
L 436.25452 -434.602981 
L 436.383375 -431.118289 
L 436.564215 -427.633597 
L 436.796229 -424.148905 
L 437.067733 -420.664213 
L 437.362779 -417.179521 
L 437.66905 -413.694829 
L 437.986263 -410.210137 
L 438.330385 -406.725445 
L 438.72673 -403.240753 
L 439.190916 -399.75606 
L 439.708405 -396.271368 
L 440.230729 -392.786676 
L 440.698975 -389.301984 
L 441.083094 -385.817292 
L 441.407179 -382.3326 
L 441.737799 -378.847908 
L 442.142739 -375.363216 
L 442.651572 -371.878524 
L 443.243396 -368.393832 
L 443.860964 -364.90914 
L 444.433278 -361.424447 
L 444.893476 -357.939755 
L 445.19282 -354.455063 
L 445.316337 -350.970371 
L 445.296875 -347.485679 
L 445.214109 -344.000987 
L 445.168745 -340.516295 
L 445.241307 -337.031603 
L 445.461912 -333.546911 
L 445.812903 -330.062219 
L 446.261757 -326.577527 
L 446.800065 -323.092834 
L 447.464481 -319.608142 
L 448.332571 -316.12345 
L 449.501347 -312.638758 
L 451.058847 -309.154066 
L 453.054679 -305.669374 
L 455.472918 -302.184682 
L 458.213909 -298.69999 
L 461.098739 -295.215298 
L 463.910562 -291.730606 
L 466.466183 -288.245914 
L 468.673951 -284.761221 
L 470.517917 -281.276529 
L 471.951139 -277.791837 
L 472.764786 -274.307145 
L 472.549561 -270.822453 
L 470.823789 -267.337761 
L 467.290008 -263.853069 
L 462.079333 -260.368377 
L 455.821632 -256.883685 
L 449.465046 -253.398993 
L 443.92401 -249.9143 
L 439.755889 -246.429608 
L 437.04538 -242.944916 
L 435.521358 -239.460224 
z
" style="stroke: #494949"/>
    </defs>
    <g clip-path="url(#p8f3db91366)">
     <use xlink:href="#m52645a91af" x="0" y="864" style="fill: #b55d60; stroke: #494949"/>
    </g>
   </g>
   <g id="FillBetweenPolyCollection_5">
    <defs>
     <path id="md5dba93c27" d="M 532.538862 -239.850352 
L 528.354656 -239.850352 
L 525.589474 -243.610953 
L 520.848994 -247.371555 
L 514.182709 -251.132156 
L 506.555744 -254.892758 
L 499.568184 -258.653359 
L 494.628526 -262.413961 
L 492.241672 -266.174562 
L 491.99211 -269.935164 
L 493.097366 -273.695765 
L 494.939488 -277.456367 
L 497.206256 -281.216968 
L 499.747208 -284.97757 
L 502.421717 -288.738172 
L 505.069207 -292.498773 
L 507.554358 -296.259375 
L 509.798921 -300.019976 
L 511.770646 -303.780578 
L 513.459161 -307.541179 
L 514.873682 -311.301781 
L 516.060944 -315.062382 
L 517.111479 -318.822984 
L 518.130625 -322.583585 
L 519.186454 -326.344187 
L 520.272659 -330.104788 
L 521.315416 -333.86539 
L 522.218692 -337.625992 
L 522.914874 -341.386593 
L 523.390702 -345.147195 
L 523.68283 -348.907796 
L 523.855664 -352.668398 
L 523.976854 -356.428999 
L 524.101864 -360.189601 
L 524.270702 -363.950202 
L 524.507605 -367.710804 
L 524.814294 -371.471405 
L 525.165302 -375.232007 
L 525.521826 -378.992608 
L 525.85837 -382.75321 
L 526.174522 -386.513812 
L 526.479697 -390.274413 
L 526.773278 -394.035015 
L 527.046394 -397.795616 
L 527.298859 -401.556218 
L 527.542832 -405.316819 
L 527.785163 -409.077421 
L 528.012423 -412.838022 
L 528.19979 -416.598624 
L 528.334017 -420.359225 
L 528.426526 -424.119827 
L 528.507984 -427.880429 
L 528.612322 -431.64103 
L 528.760077 -435.401632 
L 528.948574 -439.162233 
L 529.154582 -442.922835 
L 529.348037 -446.683436 
L 529.507415 -450.444038 
L 529.62764 -454.204639 
L 529.718031 -457.965241 
L 529.793443 -461.725842 
L 529.864405 -465.486444 
L 529.93193 -469.247045 
L 529.988999 -473.007647 
L 530.026309 -476.768249 
L 530.038678 -480.52885 
L 530.029303 -484.289452 
L 530.009394 -488.050053 
L 529.992866 -491.810655 
L 529.990129 -495.571256 
L 530.005647 -499.331858 
L 530.03906 -503.092459 
L 530.086182 -506.853061 
L 530.138987 -510.613662 
L 530.187309 -514.374264 
L 530.222998 -518.134865 
L 530.243239 -521.895467 
L 530.250265 -525.656069 
L 530.248772 -529.41667 
L 530.243872 -533.177272 
L 530.240376 -536.937873 
L 530.242416 -540.698475 
L 530.252704 -544.459076 
L 530.27161 -548.219678 
L 530.296558 -551.980279 
L 530.322422 -555.740881 
L 530.343385 -559.501482 
L 530.355605 -563.262084 
L 530.358803 -567.022685 
L 530.355672 -570.783287 
L 530.350118 -574.543889 
L 530.345973 -578.30449 
L 530.346379 -582.065092 
L 530.35312 -585.825693 
L 530.36601 -589.586295 
L 530.383 -593.346896 
L 530.40109 -597.107498 
L 530.417417 -600.868099 
L 530.430069 -604.628701 
L 530.438468 -608.389302 
L 530.443206 -612.149904 
L 530.450312 -612.149904 
L 530.450312 -612.149904 
L 530.45505 -608.389302 
L 530.463449 -604.628701 
L 530.476101 -600.868099 
L 530.492428 -597.107498 
L 530.510518 -593.346896 
L 530.527508 -589.586295 
L 530.540398 -585.825693 
L 530.547139 -582.065092 
L 530.547545 -578.30449 
L 530.5434 -574.543889 
L 530.537846 -570.783287 
L 530.534715 -567.022685 
L 530.537913 -563.262084 
L 530.550133 -559.501482 
L 530.571096 -555.740881 
L 530.59696 -551.980279 
L 530.621908 -548.219678 
L 530.640814 -544.459076 
L 530.651102 -540.698475 
L 530.653141 -536.937873 
L 530.649646 -533.177272 
L 530.644746 -529.41667 
L 530.643253 -525.656069 
L 530.650279 -521.895467 
L 530.67052 -518.134865 
L 530.706209 -514.374264 
L 530.754531 -510.613662 
L 530.807336 -506.853061 
L 530.854458 -503.092459 
L 530.887871 -499.331858 
L 530.903389 -495.571256 
L 530.900652 -491.810655 
L 530.884124 -488.050053 
L 530.864214 -484.289452 
L 530.85484 -480.52885 
L 530.867209 -476.768249 
L 530.904519 -473.007647 
L 530.961588 -469.247045 
L 531.029113 -465.486444 
L 531.100075 -461.725842 
L 531.175487 -457.965241 
L 531.265878 -454.204639 
L 531.386103 -450.444038 
L 531.545481 -446.683436 
L 531.738936 -442.922835 
L 531.944944 -439.162233 
L 532.133441 -435.401632 
L 532.281196 -431.64103 
L 532.385533 -427.880429 
L 532.466992 -424.119827 
L 532.559501 -420.359225 
L 532.693728 -416.598624 
L 532.881095 -412.838022 
L 533.108355 -409.077421 
L 533.350686 -405.316819 
L 533.594659 -401.556218 
L 533.847124 -397.795616 
L 534.12024 -394.035015 
L 534.41382 -390.274413 
L 534.718996 -386.513812 
L 535.035148 -382.75321 
L 535.371692 -378.992608 
L 535.728216 -375.232007 
L 536.079224 -371.471405 
L 536.385913 -367.710804 
L 536.622816 -363.950202 
L 536.791654 -360.189601 
L 536.916664 -356.428999 
L 537.037853 -352.668398 
L 537.210688 -348.907796 
L 537.502816 -345.147195 
L 537.978644 -341.386593 
L 538.674826 -337.625992 
L 539.578102 -333.86539 
L 540.620859 -330.104788 
L 541.707063 -326.344187 
L 542.762893 -322.583585 
L 543.782039 -318.822984 
L 544.832574 -315.062382 
L 546.019836 -311.301781 
L 547.434357 -307.541179 
L 549.122872 -303.780578 
L 551.094597 -300.019976 
L 553.33916 -296.259375 
L 555.824311 -292.498773 
L 558.471801 -288.738172 
L 561.146309 -284.97757 
L 563.687262 -281.216968 
L 565.95403 -277.456367 
L 567.796152 -273.695765 
L 568.901408 -269.935164 
L 568.651846 -266.174562 
L 566.264992 -262.413961 
L 561.325334 -258.653359 
L 554.337774 -254.892758 
L 546.710809 -251.132156 
L 540.044524 -247.371555 
L 535.304044 -243.610953 
L 532.538862 -239.850352 
z
" style="stroke: #494949"/>
    </defs>
    <g clip-path="url(#p8f3db91366)">
     <use xlink:href="#md5dba93c27" x="0" y="864" style="fill: #857aab; stroke: #494949"/>
    </g>
   </g>
   <g id="FillBetweenPolyCollection_6">
    <defs>
     <path id="m4b660d1097" d="M 627.192756 -238.32593 
L 625.974007 -238.32593 
L 625.139643 -241.975433 
L 623.540103 -245.624935 
L 620.846879 -249.274438 
L 616.857813 -252.92394 
L 611.65642 -256.573443 
L 605.691648 -260.222945 
L 599.702713 -263.872448 
L 594.500683 -267.52195 
L 590.711683 -271.171453 
L 588.612707 -274.820955 
L 588.128732 -278.470458 
L 588.958681 -282.11996 
L 590.734152 -285.769463 
L 593.126277 -289.418966 
L 595.876055 -293.068468 
L 598.776315 -296.717971 
L 601.64733 -300.367473 
L 604.330919 -304.016976 
L 606.704662 -307.666478 
L 608.704027 -311.315981 
L 610.335824 -314.965483 
L 611.668171 -318.614986 
L 612.792681 -322.264488 
L 613.774478 -325.913991 
L 614.620827 -329.563493 
L 615.290438 -333.212996 
L 615.735349 -336.862498 
L 615.943318 -340.512001 
L 615.953443 -344.161503 
L 615.842851 -347.811006 
L 615.701088 -351.460508 
L 615.607607 -355.110011 
L 615.616625 -358.759514 
L 615.748148 -362.409016 
L 615.986908 -366.058519 
L 616.29307 -369.708021 
L 616.624126 -373.357524 
L 616.959289 -377.007026 
L 617.312721 -380.656529 
L 617.725374 -384.306031 
L 618.237579 -387.955534 
L 618.859042 -391.605036 
L 619.557263 -395.254539 
L 620.273285 -398.904041 
L 620.95329 -402.553544 
L 621.573162 -406.203046 
L 622.140167 -409.852549 
L 622.674667 -413.502051 
L 623.18847 -417.151554 
L 623.674977 -420.801057 
L 624.113984 -424.450559 
L 624.483495 -428.100062 
L 624.769453 -431.749564 
L 624.96976 -435.399067 
L 625.094155 -439.048569 
L 625.162034 -442.698072 
L 625.198423 -446.347574 
L 625.22805 -449.997077 
L 625.269333 -453.646579 
L 625.330638 -457.296082 
L 625.409582 -460.945584 
L 625.495039 -464.595087 
L 625.571721 -468.244589 
L 625.626635 -471.894092 
L 625.654626 -475.543594 
L 625.659529 -479.193097 
L 625.650447 -482.842599 
L 625.636805 -486.492102 
L 625.62632 -490.141605 
L 625.625931 -493.791107 
L 625.642287 -497.44061 
L 625.679742 -501.090112 
L 625.737626 -504.739615 
L 625.809669 -508.389117 
L 625.886162 -512.03862 
L 625.957329 -515.688122 
L 626.016321 -519.337625 
L 626.060958 -522.987127 
L 626.093772 -526.63663 
L 626.120506 -530.286132 
L 626.147997 -533.935635 
L 626.182132 -537.585137 
L 626.225842 -541.23464 
L 626.277468 -544.884142 
L 626.330955 -548.533645 
L 626.378702 -552.183147 
L 626.415435 -555.83265 
L 626.440224 -559.482153 
L 626.455664 -563.131655 
L 626.465775 -566.781158 
L 626.474455 -570.43066 
L 626.484753 -574.080163 
L 626.498353 -577.729665 
L 626.515136 -581.379168 
L 626.533288 -585.02867 
L 626.550209 -588.678173 
L 626.563765 -592.327675 
L 626.573102 -595.977178 
L 626.578635 -599.62668 
L 626.588127 -599.62668 
L 626.588127 -599.62668 
L 626.593661 -595.977178 
L 626.602997 -592.327675 
L 626.616553 -588.678173 
L 626.633474 -585.02867 
L 626.651626 -581.379168 
L 626.66841 -577.729665 
L 626.68201 -574.080163 
L 626.692308 -570.43066 
L 626.700988 -566.781158 
L 626.711099 -563.131655 
L 626.726539 -559.482153 
L 626.751328 -555.83265 
L 626.788061 -552.183147 
L 626.835807 -548.533645 
L 626.889294 -544.884142 
L 626.940921 -541.23464 
L 626.98463 -537.585137 
L 627.018765 -533.935635 
L 627.046257 -530.286132 
L 627.072991 -526.63663 
L 627.105805 -522.987127 
L 627.150442 -519.337625 
L 627.209434 -515.688122 
L 627.280601 -512.03862 
L 627.357093 -508.389117 
L 627.429136 -504.739615 
L 627.487021 -501.090112 
L 627.524476 -497.44061 
L 627.540832 -493.791107 
L 627.540443 -490.141605 
L 627.529958 -486.492102 
L 627.516316 -482.842599 
L 627.507233 -479.193097 
L 627.512137 -475.543594 
L 627.540127 -471.894092 
L 627.595041 -468.244589 
L 627.671723 -464.595087 
L 627.75718 -460.945584 
L 627.836125 -457.296082 
L 627.897429 -453.646579 
L 627.938713 -449.997077 
L 627.96834 -446.347574 
L 628.004729 -442.698072 
L 628.072608 -439.048569 
L 628.197002 -435.399067 
L 628.39731 -431.749564 
L 628.683267 -428.100062 
L 629.052779 -424.450559 
L 629.491786 -420.801057 
L 629.978292 -417.151554 
L 630.492096 -413.502051 
L 631.026595 -409.852549 
L 631.593601 -406.203046 
L 632.213473 -402.553544 
L 632.893478 -398.904041 
L 633.609499 -395.254539 
L 634.307721 -391.605036 
L 634.929184 -387.955534 
L 635.441389 -384.306031 
L 635.854042 -380.656529 
L 636.207474 -377.007026 
L 636.542637 -373.357524 
L 636.873693 -369.708021 
L 637.179854 -366.058519 
L 637.418615 -362.409016 
L 637.550138 -358.759514 
L 637.559156 -355.110011 
L 637.465675 -351.460508 
L 637.323911 -347.811006 
L 637.21332 -344.161503 
L 637.223445 -340.512001 
L 637.431414 -336.862498 
L 637.876325 -333.212996 
L 638.545935 -329.563493 
L 639.392284 -325.913991 
L 640.374082 -322.264488 
L 641.498592 -318.614986 
L 642.830939 -314.965483 
L 644.462735 -311.315981 
L 646.4621 -307.666478 
L 648.835844 -304.016976 
L 651.519433 -300.367473 
L 654.390447 -296.717971 
L 657.290707 -293.068468 
L 660.040485 -289.418966 
L 662.43261 -285.769463 
L 664.208081 -282.11996 
L 665.03803 -278.470458 
L 664.554055 -274.820955 
L 662.45508 -271.171453 
L 658.66608 -267.52195 
L 653.464049 -263.872448 
L 647.475115 -260.222945 
L 641.510343 -256.573443 
L 636.30895 -252.92394 
L 632.319884 -249.274438 
L 629.62666 -245.624935 
L 628.02712 -241.975433 
L 627.192756 -238.32593 
z
" style="stroke: #494949"/>
    </defs>
    <g clip-path="url(#p8f3db91366)">
     <use xlink:href="#m4b660d1097" x="0" y="864" style="fill: #8d7866; stroke: #494949"/>
    </g>
   </g>
   <g id="line2d_10">
    <path d="M 145.900269 606.571612 
L 145.900269 388.833115 
" clip-path="url(#p8f3db91366)" style="fill: none; stroke: #494949; stroke-width: 1.5; stroke-linecap: round"/>
   </g>
   <g id="line2d_11">
    <path d="M 145.900269 581.988233 
L 145.900269 504.726186 
" clip-path="url(#p8f3db91366)" style="fill: none; stroke: #494949; stroke-width: 4.5; stroke-linecap: round"/>
   </g>
   <g id="line2d_12">
    <path d="M 145.900269 560.916766 
" clip-path="url(#p8f3db91366)" style="fill: none; stroke: #494949; stroke-width: 1.2; stroke-linecap: round"/>
    <defs>
     <path id="m9656f4fb5d" d="M 1.875 0 
L -1.875 -0 
" style="stroke: #ffffff; stroke-width: 0.9"/>
    </defs>
    <g clip-path="url(#p8f3db91366)">
     <use xlink:href="#m9656f4fb5d" x="145.900269" y="560.916766" style="fill: #ffffff; stroke: #ffffff; stroke-width: 0.9"/>
    </g>
   </g>
   <g id="line2d_13">
    <path d="M 242.036892 606.571612 
L 242.036892 430.97605 
" clip-path="url(#p8f3db91366)" style="fill: none; stroke: #494949; stroke-width: 1.5; stroke-linecap: round"/>
   </g>
   <g id="line2d_14">
    <path d="M 242.036892 589.012056 
L 242.036892 525.797653 
" clip-path="url(#p8f3db91366)" style="fill: none; stroke: #494949; stroke-width: 4.5; stroke-linecap: round"/>
   </g>
   <g id="line2d_15">
    <path d="M 242.036892 567.940588 
" clip-path="url(#p8f3db91366)" style="fill: none; stroke: #494949; stroke-width: 1.2; stroke-linecap: round"/>
    <g clip-path="url(#p8f3db91366)">
     <use xlink:href="#m9656f4fb5d" x="242.036892" y="567.940588" style="fill: #ffffff; stroke: #ffffff; stroke-width: 0.9"/>
    </g>
   </g>
   <g id="line2d_16">
    <path d="M 338.173514 606.571612 
L 338.173514 430.97605 
" clip-path="url(#p8f3db91366)" style="fill: none; stroke: #494949; stroke-width: 1.5; stroke-linecap: round"/>
   </g>
   <g id="line2d_17">
    <path d="M 338.173514 589.012056 
L 338.173514 525.797653 
" clip-path="url(#p8f3db91366)" style="fill: none; stroke: #494949; stroke-width: 4.5; stroke-linecap: round"/>
   </g>
   <g id="line2d_18">
    <path d="M 338.173514 567.940588 
" clip-path="url(#p8f3db91366)" style="fill: none; stroke: #494949; stroke-width: 1.2; stroke-linecap: round"/>
    <g clip-path="url(#p8f3db91366)">
     <use xlink:href="#m9656f4fb5d" x="338.173514" y="567.940588" style="fill: #ffffff; stroke: #ffffff; stroke-width: 0.9"/>
    </g>
   </g>
   <g id="line2d_19">
    <path d="M 434.310137 606.571612 
L 434.310137 427.464139 
" clip-path="url(#p8f3db91366)" style="fill: none; stroke: #494949; stroke-width: 1.5; stroke-linecap: round"/>
   </g>
   <g id="line2d_20">
    <path d="M 434.310137 592.523967 
L 434.310137 525.797653 
" clip-path="url(#p8f3db91366)" style="fill: none; stroke: #494949; stroke-width: 4.5; stroke-linecap: round"/>
   </g>
   <g id="line2d_21">
    <path d="M 434.310137 571.452499 
" clip-path="url(#p8f3db91366)" style="fill: none; stroke: #494949; stroke-width: 1.2; stroke-linecap: round"/>
    <g clip-path="url(#p8f3db91366)">
     <use xlink:href="#m9656f4fb5d" x="434.310137" y="571.452499" style="fill: #ffffff; stroke: #ffffff; stroke-width: 0.9"/>
    </g>
   </g>
   <g id="line2d_22">
    <path d="M 530.446759 606.571612 
L 530.446759 466.095162 
" clip-path="url(#p8f3db91366)" style="fill: none; stroke: #494949; stroke-width: 1.5; stroke-linecap: round"/>
   </g>
   <g id="line2d_23">
    <path d="M 530.446759 596.035878 
L 530.446759 543.35721 
" clip-path="url(#p8f3db91366)" style="fill: none; stroke: #494949; stroke-width: 4.5; stroke-linecap: round"/>
   </g>
   <g id="line2d_24">
    <path d="M 530.446759 578.476322 
" clip-path="url(#p8f3db91366)" style="fill: none; stroke: #494949; stroke-width: 1.2; stroke-linecap: round"/>
    <g clip-path="url(#p8f3db91366)">
     <use xlink:href="#m9656f4fb5d" x="530.446759" y="578.476322" style="fill: #ffffff; stroke: #ffffff; stroke-width: 0.9"/>
    </g>
   </g>
   <g id="line2d_25">
    <path d="M 626.583381 606.571612 
L 626.583381 409.904582 
" clip-path="url(#p8f3db91366)" style="fill: none; stroke: #494949; stroke-width: 1.5; stroke-linecap: round"/>
   </g>
   <g id="line2d_26">
    <path d="M 626.583381 585.500144 
L 626.583381 515.26192 
" clip-path="url(#p8f3db91366)" style="fill: none; stroke: #494949; stroke-width: 4.5; stroke-linecap: round"/>
   </g>
   <g id="line2d_27">
    <path d="M 626.583381 567.940588 
" clip-path="url(#p8f3db91366)" style="fill: none; stroke: #494949; stroke-width: 1.2; stroke-linecap: round"/>
    <g clip-path="url(#p8f3db91366)">
     <use xlink:href="#m9656f4fb5d" x="626.583381" y="567.940588" style="fill: #ffffff; stroke: #ffffff; stroke-width: 0.9"/>
    </g>
   </g>
   <g id="line2d_28">
    <path d="M 145.900269 363.889138 
L 145.900269 355.574479 
L 242.036892 355.574479 
L 242.036892 363.889138 
" style="fill: none; stroke: #333333; stroke-width: 1.5; stroke-linecap: round"/>
   </g>
   <g id="line2d_29">
    <path d="M 434.310137 402.520161 
L 434.310137 394.205502 
L 530.446759 394.205502 
L 530.446759 402.520161 
" style="fill: none; stroke: #333333; stroke-width: 1.5; stroke-linecap: round"/>
   </g>
   <g id="line2d_30">
    <path d="M 530.446759 371.359187 
L 530.446759 363.044528 
L 626.583381 363.044528 
L 626.583381 371.359187 
" style="fill: none; stroke: #333333; stroke-width: 1.5; stroke-linecap: round"/>
   </g>
   <g id="line2d_31">
    <path d="M 145.900269 332.728163 
L 145.900269 324.413504 
L 338.173514 324.413504 
L 338.173514 332.728163 
" style="fill: none; stroke: #333333; stroke-width: 1.5; stroke-linecap: round"/>
   </g>
   <g id="line2d_32">
    <path d="M 338.173514 301.567189 
L 338.173514 293.25253 
L 530.446759 293.25253 
L 530.446759 301.567189 
" style="fill: none; stroke: #333333; stroke-width: 1.5; stroke-linecap: round"/>
   </g>
   <g id="line2d_33">
    <path d="M 434.310137 270.406215 
L 434.310137 262.091556 
L 626.583381 262.091556 
L 626.583381 270.406215 
" style="fill: none; stroke: #333333; stroke-width: 1.5; stroke-linecap: round"/>
   </g>
   <g id="line2d_34">
    <path d="M 145.900269 239.24524 
L 145.900269 230.930581 
L 434.310137 230.930581 
L 434.310137 239.24524 
" style="fill: none; stroke: #333333; stroke-width: 1.5; stroke-linecap: round"/>
   </g>
   <g id="line2d_35">
    <path d="M 242.036892 208.084266 
L 242.036892 199.769607 
L 530.446759 199.769607 
L 530.446759 208.084266 
" style="fill: none; stroke: #333333; stroke-width: 1.5; stroke-linecap: round"/>
   </g>
   <g id="line2d_36">
    <path d="M 338.173514 176.923292 
L 338.173514 168.608633 
L 626.583381 168.608633 
L 626.583381 176.923292 
" style="fill: none; stroke: #333333; stroke-width: 1.5; stroke-linecap: round"/>
   </g>
   <g id="line2d_37">
    <path d="M 145.900269 145.762317 
L 145.900269 137.447658 
L 530.446759 137.447658 
L 530.446759 145.762317 
" style="fill: none; stroke: #333333; stroke-width: 1.5; stroke-linecap: round"/>
   </g>
   <g id="line2d_38">
    <path d="M 242.036892 114.601343 
L 242.036892 106.286684 
L 626.583381 106.286684 
L 626.583381 114.601343 
" style="fill: none; stroke: #333333; stroke-width: 1.5; stroke-linecap: round"/>
   </g>
   <g id="line2d_39">
    <path d="M 145.900269 83.440369 
L 145.900269 75.12571 
L 626.583381 75.12571 
L 626.583381 83.440369 
" style="fill: none; stroke: #333333; stroke-width: 1.5; stroke-linecap: round"/>
   </g>
   <g id="patch_3">
    <path d="M 79.566 645.866348 
L 79.566 40.416 
" style="fill: none; stroke: #cccccc; stroke-linejoin: miter; stroke-linecap: square"/>
   </g>
   <g id="patch_4">
    <path d="M 692.917651 645.866348 
L 692.917651 40.416 
" style="fill: none; stroke: #cccccc; stroke-linejoin: miter; stroke-linecap: square"/>
   </g>
   <g id="patch_5">
    <path d="M 79.566 645.866348 
L 692.917651 645.866348 
" style="fill: none; stroke: #cccccc; stroke-linejoin: miter; stroke-linecap: square"/>
   </g>
   <g id="patch_6">
    <path d="M 79.566 40.416 
L 692.917651 40.416 
" style="fill: none; stroke: #cccccc; stroke-linejoin: miter; stroke-linecap: square"/>
   </g>
   <g id="text_18">
    <!-- **** -->
    <g style="fill: #262626" transform="translate(179.022581 350.758479) scale(0.192 -0.192)">
     <defs>
      <path id="ArialMT-2a" d="M 200 3741 
L 344 4184 
Q 841 4009 1066 3881 
Q 1006 4447 1003 4659 
L 1456 4659 
Q 1447 4350 1384 3884 
Q 1706 4047 2122 4184 
L 2266 3741 
Q 1869 3609 1488 3566 
Q 1678 3400 2025 2975 
L 1650 2709 
Q 1469 2956 1222 3381 
Q 991 2941 816 2709 
L 447 2975 
Q 809 3422 966 3566 
Q 563 3644 200 3741 
z
" transform="scale(0.015625)"/>
     </defs>
     <use xlink:href="#ArialMT-2a"/>
     <use xlink:href="#ArialMT-2a" transform="translate(38.916016 0)"/>
     <use xlink:href="#ArialMT-2a" transform="translate(77.832031 0)"/>
     <use xlink:href="#ArialMT-2a" transform="translate(116.748047 0)"/>
    </g>
   </g>
   <g id="text_19">
    <!-- **** -->
    <g style="fill: #262626" transform="translate(467.432448 389.389502) scale(0.192 -0.192)">
     <use xlink:href="#ArialMT-2a"/>
     <use xlink:href="#ArialMT-2a" transform="translate(38.916016 0)"/>
     <use xlink:href="#ArialMT-2a" transform="translate(77.832031 0)"/>
     <use xlink:href="#ArialMT-2a" transform="translate(116.748047 0)"/>
    </g>
   </g>
   <g id="text_20">
    <!-- **** -->
    <g style="fill: #262626" transform="translate(563.56907 358.228528) scale(0.192 -0.192)">
     <use xlink:href="#ArialMT-2a"/>
     <use xlink:href="#ArialMT-2a" transform="translate(38.916016 0)"/>
     <use xlink:href="#ArialMT-2a" transform="translate(77.832031 0)"/>
     <use xlink:href="#ArialMT-2a" transform="translate(116.748047 0)"/>
    </g>
   </g>
   <g id="text_21">
    <!-- **** -->
    <g style="fill: #262626" transform="translate(227.090892 319.597504) scale(0.192 -0.192)">
     <use xlink:href="#ArialMT-2a"/>
     <use xlink:href="#ArialMT-2a" transform="translate(38.916016 0)"/>
     <use xlink:href="#ArialMT-2a" transform="translate(77.832031 0)"/>
     <use xlink:href="#ArialMT-2a" transform="translate(116.748047 0)"/>
    </g>
   </g>
   <g id="text_22">
    <!-- **** -->
    <g style="fill: #262626" transform="translate(419.364137 288.43653) scale(0.192 -0.192)">
     <use xlink:href="#ArialMT-2a"/>
     <use xlink:href="#ArialMT-2a" transform="translate(38.916016 0)"/>
     <use xlink:href="#ArialMT-2a" transform="translate(77.832031 0)"/>
     <use xlink:href="#ArialMT-2a" transform="translate(116.748047 0)"/>
    </g>
   </g>
   <g id="text_23">
    <!-- **** -->
    <g style="fill: #262626" transform="translate(515.500759 257.275556) scale(0.192 -0.192)">
     <use xlink:href="#ArialMT-2a"/>
     <use xlink:href="#ArialMT-2a" transform="translate(38.916016 0)"/>
     <use xlink:href="#ArialMT-2a" transform="translate(77.832031 0)"/>
     <use xlink:href="#ArialMT-2a" transform="translate(116.748047 0)"/>
    </g>
   </g>
   <g id="text_24">
    <!-- **** -->
    <g style="fill: #262626" transform="translate(275.159203 226.114581) scale(0.192 -0.192)">
     <use xlink:href="#ArialMT-2a"/>
     <use xlink:href="#ArialMT-2a" transform="translate(38.916016 0)"/>
     <use xlink:href="#ArialMT-2a" transform="translate(77.832031 0)"/>
     <use xlink:href="#ArialMT-2a" transform="translate(116.748047 0)"/>
    </g>
   </g>
   <g id="text_25">
    <!-- **** -->
    <g style="fill: #262626" transform="translate(371.295825 194.953607) scale(0.192 -0.192)">
     <use xlink:href="#ArialMT-2a"/>
     <use xlink:href="#ArialMT-2a" transform="translate(38.916016 0)"/>
     <use xlink:href="#ArialMT-2a" transform="translate(77.832031 0)"/>
     <use xlink:href="#ArialMT-2a" transform="translate(116.748047 0)"/>
    </g>
   </g>
   <g id="text_26">
    <!-- **** -->
    <g style="fill: #262626" transform="translate(467.432448 163.792633) scale(0.192 -0.192)">
     <use xlink:href="#ArialMT-2a"/>
     <use xlink:href="#ArialMT-2a" transform="translate(38.916016 0)"/>
     <use xlink:href="#ArialMT-2a" transform="translate(77.832031 0)"/>
     <use xlink:href="#ArialMT-2a" transform="translate(116.748047 0)"/>
    </g>
   </g>
   <g id="text_27">
    <!-- **** -->
    <g style="fill: #262626" transform="translate(323.227514 132.631658) scale(0.192 -0.192)">
     <use xlink:href="#ArialMT-2a"/>
     <use xlink:href="#ArialMT-2a" transform="translate(38.916016 0)"/>
     <use xlink:href="#ArialMT-2a" transform="translate(77.832031 0)"/>
     <use xlink:href="#ArialMT-2a" transform="translate(116.748047 0)"/>
    </g>
   </g>
   <g id="text_28">
    <!-- **** -->
    <g style="fill: #262626" transform="translate(419.364137 101.470684) scale(0.192 -0.192)">
     <use xlink:href="#ArialMT-2a"/>
     <use xlink:href="#ArialMT-2a" transform="translate(38.916016 0)"/>
     <use xlink:href="#ArialMT-2a" transform="translate(77.832031 0)"/>
     <use xlink:href="#ArialMT-2a" transform="translate(116.748047 0)"/>
    </g>
   </g>
   <g id="text_29">
    <!-- **** -->
    <g style="fill: #262626" transform="translate(371.295825 70.30971) scale(0.192 -0.192)">
     <use xlink:href="#ArialMT-2a"/>
     <use xlink:href="#ArialMT-2a" transform="translate(38.916016 0)"/>
     <use xlink:href="#ArialMT-2a" transform="translate(77.832031 0)"/>
     <use xlink:href="#ArialMT-2a" transform="translate(116.748047 0)"/>
    </g>
   </g>
   <g id="text_30">
    <!-- Ranked Number of Discovery compounds within +/-0.5 log units of true pIC50 per Fold per Target -->
    <g style="fill: #262626" transform="translate(-26.297175 34.416) scale(0.192 -0.192)">
     <defs>
      <path id="ArialMT-6b" d="M 425 0 
L 425 4581 
L 988 4581 
L 988 1969 
L 2319 3319 
L 3047 3319 
L 1778 2088 
L 3175 0 
L 2481 0 
L 1384 1697 
L 988 1316 
L 988 0 
L 425 0 
z
" transform="scale(0.015625)"/>
      <path id="ArialMT-4e" d="M 488 0 
L 488 4581 
L 1109 4581 
L 3516 984 
L 3516 4581 
L 4097 4581 
L 4097 0 
L 3475 0 
L 1069 3600 
L 1069 0 
L 488 0 
z
" transform="scale(0.015625)"/>
      <path id="ArialMT-2b" d="M 1603 741 
L 1603 1997 
L 356 1997 
L 356 2522 
L 1603 2522 
L 1603 3769 
L 2134 3769 
L 2134 2522 
L 3381 2522 
L 3381 1997 
L 2134 1997 
L 2134 741 
L 1603 741 
z
" transform="scale(0.015625)"/>
      <path id="ArialMT-2f" d="M 0 -78 
L 1328 4659 
L 1778 4659 
L 453 -78 
L 0 -78 
z
" transform="scale(0.015625)"/>
      <path id="ArialMT-2d" d="M 203 1375 
L 203 1941 
L 1931 1941 
L 1931 1375 
L 203 1375 
z
" transform="scale(0.015625)"/>
      <path id="ArialMT-2e" d="M 581 0 
L 581 641 
L 1222 641 
L 1222 0 
L 581 0 
z
" transform="scale(0.015625)"/>
      <path id="ArialMT-35" d="M 266 1200 
L 856 1250 
Q 922 819 1161 601 
Q 1400 384 1738 384 
Q 2144 384 2425 690 
Q 2706 997 2706 1503 
Q 2706 1984 2436 2262 
Q 2166 2541 1728 2541 
Q 1456 2541 1237 2417 
Q 1019 2294 894 2097 
L 366 2166 
L 809 4519 
L 3088 4519 
L 3088 3981 
L 1259 3981 
L 1013 2750 
Q 1425 3038 1878 3038 
Q 2478 3038 2890 2622 
Q 3303 2206 3303 1553 
Q 3303 931 2941 478 
Q 2500 -78 1738 -78 
Q 1113 -78 717 272 
Q 322 622 266 1200 
z
" transform="scale(0.015625)"/>
      <path id="ArialMT-49" d="M 597 0 
L 597 4581 
L 1203 4581 
L 1203 0 
L 597 0 
z
" transform="scale(0.015625)"/>
      <path id="ArialMT-54" d="M 1659 0 
L 1659 4041 
L 150 4041 
L 150 4581 
L 3781 4581 
L 3781 4041 
L 2266 4041 
L 2266 0 
L 1659 0 
z
" transform="scale(0.015625)"/>
     </defs>
     <use xlink:href="#ArialMT-52"/>
     <use xlink:href="#ArialMT-61" transform="translate(72.216797 0)"/>
     <use xlink:href="#ArialMT-6e" transform="translate(127.832031 0)"/>
     <use xlink:href="#ArialMT-6b" transform="translate(183.447266 0)"/>
     <use xlink:href="#ArialMT-65" transform="translate(233.447266 0)"/>
     <use xlink:href="#ArialMT-64" transform="translate(289.0625 0)"/>
     <use xlink:href="#ArialMT-20" transform="translate(344.677734 0)"/>
     <use xlink:href="#ArialMT-4e" transform="translate(372.460938 0)"/>
     <use xlink:href="#ArialMT-75" transform="translate(444.677734 0)"/>
     <use xlink:href="#ArialMT-6d" transform="translate(500.292969 0)"/>
     <use xlink:href="#ArialMT-62" transform="translate(583.59375 0)"/>
     <use xlink:href="#ArialMT-65" transform="translate(639.208984 0)"/>
     <use xlink:href="#ArialMT-72" transform="translate(694.824219 0)"/>
     <use xlink:href="#ArialMT-20" transform="translate(728.125 0)"/>
     <use xlink:href="#ArialMT-6f" transform="translate(755.908203 0)"/>
     <use xlink:href="#ArialMT-66" transform="translate(811.523438 0)"/>
     <use xlink:href="#ArialMT-20" transform="translate(839.306641 0)"/>
     <use xlink:href="#ArialMT-44" transform="translate(867.089844 0)"/>
     <use xlink:href="#ArialMT-69" transform="translate(939.306641 0)"/>
     <use xlink:href="#ArialMT-73" transform="translate(961.523438 0)"/>
     <use xlink:href="#ArialMT-63" transform="translate(1011.523438 0)"/>
     <use xlink:href="#ArialMT-6f" transform="translate(1061.523438 0)"/>
     <use xlink:href="#ArialMT-76" transform="translate(1117.138672 0)"/>
     <use xlink:href="#ArialMT-65" transform="translate(1167.138672 0)"/>
     <use xlink:href="#ArialMT-72" transform="translate(1222.753906 0)"/>
     <use xlink:href="#ArialMT-79" transform="translate(1256.054688 0)"/>
     <use xlink:href="#ArialMT-20" transform="translate(1306.054688 0)"/>
     <use xlink:href="#ArialMT-63" transform="translate(1333.837891 0)"/>
     <use xlink:href="#ArialMT-6f" transform="translate(1383.837891 0)"/>
     <use xlink:href="#ArialMT-6d" transform="translate(1439.453125 0)"/>
     <use xlink:href="#ArialMT-70" transform="translate(1522.753906 0)"/>
     <use xlink:href="#ArialMT-6f" transform="translate(1578.369141 0)"/>
     <use xlink:href="#ArialMT-75" transform="translate(1633.984375 0)"/>
     <use xlink:href="#ArialMT-6e" transform="translate(1689.599609 0)"/>
     <use xlink:href="#ArialMT-64" transform="translate(1745.214844 0)"/>
     <use xlink:href="#ArialMT-73" transform="translate(1800.830078 0)"/>
     <use xlink:href="#ArialMT-20" transform="translate(1850.830078 0)"/>
     <use xlink:href="#ArialMT-77" transform="translate(1878.613281 0)"/>
     <use xlink:href="#ArialMT-69" transform="translate(1950.830078 0)"/>
     <use xlink:href="#ArialMT-74" transform="translate(1973.046875 0)"/>
     <use xlink:href="#ArialMT-68" transform="translate(2000.830078 0)"/>
     <use xlink:href="#ArialMT-69" transform="translate(2056.445312 0)"/>
     <use xlink:href="#ArialMT-6e" transform="translate(2078.662109 0)"/>
     <use xlink:href="#ArialMT-20" transform="translate(2134.277344 0)"/>
     <use xlink:href="#ArialMT-2b" transform="translate(2162.060547 0)"/>
     <use xlink:href="#ArialMT-2f" transform="translate(2220.458984 0)"/>
     <use xlink:href="#ArialMT-2d" transform="translate(2248.242188 0)"/>
     <use xlink:href="#ArialMT-30" transform="translate(2281.542969 0)"/>
     <use xlink:href="#ArialMT-2e" transform="translate(2337.158203 0)"/>
     <use xlink:href="#ArialMT-35" transform="translate(2364.941406 0)"/>
     <use xlink:href="#ArialMT-20" transform="translate(2420.556641 0)"/>
     <use xlink:href="#ArialMT-6c" transform="translate(2448.339844 0)"/>
     <use xlink:href="#ArialMT-6f" transform="translate(2470.556641 0)"/>
     <use xlink:href="#ArialMT-67" transform="translate(2526.171875 0)"/>
     <use xlink:href="#ArialMT-20" transform="translate(2581.787109 0)"/>
     <use xlink:href="#ArialMT-75" transform="translate(2609.570312 0)"/>
     <use xlink:href="#ArialMT-6e" transform="translate(2665.185547 0)"/>
     <use xlink:href="#ArialMT-69" transform="translate(2720.800781 0)"/>
     <use xlink:href="#ArialMT-74" transform="translate(2743.017578 0)"/>
     <use xlink:href="#ArialMT-73" transform="translate(2770.800781 0)"/>
     <use xlink:href="#ArialMT-20" transform="translate(2820.800781 0)"/>
     <use xlink:href="#ArialMT-6f" transform="translate(2848.583984 0)"/>
     <use xlink:href="#ArialMT-66" transform="translate(2904.199219 0)"/>
     <use xlink:href="#ArialMT-20" transform="translate(2931.982422 0)"/>
     <use xlink:href="#ArialMT-74" transform="translate(2959.765625 0)"/>
     <use xlink:href="#ArialMT-72" transform="translate(2987.548828 0)"/>
     <use xlink:href="#ArialMT-75" transform="translate(3020.849609 0)"/>
     <use xlink:href="#ArialMT-65" transform="translate(3076.464844 0)"/>
     <use xlink:href="#ArialMT-20" transform="translate(3132.080078 0)"/>
     <use xlink:href="#ArialMT-70" transform="translate(3159.863281 0)"/>
     <use xlink:href="#ArialMT-49" transform="translate(3215.478516 0)"/>
     <use xlink:href="#ArialMT-43" transform="translate(3243.261719 0)"/>
     <use xlink:href="#ArialMT-35" transform="translate(3315.478516 0)"/>
     <use xlink:href="#ArialMT-30" transform="translate(3371.09375 0)"/>
     <use xlink:href="#ArialMT-20" transform="translate(3426.708984 0)"/>
     <use xlink:href="#ArialMT-70" transform="translate(3454.492188 0)"/>
     <use xlink:href="#ArialMT-65" transform="translate(3510.107422 0)"/>
     <use xlink:href="#ArialMT-72" transform="translate(3565.722656 0)"/>
     <use xlink:href="#ArialMT-20" transform="translate(3599.023438 0)"/>
     <use xlink:href="#ArialMT-46" transform="translate(3626.806641 0)"/>
     <use xlink:href="#ArialMT-6f" transform="translate(3687.890625 0)"/>
     <use xlink:href="#ArialMT-6c" transform="translate(3743.505859 0)"/>
     <use xlink:href="#ArialMT-64" transform="translate(3765.722656 0)"/>
     <use xlink:href="#ArialMT-20" transform="translate(3821.337891 0)"/>
     <use xlink:href="#ArialMT-70" transform="translate(3849.121094 0)"/>
     <use xlink:href="#ArialMT-65" transform="translate(3904.736328 0)"/>
     <use xlink:href="#ArialMT-72" transform="translate(3960.351562 0)"/>
     <use xlink:href="#ArialMT-20" transform="translate(3993.652344 0)"/>
     <use xlink:href="#ArialMT-54" transform="translate(4019.685547 0)"/>
     <use xlink:href="#ArialMT-61" transform="translate(4069.644531 0)"/>
     <use xlink:href="#ArialMT-72" transform="translate(4125.259766 0)"/>
     <use xlink:href="#ArialMT-67" transform="translate(4158.560547 0)"/>
     <use xlink:href="#ArialMT-65" transform="translate(4214.175781 0)"/>
     <use xlink:href="#ArialMT-74" transform="translate(4269.791016 0)"/>
    </g>
   </g>
  </g>
 </g>
 <defs>
  <clipPath id="p8f3db91366">
   <rect x="79.566" y="40.416" width="613.351651" height="605.450348"/>
  </clipPath>
 </defs>
</svg>
