<?xml version="1.0" encoding="utf-8" standalone="no"?>
<!DOCTYPE svg PUBLIC "-//W3C//DTD SVG 1.1//EN"
  "http://www.w3.org/Graphics/SVG/1.1/DTD/svg11.dtd">
<svg xmlns:xlink="http://www.w3.org/1999/xlink" width="576pt" height="936pt" viewBox="0 0 576 936" xmlns="http://www.w3.org/2000/svg" version="1.1">
 <metadata>
  <rdf:RDF xmlns:dc="http://purl.org/dc/elements/1.1/" xmlns:cc="http://creativecommons.org/ns#" xmlns:rdf="http://www.w3.org/1999/02/22-rdf-syntax-ns#">
   <cc:Work>
    <dc:type rdf:resource="http://purl.org/dc/dcmitype/StillImage"/>
    <dc:date>2025-02-25T23:43:10.297668</dc:date>
    <dc:format>image/svg+xml</dc:format>
    <dc:creator>
     <cc:Agent>
      <dc:title>Matplotlib v3.10.0, https://matplotlib.org/</dc:title>
     </cc:Agent>
    </dc:creator>
   </cc:Work>
  </rdf:RDF>
 </metadata>
 <defs>
  <style type="text/css">*{stroke-linejoin: round; stroke-linecap: butt}</style>
 </defs>
 <g id="figure_1">
  <g id="patch_1">
   <path d="M 0 936 
L 576 936 
L 576 0 
L 0 0 
z
" style="fill: #ffffff"/>
  </g>
  <g id="axes_1">
   <g id="patch_2">
    <path d="M 69.846 717.866348 
L 536.848058 717.866348 
L 536.848058 40.416 
L 69.846 40.416 
z
" style="fill: #ffffff"/>
   </g>
   <g id="matplotlib.axis_1">
    <g id="xtick_1">
     <g id="text_1">
      <!-- RandomSplit -->
      <g style="fill: #262626" transform="translate(88.02251 806.472111) rotate(-45) scale(0.176 -0.176)">
       <defs>
        <path id="ArialMT-52" d="M 503 0 
L 503 4581 
L 2534 4581 
Q 3147 4581 3465 4457 
Q 3784 4334 3975 4021 
Q 4166 3709 4166 3331 
Q 4166 2844 3850 2509 
Q 3534 2175 2875 2084 
Q 3116 1969 3241 1856 
Q 3506 1613 3744 1247 
L 4541 0 
L 3778 0 
L 3172 953 
Q 2906 1366 2734 1584 
Q 2563 1803 2427 1890 
Q 2291 1978 2150 2013 
Q 2047 2034 1813 2034 
L 1109 2034 
L 1109 0 
L 503 0 
z
M 1109 2559 
L 2413 2559 
Q 2828 2559 3062 2645 
Q 3297 2731 3419 2920 
Q 3541 3109 3541 3331 
Q 3541 3656 3305 3865 
Q 3069 4075 2559 4075 
L 1109 4075 
L 1109 2559 
z
" transform="scale(0.015625)"/>
        <path id="ArialMT-61" d="M 2588 409 
Q 2275 144 1986 34 
Q 1697 -75 1366 -75 
Q 819 -75 525 192 
Q 231 459 231 875 
Q 231 1119 342 1320 
Q 453 1522 633 1644 
Q 813 1766 1038 1828 
Q 1203 1872 1538 1913 
Q 2219 1994 2541 2106 
Q 2544 2222 2544 2253 
Q 2544 2597 2384 2738 
Q 2169 2928 1744 2928 
Q 1347 2928 1158 2789 
Q 969 2650 878 2297 
L 328 2372 
Q 403 2725 575 2942 
Q 747 3159 1072 3276 
Q 1397 3394 1825 3394 
Q 2250 3394 2515 3294 
Q 2781 3194 2906 3042 
Q 3031 2891 3081 2659 
Q 3109 2516 3109 2141 
L 3109 1391 
Q 3109 606 3145 398 
Q 3181 191 3288 0 
L 2700 0 
Q 2613 175 2588 409 
z
M 2541 1666 
Q 2234 1541 1622 1453 
Q 1275 1403 1131 1340 
Q 988 1278 909 1158 
Q 831 1038 831 891 
Q 831 666 1001 516 
Q 1172 366 1500 366 
Q 1825 366 2078 508 
Q 2331 650 2450 897 
Q 2541 1088 2541 1459 
L 2541 1666 
z
" transform="scale(0.015625)"/>
        <path id="ArialMT-6e" d="M 422 0 
L 422 3319 
L 928 3319 
L 928 2847 
Q 1294 3394 1984 3394 
Q 2284 3394 2536 3286 
Q 2788 3178 2913 3003 
Q 3038 2828 3088 2588 
Q 3119 2431 3119 2041 
L 3119 0 
L 2556 0 
L 2556 2019 
Q 2556 2363 2490 2533 
Q 2425 2703 2258 2804 
Q 2091 2906 1866 2906 
Q 1506 2906 1245 2678 
Q 984 2450 984 1813 
L 984 0 
L 422 0 
z
" transform="scale(0.015625)"/>
        <path id="ArialMT-64" d="M 2575 0 
L 2575 419 
Q 2259 -75 1647 -75 
Q 1250 -75 917 144 
Q 584 363 401 755 
Q 219 1147 219 1656 
Q 219 2153 384 2558 
Q 550 2963 881 3178 
Q 1213 3394 1622 3394 
Q 1922 3394 2156 3267 
Q 2391 3141 2538 2938 
L 2538 4581 
L 3097 4581 
L 3097 0 
L 2575 0 
z
M 797 1656 
Q 797 1019 1065 703 
Q 1334 388 1700 388 
Q 2069 388 2326 689 
Q 2584 991 2584 1609 
Q 2584 2291 2321 2609 
Q 2059 2928 1675 2928 
Q 1300 2928 1048 2622 
Q 797 2316 797 1656 
z
" transform="scale(0.015625)"/>
        <path id="ArialMT-6f" d="M 213 1659 
Q 213 2581 725 3025 
Q 1153 3394 1769 3394 
Q 2453 3394 2887 2945 
Q 3322 2497 3322 1706 
Q 3322 1066 3130 698 
Q 2938 331 2570 128 
Q 2203 -75 1769 -75 
Q 1072 -75 642 372 
Q 213 819 213 1659 
z
M 791 1659 
Q 791 1022 1069 705 
Q 1347 388 1769 388 
Q 2188 388 2466 706 
Q 2744 1025 2744 1678 
Q 2744 2294 2464 2611 
Q 2184 2928 1769 2928 
Q 1347 2928 1069 2612 
Q 791 2297 791 1659 
z
" transform="scale(0.015625)"/>
        <path id="ArialMT-6d" d="M 422 0 
L 422 3319 
L 925 3319 
L 925 2853 
Q 1081 3097 1340 3245 
Q 1600 3394 1931 3394 
Q 2300 3394 2536 3241 
Q 2772 3088 2869 2813 
Q 3263 3394 3894 3394 
Q 4388 3394 4653 3120 
Q 4919 2847 4919 2278 
L 4919 0 
L 4359 0 
L 4359 2091 
Q 4359 2428 4304 2576 
Q 4250 2725 4106 2815 
Q 3963 2906 3769 2906 
Q 3419 2906 3187 2673 
Q 2956 2441 2956 1928 
L 2956 0 
L 2394 0 
L 2394 2156 
Q 2394 2531 2256 2718 
Q 2119 2906 1806 2906 
Q 1569 2906 1367 2781 
Q 1166 2656 1075 2415 
Q 984 2175 984 1722 
L 984 0 
L 422 0 
z
" transform="scale(0.015625)"/>
        <path id="ArialMT-53" d="M 288 1472 
L 859 1522 
Q 900 1178 1048 958 
Q 1197 738 1509 602 
Q 1822 466 2213 466 
Q 2559 466 2825 569 
Q 3091 672 3220 851 
Q 3350 1031 3350 1244 
Q 3350 1459 3225 1620 
Q 3100 1781 2813 1891 
Q 2628 1963 1997 2114 
Q 1366 2266 1113 2400 
Q 784 2572 623 2826 
Q 463 3081 463 3397 
Q 463 3744 659 4045 
Q 856 4347 1234 4503 
Q 1613 4659 2075 4659 
Q 2584 4659 2973 4495 
Q 3363 4331 3572 4012 
Q 3781 3694 3797 3291 
L 3216 3247 
Q 3169 3681 2898 3903 
Q 2628 4125 2100 4125 
Q 1550 4125 1298 3923 
Q 1047 3722 1047 3438 
Q 1047 3191 1225 3031 
Q 1400 2872 2139 2705 
Q 2878 2538 3153 2413 
Q 3553 2228 3743 1945 
Q 3934 1663 3934 1294 
Q 3934 928 3725 604 
Q 3516 281 3123 101 
Q 2731 -78 2241 -78 
Q 1619 -78 1198 103 
Q 778 284 539 648 
Q 300 1013 288 1472 
z
" transform="scale(0.015625)"/>
        <path id="ArialMT-70" d="M 422 -1272 
L 422 3319 
L 934 3319 
L 934 2888 
Q 1116 3141 1344 3267 
Q 1572 3394 1897 3394 
Q 2322 3394 2647 3175 
Q 2972 2956 3137 2557 
Q 3303 2159 3303 1684 
Q 3303 1175 3120 767 
Q 2938 359 2589 142 
Q 2241 -75 1856 -75 
Q 1575 -75 1351 44 
Q 1128 163 984 344 
L 984 -1272 
L 422 -1272 
z
M 931 1641 
Q 931 1000 1190 694 
Q 1450 388 1819 388 
Q 2194 388 2461 705 
Q 2728 1022 2728 1688 
Q 2728 2322 2467 2637 
Q 2206 2953 1844 2953 
Q 1484 2953 1207 2617 
Q 931 2281 931 1641 
z
" transform="scale(0.015625)"/>
        <path id="ArialMT-6c" d="M 409 0 
L 409 4581 
L 972 4581 
L 972 0 
L 409 0 
z
" transform="scale(0.015625)"/>
        <path id="ArialMT-69" d="M 425 3934 
L 425 4581 
L 988 4581 
L 988 3934 
L 425 3934 
z
M 425 0 
L 425 3319 
L 988 3319 
L 988 0 
L 425 0 
z
" transform="scale(0.015625)"/>
        <path id="ArialMT-74" d="M 1650 503 
L 1731 6 
Q 1494 -44 1306 -44 
Q 1000 -44 831 53 
Q 663 150 594 308 
Q 525 466 525 972 
L 525 2881 
L 113 2881 
L 113 3319 
L 525 3319 
L 525 4141 
L 1084 4478 
L 1084 3319 
L 1650 3319 
L 1650 2881 
L 1084 2881 
L 1084 941 
Q 1084 700 1114 631 
Q 1144 563 1211 522 
Q 1278 481 1403 481 
Q 1497 481 1650 503 
z
" transform="scale(0.015625)"/>
       </defs>
       <use xlink:href="#ArialMT-52"/>
       <use xlink:href="#ArialMT-61" transform="translate(72.216797 0)"/>
       <use xlink:href="#ArialMT-6e" transform="translate(127.832031 0)"/>
       <use xlink:href="#ArialMT-64" transform="translate(183.447266 0)"/>
       <use xlink:href="#ArialMT-6f" transform="translate(239.0625 0)"/>
       <use xlink:href="#ArialMT-6d" transform="translate(294.677734 0)"/>
       <use xlink:href="#ArialMT-53" transform="translate(377.978516 0)"/>
       <use xlink:href="#ArialMT-70" transform="translate(444.677734 0)"/>
       <use xlink:href="#ArialMT-6c" transform="translate(500.292969 0)"/>
       <use xlink:href="#ArialMT-69" transform="translate(522.509766 0)"/>
       <use xlink:href="#ArialMT-74" transform="translate(544.726562 0)"/>
      </g>
     </g>
    </g>
    <g id="xtick_2">
     <g id="text_2">
      <!-- ScaffoldSplit -->
      <g style="fill: #262626" transform="translate(162.364688 804.183383) rotate(-45) scale(0.176 -0.176)">
       <defs>
        <path id="ArialMT-63" d="M 2588 1216 
L 3141 1144 
Q 3050 572 2676 248 
Q 2303 -75 1759 -75 
Q 1078 -75 664 370 
Q 250 816 250 1647 
Q 250 2184 428 2587 
Q 606 2991 970 3192 
Q 1334 3394 1763 3394 
Q 2303 3394 2647 3120 
Q 2991 2847 3088 2344 
L 2541 2259 
Q 2463 2594 2264 2762 
Q 2066 2931 1784 2931 
Q 1359 2931 1093 2626 
Q 828 2322 828 1663 
Q 828 994 1084 691 
Q 1341 388 1753 388 
Q 2084 388 2306 591 
Q 2528 794 2588 1216 
z
" transform="scale(0.015625)"/>
        <path id="ArialMT-66" d="M 556 0 
L 556 2881 
L 59 2881 
L 59 3319 
L 556 3319 
L 556 3672 
Q 556 4006 616 4169 
Q 697 4388 901 4523 
Q 1106 4659 1475 4659 
Q 1713 4659 2000 4603 
L 1916 4113 
Q 1741 4144 1584 4144 
Q 1328 4144 1222 4034 
Q 1116 3925 1116 3625 
L 1116 3319 
L 1763 3319 
L 1763 2881 
L 1116 2881 
L 1116 0 
L 556 0 
z
" transform="scale(0.015625)"/>
       </defs>
       <use xlink:href="#ArialMT-53"/>
       <use xlink:href="#ArialMT-63" transform="translate(66.699219 0)"/>
       <use xlink:href="#ArialMT-61" transform="translate(116.699219 0)"/>
       <use xlink:href="#ArialMT-66" transform="translate(172.314453 0)"/>
       <use xlink:href="#ArialMT-66" transform="translate(198.347656 0)"/>
       <use xlink:href="#ArialMT-6f" transform="translate(226.130859 0)"/>
       <use xlink:href="#ArialMT-6c" transform="translate(281.746094 0)"/>
       <use xlink:href="#ArialMT-64" transform="translate(303.962891 0)"/>
       <use xlink:href="#ArialMT-53" transform="translate(359.578125 0)"/>
       <use xlink:href="#ArialMT-70" transform="translate(426.277344 0)"/>
       <use xlink:href="#ArialMT-6c" transform="translate(481.892578 0)"/>
       <use xlink:href="#ArialMT-69" transform="translate(504.109375 0)"/>
       <use xlink:href="#ArialMT-74" transform="translate(526.326172 0)"/>
      </g>
     </g>
    </g>
    <g id="xtick_3">
     <g id="text_3">
      <!-- SortedStepForward_LogD -->
      <g style="fill: #262626" transform="translate(197.68182 879.798908) rotate(-45) scale(0.176 -0.176)">
       <defs>
        <path id="ArialMT-72" d="M 416 0 
L 416 3319 
L 922 3319 
L 922 2816 
Q 1116 3169 1280 3281 
Q 1444 3394 1641 3394 
Q 1925 3394 2219 3213 
L 2025 2691 
Q 1819 2813 1613 2813 
Q 1428 2813 1281 2702 
Q 1134 2591 1072 2394 
Q 978 2094 978 1738 
L 978 0 
L 416 0 
z
" transform="scale(0.015625)"/>
        <path id="ArialMT-65" d="M 2694 1069 
L 3275 997 
Q 3138 488 2766 206 
Q 2394 -75 1816 -75 
Q 1088 -75 661 373 
Q 234 822 234 1631 
Q 234 2469 665 2931 
Q 1097 3394 1784 3394 
Q 2450 3394 2872 2941 
Q 3294 2488 3294 1666 
Q 3294 1616 3291 1516 
L 816 1516 
Q 847 969 1125 678 
Q 1403 388 1819 388 
Q 2128 388 2347 550 
Q 2566 713 2694 1069 
z
M 847 1978 
L 2700 1978 
Q 2663 2397 2488 2606 
Q 2219 2931 1791 2931 
Q 1403 2931 1139 2672 
Q 875 2413 847 1978 
z
" transform="scale(0.015625)"/>
        <path id="ArialMT-46" d="M 525 0 
L 525 4581 
L 3616 4581 
L 3616 4041 
L 1131 4041 
L 1131 2622 
L 3281 2622 
L 3281 2081 
L 1131 2081 
L 1131 0 
L 525 0 
z
" transform="scale(0.015625)"/>
        <path id="ArialMT-77" d="M 1034 0 
L 19 3319 
L 600 3319 
L 1128 1403 
L 1325 691 
Q 1338 744 1497 1375 
L 2025 3319 
L 2603 3319 
L 3100 1394 
L 3266 759 
L 3456 1400 
L 4025 3319 
L 4572 3319 
L 3534 0 
L 2950 0 
L 2422 1988 
L 2294 2553 
L 1622 0 
L 1034 0 
z
" transform="scale(0.015625)"/>
        <path id="ArialMT-5f" d="M -97 -1272 
L -97 -866 
L 3631 -866 
L 3631 -1272 
L -97 -1272 
z
" transform="scale(0.015625)"/>
        <path id="ArialMT-4c" d="M 469 0 
L 469 4581 
L 1075 4581 
L 1075 541 
L 3331 541 
L 3331 0 
L 469 0 
z
" transform="scale(0.015625)"/>
        <path id="ArialMT-67" d="M 319 -275 
L 866 -356 
Q 900 -609 1056 -725 
Q 1266 -881 1628 -881 
Q 2019 -881 2231 -725 
Q 2444 -569 2519 -288 
Q 2563 -116 2559 434 
Q 2191 0 1641 0 
Q 956 0 581 494 
Q 206 988 206 1678 
Q 206 2153 378 2554 
Q 550 2956 876 3175 
Q 1203 3394 1644 3394 
Q 2231 3394 2613 2919 
L 2613 3319 
L 3131 3319 
L 3131 450 
Q 3131 -325 2973 -648 
Q 2816 -972 2473 -1159 
Q 2131 -1347 1631 -1347 
Q 1038 -1347 672 -1080 
Q 306 -813 319 -275 
z
M 784 1719 
Q 784 1066 1043 766 
Q 1303 466 1694 466 
Q 2081 466 2343 764 
Q 2606 1063 2606 1700 
Q 2606 2309 2336 2618 
Q 2066 2928 1684 2928 
Q 1309 2928 1046 2623 
Q 784 2319 784 1719 
z
" transform="scale(0.015625)"/>
        <path id="ArialMT-44" d="M 494 0 
L 494 4581 
L 2072 4581 
Q 2606 4581 2888 4516 
Q 3281 4425 3559 4188 
Q 3922 3881 4101 3404 
Q 4281 2928 4281 2316 
Q 4281 1794 4159 1391 
Q 4038 988 3847 723 
Q 3656 459 3429 307 
Q 3203 156 2883 78 
Q 2563 0 2147 0 
L 494 0 
z
M 1100 541 
L 2078 541 
Q 2531 541 2789 625 
Q 3047 709 3200 863 
Q 3416 1078 3536 1442 
Q 3656 1806 3656 2325 
Q 3656 3044 3420 3430 
Q 3184 3816 2847 3947 
Q 2603 4041 2063 4041 
L 1100 4041 
L 1100 541 
z
" transform="scale(0.015625)"/>
       </defs>
       <use xlink:href="#ArialMT-53"/>
       <use xlink:href="#ArialMT-6f" transform="translate(66.699219 0)"/>
       <use xlink:href="#ArialMT-72" transform="translate(122.314453 0)"/>
       <use xlink:href="#ArialMT-74" transform="translate(155.615234 0)"/>
       <use xlink:href="#ArialMT-65" transform="translate(183.398438 0)"/>
       <use xlink:href="#ArialMT-64" transform="translate(239.013672 0)"/>
       <use xlink:href="#ArialMT-53" transform="translate(294.628906 0)"/>
       <use xlink:href="#ArialMT-74" transform="translate(361.328125 0)"/>
       <use xlink:href="#ArialMT-65" transform="translate(389.111328 0)"/>
       <use xlink:href="#ArialMT-70" transform="translate(444.726562 0)"/>
       <use xlink:href="#ArialMT-46" transform="translate(500.341797 0)"/>
       <use xlink:href="#ArialMT-6f" transform="translate(561.425781 0)"/>
       <use xlink:href="#ArialMT-72" transform="translate(617.041016 0)"/>
       <use xlink:href="#ArialMT-77" transform="translate(650.341797 0)"/>
       <use xlink:href="#ArialMT-61" transform="translate(722.558594 0)"/>
       <use xlink:href="#ArialMT-72" transform="translate(778.173828 0)"/>
       <use xlink:href="#ArialMT-64" transform="translate(811.474609 0)"/>
       <use xlink:href="#ArialMT-5f" transform="translate(867.089844 0)"/>
       <use xlink:href="#ArialMT-4c" transform="translate(922.705078 0)"/>
       <use xlink:href="#ArialMT-6f" transform="translate(978.320312 0)"/>
       <use xlink:href="#ArialMT-67" transform="translate(1033.935547 0)"/>
       <use xlink:href="#ArialMT-44" transform="translate(1089.550781 0)"/>
      </g>
     </g>
    </g>
    <g id="xtick_4">
     <g id="text_4">
      <!-- SortedStepForward_LogP -->
      <g style="fill: #262626" transform="translate(271.222847 879.112484) rotate(-45) scale(0.176 -0.176)">
       <defs>
        <path id="ArialMT-50" d="M 494 0 
L 494 4581 
L 2222 4581 
Q 2678 4581 2919 4538 
Q 3256 4481 3484 4323 
Q 3713 4166 3852 3881 
Q 3991 3597 3991 3256 
Q 3991 2672 3619 2267 
Q 3247 1863 2275 1863 
L 1100 1863 
L 1100 0 
L 494 0 
z
M 1100 2403 
L 2284 2403 
Q 2872 2403 3119 2622 
Q 3366 2841 3366 3238 
Q 3366 3525 3220 3729 
Q 3075 3934 2838 4000 
Q 2684 4041 2272 4041 
L 1100 4041 
L 1100 2403 
z
" transform="scale(0.015625)"/>
       </defs>
       <use xlink:href="#ArialMT-53"/>
       <use xlink:href="#ArialMT-6f" transform="translate(66.699219 0)"/>
       <use xlink:href="#ArialMT-72" transform="translate(122.314453 0)"/>
       <use xlink:href="#ArialMT-74" transform="translate(155.615234 0)"/>
       <use xlink:href="#ArialMT-65" transform="translate(183.398438 0)"/>
       <use xlink:href="#ArialMT-64" transform="translate(239.013672 0)"/>
       <use xlink:href="#ArialMT-53" transform="translate(294.628906 0)"/>
       <use xlink:href="#ArialMT-74" transform="translate(361.328125 0)"/>
       <use xlink:href="#ArialMT-65" transform="translate(389.111328 0)"/>
       <use xlink:href="#ArialMT-70" transform="translate(444.726562 0)"/>
       <use xlink:href="#ArialMT-46" transform="translate(500.341797 0)"/>
       <use xlink:href="#ArialMT-6f" transform="translate(561.425781 0)"/>
       <use xlink:href="#ArialMT-72" transform="translate(617.041016 0)"/>
       <use xlink:href="#ArialMT-77" transform="translate(650.341797 0)"/>
       <use xlink:href="#ArialMT-61" transform="translate(722.558594 0)"/>
       <use xlink:href="#ArialMT-72" transform="translate(778.173828 0)"/>
       <use xlink:href="#ArialMT-64" transform="translate(811.474609 0)"/>
       <use xlink:href="#ArialMT-5f" transform="translate(867.089844 0)"/>
       <use xlink:href="#ArialMT-4c" transform="translate(922.705078 0)"/>
       <use xlink:href="#ArialMT-6f" transform="translate(978.320312 0)"/>
       <use xlink:href="#ArialMT-67" transform="translate(1033.935547 0)"/>
       <use xlink:href="#ArialMT-50" transform="translate(1089.550781 0)"/>
      </g>
     </g>
    </g>
    <g id="xtick_5">
     <g id="text_5">
      <!-- SortedStepForward_MCE18 -->
      <g style="fill: #262626" transform="translate(338.276876 891.545896) rotate(-45) scale(0.176 -0.176)">
       <defs>
        <path id="ArialMT-4d" d="M 475 0 
L 475 4581 
L 1388 4581 
L 2472 1338 
Q 2622 884 2691 659 
Q 2769 909 2934 1394 
L 4031 4581 
L 4847 4581 
L 4847 0 
L 4263 0 
L 4263 3834 
L 2931 0 
L 2384 0 
L 1059 3900 
L 1059 0 
L 475 0 
z
" transform="scale(0.015625)"/>
        <path id="ArialMT-43" d="M 3763 1606 
L 4369 1453 
Q 4178 706 3683 314 
Q 3188 -78 2472 -78 
Q 1731 -78 1267 223 
Q 803 525 561 1097 
Q 319 1669 319 2325 
Q 319 3041 592 3573 
Q 866 4106 1370 4382 
Q 1875 4659 2481 4659 
Q 3169 4659 3637 4309 
Q 4106 3959 4291 3325 
L 3694 3184 
Q 3534 3684 3231 3912 
Q 2928 4141 2469 4141 
Q 1941 4141 1586 3887 
Q 1231 3634 1087 3207 
Q 944 2781 944 2328 
Q 944 1744 1114 1308 
Q 1284 872 1643 656 
Q 2003 441 2422 441 
Q 2931 441 3284 734 
Q 3638 1028 3763 1606 
z
" transform="scale(0.015625)"/>
        <path id="ArialMT-45" d="M 506 0 
L 506 4581 
L 3819 4581 
L 3819 4041 
L 1113 4041 
L 1113 2638 
L 3647 2638 
L 3647 2100 
L 1113 2100 
L 1113 541 
L 3925 541 
L 3925 0 
L 506 0 
z
" transform="scale(0.015625)"/>
        <path id="ArialMT-31" d="M 2384 0 
L 1822 0 
L 1822 3584 
Q 1619 3391 1289 3197 
Q 959 3003 697 2906 
L 697 3450 
Q 1169 3672 1522 3987 
Q 1875 4303 2022 4600 
L 2384 4600 
L 2384 0 
z
" transform="scale(0.015625)"/>
        <path id="ArialMT-38" d="M 1131 2484 
Q 781 2613 612 2850 
Q 444 3088 444 3419 
Q 444 3919 803 4259 
Q 1163 4600 1759 4600 
Q 2359 4600 2725 4251 
Q 3091 3903 3091 3403 
Q 3091 3084 2923 2848 
Q 2756 2613 2416 2484 
Q 2838 2347 3058 2040 
Q 3278 1734 3278 1309 
Q 3278 722 2862 322 
Q 2447 -78 1769 -78 
Q 1091 -78 675 323 
Q 259 725 259 1325 
Q 259 1772 486 2073 
Q 713 2375 1131 2484 
z
M 1019 3438 
Q 1019 3113 1228 2906 
Q 1438 2700 1772 2700 
Q 2097 2700 2305 2904 
Q 2513 3109 2513 3406 
Q 2513 3716 2298 3927 
Q 2084 4138 1766 4138 
Q 1444 4138 1231 3931 
Q 1019 3725 1019 3438 
z
M 838 1322 
Q 838 1081 952 856 
Q 1066 631 1291 507 
Q 1516 384 1775 384 
Q 2178 384 2440 643 
Q 2703 903 2703 1303 
Q 2703 1709 2433 1975 
Q 2163 2241 1756 2241 
Q 1359 2241 1098 1978 
Q 838 1716 838 1322 
z
" transform="scale(0.015625)"/>
       </defs>
       <use xlink:href="#ArialMT-53"/>
       <use xlink:href="#ArialMT-6f" transform="translate(66.699219 0)"/>
       <use xlink:href="#ArialMT-72" transform="translate(122.314453 0)"/>
       <use xlink:href="#ArialMT-74" transform="translate(155.615234 0)"/>
       <use xlink:href="#ArialMT-65" transform="translate(183.398438 0)"/>
       <use xlink:href="#ArialMT-64" transform="translate(239.013672 0)"/>
       <use xlink:href="#ArialMT-53" transform="translate(294.628906 0)"/>
       <use xlink:href="#ArialMT-74" transform="translate(361.328125 0)"/>
       <use xlink:href="#ArialMT-65" transform="translate(389.111328 0)"/>
       <use xlink:href="#ArialMT-70" transform="translate(444.726562 0)"/>
       <use xlink:href="#ArialMT-46" transform="translate(500.341797 0)"/>
       <use xlink:href="#ArialMT-6f" transform="translate(561.425781 0)"/>
       <use xlink:href="#ArialMT-72" transform="translate(617.041016 0)"/>
       <use xlink:href="#ArialMT-77" transform="translate(650.341797 0)"/>
       <use xlink:href="#ArialMT-61" transform="translate(722.558594 0)"/>
       <use xlink:href="#ArialMT-72" transform="translate(778.173828 0)"/>
       <use xlink:href="#ArialMT-64" transform="translate(811.474609 0)"/>
       <use xlink:href="#ArialMT-5f" transform="translate(867.089844 0)"/>
       <use xlink:href="#ArialMT-4d" transform="translate(922.705078 0)"/>
       <use xlink:href="#ArialMT-43" transform="translate(1006.005859 0)"/>
       <use xlink:href="#ArialMT-45" transform="translate(1078.222656 0)"/>
       <use xlink:href="#ArialMT-31" transform="translate(1144.921875 0)"/>
       <use xlink:href="#ArialMT-38" transform="translate(1200.537109 0)"/>
      </g>
     </g>
    </g>
    <g id="xtick_6">
     <g id="text_6">
      <!-- UnsortedStepForward -->
      <g style="fill: #262626" transform="translate(428.76849 856.958298) rotate(-45) scale(0.176 -0.176)">
       <defs>
        <path id="ArialMT-55" d="M 3500 4581 
L 4106 4581 
L 4106 1934 
Q 4106 1244 3950 837 
Q 3794 431 3386 176 
Q 2978 -78 2316 -78 
Q 1672 -78 1262 144 
Q 853 366 678 786 
Q 503 1206 503 1934 
L 503 4581 
L 1109 4581 
L 1109 1938 
Q 1109 1341 1220 1058 
Q 1331 775 1601 622 
Q 1872 469 2263 469 
Q 2931 469 3215 772 
Q 3500 1075 3500 1938 
L 3500 4581 
z
" transform="scale(0.015625)"/>
        <path id="ArialMT-73" d="M 197 991 
L 753 1078 
Q 800 744 1014 566 
Q 1228 388 1613 388 
Q 2000 388 2187 545 
Q 2375 703 2375 916 
Q 2375 1106 2209 1216 
Q 2094 1291 1634 1406 
Q 1016 1563 777 1677 
Q 538 1791 414 1992 
Q 291 2194 291 2438 
Q 291 2659 392 2848 
Q 494 3038 669 3163 
Q 800 3259 1026 3326 
Q 1253 3394 1513 3394 
Q 1903 3394 2198 3281 
Q 2494 3169 2634 2976 
Q 2775 2784 2828 2463 
L 2278 2388 
Q 2241 2644 2061 2787 
Q 1881 2931 1553 2931 
Q 1166 2931 1000 2803 
Q 834 2675 834 2503 
Q 834 2394 903 2306 
Q 972 2216 1119 2156 
Q 1203 2125 1616 2013 
Q 2213 1853 2448 1751 
Q 2684 1650 2818 1456 
Q 2953 1263 2953 975 
Q 2953 694 2789 445 
Q 2625 197 2315 61 
Q 2006 -75 1616 -75 
Q 969 -75 630 194 
Q 291 463 197 991 
z
" transform="scale(0.015625)"/>
       </defs>
       <use xlink:href="#ArialMT-55"/>
       <use xlink:href="#ArialMT-6e" transform="translate(72.216797 0)"/>
       <use xlink:href="#ArialMT-73" transform="translate(127.832031 0)"/>
       <use xlink:href="#ArialMT-6f" transform="translate(177.832031 0)"/>
       <use xlink:href="#ArialMT-72" transform="translate(233.447266 0)"/>
       <use xlink:href="#ArialMT-74" transform="translate(266.748047 0)"/>
       <use xlink:href="#ArialMT-65" transform="translate(294.53125 0)"/>
       <use xlink:href="#ArialMT-64" transform="translate(350.146484 0)"/>
       <use xlink:href="#ArialMT-53" transform="translate(405.761719 0)"/>
       <use xlink:href="#ArialMT-74" transform="translate(472.460938 0)"/>
       <use xlink:href="#ArialMT-65" transform="translate(500.244141 0)"/>
       <use xlink:href="#ArialMT-70" transform="translate(555.859375 0)"/>
       <use xlink:href="#ArialMT-46" transform="translate(611.474609 0)"/>
       <use xlink:href="#ArialMT-6f" transform="translate(672.558594 0)"/>
       <use xlink:href="#ArialMT-72" transform="translate(728.173828 0)"/>
       <use xlink:href="#ArialMT-77" transform="translate(761.474609 0)"/>
       <use xlink:href="#ArialMT-61" transform="translate(833.691406 0)"/>
       <use xlink:href="#ArialMT-72" transform="translate(889.306641 0)"/>
       <use xlink:href="#ArialMT-64" transform="translate(922.607422 0)"/>
      </g>
     </g>
    </g>
    <g id="text_7">
     <!-- split_type -->
     <g style="fill: #262626" transform="translate(262.793029 911.762355) scale(0.192 -0.192)">
      <defs>
       <path id="ArialMT-79" d="M 397 -1278 
L 334 -750 
Q 519 -800 656 -800 
Q 844 -800 956 -737 
Q 1069 -675 1141 -563 
Q 1194 -478 1313 -144 
Q 1328 -97 1363 -6 
L 103 3319 
L 709 3319 
L 1400 1397 
Q 1534 1031 1641 628 
Q 1738 1016 1872 1384 
L 2581 3319 
L 3144 3319 
L 1881 -56 
Q 1678 -603 1566 -809 
Q 1416 -1088 1222 -1217 
Q 1028 -1347 759 -1347 
Q 597 -1347 397 -1278 
z
" transform="scale(0.015625)"/>
      </defs>
      <use xlink:href="#ArialMT-73"/>
      <use xlink:href="#ArialMT-70" transform="translate(50 0)"/>
      <use xlink:href="#ArialMT-6c" transform="translate(105.615234 0)"/>
      <use xlink:href="#ArialMT-69" transform="translate(127.832031 0)"/>
      <use xlink:href="#ArialMT-74" transform="translate(150.048828 0)"/>
      <use xlink:href="#ArialMT-5f" transform="translate(177.832031 0)"/>
      <use xlink:href="#ArialMT-74" transform="translate(233.447266 0)"/>
      <use xlink:href="#ArialMT-79" transform="translate(261.230469 0)"/>
      <use xlink:href="#ArialMT-70" transform="translate(311.230469 0)"/>
      <use xlink:href="#ArialMT-65" transform="translate(366.845703 0)"/>
     </g>
    </g>
   </g>
   <g id="matplotlib.axis_2">
    <g id="ytick_1">
     <g id="line2d_1">
      <path d="M 69.846 701.577386 
L 536.848058 701.577386 
" clip-path="url(#p52b0250422)" style="fill: none; stroke: #cccccc; stroke-width: 0.8; stroke-linecap: round"/>
     </g>
     <g id="text_8">
      <!-- 0 -->
      <g style="fill: #262626" transform="translate(51.75875 707.876261) scale(0.176 -0.176)">
       <defs>
        <path id="ArialMT-30" d="M 266 2259 
Q 266 3072 433 3567 
Q 600 4063 929 4331 
Q 1259 4600 1759 4600 
Q 2128 4600 2406 4451 
Q 2684 4303 2865 4023 
Q 3047 3744 3150 3342 
Q 3253 2941 3253 2259 
Q 3253 1453 3087 958 
Q 2922 463 2592 192 
Q 2263 -78 1759 -78 
Q 1097 -78 719 397 
Q 266 969 266 2259 
z
M 844 2259 
Q 844 1131 1108 757 
Q 1372 384 1759 384 
Q 2147 384 2411 759 
Q 2675 1134 2675 2259 
Q 2675 3391 2411 3762 
Q 2147 4134 1753 4134 
Q 1366 4134 1134 3806 
Q 844 3388 844 2259 
z
" transform="scale(0.015625)"/>
       </defs>
       <use xlink:href="#ArialMT-30"/>
      </g>
     </g>
    </g>
    <g id="ytick_2">
     <g id="line2d_2">
      <path d="M 69.846 592.984312 
L 536.848058 592.984312 
" clip-path="url(#p52b0250422)" style="fill: none; stroke: #cccccc; stroke-width: 0.8; stroke-linecap: round"/>
     </g>
     <g id="text_9">
      <!-- 10 -->
      <g style="fill: #262626" transform="translate(41.9715 599.283187) scale(0.176 -0.176)">
       <use xlink:href="#ArialMT-31"/>
       <use xlink:href="#ArialMT-30" transform="translate(55.615234 0)"/>
      </g>
     </g>
    </g>
    <g id="ytick_3">
     <g id="line2d_3">
      <path d="M 69.846 484.391237 
L 536.848058 484.391237 
" clip-path="url(#p52b0250422)" style="fill: none; stroke: #cccccc; stroke-width: 0.8; stroke-linecap: round"/>
     </g>
     <g id="text_10">
      <!-- 20 -->
      <g style="fill: #262626" transform="translate(41.9715 490.690112) scale(0.176 -0.176)">
       <defs>
        <path id="ArialMT-32" d="M 3222 541 
L 3222 0 
L 194 0 
Q 188 203 259 391 
Q 375 700 629 1000 
Q 884 1300 1366 1694 
Q 2113 2306 2375 2664 
Q 2638 3022 2638 3341 
Q 2638 3675 2398 3904 
Q 2159 4134 1775 4134 
Q 1369 4134 1125 3890 
Q 881 3647 878 3216 
L 300 3275 
Q 359 3922 746 4261 
Q 1134 4600 1788 4600 
Q 2447 4600 2831 4234 
Q 3216 3869 3216 3328 
Q 3216 3053 3103 2787 
Q 2991 2522 2730 2228 
Q 2469 1934 1863 1422 
Q 1356 997 1212 845 
Q 1069 694 975 541 
L 3222 541 
z
" transform="scale(0.015625)"/>
       </defs>
       <use xlink:href="#ArialMT-32"/>
       <use xlink:href="#ArialMT-30" transform="translate(55.615234 0)"/>
      </g>
     </g>
    </g>
    <g id="ytick_4">
     <g id="line2d_4">
      <path d="M 69.846 375.798162 
L 536.848058 375.798162 
" clip-path="url(#p52b0250422)" style="fill: none; stroke: #cccccc; stroke-width: 0.8; stroke-linecap: round"/>
     </g>
     <g id="text_11">
      <!-- 30 -->
      <g style="fill: #262626" transform="translate(41.9715 382.097037) scale(0.176 -0.176)">
       <defs>
        <path id="ArialMT-33" d="M 269 1209 
L 831 1284 
Q 928 806 1161 595 
Q 1394 384 1728 384 
Q 2125 384 2398 659 
Q 2672 934 2672 1341 
Q 2672 1728 2419 1979 
Q 2166 2231 1775 2231 
Q 1616 2231 1378 2169 
L 1441 2663 
Q 1497 2656 1531 2656 
Q 1891 2656 2178 2843 
Q 2466 3031 2466 3422 
Q 2466 3731 2256 3934 
Q 2047 4138 1716 4138 
Q 1388 4138 1169 3931 
Q 950 3725 888 3313 
L 325 3413 
Q 428 3978 793 4289 
Q 1159 4600 1703 4600 
Q 2078 4600 2393 4439 
Q 2709 4278 2876 4000 
Q 3044 3722 3044 3409 
Q 3044 3113 2884 2869 
Q 2725 2625 2413 2481 
Q 2819 2388 3044 2092 
Q 3269 1797 3269 1353 
Q 3269 753 2831 336 
Q 2394 -81 1725 -81 
Q 1122 -81 723 278 
Q 325 638 269 1209 
z
" transform="scale(0.015625)"/>
       </defs>
       <use xlink:href="#ArialMT-33"/>
       <use xlink:href="#ArialMT-30" transform="translate(55.615234 0)"/>
      </g>
     </g>
    </g>
    <g id="ytick_5">
     <g id="line2d_5">
      <path d="M 69.846 267.205087 
L 536.848058 267.205087 
" clip-path="url(#p52b0250422)" style="fill: none; stroke: #cccccc; stroke-width: 0.8; stroke-linecap: round"/>
     </g>
     <g id="text_12">
      <!-- 40 -->
      <g style="fill: #262626" transform="translate(41.9715 273.503962) scale(0.176 -0.176)">
       <defs>
        <path id="ArialMT-34" d="M 2069 0 
L 2069 1097 
L 81 1097 
L 81 1613 
L 2172 4581 
L 2631 4581 
L 2631 1613 
L 3250 1613 
L 3250 1097 
L 2631 1097 
L 2631 0 
L 2069 0 
z
M 2069 1613 
L 2069 3678 
L 634 1613 
L 2069 1613 
z
" transform="scale(0.015625)"/>
       </defs>
       <use xlink:href="#ArialMT-34"/>
       <use xlink:href="#ArialMT-30" transform="translate(55.615234 0)"/>
      </g>
     </g>
    </g>
    <g id="ytick_6">
     <g id="line2d_6">
      <path d="M 69.846 158.612012 
L 536.848058 158.612012 
" clip-path="url(#p52b0250422)" style="fill: none; stroke: #cccccc; stroke-width: 0.8; stroke-linecap: round"/>
     </g>
     <g id="text_13">
      <!-- 50 -->
      <g style="fill: #262626" transform="translate(41.9715 164.910887) scale(0.176 -0.176)">
       <defs>
        <path id="ArialMT-35" d="M 266 1200 
L 856 1250 
Q 922 819 1161 601 
Q 1400 384 1738 384 
Q 2144 384 2425 690 
Q 2706 997 2706 1503 
Q 2706 1984 2436 2262 
Q 2166 2541 1728 2541 
Q 1456 2541 1237 2417 
Q 1019 2294 894 2097 
L 366 2166 
L 809 4519 
L 3088 4519 
L 3088 3981 
L 1259 3981 
L 1013 2750 
Q 1425 3038 1878 3038 
Q 2478 3038 2890 2622 
Q 3303 2206 3303 1553 
Q 3303 931 2941 478 
Q 2500 -78 1738 -78 
Q 1113 -78 717 272 
Q 322 622 266 1200 
z
" transform="scale(0.015625)"/>
       </defs>
       <use xlink:href="#ArialMT-35"/>
       <use xlink:href="#ArialMT-30" transform="translate(55.615234 0)"/>
      </g>
     </g>
    </g>
    <g id="ytick_7">
     <g id="line2d_7">
      <path d="M 69.846 50.018937 
L 536.848058 50.018937 
" clip-path="url(#p52b0250422)" style="fill: none; stroke: #cccccc; stroke-width: 0.8; stroke-linecap: round"/>
     </g>
     <g id="text_14">
      <!-- 60 -->
      <g style="fill: #262626" transform="translate(41.9715 56.317812) scale(0.176 -0.176)">
       <defs>
        <path id="ArialMT-36" d="M 3184 3459 
L 2625 3416 
Q 2550 3747 2413 3897 
Q 2184 4138 1850 4138 
Q 1581 4138 1378 3988 
Q 1113 3794 959 3422 
Q 806 3050 800 2363 
Q 1003 2672 1297 2822 
Q 1591 2972 1913 2972 
Q 2475 2972 2870 2558 
Q 3266 2144 3266 1488 
Q 3266 1056 3080 686 
Q 2894 316 2569 119 
Q 2244 -78 1831 -78 
Q 1128 -78 684 439 
Q 241 956 241 2144 
Q 241 3472 731 4075 
Q 1159 4600 1884 4600 
Q 2425 4600 2770 4297 
Q 3116 3994 3184 3459 
z
M 888 1484 
Q 888 1194 1011 928 
Q 1134 663 1356 523 
Q 1578 384 1822 384 
Q 2178 384 2434 671 
Q 2691 959 2691 1453 
Q 2691 1928 2437 2201 
Q 2184 2475 1800 2475 
Q 1419 2475 1153 2201 
Q 888 1928 888 1484 
z
" transform="scale(0.015625)"/>
       </defs>
       <use xlink:href="#ArialMT-36"/>
       <use xlink:href="#ArialMT-30" transform="translate(55.615234 0)"/>
      </g>
     </g>
    </g>
    <g id="text_15">
     <!-- number of novel discovery compounds within error range -->
     <g style="fill: #262626" transform="translate(33.9305 620.843674) rotate(-90) scale(0.192 -0.192)">
      <defs>
       <path id="ArialMT-75" d="M 2597 0 
L 2597 488 
Q 2209 -75 1544 -75 
Q 1250 -75 995 37 
Q 741 150 617 320 
Q 494 491 444 738 
Q 409 903 409 1263 
L 409 3319 
L 972 3319 
L 972 1478 
Q 972 1038 1006 884 
Q 1059 663 1231 536 
Q 1403 409 1656 409 
Q 1909 409 2131 539 
Q 2353 669 2445 892 
Q 2538 1116 2538 1541 
L 2538 3319 
L 3100 3319 
L 3100 0 
L 2597 0 
z
" transform="scale(0.015625)"/>
       <path id="ArialMT-62" d="M 941 0 
L 419 0 
L 419 4581 
L 981 4581 
L 981 2947 
Q 1338 3394 1891 3394 
Q 2197 3394 2470 3270 
Q 2744 3147 2920 2923 
Q 3097 2700 3197 2384 
Q 3297 2069 3297 1709 
Q 3297 856 2875 390 
Q 2453 -75 1863 -75 
Q 1275 -75 941 416 
L 941 0 
z
M 934 1684 
Q 934 1088 1097 822 
Q 1363 388 1816 388 
Q 2184 388 2453 708 
Q 2722 1028 2722 1663 
Q 2722 2313 2464 2622 
Q 2206 2931 1841 2931 
Q 1472 2931 1203 2611 
Q 934 2291 934 1684 
z
" transform="scale(0.015625)"/>
       <path id="ArialMT-20" transform="scale(0.015625)"/>
       <path id="ArialMT-76" d="M 1344 0 
L 81 3319 
L 675 3319 
L 1388 1331 
Q 1503 1009 1600 663 
Q 1675 925 1809 1294 
L 2547 3319 
L 3125 3319 
L 1869 0 
L 1344 0 
z
" transform="scale(0.015625)"/>
       <path id="ArialMT-68" d="M 422 0 
L 422 4581 
L 984 4581 
L 984 2938 
Q 1378 3394 1978 3394 
Q 2347 3394 2619 3248 
Q 2891 3103 3008 2847 
Q 3125 2591 3125 2103 
L 3125 0 
L 2563 0 
L 2563 2103 
Q 2563 2525 2380 2717 
Q 2197 2909 1863 2909 
Q 1613 2909 1392 2779 
Q 1172 2650 1078 2428 
Q 984 2206 984 1816 
L 984 0 
L 422 0 
z
" transform="scale(0.015625)"/>
      </defs>
      <use xlink:href="#ArialMT-6e"/>
      <use xlink:href="#ArialMT-75" transform="translate(55.615234 0)"/>
      <use xlink:href="#ArialMT-6d" transform="translate(111.230469 0)"/>
      <use xlink:href="#ArialMT-62" transform="translate(194.53125 0)"/>
      <use xlink:href="#ArialMT-65" transform="translate(250.146484 0)"/>
      <use xlink:href="#ArialMT-72" transform="translate(305.761719 0)"/>
      <use xlink:href="#ArialMT-20" transform="translate(339.0625 0)"/>
      <use xlink:href="#ArialMT-6f" transform="translate(366.845703 0)"/>
      <use xlink:href="#ArialMT-66" transform="translate(422.460938 0)"/>
      <use xlink:href="#ArialMT-20" transform="translate(450.244141 0)"/>
      <use xlink:href="#ArialMT-6e" transform="translate(478.027344 0)"/>
      <use xlink:href="#ArialMT-6f" transform="translate(533.642578 0)"/>
      <use xlink:href="#ArialMT-76" transform="translate(589.257812 0)"/>
      <use xlink:href="#ArialMT-65" transform="translate(639.257812 0)"/>
      <use xlink:href="#ArialMT-6c" transform="translate(694.873047 0)"/>
      <use xlink:href="#ArialMT-20" transform="translate(717.089844 0)"/>
      <use xlink:href="#ArialMT-64" transform="translate(744.873047 0)"/>
      <use xlink:href="#ArialMT-69" transform="translate(800.488281 0)"/>
      <use xlink:href="#ArialMT-73" transform="translate(822.705078 0)"/>
      <use xlink:href="#ArialMT-63" transform="translate(872.705078 0)"/>
      <use xlink:href="#ArialMT-6f" transform="translate(922.705078 0)"/>
      <use xlink:href="#ArialMT-76" transform="translate(978.320312 0)"/>
      <use xlink:href="#ArialMT-65" transform="translate(1028.320312 0)"/>
      <use xlink:href="#ArialMT-72" transform="translate(1083.935547 0)"/>
      <use xlink:href="#ArialMT-79" transform="translate(1117.236328 0)"/>
      <use xlink:href="#ArialMT-20" transform="translate(1167.236328 0)"/>
      <use xlink:href="#ArialMT-63" transform="translate(1195.019531 0)"/>
      <use xlink:href="#ArialMT-6f" transform="translate(1245.019531 0)"/>
      <use xlink:href="#ArialMT-6d" transform="translate(1300.634766 0)"/>
      <use xlink:href="#ArialMT-70" transform="translate(1383.935547 0)"/>
      <use xlink:href="#ArialMT-6f" transform="translate(1439.550781 0)"/>
      <use xlink:href="#ArialMT-75" transform="translate(1495.166016 0)"/>
      <use xlink:href="#ArialMT-6e" transform="translate(1550.78125 0)"/>
      <use xlink:href="#ArialMT-64" transform="translate(1606.396484 0)"/>
      <use xlink:href="#ArialMT-73" transform="translate(1662.011719 0)"/>
      <use xlink:href="#ArialMT-20" transform="translate(1712.011719 0)"/>
      <use xlink:href="#ArialMT-77" transform="translate(1739.794922 0)"/>
      <use xlink:href="#ArialMT-69" transform="translate(1812.011719 0)"/>
      <use xlink:href="#ArialMT-74" transform="translate(1834.228516 0)"/>
      <use xlink:href="#ArialMT-68" transform="translate(1862.011719 0)"/>
      <use xlink:href="#ArialMT-69" transform="translate(1917.626953 0)"/>
      <use xlink:href="#ArialMT-6e" transform="translate(1939.84375 0)"/>
      <use xlink:href="#ArialMT-20" transform="translate(1995.458984 0)"/>
      <use xlink:href="#ArialMT-65" transform="translate(2023.242188 0)"/>
      <use xlink:href="#ArialMT-72" transform="translate(2078.857422 0)"/>
      <use xlink:href="#ArialMT-72" transform="translate(2112.158203 0)"/>
      <use xlink:href="#ArialMT-6f" transform="translate(2145.458984 0)"/>
      <use xlink:href="#ArialMT-72" transform="translate(2201.074219 0)"/>
      <use xlink:href="#ArialMT-20" transform="translate(2234.375 0)"/>
      <use xlink:href="#ArialMT-72" transform="translate(2262.158203 0)"/>
      <use xlink:href="#ArialMT-61" transform="translate(2295.458984 0)"/>
      <use xlink:href="#ArialMT-6e" transform="translate(2351.074219 0)"/>
      <use xlink:href="#ArialMT-67" transform="translate(2406.689453 0)"/>
      <use xlink:href="#ArialMT-65" transform="translate(2462.304688 0)"/>
     </g>
    </g>
   </g>
   <g id="PatchCollection_1">
    <path d="M 120.238121 701.577386 
L 120.466864 701.577386 
L 120.466864 701.577386 
L 120.238121 701.577386 
z
" clip-path="url(#p52b0250422)" style="fill: #d8dde5; stroke: #494949; stroke-width: 0.6"/>
    <path d="M 120.123749 701.577386 
L 120.581235 701.577386 
L 120.581235 701.577386 
L 120.123749 701.577386 
z
" clip-path="url(#p52b0250422)" style="fill: #d2d8e2; stroke: #494949; stroke-width: 0.6"/>
    <path d="M 119.895006 701.577386 
L 120.809979 701.577386 
L 120.809979 701.577386 
L 119.895006 701.577386 
z
" clip-path="url(#p52b0250422)" style="fill: #cad2de; stroke: #494949; stroke-width: 0.6"/>
    <path d="M 119.43752 701.577386 
L 121.267465 701.577386 
L 121.267465 701.577386 
L 119.43752 701.577386 
z
" clip-path="url(#p52b0250422)" style="fill: #c1cad9; stroke: #494949; stroke-width: 0.6"/>
    <path d="M 118.522547 701.577386 
L 122.182438 701.577386 
L 122.182438 701.577386 
L 118.522547 701.577386 
z
" clip-path="url(#p52b0250422)" style="fill: #b4c0d3; stroke: #494949; stroke-width: 0.6"/>
    <path d="M 116.692601 701.577386 
L 124.012383 701.577386 
L 124.012383 701.577386 
L 116.692601 701.577386 
z
" clip-path="url(#p52b0250422)" style="fill: #a4b3ca; stroke: #494949; stroke-width: 0.6"/>
    <path d="M 113.032711 701.577386 
L 127.672274 701.577386 
L 127.672274 701.577386 
L 113.032711 701.577386 
z
" clip-path="url(#p52b0250422)" style="fill: #90a3c0; stroke: #494949; stroke-width: 0.6"/>
    <path d="M 105.712929 701.577386 
L 134.992055 701.577386 
L 134.992055 701.577386 
L 105.712929 701.577386 
z
" clip-path="url(#p52b0250422)" style="fill: #778eb3; stroke: #494949; stroke-width: 0.6"/>
    <path d="M 91.073366 701.577386 
L 149.631618 701.577386 
L 149.631618 701.577386 
L 91.073366 701.577386 
z
" clip-path="url(#p52b0250422)" style="fill: #5875a4; stroke: #494949; stroke-width: 0.6"/>
    <path d="M 105.712929 701.577386 
L 134.992055 701.577386 
L 134.992055 701.577386 
L 105.712929 701.577386 
z
" clip-path="url(#p52b0250422)" style="fill: #778eb3; stroke: #494949; stroke-width: 0.6"/>
    <path d="M 113.032711 701.577386 
L 127.672274 701.577386 
L 127.672274 690.718079 
L 113.032711 690.718079 
z
" clip-path="url(#p52b0250422)" style="fill: #90a3c0; stroke: #494949; stroke-width: 0.6"/>
    <path d="M 116.692601 690.718079 
L 124.012383 690.718079 
L 124.012383 690.718079 
L 116.692601 690.718079 
z
" clip-path="url(#p52b0250422)" style="fill: #a4b3ca; stroke: #494949; stroke-width: 0.6"/>
    <path d="M 118.522547 690.718079 
L 122.182438 690.718079 
L 122.182438 690.718079 
L 118.522547 690.718079 
z
" clip-path="url(#p52b0250422)" style="fill: #b4c0d3; stroke: #494949; stroke-width: 0.6"/>
    <path d="M 119.43752 690.718079 
L 121.267465 690.718079 
L 121.267465 679.858771 
L 119.43752 679.858771 
z
" clip-path="url(#p52b0250422)" style="fill: #c1cad9; stroke: #494949; stroke-width: 0.6"/>
    <path d="M 119.895006 679.858771 
L 120.809979 679.858771 
L 120.809979 679.858771 
L 119.895006 679.858771 
z
" clip-path="url(#p52b0250422)" style="fill: #cad2de; stroke: #494949; stroke-width: 0.6"/>
    <path d="M 120.123749 679.858771 
L 120.581235 679.858771 
L 120.581235 668.999464 
L 120.123749 668.999464 
z
" clip-path="url(#p52b0250422)" style="fill: #d2d8e2; stroke: #494949; stroke-width: 0.6"/>
    <path d="M 120.238121 668.999464 
L 120.466864 668.999464 
L 120.466864 668.999464 
L 120.238121 668.999464 
z
" clip-path="url(#p52b0250422)" style="fill: #d8dde5; stroke: #494949; stroke-width: 0.6"/>
   </g>
   <g id="PathCollection_1">
    <path d="M 0 938.5 
C 0.663008 938.5 1.29895 938.236584 1.767767 937.767767 
C 2.236584 937.29895 2.5 936.663008 2.5 936 
C 2.5 935.336992 2.236584 934.70105 1.767767 934.232233 
C 1.29895 933.763416 0.663008 933.5 0 933.5 
C -0.663008 933.5 -1.29895 933.763416 -1.767767 934.232233 
C -2.236584 934.70105 -2.5 935.336992 -2.5 936 
C -2.5 936.663008 -2.236584 937.29895 -1.767767 937.767767 
C -1.29895 938.236584 -0.663008 938.5 0 938.5 
" clip-path="url(#p52b0250422)" style="fill: none; stroke: #737373; stroke-width: 0.8"/>
   </g>
   <g id="PatchCollection_2">
    <path d="M 193.435935 701.577386 
L 193.664679 701.577386 
L 193.664679 701.577386 
L 193.435935 701.577386 
z
" clip-path="url(#p52b0250422)" style="fill: #ece0da; stroke: #494949; stroke-width: 0.6"/>
    <path d="M 193.321564 701.577386 
L 193.77905 701.577386 
L 193.77905 701.577386 
L 193.321564 701.577386 
z
" clip-path="url(#p52b0250422)" style="fill: #eadcd4; stroke: #494949; stroke-width: 0.6"/>
    <path d="M 193.092821 701.577386 
L 194.007793 701.577386 
L 194.007793 701.577386 
L 193.092821 701.577386 
z
" clip-path="url(#p52b0250422)" style="fill: #e8d6cc; stroke: #494949; stroke-width: 0.6"/>
    <path d="M 192.635334 701.577386 
L 194.46528 701.577386 
L 194.46528 701.577386 
L 192.635334 701.577386 
z
" clip-path="url(#p52b0250422)" style="fill: #e6d0c4; stroke: #494949; stroke-width: 0.6"/>
    <path d="M 191.720362 701.577386 
L 195.380252 701.577386 
L 195.380252 701.577386 
L 191.720362 701.577386 
z
" clip-path="url(#p52b0250422)" style="fill: #e3c7b8; stroke: #494949; stroke-width: 0.6"/>
    <path d="M 189.890416 701.577386 
L 197.210198 701.577386 
L 197.210198 701.577386 
L 189.890416 701.577386 
z
" clip-path="url(#p52b0250422)" style="fill: #dfbca9; stroke: #494949; stroke-width: 0.6"/>
    <path d="M 186.230526 701.577386 
L 200.870088 701.577386 
L 200.870088 701.577386 
L 186.230526 701.577386 
z
" clip-path="url(#p52b0250422)" style="fill: #daaf97; stroke: #494949; stroke-width: 0.6"/>
    <path d="M 178.910744 701.577386 
L 208.18987 701.577386 
L 208.18987 701.577386 
L 178.910744 701.577386 
z
" clip-path="url(#p52b0250422)" style="fill: #d39e80; stroke: #494949; stroke-width: 0.6"/>
    <path d="M 164.271181 701.577386 
L 222.829433 701.577386 
L 222.829433 701.577386 
L 164.271181 701.577386 
z
" clip-path="url(#p52b0250422)" style="fill: #cc8963; stroke: #494949; stroke-width: 0.6"/>
    <path d="M 178.910744 701.577386 
L 208.18987 701.577386 
L 208.18987 690.718079 
L 178.910744 690.718079 
z
" clip-path="url(#p52b0250422)" style="fill: #d39e80; stroke: #494949; stroke-width: 0.6"/>
    <path d="M 186.230526 690.718079 
L 200.870088 690.718079 
L 200.870088 668.999464 
L 186.230526 668.999464 
z
" clip-path="url(#p52b0250422)" style="fill: #daaf97; stroke: #494949; stroke-width: 0.6"/>
    <path d="M 189.890416 668.999464 
L 197.210198 668.999464 
L 197.210198 647.280849 
L 189.890416 647.280849 
z
" clip-path="url(#p52b0250422)" style="fill: #dfbca9; stroke: #494949; stroke-width: 0.6"/>
    <path d="M 191.720362 647.280849 
L 195.380252 647.280849 
L 195.380252 614.702927 
L 191.720362 614.702927 
z
" clip-path="url(#p52b0250422)" style="fill: #e3c7b8; stroke: #494949; stroke-width: 0.6"/>
    <path d="M 192.635334 614.702927 
L 194.46528 614.702927 
L 194.46528 592.984312 
L 192.635334 592.984312 
z
" clip-path="url(#p52b0250422)" style="fill: #e6d0c4; stroke: #494949; stroke-width: 0.6"/>
    <path d="M 193.092821 592.984312 
L 194.007793 592.984312 
L 194.007793 549.547082 
L 193.092821 549.547082 
z
" clip-path="url(#p52b0250422)" style="fill: #e8d6cc; stroke: #494949; stroke-width: 0.6"/>
    <path d="M 193.321564 549.547082 
L 193.77905 549.547082 
L 193.77905 501.740677 
L 193.321564 501.740677 
z
" clip-path="url(#p52b0250422)" style="fill: #eadcd4; stroke: #494949; stroke-width: 0.6"/>
    <path d="M 193.435935 501.740677 
L 193.664679 501.740677 
L 193.664679 430.094699 
L 193.435935 430.094699 
z
" clip-path="url(#p52b0250422)" style="fill: #ece0da; stroke: #494949; stroke-width: 0.6"/>
   </g>
   <g id="PathCollection_2">
    <defs>
     <path id="C0_0_7f5acfb54c" d="M 0 2.5 
C 0.663008 2.5 1.29895 2.236584 1.767767 1.767767 
C 2.236584 1.29895 2.5 0.663008 2.5 -0 
C 2.5 -0.663008 2.236584 -1.29895 1.767767 -1.767767 
C 1.29895 -2.236584 0.663008 -2.5 0 -2.5 
C -0.663008 -2.5 -1.29895 -2.236584 -1.767767 -1.767767 
C -2.236584 -1.29895 -2.5 -0.663008 -2.5 0 
C -2.5 0.663008 -2.236584 1.29895 -1.767767 1.767767 
C -1.29895 2.236584 -0.663008 2.5 0 2.5 
z
"/>
    </defs>
    <g clip-path="url(#p52b0250422)">
     <use xlink:href="#C0_0_7f5acfb54c" x="193.550307" y="419.235392" style="fill: none; stroke: #737373; stroke-width: 0.8"/>
    </g>
    <g clip-path="url(#p52b0250422)">
     <use xlink:href="#C0_0_7f5acfb54c" x="193.550307" y="419.235392" style="fill: none; stroke: #737373; stroke-width: 0.8"/>
    </g>
    <g clip-path="url(#p52b0250422)">
     <use xlink:href="#C0_0_7f5acfb54c" x="193.550307" y="419.235392" style="fill: none; stroke: #737373; stroke-width: 0.8"/>
    </g>
    <g clip-path="url(#p52b0250422)">
     <use xlink:href="#C0_0_7f5acfb54c" x="193.550307" y="408.376084" style="fill: none; stroke: #737373; stroke-width: 0.8"/>
    </g>
    <g clip-path="url(#p52b0250422)">
     <use xlink:href="#C0_0_7f5acfb54c" x="193.550307" y="419.235392" style="fill: none; stroke: #737373; stroke-width: 0.8"/>
    </g>
   </g>
   <g id="PatchCollection_3">
    <path d="M 266.63375 701.577386 
L 266.862493 701.577386 
L 266.862493 701.577386 
L 266.63375 701.577386 
z
" clip-path="url(#p52b0250422)" style="fill: #d7e5da; stroke: #494949; stroke-width: 0.6"/>
    <path d="M 266.519379 701.577386 
L 266.976865 701.577386 
L 266.976865 701.577386 
L 266.519379 701.577386 
z
" clip-path="url(#p52b0250422)" style="fill: #d1e1d5; stroke: #494949; stroke-width: 0.6"/>
    <path d="M 266.290635 701.577386 
L 267.205608 701.577386 
L 267.205608 701.577386 
L 266.290635 701.577386 
z
" clip-path="url(#p52b0250422)" style="fill: #caddce; stroke: #494949; stroke-width: 0.6"/>
    <path d="M 265.833149 701.577386 
L 267.663094 701.577386 
L 267.663094 701.577386 
L 265.833149 701.577386 
z
" clip-path="url(#p52b0250422)" style="fill: #c1d7c6; stroke: #494949; stroke-width: 0.6"/>
    <path d="M 264.918176 701.577386 
L 268.578067 701.577386 
L 268.578067 701.577386 
L 264.918176 701.577386 
z
" clip-path="url(#p52b0250422)" style="fill: #b5d1bb; stroke: #494949; stroke-width: 0.6"/>
    <path d="M 263.088231 701.577386 
L 270.408013 701.577386 
L 270.408013 701.577386 
L 263.088231 701.577386 
z
" clip-path="url(#p52b0250422)" style="fill: #a6c8ae; stroke: #494949; stroke-width: 0.6"/>
    <path d="M 259.42834 701.577386 
L 274.067903 701.577386 
L 274.067903 701.577386 
L 259.42834 701.577386 
z
" clip-path="url(#p52b0250422)" style="fill: #94bd9d; stroke: #494949; stroke-width: 0.6"/>
    <path d="M 252.108559 701.577386 
L 281.387685 701.577386 
L 281.387685 701.577386 
L 252.108559 701.577386 
z
" clip-path="url(#p52b0250422)" style="fill: #7caf88; stroke: #494949; stroke-width: 0.6"/>
    <path d="M 237.468996 701.577386 
L 296.027248 701.577386 
L 296.027248 690.718079 
L 237.468996 690.718079 
z
" clip-path="url(#p52b0250422)" style="fill: #5f9e6e; stroke: #494949; stroke-width: 0.6"/>
    <path d="M 252.108559 690.718079 
L 281.387685 690.718079 
L 281.387685 690.718079 
L 252.108559 690.718079 
z
" clip-path="url(#p52b0250422)" style="fill: #7caf88; stroke: #494949; stroke-width: 0.6"/>
    <path d="M 259.42834 690.718079 
L 274.067903 690.718079 
L 274.067903 679.858771 
L 259.42834 679.858771 
z
" clip-path="url(#p52b0250422)" style="fill: #94bd9d; stroke: #494949; stroke-width: 0.6"/>
    <path d="M 263.088231 679.858771 
L 270.408013 679.858771 
L 270.408013 664.248517 
L 263.088231 664.248517 
z
" clip-path="url(#p52b0250422)" style="fill: #a6c8ae; stroke: #494949; stroke-width: 0.6"/>
    <path d="M 264.918176 664.248517 
L 268.578067 664.248517 
L 268.578067 647.280849 
L 264.918176 647.280849 
z
" clip-path="url(#p52b0250422)" style="fill: #b5d1bb; stroke: #494949; stroke-width: 0.6"/>
    <path d="M 265.833149 647.280849 
L 267.663094 647.280849 
L 267.663094 636.421541 
L 265.833149 636.421541 
z
" clip-path="url(#p52b0250422)" style="fill: #c1d7c6; stroke: #494949; stroke-width: 0.6"/>
    <path d="M 266.290635 636.421541 
L 267.205608 636.421541 
L 267.205608 625.562234 
L 266.290635 625.562234 
z
" clip-path="url(#p52b0250422)" style="fill: #caddce; stroke: #494949; stroke-width: 0.6"/>
    <path d="M 266.519379 625.562234 
L 266.976865 625.562234 
L 266.976865 603.843619 
L 266.519379 603.843619 
z
" clip-path="url(#p52b0250422)" style="fill: #d1e1d5; stroke: #494949; stroke-width: 0.6"/>
    <path d="M 266.63375 603.843619 
L 266.862493 603.843619 
L 266.862493 571.265697 
L 266.63375 571.265697 
z
" clip-path="url(#p52b0250422)" style="fill: #d7e5da; stroke: #494949; stroke-width: 0.6"/>
   </g>
   <g id="PathCollection_3">
    <defs>
     <path id="C1_0_bf38ac618d" d="M 0 2.5 
C 0.663008 2.5 1.29895 2.236584 1.767767 1.767767 
C 2.236584 1.29895 2.5 0.663008 2.5 -0 
C 2.5 -0.663008 2.236584 -1.29895 1.767767 -1.767767 
C 1.29895 -2.236584 0.663008 -2.5 0 -2.5 
C -0.663008 -2.5 -1.29895 -2.236584 -1.767767 -1.767767 
C -2.236584 -1.29895 -2.5 -0.663008 -2.5 0 
C -2.5 0.663008 -2.236584 1.29895 -1.767767 1.767767 
C -1.29895 2.236584 -0.663008 2.5 0 2.5 
z
"/>
    </defs>
    <g clip-path="url(#p52b0250422)">
     <use xlink:href="#C1_0_bf38ac618d" x="266.748122" y="560.406389" style="fill: none; stroke: #737373; stroke-width: 0.8"/>
    </g>
    <g clip-path="url(#p52b0250422)">
     <use xlink:href="#C1_0_bf38ac618d" x="266.748122" y="549.547082" style="fill: none; stroke: #737373; stroke-width: 0.8"/>
    </g>
    <g clip-path="url(#p52b0250422)">
     <use xlink:href="#C1_0_bf38ac618d" x="266.748122" y="549.547082" style="fill: none; stroke: #737373; stroke-width: 0.8"/>
    </g>
   </g>
   <g id="PatchCollection_4">
    <path d="M 339.831565 701.577386 
L 340.060308 701.577386 
L 340.060308 701.577386 
L 339.831565 701.577386 
z
" clip-path="url(#p52b0250422)" style="fill: #e8d9da; stroke: #494949; stroke-width: 0.6"/>
    <path d="M 339.717193 701.577386 
L 340.17468 701.577386 
L 340.17468 701.577386 
L 339.717193 701.577386 
z
" clip-path="url(#p52b0250422)" style="fill: #e6d3d4; stroke: #494949; stroke-width: 0.6"/>
    <path d="M 339.48845 701.577386 
L 340.403423 701.577386 
L 340.403423 701.577386 
L 339.48845 701.577386 
z
" clip-path="url(#p52b0250422)" style="fill: #e2cbcc; stroke: #494949; stroke-width: 0.6"/>
    <path d="M 339.030964 701.577386 
L 340.860909 701.577386 
L 340.860909 701.577386 
L 339.030964 701.577386 
z
" clip-path="url(#p52b0250422)" style="fill: #dfc2c3; stroke: #494949; stroke-width: 0.6"/>
    <path d="M 338.115991 701.577386 
L 341.775882 701.577386 
L 341.775882 701.577386 
L 338.115991 701.577386 
z
" clip-path="url(#p52b0250422)" style="fill: #dab6b7; stroke: #494949; stroke-width: 0.6"/>
    <path d="M 336.286046 701.577386 
L 343.605827 701.577386 
L 343.605827 701.577386 
L 336.286046 701.577386 
z
" clip-path="url(#p52b0250422)" style="fill: #d3a6a8; stroke: #494949; stroke-width: 0.6"/>
    <path d="M 332.626155 701.577386 
L 347.265718 701.577386 
L 347.265718 701.577386 
L 332.626155 701.577386 
z
" clip-path="url(#p52b0250422)" style="fill: #cb9395; stroke: #494949; stroke-width: 0.6"/>
    <path d="M 325.306374 701.577386 
L 354.585499 701.577386 
L 354.585499 701.577386 
L 325.306374 701.577386 
z
" clip-path="url(#p52b0250422)" style="fill: #c27b7d; stroke: #494949; stroke-width: 0.6"/>
    <path d="M 310.666811 701.577386 
L 369.225062 701.577386 
L 369.225062 690.718079 
L 310.666811 690.718079 
z
" clip-path="url(#p52b0250422)" style="fill: #b55d60; stroke: #494949; stroke-width: 0.6"/>
    <path d="M 325.306374 690.718079 
L 354.585499 690.718079 
L 354.585499 679.858771 
L 325.306374 679.858771 
z
" clip-path="url(#p52b0250422)" style="fill: #c27b7d; stroke: #494949; stroke-width: 0.6"/>
    <path d="M 332.626155 679.858771 
L 347.265718 679.858771 
L 347.265718 668.999464 
L 332.626155 668.999464 
z
" clip-path="url(#p52b0250422)" style="fill: #cb9395; stroke: #494949; stroke-width: 0.6"/>
    <path d="M 336.286046 668.999464 
L 343.605827 668.999464 
L 343.605827 658.140156 
L 336.286046 658.140156 
z
" clip-path="url(#p52b0250422)" style="fill: #d3a6a8; stroke: #494949; stroke-width: 0.6"/>
    <path d="M 338.115991 658.140156 
L 341.775882 658.140156 
L 341.775882 636.421541 
L 338.115991 636.421541 
z
" clip-path="url(#p52b0250422)" style="fill: #dab6b7; stroke: #494949; stroke-width: 0.6"/>
    <path d="M 339.030964 636.421541 
L 340.860909 636.421541 
L 340.860909 625.562234 
L 339.030964 625.562234 
z
" clip-path="url(#p52b0250422)" style="fill: #dfc2c3; stroke: #494949; stroke-width: 0.6"/>
    <path d="M 339.48845 625.562234 
L 340.403423 625.562234 
L 340.403423 592.984312 
L 339.48845 592.984312 
z
" clip-path="url(#p52b0250422)" style="fill: #e2cbcc; stroke: #494949; stroke-width: 0.6"/>
    <path d="M 339.717193 592.984312 
L 340.17468 592.984312 
L 340.17468 560.406389 
L 339.717193 560.406389 
z
" clip-path="url(#p52b0250422)" style="fill: #e6d3d4; stroke: #494949; stroke-width: 0.6"/>
    <path d="M 339.831565 560.406389 
L 340.060308 560.406389 
L 340.060308 538.687774 
L 339.831565 538.687774 
z
" clip-path="url(#p52b0250422)" style="fill: #e8d9da; stroke: #494949; stroke-width: 0.6"/>
   </g>
   <g id="PathCollection_4">
    <defs>
     <path id="C2_0_c2b9ad68d0" d="M 0 2.5 
C 0.663008 2.5 1.29895 2.236584 1.767767 1.767767 
C 2.236584 1.29895 2.5 0.663008 2.5 -0 
C 2.5 -0.663008 2.236584 -1.29895 1.767767 -1.767767 
C 1.29895 -2.236584 0.663008 -2.5 0 -2.5 
C -0.663008 -2.5 -1.29895 -2.236584 -1.767767 -1.767767 
C -2.236584 -1.29895 -2.5 -0.663008 -2.5 0 
C -2.5 0.663008 -2.236584 1.29895 -1.767767 1.767767 
C -1.29895 2.236584 -0.663008 2.5 0 2.5 
z
"/>
    </defs>
    <g clip-path="url(#p52b0250422)">
     <use xlink:href="#C2_0_c2b9ad68d0" x="339.945937" y="462.672622" style="fill: none; stroke: #737373; stroke-width: 0.8"/>
    </g>
    <g clip-path="url(#p52b0250422)">
     <use xlink:href="#C2_0_c2b9ad68d0" x="339.945937" y="506.109852" style="fill: none; stroke: #737373; stroke-width: 0.8"/>
    </g>
    <g clip-path="url(#p52b0250422)">
     <use xlink:href="#C2_0_c2b9ad68d0" x="339.945937" y="527.828467" style="fill: none; stroke: #737373; stroke-width: 0.8"/>
    </g>
    <g clip-path="url(#p52b0250422)">
     <use xlink:href="#C2_0_c2b9ad68d0" x="339.945937" y="527.828467" style="fill: none; stroke: #737373; stroke-width: 0.8"/>
    </g>
   </g>
   <g id="PatchCollection_5">
    <path d="M 413.02938 701.577386 
L 413.258123 701.577386 
L 413.258123 701.577386 
L 413.02938 701.577386 
z
" clip-path="url(#p52b0250422)" style="fill: #e0dee6; stroke: #494949; stroke-width: 0.6"/>
    <path d="M 412.915008 701.577386 
L 413.372494 701.577386 
L 413.372494 701.577386 
L 412.915008 701.577386 
z
" clip-path="url(#p52b0250422)" style="fill: #dcd9e3; stroke: #494949; stroke-width: 0.6"/>
    <path d="M 412.686265 701.577386 
L 413.601238 701.577386 
L 413.601238 701.577386 
L 412.686265 701.577386 
z
" clip-path="url(#p52b0250422)" style="fill: #d6d3e0; stroke: #494949; stroke-width: 0.6"/>
    <path d="M 412.228779 701.577386 
L 414.058724 701.577386 
L 414.058724 701.577386 
L 412.228779 701.577386 
z
" clip-path="url(#p52b0250422)" style="fill: #cfcbdb; stroke: #494949; stroke-width: 0.6"/>
    <path d="M 411.313806 701.577386 
L 414.973697 701.577386 
L 414.973697 701.577386 
L 411.313806 701.577386 
z
" clip-path="url(#p52b0250422)" style="fill: #c6c2d5; stroke: #494949; stroke-width: 0.6"/>
    <path d="M 409.483861 701.577386 
L 416.803642 701.577386 
L 416.803642 701.577386 
L 409.483861 701.577386 
z
" clip-path="url(#p52b0250422)" style="fill: #bbb5ce; stroke: #494949; stroke-width: 0.6"/>
    <path d="M 405.82397 701.577386 
L 420.463533 701.577386 
L 420.463533 701.577386 
L 405.82397 701.577386 
z
" clip-path="url(#p52b0250422)" style="fill: #ada6c5; stroke: #494949; stroke-width: 0.6"/>
    <path d="M 398.504188 701.577386 
L 427.783314 701.577386 
L 427.783314 701.577386 
L 398.504188 701.577386 
z
" clip-path="url(#p52b0250422)" style="fill: #9b92b9; stroke: #494949; stroke-width: 0.6"/>
    <path d="M 383.864625 701.577386 
L 442.422877 701.577386 
L 442.422877 690.718079 
L 383.864625 690.718079 
z
" clip-path="url(#p52b0250422)" style="fill: #857aab; stroke: #494949; stroke-width: 0.6"/>
    <path d="M 398.504188 690.718079 
L 427.783314 690.718079 
L 427.783314 668.999464 
L 398.504188 668.999464 
z
" clip-path="url(#p52b0250422)" style="fill: #9b92b9; stroke: #494949; stroke-width: 0.6"/>
    <path d="M 405.82397 668.999464 
L 420.463533 668.999464 
L 420.463533 647.280849 
L 405.82397 647.280849 
z
" clip-path="url(#p52b0250422)" style="fill: #ada6c5; stroke: #494949; stroke-width: 0.6"/>
    <path d="M 409.483861 647.280849 
L 416.803642 647.280849 
L 416.803642 614.702927 
L 409.483861 614.702927 
z
" clip-path="url(#p52b0250422)" style="fill: #bbb5ce; stroke: #494949; stroke-width: 0.6"/>
    <path d="M 411.313806 614.702927 
L 414.973697 614.702927 
L 414.973697 592.984312 
L 411.313806 592.984312 
z
" clip-path="url(#p52b0250422)" style="fill: #c6c2d5; stroke: #494949; stroke-width: 0.6"/>
    <path d="M 412.228779 592.984312 
L 414.058724 592.984312 
L 414.058724 571.265697 
L 412.228779 571.265697 
z
" clip-path="url(#p52b0250422)" style="fill: #cfcbdb; stroke: #494949; stroke-width: 0.6"/>
    <path d="M 412.686265 571.265697 
L 413.601238 571.265697 
L 413.601238 540.808733 
L 412.686265 540.808733 
z
" clip-path="url(#p52b0250422)" style="fill: #d6d3e0; stroke: #494949; stroke-width: 0.6"/>
    <path d="M 412.915008 540.808733 
L 413.372494 540.808733 
L 413.372494 512.599985 
L 412.915008 512.599985 
z
" clip-path="url(#p52b0250422)" style="fill: #dcd9e3; stroke: #494949; stroke-width: 0.6"/>
    <path d="M 413.02938 512.599985 
L 413.258123 512.599985 
L 413.258123 506.109852 
L 413.02938 506.109852 
z
" clip-path="url(#p52b0250422)" style="fill: #e0dee6; stroke: #494949; stroke-width: 0.6"/>
   </g>
   <g id="PathCollection_5">
    <defs>
     <path id="C3_0_457adfe569" d="M 0 2.5 
C 0.663008 2.5 1.29895 2.236584 1.767767 1.767767 
C 2.236584 1.29895 2.5 0.663008 2.5 -0 
C 2.5 -0.663008 2.236584 -1.29895 1.767767 -1.767767 
C 1.29895 -2.236584 0.663008 -2.5 0 -2.5 
C -0.663008 -2.5 -1.29895 -2.236584 -1.767767 -1.767767 
C -2.236584 -1.29895 -2.5 -0.663008 -2.5 0 
C -2.5 0.663008 -2.236584 1.29895 -1.767767 1.767767 
C -1.29895 2.236584 -0.663008 2.5 0 2.5 
z
"/>
    </defs>
    <g clip-path="url(#p52b0250422)">
     <use xlink:href="#C3_0_457adfe569" x="413.143751" y="495.250544" style="fill: none; stroke: #737373; stroke-width: 0.8"/>
    </g>
    <g clip-path="url(#p52b0250422)">
     <use xlink:href="#C3_0_457adfe569" x="413.143751" y="375.798162" style="fill: none; stroke: #737373; stroke-width: 0.8"/>
    </g>
    <g clip-path="url(#p52b0250422)">
     <use xlink:href="#C3_0_457adfe569" x="413.143751" y="408.376084" style="fill: none; stroke: #737373; stroke-width: 0.8"/>
    </g>
    <g clip-path="url(#p52b0250422)">
     <use xlink:href="#C3_0_457adfe569" x="413.143751" y="484.391237" style="fill: none; stroke: #737373; stroke-width: 0.8"/>
    </g>
    <g clip-path="url(#p52b0250422)">
     <use xlink:href="#C3_0_457adfe569" x="413.143751" y="495.250544" style="fill: none; stroke: #737373; stroke-width: 0.8"/>
    </g>
   </g>
   <g id="PatchCollection_6">
    <path d="M 486.227195 701.577386 
L 486.455938 701.577386 
L 486.455938 701.577386 
L 486.227195 701.577386 
z
" clip-path="url(#p52b0250422)" style="fill: #e1deda; stroke: #494949; stroke-width: 0.6"/>
    <path d="M 486.112823 701.577386 
L 486.570309 701.577386 
L 486.570309 701.577386 
L 486.112823 701.577386 
z
" clip-path="url(#p52b0250422)" style="fill: #ded9d5; stroke: #494949; stroke-width: 0.6"/>
    <path d="M 485.88408 701.577386 
L 486.799052 701.577386 
L 486.799052 701.577386 
L 485.88408 701.577386 
z
" clip-path="url(#p52b0250422)" style="fill: #d8d2cd; stroke: #494949; stroke-width: 0.6"/>
    <path d="M 485.426593 701.577386 
L 487.256539 701.577386 
L 487.256539 701.577386 
L 485.426593 701.577386 
z
" clip-path="url(#p52b0250422)" style="fill: #d2cbc5; stroke: #494949; stroke-width: 0.6"/>
    <path d="M 484.511621 701.577386 
L 488.171511 701.577386 
L 488.171511 701.577386 
L 484.511621 701.577386 
z
" clip-path="url(#p52b0250422)" style="fill: #c9c1b9; stroke: #494949; stroke-width: 0.6"/>
    <path d="M 482.681675 701.577386 
L 490.001457 701.577386 
L 490.001457 701.577386 
L 482.681675 701.577386 
z
" clip-path="url(#p52b0250422)" style="fill: #bfb4ab; stroke: #494949; stroke-width: 0.6"/>
    <path d="M 479.021785 701.577386 
L 493.661348 701.577386 
L 493.661348 701.577386 
L 479.021785 701.577386 
z
" clip-path="url(#p52b0250422)" style="fill: #b2a599; stroke: #494949; stroke-width: 0.6"/>
    <path d="M 471.702003 701.577386 
L 500.981129 701.577386 
L 500.981129 701.577386 
L 471.702003 701.577386 
z
" clip-path="url(#p52b0250422)" style="fill: #a19182; stroke: #494949; stroke-width: 0.6"/>
    <path d="M 457.06244 701.577386 
L 515.620692 701.577386 
L 515.620692 701.577386 
L 457.06244 701.577386 
z
" clip-path="url(#p52b0250422)" style="fill: #8d7866; stroke: #494949; stroke-width: 0.6"/>
    <path d="M 471.702003 701.577386 
L 500.981129 701.577386 
L 500.981129 690.718079 
L 471.702003 690.718079 
z
" clip-path="url(#p52b0250422)" style="fill: #a19182; stroke: #494949; stroke-width: 0.6"/>
    <path d="M 479.021785 690.718079 
L 493.661348 690.718079 
L 493.661348 679.858771 
L 479.021785 679.858771 
z
" clip-path="url(#p52b0250422)" style="fill: #b2a599; stroke: #494949; stroke-width: 0.6"/>
    <path d="M 482.681675 679.858771 
L 490.001457 679.858771 
L 490.001457 679.858771 
L 482.681675 679.858771 
z
" clip-path="url(#p52b0250422)" style="fill: #bfb4ab; stroke: #494949; stroke-width: 0.6"/>
    <path d="M 484.511621 679.858771 
L 488.171511 679.858771 
L 488.171511 668.999464 
L 484.511621 668.999464 
z
" clip-path="url(#p52b0250422)" style="fill: #c9c1b9; stroke: #494949; stroke-width: 0.6"/>
    <path d="M 485.426593 668.999464 
L 487.256539 668.999464 
L 487.256539 647.280849 
L 485.426593 647.280849 
z
" clip-path="url(#p52b0250422)" style="fill: #d2cbc5; stroke: #494949; stroke-width: 0.6"/>
    <path d="M 485.88408 647.280849 
L 486.799052 647.280849 
L 486.799052 625.562234 
L 485.88408 625.562234 
z
" clip-path="url(#p52b0250422)" style="fill: #d8d2cd; stroke: #494949; stroke-width: 0.6"/>
    <path d="M 486.112823 625.562234 
L 486.570309 625.562234 
L 486.570309 599.474445 
L 486.112823 599.474445 
z
" clip-path="url(#p52b0250422)" style="fill: #ded9d5; stroke: #494949; stroke-width: 0.6"/>
    <path d="M 486.227195 599.474445 
L 486.455938 599.474445 
L 486.455938 574.510763 
L 486.227195 574.510763 
z
" clip-path="url(#p52b0250422)" style="fill: #e1deda; stroke: #494949; stroke-width: 0.6"/>
   </g>
   <g id="PathCollection_6">
    <defs>
     <path id="C4_0_50df324376" d="M 0 2.5 
C 0.663008 2.5 1.29895 2.236584 1.767767 1.767767 
C 2.236584 1.29895 2.5 0.663008 2.5 -0 
C 2.5 -0.663008 2.236584 -1.29895 1.767767 -1.767767 
C 1.29895 -2.236584 0.663008 -2.5 0 -2.5 
C -0.663008 -2.5 -1.29895 -2.236584 -1.767767 -1.767767 
C -2.236584 -1.29895 -2.5 -0.663008 -2.5 0 
C -2.5 0.663008 -2.236584 1.29895 -1.767767 1.767767 
C -1.29895 2.236584 -0.663008 2.5 0 2.5 
z
"/>
    </defs>
    <g clip-path="url(#p52b0250422)">
     <use xlink:href="#C4_0_50df324376" x="486.341566" y="571.265697" style="fill: none; stroke: #737373; stroke-width: 0.8"/>
    </g>
    <g clip-path="url(#p52b0250422)">
     <use xlink:href="#C4_0_50df324376" x="486.341566" y="571.265697" style="fill: none; stroke: #737373; stroke-width: 0.8"/>
    </g>
    <g clip-path="url(#p52b0250422)">
     <use xlink:href="#C4_0_50df324376" x="486.341566" y="560.406389" style="fill: none; stroke: #737373; stroke-width: 0.8"/>
    </g>
    <g clip-path="url(#p52b0250422)">
     <use xlink:href="#C4_0_50df324376" x="486.341566" y="560.406389" style="fill: none; stroke: #737373; stroke-width: 0.8"/>
    </g>
    <g clip-path="url(#p52b0250422)">
     <use xlink:href="#C4_0_50df324376" x="486.341566" y="549.547082" style="fill: none; stroke: #737373; stroke-width: 0.8"/>
    </g>
    <g clip-path="url(#p52b0250422)">
     <use xlink:href="#C4_0_50df324376" x="486.341566" y="549.547082" style="fill: none; stroke: #737373; stroke-width: 0.8"/>
    </g>
   </g>
   <g id="line2d_8">
    <path d="M 91.073366 701.577386 
L 149.631618 701.577386 
" clip-path="url(#p52b0250422)" style="fill: none; stroke: #494949; stroke-width: 0.75"/>
   </g>
   <g id="line2d_9">
    <path d="M 164.271181 701.577386 
L 222.829433 701.577386 
" clip-path="url(#p52b0250422)" style="fill: none; stroke: #494949; stroke-width: 0.75"/>
   </g>
   <g id="line2d_10">
    <path d="M 237.468996 701.577386 
L 296.027248 701.577386 
" clip-path="url(#p52b0250422)" style="fill: none; stroke: #494949; stroke-width: 0.75"/>
   </g>
   <g id="line2d_11">
    <path d="M 310.666811 701.577386 
L 369.225062 701.577386 
" clip-path="url(#p52b0250422)" style="fill: none; stroke: #494949; stroke-width: 0.75"/>
   </g>
   <g id="line2d_12">
    <path d="M 383.864625 701.577386 
L 442.422877 701.577386 
" clip-path="url(#p52b0250422)" style="fill: none; stroke: #494949; stroke-width: 0.75"/>
   </g>
   <g id="line2d_13">
    <path d="M 457.06244 701.577386 
L 515.620692 701.577386 
" clip-path="url(#p52b0250422)" style="fill: none; stroke: #494949; stroke-width: 0.75"/>
   </g>
   <g id="line2d_14">
    <path d="M 120.352492 386.874655 
L 120.352492 379.707513 
L 193.550307 379.707513 
L 193.550307 386.874655 
" style="fill: none; stroke: #333333; stroke-width: 1.5; stroke-linecap: round"/>
   </g>
   <g id="line2d_15">
    <path d="M 193.550307 361.529111 
L 193.550307 354.361968 
L 266.748122 354.361968 
L 266.748122 361.529111 
" style="fill: none; stroke: #333333; stroke-width: 1.5; stroke-linecap: round"/>
   </g>
   <g id="line2d_16">
    <path d="M 266.748122 336.183567 
L 266.748122 329.016424 
L 339.945937 329.016424 
L 339.945937 336.183567 
" style="fill: none; stroke: #333333; stroke-width: 1.5; stroke-linecap: round"/>
   </g>
   <g id="line2d_17">
    <path d="M 339.945937 310.838023 
L 339.945937 303.67088 
L 413.143751 303.67088 
L 413.143751 310.838023 
" style="fill: none; stroke: #333333; stroke-width: 1.5; stroke-linecap: round"/>
   </g>
   <g id="line2d_18">
    <path d="M 413.143751 285.492479 
L 413.143751 278.325336 
L 486.341566 278.325336 
L 486.341566 285.492479 
" style="fill: none; stroke: #333333; stroke-width: 1.5; stroke-linecap: round"/>
   </g>
   <g id="line2d_19">
    <path d="M 120.352492 310.838023 
L 120.352492 303.67088 
L 266.748122 303.67088 
L 266.748122 310.838023 
" style="fill: none; stroke: #333333; stroke-width: 1.5; stroke-linecap: round"/>
   </g>
   <g id="line2d_20">
    <path d="M 193.550307 285.492479 
L 193.550307 278.325336 
L 339.945937 278.325336 
L 339.945937 285.492479 
" style="fill: none; stroke: #333333; stroke-width: 1.5; stroke-linecap: round"/>
   </g>
   <g id="line2d_21">
    <path d="M 266.748122 260.146935 
L 266.748122 252.979792 
L 413.143751 252.979792 
L 413.143751 260.146935 
" style="fill: none; stroke: #333333; stroke-width: 1.5; stroke-linecap: round"/>
   </g>
   <g id="line2d_22">
    <path d="M 339.945937 234.801391 
L 339.945937 227.634248 
L 486.341566 227.634248 
L 486.341566 234.801391 
" style="fill: none; stroke: #333333; stroke-width: 1.5; stroke-linecap: round"/>
   </g>
   <g id="line2d_23">
    <path d="M 120.352492 209.455847 
L 120.352492 202.288704 
L 339.945937 202.288704 
L 339.945937 209.455847 
" style="fill: none; stroke: #333333; stroke-width: 1.5; stroke-linecap: round"/>
   </g>
   <g id="line2d_24">
    <path d="M 193.550307 184.110303 
L 193.550307 176.94316 
L 413.143751 176.94316 
L 413.143751 184.110303 
" style="fill: none; stroke: #333333; stroke-width: 1.5; stroke-linecap: round"/>
   </g>
   <g id="line2d_25">
    <path d="M 266.748122 158.764758 
L 266.748122 151.597616 
L 486.341566 151.597616 
L 486.341566 158.764758 
" style="fill: none; stroke: #333333; stroke-width: 1.5; stroke-linecap: round"/>
   </g>
   <g id="line2d_26">
    <path d="M 120.352492 133.419214 
L 120.352492 126.252071 
L 413.143751 126.252071 
L 413.143751 133.419214 
" style="fill: none; stroke: #333333; stroke-width: 1.5; stroke-linecap: round"/>
   </g>
   <g id="line2d_27">
    <path d="M 193.550307 108.07367 
L 193.550307 100.906527 
L 486.341566 100.906527 
L 486.341566 108.07367 
" style="fill: none; stroke: #333333; stroke-width: 1.5; stroke-linecap: round"/>
   </g>
   <g id="line2d_28">
    <path d="M 120.352492 82.728126 
L 120.352492 75.560983 
L 486.341566 75.560983 
L 486.341566 82.728126 
" style="fill: none; stroke: #333333; stroke-width: 1.5; stroke-linecap: round"/>
   </g>
   <g id="patch_3">
    <path d="M 69.846 717.866348 
L 69.846 40.416 
" style="fill: none; stroke: #cccccc; stroke-linejoin: miter; stroke-linecap: square"/>
   </g>
   <g id="patch_4">
    <path d="M 536.848058 717.866348 
L 536.848058 40.416 
" style="fill: none; stroke: #cccccc; stroke-linejoin: miter; stroke-linecap: square"/>
   </g>
   <g id="patch_5">
    <path d="M 69.846 717.866348 
L 536.848058 717.866348 
" style="fill: none; stroke: #cccccc; stroke-linejoin: miter; stroke-linecap: square"/>
   </g>
   <g id="patch_6">
    <path d="M 69.846 40.416 
L 536.848058 40.416 
" style="fill: none; stroke: #cccccc; stroke-linejoin: miter; stroke-linecap: square"/>
   </g>
   <g id="text_16">
    <!-- **** -->
    <g style="fill: #262626" transform="translate(142.0054 374.891513) scale(0.192 -0.192)">
     <defs>
      <path id="ArialMT-2a" d="M 200 3741 
L 344 4184 
Q 841 4009 1066 3881 
Q 1006 4447 1003 4659 
L 1456 4659 
Q 1447 4350 1384 3884 
Q 1706 4047 2122 4184 
L 2266 3741 
Q 1869 3609 1488 3566 
Q 1678 3400 2025 2975 
L 1650 2709 
Q 1469 2956 1222 3381 
Q 991 2941 816 2709 
L 447 2975 
Q 809 3422 966 3566 
Q 563 3644 200 3741 
z
" transform="scale(0.015625)"/>
     </defs>
     <use xlink:href="#ArialMT-2a"/>
     <use xlink:href="#ArialMT-2a" transform="translate(38.916016 0)"/>
     <use xlink:href="#ArialMT-2a" transform="translate(77.832031 0)"/>
     <use xlink:href="#ArialMT-2a" transform="translate(116.748047 0)"/>
    </g>
   </g>
   <g id="text_17">
    <!-- **** -->
    <g style="fill: #262626" transform="translate(215.203214 349.545968) scale(0.192 -0.192)">
     <use xlink:href="#ArialMT-2a"/>
     <use xlink:href="#ArialMT-2a" transform="translate(38.916016 0)"/>
     <use xlink:href="#ArialMT-2a" transform="translate(77.832031 0)"/>
     <use xlink:href="#ArialMT-2a" transform="translate(116.748047 0)"/>
    </g>
   </g>
   <g id="text_18">
    <!-- *** -->
    <g style="fill: #262626" transform="translate(292.137529 324.200424) scale(0.192 -0.192)">
     <use xlink:href="#ArialMT-2a"/>
     <use xlink:href="#ArialMT-2a" transform="translate(38.916016 0)"/>
     <use xlink:href="#ArialMT-2a" transform="translate(77.832031 0)"/>
    </g>
   </g>
   <g id="text_19">
    <!-- **** -->
    <g style="fill: #262626" transform="translate(361.598844 298.85488) scale(0.192 -0.192)">
     <use xlink:href="#ArialMT-2a"/>
     <use xlink:href="#ArialMT-2a" transform="translate(38.916016 0)"/>
     <use xlink:href="#ArialMT-2a" transform="translate(77.832031 0)"/>
     <use xlink:href="#ArialMT-2a" transform="translate(116.748047 0)"/>
    </g>
   </g>
   <g id="text_20">
    <!-- **** -->
    <g style="fill: #262626" transform="translate(434.796659 273.509336) scale(0.192 -0.192)">
     <use xlink:href="#ArialMT-2a"/>
     <use xlink:href="#ArialMT-2a" transform="translate(38.916016 0)"/>
     <use xlink:href="#ArialMT-2a" transform="translate(77.832031 0)"/>
     <use xlink:href="#ArialMT-2a" transform="translate(116.748047 0)"/>
    </g>
   </g>
   <g id="text_21">
    <!-- **** -->
    <g style="fill: #262626" transform="translate(178.604307 298.85488) scale(0.192 -0.192)">
     <use xlink:href="#ArialMT-2a"/>
     <use xlink:href="#ArialMT-2a" transform="translate(38.916016 0)"/>
     <use xlink:href="#ArialMT-2a" transform="translate(77.832031 0)"/>
     <use xlink:href="#ArialMT-2a" transform="translate(116.748047 0)"/>
    </g>
   </g>
   <g id="text_22">
    <!-- **** -->
    <g style="fill: #262626" transform="translate(251.802122 273.509336) scale(0.192 -0.192)">
     <use xlink:href="#ArialMT-2a"/>
     <use xlink:href="#ArialMT-2a" transform="translate(38.916016 0)"/>
     <use xlink:href="#ArialMT-2a" transform="translate(77.832031 0)"/>
     <use xlink:href="#ArialMT-2a" transform="translate(116.748047 0)"/>
    </g>
   </g>
   <g id="text_23">
    <!-- **** -->
    <g style="fill: #262626" transform="translate(324.999937 248.163792) scale(0.192 -0.192)">
     <use xlink:href="#ArialMT-2a"/>
     <use xlink:href="#ArialMT-2a" transform="translate(38.916016 0)"/>
     <use xlink:href="#ArialMT-2a" transform="translate(77.832031 0)"/>
     <use xlink:href="#ArialMT-2a" transform="translate(116.748047 0)"/>
    </g>
   </g>
   <g id="text_24">
    <!-- **** -->
    <g style="fill: #262626" transform="translate(398.197751 222.818248) scale(0.192 -0.192)">
     <use xlink:href="#ArialMT-2a"/>
     <use xlink:href="#ArialMT-2a" transform="translate(38.916016 0)"/>
     <use xlink:href="#ArialMT-2a" transform="translate(77.832031 0)"/>
     <use xlink:href="#ArialMT-2a" transform="translate(116.748047 0)"/>
    </g>
   </g>
   <g id="text_25">
    <!-- **** -->
    <g style="fill: #262626" transform="translate(215.203214 197.472704) scale(0.192 -0.192)">
     <use xlink:href="#ArialMT-2a"/>
     <use xlink:href="#ArialMT-2a" transform="translate(38.916016 0)"/>
     <use xlink:href="#ArialMT-2a" transform="translate(77.832031 0)"/>
     <use xlink:href="#ArialMT-2a" transform="translate(116.748047 0)"/>
    </g>
   </g>
   <g id="text_26">
    <!-- **** -->
    <g style="fill: #262626" transform="translate(288.401029 172.12716) scale(0.192 -0.192)">
     <use xlink:href="#ArialMT-2a"/>
     <use xlink:href="#ArialMT-2a" transform="translate(38.916016 0)"/>
     <use xlink:href="#ArialMT-2a" transform="translate(77.832031 0)"/>
     <use xlink:href="#ArialMT-2a" transform="translate(116.748047 0)"/>
    </g>
   </g>
   <g id="text_27">
    <!-- **** -->
    <g style="fill: #262626" transform="translate(361.598844 146.781616) scale(0.192 -0.192)">
     <use xlink:href="#ArialMT-2a"/>
     <use xlink:href="#ArialMT-2a" transform="translate(38.916016 0)"/>
     <use xlink:href="#ArialMT-2a" transform="translate(77.832031 0)"/>
     <use xlink:href="#ArialMT-2a" transform="translate(116.748047 0)"/>
    </g>
   </g>
   <g id="text_28">
    <!-- **** -->
    <g style="fill: #262626" transform="translate(251.802122 121.436071) scale(0.192 -0.192)">
     <use xlink:href="#ArialMT-2a"/>
     <use xlink:href="#ArialMT-2a" transform="translate(38.916016 0)"/>
     <use xlink:href="#ArialMT-2a" transform="translate(77.832031 0)"/>
     <use xlink:href="#ArialMT-2a" transform="translate(116.748047 0)"/>
    </g>
   </g>
   <g id="text_29">
    <!-- **** -->
    <g style="fill: #262626" transform="translate(324.999937 96.090527) scale(0.192 -0.192)">
     <use xlink:href="#ArialMT-2a"/>
     <use xlink:href="#ArialMT-2a" transform="translate(38.916016 0)"/>
     <use xlink:href="#ArialMT-2a" transform="translate(77.832031 0)"/>
     <use xlink:href="#ArialMT-2a" transform="translate(116.748047 0)"/>
    </g>
   </g>
   <g id="text_30">
    <!-- **** -->
    <g style="fill: #262626" transform="translate(288.401029 70.744983) scale(0.192 -0.192)">
     <use xlink:href="#ArialMT-2a"/>
     <use xlink:href="#ArialMT-2a" transform="translate(38.916016 0)"/>
     <use xlink:href="#ArialMT-2a" transform="translate(77.832031 0)"/>
     <use xlink:href="#ArialMT-2a" transform="translate(116.748047 0)"/>
    </g>
   </g>
   <g id="text_31">
    <!-- Ranked Number of Novel Discovery compounds within +/-0.5 log units of true pIC50  per Fold per Target -->
    <g style="fill: #262626" transform="translate(-139.068971 34.416) scale(0.192 -0.192)">
     <defs>
      <path id="ArialMT-6b" d="M 425 0 
L 425 4581 
L 988 4581 
L 988 1969 
L 2319 3319 
L 3047 3319 
L 1778 2088 
L 3175 0 
L 2481 0 
L 1384 1697 
L 988 1316 
L 988 0 
L 425 0 
z
" transform="scale(0.015625)"/>
      <path id="ArialMT-4e" d="M 488 0 
L 488 4581 
L 1109 4581 
L 3516 984 
L 3516 4581 
L 4097 4581 
L 4097 0 
L 3475 0 
L 1069 3600 
L 1069 0 
L 488 0 
z
" transform="scale(0.015625)"/>
      <path id="ArialMT-2b" d="M 1603 741 
L 1603 1997 
L 356 1997 
L 356 2522 
L 1603 2522 
L 1603 3769 
L 2134 3769 
L 2134 2522 
L 3381 2522 
L 3381 1997 
L 2134 1997 
L 2134 741 
L 1603 741 
z
" transform="scale(0.015625)"/>
      <path id="ArialMT-2f" d="M 0 -78 
L 1328 4659 
L 1778 4659 
L 453 -78 
L 0 -78 
z
" transform="scale(0.015625)"/>
      <path id="ArialMT-2d" d="M 203 1375 
L 203 1941 
L 1931 1941 
L 1931 1375 
L 203 1375 
z
" transform="scale(0.015625)"/>
      <path id="ArialMT-2e" d="M 581 0 
L 581 641 
L 1222 641 
L 1222 0 
L 581 0 
z
" transform="scale(0.015625)"/>
      <path id="ArialMT-49" d="M 597 0 
L 597 4581 
L 1203 4581 
L 1203 0 
L 597 0 
z
" transform="scale(0.015625)"/>
      <path id="ArialMT-54" d="M 1659 0 
L 1659 4041 
L 150 4041 
L 150 4581 
L 3781 4581 
L 3781 4041 
L 2266 4041 
L 2266 0 
L 1659 0 
z
" transform="scale(0.015625)"/>
     </defs>
     <use xlink:href="#ArialMT-52"/>
     <use xlink:href="#ArialMT-61" transform="translate(72.216797 0)"/>
     <use xlink:href="#ArialMT-6e" transform="translate(127.832031 0)"/>
     <use xlink:href="#ArialMT-6b" transform="translate(183.447266 0)"/>
     <use xlink:href="#ArialMT-65" transform="translate(233.447266 0)"/>
     <use xlink:href="#ArialMT-64" transform="translate(289.0625 0)"/>
     <use xlink:href="#ArialMT-20" transform="translate(344.677734 0)"/>
     <use xlink:href="#ArialMT-4e" transform="translate(372.460938 0)"/>
     <use xlink:href="#ArialMT-75" transform="translate(444.677734 0)"/>
     <use xlink:href="#ArialMT-6d" transform="translate(500.292969 0)"/>
     <use xlink:href="#ArialMT-62" transform="translate(583.59375 0)"/>
     <use xlink:href="#ArialMT-65" transform="translate(639.208984 0)"/>
     <use xlink:href="#ArialMT-72" transform="translate(694.824219 0)"/>
     <use xlink:href="#ArialMT-20" transform="translate(728.125 0)"/>
     <use xlink:href="#ArialMT-6f" transform="translate(755.908203 0)"/>
     <use xlink:href="#ArialMT-66" transform="translate(811.523438 0)"/>
     <use xlink:href="#ArialMT-20" transform="translate(839.306641 0)"/>
     <use xlink:href="#ArialMT-4e" transform="translate(867.089844 0)"/>
     <use xlink:href="#ArialMT-6f" transform="translate(939.306641 0)"/>
     <use xlink:href="#ArialMT-76" transform="translate(994.921875 0)"/>
     <use xlink:href="#ArialMT-65" transform="translate(1044.921875 0)"/>
     <use xlink:href="#ArialMT-6c" transform="translate(1100.537109 0)"/>
     <use xlink:href="#ArialMT-20" transform="translate(1122.753906 0)"/>
     <use xlink:href="#ArialMT-44" transform="translate(1150.537109 0)"/>
     <use xlink:href="#ArialMT-69" transform="translate(1222.753906 0)"/>
     <use xlink:href="#ArialMT-73" transform="translate(1244.970703 0)"/>
     <use xlink:href="#ArialMT-63" transform="translate(1294.970703 0)"/>
     <use xlink:href="#ArialMT-6f" transform="translate(1344.970703 0)"/>
     <use xlink:href="#ArialMT-76" transform="translate(1400.585938 0)"/>
     <use xlink:href="#ArialMT-65" transform="translate(1450.585938 0)"/>
     <use xlink:href="#ArialMT-72" transform="translate(1506.201172 0)"/>
     <use xlink:href="#ArialMT-79" transform="translate(1539.501953 0)"/>
     <use xlink:href="#ArialMT-20" transform="translate(1589.501953 0)"/>
     <use xlink:href="#ArialMT-63" transform="translate(1617.285156 0)"/>
     <use xlink:href="#ArialMT-6f" transform="translate(1667.285156 0)"/>
     <use xlink:href="#ArialMT-6d" transform="translate(1722.900391 0)"/>
     <use xlink:href="#ArialMT-70" transform="translate(1806.201172 0)"/>
     <use xlink:href="#ArialMT-6f" transform="translate(1861.816406 0)"/>
     <use xlink:href="#ArialMT-75" transform="translate(1917.431641 0)"/>
     <use xlink:href="#ArialMT-6e" transform="translate(1973.046875 0)"/>
     <use xlink:href="#ArialMT-64" transform="translate(2028.662109 0)"/>
     <use xlink:href="#ArialMT-73" transform="translate(2084.277344 0)"/>
     <use xlink:href="#ArialMT-20" transform="translate(2134.277344 0)"/>
     <use xlink:href="#ArialMT-77" transform="translate(2162.060547 0)"/>
     <use xlink:href="#ArialMT-69" transform="translate(2234.277344 0)"/>
     <use xlink:href="#ArialMT-74" transform="translate(2256.494141 0)"/>
     <use xlink:href="#ArialMT-68" transform="translate(2284.277344 0)"/>
     <use xlink:href="#ArialMT-69" transform="translate(2339.892578 0)"/>
     <use xlink:href="#ArialMT-6e" transform="translate(2362.109375 0)"/>
     <use xlink:href="#ArialMT-20" transform="translate(2417.724609 0)"/>
     <use xlink:href="#ArialMT-2b" transform="translate(2445.507812 0)"/>
     <use xlink:href="#ArialMT-2f" transform="translate(2503.90625 0)"/>
     <use xlink:href="#ArialMT-2d" transform="translate(2531.689453 0)"/>
     <use xlink:href="#ArialMT-30" transform="translate(2564.990234 0)"/>
     <use xlink:href="#ArialMT-2e" transform="translate(2620.605469 0)"/>
     <use xlink:href="#ArialMT-35" transform="translate(2648.388672 0)"/>
     <use xlink:href="#ArialMT-20" transform="translate(2704.003906 0)"/>
     <use xlink:href="#ArialMT-6c" transform="translate(2731.787109 0)"/>
     <use xlink:href="#ArialMT-6f" transform="translate(2754.003906 0)"/>
     <use xlink:href="#ArialMT-67" transform="translate(2809.619141 0)"/>
     <use xlink:href="#ArialMT-20" transform="translate(2865.234375 0)"/>
     <use xlink:href="#ArialMT-75" transform="translate(2893.017578 0)"/>
     <use xlink:href="#ArialMT-6e" transform="translate(2948.632812 0)"/>
     <use xlink:href="#ArialMT-69" transform="translate(3004.248047 0)"/>
     <use xlink:href="#ArialMT-74" transform="translate(3026.464844 0)"/>
     <use xlink:href="#ArialMT-73" transform="translate(3054.248047 0)"/>
     <use xlink:href="#ArialMT-20" transform="translate(3104.248047 0)"/>
     <use xlink:href="#ArialMT-6f" transform="translate(3132.03125 0)"/>
     <use xlink:href="#ArialMT-66" transform="translate(3187.646484 0)"/>
     <use xlink:href="#ArialMT-20" transform="translate(3215.429688 0)"/>
     <use xlink:href="#ArialMT-74" transform="translate(3243.212891 0)"/>
     <use xlink:href="#ArialMT-72" transform="translate(3270.996094 0)"/>
     <use xlink:href="#ArialMT-75" transform="translate(3304.296875 0)"/>
     <use xlink:href="#ArialMT-65" transform="translate(3359.912109 0)"/>
     <use xlink:href="#ArialMT-20" transform="translate(3415.527344 0)"/>
     <use xlink:href="#ArialMT-70" transform="translate(3443.310547 0)"/>
     <use xlink:href="#ArialMT-49" transform="translate(3498.925781 0)"/>
     <use xlink:href="#ArialMT-43" transform="translate(3526.708984 0)"/>
     <use xlink:href="#ArialMT-35" transform="translate(3598.925781 0)"/>
     <use xlink:href="#ArialMT-30" transform="translate(3654.541016 0)"/>
     <use xlink:href="#ArialMT-20" transform="translate(3710.15625 0)"/>
     <use xlink:href="#ArialMT-20" transform="translate(3737.939453 0)"/>
     <use xlink:href="#ArialMT-70" transform="translate(3765.722656 0)"/>
     <use xlink:href="#ArialMT-65" transform="translate(3821.337891 0)"/>
     <use xlink:href="#ArialMT-72" transform="translate(3876.953125 0)"/>
     <use xlink:href="#ArialMT-20" transform="translate(3910.253906 0)"/>
     <use xlink:href="#ArialMT-46" transform="translate(3938.037109 0)"/>
     <use xlink:href="#ArialMT-6f" transform="translate(3999.121094 0)"/>
     <use xlink:href="#ArialMT-6c" transform="translate(4054.736328 0)"/>
     <use xlink:href="#ArialMT-64" transform="translate(4076.953125 0)"/>
     <use xlink:href="#ArialMT-20" transform="translate(4132.568359 0)"/>
     <use xlink:href="#ArialMT-70" transform="translate(4160.351562 0)"/>
     <use xlink:href="#ArialMT-65" transform="translate(4215.966797 0)"/>
     <use xlink:href="#ArialMT-72" transform="translate(4271.582031 0)"/>
     <use xlink:href="#ArialMT-20" transform="translate(4304.882812 0)"/>
     <use xlink:href="#ArialMT-54" transform="translate(4330.916016 0)"/>
     <use xlink:href="#ArialMT-61" transform="translate(4380.875 0)"/>
     <use xlink:href="#ArialMT-72" transform="translate(4436.490234 0)"/>
     <use xlink:href="#ArialMT-67" transform="translate(4469.791016 0)"/>
     <use xlink:href="#ArialMT-65" transform="translate(4525.40625 0)"/>
     <use xlink:href="#ArialMT-74" transform="translate(4581.021484 0)"/>
    </g>
   </g>
  </g>
 </g>
 <defs>
  <clipPath id="p52b0250422">
   <rect x="69.846" y="40.416" width="467.002058" height="677.450348"/>
  </clipPath>
 </defs>
</svg>
