<?xml version="1.0" encoding="utf-8" standalone="no"?>
<!DOCTYPE svg PUBLIC "-//W3C//DTD SVG 1.1//EN"
  "http://www.w3.org/Graphics/SVG/1.1/DTD/svg11.dtd">
<svg xmlns:xlink="http://www.w3.org/1999/xlink" width="720pt" height="864pt" viewBox="0 0 720 864" xmlns="http://www.w3.org/2000/svg" version="1.1">
 <metadata>
  <rdf:RDF xmlns:dc="http://purl.org/dc/elements/1.1/" xmlns:cc="http://creativecommons.org/ns#" xmlns:rdf="http://www.w3.org/1999/02/22-rdf-syntax-ns#">
   <cc:Work>
    <dc:type rdf:resource="http://purl.org/dc/dcmitype/StillImage"/>
    <dc:date>2025-02-25T23:42:52.737195</dc:date>
    <dc:format>image/svg+xml</dc:format>
    <dc:creator>
     <cc:Agent>
      <dc:title>Matplotlib v3.10.0, https://matplotlib.org/</dc:title>
     </cc:Agent>
    </dc:creator>
   </cc:Work>
  </rdf:RDF>
 </metadata>
 <defs>
  <style type="text/css">*{stroke-linejoin: round; stroke-linecap: butt}</style>
 </defs>
 <g id="figure_1">
  <g id="patch_1">
   <path d="M 0 864 
L 720 864 
L 720 0 
L 0 0 
z
" style="fill: #ffffff"/>
  </g>
  <g id="axes_1">
   <g id="patch_2">
    <path d="M 79.566 645.866348 
L 692.917651 645.866348 
L 692.917651 40.416 
L 79.566 40.416 
z
" style="fill: #ffffff"/>
   </g>
   <g id="matplotlib.axis_1">
    <g id="xtick_1">
     <g id="text_1">
      <!-- RandomSplit -->
      <g style="fill: #262626" transform="translate(113.570287 734.472111) rotate(-45) scale(0.176 -0.176)">
       <defs>
        <path id="ArialMT-52" d="M 503 0 
L 503 4581 
L 2534 4581 
Q 3147 4581 3465 4457 
Q 3784 4334 3975 4021 
Q 4166 3709 4166 3331 
Q 4166 2844 3850 2509 
Q 3534 2175 2875 2084 
Q 3116 1969 3241 1856 
Q 3506 1613 3744 1247 
L 4541 0 
L 3778 0 
L 3172 953 
Q 2906 1366 2734 1584 
Q 2563 1803 2427 1890 
Q 2291 1978 2150 2013 
Q 2047 2034 1813 2034 
L 1109 2034 
L 1109 0 
L 503 0 
z
M 1109 2559 
L 2413 2559 
Q 2828 2559 3062 2645 
Q 3297 2731 3419 2920 
Q 3541 3109 3541 3331 
Q 3541 3656 3305 3865 
Q 3069 4075 2559 4075 
L 1109 4075 
L 1109 2559 
z
" transform="scale(0.015625)"/>
        <path id="ArialMT-61" d="M 2588 409 
Q 2275 144 1986 34 
Q 1697 -75 1366 -75 
Q 819 -75 525 192 
Q 231 459 231 875 
Q 231 1119 342 1320 
Q 453 1522 633 1644 
Q 813 1766 1038 1828 
Q 1203 1872 1538 1913 
Q 2219 1994 2541 2106 
Q 2544 2222 2544 2253 
Q 2544 2597 2384 2738 
Q 2169 2928 1744 2928 
Q 1347 2928 1158 2789 
Q 969 2650 878 2297 
L 328 2372 
Q 403 2725 575 2942 
Q 747 3159 1072 3276 
Q 1397 3394 1825 3394 
Q 2250 3394 2515 3294 
Q 2781 3194 2906 3042 
Q 3031 2891 3081 2659 
Q 3109 2516 3109 2141 
L 3109 1391 
Q 3109 606 3145 398 
Q 3181 191 3288 0 
L 2700 0 
Q 2613 175 2588 409 
z
M 2541 1666 
Q 2234 1541 1622 1453 
Q 1275 1403 1131 1340 
Q 988 1278 909 1158 
Q 831 1038 831 891 
Q 831 666 1001 516 
Q 1172 366 1500 366 
Q 1825 366 2078 508 
Q 2331 650 2450 897 
Q 2541 1088 2541 1459 
L 2541 1666 
z
" transform="scale(0.015625)"/>
        <path id="ArialMT-6e" d="M 422 0 
L 422 3319 
L 928 3319 
L 928 2847 
Q 1294 3394 1984 3394 
Q 2284 3394 2536 3286 
Q 2788 3178 2913 3003 
Q 3038 2828 3088 2588 
Q 3119 2431 3119 2041 
L 3119 0 
L 2556 0 
L 2556 2019 
Q 2556 2363 2490 2533 
Q 2425 2703 2258 2804 
Q 2091 2906 1866 2906 
Q 1506 2906 1245 2678 
Q 984 2450 984 1813 
L 984 0 
L 422 0 
z
" transform="scale(0.015625)"/>
        <path id="ArialMT-64" d="M 2575 0 
L 2575 419 
Q 2259 -75 1647 -75 
Q 1250 -75 917 144 
Q 584 363 401 755 
Q 219 1147 219 1656 
Q 219 2153 384 2558 
Q 550 2963 881 3178 
Q 1213 3394 1622 3394 
Q 1922 3394 2156 3267 
Q 2391 3141 2538 2938 
L 2538 4581 
L 3097 4581 
L 3097 0 
L 2575 0 
z
M 797 1656 
Q 797 1019 1065 703 
Q 1334 388 1700 388 
Q 2069 388 2326 689 
Q 2584 991 2584 1609 
Q 2584 2291 2321 2609 
Q 2059 2928 1675 2928 
Q 1300 2928 1048 2622 
Q 797 2316 797 1656 
z
" transform="scale(0.015625)"/>
        <path id="ArialMT-6f" d="M 213 1659 
Q 213 2581 725 3025 
Q 1153 3394 1769 3394 
Q 2453 3394 2887 2945 
Q 3322 2497 3322 1706 
Q 3322 1066 3130 698 
Q 2938 331 2570 128 
Q 2203 -75 1769 -75 
Q 1072 -75 642 372 
Q 213 819 213 1659 
z
M 791 1659 
Q 791 1022 1069 705 
Q 1347 388 1769 388 
Q 2188 388 2466 706 
Q 2744 1025 2744 1678 
Q 2744 2294 2464 2611 
Q 2184 2928 1769 2928 
Q 1347 2928 1069 2612 
Q 791 2297 791 1659 
z
" transform="scale(0.015625)"/>
        <path id="ArialMT-6d" d="M 422 0 
L 422 3319 
L 925 3319 
L 925 2853 
Q 1081 3097 1340 3245 
Q 1600 3394 1931 3394 
Q 2300 3394 2536 3241 
Q 2772 3088 2869 2813 
Q 3263 3394 3894 3394 
Q 4388 3394 4653 3120 
Q 4919 2847 4919 2278 
L 4919 0 
L 4359 0 
L 4359 2091 
Q 4359 2428 4304 2576 
Q 4250 2725 4106 2815 
Q 3963 2906 3769 2906 
Q 3419 2906 3187 2673 
Q 2956 2441 2956 1928 
L 2956 0 
L 2394 0 
L 2394 2156 
Q 2394 2531 2256 2718 
Q 2119 2906 1806 2906 
Q 1569 2906 1367 2781 
Q 1166 2656 1075 2415 
Q 984 2175 984 1722 
L 984 0 
L 422 0 
z
" transform="scale(0.015625)"/>
        <path id="ArialMT-53" d="M 288 1472 
L 859 1522 
Q 900 1178 1048 958 
Q 1197 738 1509 602 
Q 1822 466 2213 466 
Q 2559 466 2825 569 
Q 3091 672 3220 851 
Q 3350 1031 3350 1244 
Q 3350 1459 3225 1620 
Q 3100 1781 2813 1891 
Q 2628 1963 1997 2114 
Q 1366 2266 1113 2400 
Q 784 2572 623 2826 
Q 463 3081 463 3397 
Q 463 3744 659 4045 
Q 856 4347 1234 4503 
Q 1613 4659 2075 4659 
Q 2584 4659 2973 4495 
Q 3363 4331 3572 4012 
Q 3781 3694 3797 3291 
L 3216 3247 
Q 3169 3681 2898 3903 
Q 2628 4125 2100 4125 
Q 1550 4125 1298 3923 
Q 1047 3722 1047 3438 
Q 1047 3191 1225 3031 
Q 1400 2872 2139 2705 
Q 2878 2538 3153 2413 
Q 3553 2228 3743 1945 
Q 3934 1663 3934 1294 
Q 3934 928 3725 604 
Q 3516 281 3123 101 
Q 2731 -78 2241 -78 
Q 1619 -78 1198 103 
Q 778 284 539 648 
Q 300 1013 288 1472 
z
" transform="scale(0.015625)"/>
        <path id="ArialMT-70" d="M 422 -1272 
L 422 3319 
L 934 3319 
L 934 2888 
Q 1116 3141 1344 3267 
Q 1572 3394 1897 3394 
Q 2322 3394 2647 3175 
Q 2972 2956 3137 2557 
Q 3303 2159 3303 1684 
Q 3303 1175 3120 767 
Q 2938 359 2589 142 
Q 2241 -75 1856 -75 
Q 1575 -75 1351 44 
Q 1128 163 984 344 
L 984 -1272 
L 422 -1272 
z
M 931 1641 
Q 931 1000 1190 694 
Q 1450 388 1819 388 
Q 2194 388 2461 705 
Q 2728 1022 2728 1688 
Q 2728 2322 2467 2637 
Q 2206 2953 1844 2953 
Q 1484 2953 1207 2617 
Q 931 2281 931 1641 
z
" transform="scale(0.015625)"/>
        <path id="ArialMT-6c" d="M 409 0 
L 409 4581 
L 972 4581 
L 972 0 
L 409 0 
z
" transform="scale(0.015625)"/>
        <path id="ArialMT-69" d="M 425 3934 
L 425 4581 
L 988 4581 
L 988 3934 
L 425 3934 
z
M 425 0 
L 425 3319 
L 988 3319 
L 988 0 
L 425 0 
z
" transform="scale(0.015625)"/>
        <path id="ArialMT-74" d="M 1650 503 
L 1731 6 
Q 1494 -44 1306 -44 
Q 1000 -44 831 53 
Q 663 150 594 308 
Q 525 466 525 972 
L 525 2881 
L 113 2881 
L 113 3319 
L 525 3319 
L 525 4141 
L 1084 4478 
L 1084 3319 
L 1650 3319 
L 1650 2881 
L 1084 2881 
L 1084 941 
Q 1084 700 1114 631 
Q 1144 563 1211 522 
Q 1278 481 1403 481 
Q 1497 481 1650 503 
z
" transform="scale(0.015625)"/>
       </defs>
       <use xlink:href="#ArialMT-52"/>
       <use xlink:href="#ArialMT-61" transform="translate(72.216797 0)"/>
       <use xlink:href="#ArialMT-6e" transform="translate(127.832031 0)"/>
       <use xlink:href="#ArialMT-64" transform="translate(183.447266 0)"/>
       <use xlink:href="#ArialMT-6f" transform="translate(239.0625 0)"/>
       <use xlink:href="#ArialMT-6d" transform="translate(294.677734 0)"/>
       <use xlink:href="#ArialMT-53" transform="translate(377.978516 0)"/>
       <use xlink:href="#ArialMT-70" transform="translate(444.677734 0)"/>
       <use xlink:href="#ArialMT-6c" transform="translate(500.292969 0)"/>
       <use xlink:href="#ArialMT-69" transform="translate(522.509766 0)"/>
       <use xlink:href="#ArialMT-74" transform="translate(544.726562 0)"/>
      </g>
     </g>
    </g>
    <g id="xtick_2">
     <g id="text_2">
      <!-- ScaffoldSplit -->
      <g style="fill: #262626" transform="translate(210.851273 732.183383) rotate(-45) scale(0.176 -0.176)">
       <defs>
        <path id="ArialMT-63" d="M 2588 1216 
L 3141 1144 
Q 3050 572 2676 248 
Q 2303 -75 1759 -75 
Q 1078 -75 664 370 
Q 250 816 250 1647 
Q 250 2184 428 2587 
Q 606 2991 970 3192 
Q 1334 3394 1763 3394 
Q 2303 3394 2647 3120 
Q 2991 2847 3088 2344 
L 2541 2259 
Q 2463 2594 2264 2762 
Q 2066 2931 1784 2931 
Q 1359 2931 1093 2626 
Q 828 2322 828 1663 
Q 828 994 1084 691 
Q 1341 388 1753 388 
Q 2084 388 2306 591 
Q 2528 794 2588 1216 
z
" transform="scale(0.015625)"/>
        <path id="ArialMT-66" d="M 556 0 
L 556 2881 
L 59 2881 
L 59 3319 
L 556 3319 
L 556 3672 
Q 556 4006 616 4169 
Q 697 4388 901 4523 
Q 1106 4659 1475 4659 
Q 1713 4659 2000 4603 
L 1916 4113 
Q 1741 4144 1584 4144 
Q 1328 4144 1222 4034 
Q 1116 3925 1116 3625 
L 1116 3319 
L 1763 3319 
L 1763 2881 
L 1116 2881 
L 1116 0 
L 556 0 
z
" transform="scale(0.015625)"/>
       </defs>
       <use xlink:href="#ArialMT-53"/>
       <use xlink:href="#ArialMT-63" transform="translate(66.699219 0)"/>
       <use xlink:href="#ArialMT-61" transform="translate(116.699219 0)"/>
       <use xlink:href="#ArialMT-66" transform="translate(172.314453 0)"/>
       <use xlink:href="#ArialMT-66" transform="translate(198.347656 0)"/>
       <use xlink:href="#ArialMT-6f" transform="translate(226.130859 0)"/>
       <use xlink:href="#ArialMT-6c" transform="translate(281.746094 0)"/>
       <use xlink:href="#ArialMT-64" transform="translate(303.962891 0)"/>
       <use xlink:href="#ArialMT-53" transform="translate(359.578125 0)"/>
       <use xlink:href="#ArialMT-70" transform="translate(426.277344 0)"/>
       <use xlink:href="#ArialMT-6c" transform="translate(481.892578 0)"/>
       <use xlink:href="#ArialMT-69" transform="translate(504.109375 0)"/>
       <use xlink:href="#ArialMT-74" transform="translate(526.326172 0)"/>
      </g>
     </g>
    </g>
    <g id="xtick_3">
     <g id="text_3">
      <!-- SortedStepForward_LogD -->
      <g style="fill: #262626" transform="translate(269.107213 807.798908) rotate(-45) scale(0.176 -0.176)">
       <defs>
        <path id="ArialMT-72" d="M 416 0 
L 416 3319 
L 922 3319 
L 922 2816 
Q 1116 3169 1280 3281 
Q 1444 3394 1641 3394 
Q 1925 3394 2219 3213 
L 2025 2691 
Q 1819 2813 1613 2813 
Q 1428 2813 1281 2702 
Q 1134 2591 1072 2394 
Q 978 2094 978 1738 
L 978 0 
L 416 0 
z
" transform="scale(0.015625)"/>
        <path id="ArialMT-65" d="M 2694 1069 
L 3275 997 
Q 3138 488 2766 206 
Q 2394 -75 1816 -75 
Q 1088 -75 661 373 
Q 234 822 234 1631 
Q 234 2469 665 2931 
Q 1097 3394 1784 3394 
Q 2450 3394 2872 2941 
Q 3294 2488 3294 1666 
Q 3294 1616 3291 1516 
L 816 1516 
Q 847 969 1125 678 
Q 1403 388 1819 388 
Q 2128 388 2347 550 
Q 2566 713 2694 1069 
z
M 847 1978 
L 2700 1978 
Q 2663 2397 2488 2606 
Q 2219 2931 1791 2931 
Q 1403 2931 1139 2672 
Q 875 2413 847 1978 
z
" transform="scale(0.015625)"/>
        <path id="ArialMT-46" d="M 525 0 
L 525 4581 
L 3616 4581 
L 3616 4041 
L 1131 4041 
L 1131 2622 
L 3281 2622 
L 3281 2081 
L 1131 2081 
L 1131 0 
L 525 0 
z
" transform="scale(0.015625)"/>
        <path id="ArialMT-77" d="M 1034 0 
L 19 3319 
L 600 3319 
L 1128 1403 
L 1325 691 
Q 1338 744 1497 1375 
L 2025 3319 
L 2603 3319 
L 3100 1394 
L 3266 759 
L 3456 1400 
L 4025 3319 
L 4572 3319 
L 3534 0 
L 2950 0 
L 2422 1988 
L 2294 2553 
L 1622 0 
L 1034 0 
z
" transform="scale(0.015625)"/>
        <path id="ArialMT-5f" d="M -97 -1272 
L -97 -866 
L 3631 -866 
L 3631 -1272 
L -97 -1272 
z
" transform="scale(0.015625)"/>
        <path id="ArialMT-4c" d="M 469 0 
L 469 4581 
L 1075 4581 
L 1075 541 
L 3331 541 
L 3331 0 
L 469 0 
z
" transform="scale(0.015625)"/>
        <path id="ArialMT-67" d="M 319 -275 
L 866 -356 
Q 900 -609 1056 -725 
Q 1266 -881 1628 -881 
Q 2019 -881 2231 -725 
Q 2444 -569 2519 -288 
Q 2563 -116 2559 434 
Q 2191 0 1641 0 
Q 956 0 581 494 
Q 206 988 206 1678 
Q 206 2153 378 2554 
Q 550 2956 876 3175 
Q 1203 3394 1644 3394 
Q 2231 3394 2613 2919 
L 2613 3319 
L 3131 3319 
L 3131 450 
Q 3131 -325 2973 -648 
Q 2816 -972 2473 -1159 
Q 2131 -1347 1631 -1347 
Q 1038 -1347 672 -1080 
Q 306 -813 319 -275 
z
M 784 1719 
Q 784 1066 1043 766 
Q 1303 466 1694 466 
Q 2081 466 2343 764 
Q 2606 1063 2606 1700 
Q 2606 2309 2336 2618 
Q 2066 2928 1684 2928 
Q 1309 2928 1046 2623 
Q 784 2319 784 1719 
z
" transform="scale(0.015625)"/>
        <path id="ArialMT-44" d="M 494 0 
L 494 4581 
L 2072 4581 
Q 2606 4581 2888 4516 
Q 3281 4425 3559 4188 
Q 3922 3881 4101 3404 
Q 4281 2928 4281 2316 
Q 4281 1794 4159 1391 
Q 4038 988 3847 723 
Q 3656 459 3429 307 
Q 3203 156 2883 78 
Q 2563 0 2147 0 
L 494 0 
z
M 1100 541 
L 2078 541 
Q 2531 541 2789 625 
Q 3047 709 3200 863 
Q 3416 1078 3536 1442 
Q 3656 1806 3656 2325 
Q 3656 3044 3420 3430 
Q 3184 3816 2847 3947 
Q 2603 4041 2063 4041 
L 1100 4041 
L 1100 541 
z
" transform="scale(0.015625)"/>
       </defs>
       <use xlink:href="#ArialMT-53"/>
       <use xlink:href="#ArialMT-6f" transform="translate(66.699219 0)"/>
       <use xlink:href="#ArialMT-72" transform="translate(122.314453 0)"/>
       <use xlink:href="#ArialMT-74" transform="translate(155.615234 0)"/>
       <use xlink:href="#ArialMT-65" transform="translate(183.398438 0)"/>
       <use xlink:href="#ArialMT-64" transform="translate(239.013672 0)"/>
       <use xlink:href="#ArialMT-53" transform="translate(294.628906 0)"/>
       <use xlink:href="#ArialMT-74" transform="translate(361.328125 0)"/>
       <use xlink:href="#ArialMT-65" transform="translate(389.111328 0)"/>
       <use xlink:href="#ArialMT-70" transform="translate(444.726562 0)"/>
       <use xlink:href="#ArialMT-46" transform="translate(500.341797 0)"/>
       <use xlink:href="#ArialMT-6f" transform="translate(561.425781 0)"/>
       <use xlink:href="#ArialMT-72" transform="translate(617.041016 0)"/>
       <use xlink:href="#ArialMT-77" transform="translate(650.341797 0)"/>
       <use xlink:href="#ArialMT-61" transform="translate(722.558594 0)"/>
       <use xlink:href="#ArialMT-72" transform="translate(778.173828 0)"/>
       <use xlink:href="#ArialMT-64" transform="translate(811.474609 0)"/>
       <use xlink:href="#ArialMT-5f" transform="translate(867.089844 0)"/>
       <use xlink:href="#ArialMT-4c" transform="translate(922.705078 0)"/>
       <use xlink:href="#ArialMT-6f" transform="translate(978.320312 0)"/>
       <use xlink:href="#ArialMT-67" transform="translate(1033.935547 0)"/>
       <use xlink:href="#ArialMT-44" transform="translate(1089.550781 0)"/>
      </g>
     </g>
    </g>
    <g id="xtick_4">
     <g id="text_4">
      <!-- SortedStepForward_LogP -->
      <g style="fill: #262626" transform="translate(365.587047 807.112484) rotate(-45) scale(0.176 -0.176)">
       <defs>
        <path id="ArialMT-50" d="M 494 0 
L 494 4581 
L 2222 4581 
Q 2678 4581 2919 4538 
Q 3256 4481 3484 4323 
Q 3713 4166 3852 3881 
Q 3991 3597 3991 3256 
Q 3991 2672 3619 2267 
Q 3247 1863 2275 1863 
L 1100 1863 
L 1100 0 
L 494 0 
z
M 1100 2403 
L 2284 2403 
Q 2872 2403 3119 2622 
Q 3366 2841 3366 3238 
Q 3366 3525 3220 3729 
Q 3075 3934 2838 4000 
Q 2684 4041 2272 4041 
L 1100 4041 
L 1100 2403 
z
" transform="scale(0.015625)"/>
       </defs>
       <use xlink:href="#ArialMT-53"/>
       <use xlink:href="#ArialMT-6f" transform="translate(66.699219 0)"/>
       <use xlink:href="#ArialMT-72" transform="translate(122.314453 0)"/>
       <use xlink:href="#ArialMT-74" transform="translate(155.615234 0)"/>
       <use xlink:href="#ArialMT-65" transform="translate(183.398438 0)"/>
       <use xlink:href="#ArialMT-64" transform="translate(239.013672 0)"/>
       <use xlink:href="#ArialMT-53" transform="translate(294.628906 0)"/>
       <use xlink:href="#ArialMT-74" transform="translate(361.328125 0)"/>
       <use xlink:href="#ArialMT-65" transform="translate(389.111328 0)"/>
       <use xlink:href="#ArialMT-70" transform="translate(444.726562 0)"/>
       <use xlink:href="#ArialMT-46" transform="translate(500.341797 0)"/>
       <use xlink:href="#ArialMT-6f" transform="translate(561.425781 0)"/>
       <use xlink:href="#ArialMT-72" transform="translate(617.041016 0)"/>
       <use xlink:href="#ArialMT-77" transform="translate(650.341797 0)"/>
       <use xlink:href="#ArialMT-61" transform="translate(722.558594 0)"/>
       <use xlink:href="#ArialMT-72" transform="translate(778.173828 0)"/>
       <use xlink:href="#ArialMT-64" transform="translate(811.474609 0)"/>
       <use xlink:href="#ArialMT-5f" transform="translate(867.089844 0)"/>
       <use xlink:href="#ArialMT-4c" transform="translate(922.705078 0)"/>
       <use xlink:href="#ArialMT-6f" transform="translate(978.320312 0)"/>
       <use xlink:href="#ArialMT-67" transform="translate(1033.935547 0)"/>
       <use xlink:href="#ArialMT-50" transform="translate(1089.550781 0)"/>
      </g>
     </g>
    </g>
    <g id="xtick_5">
     <g id="text_5">
      <!-- SortedStepForward_MCE18 -->
      <g style="fill: #262626" transform="translate(455.579884 819.545896) rotate(-45) scale(0.176 -0.176)">
       <defs>
        <path id="ArialMT-4d" d="M 475 0 
L 475 4581 
L 1388 4581 
L 2472 1338 
Q 2622 884 2691 659 
Q 2769 909 2934 1394 
L 4031 4581 
L 4847 4581 
L 4847 0 
L 4263 0 
L 4263 3834 
L 2931 0 
L 2384 0 
L 1059 3900 
L 1059 0 
L 475 0 
z
" transform="scale(0.015625)"/>
        <path id="ArialMT-43" d="M 3763 1606 
L 4369 1453 
Q 4178 706 3683 314 
Q 3188 -78 2472 -78 
Q 1731 -78 1267 223 
Q 803 525 561 1097 
Q 319 1669 319 2325 
Q 319 3041 592 3573 
Q 866 4106 1370 4382 
Q 1875 4659 2481 4659 
Q 3169 4659 3637 4309 
Q 4106 3959 4291 3325 
L 3694 3184 
Q 3534 3684 3231 3912 
Q 2928 4141 2469 4141 
Q 1941 4141 1586 3887 
Q 1231 3634 1087 3207 
Q 944 2781 944 2328 
Q 944 1744 1114 1308 
Q 1284 872 1643 656 
Q 2003 441 2422 441 
Q 2931 441 3284 734 
Q 3638 1028 3763 1606 
z
" transform="scale(0.015625)"/>
        <path id="ArialMT-45" d="M 506 0 
L 506 4581 
L 3819 4581 
L 3819 4041 
L 1113 4041 
L 1113 2638 
L 3647 2638 
L 3647 2100 
L 1113 2100 
L 1113 541 
L 3925 541 
L 3925 0 
L 506 0 
z
" transform="scale(0.015625)"/>
        <path id="ArialMT-31" d="M 2384 0 
L 1822 0 
L 1822 3584 
Q 1619 3391 1289 3197 
Q 959 3003 697 2906 
L 697 3450 
Q 1169 3672 1522 3987 
Q 1875 4303 2022 4600 
L 2384 4600 
L 2384 0 
z
" transform="scale(0.015625)"/>
        <path id="ArialMT-38" d="M 1131 2484 
Q 781 2613 612 2850 
Q 444 3088 444 3419 
Q 444 3919 803 4259 
Q 1163 4600 1759 4600 
Q 2359 4600 2725 4251 
Q 3091 3903 3091 3403 
Q 3091 3084 2923 2848 
Q 2756 2613 2416 2484 
Q 2838 2347 3058 2040 
Q 3278 1734 3278 1309 
Q 3278 722 2862 322 
Q 2447 -78 1769 -78 
Q 1091 -78 675 323 
Q 259 725 259 1325 
Q 259 1772 486 2073 
Q 713 2375 1131 2484 
z
M 1019 3438 
Q 1019 3113 1228 2906 
Q 1438 2700 1772 2700 
Q 2097 2700 2305 2904 
Q 2513 3109 2513 3406 
Q 2513 3716 2298 3927 
Q 2084 4138 1766 4138 
Q 1444 4138 1231 3931 
Q 1019 3725 1019 3438 
z
M 838 1322 
Q 838 1081 952 856 
Q 1066 631 1291 507 
Q 1516 384 1775 384 
Q 2178 384 2440 643 
Q 2703 903 2703 1303 
Q 2703 1709 2433 1975 
Q 2163 2241 1756 2241 
Q 1359 2241 1098 1978 
Q 838 1716 838 1322 
z
" transform="scale(0.015625)"/>
       </defs>
       <use xlink:href="#ArialMT-53"/>
       <use xlink:href="#ArialMT-6f" transform="translate(66.699219 0)"/>
       <use xlink:href="#ArialMT-72" transform="translate(122.314453 0)"/>
       <use xlink:href="#ArialMT-74" transform="translate(155.615234 0)"/>
       <use xlink:href="#ArialMT-65" transform="translate(183.398438 0)"/>
       <use xlink:href="#ArialMT-64" transform="translate(239.013672 0)"/>
       <use xlink:href="#ArialMT-53" transform="translate(294.628906 0)"/>
       <use xlink:href="#ArialMT-74" transform="translate(361.328125 0)"/>
       <use xlink:href="#ArialMT-65" transform="translate(389.111328 0)"/>
       <use xlink:href="#ArialMT-70" transform="translate(444.726562 0)"/>
       <use xlink:href="#ArialMT-46" transform="translate(500.341797 0)"/>
       <use xlink:href="#ArialMT-6f" transform="translate(561.425781 0)"/>
       <use xlink:href="#ArialMT-72" transform="translate(617.041016 0)"/>
       <use xlink:href="#ArialMT-77" transform="translate(650.341797 0)"/>
       <use xlink:href="#ArialMT-61" transform="translate(722.558594 0)"/>
       <use xlink:href="#ArialMT-72" transform="translate(778.173828 0)"/>
       <use xlink:href="#ArialMT-64" transform="translate(811.474609 0)"/>
       <use xlink:href="#ArialMT-5f" transform="translate(867.089844 0)"/>
       <use xlink:href="#ArialMT-4d" transform="translate(922.705078 0)"/>
       <use xlink:href="#ArialMT-43" transform="translate(1006.005859 0)"/>
       <use xlink:href="#ArialMT-45" transform="translate(1078.222656 0)"/>
       <use xlink:href="#ArialMT-31" transform="translate(1144.921875 0)"/>
       <use xlink:href="#ArialMT-38" transform="translate(1200.537109 0)"/>
      </g>
     </g>
    </g>
    <g id="xtick_6">
     <g id="text_6">
      <!-- UnsortedStepForward -->
      <g style="fill: #262626" transform="translate(569.010305 784.958298) rotate(-45) scale(0.176 -0.176)">
       <defs>
        <path id="ArialMT-55" d="M 3500 4581 
L 4106 4581 
L 4106 1934 
Q 4106 1244 3950 837 
Q 3794 431 3386 176 
Q 2978 -78 2316 -78 
Q 1672 -78 1262 144 
Q 853 366 678 786 
Q 503 1206 503 1934 
L 503 4581 
L 1109 4581 
L 1109 1938 
Q 1109 1341 1220 1058 
Q 1331 775 1601 622 
Q 1872 469 2263 469 
Q 2931 469 3215 772 
Q 3500 1075 3500 1938 
L 3500 4581 
z
" transform="scale(0.015625)"/>
        <path id="ArialMT-73" d="M 197 991 
L 753 1078 
Q 800 744 1014 566 
Q 1228 388 1613 388 
Q 2000 388 2187 545 
Q 2375 703 2375 916 
Q 2375 1106 2209 1216 
Q 2094 1291 1634 1406 
Q 1016 1563 777 1677 
Q 538 1791 414 1992 
Q 291 2194 291 2438 
Q 291 2659 392 2848 
Q 494 3038 669 3163 
Q 800 3259 1026 3326 
Q 1253 3394 1513 3394 
Q 1903 3394 2198 3281 
Q 2494 3169 2634 2976 
Q 2775 2784 2828 2463 
L 2278 2388 
Q 2241 2644 2061 2787 
Q 1881 2931 1553 2931 
Q 1166 2931 1000 2803 
Q 834 2675 834 2503 
Q 834 2394 903 2306 
Q 972 2216 1119 2156 
Q 1203 2125 1616 2013 
Q 2213 1853 2448 1751 
Q 2684 1650 2818 1456 
Q 2953 1263 2953 975 
Q 2953 694 2789 445 
Q 2625 197 2315 61 
Q 2006 -75 1616 -75 
Q 969 -75 630 194 
Q 291 463 197 991 
z
" transform="scale(0.015625)"/>
       </defs>
       <use xlink:href="#ArialMT-55"/>
       <use xlink:href="#ArialMT-6e" transform="translate(72.216797 0)"/>
       <use xlink:href="#ArialMT-73" transform="translate(127.832031 0)"/>
       <use xlink:href="#ArialMT-6f" transform="translate(177.832031 0)"/>
       <use xlink:href="#ArialMT-72" transform="translate(233.447266 0)"/>
       <use xlink:href="#ArialMT-74" transform="translate(266.748047 0)"/>
       <use xlink:href="#ArialMT-65" transform="translate(294.53125 0)"/>
       <use xlink:href="#ArialMT-64" transform="translate(350.146484 0)"/>
       <use xlink:href="#ArialMT-53" transform="translate(405.761719 0)"/>
       <use xlink:href="#ArialMT-74" transform="translate(472.460938 0)"/>
       <use xlink:href="#ArialMT-65" transform="translate(500.244141 0)"/>
       <use xlink:href="#ArialMT-70" transform="translate(555.859375 0)"/>
       <use xlink:href="#ArialMT-46" transform="translate(611.474609 0)"/>
       <use xlink:href="#ArialMT-6f" transform="translate(672.558594 0)"/>
       <use xlink:href="#ArialMT-72" transform="translate(728.173828 0)"/>
       <use xlink:href="#ArialMT-77" transform="translate(761.474609 0)"/>
       <use xlink:href="#ArialMT-61" transform="translate(833.691406 0)"/>
       <use xlink:href="#ArialMT-72" transform="translate(889.306641 0)"/>
       <use xlink:href="#ArialMT-64" transform="translate(922.607422 0)"/>
      </g>
     </g>
    </g>
    <g id="text_7">
     <!-- split_type -->
     <g style="fill: #262626" transform="translate(345.687825 839.762355) scale(0.192 -0.192)">
      <defs>
       <path id="ArialMT-79" d="M 397 -1278 
L 334 -750 
Q 519 -800 656 -800 
Q 844 -800 956 -737 
Q 1069 -675 1141 -563 
Q 1194 -478 1313 -144 
Q 1328 -97 1363 -6 
L 103 3319 
L 709 3319 
L 1400 1397 
Q 1534 1031 1641 628 
Q 1738 1016 1872 1384 
L 2581 3319 
L 3144 3319 
L 1881 -56 
Q 1678 -603 1566 -809 
Q 1416 -1088 1222 -1217 
Q 1028 -1347 759 -1347 
Q 597 -1347 397 -1278 
z
" transform="scale(0.015625)"/>
      </defs>
      <use xlink:href="#ArialMT-73"/>
      <use xlink:href="#ArialMT-70" transform="translate(50 0)"/>
      <use xlink:href="#ArialMT-6c" transform="translate(105.615234 0)"/>
      <use xlink:href="#ArialMT-69" transform="translate(127.832031 0)"/>
      <use xlink:href="#ArialMT-74" transform="translate(150.048828 0)"/>
      <use xlink:href="#ArialMT-5f" transform="translate(177.832031 0)"/>
      <use xlink:href="#ArialMT-74" transform="translate(233.447266 0)"/>
      <use xlink:href="#ArialMT-79" transform="translate(261.230469 0)"/>
      <use xlink:href="#ArialMT-70" transform="translate(311.230469 0)"/>
      <use xlink:href="#ArialMT-65" transform="translate(366.845703 0)"/>
     </g>
    </g>
   </g>
   <g id="matplotlib.axis_2">
    <g id="ytick_1">
     <g id="line2d_1">
      <path d="M 79.566 608.184935 
L 692.917651 608.184935 
" clip-path="url(#p4b29c9b7e9)" style="fill: none; stroke: #cccccc; stroke-width: 0.8; stroke-linecap: round"/>
     </g>
     <g id="text_8">
      <!-- 0 -->
      <g style="fill: #262626" transform="translate(61.47875 614.48381) scale(0.176 -0.176)">
       <defs>
        <path id="ArialMT-30" d="M 266 2259 
Q 266 3072 433 3567 
Q 600 4063 929 4331 
Q 1259 4600 1759 4600 
Q 2128 4600 2406 4451 
Q 2684 4303 2865 4023 
Q 3047 3744 3150 3342 
Q 3253 2941 3253 2259 
Q 3253 1453 3087 958 
Q 2922 463 2592 192 
Q 2263 -78 1759 -78 
Q 1097 -78 719 397 
Q 266 969 266 2259 
z
M 844 2259 
Q 844 1131 1108 757 
Q 1372 384 1759 384 
Q 2147 384 2411 759 
Q 2675 1134 2675 2259 
Q 2675 3391 2411 3762 
Q 2147 4134 1753 4134 
Q 1366 4134 1134 3806 
Q 844 3388 844 2259 
z
" transform="scale(0.015625)"/>
       </defs>
       <use xlink:href="#ArialMT-30"/>
      </g>
     </g>
    </g>
    <g id="ytick_2">
     <g id="line2d_2">
      <path d="M 79.566 514.137523 
L 692.917651 514.137523 
" clip-path="url(#p4b29c9b7e9)" style="fill: none; stroke: #cccccc; stroke-width: 0.8; stroke-linecap: round"/>
     </g>
     <g id="text_9">
      <!-- 20 -->
      <g style="fill: #262626" transform="translate(51.6915 520.436398) scale(0.176 -0.176)">
       <defs>
        <path id="ArialMT-32" d="M 3222 541 
L 3222 0 
L 194 0 
Q 188 203 259 391 
Q 375 700 629 1000 
Q 884 1300 1366 1694 
Q 2113 2306 2375 2664 
Q 2638 3022 2638 3341 
Q 2638 3675 2398 3904 
Q 2159 4134 1775 4134 
Q 1369 4134 1125 3890 
Q 881 3647 878 3216 
L 300 3275 
Q 359 3922 746 4261 
Q 1134 4600 1788 4600 
Q 2447 4600 2831 4234 
Q 3216 3869 3216 3328 
Q 3216 3053 3103 2787 
Q 2991 2522 2730 2228 
Q 2469 1934 1863 1422 
Q 1356 997 1212 845 
Q 1069 694 975 541 
L 3222 541 
z
" transform="scale(0.015625)"/>
       </defs>
       <use xlink:href="#ArialMT-32"/>
       <use xlink:href="#ArialMT-30" transform="translate(55.615234 0)"/>
      </g>
     </g>
    </g>
    <g id="ytick_3">
     <g id="line2d_3">
      <path d="M 79.566 420.090111 
L 692.917651 420.090111 
" clip-path="url(#p4b29c9b7e9)" style="fill: none; stroke: #cccccc; stroke-width: 0.8; stroke-linecap: round"/>
     </g>
     <g id="text_10">
      <!-- 40 -->
      <g style="fill: #262626" transform="translate(51.6915 426.388986) scale(0.176 -0.176)">
       <defs>
        <path id="ArialMT-34" d="M 2069 0 
L 2069 1097 
L 81 1097 
L 81 1613 
L 2172 4581 
L 2631 4581 
L 2631 1613 
L 3250 1613 
L 3250 1097 
L 2631 1097 
L 2631 0 
L 2069 0 
z
M 2069 1613 
L 2069 3678 
L 634 1613 
L 2069 1613 
z
" transform="scale(0.015625)"/>
       </defs>
       <use xlink:href="#ArialMT-34"/>
       <use xlink:href="#ArialMT-30" transform="translate(55.615234 0)"/>
      </g>
     </g>
    </g>
    <g id="ytick_4">
     <g id="line2d_4">
      <path d="M 79.566 326.042699 
L 692.917651 326.042699 
" clip-path="url(#p4b29c9b7e9)" style="fill: none; stroke: #cccccc; stroke-width: 0.8; stroke-linecap: round"/>
     </g>
     <g id="text_11">
      <!-- 60 -->
      <g style="fill: #262626" transform="translate(51.6915 332.341574) scale(0.176 -0.176)">
       <defs>
        <path id="ArialMT-36" d="M 3184 3459 
L 2625 3416 
Q 2550 3747 2413 3897 
Q 2184 4138 1850 4138 
Q 1581 4138 1378 3988 
Q 1113 3794 959 3422 
Q 806 3050 800 2363 
Q 1003 2672 1297 2822 
Q 1591 2972 1913 2972 
Q 2475 2972 2870 2558 
Q 3266 2144 3266 1488 
Q 3266 1056 3080 686 
Q 2894 316 2569 119 
Q 2244 -78 1831 -78 
Q 1128 -78 684 439 
Q 241 956 241 2144 
Q 241 3472 731 4075 
Q 1159 4600 1884 4600 
Q 2425 4600 2770 4297 
Q 3116 3994 3184 3459 
z
M 888 1484 
Q 888 1194 1011 928 
Q 1134 663 1356 523 
Q 1578 384 1822 384 
Q 2178 384 2434 671 
Q 2691 959 2691 1453 
Q 2691 1928 2437 2201 
Q 2184 2475 1800 2475 
Q 1419 2475 1153 2201 
Q 888 1928 888 1484 
z
" transform="scale(0.015625)"/>
       </defs>
       <use xlink:href="#ArialMT-36"/>
       <use xlink:href="#ArialMT-30" transform="translate(55.615234 0)"/>
      </g>
     </g>
    </g>
    <g id="ytick_5">
     <g id="line2d_5">
      <path d="M 79.566 231.995287 
L 692.917651 231.995287 
" clip-path="url(#p4b29c9b7e9)" style="fill: none; stroke: #cccccc; stroke-width: 0.8; stroke-linecap: round"/>
     </g>
     <g id="text_12">
      <!-- 80 -->
      <g style="fill: #262626" transform="translate(51.6915 238.294162) scale(0.176 -0.176)">
       <use xlink:href="#ArialMT-38"/>
       <use xlink:href="#ArialMT-30" transform="translate(55.615234 0)"/>
      </g>
     </g>
    </g>
    <g id="ytick_6">
     <g id="line2d_6">
      <path d="M 79.566 137.947875 
L 692.917651 137.947875 
" clip-path="url(#p4b29c9b7e9)" style="fill: none; stroke: #cccccc; stroke-width: 0.8; stroke-linecap: round"/>
     </g>
     <g id="text_13">
      <!-- 100 -->
      <g style="fill: #262626" transform="translate(41.90425 144.24675) scale(0.176 -0.176)">
       <use xlink:href="#ArialMT-31"/>
       <use xlink:href="#ArialMT-30" transform="translate(55.615234 0)"/>
       <use xlink:href="#ArialMT-30" transform="translate(111.230469 0)"/>
      </g>
     </g>
    </g>
    <g id="ytick_7">
     <g id="line2d_7">
      <path d="M 79.566 43.900464 
L 692.917651 43.900464 
" clip-path="url(#p4b29c9b7e9)" style="fill: none; stroke: #cccccc; stroke-width: 0.8; stroke-linecap: round"/>
     </g>
     <g id="text_14">
      <!-- 120 -->
      <g style="fill: #262626" transform="translate(41.90425 50.199339) scale(0.176 -0.176)">
       <use xlink:href="#ArialMT-31"/>
       <use xlink:href="#ArialMT-32" transform="translate(55.615234 0)"/>
       <use xlink:href="#ArialMT-30" transform="translate(111.230469 0)"/>
      </g>
     </g>
    </g>
    <g id="text_15">
     <!-- number of novel discovery compounds -->
     <g style="fill: #262626" transform="translate(33.86325 507.482674) rotate(-90) scale(0.192 -0.192)">
      <defs>
       <path id="ArialMT-75" d="M 2597 0 
L 2597 488 
Q 2209 -75 1544 -75 
Q 1250 -75 995 37 
Q 741 150 617 320 
Q 494 491 444 738 
Q 409 903 409 1263 
L 409 3319 
L 972 3319 
L 972 1478 
Q 972 1038 1006 884 
Q 1059 663 1231 536 
Q 1403 409 1656 409 
Q 1909 409 2131 539 
Q 2353 669 2445 892 
Q 2538 1116 2538 1541 
L 2538 3319 
L 3100 3319 
L 3100 0 
L 2597 0 
z
" transform="scale(0.015625)"/>
       <path id="ArialMT-62" d="M 941 0 
L 419 0 
L 419 4581 
L 981 4581 
L 981 2947 
Q 1338 3394 1891 3394 
Q 2197 3394 2470 3270 
Q 2744 3147 2920 2923 
Q 3097 2700 3197 2384 
Q 3297 2069 3297 1709 
Q 3297 856 2875 390 
Q 2453 -75 1863 -75 
Q 1275 -75 941 416 
L 941 0 
z
M 934 1684 
Q 934 1088 1097 822 
Q 1363 388 1816 388 
Q 2184 388 2453 708 
Q 2722 1028 2722 1663 
Q 2722 2313 2464 2622 
Q 2206 2931 1841 2931 
Q 1472 2931 1203 2611 
Q 934 2291 934 1684 
z
" transform="scale(0.015625)"/>
       <path id="ArialMT-20" transform="scale(0.015625)"/>
       <path id="ArialMT-76" d="M 1344 0 
L 81 3319 
L 675 3319 
L 1388 1331 
Q 1503 1009 1600 663 
Q 1675 925 1809 1294 
L 2547 3319 
L 3125 3319 
L 1869 0 
L 1344 0 
z
" transform="scale(0.015625)"/>
      </defs>
      <use xlink:href="#ArialMT-6e"/>
      <use xlink:href="#ArialMT-75" transform="translate(55.615234 0)"/>
      <use xlink:href="#ArialMT-6d" transform="translate(111.230469 0)"/>
      <use xlink:href="#ArialMT-62" transform="translate(194.53125 0)"/>
      <use xlink:href="#ArialMT-65" transform="translate(250.146484 0)"/>
      <use xlink:href="#ArialMT-72" transform="translate(305.761719 0)"/>
      <use xlink:href="#ArialMT-20" transform="translate(339.0625 0)"/>
      <use xlink:href="#ArialMT-6f" transform="translate(366.845703 0)"/>
      <use xlink:href="#ArialMT-66" transform="translate(422.460938 0)"/>
      <use xlink:href="#ArialMT-20" transform="translate(450.244141 0)"/>
      <use xlink:href="#ArialMT-6e" transform="translate(478.027344 0)"/>
      <use xlink:href="#ArialMT-6f" transform="translate(533.642578 0)"/>
      <use xlink:href="#ArialMT-76" transform="translate(589.257812 0)"/>
      <use xlink:href="#ArialMT-65" transform="translate(639.257812 0)"/>
      <use xlink:href="#ArialMT-6c" transform="translate(694.873047 0)"/>
      <use xlink:href="#ArialMT-20" transform="translate(717.089844 0)"/>
      <use xlink:href="#ArialMT-64" transform="translate(744.873047 0)"/>
      <use xlink:href="#ArialMT-69" transform="translate(800.488281 0)"/>
      <use xlink:href="#ArialMT-73" transform="translate(822.705078 0)"/>
      <use xlink:href="#ArialMT-63" transform="translate(872.705078 0)"/>
      <use xlink:href="#ArialMT-6f" transform="translate(922.705078 0)"/>
      <use xlink:href="#ArialMT-76" transform="translate(978.320312 0)"/>
      <use xlink:href="#ArialMT-65" transform="translate(1028.320312 0)"/>
      <use xlink:href="#ArialMT-72" transform="translate(1083.935547 0)"/>
      <use xlink:href="#ArialMT-79" transform="translate(1117.236328 0)"/>
      <use xlink:href="#ArialMT-20" transform="translate(1167.236328 0)"/>
      <use xlink:href="#ArialMT-63" transform="translate(1195.019531 0)"/>
      <use xlink:href="#ArialMT-6f" transform="translate(1245.019531 0)"/>
      <use xlink:href="#ArialMT-6d" transform="translate(1300.634766 0)"/>
      <use xlink:href="#ArialMT-70" transform="translate(1383.935547 0)"/>
      <use xlink:href="#ArialMT-6f" transform="translate(1439.550781 0)"/>
      <use xlink:href="#ArialMT-75" transform="translate(1495.166016 0)"/>
      <use xlink:href="#ArialMT-6e" transform="translate(1550.78125 0)"/>
      <use xlink:href="#ArialMT-64" transform="translate(1606.396484 0)"/>
      <use xlink:href="#ArialMT-73" transform="translate(1662.011719 0)"/>
     </g>
    </g>
   </g>
   <g id="FillBetweenPolyCollection_1">
    <defs>
     <path id="m5bdbf1cd4f" d="M 151.113395 -254.534256 
L 140.687144 -254.534256 
L 133.666408 -254.845123 
L 123.217619 -255.15599 
L 112.673441 -255.466857 
L 107.44562 -255.777724 
L 110.738262 -256.088592 
L 120.498537 -256.399459 
L 131.401943 -256.710326 
L 139.36238 -257.021193 
L 143.570932 -257.33206 
L 145.24404 -257.642927 
L 145.749888 -257.953794 
L 145.846279 -258.264661 
L 145.75762 -258.575528 
L 145.361115 -258.886395 
L 144.251473 -259.197263 
L 141.913857 -259.50813 
L 138.285257 -259.818997 
L 134.407516 -260.129864 
L 132.196425 -260.440731 
L 132.990287 -260.751598 
L 136.291369 -261.062465 
L 140.249773 -261.373332 
L 143.275056 -261.684199 
L 144.936635 -261.995066 
L 145.620696 -262.305933 
L 145.835296 -262.616801 
L 145.882648 -262.927668 
L 145.868151 -263.238535 
L 145.77852 -263.549402 
L 145.516973 -263.860269 
L 144.945501 -264.171136 
L 144.021193 -264.482003 
L 142.97843 -264.79287 
L 142.310776 -265.103737 
L 142.416297 -265.414604 
L 143.228609 -265.725471 
L 144.281621 -266.036339 
L 145.125471 -266.347206 
L 145.607252 -266.658073 
L 145.812694 -266.96894 
L 145.879392 -267.279807 
L 145.895029 -267.590674 
L 145.892488 -267.901541 
L 145.870544 -268.212408 
L 145.803916 -268.523275 
L 145.652994 -268.834142 
L 145.398869 -269.14501 
L 145.097011 -269.455877 
L 144.883575 -269.766744 
L 144.883575 -270.077611 
L 145.097011 -270.388478 
L 145.398869 -270.699345 
L 145.652995 -271.010212 
L 145.803922 -271.321079 
L 145.870604 -271.631946 
L 145.893006 -271.942813 
L 145.898548 -272.25368 
L 145.898262 -272.564548 
L 145.892631 -272.875415 
L 145.874787 -273.186282 
L 145.832895 -273.497149 
L 145.759517 -273.808016 
L 145.667951 -274.118883 
L 145.597315 -274.42975 
L 145.58814 -274.740617 
L 145.646196 -275.051484 
L 145.736871 -275.362351 
L 145.817246 -275.673218 
L 145.866941 -275.984086 
L 145.889698 -276.294953 
L 145.897617 -276.60582 
L 145.899718 -276.916687 
L 145.90004 -277.227554 
L 145.899617 -277.538421 
L 145.898053 -277.849288 
L 145.894234 -278.160155 
L 145.88728 -278.471022 
L 145.87818 -278.781889 
L 145.870591 -279.092757 
L 145.868766 -279.403624 
L 145.873849 -279.714491 
L 145.882764 -280.025358 
L 145.891105 -280.336225 
L 145.896479 -280.647092 
L 145.899031 -280.957959 
L 145.899947 -281.268826 
L 145.900183 -281.579693 
L 145.900139 -281.89056 
L 145.899728 -282.201427 
L 145.898351 -282.512295 
L 145.894884 -282.823162 
L 145.888327 -283.134029 
L 145.879345 -283.444896 
L 145.871306 -283.755763 
L 145.868593 -284.06663 
L 145.8729 -284.377497 
L 145.881585 -284.688364 
L 145.890192 -284.999231 
L 145.895975 -285.310098 
L 145.904564 -285.310098 
L 145.904564 -285.310098 
L 145.910347 -284.999231 
L 145.918954 -284.688364 
L 145.927639 -284.377497 
L 145.931945 -284.06663 
L 145.929233 -283.755763 
L 145.921193 -283.444896 
L 145.912212 -283.134029 
L 145.905655 -282.823162 
L 145.902188 -282.512295 
L 145.900811 -282.201427 
L 145.9004 -281.89056 
L 145.900356 -281.579693 
L 145.900592 -281.268826 
L 145.901508 -280.957959 
L 145.90406 -280.647092 
L 145.909434 -280.336225 
L 145.917775 -280.025358 
L 145.92669 -279.714491 
L 145.931773 -279.403624 
L 145.929948 -279.092757 
L 145.922359 -278.781889 
L 145.913259 -278.471022 
L 145.906304 -278.160155 
L 145.902486 -277.849288 
L 145.900922 -277.538421 
L 145.900499 -277.227554 
L 145.90082 -276.916687 
L 145.902922 -276.60582 
L 145.91084 -276.294953 
L 145.933598 -275.984086 
L 145.983293 -275.673218 
L 146.063667 -275.362351 
L 146.154342 -275.051484 
L 146.212399 -274.740617 
L 146.203224 -274.42975 
L 146.132588 -274.118883 
L 146.041021 -273.808016 
L 145.967643 -273.497149 
L 145.925751 -273.186282 
L 145.907908 -272.875415 
L 145.902277 -272.564548 
L 145.901991 -272.25368 
L 145.907532 -271.942813 
L 145.929935 -271.631946 
L 145.996617 -271.321079 
L 146.147544 -271.010212 
L 146.40167 -270.699345 
L 146.703528 -270.388478 
L 146.916964 -270.077611 
L 146.916964 -269.766744 
L 146.703528 -269.455877 
L 146.40167 -269.14501 
L 146.147545 -268.834142 
L 145.996623 -268.523275 
L 145.929995 -268.212408 
L 145.908051 -267.901541 
L 145.90551 -267.590674 
L 145.921147 -267.279807 
L 145.987845 -266.96894 
L 146.193287 -266.658073 
L 146.675068 -266.347206 
L 147.518918 -266.036339 
L 148.57193 -265.725471 
L 149.384242 -265.414604 
L 149.489763 -265.103737 
L 148.822109 -264.79287 
L 147.779346 -264.482003 
L 146.855038 -264.171136 
L 146.283565 -263.860269 
L 146.022019 -263.549402 
L 145.932388 -263.238535 
L 145.917891 -262.927668 
L 145.965243 -262.616801 
L 146.179843 -262.305933 
L 146.863904 -261.995066 
L 148.525482 -261.684199 
L 151.550766 -261.373332 
L 155.50917 -261.062465 
L 158.810252 -260.751598 
L 159.604114 -260.440731 
L 157.393023 -260.129864 
L 153.515281 -259.818997 
L 149.886682 -259.50813 
L 147.549066 -259.197263 
L 146.439424 -258.886395 
L 146.042919 -258.575528 
L 145.95426 -258.264661 
L 146.050651 -257.953794 
L 146.556499 -257.642927 
L 148.229607 -257.33206 
L 152.438159 -257.021193 
L 160.398596 -256.710326 
L 171.302002 -256.399459 
L 181.062277 -256.088592 
L 184.354918 -255.777724 
L 179.127098 -255.466857 
L 168.58292 -255.15599 
L 158.134131 -254.845123 
L 151.113395 -254.534256 
z
" style="stroke: #494949"/>
    </defs>
    <g clip-path="url(#p4b29c9b7e9)">
     <use xlink:href="#m5bdbf1cd4f" x="0" y="864" style="fill: #5875a4; stroke: #494949"/>
    </g>
   </g>
   <g id="FillBetweenPolyCollection_2">
    <defs>
     <path id="ma86262d01f" d="M 246.511181 -247.472449 
L 237.562603 -247.472449 
L 230.277149 -249.778428 
L 218.999806 -252.084407 
L 208.057353 -254.390386 
L 203.582243 -256.696365 
L 207.481762 -259.002343 
L 215.893716 -261.308322 
L 223.897778 -263.614301 
L 229.409031 -265.92028 
L 232.751265 -268.226259 
L 234.812259 -270.532238 
L 236.201344 -272.838217 
L 237.228912 -275.144196 
L 238.030557 -277.450175 
L 238.647467 -279.756153 
L 239.092976 -282.062132 
L 239.40475 -284.368111 
L 239.659138 -286.67409 
L 239.933468 -288.980069 
L 240.237214 -291.286048 
L 240.496116 -293.592027 
L 240.631259 -295.898006 
L 240.642644 -298.203984 
L 240.610445 -300.509963 
L 240.630212 -302.815942 
L 240.73583 -305.121921 
L 240.876217 -307.4279 
L 240.977977 -309.733879 
L 241.022558 -312.039858 
L 241.057424 -314.345837 
L 241.146832 -316.651816 
L 241.307307 -318.957794 
L 241.485129 -321.263773 
L 241.609499 -323.569752 
L 241.657556 -325.875731 
L 241.651707 -328.18171 
L 241.618289 -330.487689 
L 241.574133 -332.793668 
L 241.538767 -335.099647 
L 241.535262 -337.405625 
L 241.574633 -339.711604 
L 241.643172 -342.017583 
L 241.706943 -344.323562 
L 241.737206 -346.629541 
L 241.735237 -348.93552 
L 241.724226 -351.241499 
L 241.719555 -353.547478 
L 241.71716 -355.853457 
L 241.706193 -358.159435 
L 241.684309 -360.465414 
L 241.662664 -362.771393 
L 241.658981 -365.077372 
L 241.684746 -367.383351 
L 241.737687 -369.68933 
L 241.80334 -371.995309 
L 241.862838 -374.301288 
L 241.903038 -376.607267 
L 241.923068 -378.913245 
L 241.933191 -381.219224 
L 241.944604 -383.525203 
L 241.957341 -385.831182 
L 241.962922 -388.137161 
L 241.960331 -390.44314 
L 241.959036 -392.749119 
L 241.963035 -395.055098 
L 241.965062 -397.361076 
L 241.961942 -399.667055 
L 241.962242 -401.973034 
L 241.971927 -404.279013 
L 241.984553 -406.584992 
L 241.992636 -408.890971 
L 241.998486 -411.19695 
L 242.007619 -413.502929 
L 242.019265 -415.808908 
L 242.028355 -418.114886 
L 242.031583 -420.420865 
L 242.028254 -422.726844 
L 242.019252 -425.032823 
L 242.008576 -427.338802 
L 242.003219 -429.644781 
L 242.007369 -431.95076 
L 242.017747 -434.256739 
L 242.027309 -436.562718 
L 242.031514 -438.868696 
L 242.029198 -441.174675 
L 242.020925 -443.480654 
L 242.010065 -445.786633 
L 242.00331 -448.092612 
L 242.005282 -450.398591 
L 242.012226 -452.70457 
L 242.013881 -455.010549 
L 242.002154 -457.316527 
L 241.978833 -459.622506 
L 241.956339 -461.928485 
L 241.94861 -464.234464 
L 241.95964 -466.540443 
L 241.982193 -468.846422 
L 242.005573 -471.152401 
L 242.022616 -473.45838 
L 242.031825 -475.764359 
L 242.041959 -475.764359 
L 242.041959 -475.764359 
L 242.051167 -473.45838 
L 242.068211 -471.152401 
L 242.091591 -468.846422 
L 242.114144 -466.540443 
L 242.125174 -464.234464 
L 242.117444 -461.928485 
L 242.09495 -459.622506 
L 242.07163 -457.316527 
L 242.059903 -455.010549 
L 242.061557 -452.70457 
L 242.068502 -450.398591 
L 242.070473 -448.092612 
L 242.063718 -445.786633 
L 242.052859 -443.480654 
L 242.044586 -441.174675 
L 242.042269 -438.868696 
L 242.046474 -436.562718 
L 242.056036 -434.256739 
L 242.066414 -431.95076 
L 242.070565 -429.644781 
L 242.065208 -427.338802 
L 242.054532 -425.032823 
L 242.04553 -422.726844 
L 242.042201 -420.420865 
L 242.045428 -418.114886 
L 242.054519 -415.808908 
L 242.066165 -413.502929 
L 242.075297 -411.19695 
L 242.081148 -408.890971 
L 242.089231 -406.584992 
L 242.101857 -404.279013 
L 242.111541 -401.973034 
L 242.111842 -399.667055 
L 242.108722 -397.361076 
L 242.110749 -395.055098 
L 242.114748 -392.749119 
L 242.113453 -390.44314 
L 242.110862 -388.137161 
L 242.116443 -385.831182 
L 242.12918 -383.525203 
L 242.140593 -381.219224 
L 242.150716 -378.913245 
L 242.170746 -376.607267 
L 242.210946 -374.301288 
L 242.270444 -371.995309 
L 242.336096 -369.68933 
L 242.389038 -367.383351 
L 242.414803 -365.077372 
L 242.41112 -362.771393 
L 242.389475 -360.465414 
L 242.367591 -358.159435 
L 242.356624 -355.853457 
L 242.354229 -353.547478 
L 242.349557 -351.241499 
L 242.338546 -348.93552 
L 242.336578 -346.629541 
L 242.366841 -344.323562 
L 242.430612 -342.017583 
L 242.49915 -339.711604 
L 242.538522 -337.405625 
L 242.535017 -335.099647 
L 242.49965 -332.793668 
L 242.455495 -330.487689 
L 242.422077 -328.18171 
L 242.416228 -325.875731 
L 242.464285 -323.569752 
L 242.588655 -321.263773 
L 242.766477 -318.957794 
L 242.926951 -316.651816 
L 243.016359 -314.345837 
L 243.051226 -312.039858 
L 243.095806 -309.733879 
L 243.197567 -307.4279 
L 243.337954 -305.121921 
L 243.443572 -302.815942 
L 243.463338 -300.509963 
L 243.43114 -298.203984 
L 243.442525 -295.898006 
L 243.577668 -293.592027 
L 243.83657 -291.286048 
L 244.140315 -288.980069 
L 244.414645 -286.67409 
L 244.669033 -284.368111 
L 244.980808 -282.062132 
L 245.426316 -279.756153 
L 246.043227 -277.450175 
L 246.844872 -275.144196 
L 247.87244 -272.838217 
L 249.261525 -270.532238 
L 251.322519 -268.226259 
L 254.664752 -265.92028 
L 260.176006 -263.614301 
L 268.180067 -261.308322 
L 276.592022 -259.002343 
L 280.491541 -256.696365 
L 276.016431 -254.390386 
L 265.073977 -252.084407 
L 253.796635 -249.778428 
L 246.511181 -247.472449 
z
" style="stroke: #494949"/>
    </defs>
    <g clip-path="url(#p4b29c9b7e9)">
     <use xlink:href="#ma86262d01f" x="0" y="864" style="fill: #cc8963; stroke: #494949"/>
    </g>
   </g>
   <g id="FillBetweenPolyCollection_3">
    <defs>
     <path id="mf9a0e13426" d="M 342.436541 -249.331565 
L 333.910487 -249.331565 
L 325.72651 -251.362492 
L 313.103407 -253.39342 
L 302.345243 -255.424347 
L 299.718865 -257.455275 
L 304.235197 -259.486202 
L 310.99744 -261.51713 
L 317.041555 -263.548058 
L 321.644288 -265.578985 
L 324.969312 -267.609913 
L 327.302529 -269.64084 
L 328.903358 -271.671768 
L 330.033742 -273.702695 
L 330.934877 -275.733623 
L 331.762309 -277.76455 
L 332.585312 -279.795478 
L 333.423561 -281.826405 
L 334.208611 -283.857333 
L 334.863372 -285.88826 
L 335.320871 -287.919188 
L 335.546225 -289.950115 
L 335.624276 -291.981043 
L 335.726347 -294.01197 
L 335.94184 -296.042898 
L 336.221425 -298.073825 
L 336.497047 -300.104753 
L 336.730962 -302.13568 
L 336.916249 -304.166608 
L 337.080923 -306.197536 
L 337.265714 -308.228463 
L 337.470176 -310.259391 
L 337.632074 -312.290318 
L 337.702884 -314.321246 
L 337.695071 -316.352173 
L 337.652745 -318.383101 
L 337.63037 -320.414028 
L 337.681386 -322.444956 
L 337.804821 -324.475883 
L 337.936253 -326.506811 
L 338.02524 -328.537738 
L 338.069782 -330.568666 
L 338.084846 -332.599593 
L 338.078446 -334.630521 
L 338.054308 -336.661448 
L 338.027535 -338.692376 
L 338.026225 -340.723303 
L 338.058382 -342.754231 
L 338.091271 -344.785158 
L 338.089959 -346.816086 
L 338.057255 -348.847014 
L 338.019858 -350.877941 
L 338.000663 -352.908869 
L 338.013909 -354.939796 
L 338.052548 -356.970724 
L 338.079362 -359.001651 
L 338.067717 -361.032579 
L 338.042349 -363.063506 
L 338.048581 -365.094434 
L 338.09114 -367.125361 
L 338.135816 -369.156289 
L 338.157777 -371.187216 
L 338.156383 -373.218144 
L 338.140139 -375.249071 
L 338.120064 -377.279999 
L 338.105934 -379.310926 
L 338.09968 -381.341854 
L 338.097887 -383.372781 
L 338.097649 -385.403709 
L 338.098127 -387.434637 
L 338.100723 -389.465564 
L 338.108544 -391.496492 
L 338.123245 -393.527419 
L 338.138139 -395.558347 
L 338.141653 -397.589274 
L 338.133541 -399.620202 
L 338.12753 -401.651129 
L 338.130767 -403.682057 
L 338.130199 -405.712984 
L 338.110862 -407.743912 
L 338.081435 -409.774839 
L 338.066549 -411.805767 
L 338.076287 -413.836694 
L 338.101185 -415.867622 
L 338.129498 -417.898549 
L 338.152798 -419.929477 
L 338.166405 -421.960404 
L 338.171593 -423.991332 
L 338.171804 -426.022259 
L 338.167414 -428.053187 
L 338.156152 -430.084115 
L 338.139939 -432.115042 
L 338.129328 -434.14597 
L 338.13245 -436.176897 
L 338.141241 -438.207825 
L 338.141146 -440.238752 
L 338.132317 -442.26968 
L 338.129391 -444.300607 
L 338.140183 -446.331535 
L 338.156384 -448.362462 
L 338.167561 -450.39339 
L 338.179467 -450.39339 
L 338.179467 -450.39339 
L 338.190644 -448.362462 
L 338.206846 -446.331535 
L 338.217637 -444.300607 
L 338.214711 -442.26968 
L 338.205883 -440.238752 
L 338.205787 -438.207825 
L 338.214578 -436.176897 
L 338.2177 -434.14597 
L 338.207089 -432.115042 
L 338.190876 -430.084115 
L 338.179615 -428.053187 
L 338.175225 -426.022259 
L 338.175436 -423.991332 
L 338.180624 -421.960404 
L 338.194231 -419.929477 
L 338.21753 -417.898549 
L 338.245843 -415.867622 
L 338.270742 -413.836694 
L 338.280479 -411.805767 
L 338.265593 -409.774839 
L 338.236166 -407.743912 
L 338.21683 -405.712984 
L 338.216262 -403.682057 
L 338.219498 -401.651129 
L 338.213487 -399.620202 
L 338.205376 -397.589274 
L 338.20889 -395.558347 
L 338.223783 -393.527419 
L 338.238484 -391.496492 
L 338.246306 -389.465564 
L 338.248902 -387.434637 
L 338.24938 -385.403709 
L 338.249142 -383.372781 
L 338.247348 -381.341854 
L 338.241095 -379.310926 
L 338.226964 -377.279999 
L 338.206889 -375.249071 
L 338.190646 -373.218144 
L 338.189252 -371.187216 
L 338.211213 -369.156289 
L 338.255888 -367.125361 
L 338.298447 -365.094434 
L 338.30468 -363.063506 
L 338.279312 -361.032579 
L 338.267667 -359.001651 
L 338.29448 -356.970724 
L 338.33312 -354.939796 
L 338.346365 -352.908869 
L 338.327171 -350.877941 
L 338.289774 -348.847014 
L 338.257069 -346.816086 
L 338.255757 -344.785158 
L 338.288647 -342.754231 
L 338.320803 -340.723303 
L 338.319493 -338.692376 
L 338.29272 -336.661448 
L 338.268583 -334.630521 
L 338.262182 -332.599593 
L 338.277247 -330.568666 
L 338.321788 -328.537738 
L 338.410775 -326.506811 
L 338.542207 -324.475883 
L 338.665642 -322.444956 
L 338.716658 -320.414028 
L 338.694283 -318.383101 
L 338.651957 -316.352173 
L 338.644144 -314.321246 
L 338.714955 -312.290318 
L 338.876852 -310.259391 
L 339.081314 -308.228463 
L 339.266105 -306.197536 
L 339.43078 -304.166608 
L 339.616066 -302.13568 
L 339.849981 -300.104753 
L 340.125603 -298.073825 
L 340.405189 -296.042898 
L 340.620681 -294.01197 
L 340.722753 -291.981043 
L 340.800803 -289.950115 
L 341.026158 -287.919188 
L 341.483657 -285.88826 
L 342.138417 -283.857333 
L 342.923468 -281.826405 
L 343.761717 -279.795478 
L 344.584719 -277.76455 
L 345.412151 -275.733623 
L 346.313286 -273.702695 
L 347.44367 -271.671768 
L 349.044499 -269.64084 
L 351.377717 -267.609913 
L 354.702741 -265.578985 
L 359.305473 -263.548058 
L 365.349588 -261.51713 
L 372.111832 -259.486202 
L 376.628163 -257.455275 
L 374.001785 -255.424347 
L 363.243622 -253.39342 
L 350.620519 -251.362492 
L 342.436541 -249.331565 
z
" style="stroke: #494949"/>
    </defs>
    <g clip-path="url(#p4b29c9b7e9)">
     <use xlink:href="#mf9a0e13426" x="0" y="864" style="fill: #5f9e6e; stroke: #494949"/>
    </g>
   </g>
   <g id="FillBetweenPolyCollection_4">
    <defs>
     <path id="md4708b099b" d="M 438.459211 -248.797968 
L 430.161062 -248.797968 
L 423.127852 -250.792176 
L 412.096738 -252.786385 
L 401.169447 -254.780593 
L 395.855488 -256.774802 
L 397.571094 -258.76901 
L 403.163801 -260.763219 
L 409.108639 -262.757428 
L 413.852149 -264.751636 
L 417.274718 -266.745845 
L 419.726461 -268.740053 
L 421.593599 -270.734262 
L 423.190509 -272.72847 
L 424.719555 -274.722679 
L 426.200792 -276.716888 
L 427.436356 -278.711096 
L 428.240176 -280.705305 
L 428.707759 -282.699513 
L 429.122302 -284.693722 
L 429.630522 -286.68793 
L 430.14331 -288.682139 
L 430.538921 -290.676348 
L 430.819774 -292.670556 
L 431.076167 -294.664765 
L 431.391652 -296.658973 
L 431.799676 -298.653182 
L 432.258215 -300.64739 
L 432.653779 -302.641599 
L 432.898201 -304.635808 
L 433.006039 -306.630016 
L 433.053047 -308.624225 
L 433.098838 -310.618433 
L 433.161484 -312.612642 
L 433.221157 -314.606851 
L 433.234844 -316.601059 
L 433.187854 -318.595268 
L 433.136792 -320.589476 
L 433.166479 -322.583685 
L 433.298374 -324.577893 
L 433.478473 -326.572102 
L 433.644962 -328.566311 
L 433.768567 -330.560519 
L 433.85204 -332.554728 
L 433.921995 -334.548936 
L 434.007442 -336.543145 
L 434.107749 -338.537353 
L 434.190086 -340.531562 
L 434.227371 -342.525771 
L 434.223536 -344.519979 
L 434.199406 -346.514188 
L 434.17263 -348.508396 
L 434.15281 -350.502605 
L 434.142221 -352.496813 
L 434.138117 -354.491022 
L 434.136905 -356.485231 
L 434.136116 -358.479439 
L 434.133843 -360.473648 
L 434.127794 -362.467856 
L 434.117916 -364.462065 
L 434.112444 -366.456273 
L 434.12729 -368.450482 
L 434.170275 -370.444691 
L 434.226881 -372.438899 
L 434.272926 -374.433108 
L 434.29788 -376.427316 
L 434.307169 -378.421525 
L 434.309454 -380.415734 
L 434.309105 -382.409942 
L 434.306081 -384.404151 
L 434.297698 -386.398359 
L 434.281769 -388.392568 
L 434.260863 -390.386776 
L 434.242051 -392.380985 
L 434.230517 -394.375194 
L 434.226193 -396.369402 
L 434.227437 -398.363611 
L 434.234599 -400.357819 
L 434.248166 -402.352028 
L 434.26345 -404.346236 
L 434.271131 -406.340445 
L 434.267826 -408.334654 
L 434.262496 -410.328862 
L 434.266564 -412.323071 
L 434.28048 -414.317279 
L 434.295435 -416.311488 
L 434.304854 -418.305696 
L 434.308762 -420.299905 
L 434.309876 -422.294114 
L 434.310085 -424.288322 
L 434.309976 -426.282531 
L 434.309051 -428.276739 
L 434.304711 -430.270948 
L 434.290503 -432.265156 
L 434.258698 -434.259365 
L 434.212577 -436.253574 
L 434.176186 -438.247782 
L 434.176994 -440.241991 
L 434.214333 -442.236199 
L 434.260231 -444.230408 
L 434.291317 -446.224616 
L 434.328956 -446.224616 
L 434.328956 -446.224616 
L 434.360042 -444.230408 
L 434.405941 -442.236199 
L 434.443279 -440.241991 
L 434.444088 -438.247782 
L 434.407696 -436.253574 
L 434.361575 -434.259365 
L 434.329771 -432.265156 
L 434.315562 -430.270948 
L 434.311222 -428.276739 
L 434.310297 -426.282531 
L 434.310188 -424.288322 
L 434.310397 -422.294114 
L 434.311511 -420.299905 
L 434.31542 -418.305696 
L 434.324838 -416.311488 
L 434.339793 -414.317279 
L 434.353709 -412.323071 
L 434.357778 -410.328862 
L 434.352448 -408.334654 
L 434.349142 -406.340445 
L 434.356823 -404.346236 
L 434.372107 -402.352028 
L 434.385674 -400.357819 
L 434.392836 -398.363611 
L 434.39408 -396.369402 
L 434.389756 -394.375194 
L 434.378222 -392.380985 
L 434.35941 -390.386776 
L 434.338504 -388.392568 
L 434.322575 -386.398359 
L 434.314192 -384.404151 
L 434.311168 -382.409942 
L 434.310819 -380.415734 
L 434.313104 -378.421525 
L 434.322393 -376.427316 
L 434.347347 -374.433108 
L 434.393392 -372.438899 
L 434.449999 -370.444691 
L 434.492983 -368.450482 
L 434.507829 -366.456273 
L 434.502357 -364.462065 
L 434.492479 -362.467856 
L 434.48643 -360.473648 
L 434.484157 -358.479439 
L 434.483368 -356.485231 
L 434.482157 -354.491022 
L 434.478052 -352.496813 
L 434.467463 -350.502605 
L 434.447643 -348.508396 
L 434.420867 -346.514188 
L 434.396737 -344.519979 
L 434.392902 -342.525771 
L 434.430187 -340.531562 
L 434.512524 -338.537353 
L 434.612831 -336.543145 
L 434.698279 -334.548936 
L 434.768233 -332.554728 
L 434.851706 -330.560519 
L 434.975311 -328.566311 
L 435.1418 -326.572102 
L 435.321899 -324.577893 
L 435.453794 -322.583685 
L 435.483481 -320.589476 
L 435.432419 -318.595268 
L 435.385429 -316.601059 
L 435.399116 -314.606851 
L 435.458789 -312.612642 
L 435.521435 -310.618433 
L 435.567226 -308.624225 
L 435.614234 -306.630016 
L 435.722072 -304.635808 
L 435.966494 -302.641599 
L 436.362058 -300.64739 
L 436.820597 -298.653182 
L 437.228621 -296.658973 
L 437.544107 -294.664765 
L 437.800499 -292.670556 
L 438.081352 -290.676348 
L 438.476963 -288.682139 
L 438.989751 -286.68793 
L 439.497972 -284.693722 
L 439.912514 -282.699513 
L 440.380097 -280.705305 
L 441.183917 -278.711096 
L 442.419481 -276.716888 
L 443.900718 -274.722679 
L 445.429764 -272.72847 
L 447.026674 -270.734262 
L 448.893812 -268.740053 
L 451.345555 -266.745845 
L 454.768124 -264.751636 
L 459.511634 -262.757428 
L 465.456473 -260.763219 
L 471.049179 -258.76901 
L 472.764786 -256.774802 
L 467.450827 -254.780593 
L 456.523535 -252.786385 
L 445.492421 -250.792176 
L 438.459211 -248.797968 
z
" style="stroke: #494949"/>
    </defs>
    <g clip-path="url(#p4b29c9b7e9)">
     <use xlink:href="#md4708b099b" x="0" y="864" style="fill: #b55d60; stroke: #494949"/>
    </g>
   </g>
   <g id="FillBetweenPolyCollection_5">
    <defs>
     <path id="m18931d9252" d="M 534.400417 -241.651182 
L 526.493101 -241.651182 
L 517.775628 -246.402199 
L 503.71044 -251.153215 
L 492.356377 -255.904231 
L 491.99211 -260.655247 
L 500.358434 -265.406263 
L 509.4337 -270.15728 
L 515.236688 -274.908296 
L 518.279645 -279.659312 
L 520.023271 -284.410328 
L 521.34137 -289.161344 
L 522.5106 -293.91236 
L 523.445432 -298.663377 
L 524.087867 -303.414393 
L 524.668928 -308.165409 
L 525.352936 -312.916425 
L 525.961031 -317.667441 
L 526.351605 -322.418457 
L 526.697052 -327.169474 
L 527.120516 -331.92049 
L 527.492031 -336.671506 
L 527.714097 -341.422522 
L 527.854599 -346.173538 
L 528.002184 -350.924555 
L 528.124363 -355.675571 
L 528.146212 -360.426587 
L 528.137538 -365.177603 
L 528.232794 -369.928619 
L 528.437701 -374.679635 
L 528.68842 -379.430652 
L 528.961685 -384.181668 
L 529.23847 -388.932684 
L 529.499635 -393.6837 
L 529.740118 -398.434716 
L 529.932046 -403.185733 
L 530.049318 -407.936749 
L 530.119754 -412.687765 
L 530.188791 -417.438781 
L 530.258971 -422.189797 
L 530.309383 -426.940813 
L 530.330876 -431.69183 
L 530.315387 -436.442846 
L 530.272139 -441.193862 
L 530.247971 -445.944878 
L 530.273401 -450.695894 
L 530.32044 -455.44691 
L 530.345699 -460.197927 
L 530.347484 -464.948943 
L 530.359128 -469.699959 
L 530.392192 -474.450975 
L 530.42455 -479.201991 
L 530.440957 -483.953008 
L 530.445728 -488.704024 
L 530.446048 -493.45504 
L 530.443007 -498.206056 
L 530.431671 -502.957072 
L 530.406681 -507.708088 
L 530.37601 -512.459105 
L 530.36327 -517.210121 
L 530.380712 -521.961137 
L 530.411304 -526.712153 
L 530.431004 -531.463169 
L 530.431148 -536.214185 
L 530.416959 -540.965202 
L 530.403721 -545.716218 
L 530.406631 -550.467234 
L 530.422884 -555.21825 
L 530.437702 -559.969266 
L 530.444568 -564.720283 
L 530.446421 -569.471299 
L 530.446726 -574.222315 
L 530.446757 -578.973331 
L 530.446759 -583.724347 
L 530.446759 -588.475363 
L 530.446759 -593.22638 
L 530.446759 -597.977396 
L 530.446759 -602.728412 
L 530.446759 -607.479428 
L 530.44675 -612.230444 
L 530.446644 -616.981461 
L 530.445828 -621.732477 
L 530.441966 -626.483493 
L 530.431022 -631.234509 
L 530.413814 -635.985525 
L 530.402784 -640.736541 
L 530.409334 -645.487558 
L 530.426452 -650.238574 
L 530.439733 -654.98959 
L 530.445209 -659.740606 
L 530.44654 -664.491622 
L 530.446727 -669.242638 
L 530.446605 -673.993655 
L 530.445593 -678.744671 
L 530.441076 -683.495687 
L 530.429104 -688.246703 
L 530.411786 -692.997719 
L 530.402589 -697.748736 
L 530.41119 -702.499752 
L 530.428497 -707.250768 
L 530.440781 -712.001784 
L 530.452737 -712.001784 
L 530.452737 -712.001784 
L 530.465021 -707.250768 
L 530.482328 -702.499752 
L 530.490929 -697.748736 
L 530.481732 -692.997719 
L 530.464414 -688.246703 
L 530.452442 -683.495687 
L 530.447925 -678.744671 
L 530.446913 -673.993655 
L 530.446791 -669.242638 
L 530.446978 -664.491622 
L 530.448309 -659.740606 
L 530.453785 -654.98959 
L 530.467066 -650.238574 
L 530.484184 -645.487558 
L 530.490734 -640.736541 
L 530.479704 -635.985525 
L 530.462496 -631.234509 
L 530.451552 -626.483493 
L 530.44769 -621.732477 
L 530.446874 -616.981461 
L 530.446768 -612.230444 
L 530.446759 -607.479428 
L 530.446759 -602.728412 
L 530.446759 -597.977396 
L 530.446759 -593.22638 
L 530.446759 -588.475363 
L 530.446759 -583.724347 
L 530.446761 -578.973331 
L 530.446792 -574.222315 
L 530.447097 -569.471299 
L 530.44895 -564.720283 
L 530.455816 -559.969266 
L 530.470634 -555.21825 
L 530.486887 -550.467234 
L 530.489797 -545.716218 
L 530.476559 -540.965202 
L 530.46237 -536.214185 
L 530.462514 -531.463169 
L 530.482214 -526.712153 
L 530.512806 -521.961137 
L 530.530248 -517.210121 
L 530.517508 -512.459105 
L 530.486837 -507.708088 
L 530.461847 -502.957072 
L 530.45051 -498.206056 
L 530.447469 -493.45504 
L 530.44779 -488.704024 
L 530.452561 -483.953008 
L 530.468968 -479.201991 
L 530.501326 -474.450975 
L 530.53439 -469.699959 
L 530.546034 -464.948943 
L 530.547819 -460.197927 
L 530.573078 -455.44691 
L 530.620117 -450.695894 
L 530.645547 -445.944878 
L 530.621379 -441.193862 
L 530.578131 -436.442846 
L 530.562642 -431.69183 
L 530.584135 -426.940813 
L 530.634547 -422.189797 
L 530.704727 -417.438781 
L 530.773763 -412.687765 
L 530.8442 -407.936749 
L 530.961472 -403.185733 
L 531.1534 -398.434716 
L 531.393883 -393.6837 
L 531.655048 -388.932684 
L 531.931833 -384.181668 
L 532.205098 -379.430652 
L 532.455817 -374.679635 
L 532.660724 -369.928619 
L 532.75598 -365.177603 
L 532.747306 -360.426587 
L 532.769155 -355.675571 
L 532.891334 -350.924555 
L 533.038919 -346.173538 
L 533.179421 -341.422522 
L 533.401487 -336.671506 
L 533.773002 -331.92049 
L 534.196466 -327.169474 
L 534.541913 -322.418457 
L 534.932486 -317.667441 
L 535.540582 -312.916425 
L 536.22459 -308.165409 
L 536.805651 -303.414393 
L 537.448086 -298.663377 
L 538.382917 -293.91236 
L 539.552148 -289.161344 
L 540.870246 -284.410328 
L 542.613873 -279.659312 
L 545.65683 -274.908296 
L 551.459818 -270.15728 
L 560.535084 -265.406263 
L 568.901408 -260.655247 
L 568.537141 -255.904231 
L 557.183078 -251.153215 
L 543.11789 -246.402199 
L 534.400417 -241.651182 
z
" style="stroke: #494949"/>
    </defs>
    <g clip-path="url(#p4b29c9b7e9)">
     <use xlink:href="#m18931d9252" x="0" y="864" style="fill: #857aab; stroke: #494949"/>
    </g>
   </g>
   <g id="FillBetweenPolyCollection_6">
    <defs>
     <path id="me0b0bc3dc9" d="M 631.701006 -251.840335 
L 621.465757 -251.840335 
L 611.616408 -253.1081 
L 597.362903 -254.375865 
L 588.128732 -255.64363 
L 591.035149 -256.911395 
L 599.948055 -258.17916 
L 605.55806 -259.446924 
L 608.369441 -260.714689 
L 612.312884 -261.982454 
L 616.188375 -263.250219 
L 618.022975 -264.517984 
L 619.195998 -265.785749 
L 620.834252 -267.053514 
L 621.997201 -268.321279 
L 622.40471 -269.589044 
L 622.960606 -270.856809 
L 623.748341 -272.124574 
L 624.160748 -273.392338 
L 624.329496 -274.660103 
L 624.719396 -275.927868 
L 625.169148 -277.195633 
L 625.373754 -278.463398 
L 625.477873 -279.731163 
L 625.632353 -280.998928 
L 625.699361 -282.266693 
L 625.653977 -283.534458 
L 625.660045 -284.802223 
L 625.684533 -286.069987 
L 625.584524 -287.337752 
L 625.501144 -288.605517 
L 625.659431 -289.873282 
L 625.956174 -291.141047 
L 626.159458 -292.408812 
L 626.254482 -293.676577 
L 626.328589 -294.944342 
L 626.38158 -296.212107 
L 626.395373 -297.479872 
L 626.399113 -298.747637 
L 626.397394 -300.015401 
L 626.366019 -301.283166 
L 626.333997 -302.550931 
L 626.35368 -303.818696 
L 626.40527 -305.086461 
L 626.436274 -306.354226 
L 626.451161 -307.621991 
L 626.478904 -308.889756 
L 626.510999 -310.157521 
L 626.526182 -311.425286 
L 626.521645 -312.693051 
L 626.492846 -313.960815 
L 626.435849 -315.22858 
L 626.384266 -316.496345 
L 626.380639 -317.76411 
L 626.405576 -319.031875 
L 626.412788 -320.29964 
L 626.414736 -321.567405 
L 626.450646 -322.83517 
L 626.510195 -324.102935 
L 626.554446 -325.3707 
L 626.566812 -326.638464 
L 626.548908 -327.906229 
L 626.508233 -329.173994 
L 626.469781 -330.441759 
L 626.462974 -331.709524 
L 626.480975 -332.977289 
L 626.492886 -334.245054 
L 626.496672 -335.512819 
L 626.513372 -336.780584 
L 626.543056 -338.048349 
L 626.567203 -339.316114 
L 626.576563 -340.583878 
L 626.572937 -341.851643 
L 626.560318 -343.119408 
L 626.547276 -344.387173 
L 626.545631 -345.654938 
L 626.557059 -346.922703 
L 626.570752 -348.190468 
L 626.576757 -349.458233 
L 626.570556 -350.725998 
L 626.549553 -351.993763 
L 626.520569 -353.261528 
L 626.505523 -354.529292 
L 626.519128 -355.797057 
L 626.548083 -357.064822 
L 626.570472 -358.332587 
L 626.580238 -359.600352 
L 626.582855 -360.868117 
L 626.583152 -362.135882 
L 626.582217 -363.403647 
L 626.578245 -364.671412 
L 626.568219 -365.939177 
L 626.553394 -367.206941 
L 626.542773 -368.474706 
L 626.542374 -369.742471 
L 626.544705 -371.010236 
L 626.542436 -372.278001 
L 626.542666 -373.545766 
L 626.553098 -374.813531 
L 626.567946 -376.081296 
L 626.578109 -377.349061 
L 626.588653 -377.349061 
L 626.588653 -377.349061 
L 626.598817 -376.081296 
L 626.613664 -374.813531 
L 626.624096 -373.545766 
L 626.624327 -372.278001 
L 626.622058 -371.010236 
L 626.624389 -369.742471 
L 626.623989 -368.474706 
L 626.613368 -367.206941 
L 626.598544 -365.939177 
L 626.588518 -364.671412 
L 626.584545 -363.403647 
L 626.583611 -362.135882 
L 626.583908 -360.868117 
L 626.586525 -359.600352 
L 626.59629 -358.332587 
L 626.61868 -357.064822 
L 626.647634 -355.797057 
L 626.661239 -354.529292 
L 626.646194 -353.261528 
L 626.61721 -351.993763 
L 626.596207 -350.725998 
L 626.590005 -349.458233 
L 626.59601 -348.190468 
L 626.609704 -346.922703 
L 626.621132 -345.654938 
L 626.619487 -344.387173 
L 626.606444 -343.119408 
L 626.593826 -341.851643 
L 626.5902 -340.583878 
L 626.59956 -339.316114 
L 626.623706 -338.048349 
L 626.653391 -336.780584 
L 626.670091 -335.512819 
L 626.673877 -334.245054 
L 626.685787 -332.977289 
L 626.703788 -331.709524 
L 626.696982 -330.441759 
L 626.65853 -329.173994 
L 626.617854 -327.906229 
L 626.599951 -326.638464 
L 626.612317 -325.3707 
L 626.656568 -324.102935 
L 626.716117 -322.83517 
L 626.752027 -321.567405 
L 626.753975 -320.29964 
L 626.761187 -319.031875 
L 626.786123 -317.76411 
L 626.782497 -316.496345 
L 626.730913 -315.22858 
L 626.673917 -313.960815 
L 626.645118 -312.693051 
L 626.640581 -311.425286 
L 626.655763 -310.157521 
L 626.687858 -308.889756 
L 626.715602 -307.621991 
L 626.730489 -306.354226 
L 626.761492 -305.086461 
L 626.813083 -303.818696 
L 626.832766 -302.550931 
L 626.800744 -301.283166 
L 626.769369 -300.015401 
L 626.76765 -298.747637 
L 626.77139 -297.479872 
L 626.785182 -296.212107 
L 626.838174 -294.944342 
L 626.912281 -293.676577 
L 627.007305 -292.408812 
L 627.210588 -291.141047 
L 627.507332 -289.873282 
L 627.665619 -288.605517 
L 627.582239 -287.337752 
L 627.482229 -286.069987 
L 627.506718 -284.802223 
L 627.512786 -283.534458 
L 627.467402 -282.266693 
L 627.53441 -280.998928 
L 627.688889 -279.731163 
L 627.793009 -278.463398 
L 627.997614 -277.195633 
L 628.447367 -275.927868 
L 628.837267 -274.660103 
L 629.006014 -273.392338 
L 629.418421 -272.124574 
L 630.206156 -270.856809 
L 630.762053 -269.589044 
L 631.169562 -268.321279 
L 632.332511 -267.053514 
L 633.970764 -265.785749 
L 635.143788 -264.517984 
L 636.978387 -263.250219 
L 640.853879 -261.982454 
L 644.797322 -260.714689 
L 647.608703 -259.446924 
L 653.218708 -258.17916 
L 662.131614 -256.911395 
L 665.03803 -255.64363 
L 655.80386 -254.375865 
L 641.550355 -253.1081 
L 631.701006 -251.840335 
z
" style="stroke: #494949"/>
    </defs>
    <g clip-path="url(#p4b29c9b7e9)">
     <use xlink:href="#me0b0bc3dc9" x="0" y="864" style="fill: #8d7866; stroke: #494949"/>
    </g>
   </g>
   <g id="line2d_8">
    <path d="M 145.900269 608.184935 
L 145.900269 598.780193 
" clip-path="url(#p4b29c9b7e9)" style="fill: none; stroke: #494949; stroke-width: 1.5; stroke-linecap: round"/>
   </g>
   <g id="line2d_9">
    <path d="M 145.900269 608.184935 
L 145.900269 603.482564 
" clip-path="url(#p4b29c9b7e9)" style="fill: none; stroke: #494949; stroke-width: 4.5; stroke-linecap: round"/>
   </g>
   <g id="line2d_10">
    <path d="M 145.900269 608.184935 
" clip-path="url(#p4b29c9b7e9)" style="fill: none; stroke: #494949; stroke-width: 1.2; stroke-linecap: round"/>
    <defs>
     <path id="mc48874b2fd" d="M 1.875 0 
L -1.875 -0 
" style="stroke: #ffffff; stroke-width: 0.9"/>
    </defs>
    <g clip-path="url(#p4b29c9b7e9)">
     <use xlink:href="#mc48874b2fd" x="145.900269" y="608.184935" style="fill: #ffffff; stroke: #ffffff; stroke-width: 0.9"/>
    </g>
   </g>
   <g id="line2d_11">
    <path d="M 242.036892 608.184935 
L 242.036892 584.673082 
" clip-path="url(#p4b29c9b7e9)" style="fill: none; stroke: #494949; stroke-width: 1.5; stroke-linecap: round"/>
   </g>
   <g id="line2d_12">
    <path d="M 242.036892 608.184935 
L 242.036892 598.780193 
" clip-path="url(#p4b29c9b7e9)" style="fill: none; stroke: #494949; stroke-width: 4.5; stroke-linecap: round"/>
   </g>
   <g id="line2d_13">
    <path d="M 242.036892 608.184935 
" clip-path="url(#p4b29c9b7e9)" style="fill: none; stroke: #494949; stroke-width: 1.2; stroke-linecap: round"/>
    <g clip-path="url(#p4b29c9b7e9)">
     <use xlink:href="#mc48874b2fd" x="242.036892" y="608.184935" style="fill: #ffffff; stroke: #ffffff; stroke-width: 0.9"/>
    </g>
   </g>
   <g id="line2d_14">
    <path d="M 338.173514 608.184935 
L 338.173514 575.26834 
" clip-path="url(#p4b29c9b7e9)" style="fill: none; stroke: #494949; stroke-width: 1.5; stroke-linecap: round"/>
   </g>
   <g id="line2d_15">
    <path d="M 338.173514 608.184935 
L 338.173514 594.077823 
" clip-path="url(#p4b29c9b7e9)" style="fill: none; stroke: #494949; stroke-width: 4.5; stroke-linecap: round"/>
   </g>
   <g id="line2d_16">
    <path d="M 338.173514 603.482564 
" clip-path="url(#p4b29c9b7e9)" style="fill: none; stroke: #494949; stroke-width: 1.2; stroke-linecap: round"/>
    <g clip-path="url(#p4b29c9b7e9)">
     <use xlink:href="#mc48874b2fd" x="338.173514" y="603.482564" style="fill: #ffffff; stroke: #ffffff; stroke-width: 0.9"/>
    </g>
   </g>
   <g id="line2d_17">
    <path d="M 434.310137 608.184935 
L 434.310137 561.161229 
" clip-path="url(#p4b29c9b7e9)" style="fill: none; stroke: #494949; stroke-width: 1.5; stroke-linecap: round"/>
   </g>
   <g id="line2d_18">
    <path d="M 434.310137 608.184935 
L 434.310137 589.375452 
" clip-path="url(#p4b29c9b7e9)" style="fill: none; stroke: #494949; stroke-width: 4.5; stroke-linecap: round"/>
   </g>
   <g id="line2d_19">
    <path d="M 434.310137 603.482564 
" clip-path="url(#p4b29c9b7e9)" style="fill: none; stroke: #494949; stroke-width: 1.2; stroke-linecap: round"/>
    <g clip-path="url(#p4b29c9b7e9)">
     <use xlink:href="#mc48874b2fd" x="434.310137" y="603.482564" style="fill: #ffffff; stroke: #ffffff; stroke-width: 0.9"/>
    </g>
   </g>
   <g id="line2d_20">
    <path d="M 530.446759 608.184935 
L 530.446759 514.137523 
" clip-path="url(#p4b29c9b7e9)" style="fill: none; stroke: #494949; stroke-width: 1.5; stroke-linecap: round"/>
   </g>
   <g id="line2d_21">
    <path d="M 530.446759 608.184935 
L 530.446759 570.56597 
" clip-path="url(#p4b29c9b7e9)" style="fill: none; stroke: #494949; stroke-width: 4.5; stroke-linecap: round"/>
   </g>
   <g id="line2d_22">
    <path d="M 530.446759 598.780193 
" clip-path="url(#p4b29c9b7e9)" style="fill: none; stroke: #494949; stroke-width: 1.2; stroke-linecap: round"/>
    <g clip-path="url(#p4b29c9b7e9)">
     <use xlink:href="#mc48874b2fd" x="530.446759" y="598.780193" style="fill: #ffffff; stroke: #ffffff; stroke-width: 0.9"/>
    </g>
   </g>
   <g id="line2d_23">
    <path d="M 626.583381 608.184935 
L 626.583381 598.780193 
" clip-path="url(#p4b29c9b7e9)" style="fill: none; stroke: #494949; stroke-width: 1.5; stroke-linecap: round"/>
   </g>
   <g id="line2d_24">
    <path d="M 626.583381 608.184935 
L 626.583381 603.482564 
" clip-path="url(#p4b29c9b7e9)" style="fill: none; stroke: #494949; stroke-width: 4.5; stroke-linecap: round"/>
   </g>
   <g id="line2d_25">
    <path d="M 626.583381 608.184935 
" clip-path="url(#p4b29c9b7e9)" style="fill: none; stroke: #494949; stroke-width: 1.2; stroke-linecap: round"/>
    <g clip-path="url(#p4b29c9b7e9)">
     <use xlink:href="#mc48874b2fd" x="626.583381" y="608.184935" style="fill: #ffffff; stroke: #ffffff; stroke-width: 0.9"/>
    </g>
   </g>
   <g id="line2d_26">
    <path d="M 145.900269 553.629942 
L 145.900269 543.282229 
L 242.036892 543.282229 
L 242.036892 553.629942 
" style="fill: none; stroke: #333333; stroke-width: 1.5; stroke-linecap: round"/>
   </g>
   <g id="line2d_27">
    <path d="M 242.036892 514.849659 
L 242.036892 504.501946 
L 338.173514 504.501946 
L 338.173514 514.849659 
" style="fill: none; stroke: #333333; stroke-width: 1.5; stroke-linecap: round"/>
   </g>
   <g id="line2d_28">
    <path d="M 338.173514 476.069377 
L 338.173514 465.721663 
L 434.310137 465.721663 
L 434.310137 476.069377 
" style="fill: none; stroke: #333333; stroke-width: 1.5; stroke-linecap: round"/>
   </g>
   <g id="line2d_29">
    <path d="M 434.310137 437.289094 
L 434.310137 426.941381 
L 530.446759 426.941381 
L 530.446759 437.289094 
" style="fill: none; stroke: #333333; stroke-width: 1.5; stroke-linecap: round"/>
   </g>
   <g id="line2d_30">
    <path d="M 530.446759 398.508811 
L 530.446759 388.161098 
L 626.583381 388.161098 
L 626.583381 398.508811 
" style="fill: none; stroke: #333333; stroke-width: 1.5; stroke-linecap: round"/>
   </g>
   <g id="line2d_31">
    <path d="M 145.900269 437.289094 
L 145.900269 426.941381 
L 338.173514 426.941381 
L 338.173514 437.289094 
" style="fill: none; stroke: #333333; stroke-width: 1.5; stroke-linecap: round"/>
   </g>
   <g id="line2d_32">
    <path d="M 242.036892 398.508811 
L 242.036892 388.161098 
L 434.310137 388.161098 
L 434.310137 398.508811 
" style="fill: none; stroke: #333333; stroke-width: 1.5; stroke-linecap: round"/>
   </g>
   <g id="line2d_33">
    <path d="M 338.173514 359.728528 
L 338.173514 349.380815 
L 530.446759 349.380815 
L 530.446759 359.728528 
" style="fill: none; stroke: #333333; stroke-width: 1.5; stroke-linecap: round"/>
   </g>
   <g id="line2d_34">
    <path d="M 434.310137 320.948246 
L 434.310137 310.600533 
L 626.583381 310.600533 
L 626.583381 320.948246 
" style="fill: none; stroke: #333333; stroke-width: 1.5; stroke-linecap: round"/>
   </g>
   <g id="line2d_35">
    <path d="M 145.900269 282.167963 
L 145.900269 271.82025 
L 434.310137 271.82025 
L 434.310137 282.167963 
" style="fill: none; stroke: #333333; stroke-width: 1.5; stroke-linecap: round"/>
   </g>
   <g id="line2d_36">
    <path d="M 242.036892 243.38768 
L 242.036892 233.039967 
L 530.446759 233.039967 
L 530.446759 243.38768 
" style="fill: none; stroke: #333333; stroke-width: 1.5; stroke-linecap: round"/>
   </g>
   <g id="line2d_37">
    <path d="M 338.173514 204.607398 
L 338.173514 194.259685 
L 626.583381 194.259685 
L 626.583381 204.607398 
" style="fill: none; stroke: #333333; stroke-width: 1.5; stroke-linecap: round"/>
   </g>
   <g id="line2d_38">
    <path d="M 145.900269 165.827115 
L 145.900269 155.479402 
L 530.446759 155.479402 
L 530.446759 165.827115 
" style="fill: none; stroke: #333333; stroke-width: 1.5; stroke-linecap: round"/>
   </g>
   <g id="line2d_39">
    <path d="M 242.036892 127.046832 
L 242.036892 116.699119 
L 626.583381 116.699119 
L 626.583381 127.046832 
" style="fill: none; stroke: #333333; stroke-width: 1.5; stroke-linecap: round"/>
   </g>
   <g id="line2d_40">
    <path d="M 145.900269 88.26655 
L 145.900269 77.918837 
L 626.583381 77.918837 
L 626.583381 88.26655 
" style="fill: none; stroke: #333333; stroke-width: 1.5; stroke-linecap: round"/>
   </g>
   <g id="patch_3">
    <path d="M 79.566 645.866348 
L 79.566 40.416 
" style="fill: none; stroke: #cccccc; stroke-linejoin: miter; stroke-linecap: square"/>
   </g>
   <g id="patch_4">
    <path d="M 692.917651 645.866348 
L 692.917651 40.416 
" style="fill: none; stroke: #cccccc; stroke-linejoin: miter; stroke-linecap: square"/>
   </g>
   <g id="patch_5">
    <path d="M 79.566 645.866348 
L 692.917651 645.866348 
" style="fill: none; stroke: #cccccc; stroke-linejoin: miter; stroke-linecap: square"/>
   </g>
   <g id="patch_6">
    <path d="M 79.566 40.416 
L 692.917651 40.416 
" style="fill: none; stroke: #cccccc; stroke-linejoin: miter; stroke-linecap: square"/>
   </g>
   <g id="text_16">
    <!-- **** -->
    <g style="fill: #262626" transform="translate(179.022581 538.466229) scale(0.192 -0.192)">
     <defs>
      <path id="ArialMT-2a" d="M 200 3741 
L 344 4184 
Q 841 4009 1066 3881 
Q 1006 4447 1003 4659 
L 1456 4659 
Q 1447 4350 1384 3884 
Q 1706 4047 2122 4184 
L 2266 3741 
Q 1869 3609 1488 3566 
Q 1678 3400 2025 2975 
L 1650 2709 
Q 1469 2956 1222 3381 
Q 991 2941 816 2709 
L 447 2975 
Q 809 3422 966 3566 
Q 563 3644 200 3741 
z
" transform="scale(0.015625)"/>
     </defs>
     <use xlink:href="#ArialMT-2a"/>
     <use xlink:href="#ArialMT-2a" transform="translate(38.916016 0)"/>
     <use xlink:href="#ArialMT-2a" transform="translate(77.832031 0)"/>
     <use xlink:href="#ArialMT-2a" transform="translate(116.748047 0)"/>
    </g>
   </g>
   <g id="text_17">
    <!-- **** -->
    <g style="fill: #262626" transform="translate(275.159203 499.685946) scale(0.192 -0.192)">
     <use xlink:href="#ArialMT-2a"/>
     <use xlink:href="#ArialMT-2a" transform="translate(38.916016 0)"/>
     <use xlink:href="#ArialMT-2a" transform="translate(77.832031 0)"/>
     <use xlink:href="#ArialMT-2a" transform="translate(116.748047 0)"/>
    </g>
   </g>
   <g id="text_18">
    <!-- **** -->
    <g style="fill: #262626" transform="translate(371.295825 460.905663) scale(0.192 -0.192)">
     <use xlink:href="#ArialMT-2a"/>
     <use xlink:href="#ArialMT-2a" transform="translate(38.916016 0)"/>
     <use xlink:href="#ArialMT-2a" transform="translate(77.832031 0)"/>
     <use xlink:href="#ArialMT-2a" transform="translate(116.748047 0)"/>
    </g>
   </g>
   <g id="text_19">
    <!-- **** -->
    <g style="fill: #262626" transform="translate(467.432448 422.125381) scale(0.192 -0.192)">
     <use xlink:href="#ArialMT-2a"/>
     <use xlink:href="#ArialMT-2a" transform="translate(38.916016 0)"/>
     <use xlink:href="#ArialMT-2a" transform="translate(77.832031 0)"/>
     <use xlink:href="#ArialMT-2a" transform="translate(116.748047 0)"/>
    </g>
   </g>
   <g id="text_20">
    <!-- **** -->
    <g style="fill: #262626" transform="translate(563.56907 383.345098) scale(0.192 -0.192)">
     <use xlink:href="#ArialMT-2a"/>
     <use xlink:href="#ArialMT-2a" transform="translate(38.916016 0)"/>
     <use xlink:href="#ArialMT-2a" transform="translate(77.832031 0)"/>
     <use xlink:href="#ArialMT-2a" transform="translate(116.748047 0)"/>
    </g>
   </g>
   <g id="text_21">
    <!-- **** -->
    <g style="fill: #262626" transform="translate(227.090892 422.125381) scale(0.192 -0.192)">
     <use xlink:href="#ArialMT-2a"/>
     <use xlink:href="#ArialMT-2a" transform="translate(38.916016 0)"/>
     <use xlink:href="#ArialMT-2a" transform="translate(77.832031 0)"/>
     <use xlink:href="#ArialMT-2a" transform="translate(116.748047 0)"/>
    </g>
   </g>
   <g id="text_22">
    <!-- **** -->
    <g style="fill: #262626" transform="translate(323.227514 383.345098) scale(0.192 -0.192)">
     <use xlink:href="#ArialMT-2a"/>
     <use xlink:href="#ArialMT-2a" transform="translate(38.916016 0)"/>
     <use xlink:href="#ArialMT-2a" transform="translate(77.832031 0)"/>
     <use xlink:href="#ArialMT-2a" transform="translate(116.748047 0)"/>
    </g>
   </g>
   <g id="text_23">
    <!-- **** -->
    <g style="fill: #262626" transform="translate(419.364137 344.564815) scale(0.192 -0.192)">
     <use xlink:href="#ArialMT-2a"/>
     <use xlink:href="#ArialMT-2a" transform="translate(38.916016 0)"/>
     <use xlink:href="#ArialMT-2a" transform="translate(77.832031 0)"/>
     <use xlink:href="#ArialMT-2a" transform="translate(116.748047 0)"/>
    </g>
   </g>
   <g id="text_24">
    <!-- **** -->
    <g style="fill: #262626" transform="translate(515.500759 305.784533) scale(0.192 -0.192)">
     <use xlink:href="#ArialMT-2a"/>
     <use xlink:href="#ArialMT-2a" transform="translate(38.916016 0)"/>
     <use xlink:href="#ArialMT-2a" transform="translate(77.832031 0)"/>
     <use xlink:href="#ArialMT-2a" transform="translate(116.748047 0)"/>
    </g>
   </g>
   <g id="text_25">
    <!-- **** -->
    <g style="fill: #262626" transform="translate(275.159203 267.00425) scale(0.192 -0.192)">
     <use xlink:href="#ArialMT-2a"/>
     <use xlink:href="#ArialMT-2a" transform="translate(38.916016 0)"/>
     <use xlink:href="#ArialMT-2a" transform="translate(77.832031 0)"/>
     <use xlink:href="#ArialMT-2a" transform="translate(116.748047 0)"/>
    </g>
   </g>
   <g id="text_26">
    <!-- **** -->
    <g style="fill: #262626" transform="translate(371.295825 228.223967) scale(0.192 -0.192)">
     <use xlink:href="#ArialMT-2a"/>
     <use xlink:href="#ArialMT-2a" transform="translate(38.916016 0)"/>
     <use xlink:href="#ArialMT-2a" transform="translate(77.832031 0)"/>
     <use xlink:href="#ArialMT-2a" transform="translate(116.748047 0)"/>
    </g>
   </g>
   <g id="text_27">
    <!-- **** -->
    <g style="fill: #262626" transform="translate(467.432448 189.443685) scale(0.192 -0.192)">
     <use xlink:href="#ArialMT-2a"/>
     <use xlink:href="#ArialMT-2a" transform="translate(38.916016 0)"/>
     <use xlink:href="#ArialMT-2a" transform="translate(77.832031 0)"/>
     <use xlink:href="#ArialMT-2a" transform="translate(116.748047 0)"/>
    </g>
   </g>
   <g id="text_28">
    <!-- **** -->
    <g style="fill: #262626" transform="translate(323.227514 150.663402) scale(0.192 -0.192)">
     <use xlink:href="#ArialMT-2a"/>
     <use xlink:href="#ArialMT-2a" transform="translate(38.916016 0)"/>
     <use xlink:href="#ArialMT-2a" transform="translate(77.832031 0)"/>
     <use xlink:href="#ArialMT-2a" transform="translate(116.748047 0)"/>
    </g>
   </g>
   <g id="text_29">
    <!-- **** -->
    <g style="fill: #262626" transform="translate(419.364137 111.883119) scale(0.192 -0.192)">
     <use xlink:href="#ArialMT-2a"/>
     <use xlink:href="#ArialMT-2a" transform="translate(38.916016 0)"/>
     <use xlink:href="#ArialMT-2a" transform="translate(77.832031 0)"/>
     <use xlink:href="#ArialMT-2a" transform="translate(116.748047 0)"/>
    </g>
   </g>
   <g id="text_30">
    <!-- **** -->
    <g style="fill: #262626" transform="translate(371.295825 73.102837) scale(0.192 -0.192)">
     <use xlink:href="#ArialMT-2a"/>
     <use xlink:href="#ArialMT-2a" transform="translate(38.916016 0)"/>
     <use xlink:href="#ArialMT-2a" transform="translate(77.832031 0)"/>
     <use xlink:href="#ArialMT-2a" transform="translate(116.748047 0)"/>
    </g>
   </g>
   <g id="text_31">
    <!-- Ranked Number of Novel Discovery Compounds per Fold per Target -->
    <g style="fill: #262626" transform="translate(95.634825 34.416) scale(0.192 -0.192)">
     <defs>
      <path id="ArialMT-6b" d="M 425 0 
L 425 4581 
L 988 4581 
L 988 1969 
L 2319 3319 
L 3047 3319 
L 1778 2088 
L 3175 0 
L 2481 0 
L 1384 1697 
L 988 1316 
L 988 0 
L 425 0 
z
" transform="scale(0.015625)"/>
      <path id="ArialMT-4e" d="M 488 0 
L 488 4581 
L 1109 4581 
L 3516 984 
L 3516 4581 
L 4097 4581 
L 4097 0 
L 3475 0 
L 1069 3600 
L 1069 0 
L 488 0 
z
" transform="scale(0.015625)"/>
      <path id="ArialMT-54" d="M 1659 0 
L 1659 4041 
L 150 4041 
L 150 4581 
L 3781 4581 
L 3781 4041 
L 2266 4041 
L 2266 0 
L 1659 0 
z
" transform="scale(0.015625)"/>
     </defs>
     <use xlink:href="#ArialMT-52"/>
     <use xlink:href="#ArialMT-61" transform="translate(72.216797 0)"/>
     <use xlink:href="#ArialMT-6e" transform="translate(127.832031 0)"/>
     <use xlink:href="#ArialMT-6b" transform="translate(183.447266 0)"/>
     <use xlink:href="#ArialMT-65" transform="translate(233.447266 0)"/>
     <use xlink:href="#ArialMT-64" transform="translate(289.0625 0)"/>
     <use xlink:href="#ArialMT-20" transform="translate(344.677734 0)"/>
     <use xlink:href="#ArialMT-4e" transform="translate(372.460938 0)"/>
     <use xlink:href="#ArialMT-75" transform="translate(444.677734 0)"/>
     <use xlink:href="#ArialMT-6d" transform="translate(500.292969 0)"/>
     <use xlink:href="#ArialMT-62" transform="translate(583.59375 0)"/>
     <use xlink:href="#ArialMT-65" transform="translate(639.208984 0)"/>
     <use xlink:href="#ArialMT-72" transform="translate(694.824219 0)"/>
     <use xlink:href="#ArialMT-20" transform="translate(728.125 0)"/>
     <use xlink:href="#ArialMT-6f" transform="translate(755.908203 0)"/>
     <use xlink:href="#ArialMT-66" transform="translate(811.523438 0)"/>
     <use xlink:href="#ArialMT-20" transform="translate(839.306641 0)"/>
     <use xlink:href="#ArialMT-4e" transform="translate(867.089844 0)"/>
     <use xlink:href="#ArialMT-6f" transform="translate(939.306641 0)"/>
     <use xlink:href="#ArialMT-76" transform="translate(994.921875 0)"/>
     <use xlink:href="#ArialMT-65" transform="translate(1044.921875 0)"/>
     <use xlink:href="#ArialMT-6c" transform="translate(1100.537109 0)"/>
     <use xlink:href="#ArialMT-20" transform="translate(1122.753906 0)"/>
     <use xlink:href="#ArialMT-44" transform="translate(1150.537109 0)"/>
     <use xlink:href="#ArialMT-69" transform="translate(1222.753906 0)"/>
     <use xlink:href="#ArialMT-73" transform="translate(1244.970703 0)"/>
     <use xlink:href="#ArialMT-63" transform="translate(1294.970703 0)"/>
     <use xlink:href="#ArialMT-6f" transform="translate(1344.970703 0)"/>
     <use xlink:href="#ArialMT-76" transform="translate(1400.585938 0)"/>
     <use xlink:href="#ArialMT-65" transform="translate(1450.585938 0)"/>
     <use xlink:href="#ArialMT-72" transform="translate(1506.201172 0)"/>
     <use xlink:href="#ArialMT-79" transform="translate(1539.501953 0)"/>
     <use xlink:href="#ArialMT-20" transform="translate(1589.501953 0)"/>
     <use xlink:href="#ArialMT-43" transform="translate(1617.285156 0)"/>
     <use xlink:href="#ArialMT-6f" transform="translate(1689.501953 0)"/>
     <use xlink:href="#ArialMT-6d" transform="translate(1745.117188 0)"/>
     <use xlink:href="#ArialMT-70" transform="translate(1828.417969 0)"/>
     <use xlink:href="#ArialMT-6f" transform="translate(1884.033203 0)"/>
     <use xlink:href="#ArialMT-75" transform="translate(1939.648438 0)"/>
     <use xlink:href="#ArialMT-6e" transform="translate(1995.263672 0)"/>
     <use xlink:href="#ArialMT-64" transform="translate(2050.878906 0)"/>
     <use xlink:href="#ArialMT-73" transform="translate(2106.494141 0)"/>
     <use xlink:href="#ArialMT-20" transform="translate(2156.494141 0)"/>
     <use xlink:href="#ArialMT-70" transform="translate(2184.277344 0)"/>
     <use xlink:href="#ArialMT-65" transform="translate(2239.892578 0)"/>
     <use xlink:href="#ArialMT-72" transform="translate(2295.507812 0)"/>
     <use xlink:href="#ArialMT-20" transform="translate(2328.808594 0)"/>
     <use xlink:href="#ArialMT-46" transform="translate(2356.591797 0)"/>
     <use xlink:href="#ArialMT-6f" transform="translate(2417.675781 0)"/>
     <use xlink:href="#ArialMT-6c" transform="translate(2473.291016 0)"/>
     <use xlink:href="#ArialMT-64" transform="translate(2495.507812 0)"/>
     <use xlink:href="#ArialMT-20" transform="translate(2551.123047 0)"/>
     <use xlink:href="#ArialMT-70" transform="translate(2578.90625 0)"/>
     <use xlink:href="#ArialMT-65" transform="translate(2634.521484 0)"/>
     <use xlink:href="#ArialMT-72" transform="translate(2690.136719 0)"/>
     <use xlink:href="#ArialMT-20" transform="translate(2723.4375 0)"/>
     <use xlink:href="#ArialMT-54" transform="translate(2749.470703 0)"/>
     <use xlink:href="#ArialMT-61" transform="translate(2799.429688 0)"/>
     <use xlink:href="#ArialMT-72" transform="translate(2855.044922 0)"/>
     <use xlink:href="#ArialMT-67" transform="translate(2888.345703 0)"/>
     <use xlink:href="#ArialMT-65" transform="translate(2943.960938 0)"/>
     <use xlink:href="#ArialMT-74" transform="translate(2999.576172 0)"/>
    </g>
   </g>
  </g>
 </g>
 <defs>
  <clipPath id="p4b29c9b7e9">
   <rect x="79.566" y="40.416" width="613.351651" height="605.450348"/>
  </clipPath>
 </defs>
</svg>
