<?xml version="1.0" encoding="utf-8" standalone="no"?>
<!DOCTYPE svg PUBLIC "-//W3C//DTD SVG 1.1//EN"
  "http://www.w3.org/Graphics/SVG/1.1/DTD/svg11.dtd">
<svg xmlns:xlink="http://www.w3.org/1999/xlink" width="576pt" height="936pt" viewBox="0 0 576 936" xmlns="http://www.w3.org/2000/svg" version="1.1">
 <metadata>
  <rdf:RDF xmlns:dc="http://purl.org/dc/elements/1.1/" xmlns:cc="http://creativecommons.org/ns#" xmlns:rdf="http://www.w3.org/1999/02/22-rdf-syntax-ns#">
   <cc:Work>
    <dc:type rdf:resource="http://purl.org/dc/dcmitype/StillImage"/>
    <dc:date>2025-02-23T00:14:25.750641</dc:date>
    <dc:format>image/svg+xml</dc:format>
    <dc:creator>
     <cc:Agent>
      <dc:title>Matplotlib v3.10.0, https://matplotlib.org/</dc:title>
     </cc:Agent>
    </dc:creator>
   </cc:Work>
  </rdf:RDF>
 </metadata>
 <defs>
  <style type="text/css">*{stroke-linejoin: round; stroke-linecap: butt}</style>
 </defs>
 <g id="figure_1">
  <g id="patch_1">
   <path d="M 0 936 
L 576 936 
L 576 0 
L 0 0 
z
" style="fill: #ffffff"/>
  </g>
  <g id="axes_1">
   <g id="patch_2">
    <path d="M 89.67 726.580631 
L 542.606786 726.580631 
L 542.606786 43.296 
L 89.67 43.296 
z
" style="fill: #ffffff"/>
   </g>
   <g id="matplotlib.axis_1">
    <g id="xtick_1">
     <g id="text_1">
      <!-- RandomSplit -->
      <g style="fill: #262626" transform="translate(108.345968 814.367284) rotate(-45) scale(0.165 -0.165)">
       <defs>
        <path id="ArialMT-52" d="M 503 0 
L 503 4581 
L 2534 4581 
Q 3147 4581 3465 4457 
Q 3784 4334 3975 4021 
Q 4166 3709 4166 3331 
Q 4166 2844 3850 2509 
Q 3534 2175 2875 2084 
Q 3116 1969 3241 1856 
Q 3506 1613 3744 1247 
L 4541 0 
L 3778 0 
L 3172 953 
Q 2906 1366 2734 1584 
Q 2563 1803 2427 1890 
Q 2291 1978 2150 2013 
Q 2047 2034 1813 2034 
L 1109 2034 
L 1109 0 
L 503 0 
z
M 1109 2559 
L 2413 2559 
Q 2828 2559 3062 2645 
Q 3297 2731 3419 2920 
Q 3541 3109 3541 3331 
Q 3541 3656 3305 3865 
Q 3069 4075 2559 4075 
L 1109 4075 
L 1109 2559 
z
" transform="scale(0.015625)"/>
        <path id="ArialMT-61" d="M 2588 409 
Q 2275 144 1986 34 
Q 1697 -75 1366 -75 
Q 819 -75 525 192 
Q 231 459 231 875 
Q 231 1119 342 1320 
Q 453 1522 633 1644 
Q 813 1766 1038 1828 
Q 1203 1872 1538 1913 
Q 2219 1994 2541 2106 
Q 2544 2222 2544 2253 
Q 2544 2597 2384 2738 
Q 2169 2928 1744 2928 
Q 1347 2928 1158 2789 
Q 969 2650 878 2297 
L 328 2372 
Q 403 2725 575 2942 
Q 747 3159 1072 3276 
Q 1397 3394 1825 3394 
Q 2250 3394 2515 3294 
Q 2781 3194 2906 3042 
Q 3031 2891 3081 2659 
Q 3109 2516 3109 2141 
L 3109 1391 
Q 3109 606 3145 398 
Q 3181 191 3288 0 
L 2700 0 
Q 2613 175 2588 409 
z
M 2541 1666 
Q 2234 1541 1622 1453 
Q 1275 1403 1131 1340 
Q 988 1278 909 1158 
Q 831 1038 831 891 
Q 831 666 1001 516 
Q 1172 366 1500 366 
Q 1825 366 2078 508 
Q 2331 650 2450 897 
Q 2541 1088 2541 1459 
L 2541 1666 
z
" transform="scale(0.015625)"/>
        <path id="ArialMT-6e" d="M 422 0 
L 422 3319 
L 928 3319 
L 928 2847 
Q 1294 3394 1984 3394 
Q 2284 3394 2536 3286 
Q 2788 3178 2913 3003 
Q 3038 2828 3088 2588 
Q 3119 2431 3119 2041 
L 3119 0 
L 2556 0 
L 2556 2019 
Q 2556 2363 2490 2533 
Q 2425 2703 2258 2804 
Q 2091 2906 1866 2906 
Q 1506 2906 1245 2678 
Q 984 2450 984 1813 
L 984 0 
L 422 0 
z
" transform="scale(0.015625)"/>
        <path id="ArialMT-64" d="M 2575 0 
L 2575 419 
Q 2259 -75 1647 -75 
Q 1250 -75 917 144 
Q 584 363 401 755 
Q 219 1147 219 1656 
Q 219 2153 384 2558 
Q 550 2963 881 3178 
Q 1213 3394 1622 3394 
Q 1922 3394 2156 3267 
Q 2391 3141 2538 2938 
L 2538 4581 
L 3097 4581 
L 3097 0 
L 2575 0 
z
M 797 1656 
Q 797 1019 1065 703 
Q 1334 388 1700 388 
Q 2069 388 2326 689 
Q 2584 991 2584 1609 
Q 2584 2291 2321 2609 
Q 2059 2928 1675 2928 
Q 1300 2928 1048 2622 
Q 797 2316 797 1656 
z
" transform="scale(0.015625)"/>
        <path id="ArialMT-6f" d="M 213 1659 
Q 213 2581 725 3025 
Q 1153 3394 1769 3394 
Q 2453 3394 2887 2945 
Q 3322 2497 3322 1706 
Q 3322 1066 3130 698 
Q 2938 331 2570 128 
Q 2203 -75 1769 -75 
Q 1072 -75 642 372 
Q 213 819 213 1659 
z
M 791 1659 
Q 791 1022 1069 705 
Q 1347 388 1769 388 
Q 2188 388 2466 706 
Q 2744 1025 2744 1678 
Q 2744 2294 2464 2611 
Q 2184 2928 1769 2928 
Q 1347 2928 1069 2612 
Q 791 2297 791 1659 
z
" transform="scale(0.015625)"/>
        <path id="ArialMT-6d" d="M 422 0 
L 422 3319 
L 925 3319 
L 925 2853 
Q 1081 3097 1340 3245 
Q 1600 3394 1931 3394 
Q 2300 3394 2536 3241 
Q 2772 3088 2869 2813 
Q 3263 3394 3894 3394 
Q 4388 3394 4653 3120 
Q 4919 2847 4919 2278 
L 4919 0 
L 4359 0 
L 4359 2091 
Q 4359 2428 4304 2576 
Q 4250 2725 4106 2815 
Q 3963 2906 3769 2906 
Q 3419 2906 3187 2673 
Q 2956 2441 2956 1928 
L 2956 0 
L 2394 0 
L 2394 2156 
Q 2394 2531 2256 2718 
Q 2119 2906 1806 2906 
Q 1569 2906 1367 2781 
Q 1166 2656 1075 2415 
Q 984 2175 984 1722 
L 984 0 
L 422 0 
z
" transform="scale(0.015625)"/>
        <path id="ArialMT-53" d="M 288 1472 
L 859 1522 
Q 900 1178 1048 958 
Q 1197 738 1509 602 
Q 1822 466 2213 466 
Q 2559 466 2825 569 
Q 3091 672 3220 851 
Q 3350 1031 3350 1244 
Q 3350 1459 3225 1620 
Q 3100 1781 2813 1891 
Q 2628 1963 1997 2114 
Q 1366 2266 1113 2400 
Q 784 2572 623 2826 
Q 463 3081 463 3397 
Q 463 3744 659 4045 
Q 856 4347 1234 4503 
Q 1613 4659 2075 4659 
Q 2584 4659 2973 4495 
Q 3363 4331 3572 4012 
Q 3781 3694 3797 3291 
L 3216 3247 
Q 3169 3681 2898 3903 
Q 2628 4125 2100 4125 
Q 1550 4125 1298 3923 
Q 1047 3722 1047 3438 
Q 1047 3191 1225 3031 
Q 1400 2872 2139 2705 
Q 2878 2538 3153 2413 
Q 3553 2228 3743 1945 
Q 3934 1663 3934 1294 
Q 3934 928 3725 604 
Q 3516 281 3123 101 
Q 2731 -78 2241 -78 
Q 1619 -78 1198 103 
Q 778 284 539 648 
Q 300 1013 288 1472 
z
" transform="scale(0.015625)"/>
        <path id="ArialMT-70" d="M 422 -1272 
L 422 3319 
L 934 3319 
L 934 2888 
Q 1116 3141 1344 3267 
Q 1572 3394 1897 3394 
Q 2322 3394 2647 3175 
Q 2972 2956 3137 2557 
Q 3303 2159 3303 1684 
Q 3303 1175 3120 767 
Q 2938 359 2589 142 
Q 2241 -75 1856 -75 
Q 1575 -75 1351 44 
Q 1128 163 984 344 
L 984 -1272 
L 422 -1272 
z
M 931 1641 
Q 931 1000 1190 694 
Q 1450 388 1819 388 
Q 2194 388 2461 705 
Q 2728 1022 2728 1688 
Q 2728 2322 2467 2637 
Q 2206 2953 1844 2953 
Q 1484 2953 1207 2617 
Q 931 2281 931 1641 
z
" transform="scale(0.015625)"/>
        <path id="ArialMT-6c" d="M 409 0 
L 409 4581 
L 972 4581 
L 972 0 
L 409 0 
z
" transform="scale(0.015625)"/>
        <path id="ArialMT-69" d="M 425 3934 
L 425 4581 
L 988 4581 
L 988 3934 
L 425 3934 
z
M 425 0 
L 425 3319 
L 988 3319 
L 988 0 
L 425 0 
z
" transform="scale(0.015625)"/>
        <path id="ArialMT-74" d="M 1650 503 
L 1731 6 
Q 1494 -44 1306 -44 
Q 1000 -44 831 53 
Q 663 150 594 308 
Q 525 466 525 972 
L 525 2881 
L 113 2881 
L 113 3319 
L 525 3319 
L 525 4141 
L 1084 4478 
L 1084 3319 
L 1650 3319 
L 1650 2881 
L 1084 2881 
L 1084 941 
Q 1084 700 1114 631 
Q 1144 563 1211 522 
Q 1278 481 1403 481 
Q 1497 481 1650 503 
z
" transform="scale(0.015625)"/>
       </defs>
       <use xlink:href="#ArialMT-52"/>
       <use xlink:href="#ArialMT-61" transform="translate(72.216797 0)"/>
       <use xlink:href="#ArialMT-6e" transform="translate(127.832031 0)"/>
       <use xlink:href="#ArialMT-64" transform="translate(183.447266 0)"/>
       <use xlink:href="#ArialMT-6f" transform="translate(239.0625 0)"/>
       <use xlink:href="#ArialMT-6d" transform="translate(294.677734 0)"/>
       <use xlink:href="#ArialMT-53" transform="translate(377.978516 0)"/>
       <use xlink:href="#ArialMT-70" transform="translate(444.677734 0)"/>
       <use xlink:href="#ArialMT-6c" transform="translate(500.292969 0)"/>
       <use xlink:href="#ArialMT-69" transform="translate(522.509766 0)"/>
       <use xlink:href="#ArialMT-74" transform="translate(544.726562 0)"/>
      </g>
     </g>
    </g>
    <g id="xtick_2">
     <g id="text_2">
      <!-- ScaffoldSplit -->
      <g style="fill: #262626" transform="translate(180.412035 812.221602) rotate(-45) scale(0.165 -0.165)">
       <defs>
        <path id="ArialMT-63" d="M 2588 1216 
L 3141 1144 
Q 3050 572 2676 248 
Q 2303 -75 1759 -75 
Q 1078 -75 664 370 
Q 250 816 250 1647 
Q 250 2184 428 2587 
Q 606 2991 970 3192 
Q 1334 3394 1763 3394 
Q 2303 3394 2647 3120 
Q 2991 2847 3088 2344 
L 2541 2259 
Q 2463 2594 2264 2762 
Q 2066 2931 1784 2931 
Q 1359 2931 1093 2626 
Q 828 2322 828 1663 
Q 828 994 1084 691 
Q 1341 388 1753 388 
Q 2084 388 2306 591 
Q 2528 794 2588 1216 
z
" transform="scale(0.015625)"/>
        <path id="ArialMT-66" d="M 556 0 
L 556 2881 
L 59 2881 
L 59 3319 
L 556 3319 
L 556 3672 
Q 556 4006 616 4169 
Q 697 4388 901 4523 
Q 1106 4659 1475 4659 
Q 1713 4659 2000 4603 
L 1916 4113 
Q 1741 4144 1584 4144 
Q 1328 4144 1222 4034 
Q 1116 3925 1116 3625 
L 1116 3319 
L 1763 3319 
L 1763 2881 
L 1116 2881 
L 1116 0 
L 556 0 
z
" transform="scale(0.015625)"/>
       </defs>
       <use xlink:href="#ArialMT-53"/>
       <use xlink:href="#ArialMT-63" transform="translate(66.699219 0)"/>
       <use xlink:href="#ArialMT-61" transform="translate(116.699219 0)"/>
       <use xlink:href="#ArialMT-66" transform="translate(172.314453 0)"/>
       <use xlink:href="#ArialMT-66" transform="translate(198.347656 0)"/>
       <use xlink:href="#ArialMT-6f" transform="translate(226.130859 0)"/>
       <use xlink:href="#ArialMT-6c" transform="translate(281.746094 0)"/>
       <use xlink:href="#ArialMT-64" transform="translate(303.962891 0)"/>
       <use xlink:href="#ArialMT-53" transform="translate(359.578125 0)"/>
       <use xlink:href="#ArialMT-70" transform="translate(426.277344 0)"/>
       <use xlink:href="#ArialMT-6c" transform="translate(481.892578 0)"/>
       <use xlink:href="#ArialMT-69" transform="translate(504.109375 0)"/>
       <use xlink:href="#ArialMT-74" transform="translate(526.326172 0)"/>
      </g>
     </g>
    </g>
    <g id="xtick_3">
     <g id="text_3">
      <!-- SortedStepForward_LogD -->
      <g style="fill: #262626" transform="translate(215.892122 883.111156) rotate(-45) scale(0.165 -0.165)">
       <defs>
        <path id="ArialMT-72" d="M 416 0 
L 416 3319 
L 922 3319 
L 922 2816 
Q 1116 3169 1280 3281 
Q 1444 3394 1641 3394 
Q 1925 3394 2219 3213 
L 2025 2691 
Q 1819 2813 1613 2813 
Q 1428 2813 1281 2702 
Q 1134 2591 1072 2394 
Q 978 2094 978 1738 
L 978 0 
L 416 0 
z
" transform="scale(0.015625)"/>
        <path id="ArialMT-65" d="M 2694 1069 
L 3275 997 
Q 3138 488 2766 206 
Q 2394 -75 1816 -75 
Q 1088 -75 661 373 
Q 234 822 234 1631 
Q 234 2469 665 2931 
Q 1097 3394 1784 3394 
Q 2450 3394 2872 2941 
Q 3294 2488 3294 1666 
Q 3294 1616 3291 1516 
L 816 1516 
Q 847 969 1125 678 
Q 1403 388 1819 388 
Q 2128 388 2347 550 
Q 2566 713 2694 1069 
z
M 847 1978 
L 2700 1978 
Q 2663 2397 2488 2606 
Q 2219 2931 1791 2931 
Q 1403 2931 1139 2672 
Q 875 2413 847 1978 
z
" transform="scale(0.015625)"/>
        <path id="ArialMT-46" d="M 525 0 
L 525 4581 
L 3616 4581 
L 3616 4041 
L 1131 4041 
L 1131 2622 
L 3281 2622 
L 3281 2081 
L 1131 2081 
L 1131 0 
L 525 0 
z
" transform="scale(0.015625)"/>
        <path id="ArialMT-77" d="M 1034 0 
L 19 3319 
L 600 3319 
L 1128 1403 
L 1325 691 
Q 1338 744 1497 1375 
L 2025 3319 
L 2603 3319 
L 3100 1394 
L 3266 759 
L 3456 1400 
L 4025 3319 
L 4572 3319 
L 3534 0 
L 2950 0 
L 2422 1988 
L 2294 2553 
L 1622 0 
L 1034 0 
z
" transform="scale(0.015625)"/>
        <path id="ArialMT-5f" d="M -97 -1272 
L -97 -866 
L 3631 -866 
L 3631 -1272 
L -97 -1272 
z
" transform="scale(0.015625)"/>
        <path id="ArialMT-4c" d="M 469 0 
L 469 4581 
L 1075 4581 
L 1075 541 
L 3331 541 
L 3331 0 
L 469 0 
z
" transform="scale(0.015625)"/>
        <path id="ArialMT-67" d="M 319 -275 
L 866 -356 
Q 900 -609 1056 -725 
Q 1266 -881 1628 -881 
Q 2019 -881 2231 -725 
Q 2444 -569 2519 -288 
Q 2563 -116 2559 434 
Q 2191 0 1641 0 
Q 956 0 581 494 
Q 206 988 206 1678 
Q 206 2153 378 2554 
Q 550 2956 876 3175 
Q 1203 3394 1644 3394 
Q 2231 3394 2613 2919 
L 2613 3319 
L 3131 3319 
L 3131 450 
Q 3131 -325 2973 -648 
Q 2816 -972 2473 -1159 
Q 2131 -1347 1631 -1347 
Q 1038 -1347 672 -1080 
Q 306 -813 319 -275 
z
M 784 1719 
Q 784 1066 1043 766 
Q 1303 466 1694 466 
Q 2081 466 2343 764 
Q 2606 1063 2606 1700 
Q 2606 2309 2336 2618 
Q 2066 2928 1684 2928 
Q 1309 2928 1046 2623 
Q 784 2319 784 1719 
z
" transform="scale(0.015625)"/>
        <path id="ArialMT-44" d="M 494 0 
L 494 4581 
L 2072 4581 
Q 2606 4581 2888 4516 
Q 3281 4425 3559 4188 
Q 3922 3881 4101 3404 
Q 4281 2928 4281 2316 
Q 4281 1794 4159 1391 
Q 4038 988 3847 723 
Q 3656 459 3429 307 
Q 3203 156 2883 78 
Q 2563 0 2147 0 
L 494 0 
z
M 1100 541 
L 2078 541 
Q 2531 541 2789 625 
Q 3047 709 3200 863 
Q 3416 1078 3536 1442 
Q 3656 1806 3656 2325 
Q 3656 3044 3420 3430 
Q 3184 3816 2847 3947 
Q 2603 4041 2063 4041 
L 1100 4041 
L 1100 541 
z
" transform="scale(0.015625)"/>
       </defs>
       <use xlink:href="#ArialMT-53"/>
       <use xlink:href="#ArialMT-6f" transform="translate(66.699219 0)"/>
       <use xlink:href="#ArialMT-72" transform="translate(122.314453 0)"/>
       <use xlink:href="#ArialMT-74" transform="translate(155.615234 0)"/>
       <use xlink:href="#ArialMT-65" transform="translate(183.398438 0)"/>
       <use xlink:href="#ArialMT-64" transform="translate(239.013672 0)"/>
       <use xlink:href="#ArialMT-53" transform="translate(294.628906 0)"/>
       <use xlink:href="#ArialMT-74" transform="translate(361.328125 0)"/>
       <use xlink:href="#ArialMT-65" transform="translate(389.111328 0)"/>
       <use xlink:href="#ArialMT-70" transform="translate(444.726562 0)"/>
       <use xlink:href="#ArialMT-46" transform="translate(500.341797 0)"/>
       <use xlink:href="#ArialMT-6f" transform="translate(561.425781 0)"/>
       <use xlink:href="#ArialMT-72" transform="translate(617.041016 0)"/>
       <use xlink:href="#ArialMT-77" transform="translate(650.341797 0)"/>
       <use xlink:href="#ArialMT-61" transform="translate(722.558594 0)"/>
       <use xlink:href="#ArialMT-72" transform="translate(778.173828 0)"/>
       <use xlink:href="#ArialMT-64" transform="translate(811.474609 0)"/>
       <use xlink:href="#ArialMT-5f" transform="translate(867.089844 0)"/>
       <use xlink:href="#ArialMT-4c" transform="translate(922.705078 0)"/>
       <use xlink:href="#ArialMT-6f" transform="translate(978.320312 0)"/>
       <use xlink:href="#ArialMT-67" transform="translate(1033.935547 0)"/>
       <use xlink:href="#ArialMT-44" transform="translate(1089.550781 0)"/>
      </g>
     </g>
    </g>
    <g id="xtick_4">
     <g id="text_4">
      <!-- SortedStepForward_LogP -->
      <g style="fill: #262626" transform="translate(287.20711 882.467633) rotate(-45) scale(0.165 -0.165)">
       <defs>
        <path id="ArialMT-50" d="M 494 0 
L 494 4581 
L 2222 4581 
Q 2678 4581 2919 4538 
Q 3256 4481 3484 4323 
Q 3713 4166 3852 3881 
Q 3991 3597 3991 3256 
Q 3991 2672 3619 2267 
Q 3247 1863 2275 1863 
L 1100 1863 
L 1100 0 
L 494 0 
z
M 1100 2403 
L 2284 2403 
Q 2872 2403 3119 2622 
Q 3366 2841 3366 3238 
Q 3366 3525 3220 3729 
Q 3075 3934 2838 4000 
Q 2684 4041 2272 4041 
L 1100 4041 
L 1100 2403 
z
" transform="scale(0.015625)"/>
       </defs>
       <use xlink:href="#ArialMT-53"/>
       <use xlink:href="#ArialMT-6f" transform="translate(66.699219 0)"/>
       <use xlink:href="#ArialMT-72" transform="translate(122.314453 0)"/>
       <use xlink:href="#ArialMT-74" transform="translate(155.615234 0)"/>
       <use xlink:href="#ArialMT-65" transform="translate(183.398438 0)"/>
       <use xlink:href="#ArialMT-64" transform="translate(239.013672 0)"/>
       <use xlink:href="#ArialMT-53" transform="translate(294.628906 0)"/>
       <use xlink:href="#ArialMT-74" transform="translate(361.328125 0)"/>
       <use xlink:href="#ArialMT-65" transform="translate(389.111328 0)"/>
       <use xlink:href="#ArialMT-70" transform="translate(444.726562 0)"/>
       <use xlink:href="#ArialMT-46" transform="translate(500.341797 0)"/>
       <use xlink:href="#ArialMT-6f" transform="translate(561.425781 0)"/>
       <use xlink:href="#ArialMT-72" transform="translate(617.041016 0)"/>
       <use xlink:href="#ArialMT-77" transform="translate(650.341797 0)"/>
       <use xlink:href="#ArialMT-61" transform="translate(722.558594 0)"/>
       <use xlink:href="#ArialMT-72" transform="translate(778.173828 0)"/>
       <use xlink:href="#ArialMT-64" transform="translate(811.474609 0)"/>
       <use xlink:href="#ArialMT-5f" transform="translate(867.089844 0)"/>
       <use xlink:href="#ArialMT-4c" transform="translate(922.705078 0)"/>
       <use xlink:href="#ArialMT-6f" transform="translate(978.320312 0)"/>
       <use xlink:href="#ArialMT-67" transform="translate(1033.935547 0)"/>
       <use xlink:href="#ArialMT-50" transform="translate(1089.550781 0)"/>
      </g>
     </g>
    </g>
    <g id="xtick_5">
     <g id="text_5">
      <!-- SortedStepForward_MCE18 -->
      <g style="fill: #262626" transform="translate(352.440538 894.123957) rotate(-45) scale(0.165 -0.165)">
       <defs>
        <path id="ArialMT-4d" d="M 475 0 
L 475 4581 
L 1388 4581 
L 2472 1338 
Q 2622 884 2691 659 
Q 2769 909 2934 1394 
L 4031 4581 
L 4847 4581 
L 4847 0 
L 4263 0 
L 4263 3834 
L 2931 0 
L 2384 0 
L 1059 3900 
L 1059 0 
L 475 0 
z
" transform="scale(0.015625)"/>
        <path id="ArialMT-43" d="M 3763 1606 
L 4369 1453 
Q 4178 706 3683 314 
Q 3188 -78 2472 -78 
Q 1731 -78 1267 223 
Q 803 525 561 1097 
Q 319 1669 319 2325 
Q 319 3041 592 3573 
Q 866 4106 1370 4382 
Q 1875 4659 2481 4659 
Q 3169 4659 3637 4309 
Q 4106 3959 4291 3325 
L 3694 3184 
Q 3534 3684 3231 3912 
Q 2928 4141 2469 4141 
Q 1941 4141 1586 3887 
Q 1231 3634 1087 3207 
Q 944 2781 944 2328 
Q 944 1744 1114 1308 
Q 1284 872 1643 656 
Q 2003 441 2422 441 
Q 2931 441 3284 734 
Q 3638 1028 3763 1606 
z
" transform="scale(0.015625)"/>
        <path id="ArialMT-45" d="M 506 0 
L 506 4581 
L 3819 4581 
L 3819 4041 
L 1113 4041 
L 1113 2638 
L 3647 2638 
L 3647 2100 
L 1113 2100 
L 1113 541 
L 3925 541 
L 3925 0 
L 506 0 
z
" transform="scale(0.015625)"/>
        <path id="ArialMT-31" d="M 2384 0 
L 1822 0 
L 1822 3584 
Q 1619 3391 1289 3197 
Q 959 3003 697 2906 
L 697 3450 
Q 1169 3672 1522 3987 
Q 1875 4303 2022 4600 
L 2384 4600 
L 2384 0 
z
" transform="scale(0.015625)"/>
        <path id="ArialMT-38" d="M 1131 2484 
Q 781 2613 612 2850 
Q 444 3088 444 3419 
Q 444 3919 803 4259 
Q 1163 4600 1759 4600 
Q 2359 4600 2725 4251 
Q 3091 3903 3091 3403 
Q 3091 3084 2923 2848 
Q 2756 2613 2416 2484 
Q 2838 2347 3058 2040 
Q 3278 1734 3278 1309 
Q 3278 722 2862 322 
Q 2447 -78 1769 -78 
Q 1091 -78 675 323 
Q 259 725 259 1325 
Q 259 1772 486 2073 
Q 713 2375 1131 2484 
z
M 1019 3438 
Q 1019 3113 1228 2906 
Q 1438 2700 1772 2700 
Q 2097 2700 2305 2904 
Q 2513 3109 2513 3406 
Q 2513 3716 2298 3927 
Q 2084 4138 1766 4138 
Q 1444 4138 1231 3931 
Q 1019 3725 1019 3438 
z
M 838 1322 
Q 838 1081 952 856 
Q 1066 631 1291 507 
Q 1516 384 1775 384 
Q 2178 384 2440 643 
Q 2703 903 2703 1303 
Q 2703 1709 2433 1975 
Q 2163 2241 1756 2241 
Q 1359 2241 1098 1978 
Q 838 1716 838 1322 
z
" transform="scale(0.015625)"/>
       </defs>
       <use xlink:href="#ArialMT-53"/>
       <use xlink:href="#ArialMT-6f" transform="translate(66.699219 0)"/>
       <use xlink:href="#ArialMT-72" transform="translate(122.314453 0)"/>
       <use xlink:href="#ArialMT-74" transform="translate(155.615234 0)"/>
       <use xlink:href="#ArialMT-65" transform="translate(183.398438 0)"/>
       <use xlink:href="#ArialMT-64" transform="translate(239.013672 0)"/>
       <use xlink:href="#ArialMT-53" transform="translate(294.628906 0)"/>
       <use xlink:href="#ArialMT-74" transform="translate(361.328125 0)"/>
       <use xlink:href="#ArialMT-65" transform="translate(389.111328 0)"/>
       <use xlink:href="#ArialMT-70" transform="translate(444.726562 0)"/>
       <use xlink:href="#ArialMT-46" transform="translate(500.341797 0)"/>
       <use xlink:href="#ArialMT-6f" transform="translate(561.425781 0)"/>
       <use xlink:href="#ArialMT-72" transform="translate(617.041016 0)"/>
       <use xlink:href="#ArialMT-77" transform="translate(650.341797 0)"/>
       <use xlink:href="#ArialMT-61" transform="translate(722.558594 0)"/>
       <use xlink:href="#ArialMT-72" transform="translate(778.173828 0)"/>
       <use xlink:href="#ArialMT-64" transform="translate(811.474609 0)"/>
       <use xlink:href="#ArialMT-5f" transform="translate(867.089844 0)"/>
       <use xlink:href="#ArialMT-4d" transform="translate(922.705078 0)"/>
       <use xlink:href="#ArialMT-43" transform="translate(1006.005859 0)"/>
       <use xlink:href="#ArialMT-45" transform="translate(1078.222656 0)"/>
       <use xlink:href="#ArialMT-31" transform="translate(1144.921875 0)"/>
       <use xlink:href="#ArialMT-38" transform="translate(1200.537109 0)"/>
      </g>
     </g>
    </g>
    <g id="xtick_6">
     <g id="text_6">
      <!-- UnsortedStepForward -->
      <g style="fill: #262626" transform="translate(439.646701 861.698084) rotate(-45) scale(0.165 -0.165)">
       <defs>
        <path id="ArialMT-55" d="M 3500 4581 
L 4106 4581 
L 4106 1934 
Q 4106 1244 3950 837 
Q 3794 431 3386 176 
Q 2978 -78 2316 -78 
Q 1672 -78 1262 144 
Q 853 366 678 786 
Q 503 1206 503 1934 
L 503 4581 
L 1109 4581 
L 1109 1938 
Q 1109 1341 1220 1058 
Q 1331 775 1601 622 
Q 1872 469 2263 469 
Q 2931 469 3215 772 
Q 3500 1075 3500 1938 
L 3500 4581 
z
" transform="scale(0.015625)"/>
        <path id="ArialMT-73" d="M 197 991 
L 753 1078 
Q 800 744 1014 566 
Q 1228 388 1613 388 
Q 2000 388 2187 545 
Q 2375 703 2375 916 
Q 2375 1106 2209 1216 
Q 2094 1291 1634 1406 
Q 1016 1563 777 1677 
Q 538 1791 414 1992 
Q 291 2194 291 2438 
Q 291 2659 392 2848 
Q 494 3038 669 3163 
Q 800 3259 1026 3326 
Q 1253 3394 1513 3394 
Q 1903 3394 2198 3281 
Q 2494 3169 2634 2976 
Q 2775 2784 2828 2463 
L 2278 2388 
Q 2241 2644 2061 2787 
Q 1881 2931 1553 2931 
Q 1166 2931 1000 2803 
Q 834 2675 834 2503 
Q 834 2394 903 2306 
Q 972 2216 1119 2156 
Q 1203 2125 1616 2013 
Q 2213 1853 2448 1751 
Q 2684 1650 2818 1456 
Q 2953 1263 2953 975 
Q 2953 694 2789 445 
Q 2625 197 2315 61 
Q 2006 -75 1616 -75 
Q 969 -75 630 194 
Q 291 463 197 991 
z
" transform="scale(0.015625)"/>
       </defs>
       <use xlink:href="#ArialMT-55"/>
       <use xlink:href="#ArialMT-6e" transform="translate(72.216797 0)"/>
       <use xlink:href="#ArialMT-73" transform="translate(127.832031 0)"/>
       <use xlink:href="#ArialMT-6f" transform="translate(177.832031 0)"/>
       <use xlink:href="#ArialMT-72" transform="translate(233.447266 0)"/>
       <use xlink:href="#ArialMT-74" transform="translate(266.748047 0)"/>
       <use xlink:href="#ArialMT-65" transform="translate(294.53125 0)"/>
       <use xlink:href="#ArialMT-64" transform="translate(350.146484 0)"/>
       <use xlink:href="#ArialMT-53" transform="translate(405.761719 0)"/>
       <use xlink:href="#ArialMT-74" transform="translate(472.460938 0)"/>
       <use xlink:href="#ArialMT-65" transform="translate(500.244141 0)"/>
       <use xlink:href="#ArialMT-70" transform="translate(555.859375 0)"/>
       <use xlink:href="#ArialMT-46" transform="translate(611.474609 0)"/>
       <use xlink:href="#ArialMT-6f" transform="translate(672.558594 0)"/>
       <use xlink:href="#ArialMT-72" transform="translate(728.173828 0)"/>
       <use xlink:href="#ArialMT-77" transform="translate(761.474609 0)"/>
       <use xlink:href="#ArialMT-61" transform="translate(833.691406 0)"/>
       <use xlink:href="#ArialMT-72" transform="translate(889.306641 0)"/>
       <use xlink:href="#ArialMT-64" transform="translate(922.607422 0)"/>
      </g>
     </g>
    </g>
    <g id="text_7">
     <!-- split_type -->
     <g style="fill: #262626" transform="translate(278.119018 913.326888) scale(0.18 -0.18)">
      <defs>
       <path id="ArialMT-79" d="M 397 -1278 
L 334 -750 
Q 519 -800 656 -800 
Q 844 -800 956 -737 
Q 1069 -675 1141 -563 
Q 1194 -478 1313 -144 
Q 1328 -97 1363 -6 
L 103 3319 
L 709 3319 
L 1400 1397 
Q 1534 1031 1641 628 
Q 1738 1016 1872 1384 
L 2581 3319 
L 3144 3319 
L 1881 -56 
Q 1678 -603 1566 -809 
Q 1416 -1088 1222 -1217 
Q 1028 -1347 759 -1347 
Q 597 -1347 397 -1278 
z
" transform="scale(0.015625)"/>
      </defs>
      <use xlink:href="#ArialMT-73"/>
      <use xlink:href="#ArialMT-70" transform="translate(50 0)"/>
      <use xlink:href="#ArialMT-6c" transform="translate(105.615234 0)"/>
      <use xlink:href="#ArialMT-69" transform="translate(127.832031 0)"/>
      <use xlink:href="#ArialMT-74" transform="translate(150.048828 0)"/>
      <use xlink:href="#ArialMT-5f" transform="translate(177.832031 0)"/>
      <use xlink:href="#ArialMT-74" transform="translate(233.447266 0)"/>
      <use xlink:href="#ArialMT-79" transform="translate(261.230469 0)"/>
      <use xlink:href="#ArialMT-70" transform="translate(311.230469 0)"/>
      <use xlink:href="#ArialMT-65" transform="translate(366.845703 0)"/>
     </g>
    </g>
   </g>
   <g id="matplotlib.axis_2">
    <g id="ytick_1">
     <g id="line2d_1">
      <path d="M 89.67 676.475265 
L 542.606786 676.475265 
" clip-path="url(#pc81aeda3fb)" style="fill: none; stroke: #cccccc; stroke-width: 1.5; stroke-linecap: round"/>
     </g>
     <g id="text_8">
      <!-- −200 -->
      <g style="fill: #262626" transform="translate(40.006328 682.38046) scale(0.165 -0.165)">
       <defs>
        <path id="ArialMT-2212" d="M 3381 1997 
L 356 1997 
L 356 2522 
L 3381 2522 
L 3381 1997 
z
" transform="scale(0.015625)"/>
        <path id="ArialMT-32" d="M 3222 541 
L 3222 0 
L 194 0 
Q 188 203 259 391 
Q 375 700 629 1000 
Q 884 1300 1366 1694 
Q 2113 2306 2375 2664 
Q 2638 3022 2638 3341 
Q 2638 3675 2398 3904 
Q 2159 4134 1775 4134 
Q 1369 4134 1125 3890 
Q 881 3647 878 3216 
L 300 3275 
Q 359 3922 746 4261 
Q 1134 4600 1788 4600 
Q 2447 4600 2831 4234 
Q 3216 3869 3216 3328 
Q 3216 3053 3103 2787 
Q 2991 2522 2730 2228 
Q 2469 1934 1863 1422 
Q 1356 997 1212 845 
Q 1069 694 975 541 
L 3222 541 
z
" transform="scale(0.015625)"/>
        <path id="ArialMT-30" d="M 266 2259 
Q 266 3072 433 3567 
Q 600 4063 929 4331 
Q 1259 4600 1759 4600 
Q 2128 4600 2406 4451 
Q 2684 4303 2865 4023 
Q 3047 3744 3150 3342 
Q 3253 2941 3253 2259 
Q 3253 1453 3087 958 
Q 2922 463 2592 192 
Q 2263 -78 1759 -78 
Q 1097 -78 719 397 
Q 266 969 266 2259 
z
M 844 2259 
Q 844 1131 1108 757 
Q 1372 384 1759 384 
Q 2147 384 2411 759 
Q 2675 1134 2675 2259 
Q 2675 3391 2411 3762 
Q 2147 4134 1753 4134 
Q 1366 4134 1134 3806 
Q 844 3388 844 2259 
z
" transform="scale(0.015625)"/>
       </defs>
       <use xlink:href="#ArialMT-2212"/>
       <use xlink:href="#ArialMT-32" transform="translate(58.398438 0)"/>
       <use xlink:href="#ArialMT-30" transform="translate(114.013672 0)"/>
       <use xlink:href="#ArialMT-30" transform="translate(169.628906 0)"/>
      </g>
     </g>
    </g>
    <g id="ytick_2">
     <g id="line2d_2">
      <path d="M 89.67 535.73645 
L 542.606786 535.73645 
" clip-path="url(#pc81aeda3fb)" style="fill: none; stroke: #cccccc; stroke-width: 1.5; stroke-linecap: round"/>
     </g>
     <g id="text_9">
      <!-- −100 -->
      <g style="fill: #262626" transform="translate(40.006328 541.641645) scale(0.165 -0.165)">
       <use xlink:href="#ArialMT-2212"/>
       <use xlink:href="#ArialMT-31" transform="translate(58.398438 0)"/>
       <use xlink:href="#ArialMT-30" transform="translate(114.013672 0)"/>
       <use xlink:href="#ArialMT-30" transform="translate(169.628906 0)"/>
      </g>
     </g>
    </g>
    <g id="ytick_3">
     <g id="line2d_3">
      <path d="M 89.67 394.997634 
L 542.606786 394.997634 
" clip-path="url(#pc81aeda3fb)" style="fill: none; stroke: #cccccc; stroke-width: 1.5; stroke-linecap: round"/>
     </g>
     <g id="text_10">
      <!-- 0 -->
      <g style="fill: #262626" transform="translate(67.994453 400.90283) scale(0.165 -0.165)">
       <use xlink:href="#ArialMT-30"/>
      </g>
     </g>
    </g>
    <g id="ytick_4">
     <g id="line2d_4">
      <path d="M 89.67 254.258819 
L 542.606786 254.258819 
" clip-path="url(#pc81aeda3fb)" style="fill: none; stroke: #cccccc; stroke-width: 1.5; stroke-linecap: round"/>
     </g>
     <g id="text_11">
      <!-- 100 -->
      <g style="fill: #262626" transform="translate(49.643359 260.164014) scale(0.165 -0.165)">
       <use xlink:href="#ArialMT-31"/>
       <use xlink:href="#ArialMT-30" transform="translate(55.615234 0)"/>
       <use xlink:href="#ArialMT-30" transform="translate(111.230469 0)"/>
      </g>
     </g>
    </g>
    <g id="ytick_5">
     <g id="line2d_5">
      <path d="M 89.67 113.520004 
L 542.606786 113.520004 
" clip-path="url(#pc81aeda3fb)" style="fill: none; stroke: #cccccc; stroke-width: 1.5; stroke-linecap: round"/>
     </g>
     <g id="text_12">
      <!-- 200 -->
      <g style="fill: #262626" transform="translate(49.643359 119.425199) scale(0.165 -0.165)">
       <use xlink:href="#ArialMT-32"/>
       <use xlink:href="#ArialMT-30" transform="translate(55.615234 0)"/>
       <use xlink:href="#ArialMT-30" transform="translate(111.230469 0)"/>
      </g>
     </g>
    </g>
    <g id="text_13">
     <!-- r2 -->
     <g style="fill: #262626" transform="translate(32.428828 392.939878) rotate(-90) scale(0.18 -0.18)">
      <use xlink:href="#ArialMT-72"/>
      <use xlink:href="#ArialMT-32" transform="translate(33.300781 0)"/>
     </g>
    </g>
   </g>
   <g id="PatchCollection_1">
    <path d="M 138.544399 402.211635 
L 138.766253 402.211635 
L 138.766253 400.429868 
L 138.544399 400.429868 
z
" clip-path="url(#pc81aeda3fb)" style="fill: #d2dde6; stroke: #3d3d3d; stroke-width: 1.125"/>
    <path d="M 138.433473 400.429868 
L 138.87718 400.429868 
L 138.87718 398.740443 
L 138.433473 398.740443 
z
" clip-path="url(#pc81aeda3fb)" style="fill: #cad8e3; stroke: #3d3d3d; stroke-width: 1.125"/>
    <path d="M 138.211619 398.740443 
L 139.099034 398.740443 
L 139.099034 396.249066 
L 138.211619 396.249066 
z
" clip-path="url(#pc81aeda3fb)" style="fill: #c0d1de; stroke: #3d3d3d; stroke-width: 1.125"/>
    <path d="M 137.767911 396.249066 
L 139.542742 396.249066 
L 139.542742 395.517893 
L 137.767911 395.517893 
z
" clip-path="url(#pc81aeda3fb)" style="fill: #b4c9d9; stroke: #3d3d3d; stroke-width: 1.125"/>
    <path d="M 136.880496 395.517893 
L 140.430157 395.517893 
L 140.430157 395.077099 
L 136.880496 395.077099 
z
" clip-path="url(#pc81aeda3fb)" style="fill: #a4bfd2; stroke: #3d3d3d; stroke-width: 1.125"/>
    <path d="M 135.105665 395.077099 
L 142.204988 395.077099 
L 142.204988 394.798322 
L 135.105665 394.798322 
z
" clip-path="url(#pc81aeda3fb)" style="fill: #90b2ca; stroke: #3d3d3d; stroke-width: 1.125"/>
    <path d="M 131.556004 394.798322 
L 145.754649 394.798322 
L 145.754649 394.563329 
L 131.556004 394.563329 
z
" clip-path="url(#pc81aeda3fb)" style="fill: #78a2bf; stroke: #3d3d3d; stroke-width: 1.125"/>
    <path d="M 124.456681 394.563329 
L 152.853972 394.563329 
L 152.853972 394.345419 
L 124.456681 394.345419 
z
" clip-path="url(#pc81aeda3fb)" style="fill: #588db2; stroke: #3d3d3d; stroke-width: 1.125"/>
    <path d="M 110.258036 394.345419 
L 167.052617 394.345419 
L 167.052617 393.994807 
L 110.258036 393.994807 
z
" clip-path="url(#pc81aeda3fb)" style="fill: #3274a1; stroke: #3d3d3d; stroke-width: 1.125"/>
    <path d="M 124.456681 393.994807 
L 152.853972 393.994807 
L 152.853972 393.919863 
L 124.456681 393.919863 
z
" clip-path="url(#pc81aeda3fb)" style="fill: #588db2; stroke: #3d3d3d; stroke-width: 1.125"/>
    <path d="M 131.556004 393.919863 
L 145.754649 393.919863 
L 145.754649 393.870655 
L 131.556004 393.870655 
z
" clip-path="url(#pc81aeda3fb)" style="fill: #78a2bf; stroke: #3d3d3d; stroke-width: 1.125"/>
    <path d="M 135.105665 393.870655 
L 142.204988 393.870655 
L 142.204988 393.823766 
L 135.105665 393.823766 
z
" clip-path="url(#pc81aeda3fb)" style="fill: #90b2ca; stroke: #3d3d3d; stroke-width: 1.125"/>
    <path d="M 136.880496 393.823766 
L 140.430157 393.823766 
L 140.430157 393.793315 
L 136.880496 393.793315 
z
" clip-path="url(#pc81aeda3fb)" style="fill: #a4bfd2; stroke: #3d3d3d; stroke-width: 1.125"/>
    <path d="M 137.767911 393.793315 
L 139.542742 393.793315 
L 139.542742 393.766541 
L 137.767911 393.766541 
z
" clip-path="url(#pc81aeda3fb)" style="fill: #b4c9d9; stroke: #3d3d3d; stroke-width: 1.125"/>
    <path d="M 138.211619 393.766541 
L 139.099034 393.766541 
L 139.099034 393.740215 
L 138.211619 393.740215 
z
" clip-path="url(#pc81aeda3fb)" style="fill: #c0d1de; stroke: #3d3d3d; stroke-width: 1.125"/>
    <path d="M 138.433473 393.740215 
L 138.87718 393.740215 
L 138.87718 393.72559 
L 138.433473 393.72559 
z
" clip-path="url(#pc81aeda3fb)" style="fill: #cad8e3; stroke: #3d3d3d; stroke-width: 1.125"/>
    <path d="M 138.544399 393.72559 
L 138.766253 393.72559 
L 138.766253 393.711103 
L 138.544399 393.711103 
z
" clip-path="url(#pc81aeda3fb)" style="fill: #d2dde6; stroke: #3d3d3d; stroke-width: 1.125"/>
   </g>
   <g id="PathCollection_1">
    <defs>
     <path id="C0_0_4ac4457243" d="M 0 2.5 
C 0.663008 2.5 1.29895 2.236584 1.767767 1.767767 
C 2.236584 1.29895 2.5 0.663008 2.5 -0 
C 2.5 -0.663008 2.236584 -1.29895 1.767767 -1.767767 
C 1.29895 -2.236584 0.663008 -2.5 0 -2.5 
C -0.663008 -2.5 -1.29895 -2.236584 -1.767767 -1.767767 
C -2.236584 -1.29895 -2.5 -0.663008 -2.5 0 
C -2.5 0.663008 -2.236584 1.29895 -1.767767 1.767767 
C -1.29895 2.236584 -0.663008 2.5 0 2.5 
z
"/>
    </defs>
    <g clip-path="url(#pc81aeda3fb)">
     <use xlink:href="#C0_0_4ac4457243" x="138.655326" y="393.7056" style="fill: none; stroke: #737373; stroke-width: 1.5"/>
    </g>
    <g clip-path="url(#pc81aeda3fb)">
     <use xlink:href="#C0_0_4ac4457243" x="138.655326" y="393.706081" style="fill: none; stroke: #737373; stroke-width: 1.5"/>
    </g>
    <g clip-path="url(#pc81aeda3fb)">
     <use xlink:href="#C0_0_4ac4457243" x="138.655326" y="393.710214" style="fill: none; stroke: #737373; stroke-width: 1.5"/>
    </g>
    <g clip-path="url(#pc81aeda3fb)">
     <use xlink:href="#C0_0_4ac4457243" x="138.655326" y="393.682694" style="fill: none; stroke: #737373; stroke-width: 1.5"/>
    </g>
    <g clip-path="url(#pc81aeda3fb)">
     <use xlink:href="#C0_0_4ac4457243" x="138.655326" y="393.707635" style="fill: none; stroke: #737373; stroke-width: 1.5"/>
    </g>
    <g clip-path="url(#pc81aeda3fb)">
     <use xlink:href="#C0_0_4ac4457243" x="138.655326" y="393.643395" style="fill: none; stroke: #737373; stroke-width: 1.5"/>
    </g>
    <g clip-path="url(#pc81aeda3fb)">
     <use xlink:href="#C0_0_4ac4457243" x="138.655326" y="403.189869" style="fill: none; stroke: #737373; stroke-width: 1.5"/>
    </g>
    <g clip-path="url(#pc81aeda3fb)">
     <use xlink:href="#C0_0_4ac4457243" x="138.655326" y="402.431118" style="fill: none; stroke: #737373; stroke-width: 1.5"/>
    </g>
    <g clip-path="url(#pc81aeda3fb)">
     <use xlink:href="#C0_0_4ac4457243" x="138.655326" y="408.046754" style="fill: none; stroke: #737373; stroke-width: 1.5"/>
    </g>
    <g clip-path="url(#pc81aeda3fb)">
     <use xlink:href="#C0_0_4ac4457243" x="138.655326" y="403.610372" style="fill: none; stroke: #737373; stroke-width: 1.5"/>
    </g>
    <g clip-path="url(#pc81aeda3fb)">
     <use xlink:href="#C0_0_4ac4457243" x="138.655326" y="413.977986" style="fill: none; stroke: #737373; stroke-width: 1.5"/>
    </g>
    <g clip-path="url(#pc81aeda3fb)">
     <use xlink:href="#C0_0_4ac4457243" x="138.655326" y="410.21164" style="fill: none; stroke: #737373; stroke-width: 1.5"/>
    </g>
   </g>
   <g id="PatchCollection_2">
    <path d="M 209.537626 437.313319 
L 209.75948 437.313319 
L 209.75948 418.94712 
L 209.537626 418.94712 
z
" clip-path="url(#pc81aeda3fb)" style="fill: #f0dfd1; stroke: #3d3d3d; stroke-width: 1.125"/>
    <path d="M 209.426699 418.94712 
L 209.870407 418.94712 
L 209.870407 413.608999 
L 209.426699 413.608999 
z
" clip-path="url(#pc81aeda3fb)" style="fill: #efdac9; stroke: #3d3d3d; stroke-width: 1.125"/>
    <path d="M 209.204845 413.608999 
L 210.092261 413.608999 
L 210.092261 404.160539 
L 209.204845 404.160539 
z
" clip-path="url(#pc81aeda3fb)" style="fill: #eed4be; stroke: #3d3d3d; stroke-width: 1.125"/>
    <path d="M 208.761138 404.160539 
L 210.535968 404.160539 
L 210.535968 400.863824 
L 208.761138 400.863824 
z
" clip-path="url(#pc81aeda3fb)" style="fill: #edcdb2; stroke: #3d3d3d; stroke-width: 1.125"/>
    <path d="M 207.873722 400.863824 
L 211.423384 400.863824 
L 211.423384 398.590112 
L 207.873722 398.590112 
z
" clip-path="url(#pc81aeda3fb)" style="fill: #ecc4a2; stroke: #3d3d3d; stroke-width: 1.125"/>
    <path d="M 206.098892 398.590112 
L 213.198214 398.590112 
L 213.198214 396.75291 
L 206.098892 396.75291 
z
" clip-path="url(#pc81aeda3fb)" style="fill: #eab88d; stroke: #3d3d3d; stroke-width: 1.125"/>
    <path d="M 202.54923 396.75291 
L 216.747876 396.75291 
L 216.747876 395.755116 
L 202.54923 395.755116 
z
" clip-path="url(#pc81aeda3fb)" style="fill: #e7aa74; stroke: #3d3d3d; stroke-width: 1.125"/>
    <path d="M 195.449908 395.755116 
L 223.847198 395.755116 
L 223.847198 395.094313 
L 195.449908 395.094313 
z
" clip-path="url(#pc81aeda3fb)" style="fill: #e49854; stroke: #3d3d3d; stroke-width: 1.125"/>
    <path d="M 181.251262 395.094313 
L 238.045844 395.094313 
L 238.045844 394.243901 
L 181.251262 394.243901 
z
" clip-path="url(#pc81aeda3fb)" style="fill: #e1812c; stroke: #3d3d3d; stroke-width: 1.125"/>
    <path d="M 195.449908 394.243901 
L 223.847198 394.243901 
L 223.847198 394.086134 
L 195.449908 394.086134 
z
" clip-path="url(#pc81aeda3fb)" style="fill: #e49854; stroke: #3d3d3d; stroke-width: 1.125"/>
    <path d="M 202.54923 394.086134 
L 216.747876 394.086134 
L 216.747876 393.990998 
L 202.54923 393.990998 
z
" clip-path="url(#pc81aeda3fb)" style="fill: #e7aa74; stroke: #3d3d3d; stroke-width: 1.125"/>
    <path d="M 206.098892 393.990998 
L 213.198214 393.990998 
L 213.198214 393.928925 
L 206.098892 393.928925 
z
" clip-path="url(#pc81aeda3fb)" style="fill: #eab88d; stroke: #3d3d3d; stroke-width: 1.125"/>
    <path d="M 207.873722 393.928925 
L 211.423384 393.928925 
L 211.423384 393.877483 
L 207.873722 393.877483 
z
" clip-path="url(#pc81aeda3fb)" style="fill: #ecc4a2; stroke: #3d3d3d; stroke-width: 1.125"/>
    <path d="M 208.761138 393.877483 
L 210.535968 393.877483 
L 210.535968 393.847758 
L 208.761138 393.847758 
z
" clip-path="url(#pc81aeda3fb)" style="fill: #edcdb2; stroke: #3d3d3d; stroke-width: 1.125"/>
    <path d="M 209.204845 393.847758 
L 210.092261 393.847758 
L 210.092261 393.808274 
L 209.204845 393.808274 
z
" clip-path="url(#pc81aeda3fb)" style="fill: #eed4be; stroke: #3d3d3d; stroke-width: 1.125"/>
    <path d="M 209.426699 393.808274 
L 209.870407 393.808274 
L 209.870407 393.774612 
L 209.426699 393.774612 
z
" clip-path="url(#pc81aeda3fb)" style="fill: #efdac9; stroke: #3d3d3d; stroke-width: 1.125"/>
    <path d="M 209.537626 393.774612 
L 209.75948 393.774612 
L 209.75948 393.735819 
L 209.537626 393.735819 
z
" clip-path="url(#pc81aeda3fb)" style="fill: #f0dfd1; stroke: #3d3d3d; stroke-width: 1.125"/>
   </g>
   <g id="PathCollection_2">
    <defs>
     <path id="C1_0_f19187e7a2" d="M 0 2.5 
C 0.663008 2.5 1.29895 2.236584 1.767767 1.767767 
C 2.236584 1.29895 2.5 0.663008 2.5 -0 
C 2.5 -0.663008 2.236584 -1.29895 1.767767 -1.767767 
C 1.29895 -2.236584 0.663008 -2.5 0 -2.5 
C -0.663008 -2.5 -1.29895 -2.236584 -1.767767 -1.767767 
C -2.236584 -1.29895 -2.5 -0.663008 -2.5 0 
C -2.5 0.663008 -2.236584 1.29895 -1.767767 1.767767 
C -1.29895 2.236584 -0.663008 2.5 0 2.5 
z
"/>
    </defs>
    <g clip-path="url(#pc81aeda3fb)">
     <use xlink:href="#C1_0_f19187e7a2" x="209.648553" y="443.116909" style="fill: none; stroke: #737373; stroke-width: 1.5"/>
    </g>
    <g clip-path="url(#pc81aeda3fb)">
     <use xlink:href="#C1_0_f19187e7a2" x="209.648553" y="439.811862" style="fill: none; stroke: #737373; stroke-width: 1.5"/>
    </g>
    <g clip-path="url(#pc81aeda3fb)">
     <use xlink:href="#C1_0_f19187e7a2" x="209.648553" y="438.253182" style="fill: none; stroke: #737373; stroke-width: 1.5"/>
    </g>
    <g clip-path="url(#pc81aeda3fb)">
     <use xlink:href="#C1_0_f19187e7a2" x="209.648553" y="393.693894" style="fill: none; stroke: #737373; stroke-width: 1.5"/>
    </g>
    <g clip-path="url(#pc81aeda3fb)">
     <use xlink:href="#C1_0_f19187e7a2" x="209.648553" y="710.726449" style="fill: none; stroke: #737373; stroke-width: 1.5"/>
    </g>
    <g clip-path="url(#pc81aeda3fb)">
     <use xlink:href="#C1_0_f19187e7a2" x="209.648553" y="554.252402" style="fill: none; stroke: #737373; stroke-width: 1.5"/>
    </g>
    <g clip-path="url(#pc81aeda3fb)">
     <use xlink:href="#C1_0_f19187e7a2" x="209.648553" y="447.888079" style="fill: none; stroke: #737373; stroke-width: 1.5"/>
    </g>
    <g clip-path="url(#pc81aeda3fb)">
     <use xlink:href="#C1_0_f19187e7a2" x="209.648553" y="393.717781" style="fill: none; stroke: #737373; stroke-width: 1.5"/>
    </g>
    <g clip-path="url(#pc81aeda3fb)">
     <use xlink:href="#C1_0_f19187e7a2" x="209.648553" y="393.735215" style="fill: none; stroke: #737373; stroke-width: 1.5"/>
    </g>
    <g clip-path="url(#pc81aeda3fb)">
     <use xlink:href="#C1_0_f19187e7a2" x="209.648553" y="393.72777" style="fill: none; stroke: #737373; stroke-width: 1.5"/>
    </g>
    <g clip-path="url(#pc81aeda3fb)">
     <use xlink:href="#C1_0_f19187e7a2" x="209.648553" y="393.721208" style="fill: none; stroke: #737373; stroke-width: 1.5"/>
    </g>
    <g clip-path="url(#pc81aeda3fb)">
     <use xlink:href="#C1_0_f19187e7a2" x="209.648553" y="393.732858" style="fill: none; stroke: #737373; stroke-width: 1.5"/>
    </g>
   </g>
   <g id="PatchCollection_3">
    <path d="M 280.530853 414.471284 
L 280.752707 414.471284 
L 280.752707 407.106335 
L 280.530853 407.106335 
z
" clip-path="url(#pc81aeda3fb)" style="fill: #d0e3d0; stroke: #3d3d3d; stroke-width: 1.125"/>
    <path d="M 280.419926 407.106335 
L 280.863634 407.106335 
L 280.863634 404.963897 
L 280.419926 404.963897 
z
" clip-path="url(#pc81aeda3fb)" style="fill: #c9dfc9; stroke: #3d3d3d; stroke-width: 1.125"/>
    <path d="M 280.198072 404.963897 
L 281.085487 404.963897 
L 281.085487 402.81156 
L 280.198072 402.81156 
z
" clip-path="url(#pc81aeda3fb)" style="fill: #bfdabf; stroke: #3d3d3d; stroke-width: 1.125"/>
    <path d="M 279.754364 402.81156 
L 281.529195 402.81156 
L 281.529195 400.273504 
L 279.754364 400.273504 
z
" clip-path="url(#pc81aeda3fb)" style="fill: #b4d4b4; stroke: #3d3d3d; stroke-width: 1.125"/>
    <path d="M 278.866949 400.273504 
L 282.41661 400.273504 
L 282.41661 397.657701 
L 278.866949 397.657701 
z
" clip-path="url(#pc81aeda3fb)" style="fill: #a6cca6; stroke: #3d3d3d; stroke-width: 1.125"/>
    <path d="M 277.092118 397.657701 
L 284.191441 397.657701 
L 284.191441 396.165889 
L 277.092118 396.165889 
z
" clip-path="url(#pc81aeda3fb)" style="fill: #93c293; stroke: #3d3d3d; stroke-width: 1.125"/>
    <path d="M 273.542457 396.165889 
L 287.741102 396.165889 
L 287.741102 395.337601 
L 273.542457 395.337601 
z
" clip-path="url(#pc81aeda3fb)" style="fill: #7cb57c; stroke: #3d3d3d; stroke-width: 1.125"/>
    <path d="M 266.443134 395.337601 
L 294.840425 395.337601 
L 294.840425 394.866549 
L 266.443134 394.866549 
z
" clip-path="url(#pc81aeda3fb)" style="fill: #5fa55f; stroke: #3d3d3d; stroke-width: 1.125"/>
    <path d="M 252.244489 394.866549 
L 309.03907 394.866549 
L 309.03907 394.186964 
L 252.244489 394.186964 
z
" clip-path="url(#pc81aeda3fb)" style="fill: #3a923a; stroke: #3d3d3d; stroke-width: 1.125"/>
    <path d="M 266.443134 394.186964 
L 294.840425 394.186964 
L 294.840425 394.05775 
L 266.443134 394.05775 
z
" clip-path="url(#pc81aeda3fb)" style="fill: #5fa55f; stroke: #3d3d3d; stroke-width: 1.125"/>
    <path d="M 273.542457 394.05775 
L 287.741102 394.05775 
L 287.741102 393.97234 
L 273.542457 393.97234 
z
" clip-path="url(#pc81aeda3fb)" style="fill: #7cb57c; stroke: #3d3d3d; stroke-width: 1.125"/>
    <path d="M 277.092118 393.97234 
L 284.191441 393.97234 
L 284.191441 393.912929 
L 277.092118 393.912929 
z
" clip-path="url(#pc81aeda3fb)" style="fill: #93c293; stroke: #3d3d3d; stroke-width: 1.125"/>
    <path d="M 278.866949 393.912929 
L 282.41661 393.912929 
L 282.41661 393.860774 
L 278.866949 393.860774 
z
" clip-path="url(#pc81aeda3fb)" style="fill: #a6cca6; stroke: #3d3d3d; stroke-width: 1.125"/>
    <path d="M 279.754364 393.860774 
L 281.529195 393.860774 
L 281.529195 393.823886 
L 279.754364 393.823886 
z
" clip-path="url(#pc81aeda3fb)" style="fill: #b4d4b4; stroke: #3d3d3d; stroke-width: 1.125"/>
    <path d="M 280.198072 393.823886 
L 281.085487 393.823886 
L 281.085487 393.783053 
L 280.198072 393.783053 
z
" clip-path="url(#pc81aeda3fb)" style="fill: #bfdabf; stroke: #3d3d3d; stroke-width: 1.125"/>
    <path d="M 280.419926 393.783053 
L 280.863634 393.783053 
L 280.863634 393.74286 
L 280.419926 393.74286 
z
" clip-path="url(#pc81aeda3fb)" style="fill: #c9dfc9; stroke: #3d3d3d; stroke-width: 1.125"/>
    <path d="M 280.530853 393.74286 
L 280.752707 393.74286 
L 280.752707 393.720479 
L 280.530853 393.720479 
z
" clip-path="url(#pc81aeda3fb)" style="fill: #d0e3d0; stroke: #3d3d3d; stroke-width: 1.125"/>
   </g>
   <g id="PathCollection_3">
    <defs>
     <path id="C2_0_e94b5f1614" d="M 0 2.5 
C 0.663008 2.5 1.29895 2.236584 1.767767 1.767767 
C 2.236584 1.29895 2.5 0.663008 2.5 -0 
C 2.5 -0.663008 2.236584 -1.29895 1.767767 -1.767767 
C 1.29895 -2.236584 0.663008 -2.5 0 -2.5 
C -0.663008 -2.5 -1.29895 -2.236584 -1.767767 -1.767767 
C -2.236584 -1.29895 -2.5 -0.663008 -2.5 0 
C -2.5 0.663008 -2.236584 1.29895 -1.767767 1.767767 
C -1.29895 2.236584 -0.663008 2.5 0 2.5 
z
"/>
    </defs>
    <g clip-path="url(#pc81aeda3fb)">
     <use xlink:href="#C2_0_e94b5f1614" x="280.64178" y="393.704661" style="fill: none; stroke: #737373; stroke-width: 1.5"/>
    </g>
    <g clip-path="url(#pc81aeda3fb)">
     <use xlink:href="#C2_0_e94b5f1614" x="280.64178" y="393.715268" style="fill: none; stroke: #737373; stroke-width: 1.5"/>
    </g>
    <g clip-path="url(#pc81aeda3fb)">
     <use xlink:href="#C2_0_e94b5f1614" x="280.64178" y="455.532873" style="fill: none; stroke: #737373; stroke-width: 1.5"/>
    </g>
    <g clip-path="url(#pc81aeda3fb)">
     <use xlink:href="#C2_0_e94b5f1614" x="280.64178" y="447.970953" style="fill: none; stroke: #737373; stroke-width: 1.5"/>
    </g>
    <g clip-path="url(#pc81aeda3fb)">
     <use xlink:href="#C2_0_e94b5f1614" x="280.64178" y="419.164449" style="fill: none; stroke: #737373; stroke-width: 1.5"/>
    </g>
    <g clip-path="url(#pc81aeda3fb)">
     <use xlink:href="#C2_0_e94b5f1614" x="280.64178" y="393.666943" style="fill: none; stroke: #737373; stroke-width: 1.5"/>
    </g>
    <g clip-path="url(#pc81aeda3fb)">
     <use xlink:href="#C2_0_e94b5f1614" x="280.64178" y="393.663985" style="fill: none; stroke: #737373; stroke-width: 1.5"/>
    </g>
    <g clip-path="url(#pc81aeda3fb)">
     <use xlink:href="#C2_0_e94b5f1614" x="280.64178" y="393.699166" style="fill: none; stroke: #737373; stroke-width: 1.5"/>
    </g>
    <g clip-path="url(#pc81aeda3fb)">
     <use xlink:href="#C2_0_e94b5f1614" x="280.64178" y="393.70419" style="fill: none; stroke: #737373; stroke-width: 1.5"/>
    </g>
    <g clip-path="url(#pc81aeda3fb)">
     <use xlink:href="#C2_0_e94b5f1614" x="280.64178" y="432.350544" style="fill: none; stroke: #737373; stroke-width: 1.5"/>
    </g>
    <g clip-path="url(#pc81aeda3fb)">
     <use xlink:href="#C2_0_e94b5f1614" x="280.64178" y="415.717361" style="fill: none; stroke: #737373; stroke-width: 1.5"/>
    </g>
    <g clip-path="url(#pc81aeda3fb)">
     <use xlink:href="#C2_0_e94b5f1614" x="280.64178" y="421.069249" style="fill: none; stroke: #737373; stroke-width: 1.5"/>
    </g>
   </g>
   <g id="PatchCollection_4">
    <path d="M 351.524079 412.506729 
L 351.745933 412.506729 
L 351.745933 409.4723 
L 351.524079 409.4723 
z
" clip-path="url(#pc81aeda3fb)" style="fill: #ead4d4; stroke: #3d3d3d; stroke-width: 1.125"/>
    <path d="M 351.413152 409.4723 
L 351.85686 409.4723 
L 351.85686 406.144218 
L 351.413152 406.144218 
z
" clip-path="url(#pc81aeda3fb)" style="fill: #e8cdcd; stroke: #3d3d3d; stroke-width: 1.125"/>
    <path d="M 351.191299 406.144218 
L 352.078714 406.144218 
L 352.078714 402.537246 
L 351.191299 402.537246 
z
" clip-path="url(#pc81aeda3fb)" style="fill: #e6c3c3; stroke: #3d3d3d; stroke-width: 1.125"/>
    <path d="M 350.747591 402.537246 
L 352.522422 402.537246 
L 352.522422 399.743588 
L 350.747591 399.743588 
z
" clip-path="url(#pc81aeda3fb)" style="fill: #e2b8b8; stroke: #3d3d3d; stroke-width: 1.125"/>
    <path d="M 349.860176 399.743588 
L 353.409837 399.743588 
L 353.409837 398.077276 
L 349.860176 398.077276 
z
" clip-path="url(#pc81aeda3fb)" style="fill: #dea9a9; stroke: #3d3d3d; stroke-width: 1.125"/>
    <path d="M 348.085345 398.077276 
L 355.184668 398.077276 
L 355.184668 396.632796 
L 348.085345 396.632796 
z
" clip-path="url(#pc81aeda3fb)" style="fill: #d99697; stroke: #3d3d3d; stroke-width: 1.125"/>
    <path d="M 344.535684 396.632796 
L 358.734329 396.632796 
L 358.734329 395.673714 
L 344.535684 395.673714 
z
" clip-path="url(#pc81aeda3fb)" style="fill: #d37f7f; stroke: #3d3d3d; stroke-width: 1.125"/>
    <path d="M 337.436361 395.673714 
L 365.833652 395.673714 
L 365.833652 395.022143 
L 337.436361 395.022143 
z
" clip-path="url(#pc81aeda3fb)" style="fill: #ca6162; stroke: #3d3d3d; stroke-width: 1.125"/>
    <path d="M 323.237716 395.022143 
L 380.032297 395.022143 
L 380.032297 394.258897 
L 323.237716 394.258897 
z
" clip-path="url(#pc81aeda3fb)" style="fill: #c03d3e; stroke: #3d3d3d; stroke-width: 1.125"/>
    <path d="M 337.436361 394.258897 
L 365.833652 394.258897 
L 365.833652 394.110696 
L 337.436361 394.110696 
z
" clip-path="url(#pc81aeda3fb)" style="fill: #ca6162; stroke: #3d3d3d; stroke-width: 1.125"/>
    <path d="M 344.535684 394.110696 
L 358.734329 394.110696 
L 358.734329 394.020392 
L 344.535684 394.020392 
z
" clip-path="url(#pc81aeda3fb)" style="fill: #d37f7f; stroke: #3d3d3d; stroke-width: 1.125"/>
    <path d="M 348.085345 394.020392 
L 355.184668 394.020392 
L 355.184668 393.945257 
L 348.085345 393.945257 
z
" clip-path="url(#pc81aeda3fb)" style="fill: #d99697; stroke: #3d3d3d; stroke-width: 1.125"/>
    <path d="M 349.860176 393.945257 
L 353.409837 393.945257 
L 353.409837 393.884324 
L 349.860176 393.884324 
z
" clip-path="url(#pc81aeda3fb)" style="fill: #dea9a9; stroke: #3d3d3d; stroke-width: 1.125"/>
    <path d="M 350.747591 393.884324 
L 352.522422 393.884324 
L 352.522422 393.823398 
L 350.747591 393.823398 
z
" clip-path="url(#pc81aeda3fb)" style="fill: #e2b8b8; stroke: #3d3d3d; stroke-width: 1.125"/>
    <path d="M 351.191299 393.823398 
L 352.078714 393.823398 
L 352.078714 393.777633 
L 351.191299 393.777633 
z
" clip-path="url(#pc81aeda3fb)" style="fill: #e6c3c3; stroke: #3d3d3d; stroke-width: 1.125"/>
    <path d="M 351.413152 393.777633 
L 351.85686 393.777633 
L 351.85686 393.738633 
L 351.413152 393.738633 
z
" clip-path="url(#pc81aeda3fb)" style="fill: #e8cdcd; stroke: #3d3d3d; stroke-width: 1.125"/>
    <path d="M 351.524079 393.738633 
L 351.745933 393.738633 
L 351.745933 393.700058 
L 351.524079 393.700058 
z
" clip-path="url(#pc81aeda3fb)" style="fill: #ead4d4; stroke: #3d3d3d; stroke-width: 1.125"/>
   </g>
   <g id="PathCollection_4">
    <defs>
     <path id="C3_0_6f8bf6e09c" d="M 0 2.5 
C 0.663008 2.5 1.29895 2.236584 1.767767 1.767767 
C 2.236584 1.29895 2.5 0.663008 2.5 -0 
C 2.5 -0.663008 2.236584 -1.29895 1.767767 -1.767767 
C 1.29895 -2.236584 0.663008 -2.5 0 -2.5 
C -0.663008 -2.5 -1.29895 -2.236584 -1.767767 -1.767767 
C -2.236584 -1.29895 -2.5 -0.663008 -2.5 0 
C -2.5 0.663008 -2.236584 1.29895 -1.767767 1.767767 
C -1.29895 2.236584 -0.663008 2.5 0 2.5 
z
"/>
    </defs>
    <g clip-path="url(#pc81aeda3fb)">
     <use xlink:href="#C3_0_6f8bf6e09c" x="351.635006" y="393.661031" style="fill: none; stroke: #737373; stroke-width: 1.5"/>
    </g>
    <g clip-path="url(#pc81aeda3fb)">
     <use xlink:href="#C3_0_6f8bf6e09c" x="351.635006" y="393.661699" style="fill: none; stroke: #737373; stroke-width: 1.5"/>
    </g>
    <g clip-path="url(#pc81aeda3fb)">
     <use xlink:href="#C3_0_6f8bf6e09c" x="351.635006" y="393.695722" style="fill: none; stroke: #737373; stroke-width: 1.5"/>
    </g>
    <g clip-path="url(#pc81aeda3fb)">
     <use xlink:href="#C3_0_6f8bf6e09c" x="351.635006" y="393.657971" style="fill: none; stroke: #737373; stroke-width: 1.5"/>
    </g>
    <g clip-path="url(#pc81aeda3fb)">
     <use xlink:href="#C3_0_6f8bf6e09c" x="351.635006" y="393.688829" style="fill: none; stroke: #737373; stroke-width: 1.5"/>
    </g>
    <g clip-path="url(#pc81aeda3fb)">
     <use xlink:href="#C3_0_6f8bf6e09c" x="351.635006" y="436.888057" style="fill: none; stroke: #737373; stroke-width: 1.5"/>
    </g>
    <g clip-path="url(#pc81aeda3fb)">
     <use xlink:href="#C3_0_6f8bf6e09c" x="351.635006" y="431.357478" style="fill: none; stroke: #737373; stroke-width: 1.5"/>
    </g>
    <g clip-path="url(#pc81aeda3fb)">
     <use xlink:href="#C3_0_6f8bf6e09c" x="351.635006" y="442.936999" style="fill: none; stroke: #737373; stroke-width: 1.5"/>
    </g>
    <g clip-path="url(#pc81aeda3fb)">
     <use xlink:href="#C3_0_6f8bf6e09c" x="351.635006" y="414.542283" style="fill: none; stroke: #737373; stroke-width: 1.5"/>
    </g>
    <g clip-path="url(#pc81aeda3fb)">
     <use xlink:href="#C3_0_6f8bf6e09c" x="351.635006" y="412.979376" style="fill: none; stroke: #737373; stroke-width: 1.5"/>
    </g>
    <g clip-path="url(#pc81aeda3fb)">
     <use xlink:href="#C3_0_6f8bf6e09c" x="351.635006" y="414.171355" style="fill: none; stroke: #737373; stroke-width: 1.5"/>
    </g>
    <g clip-path="url(#pc81aeda3fb)">
     <use xlink:href="#C3_0_6f8bf6e09c" x="351.635006" y="393.698532" style="fill: none; stroke: #737373; stroke-width: 1.5"/>
    </g>
   </g>
   <g id="PatchCollection_5">
    <path d="M 422.517306 436.93419 
L 422.73916 436.93419 
L 422.73916 428.758475 
L 422.517306 428.758475 
z
" clip-path="url(#pc81aeda3fb)" style="fill: #e2dde8; stroke: #3d3d3d; stroke-width: 1.125"/>
    <path d="M 422.406379 428.758475 
L 422.850087 428.758475 
L 422.850087 420.023432 
L 422.406379 420.023432 
z
" clip-path="url(#pc81aeda3fb)" style="fill: #dfd8e5; stroke: #3d3d3d; stroke-width: 1.125"/>
    <path d="M 422.184525 420.023432 
L 423.071941 420.023432 
L 423.071941 412.783275 
L 422.184525 412.783275 
z
" clip-path="url(#pc81aeda3fb)" style="fill: #d9d1e2; stroke: #3d3d3d; stroke-width: 1.125"/>
    <path d="M 421.740818 412.783275 
L 423.515648 412.783275 
L 423.515648 407.290648 
L 421.740818 407.290648 
z
" clip-path="url(#pc81aeda3fb)" style="fill: #d4c9de; stroke: #3d3d3d; stroke-width: 1.125"/>
    <path d="M 420.853402 407.290648 
L 424.403064 407.290648 
L 424.403064 401.683316 
L 420.853402 401.683316 
z
" clip-path="url(#pc81aeda3fb)" style="fill: #ccbed8; stroke: #3d3d3d; stroke-width: 1.125"/>
    <path d="M 419.078572 401.683316 
L 426.177894 401.683316 
L 426.177894 398.234094 
L 419.078572 398.234094 
z
" clip-path="url(#pc81aeda3fb)" style="fill: #c2b1d2; stroke: #3d3d3d; stroke-width: 1.125"/>
    <path d="M 415.52891 398.234094 
L 429.727556 398.234094 
L 429.727556 396.515758 
L 415.52891 396.515758 
z
" clip-path="url(#pc81aeda3fb)" style="fill: #b6a0ca; stroke: #3d3d3d; stroke-width: 1.125"/>
    <path d="M 408.429588 396.515758 
L 436.826878 396.515758 
L 436.826878 395.595816 
L 408.429588 395.595816 
z
" clip-path="url(#pc81aeda3fb)" style="fill: #a78cbf; stroke: #3d3d3d; stroke-width: 1.125"/>
    <path d="M 394.230942 395.595816 
L 451.025524 395.595816 
L 451.025524 394.51741 
L 394.230942 394.51741 
z
" clip-path="url(#pc81aeda3fb)" style="fill: #9372b2; stroke: #3d3d3d; stroke-width: 1.125"/>
    <path d="M 408.429588 394.51741 
L 436.826878 394.51741 
L 436.826878 394.302488 
L 408.429588 394.302488 
z
" clip-path="url(#pc81aeda3fb)" style="fill: #a78cbf; stroke: #3d3d3d; stroke-width: 1.125"/>
    <path d="M 415.52891 394.302488 
L 429.727556 394.302488 
L 429.727556 394.145935 
L 415.52891 394.145935 
z
" clip-path="url(#pc81aeda3fb)" style="fill: #b6a0ca; stroke: #3d3d3d; stroke-width: 1.125"/>
    <path d="M 419.078572 394.145935 
L 426.177894 394.145935 
L 426.177894 394.037012 
L 419.078572 394.037012 
z
" clip-path="url(#pc81aeda3fb)" style="fill: #c2b1d2; stroke: #3d3d3d; stroke-width: 1.125"/>
    <path d="M 420.853402 394.037012 
L 424.403064 394.037012 
L 424.403064 393.95261 
L 420.853402 393.95261 
z
" clip-path="url(#pc81aeda3fb)" style="fill: #ccbed8; stroke: #3d3d3d; stroke-width: 1.125"/>
    <path d="M 421.740818 393.95261 
L 423.515648 393.95261 
L 423.515648 393.884528 
L 421.740818 393.884528 
z
" clip-path="url(#pc81aeda3fb)" style="fill: #d4c9de; stroke: #3d3d3d; stroke-width: 1.125"/>
    <path d="M 422.184525 393.884528 
L 423.071941 393.884528 
L 423.071941 393.829376 
L 422.184525 393.829376 
z
" clip-path="url(#pc81aeda3fb)" style="fill: #d9d1e2; stroke: #3d3d3d; stroke-width: 1.125"/>
    <path d="M 422.406379 393.829376 
L 422.850087 393.829376 
L 422.850087 393.7954 
L 422.406379 393.7954 
z
" clip-path="url(#pc81aeda3fb)" style="fill: #dfd8e5; stroke: #3d3d3d; stroke-width: 1.125"/>
    <path d="M 422.517306 393.7954 
L 422.73916 393.7954 
L 422.73916 393.77253 
L 422.517306 393.77253 
z
" clip-path="url(#pc81aeda3fb)" style="fill: #e2dde8; stroke: #3d3d3d; stroke-width: 1.125"/>
   </g>
   <g id="PathCollection_5">
    <defs>
     <path id="C4_0_5157b77603" d="M 0 2.5 
C 0.663008 2.5 1.29895 2.236584 1.767767 1.767767 
C 2.236584 1.29895 2.5 0.663008 2.5 -0 
C 2.5 -0.663008 2.236584 -1.29895 1.767767 -1.767767 
C 1.29895 -2.236584 0.663008 -2.5 0 -2.5 
C -0.663008 -2.5 -1.29895 -2.236584 -1.767767 -1.767767 
C -2.236584 -1.29895 -2.5 -0.663008 -2.5 0 
C -2.5 0.663008 -2.236584 1.29895 -1.767767 1.767767 
C -1.29895 2.236584 -0.663008 2.5 0 2.5 
z
"/>
    </defs>
    <g clip-path="url(#pc81aeda3fb)">
     <use xlink:href="#C4_0_5157b77603" x="422.628233" y="496.398316" style="fill: none; stroke: #737373; stroke-width: 1.5"/>
    </g>
    <g clip-path="url(#pc81aeda3fb)">
     <use xlink:href="#C4_0_5157b77603" x="422.628233" y="437.219944" style="fill: none; stroke: #737373; stroke-width: 1.5"/>
    </g>
    <g clip-path="url(#pc81aeda3fb)">
     <use xlink:href="#C4_0_5157b77603" x="422.628233" y="393.770245" style="fill: none; stroke: #737373; stroke-width: 1.5"/>
    </g>
    <g clip-path="url(#pc81aeda3fb)">
     <use xlink:href="#C4_0_5157b77603" x="422.628233" y="455.207912" style="fill: none; stroke: #737373; stroke-width: 1.5"/>
    </g>
    <g clip-path="url(#pc81aeda3fb)">
     <use xlink:href="#C4_0_5157b77603" x="422.628233" y="393.718751" style="fill: none; stroke: #737373; stroke-width: 1.5"/>
    </g>
    <g clip-path="url(#pc81aeda3fb)">
     <use xlink:href="#C4_0_5157b77603" x="422.628233" y="393.770821" style="fill: none; stroke: #737373; stroke-width: 1.5"/>
    </g>
    <g clip-path="url(#pc81aeda3fb)">
     <use xlink:href="#C4_0_5157b77603" x="422.628233" y="393.642815" style="fill: none; stroke: #737373; stroke-width: 1.5"/>
    </g>
    <g clip-path="url(#pc81aeda3fb)">
     <use xlink:href="#C4_0_5157b77603" x="422.628233" y="461.729474" style="fill: none; stroke: #737373; stroke-width: 1.5"/>
    </g>
    <g clip-path="url(#pc81aeda3fb)">
     <use xlink:href="#C4_0_5157b77603" x="422.628233" y="449.313716" style="fill: none; stroke: #737373; stroke-width: 1.5"/>
    </g>
    <g clip-path="url(#pc81aeda3fb)">
     <use xlink:href="#C4_0_5157b77603" x="422.628233" y="393.744689" style="fill: none; stroke: #737373; stroke-width: 1.5"/>
    </g>
    <g clip-path="url(#pc81aeda3fb)">
     <use xlink:href="#C4_0_5157b77603" x="422.628233" y="393.772421" style="fill: none; stroke: #737373; stroke-width: 1.5"/>
    </g>
    <g clip-path="url(#pc81aeda3fb)">
     <use xlink:href="#C4_0_5157b77603" x="422.628233" y="443.23248" style="fill: none; stroke: #737373; stroke-width: 1.5"/>
    </g>
   </g>
   <g id="PatchCollection_6">
    <path d="M 493.510533 406.213468 
L 493.732387 406.213468 
L 493.732387 404.710625 
L 493.510533 404.710625 
z
" clip-path="url(#pc81aeda3fb)" style="fill: #e0d9d8; stroke: #3d3d3d; stroke-width: 1.125"/>
    <path d="M 493.399606 404.710625 
L 493.843313 404.710625 
L 493.843313 402.538869 
L 493.399606 402.538869 
z
" clip-path="url(#pc81aeda3fb)" style="fill: #dcd3d1; stroke: #3d3d3d; stroke-width: 1.125"/>
    <path d="M 493.177752 402.538869 
L 494.065167 402.538869 
L 494.065167 401.016197 
L 493.177752 401.016197 
z
" clip-path="url(#pc81aeda3fb)" style="fill: #d6cbc9; stroke: #3d3d3d; stroke-width: 1.125"/>
    <path d="M 492.734044 401.016197 
L 494.508875 401.016197 
L 494.508875 398.652729 
L 492.734044 398.652729 
z
" clip-path="url(#pc81aeda3fb)" style="fill: #cfc2bf; stroke: #3d3d3d; stroke-width: 1.125"/>
    <path d="M 491.846629 398.652729 
L 495.39629 398.652729 
L 495.39629 396.777996 
L 491.846629 396.777996 
z
" clip-path="url(#pc81aeda3fb)" style="fill: #c6b5b2; stroke: #3d3d3d; stroke-width: 1.125"/>
    <path d="M 490.071798 396.777996 
L 497.171121 396.777996 
L 497.171121 395.393749 
L 490.071798 395.393749 
z
" clip-path="url(#pc81aeda3fb)" style="fill: #baa6a1; stroke: #3d3d3d; stroke-width: 1.125"/>
    <path d="M 486.522137 395.393749 
L 500.720782 395.393749 
L 500.720782 394.904739 
L 486.522137 394.904739 
z
" clip-path="url(#pc81aeda3fb)" style="fill: #ac928d; stroke: #3d3d3d; stroke-width: 1.125"/>
    <path d="M 479.422814 394.904739 
L 507.820105 394.904739 
L 507.820105 394.591718 
L 479.422814 394.591718 
z
" clip-path="url(#pc81aeda3fb)" style="fill: #9a7a73; stroke: #3d3d3d; stroke-width: 1.125"/>
    <path d="M 465.224169 394.591718 
L 522.01875 394.591718 
L 522.01875 394.090289 
L 465.224169 394.090289 
z
" clip-path="url(#pc81aeda3fb)" style="fill: #845b53; stroke: #3d3d3d; stroke-width: 1.125"/>
    <path d="M 479.422814 394.090289 
L 507.820105 394.090289 
L 507.820105 393.987782 
L 479.422814 393.987782 
z
" clip-path="url(#pc81aeda3fb)" style="fill: #9a7a73; stroke: #3d3d3d; stroke-width: 1.125"/>
    <path d="M 486.522137 393.987782 
L 500.720782 393.987782 
L 500.720782 393.919634 
L 486.522137 393.919634 
z
" clip-path="url(#pc81aeda3fb)" style="fill: #ac928d; stroke: #3d3d3d; stroke-width: 1.125"/>
    <path d="M 490.071798 393.919634 
L 497.171121 393.919634 
L 497.171121 393.870599 
L 490.071798 393.870599 
z
" clip-path="url(#pc81aeda3fb)" style="fill: #baa6a1; stroke: #3d3d3d; stroke-width: 1.125"/>
    <path d="M 491.846629 393.870599 
L 495.39629 393.870599 
L 495.39629 393.839906 
L 491.846629 393.839906 
z
" clip-path="url(#pc81aeda3fb)" style="fill: #c6b5b2; stroke: #3d3d3d; stroke-width: 1.125"/>
    <path d="M 492.734044 393.839906 
L 494.508875 393.839906 
L 494.508875 393.816953 
L 492.734044 393.816953 
z
" clip-path="url(#pc81aeda3fb)" style="fill: #cfc2bf; stroke: #3d3d3d; stroke-width: 1.125"/>
    <path d="M 493.177752 393.816953 
L 494.065167 393.816953 
L 494.065167 393.796887 
L 493.177752 393.796887 
z
" clip-path="url(#pc81aeda3fb)" style="fill: #d6cbc9; stroke: #3d3d3d; stroke-width: 1.125"/>
    <path d="M 493.399606 393.796887 
L 493.843313 393.796887 
L 493.843313 393.781884 
L 493.399606 393.781884 
z
" clip-path="url(#pc81aeda3fb)" style="fill: #dcd3d1; stroke: #3d3d3d; stroke-width: 1.125"/>
    <path d="M 493.510533 393.781884 
L 493.732387 393.781884 
L 493.732387 393.76944 
L 493.510533 393.76944 
z
" clip-path="url(#pc81aeda3fb)" style="fill: #e0d9d8; stroke: #3d3d3d; stroke-width: 1.125"/>
   </g>
   <g id="PathCollection_6">
    <defs>
     <path id="C5_0_c0e369feae" d="M 0 2.5 
C 0.663008 2.5 1.29895 2.236584 1.767767 1.767767 
C 2.236584 1.29895 2.5 0.663008 2.5 -0 
C 2.5 -0.663008 2.236584 -1.29895 1.767767 -1.767767 
C 1.29895 -2.236584 0.663008 -2.5 0 -2.5 
C -0.663008 -2.5 -1.29895 -2.236584 -1.767767 -1.767767 
C -2.236584 -1.29895 -2.5 -0.663008 -2.5 0 
C -2.5 0.663008 -2.236584 1.29895 -1.767767 1.767767 
C -1.29895 2.236584 -0.663008 2.5 0 2.5 
z
"/>
    </defs>
    <g clip-path="url(#pc81aeda3fb)">
     <use xlink:href="#C5_0_c0e369feae" x="493.62146" y="406.4412" style="fill: none; stroke: #737373; stroke-width: 1.5"/>
    </g>
    <g clip-path="url(#pc81aeda3fb)">
     <use xlink:href="#C5_0_c0e369feae" x="493.62146" y="393.73448" style="fill: none; stroke: #737373; stroke-width: 1.5"/>
    </g>
    <g clip-path="url(#pc81aeda3fb)">
     <use xlink:href="#C5_0_c0e369feae" x="493.62146" y="393.768047" style="fill: none; stroke: #737373; stroke-width: 1.5"/>
    </g>
    <g clip-path="url(#pc81aeda3fb)">
     <use xlink:href="#C5_0_c0e369feae" x="493.62146" y="418.42416" style="fill: none; stroke: #737373; stroke-width: 1.5"/>
    </g>
    <g clip-path="url(#pc81aeda3fb)">
     <use xlink:href="#C5_0_c0e369feae" x="493.62146" y="393.766181" style="fill: none; stroke: #737373; stroke-width: 1.5"/>
    </g>
    <g clip-path="url(#pc81aeda3fb)">
     <use xlink:href="#C5_0_c0e369feae" x="493.62146" y="393.74196" style="fill: none; stroke: #737373; stroke-width: 1.5"/>
    </g>
    <g clip-path="url(#pc81aeda3fb)">
     <use xlink:href="#C5_0_c0e369feae" x="493.62146" y="421.749839" style="fill: none; stroke: #737373; stroke-width: 1.5"/>
    </g>
    <g clip-path="url(#pc81aeda3fb)">
     <use xlink:href="#C5_0_c0e369feae" x="493.62146" y="407.429183" style="fill: none; stroke: #737373; stroke-width: 1.5"/>
    </g>
    <g clip-path="url(#pc81aeda3fb)">
     <use xlink:href="#C5_0_c0e369feae" x="493.62146" y="393.755366" style="fill: none; stroke: #737373; stroke-width: 1.5"/>
    </g>
    <g clip-path="url(#pc81aeda3fb)">
     <use xlink:href="#C5_0_c0e369feae" x="493.62146" y="393.761135" style="fill: none; stroke: #737373; stroke-width: 1.5"/>
    </g>
    <g clip-path="url(#pc81aeda3fb)">
     <use xlink:href="#C5_0_c0e369feae" x="493.62146" y="409.417288" style="fill: none; stroke: #737373; stroke-width: 1.5"/>
    </g>
    <g clip-path="url(#pc81aeda3fb)">
     <use xlink:href="#C5_0_c0e369feae" x="493.62146" y="410.880213" style="fill: none; stroke: #737373; stroke-width: 1.5"/>
    </g>
   </g>
   <g id="line2d_6">
    <path d="M 110.258036 394.144864 
L 167.052617 394.144864 
" clip-path="url(#pc81aeda3fb)" style="fill: none; stroke: #3d3d3d; stroke-width: 1.40625"/>
   </g>
   <g id="line2d_7">
    <path d="M 181.251262 394.546719 
L 238.045844 394.546719 
" clip-path="url(#pc81aeda3fb)" style="fill: none; stroke: #3d3d3d; stroke-width: 1.40625"/>
   </g>
   <g id="line2d_8">
    <path d="M 252.244489 394.44924 
L 309.03907 394.44924 
" clip-path="url(#pc81aeda3fb)" style="fill: none; stroke: #3d3d3d; stroke-width: 1.40625"/>
   </g>
   <g id="line2d_9">
    <path d="M 323.237716 394.535575 
L 380.032297 394.535575 
" clip-path="url(#pc81aeda3fb)" style="fill: none; stroke: #3d3d3d; stroke-width: 1.40625"/>
   </g>
   <g id="line2d_10">
    <path d="M 394.230942 394.926907 
L 451.025524 394.926907 
" clip-path="url(#pc81aeda3fb)" style="fill: none; stroke: #3d3d3d; stroke-width: 1.40625"/>
   </g>
   <g id="line2d_11">
    <path d="M 465.224169 394.287482 
L 522.01875 394.287482 
" clip-path="url(#pc81aeda3fb)" style="fill: none; stroke: #3d3d3d; stroke-width: 1.40625"/>
   </g>
   <g id="line2d_12">
    <path d="M 138.655326 372.715875 
L 138.655326 365.740035 
L 209.648553 365.740035 
L 209.648553 372.715875 
" style="fill: none; stroke: #333333; stroke-width: 1.5; stroke-linecap: round"/>
   </g>
   <g id="line2d_13">
    <path d="M 209.648553 348.743733 
L 209.648553 341.767893 
L 280.64178 341.767893 
L 280.64178 348.743733 
" style="fill: none; stroke: #333333; stroke-width: 1.5; stroke-linecap: round"/>
   </g>
   <g id="line2d_14">
    <path d="M 280.64178 324.771591 
L 280.64178 317.795751 
L 351.635006 317.795751 
L 351.635006 324.771591 
" style="fill: none; stroke: #333333; stroke-width: 1.5; stroke-linecap: round"/>
   </g>
   <g id="line2d_15">
    <path d="M 351.635006 300.799449 
L 351.635006 293.823609 
L 422.628233 293.823609 
L 422.628233 300.799449 
" style="fill: none; stroke: #333333; stroke-width: 1.5; stroke-linecap: round"/>
   </g>
   <g id="line2d_16">
    <path d="M 422.628233 276.827307 
L 422.628233 269.851467 
L 493.62146 269.851467 
L 493.62146 276.827307 
" style="fill: none; stroke: #333333; stroke-width: 1.5; stroke-linecap: round"/>
   </g>
   <g id="line2d_17">
    <path d="M 138.655326 300.799449 
L 138.655326 293.823609 
L 280.64178 293.823609 
L 280.64178 300.799449 
" style="fill: none; stroke: #333333; stroke-width: 1.5; stroke-linecap: round"/>
   </g>
   <g id="line2d_18">
    <path d="M 280.64178 252.855164 
L 280.64178 245.879324 
L 422.628233 245.879324 
L 422.628233 252.855164 
" style="fill: none; stroke: #333333; stroke-width: 1.5; stroke-linecap: round"/>
   </g>
   <g id="line2d_19">
    <path d="M 351.635006 228.883022 
L 351.635006 221.907182 
L 493.62146 221.907182 
L 493.62146 228.883022 
" style="fill: none; stroke: #333333; stroke-width: 1.5; stroke-linecap: round"/>
   </g>
   <g id="line2d_20">
    <path d="M 138.655326 204.91088 
L 138.655326 197.93504 
L 351.635006 197.93504 
L 351.635006 204.91088 
" style="fill: none; stroke: #333333; stroke-width: 1.5; stroke-linecap: round"/>
   </g>
   <g id="line2d_21">
    <path d="M 209.648553 180.938738 
L 209.648553 173.962898 
L 422.628233 173.962898 
L 422.628233 180.938738 
" style="fill: none; stroke: #333333; stroke-width: 1.5; stroke-linecap: round"/>
   </g>
   <g id="line2d_22">
    <path d="M 280.64178 156.966596 
L 280.64178 149.990756 
L 493.62146 149.990756 
L 493.62146 156.966596 
" style="fill: none; stroke: #333333; stroke-width: 1.5; stroke-linecap: round"/>
   </g>
   <g id="line2d_23">
    <path d="M 138.655326 132.994454 
L 138.655326 126.018614 
L 422.628233 126.018614 
L 422.628233 132.994454 
" style="fill: none; stroke: #333333; stroke-width: 1.5; stroke-linecap: round"/>
   </g>
   <g id="line2d_24">
    <path d="M 209.648553 109.022311 
L 209.648553 102.046471 
L 493.62146 102.046471 
L 493.62146 109.022311 
" style="fill: none; stroke: #333333; stroke-width: 1.5; stroke-linecap: round"/>
   </g>
   <g id="line2d_25">
    <path d="M 138.655326 85.050169 
L 138.655326 78.074329 
L 493.62146 78.074329 
L 493.62146 85.050169 
" style="fill: none; stroke: #333333; stroke-width: 1.5; stroke-linecap: round"/>
   </g>
   <g id="patch_3">
    <path d="M 89.67 726.580631 
L 89.67 43.296 
" style="fill: none; stroke: #cccccc; stroke-width: 1.875; stroke-linejoin: miter; stroke-linecap: square"/>
   </g>
   <g id="patch_4">
    <path d="M 542.606786 726.580631 
L 542.606786 43.296 
" style="fill: none; stroke: #cccccc; stroke-width: 1.875; stroke-linejoin: miter; stroke-linecap: square"/>
   </g>
   <g id="patch_5">
    <path d="M 89.67 726.580631 
L 542.606786 726.580631 
" style="fill: none; stroke: #cccccc; stroke-width: 1.875; stroke-linejoin: miter; stroke-linecap: square"/>
   </g>
   <g id="patch_6">
    <path d="M 89.67 43.296 
L 542.606786 43.296 
" style="fill: none; stroke: #cccccc; stroke-width: 1.875; stroke-linejoin: miter; stroke-linecap: square"/>
   </g>
   <g id="text_14">
    <!-- **** -->
    <g style="fill: #262626" transform="translate(160.140065 361.162535) scale(0.18 -0.18)">
     <defs>
      <path id="ArialMT-2a" d="M 200 3741 
L 344 4184 
Q 841 4009 1066 3881 
Q 1006 4447 1003 4659 
L 1456 4659 
Q 1447 4350 1384 3884 
Q 1706 4047 2122 4184 
L 2266 3741 
Q 1869 3609 1488 3566 
Q 1678 3400 2025 2975 
L 1650 2709 
Q 1469 2956 1222 3381 
Q 991 2941 816 2709 
L 447 2975 
Q 809 3422 966 3566 
Q 563 3644 200 3741 
z
" transform="scale(0.015625)"/>
     </defs>
     <use xlink:href="#ArialMT-2a"/>
     <use xlink:href="#ArialMT-2a" transform="translate(38.916016 0)"/>
     <use xlink:href="#ArialMT-2a" transform="translate(77.832031 0)"/>
     <use xlink:href="#ArialMT-2a" transform="translate(116.748047 0)"/>
    </g>
   </g>
   <g id="text_15">
    <!-- **** -->
    <g style="fill: #262626" transform="translate(231.133291 337.190393) scale(0.18 -0.18)">
     <use xlink:href="#ArialMT-2a"/>
     <use xlink:href="#ArialMT-2a" transform="translate(38.916016 0)"/>
     <use xlink:href="#ArialMT-2a" transform="translate(77.832031 0)"/>
     <use xlink:href="#ArialMT-2a" transform="translate(116.748047 0)"/>
    </g>
   </g>
   <g id="text_16">
    <!-- **** -->
    <g style="fill: #262626" transform="translate(302.126518 313.218251) scale(0.18 -0.18)">
     <use xlink:href="#ArialMT-2a"/>
     <use xlink:href="#ArialMT-2a" transform="translate(38.916016 0)"/>
     <use xlink:href="#ArialMT-2a" transform="translate(77.832031 0)"/>
     <use xlink:href="#ArialMT-2a" transform="translate(116.748047 0)"/>
    </g>
   </g>
   <g id="text_17">
    <!-- **** -->
    <g style="fill: #262626" transform="translate(373.119745 289.246109) scale(0.18 -0.18)">
     <use xlink:href="#ArialMT-2a"/>
     <use xlink:href="#ArialMT-2a" transform="translate(38.916016 0)"/>
     <use xlink:href="#ArialMT-2a" transform="translate(77.832031 0)"/>
     <use xlink:href="#ArialMT-2a" transform="translate(116.748047 0)"/>
    </g>
   </g>
   <g id="text_18">
    <!-- **** -->
    <g style="fill: #262626" transform="translate(444.112971 265.273967) scale(0.18 -0.18)">
     <use xlink:href="#ArialMT-2a"/>
     <use xlink:href="#ArialMT-2a" transform="translate(38.916016 0)"/>
     <use xlink:href="#ArialMT-2a" transform="translate(77.832031 0)"/>
     <use xlink:href="#ArialMT-2a" transform="translate(116.748047 0)"/>
    </g>
   </g>
   <g id="text_19">
    <!-- **** -->
    <g style="fill: #262626" transform="translate(195.636678 289.246109) scale(0.18 -0.18)">
     <use xlink:href="#ArialMT-2a"/>
     <use xlink:href="#ArialMT-2a" transform="translate(38.916016 0)"/>
     <use xlink:href="#ArialMT-2a" transform="translate(77.832031 0)"/>
     <use xlink:href="#ArialMT-2a" transform="translate(116.748047 0)"/>
    </g>
   </g>
   <g id="text_20">
    <!-- **** -->
    <g style="fill: #262626" transform="translate(337.623131 241.301824) scale(0.18 -0.18)">
     <use xlink:href="#ArialMT-2a"/>
     <use xlink:href="#ArialMT-2a" transform="translate(38.916016 0)"/>
     <use xlink:href="#ArialMT-2a" transform="translate(77.832031 0)"/>
     <use xlink:href="#ArialMT-2a" transform="translate(116.748047 0)"/>
    </g>
   </g>
   <g id="text_21">
    <!-- **** -->
    <g style="fill: #262626" transform="translate(408.616358 217.329682) scale(0.18 -0.18)">
     <use xlink:href="#ArialMT-2a"/>
     <use xlink:href="#ArialMT-2a" transform="translate(38.916016 0)"/>
     <use xlink:href="#ArialMT-2a" transform="translate(77.832031 0)"/>
     <use xlink:href="#ArialMT-2a" transform="translate(116.748047 0)"/>
    </g>
   </g>
   <g id="text_22">
    <!-- **** -->
    <g style="fill: #262626" transform="translate(231.133291 193.35754) scale(0.18 -0.18)">
     <use xlink:href="#ArialMT-2a"/>
     <use xlink:href="#ArialMT-2a" transform="translate(38.916016 0)"/>
     <use xlink:href="#ArialMT-2a" transform="translate(77.832031 0)"/>
     <use xlink:href="#ArialMT-2a" transform="translate(116.748047 0)"/>
    </g>
   </g>
   <g id="text_23">
    <!-- **** -->
    <g style="fill: #262626" transform="translate(302.126518 169.385398) scale(0.18 -0.18)">
     <use xlink:href="#ArialMT-2a"/>
     <use xlink:href="#ArialMT-2a" transform="translate(38.916016 0)"/>
     <use xlink:href="#ArialMT-2a" transform="translate(77.832031 0)"/>
     <use xlink:href="#ArialMT-2a" transform="translate(116.748047 0)"/>
    </g>
   </g>
   <g id="text_24">
    <!-- **** -->
    <g style="fill: #262626" transform="translate(373.119745 145.413256) scale(0.18 -0.18)">
     <use xlink:href="#ArialMT-2a"/>
     <use xlink:href="#ArialMT-2a" transform="translate(38.916016 0)"/>
     <use xlink:href="#ArialMT-2a" transform="translate(77.832031 0)"/>
     <use xlink:href="#ArialMT-2a" transform="translate(116.748047 0)"/>
    </g>
   </g>
   <g id="text_25">
    <!-- **** -->
    <g style="fill: #262626" transform="translate(266.629905 121.441114) scale(0.18 -0.18)">
     <use xlink:href="#ArialMT-2a"/>
     <use xlink:href="#ArialMT-2a" transform="translate(38.916016 0)"/>
     <use xlink:href="#ArialMT-2a" transform="translate(77.832031 0)"/>
     <use xlink:href="#ArialMT-2a" transform="translate(116.748047 0)"/>
    </g>
   </g>
   <g id="text_26">
    <!-- **** -->
    <g style="fill: #262626" transform="translate(337.623131 97.468971) scale(0.18 -0.18)">
     <use xlink:href="#ArialMT-2a"/>
     <use xlink:href="#ArialMT-2a" transform="translate(38.916016 0)"/>
     <use xlink:href="#ArialMT-2a" transform="translate(77.832031 0)"/>
     <use xlink:href="#ArialMT-2a" transform="translate(116.748047 0)"/>
    </g>
   </g>
   <g id="text_27">
    <!-- **** -->
    <g style="fill: #262626" transform="translate(302.126518 73.496829) scale(0.18 -0.18)">
     <use xlink:href="#ArialMT-2a"/>
     <use xlink:href="#ArialMT-2a" transform="translate(38.916016 0)"/>
     <use xlink:href="#ArialMT-2a" transform="translate(77.832031 0)"/>
     <use xlink:href="#ArialMT-2a" transform="translate(116.748047 0)"/>
    </g>
   </g>
   <g id="text_28">
    <!-- Ranked $r^2$ per Fold per Target -->
    <g style="fill: #262626" transform="translate(194.638393 37.296) scale(0.18 -0.18)">
     <defs>
      <path id="ArialMT-6b" d="M 425 0 
L 425 4581 
L 988 4581 
L 988 1969 
L 2319 3319 
L 3047 3319 
L 1778 2088 
L 3175 0 
L 2481 0 
L 1384 1697 
L 988 1316 
L 988 0 
L 425 0 
z
" transform="scale(0.015625)"/>
      <path id="ArialMT-20" transform="scale(0.015625)"/>
      <path id="DejaVuSans-Oblique-72" d="M 2853 2969 
Q 2766 3016 2653 3041 
Q 2541 3066 2413 3066 
Q 1953 3066 1609 2717 
Q 1266 2369 1153 1784 
L 800 0 
L 225 0 
L 909 3500 
L 1484 3500 
L 1375 2956 
Q 1603 3259 1920 3421 
Q 2238 3584 2597 3584 
Q 2691 3584 2781 3573 
Q 2872 3563 2963 3538 
L 2853 2969 
z
" transform="scale(0.015625)"/>
      <path id="DejaVuSans-32" d="M 1228 531 
L 3431 531 
L 3431 0 
L 469 0 
L 469 531 
Q 828 903 1448 1529 
Q 2069 2156 2228 2338 
Q 2531 2678 2651 2914 
Q 2772 3150 2772 3378 
Q 2772 3750 2511 3984 
Q 2250 4219 1831 4219 
Q 1534 4219 1204 4116 
Q 875 4013 500 3803 
L 500 4441 
Q 881 4594 1212 4672 
Q 1544 4750 1819 4750 
Q 2544 4750 2975 4387 
Q 3406 4025 3406 3419 
Q 3406 3131 3298 2873 
Q 3191 2616 2906 2266 
Q 2828 2175 2409 1742 
Q 1991 1309 1228 531 
z
" transform="scale(0.015625)"/>
      <path id="ArialMT-54" d="M 1659 0 
L 1659 4041 
L 150 4041 
L 150 4581 
L 3781 4581 
L 3781 4041 
L 2266 4041 
L 2266 0 
L 1659 0 
z
" transform="scale(0.015625)"/>
     </defs>
     <use xlink:href="#ArialMT-52" transform="translate(0 0.765625)"/>
     <use xlink:href="#ArialMT-61" transform="translate(72.216797 0.765625)"/>
     <use xlink:href="#ArialMT-6e" transform="translate(127.832031 0.765625)"/>
     <use xlink:href="#ArialMT-6b" transform="translate(183.447266 0.765625)"/>
     <use xlink:href="#ArialMT-65" transform="translate(233.447266 0.765625)"/>
     <use xlink:href="#ArialMT-64" transform="translate(289.0625 0.765625)"/>
     <use xlink:href="#ArialMT-20" transform="translate(344.677734 0.765625)"/>
     <use xlink:href="#DejaVuSans-Oblique-72" transform="translate(372.460938 0.765625)"/>
     <use xlink:href="#DejaVuSans-32" transform="translate(418.224115 39.046875) scale(0.7)"/>
     <use xlink:href="#ArialMT-20" transform="translate(465.494622 0.765625)"/>
     <use xlink:href="#ArialMT-70" transform="translate(493.277826 0.765625)"/>
     <use xlink:href="#ArialMT-65" transform="translate(548.89306 0.765625)"/>
     <use xlink:href="#ArialMT-72" transform="translate(604.508294 0.765625)"/>
     <use xlink:href="#ArialMT-20" transform="translate(637.809076 0.765625)"/>
     <use xlink:href="#ArialMT-46" transform="translate(665.592279 0.765625)"/>
     <use xlink:href="#ArialMT-6f" transform="translate(726.676263 0.765625)"/>
     <use xlink:href="#ArialMT-6c" transform="translate(782.291497 0.765625)"/>
     <use xlink:href="#ArialMT-64" transform="translate(804.508294 0.765625)"/>
     <use xlink:href="#ArialMT-20" transform="translate(860.123529 0.765625)"/>
     <use xlink:href="#ArialMT-70" transform="translate(887.906732 0.765625)"/>
     <use xlink:href="#ArialMT-65" transform="translate(943.521966 0.765625)"/>
     <use xlink:href="#ArialMT-72" transform="translate(999.137201 0.765625)"/>
     <use xlink:href="#ArialMT-20" transform="translate(1032.437982 0.765625)"/>
     <use xlink:href="#ArialMT-54" transform="translate(1060.221185 0.765625)"/>
     <use xlink:href="#ArialMT-61" transform="translate(1121.305169 0.765625)"/>
     <use xlink:href="#ArialMT-72" transform="translate(1176.920404 0.765625)"/>
     <use xlink:href="#ArialMT-67" transform="translate(1210.221185 0.765625)"/>
     <use xlink:href="#ArialMT-65" transform="translate(1265.836419 0.765625)"/>
     <use xlink:href="#ArialMT-74" transform="translate(1321.451654 0.765625)"/>
    </g>
   </g>
  </g>
 </g>
 <defs>
  <clipPath id="pc81aeda3fb">
   <rect x="89.67" y="43.296" width="452.936786" height="683.284631"/>
  </clipPath>
 </defs>
</svg>
