<?xml version="1.0" encoding="utf-8" standalone="no"?>
<!DOCTYPE svg PUBLIC "-//W3C//DTD SVG 1.1//EN"
        "http://www.w3.org/Graphics/SVG/1.1/DTD/svg11.dtd">
<svg xmlns:xlink="http://www.w3.org/1999/xlink" width="720pt" height="864pt" viewBox="0 0 720 864"
     xmlns="http://www.w3.org/2000/svg" version="1.1">
    <metadata>
        <rdf:RDF xmlns:dc="http://purl.org/dc/elements/1.1/" xmlns:cc="http://creativecommons.org/ns#"
                 xmlns:rdf="http://www.w3.org/1999/02/22-rdf-syntax-ns#">
            <cc:Work>
                <dc:type rdf:resource="http://purl.org/dc/dcmitype/StillImage"/>
                <dc:date>2025-02-20T03:50:51.341953</dc:date>
                <dc:format>image/svg+xml</dc:format>
                <dc:creator>
                    <cc:Agent>
                        <dc:title>Matplotlib v3.10.0, https://matplotlib.org/</dc:title>
                    </cc:Agent>
                </dc:creator>
            </cc:Work>
        </rdf:RDF>
    </metadata>
    <defs>
        <style type="text/css">*{stroke-linejoin: round; stroke-linecap: butt}</style>
    </defs>
    <g id="figure_1">
        <g id="patch_1">
            <path d="M 0 864
L 720 864 
L 720 0 
L 0 0 
z
" style="fill: #ffffff"/>
        </g>
        <g id="axes_1">
            <g id="patch_2">
                <path d="M 89.67 654.580631
L 698.676378 654.580631 
L 698.676378 43.296 
L 89.67 43.296 
z
" style="fill: #ffffff"/>
            </g>
            <g id="matplotlib.axis_1">
                <g id="xtick_1">
                    <g id="text_1">
                        <!-- RandomSplit -->
                        <g style="fill: #262626"
                           transform="translate(125.224967 742.367284) rotate(-45) scale(0.165 -0.165)">
                            <defs>
                                <path id="ArialMT-52" d="M 503 0
L 503 4581 
L 2534 4581 
Q 3147 4581 3465 4457 
Q 3784 4334 3975 4021 
Q 4166 3709 4166 3331 
Q 4166 2844 3850 2509 
Q 3534 2175 2875 2084 
Q 3116 1969 3241 1856 
Q 3506 1613 3744 1247 
L 4541 0 
L 3778 0 
L 3172 953 
Q 2906 1366 2734 1584 
Q 2563 1803 2427 1890 
Q 2291 1978 2150 2013 
Q 2047 2034 1813 2034 
L 1109 2034 
L 1109 0 
L 503 0 
z
M 1109 2559 
L 2413 2559 
Q 2828 2559 3062 2645 
Q 3297 2731 3419 2920 
Q 3541 3109 3541 3331 
Q 3541 3656 3305 3865 
Q 3069 4075 2559 4075 
L 1109 4075 
L 1109 2559 
z
" transform="scale(0.015625)"/>
                                <path id="ArialMT-61" d="M 2588 409
Q 2275 144 1986 34 
Q 1697 -75 1366 -75 
Q 819 -75 525 192 
Q 231 459 231 875 
Q 231 1119 342 1320 
Q 453 1522 633 1644 
Q 813 1766 1038 1828 
Q 1203 1872 1538 1913 
Q 2219 1994 2541 2106 
Q 2544 2222 2544 2253 
Q 2544 2597 2384 2738 
Q 2169 2928 1744 2928 
Q 1347 2928 1158 2789 
Q 969 2650 878 2297 
L 328 2372 
Q 403 2725 575 2942 
Q 747 3159 1072 3276 
Q 1397 3394 1825 3394 
Q 2250 3394 2515 3294 
Q 2781 3194 2906 3042 
Q 3031 2891 3081 2659 
Q 3109 2516 3109 2141 
L 3109 1391 
Q 3109 606 3145 398 
Q 3181 191 3288 0 
L 2700 0 
Q 2613 175 2588 409 
z
M 2541 1666 
Q 2234 1541 1622 1453 
Q 1275 1403 1131 1340 
Q 988 1278 909 1158 
Q 831 1038 831 891 
Q 831 666 1001 516 
Q 1172 366 1500 366 
Q 1825 366 2078 508 
Q 2331 650 2450 897 
Q 2541 1088 2541 1459 
L 2541 1666 
z
" transform="scale(0.015625)"/>
                                <path id="ArialMT-6e" d="M 422 0
L 422 3319 
L 928 3319 
L 928 2847 
Q 1294 3394 1984 3394 
Q 2284 3394 2536 3286 
Q 2788 3178 2913 3003 
Q 3038 2828 3088 2588 
Q 3119 2431 3119 2041 
L 3119 0 
L 2556 0 
L 2556 2019 
Q 2556 2363 2490 2533 
Q 2425 2703 2258 2804 
Q 2091 2906 1866 2906 
Q 1506 2906 1245 2678 
Q 984 2450 984 1813 
L 984 0 
L 422 0 
z
" transform="scale(0.015625)"/>
                                <path id="ArialMT-64" d="M 2575 0
L 2575 419 
Q 2259 -75 1647 -75 
Q 1250 -75 917 144 
Q 584 363 401 755 
Q 219 1147 219 1656 
Q 219 2153 384 2558 
Q 550 2963 881 3178 
Q 1213 3394 1622 3394 
Q 1922 3394 2156 3267 
Q 2391 3141 2538 2938 
L 2538 4581 
L 3097 4581 
L 3097 0 
L 2575 0 
z
M 797 1656 
Q 797 1019 1065 703 
Q 1334 388 1700 388 
Q 2069 388 2326 689 
Q 2584 991 2584 1609 
Q 2584 2291 2321 2609 
Q 2059 2928 1675 2928 
Q 1300 2928 1048 2622 
Q 797 2316 797 1656 
z
" transform="scale(0.015625)"/>
                                <path id="ArialMT-6f" d="M 213 1659
Q 213 2581 725 3025 
Q 1153 3394 1769 3394 
Q 2453 3394 2887 2945 
Q 3322 2497 3322 1706 
Q 3322 1066 3130 698 
Q 2938 331 2570 128 
Q 2203 -75 1769 -75 
Q 1072 -75 642 372 
Q 213 819 213 1659 
z
M 791 1659 
Q 791 1022 1069 705 
Q 1347 388 1769 388 
Q 2188 388 2466 706 
Q 2744 1025 2744 1678 
Q 2744 2294 2464 2611 
Q 2184 2928 1769 2928 
Q 1347 2928 1069 2612 
Q 791 2297 791 1659 
z
" transform="scale(0.015625)"/>
                                <path id="ArialMT-6d" d="M 422 0
L 422 3319 
L 925 3319 
L 925 2853 
Q 1081 3097 1340 3245 
Q 1600 3394 1931 3394 
Q 2300 3394 2536 3241 
Q 2772 3088 2869 2813 
Q 3263 3394 3894 3394 
Q 4388 3394 4653 3120 
Q 4919 2847 4919 2278 
L 4919 0 
L 4359 0 
L 4359 2091 
Q 4359 2428 4304 2576 
Q 4250 2725 4106 2815 
Q 3963 2906 3769 2906 
Q 3419 2906 3187 2673 
Q 2956 2441 2956 1928 
L 2956 0 
L 2394 0 
L 2394 2156 
Q 2394 2531 2256 2718 
Q 2119 2906 1806 2906 
Q 1569 2906 1367 2781 
Q 1166 2656 1075 2415 
Q 984 2175 984 1722 
L 984 0 
L 422 0 
z
" transform="scale(0.015625)"/>
                                <path id="ArialMT-53" d="M 288 1472
L 859 1522 
Q 900 1178 1048 958 
Q 1197 738 1509 602 
Q 1822 466 2213 466 
Q 2559 466 2825 569 
Q 3091 672 3220 851 
Q 3350 1031 3350 1244 
Q 3350 1459 3225 1620 
Q 3100 1781 2813 1891 
Q 2628 1963 1997 2114 
Q 1366 2266 1113 2400 
Q 784 2572 623 2826 
Q 463 3081 463 3397 
Q 463 3744 659 4045 
Q 856 4347 1234 4503 
Q 1613 4659 2075 4659 
Q 2584 4659 2973 4495 
Q 3363 4331 3572 4012 
Q 3781 3694 3797 3291 
L 3216 3247 
Q 3169 3681 2898 3903 
Q 2628 4125 2100 4125 
Q 1550 4125 1298 3923 
Q 1047 3722 1047 3438 
Q 1047 3191 1225 3031 
Q 1400 2872 2139 2705 
Q 2878 2538 3153 2413 
Q 3553 2228 3743 1945 
Q 3934 1663 3934 1294 
Q 3934 928 3725 604 
Q 3516 281 3123 101 
Q 2731 -78 2241 -78 
Q 1619 -78 1198 103 
Q 778 284 539 648 
Q 300 1013 288 1472 
z
" transform="scale(0.015625)"/>
                                <path id="ArialMT-70" d="M 422 -1272
L 422 3319 
L 934 3319 
L 934 2888 
Q 1116 3141 1344 3267 
Q 1572 3394 1897 3394 
Q 2322 3394 2647 3175 
Q 2972 2956 3137 2557 
Q 3303 2159 3303 1684 
Q 3303 1175 3120 767 
Q 2938 359 2589 142 
Q 2241 -75 1856 -75 
Q 1575 -75 1351 44 
Q 1128 163 984 344 
L 984 -1272 
L 422 -1272 
z
M 931 1641 
Q 931 1000 1190 694 
Q 1450 388 1819 388 
Q 2194 388 2461 705 
Q 2728 1022 2728 1688 
Q 2728 2322 2467 2637 
Q 2206 2953 1844 2953 
Q 1484 2953 1207 2617 
Q 931 2281 931 1641 
z
" transform="scale(0.015625)"/>
                                <path id="ArialMT-6c" d="M 409 0
L 409 4581 
L 972 4581 
L 972 0 
L 409 0 
z
" transform="scale(0.015625)"/>
                                <path id="ArialMT-69" d="M 425 3934
L 425 4581 
L 988 4581 
L 988 3934 
L 425 3934 
z
M 425 0 
L 425 3319 
L 988 3319 
L 988 0 
L 425 0 
z
" transform="scale(0.015625)"/>
                                <path id="ArialMT-74" d="M 1650 503
L 1731 6 
Q 1494 -44 1306 -44 
Q 1000 -44 831 53 
Q 663 150 594 308 
Q 525 466 525 972 
L 525 2881 
L 113 2881 
L 113 3319 
L 525 3319 
L 525 4141 
L 1084 4478 
L 1084 3319 
L 1650 3319 
L 1650 2881 
L 1084 2881 
L 1084 941 
Q 1084 700 1114 631 
Q 1144 563 1211 522 
Q 1278 481 1403 481 
Q 1497 481 1650 503 
z
" transform="scale(0.015625)"/>
                            </defs>
                            <use xlink:href="#ArialMT-52"/>
                            <use xlink:href="#ArialMT-61" transform="translate(72.216797 0)"/>
                            <use xlink:href="#ArialMT-6e" transform="translate(127.832031 0)"/>
                            <use xlink:href="#ArialMT-64" transform="translate(183.447266 0)"/>
                            <use xlink:href="#ArialMT-6f" transform="translate(239.0625 0)"/>
                            <use xlink:href="#ArialMT-6d" transform="translate(294.677734 0)"/>
                            <use xlink:href="#ArialMT-53" transform="translate(377.978516 0)"/>
                            <use xlink:href="#ArialMT-70" transform="translate(444.677734 0)"/>
                            <use xlink:href="#ArialMT-6c" transform="translate(500.292969 0)"/>
                            <use xlink:href="#ArialMT-69" transform="translate(522.509766 0)"/>
                            <use xlink:href="#ArialMT-74" transform="translate(544.726562 0)"/>
                        </g>
                    </g>
                </g>
                <g id="xtick_2">
                    <g id="text_2">
                        <!-- ScaffoldSplit -->
                        <g style="fill: #262626"
                           transform="translate(221.753354 740.221602) rotate(-45) scale(0.165 -0.165)">
                            <defs>
                                <path id="ArialMT-63" d="M 2588 1216
L 3141 1144 
Q 3050 572 2676 248 
Q 2303 -75 1759 -75 
Q 1078 -75 664 370 
Q 250 816 250 1647 
Q 250 2184 428 2587 
Q 606 2991 970 3192 
Q 1334 3394 1763 3394 
Q 2303 3394 2647 3120 
Q 2991 2847 3088 2344 
L 2541 2259 
Q 2463 2594 2264 2762 
Q 2066 2931 1784 2931 
Q 1359 2931 1093 2626 
Q 828 2322 828 1663 
Q 828 994 1084 691 
Q 1341 388 1753 388 
Q 2084 388 2306 591 
Q 2528 794 2588 1216 
z
" transform="scale(0.015625)"/>
                                <path id="ArialMT-66" d="M 556 0
L 556 2881 
L 59 2881 
L 59 3319 
L 556 3319 
L 556 3672 
Q 556 4006 616 4169 
Q 697 4388 901 4523 
Q 1106 4659 1475 4659 
Q 1713 4659 2000 4603 
L 1916 4113 
Q 1741 4144 1584 4144 
Q 1328 4144 1222 4034 
Q 1116 3925 1116 3625 
L 1116 3319 
L 1763 3319 
L 1763 2881 
L 1116 2881 
L 1116 0 
L 556 0 
z
" transform="scale(0.015625)"/>
                            </defs>
                            <use xlink:href="#ArialMT-53"/>
                            <use xlink:href="#ArialMT-63" transform="translate(66.699219 0)"/>
                            <use xlink:href="#ArialMT-61" transform="translate(116.699219 0)"/>
                            <use xlink:href="#ArialMT-66" transform="translate(172.314453 0)"/>
                            <use xlink:href="#ArialMT-66" transform="translate(198.347656 0)"/>
                            <use xlink:href="#ArialMT-6f" transform="translate(226.130859 0)"/>
                            <use xlink:href="#ArialMT-6c" transform="translate(281.746094 0)"/>
                            <use xlink:href="#ArialMT-64" transform="translate(303.962891 0)"/>
                            <use xlink:href="#ArialMT-53" transform="translate(359.578125 0)"/>
                            <use xlink:href="#ArialMT-70" transform="translate(426.277344 0)"/>
                            <use xlink:href="#ArialMT-6c" transform="translate(481.892578 0)"/>
                            <use xlink:href="#ArialMT-69" transform="translate(504.109375 0)"/>
                            <use xlink:href="#ArialMT-74" transform="translate(526.326172 0)"/>
                        </g>
                    </g>
                </g>
                <g id="xtick_3">
                    <g id="text_3">
                        <!-- SortedStepForward_LogD -->
                        <g style="fill: #262626"
                           transform="translate(281.695759 811.111156) rotate(-45) scale(0.165 -0.165)">
                            <defs>
                                <path id="ArialMT-72" d="M 416 0
L 416 3319 
L 922 3319 
L 922 2816 
Q 1116 3169 1280 3281 
Q 1444 3394 1641 3394 
Q 1925 3394 2219 3213 
L 2025 2691 
Q 1819 2813 1613 2813 
Q 1428 2813 1281 2702 
Q 1134 2591 1072 2394 
Q 978 2094 978 1738 
L 978 0 
L 416 0 
z
" transform="scale(0.015625)"/>
                                <path id="ArialMT-65" d="M 2694 1069
L 3275 997 
Q 3138 488 2766 206 
Q 2394 -75 1816 -75 
Q 1088 -75 661 373 
Q 234 822 234 1631 
Q 234 2469 665 2931 
Q 1097 3394 1784 3394 
Q 2450 3394 2872 2941 
Q 3294 2488 3294 1666 
Q 3294 1616 3291 1516 
L 816 1516 
Q 847 969 1125 678 
Q 1403 388 1819 388 
Q 2128 388 2347 550 
Q 2566 713 2694 1069 
z
M 847 1978 
L 2700 1978 
Q 2663 2397 2488 2606 
Q 2219 2931 1791 2931 
Q 1403 2931 1139 2672 
Q 875 2413 847 1978 
z
" transform="scale(0.015625)"/>
                                <path id="ArialMT-46" d="M 525 0
L 525 4581 
L 3616 4581 
L 3616 4041 
L 1131 4041 
L 1131 2622 
L 3281 2622 
L 3281 2081 
L 1131 2081 
L 1131 0 
L 525 0 
z
" transform="scale(0.015625)"/>
                                <path id="ArialMT-77" d="M 1034 0
L 19 3319 
L 600 3319 
L 1128 1403 
L 1325 691 
Q 1338 744 1497 1375 
L 2025 3319 
L 2603 3319 
L 3100 1394 
L 3266 759 
L 3456 1400 
L 4025 3319 
L 4572 3319 
L 3534 0 
L 2950 0 
L 2422 1988 
L 2294 2553 
L 1622 0 
L 1034 0 
z
" transform="scale(0.015625)"/>
                                <path id="ArialMT-5f" d="M -97 -1272
L -97 -866 
L 3631 -866 
L 3631 -1272 
L -97 -1272 
z
" transform="scale(0.015625)"/>
                                <path id="ArialMT-4c" d="M 469 0
L 469 4581 
L 1075 4581 
L 1075 541 
L 3331 541 
L 3331 0 
L 469 0 
z
" transform="scale(0.015625)"/>
                                <path id="ArialMT-67" d="M 319 -275
L 866 -356 
Q 900 -609 1056 -725 
Q 1266 -881 1628 -881 
Q 2019 -881 2231 -725 
Q 2444 -569 2519 -288 
Q 2563 -116 2559 434 
Q 2191 0 1641 0 
Q 956 0 581 494 
Q 206 988 206 1678 
Q 206 2153 378 2554 
Q 550 2956 876 3175 
Q 1203 3394 1644 3394 
Q 2231 3394 2613 2919 
L 2613 3319 
L 3131 3319 
L 3131 450 
Q 3131 -325 2973 -648 
Q 2816 -972 2473 -1159 
Q 2131 -1347 1631 -1347 
Q 1038 -1347 672 -1080 
Q 306 -813 319 -275 
z
M 784 1719 
Q 784 1066 1043 766 
Q 1303 466 1694 466 
Q 2081 466 2343 764 
Q 2606 1063 2606 1700 
Q 2606 2309 2336 2618 
Q 2066 2928 1684 2928 
Q 1309 2928 1046 2623 
Q 784 2319 784 1719 
z
" transform="scale(0.015625)"/>
                                <path id="ArialMT-44" d="M 494 0
L 494 4581 
L 2072 4581 
Q 2606 4581 2888 4516 
Q 3281 4425 3559 4188 
Q 3922 3881 4101 3404 
Q 4281 2928 4281 2316 
Q 4281 1794 4159 1391 
Q 4038 988 3847 723 
Q 3656 459 3429 307 
Q 3203 156 2883 78 
Q 2563 0 2147 0 
L 494 0 
z
M 1100 541 
L 2078 541 
Q 2531 541 2789 625 
Q 3047 709 3200 863 
Q 3416 1078 3536 1442 
Q 3656 1806 3656 2325 
Q 3656 3044 3420 3430 
Q 3184 3816 2847 3947 
Q 2603 4041 2063 4041 
L 1100 4041 
L 1100 541 
z
" transform="scale(0.015625)"/>
                            </defs>
                            <use xlink:href="#ArialMT-53"/>
                            <use xlink:href="#ArialMT-6f" transform="translate(66.699219 0)"/>
                            <use xlink:href="#ArialMT-72" transform="translate(122.314453 0)"/>
                            <use xlink:href="#ArialMT-74" transform="translate(155.615234 0)"/>
                            <use xlink:href="#ArialMT-65" transform="translate(183.398438 0)"/>
                            <use xlink:href="#ArialMT-64" transform="translate(239.013672 0)"/>
                            <use xlink:href="#ArialMT-53" transform="translate(294.628906 0)"/>
                            <use xlink:href="#ArialMT-74" transform="translate(361.328125 0)"/>
                            <use xlink:href="#ArialMT-65" transform="translate(389.111328 0)"/>
                            <use xlink:href="#ArialMT-70" transform="translate(444.726562 0)"/>
                            <use xlink:href="#ArialMT-46" transform="translate(500.341797 0)"/>
                            <use xlink:href="#ArialMT-6f" transform="translate(561.425781 0)"/>
                            <use xlink:href="#ArialMT-72" transform="translate(617.041016 0)"/>
                            <use xlink:href="#ArialMT-77" transform="translate(650.341797 0)"/>
                            <use xlink:href="#ArialMT-61" transform="translate(722.558594 0)"/>
                            <use xlink:href="#ArialMT-72" transform="translate(778.173828 0)"/>
                            <use xlink:href="#ArialMT-64" transform="translate(811.474609 0)"/>
                            <use xlink:href="#ArialMT-5f" transform="translate(867.089844 0)"/>
                            <use xlink:href="#ArialMT-4c" transform="translate(922.705078 0)"/>
                            <use xlink:href="#ArialMT-6f" transform="translate(978.320312 0)"/>
                            <use xlink:href="#ArialMT-67" transform="translate(1033.935547 0)"/>
                            <use xlink:href="#ArialMT-44" transform="translate(1089.550781 0)"/>
                        </g>
                    </g>
                </g>
                <g id="xtick_4">
                    <g id="text_4">
                        <!-- SortedStepForward_LogP -->
                        <g style="fill: #262626"
                           transform="translate(377.473066 810.467633) rotate(-45) scale(0.165 -0.165)">
                            <defs>
                                <path id="ArialMT-50" d="M 494 0
L 494 4581 
L 2222 4581 
Q 2678 4581 2919 4538 
Q 3256 4481 3484 4323 
Q 3713 4166 3852 3881 
Q 3991 3597 3991 3256 
Q 3991 2672 3619 2267 
Q 3247 1863 2275 1863 
L 1100 1863 
L 1100 0 
L 494 0 
z
M 1100 2403 
L 2284 2403 
Q 2872 2403 3119 2622 
Q 3366 2841 3366 3238 
Q 3366 3525 3220 3729 
Q 3075 3934 2838 4000 
Q 2684 4041 2272 4041 
L 1100 4041 
L 1100 2403 
z
" transform="scale(0.015625)"/>
                            </defs>
                            <use xlink:href="#ArialMT-53"/>
                            <use xlink:href="#ArialMT-6f" transform="translate(66.699219 0)"/>
                            <use xlink:href="#ArialMT-72" transform="translate(122.314453 0)"/>
                            <use xlink:href="#ArialMT-74" transform="translate(155.615234 0)"/>
                            <use xlink:href="#ArialMT-65" transform="translate(183.398438 0)"/>
                            <use xlink:href="#ArialMT-64" transform="translate(239.013672 0)"/>
                            <use xlink:href="#ArialMT-53" transform="translate(294.628906 0)"/>
                            <use xlink:href="#ArialMT-74" transform="translate(361.328125 0)"/>
                            <use xlink:href="#ArialMT-65" transform="translate(389.111328 0)"/>
                            <use xlink:href="#ArialMT-70" transform="translate(444.726562 0)"/>
                            <use xlink:href="#ArialMT-46" transform="translate(500.341797 0)"/>
                            <use xlink:href="#ArialMT-6f" transform="translate(561.425781 0)"/>
                            <use xlink:href="#ArialMT-72" transform="translate(617.041016 0)"/>
                            <use xlink:href="#ArialMT-77" transform="translate(650.341797 0)"/>
                            <use xlink:href="#ArialMT-61" transform="translate(722.558594 0)"/>
                            <use xlink:href="#ArialMT-72" transform="translate(778.173828 0)"/>
                            <use xlink:href="#ArialMT-64" transform="translate(811.474609 0)"/>
                            <use xlink:href="#ArialMT-5f" transform="translate(867.089844 0)"/>
                            <use xlink:href="#ArialMT-4c" transform="translate(922.705078 0)"/>
                            <use xlink:href="#ArialMT-6f" transform="translate(978.320312 0)"/>
                            <use xlink:href="#ArialMT-67" transform="translate(1033.935547 0)"/>
                            <use xlink:href="#ArialMT-50" transform="translate(1089.550781 0)"/>
                        </g>
                    </g>
                </g>
                <g id="xtick_5">
                    <g id="text_5">
                        <!-- SortedStepForward_MCE18 -->
                        <g style="fill: #262626"
                           transform="translate(467.168812 822.123957) rotate(-45) scale(0.165 -0.165)">
                            <defs>
                                <path id="ArialMT-4d" d="M 475 0
L 475 4581 
L 1388 4581 
L 2472 1338 
Q 2622 884 2691 659 
Q 2769 909 2934 1394 
L 4031 4581 
L 4847 4581 
L 4847 0 
L 4263 0 
L 4263 3834 
L 2931 0 
L 2384 0 
L 1059 3900 
L 1059 0 
L 475 0 
z
" transform="scale(0.015625)"/>
                                <path id="ArialMT-43" d="M 3763 1606
L 4369 1453 
Q 4178 706 3683 314 
Q 3188 -78 2472 -78 
Q 1731 -78 1267 223 
Q 803 525 561 1097 
Q 319 1669 319 2325 
Q 319 3041 592 3573 
Q 866 4106 1370 4382 
Q 1875 4659 2481 4659 
Q 3169 4659 3637 4309 
Q 4106 3959 4291 3325 
L 3694 3184 
Q 3534 3684 3231 3912 
Q 2928 4141 2469 4141 
Q 1941 4141 1586 3887 
Q 1231 3634 1087 3207 
Q 944 2781 944 2328 
Q 944 1744 1114 1308 
Q 1284 872 1643 656 
Q 2003 441 2422 441 
Q 2931 441 3284 734 
Q 3638 1028 3763 1606 
z
" transform="scale(0.015625)"/>
                                <path id="ArialMT-45" d="M 506 0
L 506 4581 
L 3819 4581 
L 3819 4041 
L 1113 4041 
L 1113 2638 
L 3647 2638 
L 3647 2100 
L 1113 2100 
L 1113 541 
L 3925 541 
L 3925 0 
L 506 0 
z
" transform="scale(0.015625)"/>
                                <path id="ArialMT-31" d="M 2384 0
L 1822 0 
L 1822 3584 
Q 1619 3391 1289 3197 
Q 959 3003 697 2906 
L 697 3450 
Q 1169 3672 1522 3987 
Q 1875 4303 2022 4600 
L 2384 4600 
L 2384 0 
z
" transform="scale(0.015625)"/>
                                <path id="ArialMT-38" d="M 1131 2484
Q 781 2613 612 2850 
Q 444 3088 444 3419 
Q 444 3919 803 4259 
Q 1163 4600 1759 4600 
Q 2359 4600 2725 4251 
Q 3091 3903 3091 3403 
Q 3091 3084 2923 2848 
Q 2756 2613 2416 2484 
Q 2838 2347 3058 2040 
Q 3278 1734 3278 1309 
Q 3278 722 2862 322 
Q 2447 -78 1769 -78 
Q 1091 -78 675 323 
Q 259 725 259 1325 
Q 259 1772 486 2073 
Q 713 2375 1131 2484 
z
M 1019 3438 
Q 1019 3113 1228 2906 
Q 1438 2700 1772 2700 
Q 2097 2700 2305 2904 
Q 2513 3109 2513 3406 
Q 2513 3716 2298 3927 
Q 2084 4138 1766 4138 
Q 1444 4138 1231 3931 
Q 1019 3725 1019 3438 
z
M 838 1322 
Q 838 1081 952 856 
Q 1066 631 1291 507 
Q 1516 384 1775 384 
Q 2178 384 2440 643 
Q 2703 903 2703 1303 
Q 2703 1709 2433 1975 
Q 2163 2241 1756 2241 
Q 1359 2241 1098 1978 
Q 838 1716 838 1322 
z
" transform="scale(0.015625)"/>
                            </defs>
                            <use xlink:href="#ArialMT-53"/>
                            <use xlink:href="#ArialMT-6f" transform="translate(66.699219 0)"/>
                            <use xlink:href="#ArialMT-72" transform="translate(122.314453 0)"/>
                            <use xlink:href="#ArialMT-74" transform="translate(155.615234 0)"/>
                            <use xlink:href="#ArialMT-65" transform="translate(183.398438 0)"/>
                            <use xlink:href="#ArialMT-64" transform="translate(239.013672 0)"/>
                            <use xlink:href="#ArialMT-53" transform="translate(294.628906 0)"/>
                            <use xlink:href="#ArialMT-74" transform="translate(361.328125 0)"/>
                            <use xlink:href="#ArialMT-65" transform="translate(389.111328 0)"/>
                            <use xlink:href="#ArialMT-70" transform="translate(444.726562 0)"/>
                            <use xlink:href="#ArialMT-46" transform="translate(500.341797 0)"/>
                            <use xlink:href="#ArialMT-6f" transform="translate(561.425781 0)"/>
                            <use xlink:href="#ArialMT-72" transform="translate(617.041016 0)"/>
                            <use xlink:href="#ArialMT-77" transform="translate(650.341797 0)"/>
                            <use xlink:href="#ArialMT-61" transform="translate(722.558594 0)"/>
                            <use xlink:href="#ArialMT-72" transform="translate(778.173828 0)"/>
                            <use xlink:href="#ArialMT-64" transform="translate(811.474609 0)"/>
                            <use xlink:href="#ArialMT-5f" transform="translate(867.089844 0)"/>
                            <use xlink:href="#ArialMT-4d" transform="translate(922.705078 0)"/>
                            <use xlink:href="#ArialMT-43" transform="translate(1006.005859 0)"/>
                            <use xlink:href="#ArialMT-45" transform="translate(1078.222656 0)"/>
                            <use xlink:href="#ArialMT-31" transform="translate(1144.921875 0)"/>
                            <use xlink:href="#ArialMT-38" transform="translate(1200.537109 0)"/>
                        </g>
                    </g>
                </g>
                <g id="xtick_6">
                    <g id="text_6">
                        <!-- UnsortedStepForward -->
                        <g style="fill: #262626"
                           transform="translate(578.837293 789.698084) rotate(-45) scale(0.165 -0.165)">
                            <defs>
                                <path id="ArialMT-55" d="M 3500 4581
L 4106 4581 
L 4106 1934 
Q 4106 1244 3950 837 
Q 3794 431 3386 176 
Q 2978 -78 2316 -78 
Q 1672 -78 1262 144 
Q 853 366 678 786 
Q 503 1206 503 1934 
L 503 4581 
L 1109 4581 
L 1109 1938 
Q 1109 1341 1220 1058 
Q 1331 775 1601 622 
Q 1872 469 2263 469 
Q 2931 469 3215 772 
Q 3500 1075 3500 1938 
L 3500 4581 
z
" transform="scale(0.015625)"/>
                                <path id="ArialMT-73" d="M 197 991
L 753 1078 
Q 800 744 1014 566 
Q 1228 388 1613 388 
Q 2000 388 2187 545 
Q 2375 703 2375 916 
Q 2375 1106 2209 1216 
Q 2094 1291 1634 1406 
Q 1016 1563 777 1677 
Q 538 1791 414 1992 
Q 291 2194 291 2438 
Q 291 2659 392 2848 
Q 494 3038 669 3163 
Q 800 3259 1026 3326 
Q 1253 3394 1513 3394 
Q 1903 3394 2198 3281 
Q 2494 3169 2634 2976 
Q 2775 2784 2828 2463 
L 2278 2388 
Q 2241 2644 2061 2787 
Q 1881 2931 1553 2931 
Q 1166 2931 1000 2803 
Q 834 2675 834 2503 
Q 834 2394 903 2306 
Q 972 2216 1119 2156 
Q 1203 2125 1616 2013 
Q 2213 1853 2448 1751 
Q 2684 1650 2818 1456 
Q 2953 1263 2953 975 
Q 2953 694 2789 445 
Q 2625 197 2315 61 
Q 2006 -75 1616 -75 
Q 969 -75 630 194 
Q 291 463 197 991 
z
" transform="scale(0.015625)"/>
                            </defs>
                            <use xlink:href="#ArialMT-55"/>
                            <use xlink:href="#ArialMT-6e" transform="translate(72.216797 0)"/>
                            <use xlink:href="#ArialMT-73" transform="translate(127.832031 0)"/>
                            <use xlink:href="#ArialMT-6f" transform="translate(177.832031 0)"/>
                            <use xlink:href="#ArialMT-72" transform="translate(233.447266 0)"/>
                            <use xlink:href="#ArialMT-74" transform="translate(266.748047 0)"/>
                            <use xlink:href="#ArialMT-65" transform="translate(294.53125 0)"/>
                            <use xlink:href="#ArialMT-64" transform="translate(350.146484 0)"/>
                            <use xlink:href="#ArialMT-53" transform="translate(405.761719 0)"/>
                            <use xlink:href="#ArialMT-74" transform="translate(472.460938 0)"/>
                            <use xlink:href="#ArialMT-65" transform="translate(500.244141 0)"/>
                            <use xlink:href="#ArialMT-70" transform="translate(555.859375 0)"/>
                            <use xlink:href="#ArialMT-46" transform="translate(611.474609 0)"/>
                            <use xlink:href="#ArialMT-6f" transform="translate(672.558594 0)"/>
                            <use xlink:href="#ArialMT-72" transform="translate(728.173828 0)"/>
                            <use xlink:href="#ArialMT-77" transform="translate(761.474609 0)"/>
                            <use xlink:href="#ArialMT-61" transform="translate(833.691406 0)"/>
                            <use xlink:href="#ArialMT-72" transform="translate(889.306641 0)"/>
                            <use xlink:href="#ArialMT-64" transform="translate(922.607422 0)"/>
                        </g>
                    </g>
                </g>
                <g id="text_7">
                    <!-- split_type -->
                    <g style="fill: #262626" transform="translate(356.153814 841.326888) scale(0.18 -0.18)">
                        <defs>
                            <path id="ArialMT-79" d="M 397 -1278
L 334 -750 
Q 519 -800 656 -800 
Q 844 -800 956 -737 
Q 1069 -675 1141 -563 
Q 1194 -478 1313 -144 
Q 1328 -97 1363 -6 
L 103 3319 
L 709 3319 
L 1400 1397 
Q 1534 1031 1641 628 
Q 1738 1016 1872 1384 
L 2581 3319 
L 3144 3319 
L 1881 -56 
Q 1678 -603 1566 -809 
Q 1416 -1088 1222 -1217 
Q 1028 -1347 759 -1347 
Q 597 -1347 397 -1278 
z
" transform="scale(0.015625)"/>
                        </defs>
                        <use xlink:href="#ArialMT-73"/>
                        <use xlink:href="#ArialMT-70" transform="translate(50 0)"/>
                        <use xlink:href="#ArialMT-6c" transform="translate(105.615234 0)"/>
                        <use xlink:href="#ArialMT-69" transform="translate(127.832031 0)"/>
                        <use xlink:href="#ArialMT-74" transform="translate(150.048828 0)"/>
                        <use xlink:href="#ArialMT-5f" transform="translate(177.832031 0)"/>
                        <use xlink:href="#ArialMT-74" transform="translate(233.447266 0)"/>
                        <use xlink:href="#ArialMT-79" transform="translate(261.230469 0)"/>
                        <use xlink:href="#ArialMT-70" transform="translate(311.230469 0)"/>
                        <use xlink:href="#ArialMT-65" transform="translate(366.845703 0)"/>
                    </g>
                </g>
            </g>
            <g id="matplotlib.axis_2">
                <g id="ytick_1">
                    <g id="line2d_1">
                        <path d="M 89.67 609.599151
L 698.676378 609.599151 
" clip-path="url(#p5aef3de27c)" style="fill: none; stroke: #cccccc; stroke-width: 1.5; stroke-linecap: round"/>
                    </g>
                    <g id="text_8">
                        <!-- −200 -->
                        <g style="fill: #262626" transform="translate(40.006328 615.504347) scale(0.165 -0.165)">
                            <defs>
                                <path id="ArialMT-2212" d="M 3381 1997
L 356 1997 
L 356 2522 
L 3381 2522 
L 3381 1997 
z
" transform="scale(0.015625)"/>
                                <path id="ArialMT-32" d="M 3222 541
L 3222 0 
L 194 0 
Q 188 203 259 391 
Q 375 700 629 1000 
Q 884 1300 1366 1694 
Q 2113 2306 2375 2664 
Q 2638 3022 2638 3341 
Q 2638 3675 2398 3904 
Q 2159 4134 1775 4134 
Q 1369 4134 1125 3890 
Q 881 3647 878 3216 
L 300 3275 
Q 359 3922 746 4261 
Q 1134 4600 1788 4600 
Q 2447 4600 2831 4234 
Q 3216 3869 3216 3328 
Q 3216 3053 3103 2787 
Q 2991 2522 2730 2228 
Q 2469 1934 1863 1422 
Q 1356 997 1212 845 
Q 1069 694 975 541 
L 3222 541 
z
" transform="scale(0.015625)"/>
                                <path id="ArialMT-30" d="M 266 2259
Q 266 3072 433 3567 
Q 600 4063 929 4331 
Q 1259 4600 1759 4600 
Q 2128 4600 2406 4451 
Q 2684 4303 2865 4023 
Q 3047 3744 3150 3342 
Q 3253 2941 3253 2259 
Q 3253 1453 3087 958 
Q 2922 463 2592 192 
Q 2263 -78 1759 -78 
Q 1097 -78 719 397 
Q 266 969 266 2259 
z
M 844 2259 
Q 844 1131 1108 757 
Q 1372 384 1759 384 
Q 2147 384 2411 759 
Q 2675 1134 2675 2259 
Q 2675 3391 2411 3762 
Q 2147 4134 1753 4134 
Q 1366 4134 1134 3806 
Q 844 3388 844 2259 
z
" transform="scale(0.015625)"/>
                            </defs>
                            <use xlink:href="#ArialMT-2212"/>
                            <use xlink:href="#ArialMT-32" transform="translate(58.398438 0)"/>
                            <use xlink:href="#ArialMT-30" transform="translate(114.013672 0)"/>
                            <use xlink:href="#ArialMT-30" transform="translate(169.628906 0)"/>
                        </g>
                    </g>
                </g>
                <g id="ytick_2">
                    <g id="line2d_2">
                        <path d="M 89.67 488.351008
L 698.676378 488.351008 
" clip-path="url(#p5aef3de27c)" style="fill: none; stroke: #cccccc; stroke-width: 1.5; stroke-linecap: round"/>
                    </g>
                    <g id="text_9">
                        <!-- −100 -->
                        <g style="fill: #262626" transform="translate(40.006328 494.256203) scale(0.165 -0.165)">
                            <use xlink:href="#ArialMT-2212"/>
                            <use xlink:href="#ArialMT-31" transform="translate(58.398438 0)"/>
                            <use xlink:href="#ArialMT-30" transform="translate(114.013672 0)"/>
                            <use xlink:href="#ArialMT-30" transform="translate(169.628906 0)"/>
                        </g>
                    </g>
                </g>
                <g id="ytick_3">
                    <g id="line2d_3">
                        <path d="M 89.67 367.102865
L 698.676378 367.102865 
" clip-path="url(#p5aef3de27c)" style="fill: none; stroke: #cccccc; stroke-width: 1.5; stroke-linecap: round"/>
                    </g>
                    <g id="text_10">
                        <!-- 0 -->
                        <g style="fill: #262626" transform="translate(67.994453 373.00806) scale(0.165 -0.165)">
                            <use xlink:href="#ArialMT-30"/>
                        </g>
                    </g>
                </g>
                <g id="ytick_4">
                    <g id="line2d_4">
                        <path d="M 89.67 245.854721
L 698.676378 245.854721 
" clip-path="url(#p5aef3de27c)" style="fill: none; stroke: #cccccc; stroke-width: 1.5; stroke-linecap: round"/>
                    </g>
                    <g id="text_11">
                        <!-- 100 -->
                        <g style="fill: #262626" transform="translate(49.643359 251.759917) scale(0.165 -0.165)">
                            <use xlink:href="#ArialMT-31"/>
                            <use xlink:href="#ArialMT-30" transform="translate(55.615234 0)"/>
                            <use xlink:href="#ArialMT-30" transform="translate(111.230469 0)"/>
                        </g>
                    </g>
                </g>
                <g id="ytick_5">
                    <g id="line2d_5">
                        <path d="M 89.67 124.606578
L 698.676378 124.606578 
" clip-path="url(#p5aef3de27c)" style="fill: none; stroke: #cccccc; stroke-width: 1.5; stroke-linecap: round"/>
                    </g>
                    <g id="text_12">
                        <!-- 200 -->
                        <g style="fill: #262626" transform="translate(49.643359 130.511773) scale(0.165 -0.165)">
                            <use xlink:href="#ArialMT-32"/>
                            <use xlink:href="#ArialMT-30" transform="translate(55.615234 0)"/>
                            <use xlink:href="#ArialMT-30" transform="translate(111.230469 0)"/>
                        </g>
                    </g>
                </g>
                <g id="text_13">
                    <!-- r2 -->
                    <g style="fill: #262626" transform="translate(32.428828 356.939878) rotate(-90) scale(0.18 -0.18)">
                        <use xlink:href="#ArialMT-72"/>
                        <use xlink:href="#ArialMT-32" transform="translate(33.300781 0)"/>
                    </g>
                </g>
            </g>
            <g id="FillBetweenPolyCollection_1">
                <defs>
                    <path id="m8118604b26" d="M 155.536477 -480.343031
L 155.532176 -480.343031 
L 155.518782 -480.524072 
L 155.529761 -480.705114 
L 155.534272 -480.886155 
L 155.534326 -481.067197 
L 155.534326 -481.248238 
L 155.534326 -481.42928 
L 155.534326 -481.610321 
L 155.534326 -481.791363 
L 155.534326 -481.972404 
L 155.534326 -482.153446 
L 155.534326 -482.334487 
L 155.534326 -482.515528 
L 155.534326 -482.69657 
L 155.534326 -482.877611 
L 155.534326 -483.058653 
L 155.534326 -483.239694 
L 155.534306 -483.420736 
L 155.531517 -483.601777 
L 155.518476 -483.782819 
L 155.530692 -483.96386 
L 155.534292 -484.144902 
L 155.534326 -484.325943 
L 155.534326 -484.506985 
L 155.534326 -484.688026 
L 155.534326 -484.869068 
L 155.534326 -485.050109 
L 155.534324 -485.231151 
L 155.533438 -485.412192 
L 155.521151 -485.593234 
L 155.526381 -485.774275 
L 155.534132 -485.955317 
L 155.534326 -486.136358 
L 155.534326 -486.3174 
L 155.534326 -486.498441 
L 155.534326 -486.679483 
L 155.534326 -486.860524 
L 155.534326 -487.041566 
L 155.534326 -487.222607 
L 155.534326 -487.403649 
L 155.534326 -487.58469 
L 155.534326 -487.765732 
L 155.534326 -487.946773 
L 155.534326 -488.127814 
L 155.534326 -488.308856 
L 155.534326 -488.489897 
L 155.534326 -488.670939 
L 155.534326 -488.85198 
L 155.534325 -489.033022 
L 155.533786 -489.214063 
L 155.522889 -489.395105 
L 155.523944 -489.576146 
L 155.522563 -489.757188 
L 155.524463 -489.938229 
L 155.533963 -490.119271 
L 155.531741 -490.300312 
L 155.518541 -490.481354 
L 155.530409 -490.662395 
L 155.53393 -490.843437 
L 155.521053 -491.024478 
L 155.506825 -491.20552 
L 155.530734 -491.386561 
L 155.5223 -491.567603 
L 155.490972 -491.748644 
L 155.523255 -491.929686 
L 155.534166 -492.110727 
L 155.531732 -492.291769 
L 155.506106 -492.47281 
L 155.518995 -492.653852 
L 155.506609 -492.834893 
L 155.505276 -493.015935 
L 155.505159 -493.196976 
L 155.489519 -493.378018 
L 155.478255 -493.559059 
L 155.517944 -493.7401 
L 155.518633 -493.921142 
L 155.532019 -494.102183 
L 155.525857 -494.283225 
L 155.513717 -494.464266 
L 155.510258 -494.645308 
L 155.486787 -494.826349 
L 155.506309 -495.007391 
L 155.469627 -495.188432 
L 155.472636 -495.369474 
L 155.437008 -495.550515 
L 155.421204 -495.731557 
L 155.393372 -495.912598 
L 155.349128 -496.09364 
L 155.136758 -496.274681 
L 154.968276 -496.455723 
L 154.625325 -496.636764 
L 153.869614 -496.817806 
L 151.973289 -496.998847 
L 147.959967 -497.179889 
L 139.990382 -497.36093 
L 125.337642 -497.541972 
L 117.352108 -497.723013 
L 136.664193 -497.904055 
L 153.547656 -498.085096 
L 155.505424 -498.266138 
L 155.563228 -498.266138 
L 155.563228 -498.266138 
L 157.520997 -498.085096 
L 174.404459 -497.904055 
L 193.716544 -497.723013 
L 185.73101 -497.541972 
L 171.07827 -497.36093 
L 163.108686 -497.179889 
L 159.095363 -496.998847 
L 157.199039 -496.817806 
L 156.443328 -496.636764 
L 156.100376 -496.455723 
L 155.931894 -496.274681 
L 155.719524 -496.09364 
L 155.675281 -495.912598 
L 155.647448 -495.731557 
L 155.631645 -495.550515 
L 155.596016 -495.369474 
L 155.599025 -495.188432 
L 155.562344 -495.007391 
L 155.581865 -494.826349 
L 155.558394 -494.645308 
L 155.554935 -494.464266 
L 155.542796 -494.283225 
L 155.536633 -494.102183 
L 155.55002 -493.921142 
L 155.550709 -493.7401 
L 155.590398 -493.559059 
L 155.579134 -493.378018 
L 155.563494 -493.196976 
L 155.563376 -493.015935 
L 155.562043 -492.834893 
L 155.549658 -492.653852 
L 155.562547 -492.47281 
L 155.53692 -492.291769 
L 155.534486 -492.110727 
L 155.545397 -491.929686 
L 155.577681 -491.748644 
L 155.546352 -491.567603 
L 155.537919 -491.386561 
L 155.561828 -491.20552 
L 155.5476 -491.024478 
L 155.534722 -490.843437 
L 155.538244 -490.662395 
L 155.550111 -490.481354 
L 155.536911 -490.300312 
L 155.53469 -490.119271 
L 155.54419 -489.938229 
L 155.54609 -489.757188 
L 155.544709 -489.576146 
L 155.545763 -489.395105 
L 155.534866 -489.214063 
L 155.534327 -489.033022 
L 155.534326 -488.85198 
L 155.534326 -488.670939 
L 155.534326 -488.489897 
L 155.534326 -488.308856 
L 155.534326 -488.127814 
L 155.534326 -487.946773 
L 155.534326 -487.765732 
L 155.534326 -487.58469 
L 155.534326 -487.403649 
L 155.534326 -487.222607 
L 155.534326 -487.041566 
L 155.534326 -486.860524 
L 155.534326 -486.679483 
L 155.534326 -486.498441 
L 155.534326 -486.3174 
L 155.534326 -486.136358 
L 155.534521 -485.955317 
L 155.542271 -485.774275 
L 155.547502 -485.593234 
L 155.535214 -485.412192 
L 155.534329 -485.231151 
L 155.534326 -485.050109 
L 155.534326 -484.869068 
L 155.534326 -484.688026 
L 155.534326 -484.506985 
L 155.534326 -484.325943 
L 155.53436 -484.144902 
L 155.53796 -483.96386 
L 155.550177 -483.782819 
L 155.537136 -483.601777 
L 155.534346 -483.420736 
L 155.534326 -483.239694 
L 155.534326 -483.058653 
L 155.534326 -482.877611 
L 155.534326 -482.69657 
L 155.534326 -482.515528 
L 155.534326 -482.334487 
L 155.534326 -482.153446 
L 155.534326 -481.972404 
L 155.534326 -481.791363 
L 155.534326 -481.610321 
L 155.534326 -481.42928 
L 155.534326 -481.248238 
L 155.534326 -481.067197 
L 155.534381 -480.886155 
L 155.538891 -480.705114 
L 155.54987 -480.524072 
L 155.536477 -480.343031 
z
" style="stroke: #3d3d3d; stroke-width: 1.875"/>
                </defs>
                <g clip-path="url(#p5aef3de27c)">
                    <use xlink:href="#m8118604b26" x="0" y="864"
                         style="fill: #3274a1; stroke: #3d3d3d; stroke-width: 1.875"/>
                </g>
            </g>
            <g id="FillBetweenPolyCollection_2">
                <defs>
                    <path id="m68e3ff9d5a" d="M 250.991152 -223.240943
L 250.988591 -223.240943 
L 250.986221 -226.033181 
L 250.989871 -228.825418 
L 250.989871 -231.617655 
L 250.989871 -234.409892 
L 250.989871 -237.20213 
L 250.989871 -239.994367 
L 250.989871 -242.786604 
L 250.989871 -245.578841 
L 250.989871 -248.371079 
L 250.989871 -251.163316 
L 250.989871 -253.955553 
L 250.989871 -256.74779 
L 250.989871 -259.540028 
L 250.989871 -262.332265 
L 250.989871 -265.124502 
L 250.989871 -267.916739 
L 250.989871 -270.708977 
L 250.989871 -273.501214 
L 250.989871 -276.293451 
L 250.989871 -279.085688 
L 250.989871 -281.877926 
L 250.989871 -284.670163 
L 250.989871 -287.4624 
L 250.989871 -290.254637 
L 250.989871 -293.046875 
L 250.989871 -295.839112 
L 250.989871 -298.631349 
L 250.989871 -301.423586 
L 250.989871 -304.215824 
L 250.989871 -307.008061 
L 250.989871 -309.800298 
L 250.989871 -312.592535 
L 250.989871 -315.384773 
L 250.989871 -318.17701 
L 250.989871 -320.969247 
L 250.989871 -323.761484 
L 250.989871 -326.553722 
L 250.989871 -329.345959 
L 250.989871 -332.138196 
L 250.989871 -334.930433 
L 250.989871 -337.722671 
L 250.989871 -340.514908 
L 250.989871 -343.307145 
L 250.989871 -346.099382 
L 250.989871 -348.89162 
L 250.989871 -351.683857 
L 250.989871 -354.476094 
L 250.989746 -357.268331 
L 250.981281 -360.060569 
L 250.989865 -362.852806 
L 250.989871 -365.645043 
L 250.989871 -368.43728 
L 250.989871 -371.229517 
L 250.989871 -374.021755 
L 250.989871 -376.813992 
L 250.989871 -379.606229 
L 250.989871 -382.398466 
L 250.989871 -385.190704 
L 250.989871 -387.982941 
L 250.989871 -390.775178 
L 250.989871 -393.567415 
L 250.989871 -396.359653 
L 250.989871 -399.15189 
L 250.989871 -401.944127 
L 250.989871 -404.736364 
L 250.989871 -407.528602 
L 250.989871 -410.320839 
L 250.989871 -413.113076 
L 250.989871 -415.905313 
L 250.989871 -418.697551 
L 250.989871 -421.489788 
L 250.989871 -424.282025 
L 250.989871 -427.074262 
L 250.989871 -429.8665 
L 250.989871 -432.658737 
L 250.989871 -435.450974 
L 250.989871 -438.243211 
L 250.989871 -441.035449 
L 250.989871 -443.827686 
L 250.989871 -446.619923 
L 250.989235 -449.41216 
L 250.984453 -452.204398 
L 250.981684 -454.996635 
L 250.981042 -457.788872 
L 250.983803 -460.581109 
L 250.985533 -463.373347 
L 250.984556 -466.165584 
L 250.989043 -468.957821 
L 250.98168 -471.750058 
L 250.982162 -474.542296 
L 250.934957 -477.334533 
L 250.936395 -480.12677 
L 250.948895 -482.919007 
L 250.977672 -485.711245 
L 250.879194 -488.503482 
L 250.549691 -491.295719 
L 249.159041 -494.087956 
L 212.807653 -496.880194 
L 249.797608 -499.672431 
L 252.182135 -499.672431 
L 252.182135 -499.672431 
L 289.172089 -496.880194 
L 252.820702 -494.087956 
L 251.430052 -491.295719 
L 251.100549 -488.503482 
L 251.002071 -485.711245 
L 251.030847 -482.919007 
L 251.043348 -480.12677 
L 251.044785 -477.334533 
L 250.997581 -474.542296 
L 250.998063 -471.750058 
L 250.9907 -468.957821 
L 250.995186 -466.165584 
L 250.99421 -463.373347 
L 250.99594 -460.581109 
L 250.998701 -457.788872 
L 250.998059 -454.996635 
L 250.995289 -452.204398 
L 250.990508 -449.41216 
L 250.989871 -446.619923 
L 250.989871 -443.827686 
L 250.989871 -441.035449 
L 250.989871 -438.243211 
L 250.989871 -435.450974 
L 250.989871 -432.658737 
L 250.989871 -429.8665 
L 250.989871 -427.074262 
L 250.989871 -424.282025 
L 250.989871 -421.489788 
L 250.989871 -418.697551 
L 250.989871 -415.905313 
L 250.989871 -413.113076 
L 250.989871 -410.320839 
L 250.989871 -407.528602 
L 250.989871 -404.736364 
L 250.989871 -401.944127 
L 250.989871 -399.15189 
L 250.989871 -396.359653 
L 250.989871 -393.567415 
L 250.989871 -390.775178 
L 250.989871 -387.982941 
L 250.989871 -385.190704 
L 250.989871 -382.398466 
L 250.989871 -379.606229 
L 250.989871 -376.813992 
L 250.989871 -374.021755 
L 250.989871 -371.229517 
L 250.989871 -368.43728 
L 250.989871 -365.645043 
L 250.989878 -362.852806 
L 250.998462 -360.060569 
L 250.989997 -357.268331 
L 250.989871 -354.476094 
L 250.989871 -351.683857 
L 250.989871 -348.89162 
L 250.989871 -346.099382 
L 250.989871 -343.307145 
L 250.989871 -340.514908 
L 250.989871 -337.722671 
L 250.989871 -334.930433 
L 250.989871 -332.138196 
L 250.989871 -329.345959 
L 250.989871 -326.553722 
L 250.989871 -323.761484 
L 250.989871 -320.969247 
L 250.989871 -318.17701 
L 250.989871 -315.384773 
L 250.989871 -312.592535 
L 250.989871 -309.800298 
L 250.989871 -307.008061 
L 250.989871 -304.215824 
L 250.989871 -301.423586 
L 250.989871 -298.631349 
L 250.989871 -295.839112 
L 250.989871 -293.046875 
L 250.989871 -290.254637 
L 250.989871 -287.4624 
L 250.989871 -284.670163 
L 250.989871 -281.877926 
L 250.989871 -279.085688 
L 250.989871 -276.293451 
L 250.989871 -273.501214 
L 250.989871 -270.708977 
L 250.989871 -267.916739 
L 250.989871 -265.124502 
L 250.989871 -262.332265 
L 250.989871 -259.540028 
L 250.989871 -256.74779 
L 250.989871 -253.955553 
L 250.989871 -251.163316 
L 250.989871 -248.371079 
L 250.989871 -245.578841 
L 250.989871 -242.786604 
L 250.989871 -239.994367 
L 250.989871 -237.20213 
L 250.989871 -234.409892 
L 250.989871 -231.617655 
L 250.989872 -228.825418 
L 250.993522 -226.033181 
L 250.991152 -223.240943 
z
" style="stroke: #3d3d3d; stroke-width: 1.875"/>
                </defs>
                <g clip-path="url(#p5aef3de27c)">
                    <use xlink:href="#m68e3ff9d5a" x="0" y="864"
                         style="fill: #e1812c; stroke: #3d3d3d; stroke-width: 1.875"/>
                </g>
            </g>
            <g id="FillBetweenPolyCollection_3">
                <defs>
                    <path id="m2b12a877ae" d="M 346.447026 -444.163955
L 346.443807 -444.163955 
L 346.433592 -444.714092 
L 346.443 -445.264228 
L 346.445403 -445.814364 
L 346.445417 -446.364501 
L 346.445417 -446.914637 
L 346.445417 -447.464773 
L 346.445417 -448.01491 
L 346.445417 -448.565046 
L 346.445417 -449.115182 
L 346.445417 -449.665319 
L 346.445398 -450.215455 
L 346.442617 -450.765591 
L 346.433741 -451.315728 
L 346.444062 -451.865864 
L 346.445412 -452.416 
L 346.445417 -452.966137 
L 346.445417 -453.516273 
L 346.445417 -454.066409 
L 346.445417 -454.616545 
L 346.445417 -455.166682 
L 346.445417 -455.716818 
L 346.445417 -456.266954 
L 346.445417 -456.817091 
L 346.445417 -457.367227 
L 346.445417 -457.917363 
L 346.445417 -458.4675 
L 346.445417 -459.017636 
L 346.445417 -459.567772 
L 346.445417 -460.117909 
L 346.445417 -460.668045 
L 346.445417 -461.218181 
L 346.445417 -461.768318 
L 346.445417 -462.318454 
L 346.445417 -462.86859 
L 346.445416 -463.418727 
L 346.444984 -463.968863 
L 346.43599 -464.518999 
L 346.439703 -465.069135 
L 346.44532 -465.619272 
L 346.445417 -466.169408 
L 346.445417 -466.719544 
L 346.445417 -467.269681 
L 346.445417 -467.819817 
L 346.445417 -468.369953 
L 346.445417 -468.92009 
L 346.445417 -469.470226 
L 346.445417 -470.020362 
L 346.445417 -470.570499 
L 346.445417 -471.120635 
L 346.445417 -471.670771 
L 346.445417 -472.220908 
L 346.445417 -472.771044 
L 346.445409 -473.32118 
L 346.443616 -473.871317 
L 346.433539 -474.421453 
L 346.443228 -474.971589 
L 346.443489 -475.521726 
L 346.433526 -476.071862 
L 346.443364 -476.621998 
L 346.445407 -477.172134 
L 346.445416 -477.722271 
L 346.445075 -478.272407 
L 346.436586 -478.822543 
L 346.439072 -479.37268 
L 346.44529 -479.922816 
L 346.445417 -480.472952 
L 346.445417 -481.023089 
L 346.445402 -481.573225 
L 346.442764 -482.123361 
L 346.423916 -482.673498 
L 346.423988 -483.223634 
L 346.443657 -483.77377 
L 346.445407 -484.323907 
L 346.444132 -484.874043 
L 346.43326 -485.424179 
L 346.431886 -485.974316 
L 346.426202 -486.524452 
L 346.387472 -487.074588 
L 346.386817 -487.624724 
L 346.39209 -488.174861 
L 346.35073 -488.724997 
L 346.346408 -489.275133 
L 346.334857 -489.82527 
L 346.313621 -490.375406 
L 346.311072 -490.925542 
L 346.285524 -491.475679 
L 346.20757 -492.025815 
L 346.204226 -492.575951 
L 346.247989 -493.126088 
L 346.137823 -493.676224 
L 345.914507 -494.22636 
L 345.631821 -494.776497 
L 345.308113 -495.326633 
L 344.069108 -495.876769 
L 339.509614 -496.426906 
L 323.425359 -496.977042 
L 308.263199 -497.527178 
L 336.229169 -498.077314 
L 346.244775 -498.627451 
L 346.646059 -498.627451 
L 346.646059 -498.627451 
L 356.661664 -498.077314 
L 384.627635 -497.527178 
L 369.465474 -496.977042 
L 353.381219 -496.426906 
L 348.821725 -495.876769 
L 347.58272 -495.326633 
L 347.259012 -494.776497 
L 346.976326 -494.22636 
L 346.75301 -493.676224 
L 346.642844 -493.126088 
L 346.686607 -492.575951 
L 346.683263 -492.025815 
L 346.605309 -491.475679 
L 346.579761 -490.925542 
L 346.577213 -490.375406 
L 346.555976 -489.82527 
L 346.544425 -489.275133 
L 346.540104 -488.724997 
L 346.498743 -488.174861 
L 346.504017 -487.624724 
L 346.503361 -487.074588 
L 346.464631 -486.524452 
L 346.458947 -485.974316 
L 346.457573 -485.424179 
L 346.446701 -484.874043 
L 346.445426 -484.323907 
L 346.447176 -483.77377 
L 346.466845 -483.223634 
L 346.466917 -482.673498 
L 346.448069 -482.123361 
L 346.445431 -481.573225 
L 346.445417 -481.023089 
L 346.445417 -480.472952 
L 346.445543 -479.922816 
L 346.451762 -479.37268 
L 346.454247 -478.822543 
L 346.445759 -478.272407 
L 346.445417 -477.722271 
L 346.445426 -477.172134 
L 346.447469 -476.621998 
L 346.457307 -476.071862 
L 346.447344 -475.521726 
L 346.447605 -474.971589 
L 346.457294 -474.421453 
L 346.447217 -473.871317 
L 346.445424 -473.32118 
L 346.445417 -472.771044 
L 346.445417 -472.220908 
L 346.445417 -471.670771 
L 346.445417 -471.120635 
L 346.445417 -470.570499 
L 346.445417 -470.020362 
L 346.445417 -469.470226 
L 346.445417 -468.92009 
L 346.445417 -468.369953 
L 346.445417 -467.819817 
L 346.445417 -467.269681 
L 346.445417 -466.719544 
L 346.445417 -466.169408 
L 346.445513 -465.619272 
L 346.45113 -465.069135 
L 346.454843 -464.518999 
L 346.445849 -463.968863 
L 346.445417 -463.418727 
L 346.445417 -462.86859 
L 346.445417 -462.318454 
L 346.445417 -461.768318 
L 346.445417 -461.218181 
L 346.445417 -460.668045 
L 346.445417 -460.117909 
L 346.445417 -459.567772 
L 346.445417 -459.017636 
L 346.445417 -458.4675 
L 346.445417 -457.917363 
L 346.445417 -457.367227 
L 346.445417 -456.817091 
L 346.445417 -456.266954 
L 346.445417 -455.716818 
L 346.445417 -455.166682 
L 346.445417 -454.616545 
L 346.445417 -454.066409 
L 346.445417 -453.516273 
L 346.445417 -452.966137 
L 346.445421 -452.416 
L 346.446772 -451.865864 
L 346.457093 -451.315728 
L 346.448216 -450.765591 
L 346.445435 -450.215455 
L 346.445417 -449.665319 
L 346.445417 -449.115182 
L 346.445417 -448.565046 
L 346.445417 -448.01491 
L 346.445417 -447.464773 
L 346.445417 -446.914637 
L 346.445417 -446.364501 
L 346.44543 -445.814364 
L 346.447834 -445.264228 
L 346.457241 -444.714092 
L 346.447026 -444.163955 
z
" style="stroke: #3d3d3d; stroke-width: 1.875"/>
                </defs>
                <g clip-path="url(#p5aef3de27c)">
                    <use xlink:href="#m2b12a877ae" x="0" y="864"
                         style="fill: #3a923a; stroke: #3d3d3d; stroke-width: 1.875"/>
                </g>
            </g>
            <g id="FillBetweenPolyCollection_4">
                <defs>
                    <path id="m3cf2f49a27" d="M 441.902793 -455.050159
L 441.89913 -455.050159 
L 441.888424 -455.490036 
L 441.894522 -455.929912 
L 441.900714 -456.369788 
L 441.900961 -456.809665 
L 441.900962 -457.249541 
L 441.900962 -457.689417 
L 441.900962 -458.129294 
L 441.900962 -458.56917 
L 441.900962 -459.009047 
L 441.900962 -459.448923 
L 441.900914 -459.888799 
L 441.898055 -460.328676 
L 441.88757 -460.768552 
L 441.896334 -461.208429 
L 441.900842 -461.648305 
L 441.900962 -462.088181 
L 441.900962 -462.528058 
L 441.900962 -462.967934 
L 441.900962 -463.40781 
L 441.900962 -463.847687 
L 441.900962 -464.287563 
L 441.900848 -464.72744 
L 441.896457 -465.167316 
L 441.887537 -465.607192 
L 441.897961 -466.047069 
L 441.900911 -466.486945 
L 441.900962 -466.926822 
L 441.900962 -467.366698 
L 441.900962 -467.806574 
L 441.900962 -468.246451 
L 441.900962 -468.686327 
L 441.900962 -469.126203 
L 441.900962 -469.56608 
L 441.900962 -470.005956 
L 441.900962 -470.445833 
L 441.900962 -470.885709 
L 441.900962 -471.325585 
L 441.900962 -471.765462 
L 441.900962 -472.205338 
L 441.900962 -472.645215 
L 441.900962 -473.085091 
L 441.900962 -473.524967 
L 441.900962 -473.964844 
L 441.900962 -474.40472 
L 441.900962 -474.844596 
L 441.900962 -475.284473 
L 441.900962 -475.724349 
L 441.900962 -476.164226 
L 441.900962 -476.604102 
L 441.900962 -477.043978 
L 441.900962 -477.483855 
L 441.900962 -477.923731 
L 441.900962 -478.363608 
L 441.900961 -478.803484 
L 441.900802 -479.24336 
L 441.895176 -479.683237 
L 441.879056 -480.123113 
L 441.887588 -480.562989 
L 441.89536 -481.002866 
L 441.887547 -481.442742 
L 441.897938 -481.882619 
L 441.897049 -482.322495 
L 441.880602 -482.762371 
L 441.884835 -483.202248 
L 441.897519 -483.642124 
L 441.867007 -484.082001 
L 441.837405 -484.521877 
L 441.867325 -484.961753 
L 441.886989 -485.40163 
L 441.900214 -485.841506 
L 441.897117 -486.281382 
L 441.857953 -486.721259 
L 441.803508 -487.161135 
L 441.83947 -487.601012 
L 441.848621 -488.040888 
L 441.84085 -488.480764 
L 441.817868 -488.920641 
L 441.86104 -489.360517 
L 441.855073 -489.800394 
L 441.768462 -490.24027 
L 441.748259 -490.680146 
L 441.742917 -491.120023 
L 441.772103 -491.559899 
L 441.732051 -491.999775 
L 441.690149 -492.439652 
L 441.551161 -492.879528 
L 441.378225 -493.319405 
L 441.313717 -493.759281 
L 441.210317 -494.199157 
L 440.963601 -494.639034 
L 440.427578 -495.07891 
L 439.455681 -495.518787 
L 437.519143 -495.958663 
L 433.131761 -496.398539 
L 421.853666 -496.838416 
L 403.718744 -497.278292 
L 412.774056 -497.718168 
L 436.922642 -498.158045 
L 441.762834 -498.597921 
L 442.03909 -498.597921 
L 442.03909 -498.597921 
L 446.879281 -498.158045 
L 471.027868 -497.718168 
L 480.08318 -497.278292 
L 461.948258 -496.838416 
L 450.670163 -496.398539 
L 446.282781 -495.958663 
L 444.346243 -495.518787 
L 443.374345 -495.07891 
L 442.838323 -494.639034 
L 442.591607 -494.199157 
L 442.488206 -493.759281 
L 442.423698 -493.319405 
L 442.250762 -492.879528 
L 442.111775 -492.439652 
L 442.069872 -491.999775 
L 442.029821 -491.559899 
L 442.059007 -491.120023 
L 442.053664 -490.680146 
L 442.033461 -490.24027 
L 441.946851 -489.800394 
L 441.940884 -489.360517 
L 441.984055 -488.920641 
L 441.961074 -488.480764 
L 441.953303 -488.040888 
L 441.962454 -487.601012 
L 441.998416 -487.161135 
L 441.943971 -486.721259 
L 441.904807 -486.281382 
L 441.90171 -485.841506 
L 441.914935 -485.40163 
L 441.934599 -484.961753 
L 441.964519 -484.521877 
L 441.934917 -484.082001 
L 441.904405 -483.642124 
L 441.917089 -483.202248 
L 441.921322 -482.762371 
L 441.904874 -482.322495 
L 441.903986 -481.882619 
L 441.914377 -481.442742 
L 441.906564 -481.002866 
L 441.914336 -480.562989 
L 441.922867 -480.123113 
L 441.906748 -479.683237 
L 441.901122 -479.24336 
L 441.900962 -478.803484 
L 441.900962 -478.363608 
L 441.900962 -477.923731 
L 441.900962 -477.483855 
L 441.900962 -477.043978 
L 441.900962 -476.604102 
L 441.900962 -476.164226 
L 441.900962 -475.724349 
L 441.900962 -475.284473 
L 441.900962 -474.844596 
L 441.900962 -474.40472 
L 441.900962 -473.964844 
L 441.900962 -473.524967 
L 441.900962 -473.085091 
L 441.900962 -472.645215 
L 441.900962 -472.205338 
L 441.900962 -471.765462 
L 441.900962 -471.325585 
L 441.900962 -470.885709 
L 441.900962 -470.445833 
L 441.900962 -470.005956 
L 441.900962 -469.56608 
L 441.900962 -469.126203 
L 441.900962 -468.686327 
L 441.900962 -468.246451 
L 441.900962 -467.806574 
L 441.900962 -467.366698 
L 441.900962 -466.926822 
L 441.901012 -466.486945 
L 441.903963 -466.047069 
L 441.914387 -465.607192 
L 441.905467 -465.167316 
L 441.901075 -464.72744 
L 441.900962 -464.287563 
L 441.900962 -463.847687 
L 441.900962 -463.40781 
L 441.900962 -462.967934 
L 441.900962 -462.528058 
L 441.900962 -462.088181 
L 441.901082 -461.648305 
L 441.90559 -461.208429 
L 441.914354 -460.768552 
L 441.903869 -460.328676 
L 441.901009 -459.888799 
L 441.900962 -459.448923 
L 441.900962 -459.009047 
L 441.900962 -458.56917 
L 441.900962 -458.129294 
L 441.900962 -457.689417 
L 441.900962 -457.249541 
L 441.900963 -456.809665 
L 441.90121 -456.369788 
L 441.907401 -455.929912 
L 441.9135 -455.490036 
L 441.902793 -455.050159 
z
" style="stroke: #3d3d3d; stroke-width: 1.875"/>
                </defs>
                <g clip-path="url(#p5aef3de27c)">
                    <use xlink:href="#m3cf2f49a27" x="0" y="864"
                         style="fill: #c03d3e; stroke: #3d3d3d; stroke-width: 1.875"/>
                </g>
            </g>
            <g id="FillBetweenPolyCollection_5">
                <defs>
                    <path id="mac71b02260" d="M 537.358083 -408.406192
L 537.354931 -408.406192 
L 537.345676 -409.323275 
L 537.351091 -410.240358 
L 537.35631 -411.157441 
L 537.356507 -412.074524 
L 537.356507 -412.991606 
L 537.356507 -413.908689 
L 537.356507 -414.825772 
L 537.356507 -415.742855 
L 537.356507 -416.659938 
L 537.356507 -417.577021 
L 537.356507 -418.494103 
L 537.356507 -419.411186 
L 537.356507 -420.328269 
L 537.356507 -421.245352 
L 537.356507 -422.162435 
L 537.356507 -423.079518 
L 537.356507 -423.9966 
L 537.356507 -424.913683 
L 537.356507 -425.830766 
L 537.356507 -426.747849 
L 537.356507 -427.664932 
L 537.356507 -428.582014 
L 537.356507 -429.499097 
L 537.356507 -430.41618 
L 537.356507 -431.333263 
L 537.356507 -432.250346 
L 537.356507 -433.167429 
L 537.356507 -434.084511 
L 537.356507 -435.001594 
L 537.356507 -435.918677 
L 537.356507 -436.83576 
L 537.356343 -437.752843 
L 537.351509 -438.669926 
L 537.345434 -439.587008 
L 537.354722 -440.504091 
L 537.356486 -441.421174 
L 537.356507 -442.338257 
L 537.356419 -443.25534 
L 537.352756 -444.172422 
L 537.344934 -445.089505 
L 537.353909 -446.006588 
L 537.356465 -446.923671 
L 537.356503 -447.840754 
L 537.355813 -448.757837 
L 537.347754 -449.674919 
L 537.34848 -450.592002 
L 537.355971 -451.509085 
L 537.356504 -452.426168 
L 537.356484 -453.343251 
L 537.354626 -454.260333 
L 537.345342 -455.177416 
L 537.351683 -456.094499 
L 537.356355 -457.011582 
L 537.356506 -457.928665 
L 537.35636 -458.845748 
L 537.351528 -459.76283 
L 537.339467 -460.679913 
L 537.344023 -461.596996 
L 537.355088 -462.514079 
L 537.355748 -463.431162 
L 537.347553 -464.348245 
L 537.347871 -465.265327 
L 537.339882 -466.18241 
L 537.321824 -467.099493 
L 537.311633 -468.016576 
L 537.315177 -468.933659 
L 537.331054 -469.850741 
L 537.341836 -470.767824 
L 537.352451 -471.684907 
L 537.345371 -472.60199 
L 537.346173 -473.519073 
L 537.334303 -474.436156 
L 537.300734 -475.353238 
L 537.284409 -476.270321 
L 537.309398 -477.187404 
L 537.29854 -478.104487 
L 537.316646 -479.02157 
L 537.294827 -479.938653 
L 537.297658 -480.855735 
L 537.293444 -481.772818 
L 537.241002 -482.689901 
L 537.204401 -483.606984 
L 537.164831 -484.524067 
L 537.17807 -485.441149 
L 537.138918 -486.358232 
L 537.109173 -487.275315 
L 537.106567 -488.192398 
L 537.078608 -489.109481 
L 537.028655 -490.026564 
L 536.855619 -490.943646 
L 536.579367 -491.860729 
L 536.366266 -492.777812 
L 535.964284 -493.694895 
L 534.195793 -494.611978 
L 527.282865 -495.529061 
L 506.858816 -496.446143 
L 499.174289 -497.363226 
L 528.128736 -498.280309 
L 537.058992 -499.197392 
L 537.654023 -499.197392 
L 537.654023 -499.197392 
L 546.584278 -498.280309 
L 575.538725 -497.363226 
L 567.854198 -496.446143 
L 547.430149 -495.529061 
L 540.517222 -494.611978 
L 538.74873 -493.694895 
L 538.346748 -492.777812 
L 538.133647 -491.860729 
L 537.857395 -490.943646 
L 537.68436 -490.026564 
L 537.634406 -489.109481 
L 537.606447 -488.192398 
L 537.603841 -487.275315 
L 537.574096 -486.358232 
L 537.534944 -485.441149 
L 537.548183 -484.524067 
L 537.508613 -483.606984 
L 537.472012 -482.689901 
L 537.41957 -481.772818 
L 537.415356 -480.855735 
L 537.418187 -479.938653 
L 537.396368 -479.02157 
L 537.414474 -478.104487 
L 537.403616 -477.187404 
L 537.428605 -476.270321 
L 537.41228 -475.353238 
L 537.378711 -474.436156 
L 537.366841 -473.519073 
L 537.367643 -472.60199 
L 537.360563 -471.684907 
L 537.371178 -470.767824 
L 537.38196 -469.850741 
L 537.397837 -468.933659 
L 537.401381 -468.016576 
L 537.39119 -467.099493 
L 537.373132 -466.18241 
L 537.365143 -465.265327 
L 537.365461 -464.348245 
L 537.357266 -463.431162 
L 537.357926 -462.514079 
L 537.368991 -461.596996 
L 537.373548 -460.679913 
L 537.361486 -459.76283 
L 537.356654 -458.845748 
L 537.356508 -457.928665 
L 537.356659 -457.011582 
L 537.361331 -456.094499 
L 537.367672 -455.177416 
L 537.358388 -454.260333 
L 537.35653 -453.343251 
L 537.35651 -452.426168 
L 537.357043 -451.509085 
L 537.364535 -450.592002 
L 537.36526 -449.674919 
L 537.357202 -448.757837 
L 537.356511 -447.840754 
L 537.35655 -446.923671 
L 537.359106 -446.006588 
L 537.36808 -445.089505 
L 537.360258 -444.172422 
L 537.356596 -443.25534 
L 537.356507 -442.338257 
L 537.356528 -441.421174 
L 537.358292 -440.504091 
L 537.36758 -439.587008 
L 537.361505 -438.669926 
L 537.356671 -437.752843 
L 537.356507 -436.83576 
L 537.356507 -435.918677 
L 537.356507 -435.001594 
L 537.356507 -434.084511 
L 537.356507 -433.167429 
L 537.356507 -432.250346 
L 537.356507 -431.333263 
L 537.356507 -430.41618 
L 537.356507 -429.499097 
L 537.356507 -428.582014 
L 537.356507 -427.664932 
L 537.356507 -426.747849 
L 537.356507 -425.830766 
L 537.356507 -424.913683 
L 537.356507 -423.9966 
L 537.356507 -423.079518 
L 537.356507 -422.162435 
L 537.356507 -421.245352 
L 537.356507 -420.328269 
L 537.356507 -419.411186 
L 537.356507 -418.494103 
L 537.356507 -417.577021 
L 537.356507 -416.659938 
L 537.356507 -415.742855 
L 537.356507 -414.825772 
L 537.356507 -413.908689 
L 537.356507 -412.991606 
L 537.356508 -412.074524 
L 537.356704 -411.157441 
L 537.361923 -410.240358 
L 537.367338 -409.323275 
L 537.358083 -408.406192 
z
" style="stroke: #3d3d3d; stroke-width: 1.875"/>
                </defs>
                <g clip-path="url(#p5aef3de27c)">
                    <use xlink:href="#mac71b02260" x="0" y="864"
                         style="fill: #9372b2; stroke: #3d3d3d; stroke-width: 1.875"/>
                </g>
            </g>
            <g id="FillBetweenPolyCollection_6">
                <defs>
                    <path id="m35aebb62cc" d="M 632.813808 -473.479346
L 632.810297 -473.479346 
L 632.801506 -473.730624 
L 632.801993 -473.981901 
L 632.810529 -474.233179 
L 632.812016 -474.484456 
L 632.812052 -474.735733 
L 632.812052 -474.987011 
L 632.812052 -475.238288 
L 632.812052 -475.489566 
L 632.812052 -475.740843 
L 632.812046 -475.99212 
L 632.811544 -476.243398 
L 632.805655 -476.494675 
L 632.799261 -476.745953 
L 632.807992 -476.99723 
L 632.811848 -477.248507 
L 632.812051 -477.499785 
L 632.812052 -477.751062 
L 632.812052 -478.002339 
L 632.812052 -478.253617 
L 632.812052 -478.504894 
L 632.812052 -478.756172 
L 632.812052 -479.007449 
L 632.812052 -479.258726 
L 632.812052 -479.510004 
L 632.812052 -479.761281 
L 632.812052 -480.012559 
L 632.812052 -480.263836 
L 632.812052 -480.515113 
L 632.812052 -480.766391 
L 632.812052 -481.017668 
L 632.812052 -481.268946 
L 632.812052 -481.520223 
L 632.812052 -481.7715 
L 632.812052 -482.022778 
L 632.812052 -482.274055 
L 632.812039 -482.525333 
L 632.811255 -482.77661 
L 632.804227 -483.027887 
L 632.799856 -483.279165 
L 632.809035 -483.530442 
L 632.811922 -483.78172 
L 632.811294 -484.032997 
L 632.804394 -484.284274 
L 632.799768 -484.535552 
L 632.808924 -484.786829 
L 632.811926 -485.038107 
L 632.812051 -485.289384 
L 632.812023 -485.540661 
L 632.810721 -485.791939 
L 632.802463 -486.043216 
L 632.801079 -486.294493 
L 632.809683 -486.545771 
L 632.806443 -486.797048 
L 632.799067 -487.048326 
L 632.805653 -487.299603 
L 632.797107 -487.55088 
L 632.781387 -487.802158 
L 632.780617 -488.053435 
L 632.778373 -488.304713 
L 632.772338 -488.55599 
L 632.764284 -488.807267 
L 632.762465 -489.058545 
L 632.784556 -489.309822 
L 632.785054 -489.5611 
L 632.788086 -489.812377 
L 632.784869 -490.063654 
L 632.769864 -490.314932 
L 632.726714 -490.566209 
L 632.734754 -490.817487 
L 632.739788 -491.068764 
L 632.709693 -491.320041 
L 632.680341 -491.571319 
L 632.697169 -491.822596 
L 632.721672 -492.073874 
L 632.717299 -492.325151 
L 632.678312 -492.576428 
L 632.653862 -492.827706 
L 632.662647 -493.078983 
L 632.649494 -493.330261 
L 632.675776 -493.581538 
L 632.656604 -493.832815 
L 632.617338 -494.084093 
L 632.52784 -494.33537 
L 632.440327 -494.586648 
L 632.404467 -494.837925 
L 632.391535 -495.089202 
L 632.295114 -495.34048 
L 632.222535 -495.591757 
L 632.231672 -495.843034 
L 631.922199 -496.094312 
L 631.347564 -496.345589 
L 629.790752 -496.596867 
L 625.531972 -496.848144 
L 616.978359 -497.099421 
L 603.299884 -497.350699 
L 594.629834 -497.601976 
L 609.468507 -497.853254 
L 628.080143 -498.104531 
L 632.568029 -498.355808 
L 633.056076 -498.355808 
L 633.056076 -498.355808 
L 637.543962 -498.104531 
L 656.155597 -497.853254 
L 670.99427 -497.601976 
L 662.324221 -497.350699 
L 648.645745 -497.099421 
L 640.092132 -496.848144 
L 635.833353 -496.596867 
L 634.27654 -496.345589 
L 633.701906 -496.094312 
L 633.392432 -495.843034 
L 633.40157 -495.591757 
L 633.32899 -495.34048 
L 633.23257 -495.089202 
L 633.219637 -494.837925 
L 633.183777 -494.586648 
L 633.096265 -494.33537 
L 633.006766 -494.084093 
L 632.9675 -493.832815 
L 632.948328 -493.581538 
L 632.97461 -493.330261 
L 632.961458 -493.078983 
L 632.970242 -492.827706 
L 632.945792 -492.576428 
L 632.906805 -492.325151 
L 632.902433 -492.073874 
L 632.926936 -491.822596 
L 632.943764 -491.571319 
L 632.914412 -491.320041 
L 632.884316 -491.068764 
L 632.889351 -490.817487 
L 632.89739 -490.566209 
L 632.854241 -490.314932 
L 632.839236 -490.063654 
L 632.836018 -489.812377 
L 632.839051 -489.5611 
L 632.839549 -489.309822 
L 632.861639 -489.058545 
L 632.85982 -488.807267 
L 632.851767 -488.55599 
L 632.845732 -488.304713 
L 632.843487 -488.053435 
L 632.842718 -487.802158 
L 632.826998 -487.55088 
L 632.818451 -487.299603 
L 632.825037 -487.048326 
L 632.817661 -486.797048 
L 632.814422 -486.545771 
L 632.823025 -486.294493 
L 632.821641 -486.043216 
L 632.813383 -485.791939 
L 632.812082 -485.540661 
L 632.812053 -485.289384 
L 632.812179 -485.038107 
L 632.815181 -484.786829 
L 632.824337 -484.535552 
L 632.819711 -484.284274 
L 632.812811 -484.032997 
L 632.812183 -483.78172 
L 632.81507 -483.530442 
L 632.824248 -483.279165 
L 632.819878 -483.027887 
L 632.812849 -482.77661 
L 632.812065 -482.525333 
L 632.812052 -482.274055 
L 632.812052 -482.022778 
L 632.812052 -481.7715 
L 632.812052 -481.520223 
L 632.812052 -481.268946 
L 632.812052 -481.017668 
L 632.812052 -480.766391 
L 632.812052 -480.515113 
L 632.812052 -480.263836 
L 632.812052 -480.012559 
L 632.812052 -479.761281 
L 632.812052 -479.510004 
L 632.812052 -479.258726 
L 632.812052 -479.007449 
L 632.812052 -478.756172 
L 632.812052 -478.504894 
L 632.812052 -478.253617 
L 632.812052 -478.002339 
L 632.812052 -477.751062 
L 632.812054 -477.499785 
L 632.812257 -477.248507 
L 632.816112 -476.99723 
L 632.824843 -476.745953 
L 632.81845 -476.494675 
L 632.81256 -476.243398 
L 632.812059 -475.99212 
L 632.812052 -475.740843 
L 632.812052 -475.489566 
L 632.812052 -475.238288 
L 632.812052 -474.987011 
L 632.812052 -474.735733 
L 632.812089 -474.484456 
L 632.813575 -474.233179 
L 632.822111 -473.981901 
L 632.822599 -473.730624 
L 632.813808 -473.479346 
z
" style="stroke: #3d3d3d; stroke-width: 1.875"/>
                </defs>
                <g clip-path="url(#p5aef3de27c)">
                    <use xlink:href="#m35aebb62cc" x="0" y="864"
                         style="fill: #845b53; stroke: #3d3d3d; stroke-width: 1.875"/>
                </g>
            </g>
            <g id="line2d_6">
                <path d="M 155.534326 366.992254
L 155.534326 365.936172 
" clip-path="url(#p5aef3de27c)" style="fill: none; stroke: #3d3d3d; stroke-width: 2.8125; stroke-linecap: round"/>
            </g>
            <g id="line2d_7">
                <path d="M 155.534326 366.540974
L 155.534326 366.238917 
" clip-path="url(#p5aef3de27c)" style="fill: none; stroke: #3d3d3d; stroke-width: 8.4375; stroke-linecap: round"/>
            </g>
            <g id="line2d_8">
                <path d="M 155.534326 366.368193
" clip-path="url(#p5aef3de27c)" style="fill: none; stroke: #3d3d3d; stroke-width: 2.25; stroke-linecap: round"/>
                <defs>
                    <path id="m0511c0674d" d="M 3.515625 0
L -3.515625 -0 
" style="stroke: #ffffff; stroke-width: 1.6875"/>
                </defs>
                <g clip-path="url(#p5aef3de27c)">
                    <use xlink:href="#m0511c0674d" x="155.534326" y="366.368193"
                         style="fill: #ffffff; stroke: #ffffff; stroke-width: 1.6875"/>
                </g>
            </g>
            <g id="line2d_9">
                <path d="M 250.989871 368.282308
L 250.989871 365.979677 
" clip-path="url(#p5aef3de27c)" style="fill: none; stroke: #3d3d3d; stroke-width: 2.8125; stroke-linecap: round"/>
            </g>
            <g id="line2d_10">
                <path d="M 250.989871 367.186154
L 250.989871 366.453514 
" clip-path="url(#p5aef3de27c)" style="fill: none; stroke: #3d3d3d; stroke-width: 8.4375; stroke-linecap: round"/>
            </g>
            <g id="line2d_11">
                <path d="M 250.989871 366.714396
" clip-path="url(#p5aef3de27c)" style="fill: none; stroke: #3d3d3d; stroke-width: 2.25; stroke-linecap: round"/>
                <g clip-path="url(#p5aef3de27c)">
                    <use xlink:href="#m0511c0674d" x="250.989871" y="366.714396"
                         style="fill: #ffffff; stroke: #ffffff; stroke-width: 1.6875"/>
                </g>
            </g>
            <g id="line2d_12">
                <path d="M 346.445417 367.863077
L 346.445417 365.95391 
" clip-path="url(#p5aef3de27c)" style="fill: none; stroke: #3d3d3d; stroke-width: 2.8125; stroke-linecap: round"/>
            </g>
            <g id="line2d_13">
                <path d="M 346.445417 366.989933
L 346.445417 366.404463 
" clip-path="url(#p5aef3de27c)" style="fill: none; stroke: #3d3d3d; stroke-width: 8.4375; stroke-linecap: round"/>
            </g>
            <g id="line2d_14">
                <path d="M 346.445417 366.630416
" clip-path="url(#p5aef3de27c)" style="fill: none; stroke: #3d3d3d; stroke-width: 2.25; stroke-linecap: round"/>
                <g clip-path="url(#p5aef3de27c)">
                    <use xlink:href="#m0511c0674d" x="346.445417" y="366.630416"
                         style="fill: #ffffff; stroke: #ffffff; stroke-width: 1.6875"/>
                </g>
            </g>
            <g id="line2d_15">
                <path d="M 441.900962 368.108899
L 441.900962 365.948729 
" clip-path="url(#p5aef3de27c)" style="fill: none; stroke: #3d3d3d; stroke-width: 2.8125; stroke-linecap: round"/>
            </g>
            <g id="line2d_16">
                <path d="M 441.900962 367.123979
L 441.900962 366.466434 
" clip-path="url(#p5aef3de27c)" style="fill: none; stroke: #3d3d3d; stroke-width: 8.4375; stroke-linecap: round"/>
            </g>
            <g id="line2d_17">
                <path d="M 441.900962 366.704795
" clip-path="url(#p5aef3de27c)" style="fill: none; stroke: #3d3d3d; stroke-width: 2.25; stroke-linecap: round"/>
                <g clip-path="url(#p5aef3de27c)">
                    <use xlink:href="#m0511c0674d" x="441.900962" y="366.704795"
                         style="fill: #ffffff; stroke: #ffffff; stroke-width: 1.6875"/>
                </g>
            </g>
            <g id="line2d_18">
                <path d="M 537.356507 369.002376
L 537.356507 365.935672 
" clip-path="url(#p5aef3de27c)" style="fill: none; stroke: #3d3d3d; stroke-width: 2.8125; stroke-linecap: round"/>
            </g>
            <g id="line2d_19">
                <path d="M 537.356507 367.618205
L 537.356507 366.689146 
" clip-path="url(#p5aef3de27c)" style="fill: none; stroke: #3d3d3d; stroke-width: 8.4375; stroke-linecap: round"/>
            </g>
            <g id="line2d_20">
                <path d="M 537.356507 367.041933
" clip-path="url(#p5aef3de27c)" style="fill: none; stroke: #3d3d3d; stroke-width: 2.25; stroke-linecap: round"/>
                <g clip-path="url(#p5aef3de27c)">
                    <use xlink:href="#m0511c0674d" x="537.356507" y="367.041933"
                         style="fill: #ffffff; stroke: #ffffff; stroke-width: 1.6875"/>
                </g>
            </g>
            <g id="line2d_21">
                <path d="M 632.812052 367.400702
L 632.812052 366.014642 
" clip-path="url(#p5aef3de27c)" style="fill: none; stroke: #3d3d3d; stroke-width: 2.8125; stroke-linecap: round"/>
            </g>
            <g id="line2d_22">
                <path d="M 632.812052 366.753163
L 632.812052 366.321176 
" clip-path="url(#p5aef3de27c)" style="fill: none; stroke: #3d3d3d; stroke-width: 8.4375; stroke-linecap: round"/>
            </g>
            <g id="line2d_23">
                <path d="M 632.812052 366.49106
" clip-path="url(#p5aef3de27c)" style="fill: none; stroke: #3d3d3d; stroke-width: 2.25; stroke-linecap: round"/>
                <g clip-path="url(#p5aef3de27c)">
                    <use xlink:href="#m0511c0674d" x="632.812052" y="366.49106"
                         style="fill: #ffffff; stroke: #ffffff; stroke-width: 1.6875"/>
                </g>
            </g>
            <g id="line2d_24">
                <path d="M 155.534326 346.516854
L 155.534326 340.435361 
L 250.989871 340.435361 
L 250.989871 346.516854 
" style="fill: none; stroke: #333333; stroke-width: 1.5; stroke-linecap: round"/>
            </g>
            <g id="line2d_25">
                <path d="M 250.989871 324.383321
L 250.989871 318.301828 
L 346.445417 318.301828 
L 346.445417 324.383321 
" style="fill: none; stroke: #333333; stroke-width: 1.5; stroke-linecap: round"/>
            </g>
            <g id="line2d_26">
                <path d="M 346.445417 302.249788
L 346.445417 296.168295 
L 441.900962 296.168295 
L 441.900962 302.249788 
" style="fill: none; stroke: #333333; stroke-width: 1.5; stroke-linecap: round"/>
            </g>
            <g id="line2d_27">
                <path d="M 441.900962 280.116255
L 441.900962 274.034762 
L 537.356507 274.034762 
L 537.356507 280.116255 
" style="fill: none; stroke: #333333; stroke-width: 1.5; stroke-linecap: round"/>
            </g>
            <g id="line2d_28">
                <path d="M 537.356507 257.982722
L 537.356507 251.90123 
L 632.812052 251.90123 
L 632.812052 257.982722 
" style="fill: none; stroke: #333333; stroke-width: 1.5; stroke-linecap: round"/>
            </g>
            <g id="line2d_29">
                <path d="M 155.534326 280.116255
L 155.534326 274.034762 
L 346.445417 274.034762 
L 346.445417 280.116255 
" style="fill: none; stroke: #333333; stroke-width: 1.5; stroke-linecap: round"/>
            </g>
            <g id="line2d_30">
                <path d="M 346.445417 235.84919
L 346.445417 229.767697 
L 537.356507 229.767697 
L 537.356507 235.84919 
" style="fill: none; stroke: #333333; stroke-width: 1.5; stroke-linecap: round"/>
            </g>
            <g id="line2d_31">
                <path d="M 441.900962 213.715657
L 441.900962 207.634164 
L 632.812052 207.634164 
L 632.812052 213.715657 
" style="fill: none; stroke: #333333; stroke-width: 1.5; stroke-linecap: round"/>
            </g>
            <g id="line2d_32">
                <path d="M 155.534326 191.582124
L 155.534326 185.500631 
L 441.900962 185.500631 
L 441.900962 191.582124 
" style="fill: none; stroke: #333333; stroke-width: 1.5; stroke-linecap: round"/>
            </g>
            <g id="line2d_33">
                <path d="M 250.989871 169.448591
L 250.989871 163.367099 
L 537.356507 163.367099 
L 537.356507 169.448591 
" style="fill: none; stroke: #333333; stroke-width: 1.5; stroke-linecap: round"/>
            </g>
            <g id="line2d_34">
                <path d="M 346.445417 147.315058
L 346.445417 141.233566 
L 632.812052 141.233566 
L 632.812052 147.315058 
" style="fill: none; stroke: #333333; stroke-width: 1.5; stroke-linecap: round"/>
            </g>
            <g id="line2d_35">
                <path d="M 155.534326 125.181526
L 155.534326 119.100033 
L 537.356507 119.100033 
L 537.356507 125.181526 
" style="fill: none; stroke: #333333; stroke-width: 1.5; stroke-linecap: round"/>
            </g>
            <g id="line2d_36">
                <path d="M 250.989871 103.047993
L 250.989871 96.9665 
L 632.812052 96.9665 
L 632.812052 103.047993 
" style="fill: none; stroke: #333333; stroke-width: 1.5; stroke-linecap: round"/>
            </g>
            <g id="line2d_37">
                <path d="M 155.534326 80.91446
L 155.534326 74.832967 
L 632.812052 74.832967 
L 632.812052 80.91446 
" style="fill: none; stroke: #333333; stroke-width: 1.5; stroke-linecap: round"/>
            </g>
            <g id="patch_3">
                <path d="M 89.67 654.580631
L 89.67 43.296 
" style="fill: none; stroke: #cccccc; stroke-width: 1.875; stroke-linejoin: miter; stroke-linecap: square"/>
            </g>
            <g id="patch_4">
                <path d="M 698.676378 654.580631
L 698.676378 43.296 
" style="fill: none; stroke: #cccccc; stroke-width: 1.875; stroke-linejoin: miter; stroke-linecap: square"/>
            </g>
            <g id="patch_5">
                <path d="M 89.67 654.580631
L 698.676378 654.580631 
" style="fill: none; stroke: #cccccc; stroke-width: 1.875; stroke-linejoin: miter; stroke-linecap: square"/>
            </g>
            <g id="patch_6">
                <path d="M 89.67 43.296
L 698.676378 43.296 
" style="fill: none; stroke: #cccccc; stroke-width: 1.875; stroke-linejoin: miter; stroke-linecap: square"/>
            </g>
            <g id="text_14">
                <!-- **** -->
                <g style="fill: #262626" transform="translate(189.250224 335.857861) scale(0.18 -0.18)">
                    <defs>
                        <path id="ArialMT-2a" d="M 200 3741
L 344 4184 
Q 841 4009 1066 3881 
Q 1006 4447 1003 4659 
L 1456 4659 
Q 1447 4350 1384 3884 
Q 1706 4047 2122 4184 
L 2266 3741 
Q 1869 3609 1488 3566 
Q 1678 3400 2025 2975 
L 1650 2709 
Q 1469 2956 1222 3381 
Q 991 2941 816 2709 
L 447 2975 
Q 809 3422 966 3566 
Q 563 3644 200 3741 
z
" transform="scale(0.015625)"/>
                    </defs>
                    <use xlink:href="#ArialMT-2a"/>
                    <use xlink:href="#ArialMT-2a" transform="translate(38.916016 0)"/>
                    <use xlink:href="#ArialMT-2a" transform="translate(77.832031 0)"/>
                    <use xlink:href="#ArialMT-2a" transform="translate(116.748047 0)"/>
                </g>
            </g>
            <g id="text_15">
                <!-- **** -->
                <g style="fill: #262626" transform="translate(284.705769 313.724328) scale(0.18 -0.18)">
                    <use xlink:href="#ArialMT-2a"/>
                    <use xlink:href="#ArialMT-2a" transform="translate(38.916016 0)"/>
                    <use xlink:href="#ArialMT-2a" transform="translate(77.832031 0)"/>
                    <use xlink:href="#ArialMT-2a" transform="translate(116.748047 0)"/>
                </g>
            </g>
            <g id="text_16">
                <!-- **** -->
                <g style="fill: #262626" transform="translate(380.161314 291.590795) scale(0.18 -0.18)">
                    <use xlink:href="#ArialMT-2a"/>
                    <use xlink:href="#ArialMT-2a" transform="translate(38.916016 0)"/>
                    <use xlink:href="#ArialMT-2a" transform="translate(77.832031 0)"/>
                    <use xlink:href="#ArialMT-2a" transform="translate(116.748047 0)"/>
                </g>
            </g>
            <g id="text_17">
                <!-- **** -->
                <g style="fill: #262626" transform="translate(475.616859 269.457262) scale(0.18 -0.18)">
                    <use xlink:href="#ArialMT-2a"/>
                    <use xlink:href="#ArialMT-2a" transform="translate(38.916016 0)"/>
                    <use xlink:href="#ArialMT-2a" transform="translate(77.832031 0)"/>
                    <use xlink:href="#ArialMT-2a" transform="translate(116.748047 0)"/>
                </g>
            </g>
            <g id="text_18">
                <!-- **** -->
                <g style="fill: #262626" transform="translate(571.072405 247.32373) scale(0.18 -0.18)">
                    <use xlink:href="#ArialMT-2a"/>
                    <use xlink:href="#ArialMT-2a" transform="translate(38.916016 0)"/>
                    <use xlink:href="#ArialMT-2a" transform="translate(77.832031 0)"/>
                    <use xlink:href="#ArialMT-2a" transform="translate(116.748047 0)"/>
                </g>
            </g>
            <g id="text_19">
                <!-- **** -->
                <g style="fill: #262626" transform="translate(236.977996 269.457262) scale(0.18 -0.18)">
                    <use xlink:href="#ArialMT-2a"/>
                    <use xlink:href="#ArialMT-2a" transform="translate(38.916016 0)"/>
                    <use xlink:href="#ArialMT-2a" transform="translate(77.832031 0)"/>
                    <use xlink:href="#ArialMT-2a" transform="translate(116.748047 0)"/>
                </g>
            </g>
            <g id="text_20">
                <!-- **** -->
                <g style="fill: #262626" transform="translate(427.889087 225.190197) scale(0.18 -0.18)">
                    <use xlink:href="#ArialMT-2a"/>
                    <use xlink:href="#ArialMT-2a" transform="translate(38.916016 0)"/>
                    <use xlink:href="#ArialMT-2a" transform="translate(77.832031 0)"/>
                    <use xlink:href="#ArialMT-2a" transform="translate(116.748047 0)"/>
                </g>
            </g>
            <g id="text_21">
                <!-- **** -->
                <g style="fill: #262626" transform="translate(523.344632 203.056664) scale(0.18 -0.18)">
                    <use xlink:href="#ArialMT-2a"/>
                    <use xlink:href="#ArialMT-2a" transform="translate(38.916016 0)"/>
                    <use xlink:href="#ArialMT-2a" transform="translate(77.832031 0)"/>
                    <use xlink:href="#ArialMT-2a" transform="translate(116.748047 0)"/>
                </g>
            </g>
            <g id="text_22">
                <!-- **** -->
                <g style="fill: #262626" transform="translate(284.705769 180.923131) scale(0.18 -0.18)">
                    <use xlink:href="#ArialMT-2a"/>
                    <use xlink:href="#ArialMT-2a" transform="translate(38.916016 0)"/>
                    <use xlink:href="#ArialMT-2a" transform="translate(77.832031 0)"/>
                    <use xlink:href="#ArialMT-2a" transform="translate(116.748047 0)"/>
                </g>
            </g>
            <g id="text_23">
                <!-- **** -->
                <g style="fill: #262626" transform="translate(380.161314 158.789599) scale(0.18 -0.18)">
                    <use xlink:href="#ArialMT-2a"/>
                    <use xlink:href="#ArialMT-2a" transform="translate(38.916016 0)"/>
                    <use xlink:href="#ArialMT-2a" transform="translate(77.832031 0)"/>
                    <use xlink:href="#ArialMT-2a" transform="translate(116.748047 0)"/>
                </g>
            </g>
            <g id="text_24">
                <!-- **** -->
                <g style="fill: #262626" transform="translate(475.616859 136.656066) scale(0.18 -0.18)">
                    <use xlink:href="#ArialMT-2a"/>
                    <use xlink:href="#ArialMT-2a" transform="translate(38.916016 0)"/>
                    <use xlink:href="#ArialMT-2a" transform="translate(77.832031 0)"/>
                    <use xlink:href="#ArialMT-2a" transform="translate(116.748047 0)"/>
                </g>
            </g>
            <g id="text_25">
                <!-- **** -->
                <g style="fill: #262626" transform="translate(332.433542 114.522533) scale(0.18 -0.18)">
                    <use xlink:href="#ArialMT-2a"/>
                    <use xlink:href="#ArialMT-2a" transform="translate(38.916016 0)"/>
                    <use xlink:href="#ArialMT-2a" transform="translate(77.832031 0)"/>
                    <use xlink:href="#ArialMT-2a" transform="translate(116.748047 0)"/>
                </g>
            </g>
            <g id="text_26">
                <!-- **** -->
                <g style="fill: #262626" transform="translate(427.889087 92.389) scale(0.18 -0.18)">
                    <use xlink:href="#ArialMT-2a"/>
                    <use xlink:href="#ArialMT-2a" transform="translate(38.916016 0)"/>
                    <use xlink:href="#ArialMT-2a" transform="translate(77.832031 0)"/>
                    <use xlink:href="#ArialMT-2a" transform="translate(116.748047 0)"/>
                </g>
            </g>
            <g id="text_27">
                <!-- **** -->
                <g style="fill: #262626" transform="translate(380.161314 70.255467) scale(0.18 -0.18)">
                    <use xlink:href="#ArialMT-2a"/>
                    <use xlink:href="#ArialMT-2a" transform="translate(38.916016 0)"/>
                    <use xlink:href="#ArialMT-2a" transform="translate(77.832031 0)"/>
                    <use xlink:href="#ArialMT-2a" transform="translate(116.748047 0)"/>
                </g>
            </g>
            <g id="text_28">
                <!-- Ranked $r^2$ per Fold per Target -->
                <g style="fill: #262626" transform="translate(272.673189 37.296) scale(0.18 -0.18)">
                    <defs>
                        <path id="ArialMT-6b" d="M 425 0
L 425 4581 
L 988 4581 
L 988 1969 
L 2319 3319 
L 3047 3319 
L 1778 2088 
L 3175 0 
L 2481 0 
L 1384 1697 
L 988 1316 
L 988 0 
L 425 0 
z
" transform="scale(0.015625)"/>
                        <path id="ArialMT-20" transform="scale(0.015625)"/>
                        <path id="DejaVuSans-Oblique-72" d="M 2853 2969
Q 2766 3016 2653 3041 
Q 2541 3066 2413 3066 
Q 1953 3066 1609 2717 
Q 1266 2369 1153 1784 
L 800 0 
L 225 0 
L 909 3500 
L 1484 3500 
L 1375 2956 
Q 1603 3259 1920 3421 
Q 2238 3584 2597 3584 
Q 2691 3584 2781 3573 
Q 2872 3563 2963 3538 
L 2853 2969 
z
" transform="scale(0.015625)"/>
                        <path id="DejaVuSans-32" d="M 1228 531
L 3431 531 
L 3431 0 
L 469 0 
L 469 531 
Q 828 903 1448 1529 
Q 2069 2156 2228 2338 
Q 2531 2678 2651 2914 
Q 2772 3150 2772 3378 
Q 2772 3750 2511 3984 
Q 2250 4219 1831 4219 
Q 1534 4219 1204 4116 
Q 875 4013 500 3803 
L 500 4441 
Q 881 4594 1212 4672 
Q 1544 4750 1819 4750 
Q 2544 4750 2975 4387 
Q 3406 4025 3406 3419 
Q 3406 3131 3298 2873 
Q 3191 2616 2906 2266 
Q 2828 2175 2409 1742 
Q 1991 1309 1228 531 
z
" transform="scale(0.015625)"/>
                        <path id="ArialMT-54" d="M 1659 0
L 1659 4041 
L 150 4041 
L 150 4581 
L 3781 4581 
L 3781 4041 
L 2266 4041 
L 2266 0 
L 1659 0 
z
" transform="scale(0.015625)"/>
                    </defs>
                    <use xlink:href="#ArialMT-52" transform="translate(0 0.765625)"/>
                    <use xlink:href="#ArialMT-61" transform="translate(72.216797 0.765625)"/>
                    <use xlink:href="#ArialMT-6e" transform="translate(127.832031 0.765625)"/>
                    <use xlink:href="#ArialMT-6b" transform="translate(183.447266 0.765625)"/>
                    <use xlink:href="#ArialMT-65" transform="translate(233.447266 0.765625)"/>
                    <use xlink:href="#ArialMT-64" transform="translate(289.0625 0.765625)"/>
                    <use xlink:href="#ArialMT-20" transform="translate(344.677734 0.765625)"/>
                    <use xlink:href="#DejaVuSans-Oblique-72" transform="translate(372.460938 0.765625)"/>
                    <use xlink:href="#DejaVuSans-32" transform="translate(418.224115 39.046875) scale(0.7)"/>
                    <use xlink:href="#ArialMT-20" transform="translate(465.494622 0.765625)"/>
                    <use xlink:href="#ArialMT-70" transform="translate(493.277826 0.765625)"/>
                    <use xlink:href="#ArialMT-65" transform="translate(548.89306 0.765625)"/>
                    <use xlink:href="#ArialMT-72" transform="translate(604.508294 0.765625)"/>
                    <use xlink:href="#ArialMT-20" transform="translate(637.809076 0.765625)"/>
                    <use xlink:href="#ArialMT-46" transform="translate(665.592279 0.765625)"/>
                    <use xlink:href="#ArialMT-6f" transform="translate(726.676263 0.765625)"/>
                    <use xlink:href="#ArialMT-6c" transform="translate(782.291497 0.765625)"/>
                    <use xlink:href="#ArialMT-64" transform="translate(804.508294 0.765625)"/>
                    <use xlink:href="#ArialMT-20" transform="translate(860.123529 0.765625)"/>
                    <use xlink:href="#ArialMT-70" transform="translate(887.906732 0.765625)"/>
                    <use xlink:href="#ArialMT-65" transform="translate(943.521966 0.765625)"/>
                    <use xlink:href="#ArialMT-72" transform="translate(999.137201 0.765625)"/>
                    <use xlink:href="#ArialMT-20" transform="translate(1032.437982 0.765625)"/>
                    <use xlink:href="#ArialMT-54" transform="translate(1060.221185 0.765625)"/>
                    <use xlink:href="#ArialMT-61" transform="translate(1121.305169 0.765625)"/>
                    <use xlink:href="#ArialMT-72" transform="translate(1176.920404 0.765625)"/>
                    <use xlink:href="#ArialMT-67" transform="translate(1210.221185 0.765625)"/>
                    <use xlink:href="#ArialMT-65" transform="translate(1265.836419 0.765625)"/>
                    <use xlink:href="#ArialMT-74" transform="translate(1321.451654 0.765625)"/>
                </g>
            </g>
        </g>
    </g>
    <defs>
        <clipPath id="p5aef3de27c">
            <rect x="89.67" y="43.296" width="609.006378" height="611.284631"/>
        </clipPath>
    </defs>
</svg>
