<?xml version="1.0" encoding="utf-8" standalone="no"?>
<!DOCTYPE svg PUBLIC "-//W3C//DTD SVG 1.1//EN"
  "http://www.w3.org/Graphics/SVG/1.1/DTD/svg11.dtd">
<svg xmlns:xlink="http://www.w3.org/1999/xlink" width="720pt" height="864pt" viewBox="0 0 720 864" xmlns="http://www.w3.org/2000/svg" version="1.1">
 <metadata>
  <rdf:RDF xmlns:dc="http://purl.org/dc/elements/1.1/" xmlns:cc="http://creativecommons.org/ns#" xmlns:rdf="http://www.w3.org/1999/02/22-rdf-syntax-ns#">
   <cc:Work>
    <dc:type rdf:resource="http://purl.org/dc/dcmitype/StillImage"/>
    <dc:date>2025-02-25T23:42:50.089959</dc:date>
    <dc:format>image/svg+xml</dc:format>
    <dc:creator>
     <cc:Agent>
      <dc:title>Matplotlib v3.10.0, https://matplotlib.org/</dc:title>
     </cc:Agent>
    </dc:creator>
   </cc:Work>
  </rdf:RDF>
 </metadata>
 <defs>
  <style type="text/css">*{stroke-linejoin: round; stroke-linecap: butt}</style>
 </defs>
 <g id="figure_1">
  <g id="patch_1">
   <path d="M 0 864 
L 720 864 
L 720 0 
L 0 0 
z
" style="fill: #ffffff"/>
  </g>
  <g id="axes_1">
   <g id="patch_2">
    <path d="M 89.826 645.866348 
L 692.917651 645.866348 
L 692.917651 45.816 
L 89.826 45.816 
z
" style="fill: #ffffff"/>
   </g>
   <g id="matplotlib.axis_1">
    <g id="xtick_1">
     <g id="text_1">
      <!-- RandomSplit -->
      <g style="fill: #262626" transform="translate(122.720663 734.472111) rotate(-45) scale(0.176 -0.176)">
       <defs>
        <path id="ArialMT-52" d="M 503 0 
L 503 4581 
L 2534 4581 
Q 3147 4581 3465 4457 
Q 3784 4334 3975 4021 
Q 4166 3709 4166 3331 
Q 4166 2844 3850 2509 
Q 3534 2175 2875 2084 
Q 3116 1969 3241 1856 
Q 3506 1613 3744 1247 
L 4541 0 
L 3778 0 
L 3172 953 
Q 2906 1366 2734 1584 
Q 2563 1803 2427 1890 
Q 2291 1978 2150 2013 
Q 2047 2034 1813 2034 
L 1109 2034 
L 1109 0 
L 503 0 
z
M 1109 2559 
L 2413 2559 
Q 2828 2559 3062 2645 
Q 3297 2731 3419 2920 
Q 3541 3109 3541 3331 
Q 3541 3656 3305 3865 
Q 3069 4075 2559 4075 
L 1109 4075 
L 1109 2559 
z
" transform="scale(0.015625)"/>
        <path id="ArialMT-61" d="M 2588 409 
Q 2275 144 1986 34 
Q 1697 -75 1366 -75 
Q 819 -75 525 192 
Q 231 459 231 875 
Q 231 1119 342 1320 
Q 453 1522 633 1644 
Q 813 1766 1038 1828 
Q 1203 1872 1538 1913 
Q 2219 1994 2541 2106 
Q 2544 2222 2544 2253 
Q 2544 2597 2384 2738 
Q 2169 2928 1744 2928 
Q 1347 2928 1158 2789 
Q 969 2650 878 2297 
L 328 2372 
Q 403 2725 575 2942 
Q 747 3159 1072 3276 
Q 1397 3394 1825 3394 
Q 2250 3394 2515 3294 
Q 2781 3194 2906 3042 
Q 3031 2891 3081 2659 
Q 3109 2516 3109 2141 
L 3109 1391 
Q 3109 606 3145 398 
Q 3181 191 3288 0 
L 2700 0 
Q 2613 175 2588 409 
z
M 2541 1666 
Q 2234 1541 1622 1453 
Q 1275 1403 1131 1340 
Q 988 1278 909 1158 
Q 831 1038 831 891 
Q 831 666 1001 516 
Q 1172 366 1500 366 
Q 1825 366 2078 508 
Q 2331 650 2450 897 
Q 2541 1088 2541 1459 
L 2541 1666 
z
" transform="scale(0.015625)"/>
        <path id="ArialMT-6e" d="M 422 0 
L 422 3319 
L 928 3319 
L 928 2847 
Q 1294 3394 1984 3394 
Q 2284 3394 2536 3286 
Q 2788 3178 2913 3003 
Q 3038 2828 3088 2588 
Q 3119 2431 3119 2041 
L 3119 0 
L 2556 0 
L 2556 2019 
Q 2556 2363 2490 2533 
Q 2425 2703 2258 2804 
Q 2091 2906 1866 2906 
Q 1506 2906 1245 2678 
Q 984 2450 984 1813 
L 984 0 
L 422 0 
z
" transform="scale(0.015625)"/>
        <path id="ArialMT-64" d="M 2575 0 
L 2575 419 
Q 2259 -75 1647 -75 
Q 1250 -75 917 144 
Q 584 363 401 755 
Q 219 1147 219 1656 
Q 219 2153 384 2558 
Q 550 2963 881 3178 
Q 1213 3394 1622 3394 
Q 1922 3394 2156 3267 
Q 2391 3141 2538 2938 
L 2538 4581 
L 3097 4581 
L 3097 0 
L 2575 0 
z
M 797 1656 
Q 797 1019 1065 703 
Q 1334 388 1700 388 
Q 2069 388 2326 689 
Q 2584 991 2584 1609 
Q 2584 2291 2321 2609 
Q 2059 2928 1675 2928 
Q 1300 2928 1048 2622 
Q 797 2316 797 1656 
z
" transform="scale(0.015625)"/>
        <path id="ArialMT-6f" d="M 213 1659 
Q 213 2581 725 3025 
Q 1153 3394 1769 3394 
Q 2453 3394 2887 2945 
Q 3322 2497 3322 1706 
Q 3322 1066 3130 698 
Q 2938 331 2570 128 
Q 2203 -75 1769 -75 
Q 1072 -75 642 372 
Q 213 819 213 1659 
z
M 791 1659 
Q 791 1022 1069 705 
Q 1347 388 1769 388 
Q 2188 388 2466 706 
Q 2744 1025 2744 1678 
Q 2744 2294 2464 2611 
Q 2184 2928 1769 2928 
Q 1347 2928 1069 2612 
Q 791 2297 791 1659 
z
" transform="scale(0.015625)"/>
        <path id="ArialMT-6d" d="M 422 0 
L 422 3319 
L 925 3319 
L 925 2853 
Q 1081 3097 1340 3245 
Q 1600 3394 1931 3394 
Q 2300 3394 2536 3241 
Q 2772 3088 2869 2813 
Q 3263 3394 3894 3394 
Q 4388 3394 4653 3120 
Q 4919 2847 4919 2278 
L 4919 0 
L 4359 0 
L 4359 2091 
Q 4359 2428 4304 2576 
Q 4250 2725 4106 2815 
Q 3963 2906 3769 2906 
Q 3419 2906 3187 2673 
Q 2956 2441 2956 1928 
L 2956 0 
L 2394 0 
L 2394 2156 
Q 2394 2531 2256 2718 
Q 2119 2906 1806 2906 
Q 1569 2906 1367 2781 
Q 1166 2656 1075 2415 
Q 984 2175 984 1722 
L 984 0 
L 422 0 
z
" transform="scale(0.015625)"/>
        <path id="ArialMT-53" d="M 288 1472 
L 859 1522 
Q 900 1178 1048 958 
Q 1197 738 1509 602 
Q 1822 466 2213 466 
Q 2559 466 2825 569 
Q 3091 672 3220 851 
Q 3350 1031 3350 1244 
Q 3350 1459 3225 1620 
Q 3100 1781 2813 1891 
Q 2628 1963 1997 2114 
Q 1366 2266 1113 2400 
Q 784 2572 623 2826 
Q 463 3081 463 3397 
Q 463 3744 659 4045 
Q 856 4347 1234 4503 
Q 1613 4659 2075 4659 
Q 2584 4659 2973 4495 
Q 3363 4331 3572 4012 
Q 3781 3694 3797 3291 
L 3216 3247 
Q 3169 3681 2898 3903 
Q 2628 4125 2100 4125 
Q 1550 4125 1298 3923 
Q 1047 3722 1047 3438 
Q 1047 3191 1225 3031 
Q 1400 2872 2139 2705 
Q 2878 2538 3153 2413 
Q 3553 2228 3743 1945 
Q 3934 1663 3934 1294 
Q 3934 928 3725 604 
Q 3516 281 3123 101 
Q 2731 -78 2241 -78 
Q 1619 -78 1198 103 
Q 778 284 539 648 
Q 300 1013 288 1472 
z
" transform="scale(0.015625)"/>
        <path id="ArialMT-70" d="M 422 -1272 
L 422 3319 
L 934 3319 
L 934 2888 
Q 1116 3141 1344 3267 
Q 1572 3394 1897 3394 
Q 2322 3394 2647 3175 
Q 2972 2956 3137 2557 
Q 3303 2159 3303 1684 
Q 3303 1175 3120 767 
Q 2938 359 2589 142 
Q 2241 -75 1856 -75 
Q 1575 -75 1351 44 
Q 1128 163 984 344 
L 984 -1272 
L 422 -1272 
z
M 931 1641 
Q 931 1000 1190 694 
Q 1450 388 1819 388 
Q 2194 388 2461 705 
Q 2728 1022 2728 1688 
Q 2728 2322 2467 2637 
Q 2206 2953 1844 2953 
Q 1484 2953 1207 2617 
Q 931 2281 931 1641 
z
" transform="scale(0.015625)"/>
        <path id="ArialMT-6c" d="M 409 0 
L 409 4581 
L 972 4581 
L 972 0 
L 409 0 
z
" transform="scale(0.015625)"/>
        <path id="ArialMT-69" d="M 425 3934 
L 425 4581 
L 988 4581 
L 988 3934 
L 425 3934 
z
M 425 0 
L 425 3319 
L 988 3319 
L 988 0 
L 425 0 
z
" transform="scale(0.015625)"/>
        <path id="ArialMT-74" d="M 1650 503 
L 1731 6 
Q 1494 -44 1306 -44 
Q 1000 -44 831 53 
Q 663 150 594 308 
Q 525 466 525 972 
L 525 2881 
L 113 2881 
L 113 3319 
L 525 3319 
L 525 4141 
L 1084 4478 
L 1084 3319 
L 1650 3319 
L 1650 2881 
L 1084 2881 
L 1084 941 
Q 1084 700 1114 631 
Q 1144 563 1211 522 
Q 1278 481 1403 481 
Q 1497 481 1650 503 
z
" transform="scale(0.015625)"/>
       </defs>
       <use xlink:href="#ArialMT-52"/>
       <use xlink:href="#ArialMT-61" transform="translate(72.216797 0)"/>
       <use xlink:href="#ArialMT-6e" transform="translate(127.832031 0)"/>
       <use xlink:href="#ArialMT-64" transform="translate(183.447266 0)"/>
       <use xlink:href="#ArialMT-6f" transform="translate(239.0625 0)"/>
       <use xlink:href="#ArialMT-6d" transform="translate(294.677734 0)"/>
       <use xlink:href="#ArialMT-53" transform="translate(377.978516 0)"/>
       <use xlink:href="#ArialMT-70" transform="translate(444.677734 0)"/>
       <use xlink:href="#ArialMT-6c" transform="translate(500.292969 0)"/>
       <use xlink:href="#ArialMT-69" transform="translate(522.509766 0)"/>
       <use xlink:href="#ArialMT-74" transform="translate(544.726562 0)"/>
      </g>
     </g>
    </g>
    <g id="xtick_2">
     <g id="text_2">
      <!-- ScaffoldSplit -->
      <g style="fill: #262626" transform="translate(218.393499 732.183383) rotate(-45) scale(0.176 -0.176)">
       <defs>
        <path id="ArialMT-63" d="M 2588 1216 
L 3141 1144 
Q 3050 572 2676 248 
Q 2303 -75 1759 -75 
Q 1078 -75 664 370 
Q 250 816 250 1647 
Q 250 2184 428 2587 
Q 606 2991 970 3192 
Q 1334 3394 1763 3394 
Q 2303 3394 2647 3120 
Q 2991 2847 3088 2344 
L 2541 2259 
Q 2463 2594 2264 2762 
Q 2066 2931 1784 2931 
Q 1359 2931 1093 2626 
Q 828 2322 828 1663 
Q 828 994 1084 691 
Q 1341 388 1753 388 
Q 2084 388 2306 591 
Q 2528 794 2588 1216 
z
" transform="scale(0.015625)"/>
        <path id="ArialMT-66" d="M 556 0 
L 556 2881 
L 59 2881 
L 59 3319 
L 556 3319 
L 556 3672 
Q 556 4006 616 4169 
Q 697 4388 901 4523 
Q 1106 4659 1475 4659 
Q 1713 4659 2000 4603 
L 1916 4113 
Q 1741 4144 1584 4144 
Q 1328 4144 1222 4034 
Q 1116 3925 1116 3625 
L 1116 3319 
L 1763 3319 
L 1763 2881 
L 1116 2881 
L 1116 0 
L 556 0 
z
" transform="scale(0.015625)"/>
       </defs>
       <use xlink:href="#ArialMT-53"/>
       <use xlink:href="#ArialMT-63" transform="translate(66.699219 0)"/>
       <use xlink:href="#ArialMT-61" transform="translate(116.699219 0)"/>
       <use xlink:href="#ArialMT-66" transform="translate(172.314453 0)"/>
       <use xlink:href="#ArialMT-66" transform="translate(198.347656 0)"/>
       <use xlink:href="#ArialMT-6f" transform="translate(226.130859 0)"/>
       <use xlink:href="#ArialMT-6c" transform="translate(281.746094 0)"/>
       <use xlink:href="#ArialMT-64" transform="translate(303.962891 0)"/>
       <use xlink:href="#ArialMT-53" transform="translate(359.578125 0)"/>
       <use xlink:href="#ArialMT-70" transform="translate(426.277344 0)"/>
       <use xlink:href="#ArialMT-6c" transform="translate(481.892578 0)"/>
       <use xlink:href="#ArialMT-69" transform="translate(504.109375 0)"/>
       <use xlink:href="#ArialMT-74" transform="translate(526.326172 0)"/>
      </g>
     </g>
    </g>
    <g id="xtick_3">
     <g id="text_3">
      <!-- SortedStepForward_LogD -->
      <g style="fill: #262626" transform="translate(275.041288 807.798908) rotate(-45) scale(0.176 -0.176)">
       <defs>
        <path id="ArialMT-72" d="M 416 0 
L 416 3319 
L 922 3319 
L 922 2816 
Q 1116 3169 1280 3281 
Q 1444 3394 1641 3394 
Q 1925 3394 2219 3213 
L 2025 2691 
Q 1819 2813 1613 2813 
Q 1428 2813 1281 2702 
Q 1134 2591 1072 2394 
Q 978 2094 978 1738 
L 978 0 
L 416 0 
z
" transform="scale(0.015625)"/>
        <path id="ArialMT-65" d="M 2694 1069 
L 3275 997 
Q 3138 488 2766 206 
Q 2394 -75 1816 -75 
Q 1088 -75 661 373 
Q 234 822 234 1631 
Q 234 2469 665 2931 
Q 1097 3394 1784 3394 
Q 2450 3394 2872 2941 
Q 3294 2488 3294 1666 
Q 3294 1616 3291 1516 
L 816 1516 
Q 847 969 1125 678 
Q 1403 388 1819 388 
Q 2128 388 2347 550 
Q 2566 713 2694 1069 
z
M 847 1978 
L 2700 1978 
Q 2663 2397 2488 2606 
Q 2219 2931 1791 2931 
Q 1403 2931 1139 2672 
Q 875 2413 847 1978 
z
" transform="scale(0.015625)"/>
        <path id="ArialMT-46" d="M 525 0 
L 525 4581 
L 3616 4581 
L 3616 4041 
L 1131 4041 
L 1131 2622 
L 3281 2622 
L 3281 2081 
L 1131 2081 
L 1131 0 
L 525 0 
z
" transform="scale(0.015625)"/>
        <path id="ArialMT-77" d="M 1034 0 
L 19 3319 
L 600 3319 
L 1128 1403 
L 1325 691 
Q 1338 744 1497 1375 
L 2025 3319 
L 2603 3319 
L 3100 1394 
L 3266 759 
L 3456 1400 
L 4025 3319 
L 4572 3319 
L 3534 0 
L 2950 0 
L 2422 1988 
L 2294 2553 
L 1622 0 
L 1034 0 
z
" transform="scale(0.015625)"/>
        <path id="ArialMT-5f" d="M -97 -1272 
L -97 -866 
L 3631 -866 
L 3631 -1272 
L -97 -1272 
z
" transform="scale(0.015625)"/>
        <path id="ArialMT-4c" d="M 469 0 
L 469 4581 
L 1075 4581 
L 1075 541 
L 3331 541 
L 3331 0 
L 469 0 
z
" transform="scale(0.015625)"/>
        <path id="ArialMT-67" d="M 319 -275 
L 866 -356 
Q 900 -609 1056 -725 
Q 1266 -881 1628 -881 
Q 2019 -881 2231 -725 
Q 2444 -569 2519 -288 
Q 2563 -116 2559 434 
Q 2191 0 1641 0 
Q 956 0 581 494 
Q 206 988 206 1678 
Q 206 2153 378 2554 
Q 550 2956 876 3175 
Q 1203 3394 1644 3394 
Q 2231 3394 2613 2919 
L 2613 3319 
L 3131 3319 
L 3131 450 
Q 3131 -325 2973 -648 
Q 2816 -972 2473 -1159 
Q 2131 -1347 1631 -1347 
Q 1038 -1347 672 -1080 
Q 306 -813 319 -275 
z
M 784 1719 
Q 784 1066 1043 766 
Q 1303 466 1694 466 
Q 2081 466 2343 764 
Q 2606 1063 2606 1700 
Q 2606 2309 2336 2618 
Q 2066 2928 1684 2928 
Q 1309 2928 1046 2623 
Q 784 2319 784 1719 
z
" transform="scale(0.015625)"/>
        <path id="ArialMT-44" d="M 494 0 
L 494 4581 
L 2072 4581 
Q 2606 4581 2888 4516 
Q 3281 4425 3559 4188 
Q 3922 3881 4101 3404 
Q 4281 2928 4281 2316 
Q 4281 1794 4159 1391 
Q 4038 988 3847 723 
Q 3656 459 3429 307 
Q 3203 156 2883 78 
Q 2563 0 2147 0 
L 494 0 
z
M 1100 541 
L 2078 541 
Q 2531 541 2789 625 
Q 3047 709 3200 863 
Q 3416 1078 3536 1442 
Q 3656 1806 3656 2325 
Q 3656 3044 3420 3430 
Q 3184 3816 2847 3947 
Q 2603 4041 2063 4041 
L 1100 4041 
L 1100 541 
z
" transform="scale(0.015625)"/>
       </defs>
       <use xlink:href="#ArialMT-53"/>
       <use xlink:href="#ArialMT-6f" transform="translate(66.699219 0)"/>
       <use xlink:href="#ArialMT-72" transform="translate(122.314453 0)"/>
       <use xlink:href="#ArialMT-74" transform="translate(155.615234 0)"/>
       <use xlink:href="#ArialMT-65" transform="translate(183.398438 0)"/>
       <use xlink:href="#ArialMT-64" transform="translate(239.013672 0)"/>
       <use xlink:href="#ArialMT-53" transform="translate(294.628906 0)"/>
       <use xlink:href="#ArialMT-74" transform="translate(361.328125 0)"/>
       <use xlink:href="#ArialMT-65" transform="translate(389.111328 0)"/>
       <use xlink:href="#ArialMT-70" transform="translate(444.726562 0)"/>
       <use xlink:href="#ArialMT-46" transform="translate(500.341797 0)"/>
       <use xlink:href="#ArialMT-6f" transform="translate(561.425781 0)"/>
       <use xlink:href="#ArialMT-72" transform="translate(617.041016 0)"/>
       <use xlink:href="#ArialMT-77" transform="translate(650.341797 0)"/>
       <use xlink:href="#ArialMT-61" transform="translate(722.558594 0)"/>
       <use xlink:href="#ArialMT-72" transform="translate(778.173828 0)"/>
       <use xlink:href="#ArialMT-64" transform="translate(811.474609 0)"/>
       <use xlink:href="#ArialMT-5f" transform="translate(867.089844 0)"/>
       <use xlink:href="#ArialMT-4c" transform="translate(922.705078 0)"/>
       <use xlink:href="#ArialMT-6f" transform="translate(978.320312 0)"/>
       <use xlink:href="#ArialMT-67" transform="translate(1033.935547 0)"/>
       <use xlink:href="#ArialMT-44" transform="translate(1089.550781 0)"/>
      </g>
     </g>
    </g>
    <g id="xtick_4">
     <g id="text_4">
      <!-- SortedStepForward_LogP -->
      <g style="fill: #262626" transform="translate(369.912972 807.112484) rotate(-45) scale(0.176 -0.176)">
       <defs>
        <path id="ArialMT-50" d="M 494 0 
L 494 4581 
L 2222 4581 
Q 2678 4581 2919 4538 
Q 3256 4481 3484 4323 
Q 3713 4166 3852 3881 
Q 3991 3597 3991 3256 
Q 3991 2672 3619 2267 
Q 3247 1863 2275 1863 
L 1100 1863 
L 1100 0 
L 494 0 
z
M 1100 2403 
L 2284 2403 
Q 2872 2403 3119 2622 
Q 3366 2841 3366 3238 
Q 3366 3525 3220 3729 
Q 3075 3934 2838 4000 
Q 2684 4041 2272 4041 
L 1100 4041 
L 1100 2403 
z
" transform="scale(0.015625)"/>
       </defs>
       <use xlink:href="#ArialMT-53"/>
       <use xlink:href="#ArialMT-6f" transform="translate(66.699219 0)"/>
       <use xlink:href="#ArialMT-72" transform="translate(122.314453 0)"/>
       <use xlink:href="#ArialMT-74" transform="translate(155.615234 0)"/>
       <use xlink:href="#ArialMT-65" transform="translate(183.398438 0)"/>
       <use xlink:href="#ArialMT-64" transform="translate(239.013672 0)"/>
       <use xlink:href="#ArialMT-53" transform="translate(294.628906 0)"/>
       <use xlink:href="#ArialMT-74" transform="translate(361.328125 0)"/>
       <use xlink:href="#ArialMT-65" transform="translate(389.111328 0)"/>
       <use xlink:href="#ArialMT-70" transform="translate(444.726562 0)"/>
       <use xlink:href="#ArialMT-46" transform="translate(500.341797 0)"/>
       <use xlink:href="#ArialMT-6f" transform="translate(561.425781 0)"/>
       <use xlink:href="#ArialMT-72" transform="translate(617.041016 0)"/>
       <use xlink:href="#ArialMT-77" transform="translate(650.341797 0)"/>
       <use xlink:href="#ArialMT-61" transform="translate(722.558594 0)"/>
       <use xlink:href="#ArialMT-72" transform="translate(778.173828 0)"/>
       <use xlink:href="#ArialMT-64" transform="translate(811.474609 0)"/>
       <use xlink:href="#ArialMT-5f" transform="translate(867.089844 0)"/>
       <use xlink:href="#ArialMT-4c" transform="translate(922.705078 0)"/>
       <use xlink:href="#ArialMT-6f" transform="translate(978.320312 0)"/>
       <use xlink:href="#ArialMT-67" transform="translate(1033.935547 0)"/>
       <use xlink:href="#ArialMT-50" transform="translate(1089.550781 0)"/>
      </g>
     </g>
    </g>
    <g id="xtick_5">
     <g id="text_5">
      <!-- SortedStepForward_MCE18 -->
      <g style="fill: #262626" transform="translate(458.297658 819.545896) rotate(-45) scale(0.176 -0.176)">
       <defs>
        <path id="ArialMT-4d" d="M 475 0 
L 475 4581 
L 1388 4581 
L 2472 1338 
Q 2622 884 2691 659 
Q 2769 909 2934 1394 
L 4031 4581 
L 4847 4581 
L 4847 0 
L 4263 0 
L 4263 3834 
L 2931 0 
L 2384 0 
L 1059 3900 
L 1059 0 
L 475 0 
z
" transform="scale(0.015625)"/>
        <path id="ArialMT-43" d="M 3763 1606 
L 4369 1453 
Q 4178 706 3683 314 
Q 3188 -78 2472 -78 
Q 1731 -78 1267 223 
Q 803 525 561 1097 
Q 319 1669 319 2325 
Q 319 3041 592 3573 
Q 866 4106 1370 4382 
Q 1875 4659 2481 4659 
Q 3169 4659 3637 4309 
Q 4106 3959 4291 3325 
L 3694 3184 
Q 3534 3684 3231 3912 
Q 2928 4141 2469 4141 
Q 1941 4141 1586 3887 
Q 1231 3634 1087 3207 
Q 944 2781 944 2328 
Q 944 1744 1114 1308 
Q 1284 872 1643 656 
Q 2003 441 2422 441 
Q 2931 441 3284 734 
Q 3638 1028 3763 1606 
z
" transform="scale(0.015625)"/>
        <path id="ArialMT-45" d="M 506 0 
L 506 4581 
L 3819 4581 
L 3819 4041 
L 1113 4041 
L 1113 2638 
L 3647 2638 
L 3647 2100 
L 1113 2100 
L 1113 541 
L 3925 541 
L 3925 0 
L 506 0 
z
" transform="scale(0.015625)"/>
        <path id="ArialMT-31" d="M 2384 0 
L 1822 0 
L 1822 3584 
Q 1619 3391 1289 3197 
Q 959 3003 697 2906 
L 697 3450 
Q 1169 3672 1522 3987 
Q 1875 4303 2022 4600 
L 2384 4600 
L 2384 0 
z
" transform="scale(0.015625)"/>
        <path id="ArialMT-38" d="M 1131 2484 
Q 781 2613 612 2850 
Q 444 3088 444 3419 
Q 444 3919 803 4259 
Q 1163 4600 1759 4600 
Q 2359 4600 2725 4251 
Q 3091 3903 3091 3403 
Q 3091 3084 2923 2848 
Q 2756 2613 2416 2484 
Q 2838 2347 3058 2040 
Q 3278 1734 3278 1309 
Q 3278 722 2862 322 
Q 2447 -78 1769 -78 
Q 1091 -78 675 323 
Q 259 725 259 1325 
Q 259 1772 486 2073 
Q 713 2375 1131 2484 
z
M 1019 3438 
Q 1019 3113 1228 2906 
Q 1438 2700 1772 2700 
Q 2097 2700 2305 2904 
Q 2513 3109 2513 3406 
Q 2513 3716 2298 3927 
Q 2084 4138 1766 4138 
Q 1444 4138 1231 3931 
Q 1019 3725 1019 3438 
z
M 838 1322 
Q 838 1081 952 856 
Q 1066 631 1291 507 
Q 1516 384 1775 384 
Q 2178 384 2440 643 
Q 2703 903 2703 1303 
Q 2703 1709 2433 1975 
Q 2163 2241 1756 2241 
Q 1359 2241 1098 1978 
Q 838 1716 838 1322 
z
" transform="scale(0.015625)"/>
       </defs>
       <use xlink:href="#ArialMT-53"/>
       <use xlink:href="#ArialMT-6f" transform="translate(66.699219 0)"/>
       <use xlink:href="#ArialMT-72" transform="translate(122.314453 0)"/>
       <use xlink:href="#ArialMT-74" transform="translate(155.615234 0)"/>
       <use xlink:href="#ArialMT-65" transform="translate(183.398438 0)"/>
       <use xlink:href="#ArialMT-64" transform="translate(239.013672 0)"/>
       <use xlink:href="#ArialMT-53" transform="translate(294.628906 0)"/>
       <use xlink:href="#ArialMT-74" transform="translate(361.328125 0)"/>
       <use xlink:href="#ArialMT-65" transform="translate(389.111328 0)"/>
       <use xlink:href="#ArialMT-70" transform="translate(444.726562 0)"/>
       <use xlink:href="#ArialMT-46" transform="translate(500.341797 0)"/>
       <use xlink:href="#ArialMT-6f" transform="translate(561.425781 0)"/>
       <use xlink:href="#ArialMT-72" transform="translate(617.041016 0)"/>
       <use xlink:href="#ArialMT-77" transform="translate(650.341797 0)"/>
       <use xlink:href="#ArialMT-61" transform="translate(722.558594 0)"/>
       <use xlink:href="#ArialMT-72" transform="translate(778.173828 0)"/>
       <use xlink:href="#ArialMT-64" transform="translate(811.474609 0)"/>
       <use xlink:href="#ArialMT-5f" transform="translate(867.089844 0)"/>
       <use xlink:href="#ArialMT-4d" transform="translate(922.705078 0)"/>
       <use xlink:href="#ArialMT-43" transform="translate(1006.005859 0)"/>
       <use xlink:href="#ArialMT-45" transform="translate(1078.222656 0)"/>
       <use xlink:href="#ArialMT-31" transform="translate(1144.921875 0)"/>
       <use xlink:href="#ArialMT-38" transform="translate(1200.537109 0)"/>
      </g>
     </g>
    </g>
    <g id="xtick_6">
     <g id="text_6">
      <!-- UnsortedStepForward -->
      <g style="fill: #262626" transform="translate(570.119929 784.958298) rotate(-45) scale(0.176 -0.176)">
       <defs>
        <path id="ArialMT-55" d="M 3500 4581 
L 4106 4581 
L 4106 1934 
Q 4106 1244 3950 837 
Q 3794 431 3386 176 
Q 2978 -78 2316 -78 
Q 1672 -78 1262 144 
Q 853 366 678 786 
Q 503 1206 503 1934 
L 503 4581 
L 1109 4581 
L 1109 1938 
Q 1109 1341 1220 1058 
Q 1331 775 1601 622 
Q 1872 469 2263 469 
Q 2931 469 3215 772 
Q 3500 1075 3500 1938 
L 3500 4581 
z
" transform="scale(0.015625)"/>
        <path id="ArialMT-73" d="M 197 991 
L 753 1078 
Q 800 744 1014 566 
Q 1228 388 1613 388 
Q 2000 388 2187 545 
Q 2375 703 2375 916 
Q 2375 1106 2209 1216 
Q 2094 1291 1634 1406 
Q 1016 1563 777 1677 
Q 538 1791 414 1992 
Q 291 2194 291 2438 
Q 291 2659 392 2848 
Q 494 3038 669 3163 
Q 800 3259 1026 3326 
Q 1253 3394 1513 3394 
Q 1903 3394 2198 3281 
Q 2494 3169 2634 2976 
Q 2775 2784 2828 2463 
L 2278 2388 
Q 2241 2644 2061 2787 
Q 1881 2931 1553 2931 
Q 1166 2931 1000 2803 
Q 834 2675 834 2503 
Q 834 2394 903 2306 
Q 972 2216 1119 2156 
Q 1203 2125 1616 2013 
Q 2213 1853 2448 1751 
Q 2684 1650 2818 1456 
Q 2953 1263 2953 975 
Q 2953 694 2789 445 
Q 2625 197 2315 61 
Q 2006 -75 1616 -75 
Q 969 -75 630 194 
Q 291 463 197 991 
z
" transform="scale(0.015625)"/>
       </defs>
       <use xlink:href="#ArialMT-55"/>
       <use xlink:href="#ArialMT-6e" transform="translate(72.216797 0)"/>
       <use xlink:href="#ArialMT-73" transform="translate(127.832031 0)"/>
       <use xlink:href="#ArialMT-6f" transform="translate(177.832031 0)"/>
       <use xlink:href="#ArialMT-72" transform="translate(233.447266 0)"/>
       <use xlink:href="#ArialMT-74" transform="translate(266.748047 0)"/>
       <use xlink:href="#ArialMT-65" transform="translate(294.53125 0)"/>
       <use xlink:href="#ArialMT-64" transform="translate(350.146484 0)"/>
       <use xlink:href="#ArialMT-53" transform="translate(405.761719 0)"/>
       <use xlink:href="#ArialMT-74" transform="translate(472.460938 0)"/>
       <use xlink:href="#ArialMT-65" transform="translate(500.244141 0)"/>
       <use xlink:href="#ArialMT-70" transform="translate(555.859375 0)"/>
       <use xlink:href="#ArialMT-46" transform="translate(611.474609 0)"/>
       <use xlink:href="#ArialMT-6f" transform="translate(672.558594 0)"/>
       <use xlink:href="#ArialMT-72" transform="translate(728.173828 0)"/>
       <use xlink:href="#ArialMT-77" transform="translate(761.474609 0)"/>
       <use xlink:href="#ArialMT-61" transform="translate(833.691406 0)"/>
       <use xlink:href="#ArialMT-72" transform="translate(889.306641 0)"/>
       <use xlink:href="#ArialMT-64" transform="translate(922.607422 0)"/>
      </g>
     </g>
    </g>
    <g id="text_7">
     <!-- split_type -->
     <g style="fill: #262626" transform="translate(350.817825 839.762355) scale(0.192 -0.192)">
      <defs>
       <path id="ArialMT-79" d="M 397 -1278 
L 334 -750 
Q 519 -800 656 -800 
Q 844 -800 956 -737 
Q 1069 -675 1141 -563 
Q 1194 -478 1313 -144 
Q 1328 -97 1363 -6 
L 103 3319 
L 709 3319 
L 1400 1397 
Q 1534 1031 1641 628 
Q 1738 1016 1872 1384 
L 2581 3319 
L 3144 3319 
L 1881 -56 
Q 1678 -603 1566 -809 
Q 1416 -1088 1222 -1217 
Q 1028 -1347 759 -1347 
Q 597 -1347 397 -1278 
z
" transform="scale(0.015625)"/>
      </defs>
      <use xlink:href="#ArialMT-73"/>
      <use xlink:href="#ArialMT-70" transform="translate(50 0)"/>
      <use xlink:href="#ArialMT-6c" transform="translate(105.615234 0)"/>
      <use xlink:href="#ArialMT-69" transform="translate(127.832031 0)"/>
      <use xlink:href="#ArialMT-74" transform="translate(150.048828 0)"/>
      <use xlink:href="#ArialMT-5f" transform="translate(177.832031 0)"/>
      <use xlink:href="#ArialMT-74" transform="translate(233.447266 0)"/>
      <use xlink:href="#ArialMT-79" transform="translate(261.230469 0)"/>
      <use xlink:href="#ArialMT-70" transform="translate(311.230469 0)"/>
      <use xlink:href="#ArialMT-65" transform="translate(366.845703 0)"/>
     </g>
    </g>
   </g>
   <g id="matplotlib.axis_2">
    <g id="ytick_1">
     <g id="line2d_1">
      <path d="M 89.826 602.266196 
L 692.917651 602.266196 
" clip-path="url(#p59f8f9397a)" style="fill: none; stroke: #cccccc; stroke-width: 0.8; stroke-linecap: round"/>
     </g>
     <g id="text_8">
      <!-- −200 -->
      <g style="fill: #262626" transform="translate(41.88475 608.565071) scale(0.176 -0.176)">
       <defs>
        <path id="ArialMT-2212" d="M 3381 1997 
L 356 1997 
L 356 2522 
L 3381 2522 
L 3381 1997 
z
" transform="scale(0.015625)"/>
        <path id="ArialMT-32" d="M 3222 541 
L 3222 0 
L 194 0 
Q 188 203 259 391 
Q 375 700 629 1000 
Q 884 1300 1366 1694 
Q 2113 2306 2375 2664 
Q 2638 3022 2638 3341 
Q 2638 3675 2398 3904 
Q 2159 4134 1775 4134 
Q 1369 4134 1125 3890 
Q 881 3647 878 3216 
L 300 3275 
Q 359 3922 746 4261 
Q 1134 4600 1788 4600 
Q 2447 4600 2831 4234 
Q 3216 3869 3216 3328 
Q 3216 3053 3103 2787 
Q 2991 2522 2730 2228 
Q 2469 1934 1863 1422 
Q 1356 997 1212 845 
Q 1069 694 975 541 
L 3222 541 
z
" transform="scale(0.015625)"/>
        <path id="ArialMT-30" d="M 266 2259 
Q 266 3072 433 3567 
Q 600 4063 929 4331 
Q 1259 4600 1759 4600 
Q 2128 4600 2406 4451 
Q 2684 4303 2865 4023 
Q 3047 3744 3150 3342 
Q 3253 2941 3253 2259 
Q 3253 1453 3087 958 
Q 2922 463 2592 192 
Q 2263 -78 1759 -78 
Q 1097 -78 719 397 
Q 266 969 266 2259 
z
M 844 2259 
Q 844 1131 1108 757 
Q 1372 384 1759 384 
Q 2147 384 2411 759 
Q 2675 1134 2675 2259 
Q 2675 3391 2411 3762 
Q 2147 4134 1753 4134 
Q 1366 4134 1134 3806 
Q 844 3388 844 2259 
z
" transform="scale(0.015625)"/>
       </defs>
       <use xlink:href="#ArialMT-2212"/>
       <use xlink:href="#ArialMT-32" transform="translate(58.398438 0)"/>
       <use xlink:href="#ArialMT-30" transform="translate(114.013672 0)"/>
       <use xlink:href="#ArialMT-30" transform="translate(169.628906 0)"/>
      </g>
     </g>
    </g>
    <g id="ytick_2">
     <g id="line2d_2">
      <path d="M 89.826 484.74144 
L 692.917651 484.74144 
" clip-path="url(#p59f8f9397a)" style="fill: none; stroke: #cccccc; stroke-width: 0.8; stroke-linecap: round"/>
     </g>
     <g id="text_9">
      <!-- −100 -->
      <g style="fill: #262626" transform="translate(41.88475 491.040315) scale(0.176 -0.176)">
       <use xlink:href="#ArialMT-2212"/>
       <use xlink:href="#ArialMT-31" transform="translate(58.398438 0)"/>
       <use xlink:href="#ArialMT-30" transform="translate(114.013672 0)"/>
       <use xlink:href="#ArialMT-30" transform="translate(169.628906 0)"/>
      </g>
     </g>
    </g>
    <g id="ytick_3">
     <g id="line2d_3">
      <path d="M 89.826 367.216685 
L 692.917651 367.216685 
" clip-path="url(#p59f8f9397a)" style="fill: none; stroke: #cccccc; stroke-width: 0.8; stroke-linecap: round"/>
     </g>
     <g id="text_10">
      <!-- 0 -->
      <g style="fill: #262626" transform="translate(71.73875 373.51556) scale(0.176 -0.176)">
       <use xlink:href="#ArialMT-30"/>
      </g>
     </g>
    </g>
    <g id="ytick_4">
     <g id="line2d_4">
      <path d="M 89.826 249.691929 
L 692.917651 249.691929 
" clip-path="url(#p59f8f9397a)" style="fill: none; stroke: #cccccc; stroke-width: 0.8; stroke-linecap: round"/>
     </g>
     <g id="text_11">
      <!-- 100 -->
      <g style="fill: #262626" transform="translate(52.16425 255.990804) scale(0.176 -0.176)">
       <use xlink:href="#ArialMT-31"/>
       <use xlink:href="#ArialMT-30" transform="translate(55.615234 0)"/>
       <use xlink:href="#ArialMT-30" transform="translate(111.230469 0)"/>
      </g>
     </g>
    </g>
    <g id="ytick_5">
     <g id="line2d_5">
      <path d="M 89.826 132.167173 
L 692.917651 132.167173 
" clip-path="url(#p59f8f9397a)" style="fill: none; stroke: #cccccc; stroke-width: 0.8; stroke-linecap: round"/>
     </g>
     <g id="text_12">
      <!-- 200 -->
      <g style="fill: #262626" transform="translate(52.16425 138.466048) scale(0.176 -0.176)">
       <use xlink:href="#ArialMT-32"/>
       <use xlink:href="#ArialMT-30" transform="translate(55.615234 0)"/>
       <use xlink:href="#ArialMT-30" transform="translate(111.230469 0)"/>
      </g>
     </g>
    </g>
    <g id="text_13">
     <!-- r2 -->
     <g style="fill: #262626" transform="translate(34.06875 354.376174) rotate(-90) scale(0.192 -0.192)">
      <use xlink:href="#ArialMT-72"/>
      <use xlink:href="#ArialMT-32" transform="translate(33.300781 0)"/>
     </g>
    </g>
   </g>
   <g id="FillBetweenPolyCollection_1">
    <defs>
     <path id="mca5c48c50c" d="M 155.052775 -480.737568 
L 155.048516 -480.737568 
L 155.035252 -480.91305 
L 155.046125 -481.088532 
L 155.050592 -481.264013 
L 155.050646 -481.439495 
L 155.050646 -481.614977 
L 155.050646 -481.790459 
L 155.050646 -481.965941 
L 155.050646 -482.141423 
L 155.050646 -482.316905 
L 155.050646 -482.492387 
L 155.050646 -482.667869 
L 155.050646 -482.843351 
L 155.050646 -483.018833 
L 155.050646 -483.194315 
L 155.050646 -483.369796 
L 155.050646 -483.545278 
L 155.050626 -483.72076 
L 155.047864 -483.896242 
L 155.034949 -484.071724 
L 155.047047 -484.247206 
L 155.050612 -484.422688 
L 155.050646 -484.59817 
L 155.050646 -484.773652 
L 155.050646 -484.949134 
L 155.050646 -485.124616 
L 155.050646 -485.300097 
L 155.050643 -485.475579 
L 155.049766 -485.651061 
L 155.037598 -485.826543 
L 155.042778 -486.002025 
L 155.050453 -486.177507 
L 155.050645 -486.352989 
L 155.050646 -486.528471 
L 155.050646 -486.703953 
L 155.050646 -486.879435 
L 155.050646 -487.054917 
L 155.050646 -487.230399 
L 155.050646 -487.40588 
L 155.050646 -487.581362 
L 155.050646 -487.756844 
L 155.050646 -487.932326 
L 155.050646 -488.107808 
L 155.050646 -488.28329 
L 155.050646 -488.458772 
L 155.050646 -488.634254 
L 155.050646 -488.809736 
L 155.050646 -488.985218 
L 155.050645 -489.1607 
L 155.050111 -489.336181 
L 155.03932 -489.511663 
L 155.040364 -489.687145 
L 155.038996 -489.862627 
L 155.040878 -490.038109 
L 155.050286 -490.213591 
L 155.048086 -490.389073 
L 155.035014 -490.564555 
L 155.046766 -490.740037 
L 155.050253 -490.915519 
L 155.037501 -491.091001 
L 155.023411 -491.266483 
L 155.047088 -491.441964 
L 155.038736 -491.617446 
L 155.007712 -491.792928 
L 155.039682 -491.96841 
L 155.050487 -492.143892 
L 155.048077 -492.319374 
L 155.022699 -492.494856 
L 155.035463 -492.670338 
L 155.023198 -492.84582 
L 155.021878 -493.021302 
L 155.021761 -493.196784 
L 155.006273 -493.372265 
L 154.995119 -493.547747 
L 155.034422 -493.723229 
L 155.035104 -493.898711 
L 155.048361 -494.074193 
L 155.042258 -494.249675 
L 155.030237 -494.425157 
L 155.026811 -494.600639 
L 155.003568 -494.776121 
L 155.0229 -494.951603 
L 154.986575 -495.127085 
L 154.989555 -495.302567 
L 154.954272 -495.478048 
L 154.938623 -495.65353 
L 154.91106 -495.829012 
L 154.867247 -496.004494 
L 154.656939 -496.179976 
L 154.490093 -496.355458 
L 154.150472 -496.53094 
L 153.402101 -496.706422 
L 151.524194 -496.881904 
L 147.549849 -497.057386 
L 139.657666 -497.232868 
L 125.147235 -497.408349 
L 117.239257 -497.583831 
L 136.363781 -497.759313 
L 153.08327 -497.934795 
L 155.022024 -498.110277 
L 155.079267 -498.110277 
L 155.079267 -498.110277 
L 157.018021 -497.934795 
L 173.73751 -497.759313 
L 192.862034 -497.583831 
L 184.954057 -497.408349 
L 170.443626 -497.232868 
L 162.551442 -497.057386 
L 158.577097 -496.881904 
L 156.69919 -496.706422 
L 155.950819 -496.53094 
L 155.611198 -496.355458 
L 155.444352 -496.179976 
L 155.234045 -496.004494 
L 155.190231 -495.829012 
L 155.162669 -495.65353 
L 155.147019 -495.478048 
L 155.111736 -495.302567 
L 155.114716 -495.127085 
L 155.078391 -494.951603 
L 155.097723 -494.776121 
L 155.07448 -494.600639 
L 155.071055 -494.425157 
L 155.059033 -494.249675 
L 155.05293 -494.074193 
L 155.066187 -493.898711 
L 155.066869 -493.723229 
L 155.106173 -493.547747 
L 155.095018 -493.372265 
L 155.07953 -493.196784 
L 155.079414 -493.021302 
L 155.078094 -492.84582 
L 155.065828 -492.670338 
L 155.078592 -492.494856 
L 155.053214 -492.319374 
L 155.050804 -492.143892 
L 155.061609 -491.96841 
L 155.093579 -491.792928 
L 155.062555 -491.617446 
L 155.054203 -491.441964 
L 155.07788 -491.266483 
L 155.06379 -491.091001 
L 155.051038 -490.915519 
L 155.054525 -490.740037 
L 155.066277 -490.564555 
L 155.053206 -490.389073 
L 155.051005 -490.213591 
L 155.060413 -490.038109 
L 155.062295 -489.862627 
L 155.060927 -489.687145 
L 155.061972 -489.511663 
L 155.05118 -489.336181 
L 155.050647 -489.1607 
L 155.050646 -488.985218 
L 155.050646 -488.809736 
L 155.050646 -488.634254 
L 155.050646 -488.458772 
L 155.050646 -488.28329 
L 155.050646 -488.107808 
L 155.050646 -487.932326 
L 155.050646 -487.756844 
L 155.050646 -487.581362 
L 155.050646 -487.40588 
L 155.050646 -487.230399 
L 155.050646 -487.054917 
L 155.050646 -486.879435 
L 155.050646 -486.703953 
L 155.050646 -486.528471 
L 155.050646 -486.352989 
L 155.050838 -486.177507 
L 155.058513 -486.002025 
L 155.063693 -485.826543 
L 155.051525 -485.651061 
L 155.050648 -485.475579 
L 155.050646 -485.300097 
L 155.050646 -485.124616 
L 155.050646 -484.949134 
L 155.050646 -484.773652 
L 155.050646 -484.59817 
L 155.050679 -484.422688 
L 155.054244 -484.247206 
L 155.066342 -484.071724 
L 155.053428 -483.896242 
L 155.050666 -483.72076 
L 155.050646 -483.545278 
L 155.050646 -483.369796 
L 155.050646 -483.194315 
L 155.050646 -483.018833 
L 155.050646 -482.843351 
L 155.050646 -482.667869 
L 155.050646 -482.492387 
L 155.050646 -482.316905 
L 155.050646 -482.141423 
L 155.050646 -481.965941 
L 155.050646 -481.790459 
L 155.050646 -481.614977 
L 155.050646 -481.439495 
L 155.0507 -481.264013 
L 155.055166 -481.088532 
L 155.066039 -480.91305 
L 155.052775 -480.737568 
z
" style="stroke: #494949"/>
    </defs>
    <g clip-path="url(#p59f8f9397a)">
     <use xlink:href="#mca5c48c50c" x="0" y="864" style="fill: #5875a4; stroke: #494949"/>
    </g>
   </g>
   <g id="FillBetweenPolyCollection_2">
    <defs>
     <path id="md9cc3799cd" d="M 249.580386 -231.530782 
L 249.577849 -231.530782 
L 249.575502 -234.237273 
L 249.579117 -236.943764 
L 249.579118 -239.650255 
L 249.579118 -242.356746 
L 249.579118 -245.063237 
L 249.579118 -247.769728 
L 249.579118 -250.476219 
L 249.579118 -253.18271 
L 249.579118 -255.889201 
L 249.579118 -258.595692 
L 249.579118 -261.302183 
L 249.579118 -264.008674 
L 249.579118 -266.715165 
L 249.579118 -269.421656 
L 249.579118 -272.128146 
L 249.579118 -274.834637 
L 249.579118 -277.541128 
L 249.579118 -280.247619 
L 249.579118 -282.95411 
L 249.579118 -285.660601 
L 249.579118 -288.367092 
L 249.579118 -291.073583 
L 249.579118 -293.780074 
L 249.579118 -296.486565 
L 249.579118 -299.193056 
L 249.579118 -301.899547 
L 249.579118 -304.606038 
L 249.579118 -307.312529 
L 249.579118 -310.01902 
L 249.579118 -312.72551 
L 249.579118 -315.432001 
L 249.579118 -318.138492 
L 249.579118 -320.844983 
L 249.579118 -323.551474 
L 249.579118 -326.257965 
L 249.579118 -328.964456 
L 249.579118 -331.670947 
L 249.579118 -334.377438 
L 249.579118 -337.083929 
L 249.579118 -339.79042 
L 249.579118 -342.496911 
L 249.579118 -345.203402 
L 249.579118 -347.909893 
L 249.579118 -350.616383 
L 249.579118 -353.322874 
L 249.579118 -356.029365 
L 249.579118 -358.735856 
L 249.578993 -361.442347 
L 249.57061 -364.148838 
L 249.579111 -366.855329 
L 249.579118 -369.56182 
L 249.579118 -372.268311 
L 249.579118 -374.974802 
L 249.579118 -377.681293 
L 249.579118 -380.387784 
L 249.579118 -383.094275 
L 249.579118 -385.800766 
L 249.579118 -388.507257 
L 249.579118 -391.213747 
L 249.579118 -393.920238 
L 249.579118 -396.626729 
L 249.579118 -399.33322 
L 249.579118 -402.039711 
L 249.579118 -404.746202 
L 249.579118 -407.452693 
L 249.579118 -410.159184 
L 249.579118 -412.865675 
L 249.579118 -415.572166 
L 249.579118 -418.278657 
L 249.579118 -420.985148 
L 249.579118 -423.691639 
L 249.579118 -426.39813 
L 249.579118 -429.104621 
L 249.579118 -431.811111 
L 249.579118 -434.517602 
L 249.579118 -437.224093 
L 249.579118 -439.930584 
L 249.579118 -442.637075 
L 249.579118 -445.343566 
L 249.579118 -448.050057 
L 249.578487 -450.756548 
L 249.573752 -453.463039 
L 249.571009 -456.16953 
L 249.570374 -458.876021 
L 249.573108 -461.582512 
L 249.574821 -464.289003 
L 249.573854 -466.995494 
L 249.578297 -469.701984 
L 249.571005 -472.408475 
L 249.571483 -475.114966 
L 249.524737 -477.821457 
L 249.52616 -480.527948 
L 249.53854 -483.234439 
L 249.567036 -485.94093 
L 249.469515 -488.647421 
L 249.143212 -491.353912 
L 247.766068 -494.060403 
L 211.767729 -496.766894 
L 248.398434 -499.473385 
L 250.759801 -499.473385 
L 250.759801 -499.473385 
L 287.390506 -496.766894 
L 251.392167 -494.060403 
L 250.015023 -491.353912 
L 249.68872 -488.647421 
L 249.591199 -485.94093 
L 249.619696 -483.234439 
L 249.632075 -480.527948 
L 249.633498 -477.821457 
L 249.586753 -475.114966 
L 249.58723 -472.408475 
L 249.579938 -469.701984 
L 249.584381 -466.995494 
L 249.583414 -464.289003 
L 249.585127 -461.582512 
L 249.587861 -458.876021 
L 249.587226 -456.16953 
L 249.584483 -453.463039 
L 249.579748 -450.756548 
L 249.579118 -448.050057 
L 249.579118 -445.343566 
L 249.579118 -442.637075 
L 249.579118 -439.930584 
L 249.579118 -437.224093 
L 249.579118 -434.517602 
L 249.579118 -431.811111 
L 249.579118 -429.104621 
L 249.579118 -426.39813 
L 249.579118 -423.691639 
L 249.579118 -420.985148 
L 249.579118 -418.278657 
L 249.579118 -415.572166 
L 249.579118 -412.865675 
L 249.579118 -410.159184 
L 249.579118 -407.452693 
L 249.579118 -404.746202 
L 249.579118 -402.039711 
L 249.579118 -399.33322 
L 249.579118 -396.626729 
L 249.579118 -393.920238 
L 249.579118 -391.213747 
L 249.579118 -388.507257 
L 249.579118 -385.800766 
L 249.579118 -383.094275 
L 249.579118 -380.387784 
L 249.579118 -377.681293 
L 249.579118 -374.974802 
L 249.579118 -372.268311 
L 249.579118 -369.56182 
L 249.579124 -366.855329 
L 249.587625 -364.148838 
L 249.579242 -361.442347 
L 249.579118 -358.735856 
L 249.579118 -356.029365 
L 249.579118 -353.322874 
L 249.579118 -350.616383 
L 249.579118 -347.909893 
L 249.579118 -345.203402 
L 249.579118 -342.496911 
L 249.579118 -339.79042 
L 249.579118 -337.083929 
L 249.579118 -334.377438 
L 249.579118 -331.670947 
L 249.579118 -328.964456 
L 249.579118 -326.257965 
L 249.579118 -323.551474 
L 249.579118 -320.844983 
L 249.579118 -318.138492 
L 249.579118 -315.432001 
L 249.579118 -312.72551 
L 249.579118 -310.01902 
L 249.579118 -307.312529 
L 249.579118 -304.606038 
L 249.579118 -301.899547 
L 249.579118 -299.193056 
L 249.579118 -296.486565 
L 249.579118 -293.780074 
L 249.579118 -291.073583 
L 249.579118 -288.367092 
L 249.579118 -285.660601 
L 249.579118 -282.95411 
L 249.579118 -280.247619 
L 249.579118 -277.541128 
L 249.579118 -274.834637 
L 249.579118 -272.128146 
L 249.579118 -269.421656 
L 249.579118 -266.715165 
L 249.579118 -264.008674 
L 249.579118 -261.302183 
L 249.579118 -258.595692 
L 249.579118 -255.889201 
L 249.579118 -253.18271 
L 249.579118 -250.476219 
L 249.579118 -247.769728 
L 249.579118 -245.063237 
L 249.579118 -242.356746 
L 249.579118 -239.650255 
L 249.579118 -236.943764 
L 249.582733 -234.237273 
L 249.580386 -231.530782 
z
" style="stroke: #494949"/>
    </defs>
    <g clip-path="url(#p59f8f9397a)">
     <use xlink:href="#md9cc3799cd" x="0" y="864" style="fill: #cc8963; stroke: #494949"/>
    </g>
   </g>
   <g id="FillBetweenPolyCollection_3">
    <defs>
     <path id="m2c1b36567e" d="M 344.109183 -445.669509 
L 344.105996 -445.669509 
L 344.09588 -446.202752 
L 344.105196 -446.735994 
L 344.107576 -447.269236 
L 344.107589 -447.802478 
L 344.107589 -448.335721 
L 344.107589 -448.868963 
L 344.107589 -449.402205 
L 344.107589 -449.935447 
L 344.107589 -450.46869 
L 344.107589 -451.001932 
L 344.107571 -451.535174 
L 344.104817 -452.068417 
L 344.096027 -452.601659 
L 344.106248 -453.134901 
L 344.107585 -453.668143 
L 344.107589 -454.201386 
L 344.107589 -454.734628 
L 344.107589 -455.26787 
L 344.107589 -455.801113 
L 344.107589 -456.334355 
L 344.107589 -456.867597 
L 344.107589 -457.400839 
L 344.107589 -457.934082 
L 344.107589 -458.467324 
L 344.107589 -459.000566 
L 344.107589 -459.533808 
L 344.107589 -460.067051 
L 344.107589 -460.600293 
L 344.107589 -461.133535 
L 344.107589 -461.666778 
L 344.107589 -462.20002 
L 344.107589 -462.733262 
L 344.107589 -463.266504 
L 344.107589 -463.799747 
L 344.107589 -464.332989 
L 344.107161 -464.866231 
L 344.098254 -465.399474 
L 344.101931 -465.932716 
L 344.107494 -466.465958 
L 344.107589 -466.9992 
L 344.107589 -467.532443 
L 344.107589 -468.065685 
L 344.107589 -468.598927 
L 344.107589 -469.13217 
L 344.107589 -469.665412 
L 344.107589 -470.198654 
L 344.107589 -470.731896 
L 344.107589 -471.265139 
L 344.107589 -471.798381 
L 344.107589 -472.331623 
L 344.107589 -472.864865 
L 344.107589 -473.398108 
L 344.107582 -473.93135 
L 344.105806 -474.464592 
L 344.095827 -474.997835 
L 344.105422 -475.531077 
L 344.105681 -476.064319 
L 344.095814 -476.597561 
L 344.105557 -477.130804 
L 344.10758 -477.664046 
L 344.107589 -478.197288 
L 344.107251 -478.730531 
L 344.098845 -479.263773 
L 344.101306 -479.797015 
L 344.107464 -480.330257 
L 344.107589 -480.8635 
L 344.107589 -481.396742 
L 344.107575 -481.929984 
L 344.104963 -482.463226 
L 344.086298 -482.996469 
L 344.086369 -483.529711 
L 344.105847 -484.062953 
L 344.10758 -484.596196 
L 344.106317 -485.129438 
L 344.095551 -485.66268 
L 344.09419 -486.195922 
L 344.088561 -486.729165 
L 344.050208 -487.262407 
L 344.049558 -487.795649 
L 344.054781 -488.328892 
L 344.013822 -488.862134 
L 344.009542 -489.395376 
L 343.998103 -489.928618 
L 343.977073 -490.461861 
L 343.97455 -490.995103 
L 343.94925 -491.528345 
L 343.872053 -492.061588 
L 343.868742 -492.59483 
L 343.91208 -493.128072 
L 343.802983 -493.661314 
L 343.581836 -494.194557 
L 343.301896 -494.727799 
L 342.981332 -495.261041 
L 341.75436 -495.794283 
L 337.239148 -496.327526 
L 321.311105 -496.860768 
L 306.296201 -497.39401 
L 333.990563 -497.927253 
L 343.908896 -498.460495 
L 344.306283 -498.460495 
L 344.306283 -498.460495 
L 354.224616 -497.927253 
L 381.918978 -497.39401 
L 366.904074 -496.860768 
L 350.97603 -496.327526 
L 346.460819 -495.794283 
L 345.233847 -495.261041 
L 344.913283 -494.727799 
L 344.633343 -494.194557 
L 344.412196 -493.661314 
L 344.303099 -493.128072 
L 344.346437 -492.59483 
L 344.343126 -492.061588 
L 344.265929 -491.528345 
L 344.240629 -490.995103 
L 344.238105 -490.461861 
L 344.217075 -489.928618 
L 344.205636 -489.395376 
L 344.201357 -488.862134 
L 344.160398 -488.328892 
L 344.16562 -487.795649 
L 344.164971 -487.262407 
L 344.126617 -486.729165 
L 344.120989 -486.195922 
L 344.119628 -485.66268 
L 344.108861 -485.129438 
L 344.107599 -484.596196 
L 344.109332 -484.062953 
L 344.12881 -483.529711 
L 344.128881 -482.996469 
L 344.110216 -482.463226 
L 344.107604 -481.929984 
L 344.107589 -481.396742 
L 344.10759 -480.8635 
L 344.107715 -480.330257 
L 344.113873 -479.797015 
L 344.116334 -479.263773 
L 344.107928 -478.730531 
L 344.10759 -478.197288 
L 344.107599 -477.664046 
L 344.109622 -477.130804 
L 344.119365 -476.597561 
L 344.109498 -476.064319 
L 344.109757 -475.531077 
L 344.119352 -474.997835 
L 344.109373 -474.464592 
L 344.107597 -473.93135 
L 344.107589 -473.398108 
L 344.107589 -472.864865 
L 344.107589 -472.331623 
L 344.107589 -471.798381 
L 344.107589 -471.265139 
L 344.107589 -470.731896 
L 344.107589 -470.198654 
L 344.107589 -469.665412 
L 344.107589 -469.13217 
L 344.107589 -468.598927 
L 344.107589 -468.065685 
L 344.107589 -467.532443 
L 344.107589 -466.9992 
L 344.107685 -466.465958 
L 344.113247 -465.932716 
L 344.116924 -465.399474 
L 344.108018 -464.866231 
L 344.10759 -464.332989 
L 344.107589 -463.799747 
L 344.107589 -463.266504 
L 344.107589 -462.733262 
L 344.107589 -462.20002 
L 344.107589 -461.666778 
L 344.107589 -461.133535 
L 344.107589 -460.600293 
L 344.107589 -460.067051 
L 344.107589 -459.533808 
L 344.107589 -459.000566 
L 344.107589 -458.467324 
L 344.107589 -457.934082 
L 344.107589 -457.400839 
L 344.107589 -456.867597 
L 344.107589 -456.334355 
L 344.107589 -455.801113 
L 344.107589 -455.26787 
L 344.107589 -454.734628 
L 344.107589 -454.201386 
L 344.107594 -453.668143 
L 344.108931 -453.134901 
L 344.119152 -452.601659 
L 344.110362 -452.068417 
L 344.107608 -451.535174 
L 344.107589 -451.001932 
L 344.107589 -450.46869 
L 344.107589 -449.935447 
L 344.107589 -449.402205 
L 344.107589 -448.868963 
L 344.107589 -448.335721 
L 344.107589 -447.802478 
L 344.107603 -447.269236 
L 344.109983 -446.735994 
L 344.119299 -446.202752 
L 344.109183 -445.669509 
z
" style="stroke: #494949"/>
    </defs>
    <g clip-path="url(#p59f8f9397a)">
     <use xlink:href="#m2c1b36567e" x="0" y="864" style="fill: #5f9e6e; stroke: #494949"/>
    </g>
   </g>
   <g id="FillBetweenPolyCollection_4">
    <defs>
     <path id="m7208bc6aa2" d="M 438.637875 -456.22141 
L 438.634248 -456.22141 
L 438.623645 -456.647779 
L 438.629684 -457.074147 
L 438.635816 -457.500515 
L 438.636061 -457.926884 
L 438.636061 -458.353252 
L 438.636061 -458.77962 
L 438.636061 -459.205989 
L 438.636061 -459.632357 
L 438.636061 -460.058725 
L 438.636061 -460.485093 
L 438.636014 -460.911462 
L 438.633183 -461.33783 
L 438.6228 -461.764198 
L 438.631478 -462.190567 
L 438.635943 -462.616935 
L 438.636061 -463.043303 
L 438.636061 -463.469672 
L 438.636061 -463.89604 
L 438.636061 -464.322408 
L 438.636061 -464.748776 
L 438.636061 -465.175145 
L 438.635949 -465.601513 
L 438.6316 -466.027881 
L 438.622767 -466.45425 
L 438.633089 -466.880618 
L 438.636011 -467.306986 
L 438.636061 -467.733355 
L 438.636061 -468.159723 
L 438.636061 -468.586091 
L 438.636061 -469.012459 
L 438.636061 -469.438828 
L 438.636061 -469.865196 
L 438.636061 -470.291564 
L 438.636061 -470.717933 
L 438.636061 -471.144301 
L 438.636061 -471.570669 
L 438.636061 -471.997038 
L 438.636061 -472.423406 
L 438.636061 -472.849774 
L 438.636061 -473.276142 
L 438.636061 -473.702511 
L 438.636061 -474.128879 
L 438.636061 -474.555247 
L 438.636061 -474.981616 
L 438.636061 -475.407984 
L 438.636061 -475.834352 
L 438.636061 -476.260721 
L 438.636061 -476.687089 
L 438.636061 -477.113457 
L 438.636061 -477.539825 
L 438.636061 -477.966194 
L 438.636061 -478.392562 
L 438.636061 -478.81893 
L 438.636061 -479.245299 
L 438.635903 -479.671667 
L 438.630332 -480.098035 
L 438.614369 -480.524404 
L 438.622817 -480.950772 
L 438.630514 -481.37714 
L 438.622776 -481.803508 
L 438.633067 -482.229877 
L 438.632187 -482.656245 
L 438.615899 -483.082613 
L 438.620091 -483.508982 
L 438.632652 -483.93535 
L 438.602436 -484.361718 
L 438.573122 -484.788087 
L 438.602751 -485.214455 
L 438.622224 -485.640823 
L 438.635321 -486.067191 
L 438.632254 -486.49356 
L 438.59347 -486.919928 
L 438.539554 -487.346296 
L 438.575167 -487.772665 
L 438.584229 -488.199033 
L 438.576533 -488.625401 
L 438.553775 -489.05177 
L 438.596527 -489.478138 
L 438.590618 -489.904506 
L 438.504849 -490.330874 
L 438.484842 -490.757243 
L 438.479551 -491.183611 
L 438.508454 -491.609979 
L 438.468791 -492.036348 
L 438.427296 -492.462716 
L 438.289658 -492.889084 
L 438.118402 -493.315453 
L 438.05452 -493.741821 
L 437.952124 -494.168189 
L 437.707804 -494.594557 
L 437.176988 -495.020926 
L 436.214529 -495.447294 
L 434.296799 -495.873662 
L 429.952028 -496.300031 
L 418.783466 -496.726399 
L 400.824673 -497.152767 
L 409.792039 -497.579136 
L 433.706092 -498.005504 
L 438.499275 -498.431872 
L 438.772848 -498.431872 
L 438.772848 -498.431872 
L 443.566031 -498.005504 
L 467.480084 -497.579136 
L 476.44745 -497.152767 
L 458.488656 -496.726399 
L 447.320095 -496.300031 
L 442.975324 -495.873662 
L 441.057594 -495.447294 
L 440.095135 -495.020926 
L 439.564319 -494.594557 
L 439.319998 -494.168189 
L 439.217603 -493.741821 
L 439.153721 -493.315453 
L 438.982464 -492.889084 
L 438.844827 -492.462716 
L 438.803331 -492.036348 
L 438.763669 -491.609979 
L 438.792571 -491.183611 
L 438.787281 -490.757243 
L 438.767274 -490.330874 
L 438.681504 -489.904506 
L 438.675595 -489.478138 
L 438.718348 -489.05177 
L 438.69559 -488.625401 
L 438.687894 -488.199033 
L 438.696956 -487.772665 
L 438.732569 -487.346296 
L 438.678652 -486.919928 
L 438.639869 -486.49356 
L 438.636802 -486.067191 
L 438.649899 -485.640823 
L 438.669372 -485.214455 
L 438.699001 -484.788087 
L 438.669686 -484.361718 
L 438.639471 -483.93535 
L 438.652032 -483.508982 
L 438.656224 -483.082613 
L 438.639936 -482.656245 
L 438.639056 -482.229877 
L 438.649346 -481.803508 
L 438.641609 -481.37714 
L 438.649306 -480.950772 
L 438.657754 -480.524404 
L 438.641791 -480.098035 
L 438.63622 -479.671667 
L 438.636062 -479.245299 
L 438.636061 -478.81893 
L 438.636061 -478.392562 
L 438.636061 -477.966194 
L 438.636061 -477.539825 
L 438.636061 -477.113457 
L 438.636061 -476.687089 
L 438.636061 -476.260721 
L 438.636061 -475.834352 
L 438.636061 -475.407984 
L 438.636061 -474.981616 
L 438.636061 -474.555247 
L 438.636061 -474.128879 
L 438.636061 -473.702511 
L 438.636061 -473.276142 
L 438.636061 -472.849774 
L 438.636061 -472.423406 
L 438.636061 -471.997038 
L 438.636061 -471.570669 
L 438.636061 -471.144301 
L 438.636061 -470.717933 
L 438.636061 -470.291564 
L 438.636061 -469.865196 
L 438.636061 -469.438828 
L 438.636061 -469.012459 
L 438.636061 -468.586091 
L 438.636061 -468.159723 
L 438.636061 -467.733355 
L 438.636111 -467.306986 
L 438.639033 -466.880618 
L 438.649356 -466.45425 
L 438.640523 -466.027881 
L 438.636174 -465.601513 
L 438.636062 -465.175145 
L 438.636061 -464.748776 
L 438.636061 -464.322408 
L 438.636061 -463.89604 
L 438.636061 -463.469672 
L 438.636062 -463.043303 
L 438.63618 -462.616935 
L 438.640645 -462.190567 
L 438.649323 -461.764198 
L 438.63894 -461.33783 
L 438.636108 -460.911462 
L 438.636061 -460.485093 
L 438.636061 -460.058725 
L 438.636061 -459.632357 
L 438.636061 -459.205989 
L 438.636061 -458.77962 
L 438.636061 -458.353252 
L 438.636062 -457.926884 
L 438.636307 -457.500515 
L 438.642438 -457.074147 
L 438.648478 -456.647779 
L 438.637875 -456.22141 
z
" style="stroke: #494949"/>
    </defs>
    <g clip-path="url(#p59f8f9397a)">
     <use xlink:href="#m7208bc6aa2" x="0" y="864" style="fill: #b55d60; stroke: #494949"/>
    </g>
   </g>
   <g id="FillBetweenPolyCollection_5">
    <defs>
     <path id="m556d5e556c" d="M 533.166094 -411.009825 
L 533.162972 -411.009825 
L 533.153807 -411.898745 
L 533.15917 -412.787665 
L 533.164338 -413.676586 
L 533.164533 -414.565506 
L 533.164533 -415.454426 
L 533.164533 -416.343347 
L 533.164533 -417.232267 
L 533.164533 -418.121187 
L 533.164533 -419.010108 
L 533.164533 -419.899028 
L 533.164533 -420.787948 
L 533.164533 -421.676868 
L 533.164533 -422.565789 
L 533.164533 -423.454709 
L 533.164533 -424.343629 
L 533.164533 -425.23255 
L 533.164533 -426.12147 
L 533.164533 -427.01039 
L 533.164533 -427.89931 
L 533.164533 -428.788231 
L 533.164533 -429.677151 
L 533.164533 -430.566071 
L 533.164533 -431.454992 
L 533.164533 -432.343912 
L 533.164533 -433.232832 
L 533.164533 -434.121752 
L 533.164533 -435.010673 
L 533.164533 -435.899593 
L 533.164533 -436.788513 
L 533.164533 -437.677434 
L 533.164533 -438.566354 
L 533.164371 -439.455274 
L 533.159584 -440.344194 
L 533.153567 -441.233115 
L 533.162765 -442.122035 
L 533.164513 -443.010955 
L 533.164533 -443.899876 
L 533.164446 -444.788796 
L 533.160819 -445.677716 
L 533.153073 -446.566637 
L 533.16196 -447.455557 
L 533.164491 -448.344477 
L 533.164529 -449.233397 
L 533.163845 -450.122318 
L 533.155866 -451.011238 
L 533.156584 -451.900158 
L 533.164003 -452.789079 
L 533.164531 -453.677999 
L 533.16451 -454.566919 
L 533.162671 -455.455839 
L 533.153477 -456.34476 
L 533.159756 -457.23368 
L 533.164383 -458.1226 
L 533.164533 -459.011521 
L 533.164388 -459.900441 
L 533.159602 -460.789361 
L 533.147658 -461.678281 
L 533.152171 -462.567202 
L 533.163128 -463.456122 
L 533.163781 -464.345042 
L 533.155666 -465.233963 
L 533.155981 -466.122883 
L 533.148069 -467.011803 
L 533.130187 -467.900723 
L 533.120095 -468.789644 
L 533.123604 -469.678564 
L 533.139328 -470.567484 
L 533.150005 -471.456405 
L 533.160516 -472.345325 
L 533.153506 -473.234245 
L 533.1543 -474.123166 
L 533.142545 -475.012086 
L 533.109302 -475.901006 
L 533.093136 -476.789926 
L 533.117882 -477.678847 
L 533.107129 -478.567767 
L 533.125059 -479.456687 
L 533.103452 -480.345608 
L 533.106255 -481.234528 
L 533.102083 -482.123448 
L 533.05015 -483.012368 
L 533.013904 -483.901289 
L 532.974719 -484.790209 
L 532.987829 -485.679129 
L 532.949057 -486.56805 
L 532.919601 -487.45697 
L 532.917021 -488.34589 
L 532.889333 -489.23481 
L 532.839865 -490.123731 
L 532.66851 -491.012651 
L 532.394941 -491.901571 
L 532.18391 -492.790492 
L 531.785832 -493.679412 
L 530.034516 -494.568332 
L 523.188727 -495.457252 
L 502.963039 -496.346173 
L 495.353144 -497.235093 
L 524.026383 -498.124013 
L 532.869907 -499.012934 
L 533.459159 -499.012934 
L 533.459159 -499.012934 
L 542.302684 -498.124013 
L 570.975922 -497.235093 
L 563.366027 -496.346173 
L 543.140339 -495.457252 
L 536.294551 -494.568332 
L 534.543235 -493.679412 
L 534.145157 -492.790492 
L 533.934126 -491.901571 
L 533.660557 -491.012651 
L 533.489202 -490.123731 
L 533.439733 -489.23481 
L 533.412046 -488.34589 
L 533.409465 -487.45697 
L 533.380009 -486.56805 
L 533.341238 -485.679129 
L 533.354348 -484.790209 
L 533.315162 -483.901289 
L 533.278917 -483.012368 
L 533.226983 -482.123448 
L 533.222811 -481.234528 
L 533.225614 -480.345608 
L 533.204007 -479.456687 
L 533.221937 -478.567767 
L 533.211185 -477.678847 
L 533.235931 -476.789926 
L 533.219765 -475.901006 
L 533.186522 -475.012086 
L 533.174766 -474.123166 
L 533.175561 -473.234245 
L 533.16855 -472.345325 
L 533.179062 -471.456405 
L 533.189739 -470.567484 
L 533.205462 -469.678564 
L 533.208971 -468.789644 
L 533.198879 -467.900723 
L 533.180997 -467.011803 
L 533.173086 -466.122883 
L 533.1734 -465.233963 
L 533.165285 -464.345042 
L 533.165938 -463.456122 
L 533.176896 -462.567202 
L 533.181408 -461.678281 
L 533.169464 -460.789361 
L 533.164679 -459.900441 
L 533.164534 -459.011521 
L 533.164683 -458.1226 
L 533.16931 -457.23368 
L 533.17559 -456.34476 
L 533.166396 -455.455839 
L 533.164556 -454.566919 
L 533.164536 -453.677999 
L 533.165064 -452.789079 
L 533.172483 -451.900158 
L 533.173201 -451.011238 
L 533.165221 -450.122318 
L 533.164537 -449.233397 
L 533.164575 -448.344477 
L 533.167107 -447.455557 
L 533.175994 -446.566637 
L 533.168248 -445.677716 
L 533.164621 -444.788796 
L 533.164533 -443.899876 
L 533.164554 -443.010955 
L 533.166301 -442.122035 
L 533.175499 -441.233115 
L 533.169483 -440.344194 
L 533.164696 -439.455274 
L 533.164534 -438.566354 
L 533.164533 -437.677434 
L 533.164533 -436.788513 
L 533.164533 -435.899593 
L 533.164533 -435.010673 
L 533.164533 -434.121752 
L 533.164533 -433.232832 
L 533.164533 -432.343912 
L 533.164533 -431.454992 
L 533.164533 -430.566071 
L 533.164533 -429.677151 
L 533.164533 -428.788231 
L 533.164533 -427.89931 
L 533.164533 -427.01039 
L 533.164533 -426.12147 
L 533.164533 -425.23255 
L 533.164533 -424.343629 
L 533.164533 -423.454709 
L 533.164533 -422.565789 
L 533.164533 -421.676868 
L 533.164533 -420.787948 
L 533.164533 -419.899028 
L 533.164533 -419.010108 
L 533.164533 -418.121187 
L 533.164533 -417.232267 
L 533.164533 -416.343347 
L 533.164533 -415.454426 
L 533.164534 -414.565506 
L 533.164728 -413.676586 
L 533.169897 -412.787665 
L 533.175259 -411.898745 
L 533.166094 -411.009825 
z
" style="stroke: #494949"/>
    </defs>
    <g clip-path="url(#p59f8f9397a)">
     <use xlink:href="#m556d5e556c" x="0" y="864" style="fill: #857aab; stroke: #494949"/>
    </g>
   </g>
   <g id="FillBetweenPolyCollection_6">
    <defs>
     <path id="m88c6327953" d="M 627.694744 -474.084659 
L 627.691267 -474.084659 
L 627.682561 -474.32822 
L 627.683044 -474.571781 
L 627.691497 -474.815342 
L 627.692969 -475.058903 
L 627.693005 -475.302464 
L 627.693005 -475.546025 
L 627.693005 -475.789586 
L 627.693005 -476.033147 
L 627.693005 -476.276708 
L 627.692999 -476.520269 
L 627.692502 -476.76383 
L 627.68667 -477.007391 
L 627.680338 -477.250952 
L 627.688985 -477.494513 
L 627.692803 -477.738074 
L 627.693004 -477.981634 
L 627.693005 -478.225195 
L 627.693005 -478.468756 
L 627.693005 -478.712317 
L 627.693005 -478.955878 
L 627.693005 -479.199439 
L 627.693005 -479.443 
L 627.693005 -479.686561 
L 627.693005 -479.930122 
L 627.693005 -480.173683 
L 627.693005 -480.417244 
L 627.693005 -480.660805 
L 627.693005 -480.904366 
L 627.693005 -481.147927 
L 627.693005 -481.391488 
L 627.693005 -481.635049 
L 627.693005 -481.87861 
L 627.693005 -482.122171 
L 627.693005 -482.365732 
L 627.693005 -482.609293 
L 627.692992 -482.852854 
L 627.692216 -483.096415 
L 627.685256 -483.339976 
L 627.680928 -483.583537 
L 627.690017 -483.827098 
L 627.692876 -484.070659 
L 627.692254 -484.314219 
L 627.685421 -484.55778 
L 627.68084 -484.801341 
L 627.689907 -485.044902 
L 627.69288 -485.288463 
L 627.693004 -485.532024 
L 627.692976 -485.775585 
L 627.691687 -486.019146 
L 627.683509 -486.262707 
L 627.682139 -486.506268 
L 627.690659 -486.749829 
L 627.687451 -486.99339 
L 627.680146 -487.236951 
L 627.686669 -487.480512 
L 627.678205 -487.724073 
L 627.662638 -487.967634 
L 627.661875 -488.211195 
L 627.659653 -488.454756 
L 627.653676 -488.698317 
L 627.645701 -488.941878 
L 627.6439 -489.185439 
L 627.665776 -489.429 
L 627.666269 -489.672561 
L 627.669272 -489.916122 
L 627.666086 -490.159683 
L 627.651226 -490.403244 
L 627.608496 -490.646804 
L 627.616457 -490.890365 
L 627.621443 -491.133926 
L 627.59164 -491.377487 
L 627.562573 -491.621048 
L 627.579238 -491.864609 
L 627.603502 -492.10817 
L 627.599173 -492.351731 
L 627.560564 -492.595292 
L 627.536352 -492.838853 
L 627.545051 -493.082414 
L 627.532026 -493.325975 
L 627.558053 -493.569536 
L 627.539067 -493.813097 
L 627.500182 -494.056658 
L 627.411553 -494.300219 
L 627.32489 -494.54378 
L 627.289379 -494.787341 
L 627.276572 -495.030902 
L 627.181087 -495.274463 
L 627.109213 -495.518024 
L 627.118262 -495.761585 
L 626.811794 -496.005146 
L 626.24274 -496.248707 
L 624.701048 -496.492268 
L 620.48363 -496.735829 
L 612.013091 -496.979389 
L 598.467462 -497.22295 
L 589.881616 -497.466511 
L 604.576175 -497.710072 
L 623.007052 -497.953633 
L 627.451352 -498.197194 
L 627.934659 -498.197194 
L 627.934659 -498.197194 
L 632.378958 -497.953633 
L 650.809835 -497.710072 
L 665.504394 -497.466511 
L 656.918548 -497.22295 
L 643.37292 -496.979389 
L 634.902381 -496.735829 
L 630.684962 -496.492268 
L 629.14327 -496.248707 
L 628.574216 -496.005146 
L 628.267748 -495.761585 
L 628.276797 -495.518024 
L 628.204923 -495.274463 
L 628.109439 -495.030902 
L 628.096631 -494.787341 
L 628.06112 -494.54378 
L 627.974457 -494.300219 
L 627.885828 -494.056658 
L 627.846943 -493.813097 
L 627.827958 -493.569536 
L 627.853984 -493.325975 
L 627.84096 -493.082414 
L 627.849659 -492.838853 
L 627.825446 -492.595292 
L 627.786838 -492.351731 
L 627.782508 -492.10817 
L 627.806773 -491.864609 
L 627.823438 -491.621048 
L 627.794371 -491.377487 
L 627.764567 -491.133926 
L 627.769553 -490.890365 
L 627.777514 -490.646804 
L 627.734784 -490.403244 
L 627.719925 -490.159683 
L 627.716738 -489.916122 
L 627.719742 -489.672561 
L 627.720235 -489.429 
L 627.742111 -489.185439 
L 627.740309 -488.941878 
L 627.732334 -488.698317 
L 627.726358 -488.454756 
L 627.724135 -488.211195 
L 627.723373 -487.967634 
L 627.707806 -487.724073 
L 627.699342 -487.480512 
L 627.705864 -487.236951 
L 627.69856 -486.99339 
L 627.695352 -486.749829 
L 627.703871 -486.506268 
L 627.702501 -486.262707 
L 627.694323 -486.019146 
L 627.693034 -485.775585 
L 627.693006 -485.532024 
L 627.69313 -485.288463 
L 627.696103 -485.044902 
L 627.70517 -484.801341 
L 627.700589 -484.55778 
L 627.693756 -484.314219 
L 627.693134 -484.070659 
L 627.695993 -483.827098 
L 627.705083 -483.583537 
L 627.700755 -483.339976 
L 627.693795 -483.096415 
L 627.693018 -482.852854 
L 627.693005 -482.609293 
L 627.693005 -482.365732 
L 627.693005 -482.122171 
L 627.693005 -481.87861 
L 627.693005 -481.635049 
L 627.693005 -481.391488 
L 627.693005 -481.147927 
L 627.693005 -480.904366 
L 627.693005 -480.660805 
L 627.693005 -480.417244 
L 627.693005 -480.173683 
L 627.693005 -479.930122 
L 627.693005 -479.686561 
L 627.693005 -479.443 
L 627.693005 -479.199439 
L 627.693005 -478.955878 
L 627.693005 -478.712317 
L 627.693005 -478.468756 
L 627.693005 -478.225195 
L 627.693007 -477.981634 
L 627.693208 -477.738074 
L 627.697026 -477.494513 
L 627.705672 -477.250952 
L 627.699341 -477.007391 
L 627.693508 -476.76383 
L 627.693012 -476.520269 
L 627.693005 -476.276708 
L 627.693005 -476.033147 
L 627.693005 -475.789586 
L 627.693005 -475.546025 
L 627.693005 -475.302464 
L 627.693041 -475.058903 
L 627.694513 -474.815342 
L 627.702966 -474.571781 
L 627.703449 -474.32822 
L 627.694744 -474.084659 
z
" style="stroke: #494949"/>
    </defs>
    <g clip-path="url(#p59f8f9397a)">
     <use xlink:href="#m88c6327953" x="0" y="864" style="fill: #8d7866; stroke: #494949"/>
    </g>
   </g>
   <g id="line2d_6">
    <path d="M 155.050646 367.109471 
L 155.050646 366.085819 
" clip-path="url(#p59f8f9397a)" style="fill: none; stroke: #494949; stroke-width: 1.5; stroke-linecap: round"/>
   </g>
   <g id="line2d_7">
    <path d="M 155.050646 366.672049 
L 155.050646 366.379268 
" clip-path="url(#p59f8f9397a)" style="fill: none; stroke: #494949; stroke-width: 4.5; stroke-linecap: round"/>
   </g>
   <g id="line2d_8">
    <path d="M 155.050646 366.504574 
" clip-path="url(#p59f8f9397a)" style="fill: none; stroke: #494949; stroke-width: 1.2; stroke-linecap: round"/>
    <defs>
     <path id="mf48a5a2787" d="M 1.875 0 
L -1.875 -0 
" style="stroke: #ffffff; stroke-width: 0.9"/>
    </defs>
    <g clip-path="url(#p59f8f9397a)">
     <use xlink:href="#mf48a5a2787" x="155.050646" y="366.504574" style="fill: #ffffff; stroke: #ffffff; stroke-width: 0.9"/>
    </g>
   </g>
   <g id="line2d_9">
    <path d="M 249.579118 368.359908 
L 249.579118 366.127989 
" clip-path="url(#p59f8f9397a)" style="fill: none; stroke: #494949; stroke-width: 1.5; stroke-linecap: round"/>
   </g>
   <g id="line2d_10">
    <path d="M 249.579118 367.297417 
L 249.579118 366.587275 
" clip-path="url(#p59f8f9397a)" style="fill: none; stroke: #494949; stroke-width: 4.5; stroke-linecap: round"/>
   </g>
   <g id="line2d_11">
    <path d="M 249.579118 366.840145 
" clip-path="url(#p59f8f9397a)" style="fill: none; stroke: #494949; stroke-width: 1.2; stroke-linecap: round"/>
    <g clip-path="url(#p59f8f9397a)">
     <use xlink:href="#mf48a5a2787" x="249.579118" y="366.840145" style="fill: #ffffff; stroke: #ffffff; stroke-width: 0.9"/>
    </g>
   </g>
   <g id="line2d_12">
    <path d="M 344.107589 367.953551 
L 344.107589 366.103013 
" clip-path="url(#p59f8f9397a)" style="fill: none; stroke: #494949; stroke-width: 1.5; stroke-linecap: round"/>
   </g>
   <g id="line2d_13">
    <path d="M 344.107589 367.107221 
L 344.107589 366.53973 
" clip-path="url(#p59f8f9397a)" style="fill: none; stroke: #494949; stroke-width: 4.5; stroke-linecap: round"/>
   </g>
   <g id="line2d_14">
    <path d="M 344.107589 366.758745 
" clip-path="url(#p59f8f9397a)" style="fill: none; stroke: #494949; stroke-width: 1.2; stroke-linecap: round"/>
    <g clip-path="url(#p59f8f9397a)">
     <use xlink:href="#mf48a5a2787" x="344.107589" y="366.758745" style="fill: #ffffff; stroke: #ffffff; stroke-width: 0.9"/>
    </g>
   </g>
   <g id="line2d_15">
    <path d="M 438.636061 368.191825 
L 438.636061 366.097991 
" clip-path="url(#p59f8f9397a)" style="fill: none; stroke: #494949; stroke-width: 1.5; stroke-linecap: round"/>
   </g>
   <g id="line2d_16">
    <path d="M 438.636061 367.237151 
L 438.636061 366.599798 
" clip-path="url(#p59f8f9397a)" style="fill: none; stroke: #494949; stroke-width: 4.5; stroke-linecap: round"/>
   </g>
   <g id="line2d_17">
    <path d="M 438.636061 366.83084 
" clip-path="url(#p59f8f9397a)" style="fill: none; stroke: #494949; stroke-width: 1.2; stroke-linecap: round"/>
    <g clip-path="url(#p59f8f9397a)">
     <use xlink:href="#mf48a5a2787" x="438.636061" y="366.83084" style="fill: #ffffff; stroke: #ffffff; stroke-width: 0.9"/>
    </g>
   </g>
   <g id="line2d_18">
    <path d="M 533.164533 369.057864 
L 533.164533 366.085335 
" clip-path="url(#p59f8f9397a)" style="fill: none; stroke: #494949; stroke-width: 1.5; stroke-linecap: round"/>
   </g>
   <g id="line2d_19">
    <path d="M 533.164533 367.716199 
L 533.164533 366.815671 
" clip-path="url(#p59f8f9397a)" style="fill: none; stroke: #494949; stroke-width: 4.5; stroke-linecap: round"/>
   </g>
   <g id="line2d_20">
    <path d="M 533.164533 367.157624 
" clip-path="url(#p59f8f9397a)" style="fill: none; stroke: #494949; stroke-width: 1.2; stroke-linecap: round"/>
    <g clip-path="url(#p59f8f9397a)">
     <use xlink:href="#mf48a5a2787" x="533.164533" y="367.157624" style="fill: #ffffff; stroke: #ffffff; stroke-width: 0.9"/>
    </g>
   </g>
   <g id="line2d_21">
    <path d="M 627.693005 367.505376 
L 627.693005 366.16188 
" clip-path="url(#p59f8f9397a)" style="fill: none; stroke: #494949; stroke-width: 1.5; stroke-linecap: round"/>
   </g>
   <g id="line2d_22">
    <path d="M 627.693005 366.877722 
L 627.693005 366.459001 
" clip-path="url(#p59f8f9397a)" style="fill: none; stroke: #494949; stroke-width: 4.5; stroke-linecap: round"/>
   </g>
   <g id="line2d_23">
    <path d="M 627.693005 366.623668 
" clip-path="url(#p59f8f9397a)" style="fill: none; stroke: #494949; stroke-width: 1.2; stroke-linecap: round"/>
    <g clip-path="url(#p59f8f9397a)">
     <use xlink:href="#mf48a5a2787" x="627.693005" y="366.623668" style="fill: #ffffff; stroke: #ffffff; stroke-width: 0.9"/>
    </g>
   </g>
   <g id="line2d_24">
    <path d="M 155.050646 347.989687 
L 155.050646 342.094949 
L 249.579118 342.094949 
L 249.579118 347.989687 
" style="fill: none; stroke: #333333; stroke-width: 1.5; stroke-linecap: round"/>
   </g>
   <g id="line2d_25">
    <path d="M 249.579118 325.89789 
L 249.579118 320.003153 
L 344.107589 320.003153 
L 344.107589 325.89789 
" style="fill: none; stroke: #333333; stroke-width: 1.5; stroke-linecap: round"/>
   </g>
   <g id="line2d_26">
    <path d="M 344.107589 303.806093 
L 344.107589 297.911356 
L 438.636061 297.911356 
L 438.636061 303.806093 
" style="fill: none; stroke: #333333; stroke-width: 1.5; stroke-linecap: round"/>
   </g>
   <g id="line2d_27">
    <path d="M 438.636061 281.714297 
L 438.636061 275.819559 
L 533.164533 275.819559 
L 533.164533 281.714297 
" style="fill: none; stroke: #333333; stroke-width: 1.5; stroke-linecap: round"/>
   </g>
   <g id="line2d_28">
    <path d="M 533.164533 259.6225 
L 533.164533 253.727763 
L 627.693005 253.727763 
L 627.693005 259.6225 
" style="fill: none; stroke: #333333; stroke-width: 1.5; stroke-linecap: round"/>
   </g>
   <g id="line2d_29">
    <path d="M 155.050646 281.714297 
L 155.050646 275.819559 
L 344.107589 275.819559 
L 344.107589 281.714297 
" style="fill: none; stroke: #333333; stroke-width: 1.5; stroke-linecap: round"/>
   </g>
   <g id="line2d_30">
    <path d="M 344.107589 237.530703 
L 344.107589 231.635966 
L 533.164533 231.635966 
L 533.164533 237.530703 
" style="fill: none; stroke: #333333; stroke-width: 1.5; stroke-linecap: round"/>
   </g>
   <g id="line2d_31">
    <path d="M 438.636061 215.438907 
L 438.636061 209.544169 
L 627.693005 209.544169 
L 627.693005 215.438907 
" style="fill: none; stroke: #333333; stroke-width: 1.5; stroke-linecap: round"/>
   </g>
   <g id="line2d_32">
    <path d="M 155.050646 193.34711 
L 155.050646 187.452373 
L 438.636061 187.452373 
L 438.636061 193.34711 
" style="fill: none; stroke: #333333; stroke-width: 1.5; stroke-linecap: round"/>
   </g>
   <g id="line2d_33">
    <path d="M 249.579118 171.255313 
L 249.579118 165.360576 
L 533.164533 165.360576 
L 533.164533 171.255313 
" style="fill: none; stroke: #333333; stroke-width: 1.5; stroke-linecap: round"/>
   </g>
   <g id="line2d_34">
    <path d="M 344.107589 149.163516 
L 344.107589 143.268779 
L 627.693005 143.268779 
L 627.693005 149.163516 
" style="fill: none; stroke: #333333; stroke-width: 1.5; stroke-linecap: round"/>
   </g>
   <g id="line2d_35">
    <path d="M 155.050646 127.07172 
L 155.050646 121.176983 
L 533.164533 121.176983 
L 533.164533 127.07172 
" style="fill: none; stroke: #333333; stroke-width: 1.5; stroke-linecap: round"/>
   </g>
   <g id="line2d_36">
    <path d="M 249.579118 104.979923 
L 249.579118 99.085186 
L 627.693005 99.085186 
L 627.693005 104.979923 
" style="fill: none; stroke: #333333; stroke-width: 1.5; stroke-linecap: round"/>
   </g>
   <g id="line2d_37">
    <path d="M 155.050646 82.888126 
L 155.050646 76.993389 
L 627.693005 76.993389 
L 627.693005 82.888126 
" style="fill: none; stroke: #333333; stroke-width: 1.5; stroke-linecap: round"/>
   </g>
   <g id="patch_3">
    <path d="M 89.826 645.866348 
L 89.826 45.816 
" style="fill: none; stroke: #cccccc; stroke-linejoin: miter; stroke-linecap: square"/>
   </g>
   <g id="patch_4">
    <path d="M 692.917651 645.866348 
L 692.917651 45.816 
" style="fill: none; stroke: #cccccc; stroke-linejoin: miter; stroke-linecap: square"/>
   </g>
   <g id="patch_5">
    <path d="M 89.826 645.866348 
L 692.917651 645.866348 
" style="fill: none; stroke: #cccccc; stroke-linejoin: miter; stroke-linecap: square"/>
   </g>
   <g id="patch_6">
    <path d="M 89.826 45.816 
L 692.917651 45.816 
" style="fill: none; stroke: #cccccc; stroke-linejoin: miter; stroke-linecap: square"/>
   </g>
   <g id="text_14">
    <!-- **** -->
    <g style="fill: #262626" transform="translate(187.368882 337.278949) scale(0.192 -0.192)">
     <defs>
      <path id="ArialMT-2a" d="M 200 3741 
L 344 4184 
Q 841 4009 1066 3881 
Q 1006 4447 1003 4659 
L 1456 4659 
Q 1447 4350 1384 3884 
Q 1706 4047 2122 4184 
L 2266 3741 
Q 1869 3609 1488 3566 
Q 1678 3400 2025 2975 
L 1650 2709 
Q 1469 2956 1222 3381 
Q 991 2941 816 2709 
L 447 2975 
Q 809 3422 966 3566 
Q 563 3644 200 3741 
z
" transform="scale(0.015625)"/>
     </defs>
     <use xlink:href="#ArialMT-2a"/>
     <use xlink:href="#ArialMT-2a" transform="translate(38.916016 0)"/>
     <use xlink:href="#ArialMT-2a" transform="translate(77.832031 0)"/>
     <use xlink:href="#ArialMT-2a" transform="translate(116.748047 0)"/>
    </g>
   </g>
   <g id="text_15">
    <!-- **** -->
    <g style="fill: #262626" transform="translate(281.897353 315.187153) scale(0.192 -0.192)">
     <use xlink:href="#ArialMT-2a"/>
     <use xlink:href="#ArialMT-2a" transform="translate(38.916016 0)"/>
     <use xlink:href="#ArialMT-2a" transform="translate(77.832031 0)"/>
     <use xlink:href="#ArialMT-2a" transform="translate(116.748047 0)"/>
    </g>
   </g>
   <g id="text_16">
    <!-- **** -->
    <g style="fill: #262626" transform="translate(376.425825 293.095356) scale(0.192 -0.192)">
     <use xlink:href="#ArialMT-2a"/>
     <use xlink:href="#ArialMT-2a" transform="translate(38.916016 0)"/>
     <use xlink:href="#ArialMT-2a" transform="translate(77.832031 0)"/>
     <use xlink:href="#ArialMT-2a" transform="translate(116.748047 0)"/>
    </g>
   </g>
   <g id="text_17">
    <!-- **** -->
    <g style="fill: #262626" transform="translate(470.954297 271.003559) scale(0.192 -0.192)">
     <use xlink:href="#ArialMT-2a"/>
     <use xlink:href="#ArialMT-2a" transform="translate(38.916016 0)"/>
     <use xlink:href="#ArialMT-2a" transform="translate(77.832031 0)"/>
     <use xlink:href="#ArialMT-2a" transform="translate(116.748047 0)"/>
    </g>
   </g>
   <g id="text_18">
    <!-- **** -->
    <g style="fill: #262626" transform="translate(565.482769 248.911763) scale(0.192 -0.192)">
     <use xlink:href="#ArialMT-2a"/>
     <use xlink:href="#ArialMT-2a" transform="translate(38.916016 0)"/>
     <use xlink:href="#ArialMT-2a" transform="translate(77.832031 0)"/>
     <use xlink:href="#ArialMT-2a" transform="translate(116.748047 0)"/>
    </g>
   </g>
   <g id="text_19">
    <!-- **** -->
    <g style="fill: #262626" transform="translate(234.633118 271.003559) scale(0.192 -0.192)">
     <use xlink:href="#ArialMT-2a"/>
     <use xlink:href="#ArialMT-2a" transform="translate(38.916016 0)"/>
     <use xlink:href="#ArialMT-2a" transform="translate(77.832031 0)"/>
     <use xlink:href="#ArialMT-2a" transform="translate(116.748047 0)"/>
    </g>
   </g>
   <g id="text_20">
    <!-- **** -->
    <g style="fill: #262626" transform="translate(423.690061 226.819966) scale(0.192 -0.192)">
     <use xlink:href="#ArialMT-2a"/>
     <use xlink:href="#ArialMT-2a" transform="translate(38.916016 0)"/>
     <use xlink:href="#ArialMT-2a" transform="translate(77.832031 0)"/>
     <use xlink:href="#ArialMT-2a" transform="translate(116.748047 0)"/>
    </g>
   </g>
   <g id="text_21">
    <!-- **** -->
    <g style="fill: #262626" transform="translate(518.218533 204.728169) scale(0.192 -0.192)">
     <use xlink:href="#ArialMT-2a"/>
     <use xlink:href="#ArialMT-2a" transform="translate(38.916016 0)"/>
     <use xlink:href="#ArialMT-2a" transform="translate(77.832031 0)"/>
     <use xlink:href="#ArialMT-2a" transform="translate(116.748047 0)"/>
    </g>
   </g>
   <g id="text_22">
    <!-- **** -->
    <g style="fill: #262626" transform="translate(281.897353 182.636373) scale(0.192 -0.192)">
     <use xlink:href="#ArialMT-2a"/>
     <use xlink:href="#ArialMT-2a" transform="translate(38.916016 0)"/>
     <use xlink:href="#ArialMT-2a" transform="translate(77.832031 0)"/>
     <use xlink:href="#ArialMT-2a" transform="translate(116.748047 0)"/>
    </g>
   </g>
   <g id="text_23">
    <!-- **** -->
    <g style="fill: #262626" transform="translate(376.425825 160.544576) scale(0.192 -0.192)">
     <use xlink:href="#ArialMT-2a"/>
     <use xlink:href="#ArialMT-2a" transform="translate(38.916016 0)"/>
     <use xlink:href="#ArialMT-2a" transform="translate(77.832031 0)"/>
     <use xlink:href="#ArialMT-2a" transform="translate(116.748047 0)"/>
    </g>
   </g>
   <g id="text_24">
    <!-- **** -->
    <g style="fill: #262626" transform="translate(470.954297 138.452779) scale(0.192 -0.192)">
     <use xlink:href="#ArialMT-2a"/>
     <use xlink:href="#ArialMT-2a" transform="translate(38.916016 0)"/>
     <use xlink:href="#ArialMT-2a" transform="translate(77.832031 0)"/>
     <use xlink:href="#ArialMT-2a" transform="translate(116.748047 0)"/>
    </g>
   </g>
   <g id="text_25">
    <!-- **** -->
    <g style="fill: #262626" transform="translate(329.161589 116.360983) scale(0.192 -0.192)">
     <use xlink:href="#ArialMT-2a"/>
     <use xlink:href="#ArialMT-2a" transform="translate(38.916016 0)"/>
     <use xlink:href="#ArialMT-2a" transform="translate(77.832031 0)"/>
     <use xlink:href="#ArialMT-2a" transform="translate(116.748047 0)"/>
    </g>
   </g>
   <g id="text_26">
    <!-- **** -->
    <g style="fill: #262626" transform="translate(423.690061 94.269186) scale(0.192 -0.192)">
     <use xlink:href="#ArialMT-2a"/>
     <use xlink:href="#ArialMT-2a" transform="translate(38.916016 0)"/>
     <use xlink:href="#ArialMT-2a" transform="translate(77.832031 0)"/>
     <use xlink:href="#ArialMT-2a" transform="translate(116.748047 0)"/>
    </g>
   </g>
   <g id="text_27">
    <!-- **** -->
    <g style="fill: #262626" transform="translate(376.425825 72.177389) scale(0.192 -0.192)">
     <use xlink:href="#ArialMT-2a"/>
     <use xlink:href="#ArialMT-2a" transform="translate(38.916016 0)"/>
     <use xlink:href="#ArialMT-2a" transform="translate(77.832031 0)"/>
     <use xlink:href="#ArialMT-2a" transform="translate(116.748047 0)"/>
    </g>
   </g>
   <g id="text_28">
    <!-- Ranked $r^2$ per Fold per Target -->
    <g style="fill: #262626" transform="translate(261.771825 39.816) scale(0.192 -0.192)">
     <defs>
      <path id="ArialMT-6b" d="M 425 0 
L 425 4581 
L 988 4581 
L 988 1969 
L 2319 3319 
L 3047 3319 
L 1778 2088 
L 3175 0 
L 2481 0 
L 1384 1697 
L 988 1316 
L 988 0 
L 425 0 
z
" transform="scale(0.015625)"/>
      <path id="ArialMT-20" transform="scale(0.015625)"/>
      <path id="DejaVuSans-Oblique-72" d="M 2853 2969 
Q 2766 3016 2653 3041 
Q 2541 3066 2413 3066 
Q 1953 3066 1609 2717 
Q 1266 2369 1153 1784 
L 800 0 
L 225 0 
L 909 3500 
L 1484 3500 
L 1375 2956 
Q 1603 3259 1920 3421 
Q 2238 3584 2597 3584 
Q 2691 3584 2781 3573 
Q 2872 3563 2963 3538 
L 2853 2969 
z
" transform="scale(0.015625)"/>
      <path id="DejaVuSans-32" d="M 1228 531 
L 3431 531 
L 3431 0 
L 469 0 
L 469 531 
Q 828 903 1448 1529 
Q 2069 2156 2228 2338 
Q 2531 2678 2651 2914 
Q 2772 3150 2772 3378 
Q 2772 3750 2511 3984 
Q 2250 4219 1831 4219 
Q 1534 4219 1204 4116 
Q 875 4013 500 3803 
L 500 4441 
Q 881 4594 1212 4672 
Q 1544 4750 1819 4750 
Q 2544 4750 2975 4387 
Q 3406 4025 3406 3419 
Q 3406 3131 3298 2873 
Q 3191 2616 2906 2266 
Q 2828 2175 2409 1742 
Q 1991 1309 1228 531 
z
" transform="scale(0.015625)"/>
      <path id="ArialMT-54" d="M 1659 0 
L 1659 4041 
L 150 4041 
L 150 4581 
L 3781 4581 
L 3781 4041 
L 2266 4041 
L 2266 0 
L 1659 0 
z
" transform="scale(0.015625)"/>
     </defs>
     <use xlink:href="#ArialMT-52" transform="translate(0 0.765625)"/>
     <use xlink:href="#ArialMT-61" transform="translate(72.216797 0.765625)"/>
     <use xlink:href="#ArialMT-6e" transform="translate(127.832031 0.765625)"/>
     <use xlink:href="#ArialMT-6b" transform="translate(183.447266 0.765625)"/>
     <use xlink:href="#ArialMT-65" transform="translate(233.447266 0.765625)"/>
     <use xlink:href="#ArialMT-64" transform="translate(289.0625 0.765625)"/>
     <use xlink:href="#ArialMT-20" transform="translate(344.677734 0.765625)"/>
     <use xlink:href="#DejaVuSans-Oblique-72" transform="translate(372.460938 0.765625)"/>
     <use xlink:href="#DejaVuSans-32" transform="translate(418.224115 39.046875) scale(0.7)"/>
     <use xlink:href="#ArialMT-20" transform="translate(465.494622 0.765625)"/>
     <use xlink:href="#ArialMT-70" transform="translate(493.277826 0.765625)"/>
     <use xlink:href="#ArialMT-65" transform="translate(548.89306 0.765625)"/>
     <use xlink:href="#ArialMT-72" transform="translate(604.508294 0.765625)"/>
     <use xlink:href="#ArialMT-20" transform="translate(637.809076 0.765625)"/>
     <use xlink:href="#ArialMT-46" transform="translate(665.592279 0.765625)"/>
     <use xlink:href="#ArialMT-6f" transform="translate(726.676263 0.765625)"/>
     <use xlink:href="#ArialMT-6c" transform="translate(782.291497 0.765625)"/>
     <use xlink:href="#ArialMT-64" transform="translate(804.508294 0.765625)"/>
     <use xlink:href="#ArialMT-20" transform="translate(860.123529 0.765625)"/>
     <use xlink:href="#ArialMT-70" transform="translate(887.906732 0.765625)"/>
     <use xlink:href="#ArialMT-65" transform="translate(943.521966 0.765625)"/>
     <use xlink:href="#ArialMT-72" transform="translate(999.137201 0.765625)"/>
     <use xlink:href="#ArialMT-20" transform="translate(1032.437982 0.765625)"/>
     <use xlink:href="#ArialMT-54" transform="translate(1060.221185 0.765625)"/>
     <use xlink:href="#ArialMT-61" transform="translate(1121.305169 0.765625)"/>
     <use xlink:href="#ArialMT-72" transform="translate(1176.920404 0.765625)"/>
     <use xlink:href="#ArialMT-67" transform="translate(1210.221185 0.765625)"/>
     <use xlink:href="#ArialMT-65" transform="translate(1265.836419 0.765625)"/>
     <use xlink:href="#ArialMT-74" transform="translate(1321.451654 0.765625)"/>
    </g>
   </g>
  </g>
 </g>
 <defs>
  <clipPath id="p59f8f9397a">
   <rect x="89.826" y="45.816" width="603.091651" height="600.050348"/>
  </clipPath>
 </defs>
</svg>
