<?xml version="1.0" encoding="utf-8" standalone="no"?>
<!DOCTYPE svg PUBLIC "-//W3C//DTD SVG 1.1//EN"
        "http://www.w3.org/Graphics/SVG/1.1/DTD/svg11.dtd">
<svg xmlns:xlink="http://www.w3.org/1999/xlink" width="720pt" height="864pt" viewBox="0 0 720 864"
     xmlns="http://www.w3.org/2000/svg" version="1.1">
    <metadata>
        <rdf:RDF xmlns:dc="http://purl.org/dc/elements/1.1/" xmlns:cc="http://creativecommons.org/ns#"
                 xmlns:rdf="http://www.w3.org/1999/02/22-rdf-syntax-ns#">
            <cc:Work>
                <dc:type rdf:resource="http://purl.org/dc/dcmitype/StillImage"/>
                <dc:date>2025-02-20T03:50:51.795086</dc:date>
                <dc:format>image/svg+xml</dc:format>
                <dc:creator>
                    <cc:Agent>
                        <dc:title>Matplotlib v3.10.0, https://matplotlib.org/</dc:title>
                    </cc:Agent>
                </dc:creator>
            </cc:Work>
        </rdf:RDF>
    </metadata>
    <defs>
        <style type="text/css">*{stroke-linejoin: round; stroke-linecap: butt}</style>
    </defs>
    <g id="figure_1">
        <g id="patch_1">
            <path d="M 0 864
L 720 864 
L 720 0 
L 0 0 
z
" style="fill: #ffffff"/>
        </g>
        <g id="axes_1">
            <g id="patch_2">
                <path d="M 61.68 654.580631
L 698.676378 654.580631 
L 698.676378 38.4 
L 61.68 38.4 
z
" style="fill: #ffffff"/>
            </g>
            <g id="matplotlib.axis_1">
                <g id="xtick_1">
                    <g id="text_1">
                        <!-- RandomSplit -->
                        <g style="fill: #262626"
                           transform="translate(100.262099 742.367284) rotate(-45) scale(0.165 -0.165)">
                            <defs>
                                <path id="ArialMT-52" d="M 503 0
L 503 4581 
L 2534 4581 
Q 3147 4581 3465 4457 
Q 3784 4334 3975 4021 
Q 4166 3709 4166 3331 
Q 4166 2844 3850 2509 
Q 3534 2175 2875 2084 
Q 3116 1969 3241 1856 
Q 3506 1613 3744 1247 
L 4541 0 
L 3778 0 
L 3172 953 
Q 2906 1366 2734 1584 
Q 2563 1803 2427 1890 
Q 2291 1978 2150 2013 
Q 2047 2034 1813 2034 
L 1109 2034 
L 1109 0 
L 503 0 
z
M 1109 2559 
L 2413 2559 
Q 2828 2559 3062 2645 
Q 3297 2731 3419 2920 
Q 3541 3109 3541 3331 
Q 3541 3656 3305 3865 
Q 3069 4075 2559 4075 
L 1109 4075 
L 1109 2559 
z
" transform="scale(0.015625)"/>
                                <path id="ArialMT-61" d="M 2588 409
Q 2275 144 1986 34 
Q 1697 -75 1366 -75 
Q 819 -75 525 192 
Q 231 459 231 875 
Q 231 1119 342 1320 
Q 453 1522 633 1644 
Q 813 1766 1038 1828 
Q 1203 1872 1538 1913 
Q 2219 1994 2541 2106 
Q 2544 2222 2544 2253 
Q 2544 2597 2384 2738 
Q 2169 2928 1744 2928 
Q 1347 2928 1158 2789 
Q 969 2650 878 2297 
L 328 2372 
Q 403 2725 575 2942 
Q 747 3159 1072 3276 
Q 1397 3394 1825 3394 
Q 2250 3394 2515 3294 
Q 2781 3194 2906 3042 
Q 3031 2891 3081 2659 
Q 3109 2516 3109 2141 
L 3109 1391 
Q 3109 606 3145 398 
Q 3181 191 3288 0 
L 2700 0 
Q 2613 175 2588 409 
z
M 2541 1666 
Q 2234 1541 1622 1453 
Q 1275 1403 1131 1340 
Q 988 1278 909 1158 
Q 831 1038 831 891 
Q 831 666 1001 516 
Q 1172 366 1500 366 
Q 1825 366 2078 508 
Q 2331 650 2450 897 
Q 2541 1088 2541 1459 
L 2541 1666 
z
" transform="scale(0.015625)"/>
                                <path id="ArialMT-6e" d="M 422 0
L 422 3319 
L 928 3319 
L 928 2847 
Q 1294 3394 1984 3394 
Q 2284 3394 2536 3286 
Q 2788 3178 2913 3003 
Q 3038 2828 3088 2588 
Q 3119 2431 3119 2041 
L 3119 0 
L 2556 0 
L 2556 2019 
Q 2556 2363 2490 2533 
Q 2425 2703 2258 2804 
Q 2091 2906 1866 2906 
Q 1506 2906 1245 2678 
Q 984 2450 984 1813 
L 984 0 
L 422 0 
z
" transform="scale(0.015625)"/>
                                <path id="ArialMT-64" d="M 2575 0
L 2575 419 
Q 2259 -75 1647 -75 
Q 1250 -75 917 144 
Q 584 363 401 755 
Q 219 1147 219 1656 
Q 219 2153 384 2558 
Q 550 2963 881 3178 
Q 1213 3394 1622 3394 
Q 1922 3394 2156 3267 
Q 2391 3141 2538 2938 
L 2538 4581 
L 3097 4581 
L 3097 0 
L 2575 0 
z
M 797 1656 
Q 797 1019 1065 703 
Q 1334 388 1700 388 
Q 2069 388 2326 689 
Q 2584 991 2584 1609 
Q 2584 2291 2321 2609 
Q 2059 2928 1675 2928 
Q 1300 2928 1048 2622 
Q 797 2316 797 1656 
z
" transform="scale(0.015625)"/>
                                <path id="ArialMT-6f" d="M 213 1659
Q 213 2581 725 3025 
Q 1153 3394 1769 3394 
Q 2453 3394 2887 2945 
Q 3322 2497 3322 1706 
Q 3322 1066 3130 698 
Q 2938 331 2570 128 
Q 2203 -75 1769 -75 
Q 1072 -75 642 372 
Q 213 819 213 1659 
z
M 791 1659 
Q 791 1022 1069 705 
Q 1347 388 1769 388 
Q 2188 388 2466 706 
Q 2744 1025 2744 1678 
Q 2744 2294 2464 2611 
Q 2184 2928 1769 2928 
Q 1347 2928 1069 2612 
Q 791 2297 791 1659 
z
" transform="scale(0.015625)"/>
                                <path id="ArialMT-6d" d="M 422 0
L 422 3319 
L 925 3319 
L 925 2853 
Q 1081 3097 1340 3245 
Q 1600 3394 1931 3394 
Q 2300 3394 2536 3241 
Q 2772 3088 2869 2813 
Q 3263 3394 3894 3394 
Q 4388 3394 4653 3120 
Q 4919 2847 4919 2278 
L 4919 0 
L 4359 0 
L 4359 2091 
Q 4359 2428 4304 2576 
Q 4250 2725 4106 2815 
Q 3963 2906 3769 2906 
Q 3419 2906 3187 2673 
Q 2956 2441 2956 1928 
L 2956 0 
L 2394 0 
L 2394 2156 
Q 2394 2531 2256 2718 
Q 2119 2906 1806 2906 
Q 1569 2906 1367 2781 
Q 1166 2656 1075 2415 
Q 984 2175 984 1722 
L 984 0 
L 422 0 
z
" transform="scale(0.015625)"/>
                                <path id="ArialMT-53" d="M 288 1472
L 859 1522 
Q 900 1178 1048 958 
Q 1197 738 1509 602 
Q 1822 466 2213 466 
Q 2559 466 2825 569 
Q 3091 672 3220 851 
Q 3350 1031 3350 1244 
Q 3350 1459 3225 1620 
Q 3100 1781 2813 1891 
Q 2628 1963 1997 2114 
Q 1366 2266 1113 2400 
Q 784 2572 623 2826 
Q 463 3081 463 3397 
Q 463 3744 659 4045 
Q 856 4347 1234 4503 
Q 1613 4659 2075 4659 
Q 2584 4659 2973 4495 
Q 3363 4331 3572 4012 
Q 3781 3694 3797 3291 
L 3216 3247 
Q 3169 3681 2898 3903 
Q 2628 4125 2100 4125 
Q 1550 4125 1298 3923 
Q 1047 3722 1047 3438 
Q 1047 3191 1225 3031 
Q 1400 2872 2139 2705 
Q 2878 2538 3153 2413 
Q 3553 2228 3743 1945 
Q 3934 1663 3934 1294 
Q 3934 928 3725 604 
Q 3516 281 3123 101 
Q 2731 -78 2241 -78 
Q 1619 -78 1198 103 
Q 778 284 539 648 
Q 300 1013 288 1472 
z
" transform="scale(0.015625)"/>
                                <path id="ArialMT-70" d="M 422 -1272
L 422 3319 
L 934 3319 
L 934 2888 
Q 1116 3141 1344 3267 
Q 1572 3394 1897 3394 
Q 2322 3394 2647 3175 
Q 2972 2956 3137 2557 
Q 3303 2159 3303 1684 
Q 3303 1175 3120 767 
Q 2938 359 2589 142 
Q 2241 -75 1856 -75 
Q 1575 -75 1351 44 
Q 1128 163 984 344 
L 984 -1272 
L 422 -1272 
z
M 931 1641 
Q 931 1000 1190 694 
Q 1450 388 1819 388 
Q 2194 388 2461 705 
Q 2728 1022 2728 1688 
Q 2728 2322 2467 2637 
Q 2206 2953 1844 2953 
Q 1484 2953 1207 2617 
Q 931 2281 931 1641 
z
" transform="scale(0.015625)"/>
                                <path id="ArialMT-6c" d="M 409 0
L 409 4581 
L 972 4581 
L 972 0 
L 409 0 
z
" transform="scale(0.015625)"/>
                                <path id="ArialMT-69" d="M 425 3934
L 425 4581 
L 988 4581 
L 988 3934 
L 425 3934 
z
M 425 0 
L 425 3319 
L 988 3319 
L 988 0 
L 425 0 
z
" transform="scale(0.015625)"/>
                                <path id="ArialMT-74" d="M 1650 503
L 1731 6 
Q 1494 -44 1306 -44 
Q 1000 -44 831 53 
Q 663 150 594 308 
Q 525 466 525 972 
L 525 2881 
L 113 2881 
L 113 3319 
L 525 3319 
L 525 4141 
L 1084 4478 
L 1084 3319 
L 1650 3319 
L 1650 2881 
L 1084 2881 
L 1084 941 
Q 1084 700 1114 631 
Q 1144 563 1211 522 
Q 1278 481 1403 481 
Q 1497 481 1650 503 
z
" transform="scale(0.015625)"/>
                            </defs>
                            <use xlink:href="#ArialMT-52"/>
                            <use xlink:href="#ArialMT-61" transform="translate(72.216797 0)"/>
                            <use xlink:href="#ArialMT-6e" transform="translate(127.832031 0)"/>
                            <use xlink:href="#ArialMT-64" transform="translate(183.447266 0)"/>
                            <use xlink:href="#ArialMT-6f" transform="translate(239.0625 0)"/>
                            <use xlink:href="#ArialMT-6d" transform="translate(294.677734 0)"/>
                            <use xlink:href="#ArialMT-53" transform="translate(377.978516 0)"/>
                            <use xlink:href="#ArialMT-70" transform="translate(444.677734 0)"/>
                            <use xlink:href="#ArialMT-6c" transform="translate(500.292969 0)"/>
                            <use xlink:href="#ArialMT-69" transform="translate(522.509766 0)"/>
                            <use xlink:href="#ArialMT-74" transform="translate(544.726562 0)"/>
                        </g>
                    </g>
                </g>
                <g id="xtick_2">
                    <g id="text_2">
                        <!-- ScaffoldSplit -->
                        <g style="fill: #262626"
                           transform="translate(201.177633 740.221602) rotate(-45) scale(0.165 -0.165)">
                            <defs>
                                <path id="ArialMT-63" d="M 2588 1216
L 3141 1144 
Q 3050 572 2676 248 
Q 2303 -75 1759 -75 
Q 1078 -75 664 370 
Q 250 816 250 1647 
Q 250 2184 428 2587 
Q 606 2991 970 3192 
Q 1334 3394 1763 3394 
Q 2303 3394 2647 3120 
Q 2991 2847 3088 2344 
L 2541 2259 
Q 2463 2594 2264 2762 
Q 2066 2931 1784 2931 
Q 1359 2931 1093 2626 
Q 828 2322 828 1663 
Q 828 994 1084 691 
Q 1341 388 1753 388 
Q 2084 388 2306 591 
Q 2528 794 2588 1216 
z
" transform="scale(0.015625)"/>
                                <path id="ArialMT-66" d="M 556 0
L 556 2881 
L 59 2881 
L 59 3319 
L 556 3319 
L 556 3672 
Q 556 4006 616 4169 
Q 697 4388 901 4523 
Q 1106 4659 1475 4659 
Q 1713 4659 2000 4603 
L 1916 4113 
Q 1741 4144 1584 4144 
Q 1328 4144 1222 4034 
Q 1116 3925 1116 3625 
L 1116 3319 
L 1763 3319 
L 1763 2881 
L 1116 2881 
L 1116 0 
L 556 0 
z
" transform="scale(0.015625)"/>
                            </defs>
                            <use xlink:href="#ArialMT-53"/>
                            <use xlink:href="#ArialMT-63" transform="translate(66.699219 0)"/>
                            <use xlink:href="#ArialMT-61" transform="translate(116.699219 0)"/>
                            <use xlink:href="#ArialMT-66" transform="translate(172.314453 0)"/>
                            <use xlink:href="#ArialMT-66" transform="translate(198.347656 0)"/>
                            <use xlink:href="#ArialMT-6f" transform="translate(226.130859 0)"/>
                            <use xlink:href="#ArialMT-6c" transform="translate(281.746094 0)"/>
                            <use xlink:href="#ArialMT-64" transform="translate(303.962891 0)"/>
                            <use xlink:href="#ArialMT-53" transform="translate(359.578125 0)"/>
                            <use xlink:href="#ArialMT-70" transform="translate(426.277344 0)"/>
                            <use xlink:href="#ArialMT-6c" transform="translate(481.892578 0)"/>
                            <use xlink:href="#ArialMT-69" transform="translate(504.109375 0)"/>
                            <use xlink:href="#ArialMT-74" transform="translate(526.326172 0)"/>
                        </g>
                    </g>
                </g>
                <g id="xtick_3">
                    <g id="text_3">
                        <!-- SortedStepForward_LogD -->
                        <g style="fill: #262626"
                           transform="translate(265.507185 811.111156) rotate(-45) scale(0.165 -0.165)">
                            <defs>
                                <path id="ArialMT-72" d="M 416 0
L 416 3319 
L 922 3319 
L 922 2816 
Q 1116 3169 1280 3281 
Q 1444 3394 1641 3394 
Q 1925 3394 2219 3213 
L 2025 2691 
Q 1819 2813 1613 2813 
Q 1428 2813 1281 2702 
Q 1134 2591 1072 2394 
Q 978 2094 978 1738 
L 978 0 
L 416 0 
z
" transform="scale(0.015625)"/>
                                <path id="ArialMT-65" d="M 2694 1069
L 3275 997 
Q 3138 488 2766 206 
Q 2394 -75 1816 -75 
Q 1088 -75 661 373 
Q 234 822 234 1631 
Q 234 2469 665 2931 
Q 1097 3394 1784 3394 
Q 2450 3394 2872 2941 
Q 3294 2488 3294 1666 
Q 3294 1616 3291 1516 
L 816 1516 
Q 847 969 1125 678 
Q 1403 388 1819 388 
Q 2128 388 2347 550 
Q 2566 713 2694 1069 
z
M 847 1978 
L 2700 1978 
Q 2663 2397 2488 2606 
Q 2219 2931 1791 2931 
Q 1403 2931 1139 2672 
Q 875 2413 847 1978 
z
" transform="scale(0.015625)"/>
                                <path id="ArialMT-46" d="M 525 0
L 525 4581 
L 3616 4581 
L 3616 4041 
L 1131 4041 
L 1131 2622 
L 3281 2622 
L 3281 2081 
L 1131 2081 
L 1131 0 
L 525 0 
z
" transform="scale(0.015625)"/>
                                <path id="ArialMT-77" d="M 1034 0
L 19 3319 
L 600 3319 
L 1128 1403 
L 1325 691 
Q 1338 744 1497 1375 
L 2025 3319 
L 2603 3319 
L 3100 1394 
L 3266 759 
L 3456 1400 
L 4025 3319 
L 4572 3319 
L 3534 0 
L 2950 0 
L 2422 1988 
L 2294 2553 
L 1622 0 
L 1034 0 
z
" transform="scale(0.015625)"/>
                                <path id="ArialMT-5f" d="M -97 -1272
L -97 -866 
L 3631 -866 
L 3631 -1272 
L -97 -1272 
z
" transform="scale(0.015625)"/>
                                <path id="ArialMT-4c" d="M 469 0
L 469 4581 
L 1075 4581 
L 1075 541 
L 3331 541 
L 3331 0 
L 469 0 
z
" transform="scale(0.015625)"/>
                                <path id="ArialMT-67" d="M 319 -275
L 866 -356 
Q 900 -609 1056 -725 
Q 1266 -881 1628 -881 
Q 2019 -881 2231 -725 
Q 2444 -569 2519 -288 
Q 2563 -116 2559 434 
Q 2191 0 1641 0 
Q 956 0 581 494 
Q 206 988 206 1678 
Q 206 2153 378 2554 
Q 550 2956 876 3175 
Q 1203 3394 1644 3394 
Q 2231 3394 2613 2919 
L 2613 3319 
L 3131 3319 
L 3131 450 
Q 3131 -325 2973 -648 
Q 2816 -972 2473 -1159 
Q 2131 -1347 1631 -1347 
Q 1038 -1347 672 -1080 
Q 306 -813 319 -275 
z
M 784 1719 
Q 784 1066 1043 766 
Q 1303 466 1694 466 
Q 2081 466 2343 764 
Q 2606 1063 2606 1700 
Q 2606 2309 2336 2618 
Q 2066 2928 1684 2928 
Q 1309 2928 1046 2623 
Q 784 2319 784 1719 
z
" transform="scale(0.015625)"/>
                                <path id="ArialMT-44" d="M 494 0
L 494 4581 
L 2072 4581 
Q 2606 4581 2888 4516 
Q 3281 4425 3559 4188 
Q 3922 3881 4101 3404 
Q 4281 2928 4281 2316 
Q 4281 1794 4159 1391 
Q 4038 988 3847 723 
Q 3656 459 3429 307 
Q 3203 156 2883 78 
Q 2563 0 2147 0 
L 494 0 
z
M 1100 541 
L 2078 541 
Q 2531 541 2789 625 
Q 3047 709 3200 863 
Q 3416 1078 3536 1442 
Q 3656 1806 3656 2325 
Q 3656 3044 3420 3430 
Q 3184 3816 2847 3947 
Q 2603 4041 2063 4041 
L 1100 4041 
L 1100 541 
z
" transform="scale(0.015625)"/>
                            </defs>
                            <use xlink:href="#ArialMT-53"/>
                            <use xlink:href="#ArialMT-6f" transform="translate(66.699219 0)"/>
                            <use xlink:href="#ArialMT-72" transform="translate(122.314453 0)"/>
                            <use xlink:href="#ArialMT-74" transform="translate(155.615234 0)"/>
                            <use xlink:href="#ArialMT-65" transform="translate(183.398438 0)"/>
                            <use xlink:href="#ArialMT-64" transform="translate(239.013672 0)"/>
                            <use xlink:href="#ArialMT-53" transform="translate(294.628906 0)"/>
                            <use xlink:href="#ArialMT-74" transform="translate(361.328125 0)"/>
                            <use xlink:href="#ArialMT-65" transform="translate(389.111328 0)"/>
                            <use xlink:href="#ArialMT-70" transform="translate(444.726562 0)"/>
                            <use xlink:href="#ArialMT-46" transform="translate(500.341797 0)"/>
                            <use xlink:href="#ArialMT-6f" transform="translate(561.425781 0)"/>
                            <use xlink:href="#ArialMT-72" transform="translate(617.041016 0)"/>
                            <use xlink:href="#ArialMT-77" transform="translate(650.341797 0)"/>
                            <use xlink:href="#ArialMT-61" transform="translate(722.558594 0)"/>
                            <use xlink:href="#ArialMT-72" transform="translate(778.173828 0)"/>
                            <use xlink:href="#ArialMT-64" transform="translate(811.474609 0)"/>
                            <use xlink:href="#ArialMT-5f" transform="translate(867.089844 0)"/>
                            <use xlink:href="#ArialMT-4c" transform="translate(922.705078 0)"/>
                            <use xlink:href="#ArialMT-6f" transform="translate(978.320312 0)"/>
                            <use xlink:href="#ArialMT-67" transform="translate(1033.935547 0)"/>
                            <use xlink:href="#ArialMT-44" transform="translate(1089.550781 0)"/>
                        </g>
                    </g>
                </g>
                <g id="xtick_4">
                    <g id="text_4">
                        <!-- SortedStepForward_LogP -->
                        <g style="fill: #262626"
                           transform="translate(365.671639 810.467633) rotate(-45) scale(0.165 -0.165)">
                            <defs>
                                <path id="ArialMT-50" d="M 494 0
L 494 4581 
L 2222 4581 
Q 2678 4581 2919 4538 
Q 3256 4481 3484 4323 
Q 3713 4166 3852 3881 
Q 3991 3597 3991 3256 
Q 3991 2672 3619 2267 
Q 3247 1863 2275 1863 
L 1100 1863 
L 1100 0 
L 494 0 
z
M 1100 2403 
L 2284 2403 
Q 2872 2403 3119 2622 
Q 3366 2841 3366 3238 
Q 3366 3525 3220 3729 
Q 3075 3934 2838 4000 
Q 2684 4041 2272 4041 
L 1100 4041 
L 1100 2403 
z
" transform="scale(0.015625)"/>
                            </defs>
                            <use xlink:href="#ArialMT-53"/>
                            <use xlink:href="#ArialMT-6f" transform="translate(66.699219 0)"/>
                            <use xlink:href="#ArialMT-72" transform="translate(122.314453 0)"/>
                            <use xlink:href="#ArialMT-74" transform="translate(155.615234 0)"/>
                            <use xlink:href="#ArialMT-65" transform="translate(183.398438 0)"/>
                            <use xlink:href="#ArialMT-64" transform="translate(239.013672 0)"/>
                            <use xlink:href="#ArialMT-53" transform="translate(294.628906 0)"/>
                            <use xlink:href="#ArialMT-74" transform="translate(361.328125 0)"/>
                            <use xlink:href="#ArialMT-65" transform="translate(389.111328 0)"/>
                            <use xlink:href="#ArialMT-70" transform="translate(444.726562 0)"/>
                            <use xlink:href="#ArialMT-46" transform="translate(500.341797 0)"/>
                            <use xlink:href="#ArialMT-6f" transform="translate(561.425781 0)"/>
                            <use xlink:href="#ArialMT-72" transform="translate(617.041016 0)"/>
                            <use xlink:href="#ArialMT-77" transform="translate(650.341797 0)"/>
                            <use xlink:href="#ArialMT-61" transform="translate(722.558594 0)"/>
                            <use xlink:href="#ArialMT-72" transform="translate(778.173828 0)"/>
                            <use xlink:href="#ArialMT-64" transform="translate(811.474609 0)"/>
                            <use xlink:href="#ArialMT-5f" transform="translate(867.089844 0)"/>
                            <use xlink:href="#ArialMT-4c" transform="translate(922.705078 0)"/>
                            <use xlink:href="#ArialMT-6f" transform="translate(978.320312 0)"/>
                            <use xlink:href="#ArialMT-67" transform="translate(1033.935547 0)"/>
                            <use xlink:href="#ArialMT-50" transform="translate(1089.550781 0)"/>
                        </g>
                    </g>
                </g>
                <g id="xtick_5">
                    <g id="text_5">
                        <!-- SortedStepForward_MCE18 -->
                        <g style="fill: #262626"
                           transform="translate(459.754533 822.123957) rotate(-45) scale(0.165 -0.165)">
                            <defs>
                                <path id="ArialMT-4d" d="M 475 0
L 475 4581 
L 1388 4581 
L 2472 1338 
Q 2622 884 2691 659 
Q 2769 909 2934 1394 
L 4031 4581 
L 4847 4581 
L 4847 0 
L 4263 0 
L 4263 3834 
L 2931 0 
L 2384 0 
L 1059 3900 
L 1059 0 
L 475 0 
z
" transform="scale(0.015625)"/>
                                <path id="ArialMT-43" d="M 3763 1606
L 4369 1453 
Q 4178 706 3683 314 
Q 3188 -78 2472 -78 
Q 1731 -78 1267 223 
Q 803 525 561 1097 
Q 319 1669 319 2325 
Q 319 3041 592 3573 
Q 866 4106 1370 4382 
Q 1875 4659 2481 4659 
Q 3169 4659 3637 4309 
Q 4106 3959 4291 3325 
L 3694 3184 
Q 3534 3684 3231 3912 
Q 2928 4141 2469 4141 
Q 1941 4141 1586 3887 
Q 1231 3634 1087 3207 
Q 944 2781 944 2328 
Q 944 1744 1114 1308 
Q 1284 872 1643 656 
Q 2003 441 2422 441 
Q 2931 441 3284 734 
Q 3638 1028 3763 1606 
z
" transform="scale(0.015625)"/>
                                <path id="ArialMT-45" d="M 506 0
L 506 4581 
L 3819 4581 
L 3819 4041 
L 1113 4041 
L 1113 2638 
L 3647 2638 
L 3647 2100 
L 1113 2100 
L 1113 541 
L 3925 541 
L 3925 0 
L 506 0 
z
" transform="scale(0.015625)"/>
                                <path id="ArialMT-31" d="M 2384 0
L 1822 0 
L 1822 3584 
Q 1619 3391 1289 3197 
Q 959 3003 697 2906 
L 697 3450 
Q 1169 3672 1522 3987 
Q 1875 4303 2022 4600 
L 2384 4600 
L 2384 0 
z
" transform="scale(0.015625)"/>
                                <path id="ArialMT-38" d="M 1131 2484
Q 781 2613 612 2850 
Q 444 3088 444 3419 
Q 444 3919 803 4259 
Q 1163 4600 1759 4600 
Q 2359 4600 2725 4251 
Q 3091 3903 3091 3403 
Q 3091 3084 2923 2848 
Q 2756 2613 2416 2484 
Q 2838 2347 3058 2040 
Q 3278 1734 3278 1309 
Q 3278 722 2862 322 
Q 2447 -78 1769 -78 
Q 1091 -78 675 323 
Q 259 725 259 1325 
Q 259 1772 486 2073 
Q 713 2375 1131 2484 
z
M 1019 3438 
Q 1019 3113 1228 2906 
Q 1438 2700 1772 2700 
Q 2097 2700 2305 2904 
Q 2513 3109 2513 3406 
Q 2513 3716 2298 3927 
Q 2084 4138 1766 4138 
Q 1444 4138 1231 3931 
Q 1019 3725 1019 3438 
z
M 838 1322 
Q 838 1081 952 856 
Q 1066 631 1291 507 
Q 1516 384 1775 384 
Q 2178 384 2440 643 
Q 2703 903 2703 1303 
Q 2703 1709 2433 1975 
Q 2163 2241 1756 2241 
Q 1359 2241 1098 1978 
Q 838 1716 838 1322 
z
" transform="scale(0.015625)"/>
                            </defs>
                            <use xlink:href="#ArialMT-53"/>
                            <use xlink:href="#ArialMT-6f" transform="translate(66.699219 0)"/>
                            <use xlink:href="#ArialMT-72" transform="translate(122.314453 0)"/>
                            <use xlink:href="#ArialMT-74" transform="translate(155.615234 0)"/>
                            <use xlink:href="#ArialMT-65" transform="translate(183.398438 0)"/>
                            <use xlink:href="#ArialMT-64" transform="translate(239.013672 0)"/>
                            <use xlink:href="#ArialMT-53" transform="translate(294.628906 0)"/>
                            <use xlink:href="#ArialMT-74" transform="translate(361.328125 0)"/>
                            <use xlink:href="#ArialMT-65" transform="translate(389.111328 0)"/>
                            <use xlink:href="#ArialMT-70" transform="translate(444.726562 0)"/>
                            <use xlink:href="#ArialMT-46" transform="translate(500.341797 0)"/>
                            <use xlink:href="#ArialMT-6f" transform="translate(561.425781 0)"/>
                            <use xlink:href="#ArialMT-72" transform="translate(617.041016 0)"/>
                            <use xlink:href="#ArialMT-77" transform="translate(650.341797 0)"/>
                            <use xlink:href="#ArialMT-61" transform="translate(722.558594 0)"/>
                            <use xlink:href="#ArialMT-72" transform="translate(778.173828 0)"/>
                            <use xlink:href="#ArialMT-64" transform="translate(811.474609 0)"/>
                            <use xlink:href="#ArialMT-5f" transform="translate(867.089844 0)"/>
                            <use xlink:href="#ArialMT-4d" transform="translate(922.705078 0)"/>
                            <use xlink:href="#ArialMT-43" transform="translate(1006.005859 0)"/>
                            <use xlink:href="#ArialMT-45" transform="translate(1078.222656 0)"/>
                            <use xlink:href="#ArialMT-31" transform="translate(1144.921875 0)"/>
                            <use xlink:href="#ArialMT-38" transform="translate(1200.537109 0)"/>
                        </g>
                    </g>
                </g>
                <g id="xtick_6">
                    <g id="text_6">
                        <!-- UnsortedStepForward -->
                        <g style="fill: #262626"
                           transform="translate(575.810162 789.698084) rotate(-45) scale(0.165 -0.165)">
                            <defs>
                                <path id="ArialMT-55" d="M 3500 4581
L 4106 4581 
L 4106 1934 
Q 4106 1244 3950 837 
Q 3794 431 3386 176 
Q 2978 -78 2316 -78 
Q 1672 -78 1262 144 
Q 853 366 678 786 
Q 503 1206 503 1934 
L 503 4581 
L 1109 4581 
L 1109 1938 
Q 1109 1341 1220 1058 
Q 1331 775 1601 622 
Q 1872 469 2263 469 
Q 2931 469 3215 772 
Q 3500 1075 3500 1938 
L 3500 4581 
z
" transform="scale(0.015625)"/>
                                <path id="ArialMT-73" d="M 197 991
L 753 1078 
Q 800 744 1014 566 
Q 1228 388 1613 388 
Q 2000 388 2187 545 
Q 2375 703 2375 916 
Q 2375 1106 2209 1216 
Q 2094 1291 1634 1406 
Q 1016 1563 777 1677 
Q 538 1791 414 1992 
Q 291 2194 291 2438 
Q 291 2659 392 2848 
Q 494 3038 669 3163 
Q 800 3259 1026 3326 
Q 1253 3394 1513 3394 
Q 1903 3394 2198 3281 
Q 2494 3169 2634 2976 
Q 2775 2784 2828 2463 
L 2278 2388 
Q 2241 2644 2061 2787 
Q 1881 2931 1553 2931 
Q 1166 2931 1000 2803 
Q 834 2675 834 2503 
Q 834 2394 903 2306 
Q 972 2216 1119 2156 
Q 1203 2125 1616 2013 
Q 2213 1853 2448 1751 
Q 2684 1650 2818 1456 
Q 2953 1263 2953 975 
Q 2953 694 2789 445 
Q 2625 197 2315 61 
Q 2006 -75 1616 -75 
Q 969 -75 630 194 
Q 291 463 197 991 
z
" transform="scale(0.015625)"/>
                            </defs>
                            <use xlink:href="#ArialMT-55"/>
                            <use xlink:href="#ArialMT-6e" transform="translate(72.216797 0)"/>
                            <use xlink:href="#ArialMT-73" transform="translate(127.832031 0)"/>
                            <use xlink:href="#ArialMT-6f" transform="translate(177.832031 0)"/>
                            <use xlink:href="#ArialMT-72" transform="translate(233.447266 0)"/>
                            <use xlink:href="#ArialMT-74" transform="translate(266.748047 0)"/>
                            <use xlink:href="#ArialMT-65" transform="translate(294.53125 0)"/>
                            <use xlink:href="#ArialMT-64" transform="translate(350.146484 0)"/>
                            <use xlink:href="#ArialMT-53" transform="translate(405.761719 0)"/>
                            <use xlink:href="#ArialMT-74" transform="translate(472.460938 0)"/>
                            <use xlink:href="#ArialMT-65" transform="translate(500.244141 0)"/>
                            <use xlink:href="#ArialMT-70" transform="translate(555.859375 0)"/>
                            <use xlink:href="#ArialMT-46" transform="translate(611.474609 0)"/>
                            <use xlink:href="#ArialMT-6f" transform="translate(672.558594 0)"/>
                            <use xlink:href="#ArialMT-72" transform="translate(728.173828 0)"/>
                            <use xlink:href="#ArialMT-77" transform="translate(761.474609 0)"/>
                            <use xlink:href="#ArialMT-61" transform="translate(833.691406 0)"/>
                            <use xlink:href="#ArialMT-72" transform="translate(889.306641 0)"/>
                            <use xlink:href="#ArialMT-64" transform="translate(922.607422 0)"/>
                        </g>
                    </g>
                </g>
                <g id="text_7">
                    <!-- split_type -->
                    <g style="fill: #262626" transform="translate(342.158814 841.326888) scale(0.18 -0.18)">
                        <defs>
                            <path id="ArialMT-79" d="M 397 -1278
L 334 -750 
Q 519 -800 656 -800 
Q 844 -800 956 -737 
Q 1069 -675 1141 -563 
Q 1194 -478 1313 -144 
Q 1328 -97 1363 -6 
L 103 3319 
L 709 3319 
L 1400 1397 
Q 1534 1031 1641 628 
Q 1738 1016 1872 1384 
L 2581 3319 
L 3144 3319 
L 1881 -56 
Q 1678 -603 1566 -809 
Q 1416 -1088 1222 -1217 
Q 1028 -1347 759 -1347 
Q 597 -1347 397 -1278 
z
" transform="scale(0.015625)"/>
                        </defs>
                        <use xlink:href="#ArialMT-73"/>
                        <use xlink:href="#ArialMT-70" transform="translate(50 0)"/>
                        <use xlink:href="#ArialMT-6c" transform="translate(105.615234 0)"/>
                        <use xlink:href="#ArialMT-69" transform="translate(127.832031 0)"/>
                        <use xlink:href="#ArialMT-74" transform="translate(150.048828 0)"/>
                        <use xlink:href="#ArialMT-5f" transform="translate(177.832031 0)"/>
                        <use xlink:href="#ArialMT-74" transform="translate(233.447266 0)"/>
                        <use xlink:href="#ArialMT-79" transform="translate(261.230469 0)"/>
                        <use xlink:href="#ArialMT-70" transform="translate(311.230469 0)"/>
                        <use xlink:href="#ArialMT-65" transform="translate(366.845703 0)"/>
                    </g>
                </g>
            </g>
            <g id="matplotlib.axis_2">
                <g id="ytick_1">
                    <g id="line2d_1">
                        <path d="M 61.68 636.071852
L 698.676378 636.071852 
" clip-path="url(#p54bf4768dd)" style="fill: none; stroke: #cccccc; stroke-width: 1.5; stroke-linecap: round"/>
                    </g>
                    <g id="text_8">
                        <!-- 0 -->
                        <g style="fill: #262626" transform="translate(40.004453 641.977047) scale(0.165 -0.165)">
                            <defs>
                                <path id="ArialMT-30" d="M 266 2259
Q 266 3072 433 3567 
Q 600 4063 929 4331 
Q 1259 4600 1759 4600 
Q 2128 4600 2406 4451 
Q 2684 4303 2865 4023 
Q 3047 3744 3150 3342 
Q 3253 2941 3253 2259 
Q 3253 1453 3087 958 
Q 2922 463 2592 192 
Q 2263 -78 1759 -78 
Q 1097 -78 719 397 
Q 266 969 266 2259 
z
M 844 2259 
Q 844 1131 1108 757 
Q 1372 384 1759 384 
Q 2147 384 2411 759 
Q 2675 1134 2675 2259 
Q 2675 3391 2411 3762 
Q 2147 4134 1753 4134 
Q 1366 4134 1134 3806 
Q 844 3388 844 2259 
z
" transform="scale(0.015625)"/>
                            </defs>
                            <use xlink:href="#ArialMT-30"/>
                        </g>
                    </g>
                </g>
                <g id="ytick_2">
                    <g id="line2d_2">
                        <path d="M 61.68 562.983471
L 698.676378 562.983471 
" clip-path="url(#p54bf4768dd)" style="fill: none; stroke: #cccccc; stroke-width: 1.5; stroke-linecap: round"/>
                    </g>
                    <g id="text_9">
                        <!-- 1 -->
                        <g style="fill: #262626" transform="translate(40.004453 568.888666) scale(0.165 -0.165)">
                            <use xlink:href="#ArialMT-31"/>
                        </g>
                    </g>
                </g>
                <g id="ytick_3">
                    <g id="line2d_3">
                        <path d="M 61.68 489.895089
L 698.676378 489.895089 
" clip-path="url(#p54bf4768dd)" style="fill: none; stroke: #cccccc; stroke-width: 1.5; stroke-linecap: round"/>
                    </g>
                    <g id="text_10">
                        <!-- 2 -->
                        <g style="fill: #262626" transform="translate(40.004453 495.800285) scale(0.165 -0.165)">
                            <defs>
                                <path id="ArialMT-32" d="M 3222 541
L 3222 0 
L 194 0 
Q 188 203 259 391 
Q 375 700 629 1000 
Q 884 1300 1366 1694 
Q 2113 2306 2375 2664 
Q 2638 3022 2638 3341 
Q 2638 3675 2398 3904 
Q 2159 4134 1775 4134 
Q 1369 4134 1125 3890 
Q 881 3647 878 3216 
L 300 3275 
Q 359 3922 746 4261 
Q 1134 4600 1788 4600 
Q 2447 4600 2831 4234 
Q 3216 3869 3216 3328 
Q 3216 3053 3103 2787 
Q 2991 2522 2730 2228 
Q 2469 1934 1863 1422 
Q 1356 997 1212 845 
Q 1069 694 975 541 
L 3222 541 
z
" transform="scale(0.015625)"/>
                            </defs>
                            <use xlink:href="#ArialMT-32"/>
                        </g>
                    </g>
                </g>
                <g id="ytick_4">
                    <g id="line2d_4">
                        <path d="M 61.68 416.806708
L 698.676378 416.806708 
" clip-path="url(#p54bf4768dd)" style="fill: none; stroke: #cccccc; stroke-width: 1.5; stroke-linecap: round"/>
                    </g>
                    <g id="text_11">
                        <!-- 3 -->
                        <g style="fill: #262626" transform="translate(40.004453 422.711903) scale(0.165 -0.165)">
                            <defs>
                                <path id="ArialMT-33" d="M 269 1209
L 831 1284 
Q 928 806 1161 595 
Q 1394 384 1728 384 
Q 2125 384 2398 659 
Q 2672 934 2672 1341 
Q 2672 1728 2419 1979 
Q 2166 2231 1775 2231 
Q 1616 2231 1378 2169 
L 1441 2663 
Q 1497 2656 1531 2656 
Q 1891 2656 2178 2843 
Q 2466 3031 2466 3422 
Q 2466 3731 2256 3934 
Q 2047 4138 1716 4138 
Q 1388 4138 1169 3931 
Q 950 3725 888 3313 
L 325 3413 
Q 428 3978 793 4289 
Q 1159 4600 1703 4600 
Q 2078 4600 2393 4439 
Q 2709 4278 2876 4000 
Q 3044 3722 3044 3409 
Q 3044 3113 2884 2869 
Q 2725 2625 2413 2481 
Q 2819 2388 3044 2092 
Q 3269 1797 3269 1353 
Q 3269 753 2831 336 
Q 2394 -81 1725 -81 
Q 1122 -81 723 278 
Q 325 638 269 1209 
z
" transform="scale(0.015625)"/>
                            </defs>
                            <use xlink:href="#ArialMT-33"/>
                        </g>
                    </g>
                </g>
                <g id="ytick_5">
                    <g id="line2d_5">
                        <path d="M 61.68 343.718327
L 698.676378 343.718327 
" clip-path="url(#p54bf4768dd)" style="fill: none; stroke: #cccccc; stroke-width: 1.5; stroke-linecap: round"/>
                    </g>
                    <g id="text_12">
                        <!-- 4 -->
                        <g style="fill: #262626" transform="translate(40.004453 349.623522) scale(0.165 -0.165)">
                            <defs>
                                <path id="ArialMT-34" d="M 2069 0
L 2069 1097 
L 81 1097 
L 81 1613 
L 2172 4581 
L 2631 4581 
L 2631 1613 
L 3250 1613 
L 3250 1097 
L 2631 1097 
L 2631 0 
L 2069 0 
z
M 2069 1613 
L 2069 3678 
L 634 1613 
L 2069 1613 
z
" transform="scale(0.015625)"/>
                            </defs>
                            <use xlink:href="#ArialMT-34"/>
                        </g>
                    </g>
                </g>
                <g id="ytick_6">
                    <g id="line2d_6">
                        <path d="M 61.68 270.629946
L 698.676378 270.629946 
" clip-path="url(#p54bf4768dd)" style="fill: none; stroke: #cccccc; stroke-width: 1.5; stroke-linecap: round"/>
                    </g>
                    <g id="text_13">
                        <!-- 5 -->
                        <g style="fill: #262626" transform="translate(40.004453 276.535141) scale(0.165 -0.165)">
                            <defs>
                                <path id="ArialMT-35" d="M 266 1200
L 856 1250 
Q 922 819 1161 601 
Q 1400 384 1738 384 
Q 2144 384 2425 690 
Q 2706 997 2706 1503 
Q 2706 1984 2436 2262 
Q 2166 2541 1728 2541 
Q 1456 2541 1237 2417 
Q 1019 2294 894 2097 
L 366 2166 
L 809 4519 
L 3088 4519 
L 3088 3981 
L 1259 3981 
L 1013 2750 
Q 1425 3038 1878 3038 
Q 2478 3038 2890 2622 
Q 3303 2206 3303 1553 
Q 3303 931 2941 478 
Q 2500 -78 1738 -78 
Q 1113 -78 717 272 
Q 322 622 266 1200 
z
" transform="scale(0.015625)"/>
                            </defs>
                            <use xlink:href="#ArialMT-35"/>
                        </g>
                    </g>
                </g>
                <g id="ytick_7">
                    <g id="line2d_7">
                        <path d="M 61.68 197.541565
L 698.676378 197.541565 
" clip-path="url(#p54bf4768dd)" style="fill: none; stroke: #cccccc; stroke-width: 1.5; stroke-linecap: round"/>
                    </g>
                    <g id="text_14">
                        <!-- 6 -->
                        <g style="fill: #262626" transform="translate(40.004453 203.44676) scale(0.165 -0.165)">
                            <defs>
                                <path id="ArialMT-36" d="M 3184 3459
L 2625 3416 
Q 2550 3747 2413 3897 
Q 2184 4138 1850 4138 
Q 1581 4138 1378 3988 
Q 1113 3794 959 3422 
Q 806 3050 800 2363 
Q 1003 2672 1297 2822 
Q 1591 2972 1913 2972 
Q 2475 2972 2870 2558 
Q 3266 2144 3266 1488 
Q 3266 1056 3080 686 
Q 2894 316 2569 119 
Q 2244 -78 1831 -78 
Q 1128 -78 684 439 
Q 241 956 241 2144 
Q 241 3472 731 4075 
Q 1159 4600 1884 4600 
Q 2425 4600 2770 4297 
Q 3116 3994 3184 3459 
z
M 888 1484 
Q 888 1194 1011 928 
Q 1134 663 1356 523 
Q 1578 384 1822 384 
Q 2178 384 2434 671 
Q 2691 959 2691 1453 
Q 2691 1928 2437 2201 
Q 2184 2475 1800 2475 
Q 1419 2475 1153 2201 
Q 888 1928 888 1484 
z
" transform="scale(0.015625)"/>
                            </defs>
                            <use xlink:href="#ArialMT-36"/>
                        </g>
                    </g>
                </g>
                <g id="ytick_8">
                    <g id="line2d_8">
                        <path d="M 61.68 124.453183
L 698.676378 124.453183 
" clip-path="url(#p54bf4768dd)" style="fill: none; stroke: #cccccc; stroke-width: 1.5; stroke-linecap: round"/>
                    </g>
                    <g id="text_15">
                        <!-- 7 -->
                        <g style="fill: #262626" transform="translate(40.004453 130.358379) scale(0.165 -0.165)">
                            <defs>
                                <path id="ArialMT-37" d="M 303 3981
L 303 4522 
L 3269 4522 
L 3269 4084 
Q 2831 3619 2401 2847 
Q 1972 2075 1738 1259 
Q 1569 684 1522 0 
L 944 0 
Q 953 541 1156 1306 
Q 1359 2072 1739 2783 
Q 2119 3494 2547 3981 
L 303 3981 
z
" transform="scale(0.015625)"/>
                            </defs>
                            <use xlink:href="#ArialMT-37"/>
                        </g>
                    </g>
                </g>
                <g id="ytick_9">
                    <g id="line2d_9">
                        <path d="M 61.68 51.364802
L 698.676378 51.364802 
" clip-path="url(#p54bf4768dd)" style="fill: none; stroke: #cccccc; stroke-width: 1.5; stroke-linecap: round"/>
                    </g>
                    <g id="text_16">
                        <!-- 8 -->
                        <g style="fill: #262626" transform="translate(40.004453 57.269998) scale(0.165 -0.165)">
                            <use xlink:href="#ArialMT-38"/>
                        </g>
                    </g>
                </g>
                <g id="text_17">
                    <!-- rmse -->
                    <g style="fill: #262626" transform="translate(32.426953 366.488597) rotate(-90) scale(0.18 -0.18)">
                        <use xlink:href="#ArialMT-72"/>
                        <use xlink:href="#ArialMT-6d" transform="translate(33.300781 0)"/>
                        <use xlink:href="#ArialMT-73" transform="translate(116.601562 0)"/>
                        <use xlink:href="#ArialMT-65" transform="translate(166.601562 0)"/>
                    </g>
                </g>
            </g>
            <g id="FillBetweenPolyCollection_1">
                <defs>
                    <path id="me769efd1e7" d="M 130.575767 -238.756339
L 130.567149 -238.756339 
L 130.55675 -240.558994 
L 130.539852 -242.361649 
L 130.514692 -244.164304 
L 130.438391 -245.966959 
L 130.218212 -247.769614 
L 129.78082 -249.572269 
L 129.119608 -251.374924 
L 128.252113 -253.177579 
L 127.152177 -254.980234 
L 125.686961 -256.782888 
L 123.5849 -258.585543 
L 120.628224 -260.388198 
L 116.906179 -262.190853 
L 112.662021 -263.993508 
L 108.053035 -265.796163 
L 103.120934 -267.598818 
L 98.083073 -269.401473 
L 93.707358 -271.204128 
L 91.045708 -273.006783 
L 90.634381 -274.809437 
L 92.093031 -276.612092 
L 94.541679 -278.414747 
L 97.268834 -280.217402 
L 99.791207 -282.020057 
L 102.043211 -283.822712 
L 104.681824 -285.625367 
L 108.064807 -287.428022 
L 111.697693 -289.230677 
L 115.070794 -291.033332 
L 117.910298 -292.835986 
L 120.04509 -294.638641 
L 121.681588 -296.441296 
L 123.158947 -298.243951 
L 124.580903 -300.046606 
L 125.885185 -301.849261 
L 126.991098 -303.651916 
L 127.875415 -305.454571 
L 128.530028 -307.257226 
L 128.965872 -309.059881 
L 129.257689 -310.862535 
L 129.499156 -312.66519 
L 129.735233 -314.467845 
L 129.939114 -316.2705 
L 130.073351 -318.073155 
L 130.137678 -319.87581 
L 130.164561 -321.678465 
L 130.187549 -323.48112 
L 130.20725 -325.283775 
L 130.236967 -327.08643 
L 130.299275 -328.889084 
L 130.363434 -330.691739 
L 130.390431 -332.494394 
L 130.395359 -334.297049 
L 130.413957 -336.099704 
L 130.448359 -337.902359 
L 130.472293 -339.705014 
L 130.474464 -341.507669 
L 130.471076 -343.310324 
L 130.474401 -345.112979 
L 130.478311 -346.915633 
L 130.481837 -348.718288 
L 130.487898 -350.520943 
L 130.484717 -352.323598 
L 130.469537 -354.126253 
L 130.446231 -355.928908 
L 130.407893 -357.731563 
L 130.359503 -359.534218 
L 130.322712 -361.336873 
L 130.317025 -363.139528 
L 130.342913 -364.942182 
L 130.387277 -366.744837 
L 130.435417 -368.547492 
L 130.470092 -370.350147 
L 130.487918 -372.152802 
L 130.505225 -373.955457 
L 130.518534 -375.758112 
L 130.506541 -377.560767 
L 130.480102 -379.363422 
L 130.471304 -381.166077 
L 130.478769 -382.968731 
L 130.476873 -384.771386 
L 130.466274 -386.574041 
L 130.471737 -388.376696 
L 130.497351 -390.179351 
L 130.520039 -391.982006 
L 130.532952 -393.784661 
L 130.542501 -395.587316 
L 130.543312 -397.389971 
L 130.538719 -399.192626 
L 130.543819 -400.99528 
L 130.557418 -402.797935 
L 130.56712 -404.60059 
L 130.569147 -406.403245 
L 130.563947 -408.2059 
L 130.551507 -410.008555 
L 130.540553 -411.81121 
L 130.543782 -413.613865 
L 130.557132 -415.41652 
L 130.567172 -417.219175 
L 130.575744 -417.219175 
L 130.575744 -417.219175 
L 130.585784 -415.41652 
L 130.599134 -413.613865 
L 130.602363 -411.81121 
L 130.591409 -410.008555 
L 130.578969 -408.2059 
L 130.573769 -406.403245 
L 130.575796 -404.60059 
L 130.585498 -402.797935 
L 130.599097 -400.99528 
L 130.604197 -399.192626 
L 130.599604 -397.389971 
L 130.600415 -395.587316 
L 130.609964 -393.784661 
L 130.622876 -391.982006 
L 130.645564 -390.179351 
L 130.671179 -388.376696 
L 130.676642 -386.574041 
L 130.666043 -384.771386 
L 130.664147 -382.968731 
L 130.671611 -381.166077 
L 130.662813 -379.363422 
L 130.636375 -377.560767 
L 130.624382 -375.758112 
L 130.637691 -373.955457 
L 130.654997 -372.152802 
L 130.672824 -370.350147 
L 130.707498 -368.547492 
L 130.755639 -366.744837 
L 130.800003 -364.942182 
L 130.82589 -363.139528 
L 130.820203 -361.336873 
L 130.783413 -359.534218 
L 130.735023 -357.731563 
L 130.696685 -355.928908 
L 130.673379 -354.126253 
L 130.658198 -352.323598 
L 130.655018 -350.520943 
L 130.661079 -348.718288 
L 130.664604 -346.915633 
L 130.668514 -345.112979 
L 130.67184 -343.310324 
L 130.668451 -341.507669 
L 130.670623 -339.705014 
L 130.694556 -337.902359 
L 130.728959 -336.099704 
L 130.747556 -334.297049 
L 130.752485 -332.494394 
L 130.779482 -330.691739 
L 130.84364 -328.889084 
L 130.905949 -327.08643 
L 130.935665 -325.283775 
L 130.955367 -323.48112 
L 130.978354 -321.678465 
L 131.005238 -319.87581 
L 131.069565 -318.073155 
L 131.203801 -316.2705 
L 131.407683 -314.467845 
L 131.64376 -312.66519 
L 131.885227 -310.862535 
L 132.177044 -309.059881 
L 132.612888 -307.257226 
L 133.2675 -305.454571 
L 134.151818 -303.651916 
L 135.25773 -301.849261 
L 136.562013 -300.046606 
L 137.983969 -298.243951 
L 139.461328 -296.441296 
L 141.097826 -294.638641 
L 143.232618 -292.835986 
L 146.072121 -291.033332 
L 149.445222 -289.230677 
L 153.078109 -287.428022 
L 156.461092 -285.625367 
L 159.099705 -283.822712 
L 161.351708 -282.020057 
L 163.874081 -280.217402 
L 166.601236 -278.414747 
L 169.049885 -276.612092 
L 170.508535 -274.809437 
L 170.097208 -273.006783 
L 167.435558 -271.204128 
L 163.059843 -269.401473 
L 158.021981 -267.598818 
L 153.089881 -265.796163 
L 148.480895 -263.993508 
L 144.236737 -262.190853 
L 140.514691 -260.388198 
L 137.558015 -258.585543 
L 135.455954 -256.782888 
L 133.990738 -254.980234 
L 132.890803 -253.177579 
L 132.023308 -251.374924 
L 131.362095 -249.572269 
L 130.924704 -247.769614 
L 130.704525 -245.966959 
L 130.628223 -244.164304 
L 130.603064 -242.361649 
L 130.586166 -240.558994 
L 130.575767 -238.756339 
z
" style="stroke: #3d3d3d; stroke-width: 1.875"/>
                </defs>
                <g clip-path="url(#p54bf4768dd)">
                    <use xlink:href="#me769efd1e7" x="0" y="864"
                         style="fill: #3274a1; stroke: #3d3d3d; stroke-width: 1.875"/>
                </g>
            </g>
            <g id="FillBetweenPolyCollection_2">
                <defs>
                    <path id="m5353b5848e" d="M 230.425851 -236.595058
L 230.40245 -236.595058 
L 230.370568 -239.109807 
L 230.297289 -241.624556 
L 230.169327 -244.139305 
L 229.955317 -246.654054 
L 229.539512 -249.168803 
L 228.720287 -251.683552 
L 227.32456 -254.198301 
L 225.26795 -256.71305 
L 222.503115 -259.227799 
L 219.037737 -261.742548 
L 214.943079 -264.257297 
L 210.292317 -266.772046 
L 205.390984 -269.286795 
L 200.921947 -271.801545 
L 197.399974 -274.316294 
L 194.715601 -276.831043 
L 192.511892 -279.345792 
L 190.912015 -281.860541 
L 190.477073 -284.37529 
L 191.352259 -286.890039 
L 193.110873 -289.404788 
L 195.487769 -291.919537 
L 198.47643 -294.434286 
L 201.809201 -296.949035 
L 205.209094 -299.463784 
L 208.793624 -301.978533 
L 212.538533 -304.493282 
L 215.975468 -307.008031 
L 218.689255 -309.522781 
L 220.641296 -312.03753 
L 222.033162 -314.552279 
L 223.087135 -317.067028 
L 223.929752 -319.581777 
L 224.630561 -322.096526 
L 225.286855 -324.611275 
L 225.989266 -327.126024 
L 226.73863 -329.640773 
L 227.433479 -332.155522 
L 227.957253 -334.670271 
L 228.30018 -337.18502 
L 228.560361 -339.699769 
L 228.805085 -342.214518 
L 229.024117 -344.729267 
L 229.209335 -347.244017 
L 229.385129 -349.758766 
L 229.571868 -352.273515 
L 229.744355 -354.788264 
L 229.86184 -357.303013 
L 229.936411 -359.817762 
L 230.001781 -362.332511 
L 230.062607 -364.84726 
L 230.119901 -367.362009 
L 230.16703 -369.876758 
L 230.181855 -372.391507 
L 230.166634 -374.906256 
L 230.136258 -377.421005 
L 230.076472 -379.935754 
L 229.991437 -382.450503 
L 229.945214 -384.965253 
L 229.969549 -387.480002 
L 230.023485 -389.994751 
L 230.077183 -392.5095 
L 230.129853 -395.024249 
L 230.179427 -397.538998 
L 230.223471 -400.053747 
L 230.257952 -402.568496 
L 230.284984 -405.083245 
L 230.315536 -407.597994 
L 230.345818 -410.112743 
L 230.357749 -412.627492 
L 230.345802 -415.142241 
L 230.322006 -417.65699 
L 230.309474 -420.17174 
L 230.32747 -422.686489 
L 230.365459 -425.201238 
L 230.396171 -427.715987 
L 230.40984 -430.230736 
L 230.413468 -432.745485 
L 230.413911 -435.260234 
L 230.412939 -437.774983 
L 230.408765 -440.289732 
L 230.398712 -442.804481 
L 230.385138 -445.31923 
L 230.376074 -447.833979 
L 230.373831 -450.348728 
L 230.374408 -452.863477 
L 230.379598 -455.378226 
L 230.390036 -457.892976 
L 230.394641 -460.407725 
L 230.382032 -462.922474 
L 230.355768 -465.437223 
L 230.332669 -467.951972 
L 230.322806 -470.466721 
L 230.321265 -472.98147 
L 230.325886 -475.496219 
L 230.343028 -478.010968 
L 230.370743 -480.525717 
L 230.395478 -483.040466 
L 230.40871 -485.555215 
L 230.419591 -485.555215 
L 230.419591 -485.555215 
L 230.432822 -483.040466 
L 230.457558 -480.525717 
L 230.485273 -478.010968 
L 230.502415 -475.496219 
L 230.507036 -472.98147 
L 230.505495 -470.466721 
L 230.495632 -467.951972 
L 230.472533 -465.437223 
L 230.446269 -462.922474 
L 230.43366 -460.407725 
L 230.438265 -457.892976 
L 230.448702 -455.378226 
L 230.453893 -452.863477 
L 230.45447 -450.348728 
L 230.452227 -447.833979 
L 230.443162 -445.31923 
L 230.429589 -442.804481 
L 230.419536 -440.289732 
L 230.415361 -437.774983 
L 230.41439 -435.260234 
L 230.414833 -432.745485 
L 230.41846 -430.230736 
L 230.43213 -427.715987 
L 230.462842 -425.201238 
L 230.500831 -422.686489 
L 230.518827 -420.17174 
L 230.506295 -417.65699 
L 230.482499 -415.142241 
L 230.470552 -412.627492 
L 230.482483 -410.112743 
L 230.512764 -407.597994 
L 230.543317 -405.083245 
L 230.570349 -402.568496 
L 230.60483 -400.053747 
L 230.648874 -397.538998 
L 230.698448 -395.024249 
L 230.751117 -392.5095 
L 230.804816 -389.994751 
L 230.858752 -387.480002 
L 230.883086 -384.965253 
L 230.836864 -382.450503 
L 230.751829 -379.935754 
L 230.692043 -377.421005 
L 230.661667 -374.906256 
L 230.646446 -372.391507 
L 230.661271 -369.876758 
L 230.7084 -367.362009 
L 230.765693 -364.84726 
L 230.82652 -362.332511 
L 230.89189 -359.817762 
L 230.96646 -357.303013 
L 231.083946 -354.788264 
L 231.256433 -352.273515 
L 231.443171 -349.758766 
L 231.618965 -347.244017 
L 231.804184 -344.729267 
L 232.023216 -342.214518 
L 232.26794 -339.699769 
L 232.528121 -337.18502 
L 232.871047 -334.670271 
L 233.394822 -332.155522 
L 234.089671 -329.640773 
L 234.839035 -327.126024 
L 235.541445 -324.611275 
L 236.197739 -322.096526 
L 236.898549 -319.581777 
L 237.741166 -317.067028 
L 238.795139 -314.552279 
L 240.187005 -312.03753 
L 242.139046 -309.522781 
L 244.852833 -307.008031 
L 248.289768 -304.493282 
L 252.034677 -301.978533 
L 255.619207 -299.463784 
L 259.0191 -296.949035 
L 262.35187 -294.434286 
L 265.340531 -291.919537 
L 267.717428 -289.404788 
L 269.476041 -286.890039 
L 270.351227 -284.37529 
L 269.916286 -281.860541 
L 268.316409 -279.345792 
L 266.112699 -276.831043 
L 263.428327 -274.316294 
L 259.906354 -271.801545 
L 255.437316 -269.286795 
L 250.535984 -266.772046 
L 245.885222 -264.257297 
L 241.790564 -261.742548 
L 238.325186 -259.227799 
L 235.56035 -256.71305 
L 233.503741 -254.198301 
L 232.108014 -251.683552 
L 231.288788 -249.168803 
L 230.872984 -246.654054 
L 230.658974 -244.139305 
L 230.531012 -241.624556 
L 230.457733 -239.109807 
L 230.425851 -236.595058 
z
" style="stroke: #3d3d3d; stroke-width: 1.875"/>
                </defs>
                <g clip-path="url(#p54bf4768dd)">
                    <use xlink:href="#m5353b5848e" x="0" y="864"
                         style="fill: #e1812c; stroke: #3d3d3d; stroke-width: 1.875"/>
                </g>
            </g>
            <g id="FillBetweenPolyCollection_3">
                <defs>
                    <path id="mf1e39b2b8f" d="M 330.273818 -239.79451
L 330.239868 -239.79451 
L 330.135061 -243.888308 
L 329.789457 -247.982105 
L 329.051604 -252.075903 
L 327.639244 -256.169701 
L 324.76196 -260.263499 
L 319.477998 -264.357297 
L 311.880304 -268.451094 
L 303.335114 -272.544892 
L 296.026021 -276.63869 
L 291.388211 -280.732488 
L 290.319766 -284.826285 
L 293.133104 -288.920083 
L 298.104931 -293.013881 
L 303.731793 -297.107679 
L 309.463311 -301.201477 
L 314.779517 -305.295274 
L 319.128331 -309.389072 
L 322.116051 -313.48287 
L 324.00239 -317.576668 
L 325.521101 -321.670465 
L 326.776985 -325.764263 
L 327.489826 -329.858061 
L 327.864358 -333.951859 
L 328.209925 -338.045657 
L 328.557361 -342.139454 
L 328.883683 -346.233252 
L 329.101693 -350.32705 
L 329.230226 -354.420848 
L 329.417526 -358.514646 
L 329.53881 -362.608443 
L 329.531104 -366.702241 
L 329.570371 -370.796039 
L 329.619432 -374.889837 
L 329.637618 -378.983634 
L 329.67205 -383.077432 
L 329.67849 -387.17123 
L 329.672363 -391.265028 
L 329.755824 -395.358826 
L 329.887118 -399.452623 
L 329.96354 -403.546421 
L 329.998134 -407.640219 
L 330.036498 -411.734017 
L 330.095646 -415.827814 
L 330.134886 -419.921612 
L 330.153477 -424.01541 
L 330.180853 -428.109208 
L 330.21477 -432.203006 
L 330.22599 -436.296803 
L 330.220452 -440.390601 
L 330.219234 -444.484399 
L 330.222206 -448.578197 
L 330.224544 -452.671995 
L 330.234202 -456.765792 
L 330.246648 -460.85959 
L 330.241599 -464.953388 
L 330.230704 -469.047186 
L 330.23857 -473.140983 
L 330.251921 -477.234781 
L 330.25633 -481.328579 
L 330.256693 -485.422377 
L 330.254893 -489.516175 
L 330.245601 -493.609972 
L 330.231909 -497.70377 
L 330.23557 -501.797568 
L 330.249809 -505.891366 
L 330.254929 -509.985163 
L 330.249095 -514.078961 
L 330.234738 -518.172759 
L 330.232454 -522.266557 
L 330.246492 -526.360355 
L 330.255153 -530.454152 
L 330.256737 -534.54795 
L 330.25684 -538.641748 
L 330.256843 -542.735546 
L 330.256843 -546.829344 
L 330.256843 -550.923141 
L 330.256843 -555.016939 
L 330.256843 -559.110737 
L 330.256843 -563.204535 
L 330.256843 -567.298332 
L 330.256843 -571.39213 
L 330.256843 -575.485928 
L 330.256843 -579.579726 
L 330.256843 -583.673524 
L 330.256843 -587.767321 
L 330.256842 -591.861119 
L 330.256799 -595.954917 
L 330.255949 -600.048715 
L 330.2498 -604.142512 
L 330.235495 -608.23631 
L 330.231954 -612.330108 
L 330.245682 -616.423906 
L 330.254903 -620.517704 
L 330.256308 -624.611501 
L 330.252595 -628.705299 
L 330.239817 -632.799097 
L 330.230573 -636.892895 
L 330.241253 -640.986693 
L 330.253284 -645.08049 
L 330.260402 -645.08049 
L 330.260402 -645.08049 
L 330.272433 -640.986693 
L 330.283113 -636.892895 
L 330.273869 -632.799097 
L 330.261091 -628.705299 
L 330.257378 -624.611501 
L 330.258783 -620.517704 
L 330.268004 -616.423906 
L 330.281732 -612.330108 
L 330.278191 -608.23631 
L 330.263886 -604.142512 
L 330.257737 -600.048715 
L 330.256887 -595.954917 
L 330.256844 -591.861119 
L 330.256843 -587.767321 
L 330.256843 -583.673524 
L 330.256843 -579.579726 
L 330.256843 -575.485928 
L 330.256843 -571.39213 
L 330.256843 -567.298332 
L 330.256843 -563.204535 
L 330.256843 -559.110737 
L 330.256843 -555.016939 
L 330.256843 -550.923141 
L 330.256843 -546.829344 
L 330.256843 -542.735546 
L 330.256846 -538.641748 
L 330.256949 -534.54795 
L 330.258533 -530.454152 
L 330.267194 -526.360355 
L 330.281232 -522.266557 
L 330.278948 -518.172759 
L 330.264591 -514.078961 
L 330.258757 -509.985163 
L 330.263877 -505.891366 
L 330.278116 -501.797568 
L 330.281777 -497.70377 
L 330.268085 -493.609972 
L 330.258793 -489.516175 
L 330.256993 -485.422377 
L 330.257356 -481.328579 
L 330.261764 -477.234781 
L 330.275116 -473.140983 
L 330.282982 -469.047186 
L 330.272087 -464.953388 
L 330.267037 -460.85959 
L 330.279484 -456.765792 
L 330.289142 -452.671995 
L 330.29148 -448.578197 
L 330.294452 -444.484399 
L 330.293234 -440.390601 
L 330.287696 -436.296803 
L 330.298915 -432.203006 
L 330.332833 -428.109208 
L 330.360209 -424.01541 
L 330.3788 -419.921612 
L 330.41804 -415.827814 
L 330.477188 -411.734017 
L 330.515552 -407.640219 
L 330.550146 -403.546421 
L 330.626568 -399.452623 
L 330.757862 -395.358826 
L 330.841323 -391.265028 
L 330.835196 -387.17123 
L 330.841636 -383.077432 
L 330.876067 -378.983634 
L 330.894254 -374.889837 
L 330.943315 -370.796039 
L 330.982582 -366.702241 
L 330.974876 -362.608443 
L 331.09616 -358.514646 
L 331.283459 -354.420848 
L 331.411993 -350.32705 
L 331.630003 -346.233252 
L 331.956325 -342.139454 
L 332.303761 -338.045657 
L 332.649328 -333.951859 
L 333.02386 -329.858061 
L 333.7367 -325.764263 
L 334.992584 -321.670465 
L 336.511296 -317.576668 
L 338.397635 -313.48287 
L 341.385355 -309.389072 
L 345.734169 -305.295274 
L 351.050375 -301.201477 
L 356.781893 -297.107679 
L 362.408755 -293.013881 
L 367.380582 -288.920083 
L 370.19392 -284.826285 
L 369.125475 -280.732488 
L 364.487664 -276.63869 
L 357.178572 -272.544892 
L 348.633382 -268.451094 
L 341.035688 -264.357297 
L 335.751726 -260.263499 
L 332.874442 -256.169701 
L 331.462082 -252.075903 
L 330.724229 -247.982105 
L 330.378625 -243.888308 
L 330.273818 -239.79451 
z
" style="stroke: #3d3d3d; stroke-width: 1.875"/>
                </defs>
                <g clip-path="url(#p54bf4768dd)">
                    <use xlink:href="#mf1e39b2b8f" x="0" y="864"
                         style="fill: #3a923a; stroke: #3d3d3d; stroke-width: 1.875"/>
                </g>
            </g>
            <g id="FillBetweenPolyCollection_4">
                <defs>
                    <path id="m17194c5921" d="M 430.112719 -237.402075
L 430.086352 -237.402075 
L 430.015068 -241.587853 
L 429.804684 -245.77363 
L 429.364684 -249.959407 
L 428.42381 -254.145185 
L 426.493666 -258.330962 
L 423.157828 -262.516739 
L 417.959602 -266.702517 
L 410.752276 -270.888294 
L 402.461845 -275.074071 
L 394.910541 -279.259849 
L 390.162458 -283.445626 
L 390.424378 -287.631403 
L 395.353187 -291.817181 
L 401.490115 -296.002958 
L 406.811272 -300.188735 
L 411.758926 -304.374513 
L 416.18478 -308.56029 
L 419.666598 -312.746068 
L 422.497058 -316.931845 
L 424.664744 -321.117622 
L 425.917297 -325.3034 
L 426.579663 -329.489177 
L 427.141975 -333.674954 
L 427.685606 -337.860732 
L 428.098022 -342.046509 
L 428.292277 -346.232286 
L 428.457351 -350.418064 
L 428.697698 -354.603841 
L 428.85957 -358.789618 
L 428.876518 -362.975396 
L 428.909195 -367.161173 
L 429.047834 -371.34695 
L 429.232781 -375.532728 
L 429.404322 -379.718505 
L 429.510565 -383.904282 
L 429.567471 -388.09006 
L 429.628037 -392.275837 
L 429.69905 -396.461615 
L 429.76654 -400.647392 
L 429.803143 -404.833169 
L 429.848349 -409.018947 
L 429.923532 -413.204724 
L 429.976403 -417.390501 
L 430.015013 -421.576279 
L 430.06014 -425.762056 
L 430.08306 -429.947833 
L 430.060598 -434.133611 
L 430.004967 -438.319388 
L 429.972185 -442.505165 
L 429.988218 -446.690943 
L 430.018215 -450.87672 
L 430.051004 -455.062497 
L 430.081794 -459.248275 
L 430.096396 -463.434052 
L 430.099298 -467.619829 
L 430.099528 -471.805607 
L 430.099535 -475.991384 
L 430.099536 -480.177162 
L 430.099536 -484.362939 
L 430.099535 -488.548716 
L 430.099534 -492.734494 
L 430.099483 -496.920271 
L 430.098532 -501.106048 
L 430.092118 -505.291826 
L 430.078157 -509.477603 
L 430.075516 -513.66338 
L 430.089015 -517.849158 
L 430.097739 -522.034935 
L 430.099416 -526.220712 
L 430.099532 -530.40649 
L 430.099535 -534.592267 
L 430.099536 -538.778044 
L 430.099536 -542.963822 
L 430.099536 -547.149599 
L 430.099536 -551.335376 
L 430.099536 -555.521154 
L 430.099536 -559.706931 
L 430.099536 -563.892709 
L 430.099536 -568.078486 
L 430.099536 -572.264263 
L 430.099536 -576.450041 
L 430.099536 -580.635818 
L 430.099536 -584.821595 
L 430.099536 -589.007373 
L 430.099535 -593.19315 
L 430.099533 -597.378927 
L 430.09942 -601.564705 
L 430.097782 -605.750482 
L 430.089163 -609.936259 
L 430.07561 -614.122037 
L 430.078021 -618.307814 
L 430.091993 -622.493591 
L 430.098488 -626.679369 
L 430.099042 -630.865146 
L 430.095167 -635.050923 
L 430.082591 -639.236701 
L 430.073904 -643.422478 
L 430.08442 -647.608256 
L 430.096061 -651.794033 
L 430.10301 -651.794033 
L 430.10301 -651.794033 
L 430.114651 -647.608256 
L 430.125167 -643.422478 
L 430.11648 -639.236701 
L 430.103904 -635.050923 
L 430.100029 -630.865146 
L 430.100583 -626.679369 
L 430.107078 -622.493591 
L 430.12105 -618.307814 
L 430.123461 -614.122037 
L 430.109908 -609.936259 
L 430.101289 -605.750482 
L 430.099651 -601.564705 
L 430.099538 -597.378927 
L 430.099536 -593.19315 
L 430.099536 -589.007373 
L 430.099536 -584.821595 
L 430.099536 -580.635818 
L 430.099536 -576.450041 
L 430.099536 -572.264263 
L 430.099536 -568.078486 
L 430.099536 -563.892709 
L 430.099536 -559.706931 
L 430.099536 -555.521154 
L 430.099536 -551.335376 
L 430.099536 -547.149599 
L 430.099536 -542.963822 
L 430.099536 -538.778044 
L 430.099536 -534.592267 
L 430.099539 -530.40649 
L 430.099655 -526.220712 
L 430.101332 -522.034935 
L 430.110056 -517.849158 
L 430.123555 -513.66338 
L 430.120914 -509.477603 
L 430.106953 -505.291826 
L 430.100539 -501.106048 
L 430.099588 -496.920271 
L 430.099537 -492.734494 
L 430.099536 -488.548716 
L 430.099536 -484.362939 
L 430.099536 -480.177162 
L 430.099536 -475.991384 
L 430.099543 -471.805607 
L 430.099773 -467.619829 
L 430.102675 -463.434052 
L 430.117277 -459.248275 
L 430.148067 -455.062497 
L 430.180856 -450.87672 
L 430.210853 -446.690943 
L 430.226886 -442.505165 
L 430.194104 -438.319388 
L 430.138473 -434.133611 
L 430.116011 -429.947833 
L 430.138931 -425.762056 
L 430.184058 -421.576279 
L 430.222668 -417.390501 
L 430.275539 -413.204724 
L 430.350722 -409.018947 
L 430.395928 -404.833169 
L 430.432531 -400.647392 
L 430.500021 -396.461615 
L 430.571034 -392.275837 
L 430.6316 -388.09006 
L 430.688506 -383.904282 
L 430.794749 -379.718505 
L 430.96629 -375.532728 
L 431.151237 -371.34695 
L 431.289876 -367.161173 
L 431.322553 -362.975396 
L 431.339501 -358.789618 
L 431.501373 -354.603841 
L 431.74172 -350.418064 
L 431.906794 -346.232286 
L 432.101049 -342.046509 
L 432.513465 -337.860732 
L 433.057096 -333.674954 
L 433.619408 -329.489177 
L 434.281774 -325.3034 
L 435.534327 -321.117622 
L 437.702013 -316.931845 
L 440.532473 -312.746068 
L 444.014291 -308.56029 
L 448.440145 -304.374513 
L 453.387799 -300.188735 
L 458.708956 -296.002958 
L 464.845884 -291.817181 
L 469.774693 -287.631403 
L 470.036613 -283.445626 
L 465.28853 -279.259849 
L 457.737226 -275.074071 
L 449.446795 -270.888294 
L 442.239469 -266.702517 
L 437.041243 -262.516739 
L 433.705405 -258.330962 
L 431.775261 -254.145185 
L 430.834387 -249.959407 
L 430.394387 -245.77363 
L 430.184003 -241.587853 
L 430.112719 -237.402075 
z
" style="stroke: #3d3d3d; stroke-width: 1.875"/>
                </defs>
                <g clip-path="url(#p54bf4768dd)">
                    <use xlink:href="#m17194c5921" x="0" y="864"
                         style="fill: #c03d3e; stroke: #3d3d3d; stroke-width: 1.875"/>
                </g>
            </g>
            <g id="FillBetweenPolyCollection_5">
                <defs>
                    <path id="ma1c20795ef" d="M 529.947941 -231.222163
L 529.936515 -231.222163 
L 529.910405 -235.626767 
L 529.807487 -240.031372 
L 529.500911 -244.435977 
L 528.802587 -248.840582 
L 527.47961 -253.245186 
L 525.193737 -257.649791 
L 521.585846 -262.054396 
L 516.55367 -266.459001 
L 510.441938 -270.863605 
L 504.013513 -275.26821 
L 498.017453 -279.672815 
L 493.085232 -284.07742 
L 490.151224 -288.482024 
L 490.005151 -292.886629 
L 492.412309 -297.291234 
L 496.405091 -301.695839 
L 501.078619 -306.100443 
L 505.79758 -310.505048 
L 510.160514 -314.909653 
L 514.059767 -319.314258 
L 517.509068 -323.718862 
L 520.375033 -328.123467 
L 522.581681 -332.528072 
L 524.255057 -336.932677 
L 525.475375 -341.337281 
L 526.283389 -345.741886 
L 526.833586 -350.146491 
L 527.287551 -354.551096 
L 527.724996 -358.9557 
L 528.11264 -363.360305 
L 528.375036 -367.76491 
L 528.527096 -372.169515 
L 528.60378 -376.574119 
L 528.646572 -380.978724 
L 528.707702 -385.383329 
L 528.773001 -389.787934 
L 528.846298 -394.192538 
L 528.977256 -398.597143 
L 529.139344 -403.001748 
L 529.234474 -407.406353 
L 529.237441 -411.810957 
L 529.227638 -416.215562 
L 529.281868 -420.620167 
L 529.39109 -425.024772 
L 529.487986 -429.429376 
L 529.525428 -433.833981 
L 529.527362 -438.238586 
L 529.550122 -442.643191 
L 529.61402 -447.047795 
L 529.68299 -451.4524 
L 529.707569 -455.857005 
L 529.682786 -460.26161 
L 529.634303 -464.666214 
L 529.60461 -469.070819 
L 529.621893 -473.475424 
L 529.671166 -477.880029 
L 529.736599 -482.284633 
L 529.793361 -486.689238 
L 529.81445 -491.093843 
L 529.811215 -495.498448 
L 529.811192 -499.903052 
L 529.830061 -504.307657 
L 529.864923 -508.712262 
L 529.899363 -513.116867 
L 529.915284 -517.521471 
L 529.902646 -521.926076 
L 529.873453 -526.330681 
L 529.857704 -530.735286 
L 529.870794 -535.13989 
L 529.900373 -539.544495 
L 529.925797 -543.9491 
L 529.938133 -548.353705 
L 529.941582 -552.758309 
L 529.941837 -557.162914 
L 529.939911 -561.567519 
L 529.933187 -565.972124 
L 529.922178 -570.376728 
L 529.916993 -574.781333 
L 529.924203 -579.185938 
L 529.93492 -583.590542 
L 529.940547 -587.995147 
L 529.942008 -592.399752 
L 529.942212 -596.804357 
L 529.942227 -601.208961 
L 529.94222 -605.613566 
L 529.942107 -610.018171 
L 529.941158 -614.422776 
L 529.936874 -618.82738 
L 529.927023 -623.231985 
L 529.917595 -627.63659 
L 529.918539 -632.041195 
L 529.924351 -636.445799 
L 529.921318 -640.850404 
L 529.911405 -645.255009 
L 529.905555 -649.659614 
L 529.907284 -654.064218 
L 529.916941 -658.468823 
L 529.930151 -662.873428 
L 529.938764 -667.278033 
L 529.945693 -667.278033 
L 529.945693 -667.278033 
L 529.954305 -662.873428 
L 529.967515 -658.468823 
L 529.977172 -654.064218 
L 529.978901 -649.659614 
L 529.973051 -645.255009 
L 529.963138 -640.850404 
L 529.960105 -636.445799 
L 529.965917 -632.041195 
L 529.966861 -627.63659 
L 529.957433 -623.231985 
L 529.947582 -618.82738 
L 529.943299 -614.422776 
L 529.94235 -610.018171 
L 529.942236 -605.613566 
L 529.942229 -601.208961 
L 529.942244 -596.804357 
L 529.942448 -592.399752 
L 529.943909 -587.995147 
L 529.949536 -583.590542 
L 529.960254 -579.185938 
L 529.967463 -574.781333 
L 529.962278 -570.376728 
L 529.951269 -565.972124 
L 529.944545 -561.567519 
L 529.942619 -557.162914 
L 529.942874 -552.758309 
L 529.946323 -548.353705 
L 529.958659 -543.9491 
L 529.984083 -539.544495 
L 530.013662 -535.13989 
L 530.026752 -530.735286 
L 530.011003 -526.330681 
L 529.98181 -521.926076 
L 529.969172 -517.521471 
L 529.985093 -513.116867 
L 530.019533 -508.712262 
L 530.054395 -504.307657 
L 530.073264 -499.903052 
L 530.073241 -495.498448 
L 530.070006 -491.093843 
L 530.091095 -486.689238 
L 530.147857 -482.284633 
L 530.213291 -477.880029 
L 530.262563 -473.475424 
L 530.279846 -469.070819 
L 530.250153 -464.666214 
L 530.20167 -460.26161 
L 530.176887 -455.857005 
L 530.201467 -451.4524 
L 530.270436 -447.047795 
L 530.334334 -442.643191 
L 530.357094 -438.238586 
L 530.359028 -433.833981 
L 530.396471 -429.429376 
L 530.493366 -425.024772 
L 530.602588 -420.620167 
L 530.656818 -416.215562 
L 530.647015 -411.810957 
L 530.649982 -407.406353 
L 530.745112 -403.001748 
L 530.9072 -398.597143 
L 531.038158 -394.192538 
L 531.111455 -389.787934 
L 531.176754 -385.383329 
L 531.237884 -380.978724 
L 531.280676 -376.574119 
L 531.35736 -372.169515 
L 531.50942 -367.76491 
L 531.771816 -363.360305 
L 532.15946 -358.9557 
L 532.596906 -354.551096 
L 533.05087 -350.146491 
L 533.601067 -345.741886 
L 534.409082 -341.337281 
L 535.629399 -336.932677 
L 537.302775 -332.528072 
L 539.509423 -328.123467 
L 542.375388 -323.718862 
L 545.824689 -319.314258 
L 549.723942 -314.909653 
L 554.086876 -310.505048 
L 558.805837 -306.100443 
L 563.479365 -301.695839 
L 567.472147 -297.291234 
L 569.879305 -292.886629 
L 569.733232 -288.482024 
L 566.799224 -284.07742 
L 561.867003 -279.672815 
L 555.870943 -275.26821 
L 549.442518 -270.863605 
L 543.330786 -266.459001 
L 538.29861 -262.054396 
L 534.690719 -257.649791 
L 532.404846 -253.245186 
L 531.081869 -248.840582 
L 530.383545 -244.435977 
L 530.076969 -240.031372 
L 529.974051 -235.626767 
L 529.947941 -231.222163 
z
" style="stroke: #3d3d3d; stroke-width: 1.875"/>
                </defs>
                <g clip-path="url(#p54bf4768dd)">
                    <use xlink:href="#ma1c20795ef" x="0" y="864"
                         style="fill: #9372b2; stroke: #3d3d3d; stroke-width: 1.875"/>
                </g>
            </g>
            <g id="FillBetweenPolyCollection_6">
                <defs>
                    <path id="m3d56a01454" d="M 629.794401 -243.405743
L 629.775441 -243.405743 
L 629.748535 -245.439496 
L 629.667938 -247.473249 
L 629.466726 -249.507002 
L 629.047201 -251.540755 
L 628.309737 -253.574508 
L 627.18478 -255.608261 
L 625.613779 -257.642014 
L 623.489851 -259.675767 
L 620.676841 -261.70952 
L 617.153253 -263.743273 
L 613.104589 -265.777026 
L 608.817932 -267.810779 
L 604.52735 -269.844532 
L 600.392633 -271.878285 
L 596.564831 -273.912038 
L 593.267482 -275.945791 
L 590.876366 -277.979544 
L 589.847844 -280.013297 
L 590.424917 -282.04705 
L 592.41955 -284.080803 
L 595.338184 -286.114556 
L 598.663143 -288.14831 
L 601.997433 -290.182063 
L 605.094156 -292.215816 
L 607.887375 -294.249569 
L 610.461207 -296.283322 
L 612.927803 -298.317075 
L 615.338298 -300.350828 
L 617.664249 -302.384581 
L 619.804601 -304.418334 
L 621.645772 -306.452087 
L 623.152993 -308.48584 
L 624.383583 -310.519593 
L 625.41192 -312.553346 
L 626.265275 -314.587099 
L 626.930228 -316.620852 
L 627.400173 -318.654605 
L 627.706644 -320.688358 
L 627.913653 -322.722111 
L 628.08941 -324.755864 
L 628.274196 -326.789617 
L 628.464106 -328.82337 
L 628.627083 -330.857123 
L 628.739239 -332.890876 
L 628.804654 -334.92463 
L 628.841424 -336.958383 
L 628.860532 -338.992136 
L 628.871284 -341.025889 
L 628.897019 -343.059642 
L 628.959614 -345.093395 
L 629.051514 -347.127148 
L 629.144558 -349.160901 
L 629.218613 -351.194654 
L 629.265612 -353.228407 
L 629.281851 -355.26216 
L 629.274287 -357.295913 
L 629.259868 -359.329666 
L 629.24891 -361.363419 
L 629.245061 -363.397172 
L 629.25903 -365.430925 
L 629.299527 -367.464678 
L 629.352821 -369.498431 
L 629.388077 -371.532184 
L 629.382244 -373.565937 
L 629.337214 -375.59969 
L 629.279964 -377.633443 
L 629.244385 -379.667197 
L 629.247238 -381.70095 
L 629.28372 -383.734703 
L 629.339884 -385.768456 
L 629.399717 -387.802209 
L 629.447369 -389.835962 
L 629.472801 -391.869715 
L 629.476478 -393.903468 
L 629.46813 -395.937221 
L 629.460345 -397.970974 
L 629.461011 -400.004727 
L 629.470205 -402.03848 
L 629.484231 -404.072233 
L 629.501714 -406.105986 
L 629.523395 -408.139739 
L 629.54778 -410.173492 
L 629.572269 -412.207245 
L 629.596945 -414.240998 
L 629.62251 -416.274751 
L 629.646396 -418.308504 
L 629.663303 -420.342257 
L 629.668828 -422.37601 
L 629.663374 -424.409763 
L 629.653852 -426.443517 
L 629.65103 -428.47727 
L 629.662598 -430.511023 
L 629.686526 -432.544776 
L 629.713089 -434.578529 
L 629.734903 -436.612282 
L 629.7517 -438.646035 
L 629.76532 -440.679788 
L 629.775457 -442.713541 
L 629.781373 -444.747294 
L 629.788468 -444.747294 
L 629.788468 -444.747294 
L 629.794384 -442.713541 
L 629.804521 -440.679788 
L 629.818141 -438.646035 
L 629.834938 -436.612282 
L 629.856752 -434.578529 
L 629.883316 -432.544776 
L 629.907244 -430.511023 
L 629.918811 -428.47727 
L 629.915989 -426.443517 
L 629.906468 -424.409763 
L 629.901013 -422.37601 
L 629.906538 -420.342257 
L 629.923445 -418.308504 
L 629.947331 -416.274751 
L 629.972896 -414.240998 
L 629.997572 -412.207245 
L 630.022061 -410.173492 
L 630.046446 -408.139739 
L 630.068127 -406.105986 
L 630.08561 -404.072233 
L 630.099636 -402.03848 
L 630.10883 -400.004727 
L 630.109496 -397.970974 
L 630.101711 -395.937221 
L 630.093364 -393.903468 
L 630.09704 -391.869715 
L 630.122472 -389.835962 
L 630.170125 -387.802209 
L 630.229957 -385.768456 
L 630.286121 -383.734703 
L 630.322604 -381.70095 
L 630.325456 -379.667197 
L 630.289877 -377.633443 
L 630.232627 -375.59969 
L 630.187598 -373.565937 
L 630.181764 -371.532184 
L 630.217021 -369.498431 
L 630.270314 -367.464678 
L 630.310811 -365.430925 
L 630.32478 -363.397172 
L 630.320931 -361.363419 
L 630.309973 -359.329666 
L 630.295554 -357.295913 
L 630.28799 -355.26216 
L 630.304229 -353.228407 
L 630.351228 -351.194654 
L 630.425284 -349.160901 
L 630.518327 -347.127148 
L 630.610227 -345.093395 
L 630.672822 -343.059642 
L 630.698557 -341.025889 
L 630.709309 -338.992136 
L 630.728417 -336.958383 
L 630.765188 -334.92463 
L 630.830602 -332.890876 
L 630.942758 -330.857123 
L 631.105735 -328.82337 
L 631.295645 -326.789617 
L 631.480431 -324.755864 
L 631.656188 -322.722111 
L 631.863197 -320.688358 
L 632.169668 -318.654605 
L 632.639613 -316.620852 
L 633.304566 -314.587099 
L 634.157921 -312.553346 
L 635.186258 -310.519593 
L 636.416849 -308.48584 
L 637.924069 -306.452087 
L 639.76524 -304.418334 
L 641.905592 -302.384581 
L 644.231543 -300.350828 
L 646.642038 -298.317075 
L 649.108634 -296.283322 
L 651.682466 -294.249569 
L 654.475685 -292.215816 
L 657.572408 -290.182063 
L 660.906698 -288.14831 
L 664.231657 -286.114556 
L 667.150291 -284.080803 
L 669.144925 -282.04705 
L 669.721998 -280.013297 
L 668.693475 -277.979544 
L 666.30236 -275.945791 
L 663.00501 -273.912038 
L 659.177208 -271.878285 
L 655.042491 -269.844532 
L 650.751909 -267.810779 
L 646.465252 -265.777026 
L 642.416588 -263.743273 
L 638.893 -261.70952 
L 636.07999 -259.675767 
L 633.956062 -257.642014 
L 632.385061 -255.608261 
L 631.260104 -253.574508 
L 630.522641 -251.540755 
L 630.103115 -249.507002 
L 629.901904 -247.473249 
L 629.821306 -245.439496 
L 629.794401 -243.405743 
z
" style="stroke: #3d3d3d; stroke-width: 1.875"/>
                </defs>
                <g clip-path="url(#p54bf4768dd)">
                    <use xlink:href="#m3d56a01454" x="0" y="864"
                         style="fill: #845b53; stroke: #3d3d3d; stroke-width: 1.875"/>
                </g>
            </g>
            <g id="line2d_10">
                <path d="M 130.571458 615.074912
L 130.571458 557.031765 
" clip-path="url(#p54bf4768dd)" style="fill: none; stroke: #3d3d3d; stroke-width: 2.8125; stroke-linecap: round"/>
            </g>
            <g id="line2d_11">
                <path d="M 130.571458 593.434314
L 130.571458 578.869738 
" clip-path="url(#p54bf4768dd)" style="fill: none; stroke: #3d3d3d; stroke-width: 8.4375; stroke-linecap: round"/>
            </g>
            <g id="line2d_12">
                <path d="M 130.571458 586.98384
" clip-path="url(#p54bf4768dd)" style="fill: none; stroke: #3d3d3d; stroke-width: 2.25; stroke-linecap: round"/>
                <defs>
                    <path id="m7cf0ace96a" d="M 3.515625 0
L -3.515625 -0 
" style="stroke: #ffffff; stroke-width: 1.6875"/>
                </defs>
                <g clip-path="url(#p54bf4768dd)">
                    <use xlink:href="#m7cf0ace96a" x="130.571458" y="586.98384"
                         style="fill: #ffffff; stroke: #ffffff; stroke-width: 1.6875"/>
                </g>
            </g>
            <g id="line2d_13">
                <path d="M 230.41415 619.914049
L 230.41415 532.106343 
" clip-path="url(#p54bf4768dd)" style="fill: none; stroke: #3d3d3d; stroke-width: 2.8125; stroke-linecap: round"/>
            </g>
            <g id="line2d_14">
                <path d="M 230.41415 587.720134
L 230.41415 565.470098 
" clip-path="url(#p54bf4768dd)" style="fill: none; stroke: #3d3d3d; stroke-width: 8.4375; stroke-linecap: round"/>
            </g>
            <g id="line2d_15">
                <path d="M 230.41415 577.536709
" clip-path="url(#p54bf4768dd)" style="fill: none; stroke: #3d3d3d; stroke-width: 2.25; stroke-linecap: round"/>
                <g clip-path="url(#p54bf4768dd)">
                    <use xlink:href="#m7cf0ace96a" x="230.41415" y="577.536709"
                         style="fill: #ffffff; stroke: #ffffff; stroke-width: 1.6875"/>
                </g>
            </g>
            <g id="line2d_16">
                <path d="M 330.256843 615.829176
L 330.256843 534.487002 
" clip-path="url(#p54bf4768dd)" style="fill: none; stroke: #3d3d3d; stroke-width: 2.8125; stroke-linecap: round"/>
            </g>
            <g id="line2d_17">
                <path d="M 330.256843 586.090259
L 330.256843 565.422517 
" clip-path="url(#p54bf4768dd)" style="fill: none; stroke: #3d3d3d; stroke-width: 8.4375; stroke-linecap: round"/>
            </g>
            <g id="line2d_18">
                <path d="M 330.256843 576.913728
" clip-path="url(#p54bf4768dd)" style="fill: none; stroke: #3d3d3d; stroke-width: 2.25; stroke-linecap: round"/>
                <g clip-path="url(#p54bf4768dd)">
                    <use xlink:href="#m7cf0ace96a" x="330.256843" y="576.913728"
                         style="fill: #ffffff; stroke: #ffffff; stroke-width: 1.6875"/>
                </g>
            </g>
            <g id="line2d_19">
                <path d="M 430.099536 616.028086
L 430.099536 530.905115 
" clip-path="url(#p54bf4768dd)" style="fill: none; stroke: #3d3d3d; stroke-width: 2.8125; stroke-linecap: round"/>
            </g>
            <g id="line2d_20">
                <path d="M 430.099536 584.30064
L 430.099536 562.916277 
" clip-path="url(#p54bf4768dd)" style="fill: none; stroke: #3d3d3d; stroke-width: 8.4375; stroke-linecap: round"/>
            </g>
            <g id="line2d_21">
                <path d="M 430.099536 575.372074
" clip-path="url(#p54bf4768dd)" style="fill: none; stroke: #3d3d3d; stroke-width: 2.25; stroke-linecap: round"/>
                <g clip-path="url(#p54bf4768dd)">
                    <use xlink:href="#m7cf0ace96a" x="430.099536" y="575.372074"
                         style="fill: #ffffff; stroke: #ffffff; stroke-width: 1.6875"/>
                </g>
            </g>
            <g id="line2d_22">
                <path d="M 529.942228 621.073106
L 529.942228 511.904975 
" clip-path="url(#p54bf4768dd)" style="fill: none; stroke: #3d3d3d; stroke-width: 2.8125; stroke-linecap: round"/>
            </g>
            <g id="line2d_23">
                <path d="M 529.942228 580.800431
L 529.942228 553.239067 
" clip-path="url(#p54bf4768dd)" style="fill: none; stroke: #3d3d3d; stroke-width: 8.4375; stroke-linecap: round"/>
            </g>
            <g id="line2d_24">
                <path d="M 529.942228 568.800879
" clip-path="url(#p54bf4768dd)" style="fill: none; stroke: #3d3d3d; stroke-width: 2.25; stroke-linecap: round"/>
                <g clip-path="url(#p54bf4768dd)">
                    <use xlink:href="#m7cf0ace96a" x="529.942228" y="568.800879"
                         style="fill: #ffffff; stroke: #ffffff; stroke-width: 1.6875"/>
                </g>
            </g>
            <g id="line2d_25">
                <path d="M 629.784921 613.1593
L 629.784921 544.243167 
" clip-path="url(#p54bf4768dd)" style="fill: none; stroke: #3d3d3d; stroke-width: 2.8125; stroke-linecap: round"/>
            </g>
            <g id="line2d_26">
                <path d="M 629.784921 589.037261
L 629.784921 571.005072 
" clip-path="url(#p54bf4768dd)" style="fill: none; stroke: #3d3d3d; stroke-width: 8.4375; stroke-linecap: round"/>
            </g>
            <g id="line2d_27">
                <path d="M 629.784921 581.19732
" clip-path="url(#p54bf4768dd)" style="fill: none; stroke: #3d3d3d; stroke-width: 2.25; stroke-linecap: round"/>
                <g clip-path="url(#p54bf4768dd)">
                    <use xlink:href="#m7cf0ace96a" x="629.784921" y="581.19732"
                         style="fill: #ffffff; stroke: #ffffff; stroke-width: 1.6875"/>
                </g>
            </g>
            <g id="line2d_28">
                <path d="M 130.571458 503.326655
L 130.571458 493.733426 
L 230.41415 493.733426 
L 230.41415 503.326655 
" style="fill: none; stroke: #333333; stroke-width: 1.5; stroke-linecap: round"/>
            </g>
            <g id="line2d_29">
                <path d="M 230.41415 468.412193
L 230.41415 458.818963 
L 330.256843 458.818963 
L 330.256843 468.412193 
" style="fill: none; stroke: #333333; stroke-width: 1.5; stroke-linecap: round"/>
            </g>
            <g id="line2d_30">
                <path d="M 330.256843 433.49773
L 330.256843 423.904501 
L 430.099536 423.904501 
L 430.099536 433.49773 
" style="fill: none; stroke: #333333; stroke-width: 1.5; stroke-linecap: round"/>
            </g>
            <g id="line2d_31">
                <path d="M 430.099536 398.583267
L 430.099536 388.990038 
L 529.942228 388.990038 
L 529.942228 398.583267 
" style="fill: none; stroke: #333333; stroke-width: 1.5; stroke-linecap: round"/>
            </g>
            <g id="line2d_32">
                <path d="M 529.942228 363.668804
L 529.942228 354.075575 
L 629.784921 354.075575 
L 629.784921 363.668804 
" style="fill: none; stroke: #333333; stroke-width: 1.5; stroke-linecap: round"/>
            </g>
            <g id="line2d_33">
                <path d="M 130.571458 398.583267
L 130.571458 388.990038 
L 330.256843 388.990038 
L 330.256843 398.583267 
" style="fill: none; stroke: #333333; stroke-width: 1.5; stroke-linecap: round"/>
            </g>
            <g id="line2d_34">
                <path d="M 230.41415 363.668804
L 230.41415 354.075575 
L 430.099536 354.075575 
L 430.099536 363.668804 
" style="fill: none; stroke: #333333; stroke-width: 1.5; stroke-linecap: round"/>
            </g>
            <g id="line2d_35">
                <path d="M 330.256843 328.754341
L 330.256843 319.161112 
L 529.942228 319.161112 
L 529.942228 328.754341 
" style="fill: none; stroke: #333333; stroke-width: 1.5; stroke-linecap: round"/>
            </g>
            <g id="line2d_36">
                <path d="M 430.099536 293.839878
L 430.099536 284.246649 
L 629.784921 284.246649 
L 629.784921 293.839878 
" style="fill: none; stroke: #333333; stroke-width: 1.5; stroke-linecap: round"/>
            </g>
            <g id="line2d_37">
                <path d="M 130.571458 258.925415
L 130.571458 249.332186 
L 430.099536 249.332186 
L 430.099536 258.925415 
" style="fill: none; stroke: #333333; stroke-width: 1.5; stroke-linecap: round"/>
            </g>
            <g id="line2d_38">
                <path d="M 230.41415 224.010953
L 230.41415 214.417723 
L 529.942228 214.417723 
L 529.942228 224.010953 
" style="fill: none; stroke: #333333; stroke-width: 1.5; stroke-linecap: round"/>
            </g>
            <g id="line2d_39">
                <path d="M 330.256843 189.09649
L 330.256843 179.503261 
L 629.784921 179.503261 
L 629.784921 189.09649 
" style="fill: none; stroke: #333333; stroke-width: 1.5; stroke-linecap: round"/>
            </g>
            <g id="line2d_40">
                <path d="M 130.571458 154.182027
L 130.571458 144.588798 
L 529.942228 144.588798 
L 529.942228 154.182027 
" style="fill: none; stroke: #333333; stroke-width: 1.5; stroke-linecap: round"/>
            </g>
            <g id="line2d_41">
                <path d="M 230.41415 119.267564
L 230.41415 109.674335 
L 629.784921 109.674335 
L 629.784921 119.267564 
" style="fill: none; stroke: #333333; stroke-width: 1.5; stroke-linecap: round"/>
            </g>
            <g id="line2d_42">
                <path d="M 130.571458 84.353101
L 130.571458 74.759872 
L 629.784921 74.759872 
L 629.784921 84.353101 
" style="fill: none; stroke: #333333; stroke-width: 1.5; stroke-linecap: round"/>
            </g>
            <g id="patch_3">
                <path d="M 61.68 654.580631
L 61.68 38.4 
" style="fill: none; stroke: #cccccc; stroke-width: 1.875; stroke-linejoin: miter; stroke-linecap: square"/>
            </g>
            <g id="patch_4">
                <path d="M 698.676378 654.580631
L 698.676378 38.4 
" style="fill: none; stroke: #cccccc; stroke-width: 1.875; stroke-linejoin: miter; stroke-linecap: square"/>
            </g>
            <g id="patch_5">
                <path d="M 61.68 654.580631
L 698.676378 654.580631 
" style="fill: none; stroke: #cccccc; stroke-width: 1.875; stroke-linejoin: miter; stroke-linecap: square"/>
            </g>
            <g id="patch_6">
                <path d="M 61.68 38.4
L 698.676378 38.4 
" style="fill: none; stroke: #cccccc; stroke-width: 1.875; stroke-linejoin: miter; stroke-linecap: square"/>
            </g>
            <g id="text_18">
                <!-- **** -->
                <g style="fill: #262626" transform="translate(166.480929 489.155926) scale(0.18 -0.18)">
                    <defs>
                        <path id="ArialMT-2a" d="M 200 3741
L 344 4184 
Q 841 4009 1066 3881 
Q 1006 4447 1003 4659 
L 1456 4659 
Q 1447 4350 1384 3884 
Q 1706 4047 2122 4184 
L 2266 3741 
Q 1869 3609 1488 3566 
Q 1678 3400 2025 2975 
L 1650 2709 
Q 1469 2956 1222 3381 
Q 991 2941 816 2709 
L 447 2975 
Q 809 3422 966 3566 
Q 563 3644 200 3741 
z
" transform="scale(0.015625)"/>
                    </defs>
                    <use xlink:href="#ArialMT-2a"/>
                    <use xlink:href="#ArialMT-2a" transform="translate(38.916016 0)"/>
                    <use xlink:href="#ArialMT-2a" transform="translate(77.832031 0)"/>
                    <use xlink:href="#ArialMT-2a" transform="translate(116.748047 0)"/>
                </g>
            </g>
            <g id="text_19">
                <!-- *** -->
                <g style="fill: #262626" transform="translate(269.82659 454.241463) scale(0.18 -0.18)">
                    <use xlink:href="#ArialMT-2a"/>
                    <use xlink:href="#ArialMT-2a" transform="translate(38.916016 0)"/>
                    <use xlink:href="#ArialMT-2a" transform="translate(77.832031 0)"/>
                </g>
            </g>
            <g id="text_20">
                <!-- **** -->
                <g style="fill: #262626" transform="translate(366.166314 419.327001) scale(0.18 -0.18)">
                    <use xlink:href="#ArialMT-2a"/>
                    <use xlink:href="#ArialMT-2a" transform="translate(38.916016 0)"/>
                    <use xlink:href="#ArialMT-2a" transform="translate(77.832031 0)"/>
                    <use xlink:href="#ArialMT-2a" transform="translate(116.748047 0)"/>
                </g>
            </g>
            <g id="text_21">
                <!-- **** -->
                <g style="fill: #262626" transform="translate(466.009007 384.412538) scale(0.18 -0.18)">
                    <use xlink:href="#ArialMT-2a"/>
                    <use xlink:href="#ArialMT-2a" transform="translate(38.916016 0)"/>
                    <use xlink:href="#ArialMT-2a" transform="translate(77.832031 0)"/>
                    <use xlink:href="#ArialMT-2a" transform="translate(116.748047 0)"/>
                </g>
            </g>
            <g id="text_22">
                <!-- **** -->
                <g style="fill: #262626" transform="translate(565.851699 349.498075) scale(0.18 -0.18)">
                    <use xlink:href="#ArialMT-2a"/>
                    <use xlink:href="#ArialMT-2a" transform="translate(38.916016 0)"/>
                    <use xlink:href="#ArialMT-2a" transform="translate(77.832031 0)"/>
                    <use xlink:href="#ArialMT-2a" transform="translate(116.748047 0)"/>
                </g>
            </g>
            <g id="text_23">
                <!-- **** -->
                <g style="fill: #262626" transform="translate(216.402275 384.412538) scale(0.18 -0.18)">
                    <use xlink:href="#ArialMT-2a"/>
                    <use xlink:href="#ArialMT-2a" transform="translate(38.916016 0)"/>
                    <use xlink:href="#ArialMT-2a" transform="translate(77.832031 0)"/>
                    <use xlink:href="#ArialMT-2a" transform="translate(116.748047 0)"/>
                </g>
            </g>
            <g id="text_24">
                <!-- **** -->
                <g style="fill: #262626" transform="translate(316.244968 349.498075) scale(0.18 -0.18)">
                    <use xlink:href="#ArialMT-2a"/>
                    <use xlink:href="#ArialMT-2a" transform="translate(38.916016 0)"/>
                    <use xlink:href="#ArialMT-2a" transform="translate(77.832031 0)"/>
                    <use xlink:href="#ArialMT-2a" transform="translate(116.748047 0)"/>
                </g>
            </g>
            <g id="text_25">
                <!-- **** -->
                <g style="fill: #262626" transform="translate(416.087661 314.583612) scale(0.18 -0.18)">
                    <use xlink:href="#ArialMT-2a"/>
                    <use xlink:href="#ArialMT-2a" transform="translate(38.916016 0)"/>
                    <use xlink:href="#ArialMT-2a" transform="translate(77.832031 0)"/>
                    <use xlink:href="#ArialMT-2a" transform="translate(116.748047 0)"/>
                </g>
            </g>
            <g id="text_26">
                <!-- **** -->
                <g style="fill: #262626" transform="translate(515.930353 279.669149) scale(0.18 -0.18)">
                    <use xlink:href="#ArialMT-2a"/>
                    <use xlink:href="#ArialMT-2a" transform="translate(38.916016 0)"/>
                    <use xlink:href="#ArialMT-2a" transform="translate(77.832031 0)"/>
                    <use xlink:href="#ArialMT-2a" transform="translate(116.748047 0)"/>
                </g>
            </g>
            <g id="text_27">
                <!-- **** -->
                <g style="fill: #262626" transform="translate(266.323622 244.754686) scale(0.18 -0.18)">
                    <use xlink:href="#ArialMT-2a"/>
                    <use xlink:href="#ArialMT-2a" transform="translate(38.916016 0)"/>
                    <use xlink:href="#ArialMT-2a" transform="translate(77.832031 0)"/>
                    <use xlink:href="#ArialMT-2a" transform="translate(116.748047 0)"/>
                </g>
            </g>
            <g id="text_28">
                <!-- **** -->
                <g style="fill: #262626" transform="translate(366.166314 209.840223) scale(0.18 -0.18)">
                    <use xlink:href="#ArialMT-2a"/>
                    <use xlink:href="#ArialMT-2a" transform="translate(38.916016 0)"/>
                    <use xlink:href="#ArialMT-2a" transform="translate(77.832031 0)"/>
                    <use xlink:href="#ArialMT-2a" transform="translate(116.748047 0)"/>
                </g>
            </g>
            <g id="text_29">
                <!-- **** -->
                <g style="fill: #262626" transform="translate(466.009007 174.925761) scale(0.18 -0.18)">
                    <use xlink:href="#ArialMT-2a"/>
                    <use xlink:href="#ArialMT-2a" transform="translate(38.916016 0)"/>
                    <use xlink:href="#ArialMT-2a" transform="translate(77.832031 0)"/>
                    <use xlink:href="#ArialMT-2a" transform="translate(116.748047 0)"/>
                </g>
            </g>
            <g id="text_30">
                <!-- **** -->
                <g style="fill: #262626" transform="translate(316.244968 140.011298) scale(0.18 -0.18)">
                    <use xlink:href="#ArialMT-2a"/>
                    <use xlink:href="#ArialMT-2a" transform="translate(38.916016 0)"/>
                    <use xlink:href="#ArialMT-2a" transform="translate(77.832031 0)"/>
                    <use xlink:href="#ArialMT-2a" transform="translate(116.748047 0)"/>
                </g>
            </g>
            <g id="text_31">
                <!-- **** -->
                <g style="fill: #262626" transform="translate(416.087661 105.096835) scale(0.18 -0.18)">
                    <use xlink:href="#ArialMT-2a"/>
                    <use xlink:href="#ArialMT-2a" transform="translate(38.916016 0)"/>
                    <use xlink:href="#ArialMT-2a" transform="translate(77.832031 0)"/>
                    <use xlink:href="#ArialMT-2a" transform="translate(116.748047 0)"/>
                </g>
            </g>
            <g id="text_32">
                <!-- **** -->
                <g style="fill: #262626" transform="translate(366.166314 70.182372) scale(0.18 -0.18)">
                    <use xlink:href="#ArialMT-2a"/>
                    <use xlink:href="#ArialMT-2a" transform="translate(38.916016 0)"/>
                    <use xlink:href="#ArialMT-2a" transform="translate(77.832031 0)"/>
                    <use xlink:href="#ArialMT-2a" transform="translate(116.748047 0)"/>
                </g>
            </g>
            <g id="text_33">
                <!-- Ranked RMSE per Fold per Target -->
                <g style="fill: #262626" transform="translate(242.285533 32.4) scale(0.18 -0.18)">
                    <defs>
                        <path id="ArialMT-6b" d="M 425 0
L 425 4581 
L 988 4581 
L 988 1969 
L 2319 3319 
L 3047 3319 
L 1778 2088 
L 3175 0 
L 2481 0 
L 1384 1697 
L 988 1316 
L 988 0 
L 425 0 
z
" transform="scale(0.015625)"/>
                        <path id="ArialMT-20" transform="scale(0.015625)"/>
                        <path id="ArialMT-54" d="M 1659 0
L 1659 4041 
L 150 4041 
L 150 4581 
L 3781 4581 
L 3781 4041 
L 2266 4041 
L 2266 0 
L 1659 0 
z
" transform="scale(0.015625)"/>
                    </defs>
                    <use xlink:href="#ArialMT-52"/>
                    <use xlink:href="#ArialMT-61" transform="translate(72.216797 0)"/>
                    <use xlink:href="#ArialMT-6e" transform="translate(127.832031 0)"/>
                    <use xlink:href="#ArialMT-6b" transform="translate(183.447266 0)"/>
                    <use xlink:href="#ArialMT-65" transform="translate(233.447266 0)"/>
                    <use xlink:href="#ArialMT-64" transform="translate(289.0625 0)"/>
                    <use xlink:href="#ArialMT-20" transform="translate(344.677734 0)"/>
                    <use xlink:href="#ArialMT-52" transform="translate(372.460938 0)"/>
                    <use xlink:href="#ArialMT-4d" transform="translate(444.677734 0)"/>
                    <use xlink:href="#ArialMT-53" transform="translate(527.978516 0)"/>
                    <use xlink:href="#ArialMT-45" transform="translate(594.677734 0)"/>
                    <use xlink:href="#ArialMT-20" transform="translate(661.376953 0)"/>
                    <use xlink:href="#ArialMT-70" transform="translate(689.160156 0)"/>
                    <use xlink:href="#ArialMT-65" transform="translate(744.775391 0)"/>
                    <use xlink:href="#ArialMT-72" transform="translate(800.390625 0)"/>
                    <use xlink:href="#ArialMT-20" transform="translate(833.691406 0)"/>
                    <use xlink:href="#ArialMT-46" transform="translate(861.474609 0)"/>
                    <use xlink:href="#ArialMT-6f" transform="translate(922.558594 0)"/>
                    <use xlink:href="#ArialMT-6c" transform="translate(978.173828 0)"/>
                    <use xlink:href="#ArialMT-64" transform="translate(1000.390625 0)"/>
                    <use xlink:href="#ArialMT-20" transform="translate(1056.005859 0)"/>
                    <use xlink:href="#ArialMT-70" transform="translate(1083.789062 0)"/>
                    <use xlink:href="#ArialMT-65" transform="translate(1139.404297 0)"/>
                    <use xlink:href="#ArialMT-72" transform="translate(1195.019531 0)"/>
                    <use xlink:href="#ArialMT-20" transform="translate(1228.320312 0)"/>
                    <use xlink:href="#ArialMT-54" transform="translate(1254.353516 0)"/>
                    <use xlink:href="#ArialMT-61" transform="translate(1304.3125 0)"/>
                    <use xlink:href="#ArialMT-72" transform="translate(1359.927734 0)"/>
                    <use xlink:href="#ArialMT-67" transform="translate(1393.228516 0)"/>
                    <use xlink:href="#ArialMT-65" transform="translate(1448.84375 0)"/>
                    <use xlink:href="#ArialMT-74" transform="translate(1504.458984 0)"/>
                </g>
            </g>
        </g>
    </g>
    <defs>
        <clipPath id="p54bf4768dd">
            <rect x="61.68" y="38.4" width="636.996378" height="616.180631"/>
        </clipPath>
    </defs>
</svg>
