<?xml version="1.0" encoding="utf-8" standalone="no"?>
<!DOCTYPE svg PUBLIC "-//W3C//DTD SVG 1.1//EN"
  "http://www.w3.org/Graphics/SVG/1.1/DTD/svg11.dtd">
<svg xmlns:xlink="http://www.w3.org/1999/xlink" width="576pt" height="936pt" viewBox="0 0 576 936" xmlns="http://www.w3.org/2000/svg" version="1.1">
 <metadata>
  <rdf:RDF xmlns:dc="http://purl.org/dc/elements/1.1/" xmlns:cc="http://creativecommons.org/ns#" xmlns:rdf="http://www.w3.org/1999/02/22-rdf-syntax-ns#">
   <cc:Work>
    <dc:type rdf:resource="http://purl.org/dc/dcmitype/StillImage"/>
    <dc:date>2025-02-25T23:43:07.827998</dc:date>
    <dc:format>image/svg+xml</dc:format>
    <dc:creator>
     <cc:Agent>
      <dc:title>Matplotlib v3.10.0, https://matplotlib.org/</dc:title>
     </cc:Agent>
    </dc:creator>
   </cc:Work>
  </rdf:RDF>
 </metadata>
 <defs>
  <style type="text/css">*{stroke-linejoin: round; stroke-linecap: butt}</style>
 </defs>
 <g id="figure_1">
  <g id="patch_1">
   <path d="M 0 936 
L 576 936 
L 576 0 
L 0 0 
z
" style="fill: #ffffff"/>
  </g>
  <g id="axes_1">
   <g id="patch_2">
    <path d="M 69.846 717.866348 
L 536.848058 717.866348 
L 536.848058 40.416 
L 69.846 40.416 
z
" style="fill: #ffffff"/>
   </g>
   <g id="matplotlib.axis_1">
    <g id="xtick_1">
     <g id="text_1">
      <!-- RandomSplit -->
      <g style="fill: #262626" transform="translate(88.02251 806.472111) rotate(-45) scale(0.176 -0.176)">
       <defs>
        <path id="ArialMT-52" d="M 503 0 
L 503 4581 
L 2534 4581 
Q 3147 4581 3465 4457 
Q 3784 4334 3975 4021 
Q 4166 3709 4166 3331 
Q 4166 2844 3850 2509 
Q 3534 2175 2875 2084 
Q 3116 1969 3241 1856 
Q 3506 1613 3744 1247 
L 4541 0 
L 3778 0 
L 3172 953 
Q 2906 1366 2734 1584 
Q 2563 1803 2427 1890 
Q 2291 1978 2150 2013 
Q 2047 2034 1813 2034 
L 1109 2034 
L 1109 0 
L 503 0 
z
M 1109 2559 
L 2413 2559 
Q 2828 2559 3062 2645 
Q 3297 2731 3419 2920 
Q 3541 3109 3541 3331 
Q 3541 3656 3305 3865 
Q 3069 4075 2559 4075 
L 1109 4075 
L 1109 2559 
z
" transform="scale(0.015625)"/>
        <path id="ArialMT-61" d="M 2588 409 
Q 2275 144 1986 34 
Q 1697 -75 1366 -75 
Q 819 -75 525 192 
Q 231 459 231 875 
Q 231 1119 342 1320 
Q 453 1522 633 1644 
Q 813 1766 1038 1828 
Q 1203 1872 1538 1913 
Q 2219 1994 2541 2106 
Q 2544 2222 2544 2253 
Q 2544 2597 2384 2738 
Q 2169 2928 1744 2928 
Q 1347 2928 1158 2789 
Q 969 2650 878 2297 
L 328 2372 
Q 403 2725 575 2942 
Q 747 3159 1072 3276 
Q 1397 3394 1825 3394 
Q 2250 3394 2515 3294 
Q 2781 3194 2906 3042 
Q 3031 2891 3081 2659 
Q 3109 2516 3109 2141 
L 3109 1391 
Q 3109 606 3145 398 
Q 3181 191 3288 0 
L 2700 0 
Q 2613 175 2588 409 
z
M 2541 1666 
Q 2234 1541 1622 1453 
Q 1275 1403 1131 1340 
Q 988 1278 909 1158 
Q 831 1038 831 891 
Q 831 666 1001 516 
Q 1172 366 1500 366 
Q 1825 366 2078 508 
Q 2331 650 2450 897 
Q 2541 1088 2541 1459 
L 2541 1666 
z
" transform="scale(0.015625)"/>
        <path id="ArialMT-6e" d="M 422 0 
L 422 3319 
L 928 3319 
L 928 2847 
Q 1294 3394 1984 3394 
Q 2284 3394 2536 3286 
Q 2788 3178 2913 3003 
Q 3038 2828 3088 2588 
Q 3119 2431 3119 2041 
L 3119 0 
L 2556 0 
L 2556 2019 
Q 2556 2363 2490 2533 
Q 2425 2703 2258 2804 
Q 2091 2906 1866 2906 
Q 1506 2906 1245 2678 
Q 984 2450 984 1813 
L 984 0 
L 422 0 
z
" transform="scale(0.015625)"/>
        <path id="ArialMT-64" d="M 2575 0 
L 2575 419 
Q 2259 -75 1647 -75 
Q 1250 -75 917 144 
Q 584 363 401 755 
Q 219 1147 219 1656 
Q 219 2153 384 2558 
Q 550 2963 881 3178 
Q 1213 3394 1622 3394 
Q 1922 3394 2156 3267 
Q 2391 3141 2538 2938 
L 2538 4581 
L 3097 4581 
L 3097 0 
L 2575 0 
z
M 797 1656 
Q 797 1019 1065 703 
Q 1334 388 1700 388 
Q 2069 388 2326 689 
Q 2584 991 2584 1609 
Q 2584 2291 2321 2609 
Q 2059 2928 1675 2928 
Q 1300 2928 1048 2622 
Q 797 2316 797 1656 
z
" transform="scale(0.015625)"/>
        <path id="ArialMT-6f" d="M 213 1659 
Q 213 2581 725 3025 
Q 1153 3394 1769 3394 
Q 2453 3394 2887 2945 
Q 3322 2497 3322 1706 
Q 3322 1066 3130 698 
Q 2938 331 2570 128 
Q 2203 -75 1769 -75 
Q 1072 -75 642 372 
Q 213 819 213 1659 
z
M 791 1659 
Q 791 1022 1069 705 
Q 1347 388 1769 388 
Q 2188 388 2466 706 
Q 2744 1025 2744 1678 
Q 2744 2294 2464 2611 
Q 2184 2928 1769 2928 
Q 1347 2928 1069 2612 
Q 791 2297 791 1659 
z
" transform="scale(0.015625)"/>
        <path id="ArialMT-6d" d="M 422 0 
L 422 3319 
L 925 3319 
L 925 2853 
Q 1081 3097 1340 3245 
Q 1600 3394 1931 3394 
Q 2300 3394 2536 3241 
Q 2772 3088 2869 2813 
Q 3263 3394 3894 3394 
Q 4388 3394 4653 3120 
Q 4919 2847 4919 2278 
L 4919 0 
L 4359 0 
L 4359 2091 
Q 4359 2428 4304 2576 
Q 4250 2725 4106 2815 
Q 3963 2906 3769 2906 
Q 3419 2906 3187 2673 
Q 2956 2441 2956 1928 
L 2956 0 
L 2394 0 
L 2394 2156 
Q 2394 2531 2256 2718 
Q 2119 2906 1806 2906 
Q 1569 2906 1367 2781 
Q 1166 2656 1075 2415 
Q 984 2175 984 1722 
L 984 0 
L 422 0 
z
" transform="scale(0.015625)"/>
        <path id="ArialMT-53" d="M 288 1472 
L 859 1522 
Q 900 1178 1048 958 
Q 1197 738 1509 602 
Q 1822 466 2213 466 
Q 2559 466 2825 569 
Q 3091 672 3220 851 
Q 3350 1031 3350 1244 
Q 3350 1459 3225 1620 
Q 3100 1781 2813 1891 
Q 2628 1963 1997 2114 
Q 1366 2266 1113 2400 
Q 784 2572 623 2826 
Q 463 3081 463 3397 
Q 463 3744 659 4045 
Q 856 4347 1234 4503 
Q 1613 4659 2075 4659 
Q 2584 4659 2973 4495 
Q 3363 4331 3572 4012 
Q 3781 3694 3797 3291 
L 3216 3247 
Q 3169 3681 2898 3903 
Q 2628 4125 2100 4125 
Q 1550 4125 1298 3923 
Q 1047 3722 1047 3438 
Q 1047 3191 1225 3031 
Q 1400 2872 2139 2705 
Q 2878 2538 3153 2413 
Q 3553 2228 3743 1945 
Q 3934 1663 3934 1294 
Q 3934 928 3725 604 
Q 3516 281 3123 101 
Q 2731 -78 2241 -78 
Q 1619 -78 1198 103 
Q 778 284 539 648 
Q 300 1013 288 1472 
z
" transform="scale(0.015625)"/>
        <path id="ArialMT-70" d="M 422 -1272 
L 422 3319 
L 934 3319 
L 934 2888 
Q 1116 3141 1344 3267 
Q 1572 3394 1897 3394 
Q 2322 3394 2647 3175 
Q 2972 2956 3137 2557 
Q 3303 2159 3303 1684 
Q 3303 1175 3120 767 
Q 2938 359 2589 142 
Q 2241 -75 1856 -75 
Q 1575 -75 1351 44 
Q 1128 163 984 344 
L 984 -1272 
L 422 -1272 
z
M 931 1641 
Q 931 1000 1190 694 
Q 1450 388 1819 388 
Q 2194 388 2461 705 
Q 2728 1022 2728 1688 
Q 2728 2322 2467 2637 
Q 2206 2953 1844 2953 
Q 1484 2953 1207 2617 
Q 931 2281 931 1641 
z
" transform="scale(0.015625)"/>
        <path id="ArialMT-6c" d="M 409 0 
L 409 4581 
L 972 4581 
L 972 0 
L 409 0 
z
" transform="scale(0.015625)"/>
        <path id="ArialMT-69" d="M 425 3934 
L 425 4581 
L 988 4581 
L 988 3934 
L 425 3934 
z
M 425 0 
L 425 3319 
L 988 3319 
L 988 0 
L 425 0 
z
" transform="scale(0.015625)"/>
        <path id="ArialMT-74" d="M 1650 503 
L 1731 6 
Q 1494 -44 1306 -44 
Q 1000 -44 831 53 
Q 663 150 594 308 
Q 525 466 525 972 
L 525 2881 
L 113 2881 
L 113 3319 
L 525 3319 
L 525 4141 
L 1084 4478 
L 1084 3319 
L 1650 3319 
L 1650 2881 
L 1084 2881 
L 1084 941 
Q 1084 700 1114 631 
Q 1144 563 1211 522 
Q 1278 481 1403 481 
Q 1497 481 1650 503 
z
" transform="scale(0.015625)"/>
       </defs>
       <use xlink:href="#ArialMT-52"/>
       <use xlink:href="#ArialMT-61" transform="translate(72.216797 0)"/>
       <use xlink:href="#ArialMT-6e" transform="translate(127.832031 0)"/>
       <use xlink:href="#ArialMT-64" transform="translate(183.447266 0)"/>
       <use xlink:href="#ArialMT-6f" transform="translate(239.0625 0)"/>
       <use xlink:href="#ArialMT-6d" transform="translate(294.677734 0)"/>
       <use xlink:href="#ArialMT-53" transform="translate(377.978516 0)"/>
       <use xlink:href="#ArialMT-70" transform="translate(444.677734 0)"/>
       <use xlink:href="#ArialMT-6c" transform="translate(500.292969 0)"/>
       <use xlink:href="#ArialMT-69" transform="translate(522.509766 0)"/>
       <use xlink:href="#ArialMT-74" transform="translate(544.726562 0)"/>
      </g>
     </g>
    </g>
    <g id="xtick_2">
     <g id="text_2">
      <!-- ScaffoldSplit -->
      <g style="fill: #262626" transform="translate(162.364688 804.183383) rotate(-45) scale(0.176 -0.176)">
       <defs>
        <path id="ArialMT-63" d="M 2588 1216 
L 3141 1144 
Q 3050 572 2676 248 
Q 2303 -75 1759 -75 
Q 1078 -75 664 370 
Q 250 816 250 1647 
Q 250 2184 428 2587 
Q 606 2991 970 3192 
Q 1334 3394 1763 3394 
Q 2303 3394 2647 3120 
Q 2991 2847 3088 2344 
L 2541 2259 
Q 2463 2594 2264 2762 
Q 2066 2931 1784 2931 
Q 1359 2931 1093 2626 
Q 828 2322 828 1663 
Q 828 994 1084 691 
Q 1341 388 1753 388 
Q 2084 388 2306 591 
Q 2528 794 2588 1216 
z
" transform="scale(0.015625)"/>
        <path id="ArialMT-66" d="M 556 0 
L 556 2881 
L 59 2881 
L 59 3319 
L 556 3319 
L 556 3672 
Q 556 4006 616 4169 
Q 697 4388 901 4523 
Q 1106 4659 1475 4659 
Q 1713 4659 2000 4603 
L 1916 4113 
Q 1741 4144 1584 4144 
Q 1328 4144 1222 4034 
Q 1116 3925 1116 3625 
L 1116 3319 
L 1763 3319 
L 1763 2881 
L 1116 2881 
L 1116 0 
L 556 0 
z
" transform="scale(0.015625)"/>
       </defs>
       <use xlink:href="#ArialMT-53"/>
       <use xlink:href="#ArialMT-63" transform="translate(66.699219 0)"/>
       <use xlink:href="#ArialMT-61" transform="translate(116.699219 0)"/>
       <use xlink:href="#ArialMT-66" transform="translate(172.314453 0)"/>
       <use xlink:href="#ArialMT-66" transform="translate(198.347656 0)"/>
       <use xlink:href="#ArialMT-6f" transform="translate(226.130859 0)"/>
       <use xlink:href="#ArialMT-6c" transform="translate(281.746094 0)"/>
       <use xlink:href="#ArialMT-64" transform="translate(303.962891 0)"/>
       <use xlink:href="#ArialMT-53" transform="translate(359.578125 0)"/>
       <use xlink:href="#ArialMT-70" transform="translate(426.277344 0)"/>
       <use xlink:href="#ArialMT-6c" transform="translate(481.892578 0)"/>
       <use xlink:href="#ArialMT-69" transform="translate(504.109375 0)"/>
       <use xlink:href="#ArialMT-74" transform="translate(526.326172 0)"/>
      </g>
     </g>
    </g>
    <g id="xtick_3">
     <g id="text_3">
      <!-- SortedStepForward_LogD -->
      <g style="fill: #262626" transform="translate(197.68182 879.798908) rotate(-45) scale(0.176 -0.176)">
       <defs>
        <path id="ArialMT-72" d="M 416 0 
L 416 3319 
L 922 3319 
L 922 2816 
Q 1116 3169 1280 3281 
Q 1444 3394 1641 3394 
Q 1925 3394 2219 3213 
L 2025 2691 
Q 1819 2813 1613 2813 
Q 1428 2813 1281 2702 
Q 1134 2591 1072 2394 
Q 978 2094 978 1738 
L 978 0 
L 416 0 
z
" transform="scale(0.015625)"/>
        <path id="ArialMT-65" d="M 2694 1069 
L 3275 997 
Q 3138 488 2766 206 
Q 2394 -75 1816 -75 
Q 1088 -75 661 373 
Q 234 822 234 1631 
Q 234 2469 665 2931 
Q 1097 3394 1784 3394 
Q 2450 3394 2872 2941 
Q 3294 2488 3294 1666 
Q 3294 1616 3291 1516 
L 816 1516 
Q 847 969 1125 678 
Q 1403 388 1819 388 
Q 2128 388 2347 550 
Q 2566 713 2694 1069 
z
M 847 1978 
L 2700 1978 
Q 2663 2397 2488 2606 
Q 2219 2931 1791 2931 
Q 1403 2931 1139 2672 
Q 875 2413 847 1978 
z
" transform="scale(0.015625)"/>
        <path id="ArialMT-46" d="M 525 0 
L 525 4581 
L 3616 4581 
L 3616 4041 
L 1131 4041 
L 1131 2622 
L 3281 2622 
L 3281 2081 
L 1131 2081 
L 1131 0 
L 525 0 
z
" transform="scale(0.015625)"/>
        <path id="ArialMT-77" d="M 1034 0 
L 19 3319 
L 600 3319 
L 1128 1403 
L 1325 691 
Q 1338 744 1497 1375 
L 2025 3319 
L 2603 3319 
L 3100 1394 
L 3266 759 
L 3456 1400 
L 4025 3319 
L 4572 3319 
L 3534 0 
L 2950 0 
L 2422 1988 
L 2294 2553 
L 1622 0 
L 1034 0 
z
" transform="scale(0.015625)"/>
        <path id="ArialMT-5f" d="M -97 -1272 
L -97 -866 
L 3631 -866 
L 3631 -1272 
L -97 -1272 
z
" transform="scale(0.015625)"/>
        <path id="ArialMT-4c" d="M 469 0 
L 469 4581 
L 1075 4581 
L 1075 541 
L 3331 541 
L 3331 0 
L 469 0 
z
" transform="scale(0.015625)"/>
        <path id="ArialMT-67" d="M 319 -275 
L 866 -356 
Q 900 -609 1056 -725 
Q 1266 -881 1628 -881 
Q 2019 -881 2231 -725 
Q 2444 -569 2519 -288 
Q 2563 -116 2559 434 
Q 2191 0 1641 0 
Q 956 0 581 494 
Q 206 988 206 1678 
Q 206 2153 378 2554 
Q 550 2956 876 3175 
Q 1203 3394 1644 3394 
Q 2231 3394 2613 2919 
L 2613 3319 
L 3131 3319 
L 3131 450 
Q 3131 -325 2973 -648 
Q 2816 -972 2473 -1159 
Q 2131 -1347 1631 -1347 
Q 1038 -1347 672 -1080 
Q 306 -813 319 -275 
z
M 784 1719 
Q 784 1066 1043 766 
Q 1303 466 1694 466 
Q 2081 466 2343 764 
Q 2606 1063 2606 1700 
Q 2606 2309 2336 2618 
Q 2066 2928 1684 2928 
Q 1309 2928 1046 2623 
Q 784 2319 784 1719 
z
" transform="scale(0.015625)"/>
        <path id="ArialMT-44" d="M 494 0 
L 494 4581 
L 2072 4581 
Q 2606 4581 2888 4516 
Q 3281 4425 3559 4188 
Q 3922 3881 4101 3404 
Q 4281 2928 4281 2316 
Q 4281 1794 4159 1391 
Q 4038 988 3847 723 
Q 3656 459 3429 307 
Q 3203 156 2883 78 
Q 2563 0 2147 0 
L 494 0 
z
M 1100 541 
L 2078 541 
Q 2531 541 2789 625 
Q 3047 709 3200 863 
Q 3416 1078 3536 1442 
Q 3656 1806 3656 2325 
Q 3656 3044 3420 3430 
Q 3184 3816 2847 3947 
Q 2603 4041 2063 4041 
L 1100 4041 
L 1100 541 
z
" transform="scale(0.015625)"/>
       </defs>
       <use xlink:href="#ArialMT-53"/>
       <use xlink:href="#ArialMT-6f" transform="translate(66.699219 0)"/>
       <use xlink:href="#ArialMT-72" transform="translate(122.314453 0)"/>
       <use xlink:href="#ArialMT-74" transform="translate(155.615234 0)"/>
       <use xlink:href="#ArialMT-65" transform="translate(183.398438 0)"/>
       <use xlink:href="#ArialMT-64" transform="translate(239.013672 0)"/>
       <use xlink:href="#ArialMT-53" transform="translate(294.628906 0)"/>
       <use xlink:href="#ArialMT-74" transform="translate(361.328125 0)"/>
       <use xlink:href="#ArialMT-65" transform="translate(389.111328 0)"/>
       <use xlink:href="#ArialMT-70" transform="translate(444.726562 0)"/>
       <use xlink:href="#ArialMT-46" transform="translate(500.341797 0)"/>
       <use xlink:href="#ArialMT-6f" transform="translate(561.425781 0)"/>
       <use xlink:href="#ArialMT-72" transform="translate(617.041016 0)"/>
       <use xlink:href="#ArialMT-77" transform="translate(650.341797 0)"/>
       <use xlink:href="#ArialMT-61" transform="translate(722.558594 0)"/>
       <use xlink:href="#ArialMT-72" transform="translate(778.173828 0)"/>
       <use xlink:href="#ArialMT-64" transform="translate(811.474609 0)"/>
       <use xlink:href="#ArialMT-5f" transform="translate(867.089844 0)"/>
       <use xlink:href="#ArialMT-4c" transform="translate(922.705078 0)"/>
       <use xlink:href="#ArialMT-6f" transform="translate(978.320312 0)"/>
       <use xlink:href="#ArialMT-67" transform="translate(1033.935547 0)"/>
       <use xlink:href="#ArialMT-44" transform="translate(1089.550781 0)"/>
      </g>
     </g>
    </g>
    <g id="xtick_4">
     <g id="text_4">
      <!-- SortedStepForward_LogP -->
      <g style="fill: #262626" transform="translate(271.222847 879.112484) rotate(-45) scale(0.176 -0.176)">
       <defs>
        <path id="ArialMT-50" d="M 494 0 
L 494 4581 
L 2222 4581 
Q 2678 4581 2919 4538 
Q 3256 4481 3484 4323 
Q 3713 4166 3852 3881 
Q 3991 3597 3991 3256 
Q 3991 2672 3619 2267 
Q 3247 1863 2275 1863 
L 1100 1863 
L 1100 0 
L 494 0 
z
M 1100 2403 
L 2284 2403 
Q 2872 2403 3119 2622 
Q 3366 2841 3366 3238 
Q 3366 3525 3220 3729 
Q 3075 3934 2838 4000 
Q 2684 4041 2272 4041 
L 1100 4041 
L 1100 2403 
z
" transform="scale(0.015625)"/>
       </defs>
       <use xlink:href="#ArialMT-53"/>
       <use xlink:href="#ArialMT-6f" transform="translate(66.699219 0)"/>
       <use xlink:href="#ArialMT-72" transform="translate(122.314453 0)"/>
       <use xlink:href="#ArialMT-74" transform="translate(155.615234 0)"/>
       <use xlink:href="#ArialMT-65" transform="translate(183.398438 0)"/>
       <use xlink:href="#ArialMT-64" transform="translate(239.013672 0)"/>
       <use xlink:href="#ArialMT-53" transform="translate(294.628906 0)"/>
       <use xlink:href="#ArialMT-74" transform="translate(361.328125 0)"/>
       <use xlink:href="#ArialMT-65" transform="translate(389.111328 0)"/>
       <use xlink:href="#ArialMT-70" transform="translate(444.726562 0)"/>
       <use xlink:href="#ArialMT-46" transform="translate(500.341797 0)"/>
       <use xlink:href="#ArialMT-6f" transform="translate(561.425781 0)"/>
       <use xlink:href="#ArialMT-72" transform="translate(617.041016 0)"/>
       <use xlink:href="#ArialMT-77" transform="translate(650.341797 0)"/>
       <use xlink:href="#ArialMT-61" transform="translate(722.558594 0)"/>
       <use xlink:href="#ArialMT-72" transform="translate(778.173828 0)"/>
       <use xlink:href="#ArialMT-64" transform="translate(811.474609 0)"/>
       <use xlink:href="#ArialMT-5f" transform="translate(867.089844 0)"/>
       <use xlink:href="#ArialMT-4c" transform="translate(922.705078 0)"/>
       <use xlink:href="#ArialMT-6f" transform="translate(978.320312 0)"/>
       <use xlink:href="#ArialMT-67" transform="translate(1033.935547 0)"/>
       <use xlink:href="#ArialMT-50" transform="translate(1089.550781 0)"/>
      </g>
     </g>
    </g>
    <g id="xtick_5">
     <g id="text_5">
      <!-- SortedStepForward_MCE18 -->
      <g style="fill: #262626" transform="translate(338.276876 891.545896) rotate(-45) scale(0.176 -0.176)">
       <defs>
        <path id="ArialMT-4d" d="M 475 0 
L 475 4581 
L 1388 4581 
L 2472 1338 
Q 2622 884 2691 659 
Q 2769 909 2934 1394 
L 4031 4581 
L 4847 4581 
L 4847 0 
L 4263 0 
L 4263 3834 
L 2931 0 
L 2384 0 
L 1059 3900 
L 1059 0 
L 475 0 
z
" transform="scale(0.015625)"/>
        <path id="ArialMT-43" d="M 3763 1606 
L 4369 1453 
Q 4178 706 3683 314 
Q 3188 -78 2472 -78 
Q 1731 -78 1267 223 
Q 803 525 561 1097 
Q 319 1669 319 2325 
Q 319 3041 592 3573 
Q 866 4106 1370 4382 
Q 1875 4659 2481 4659 
Q 3169 4659 3637 4309 
Q 4106 3959 4291 3325 
L 3694 3184 
Q 3534 3684 3231 3912 
Q 2928 4141 2469 4141 
Q 1941 4141 1586 3887 
Q 1231 3634 1087 3207 
Q 944 2781 944 2328 
Q 944 1744 1114 1308 
Q 1284 872 1643 656 
Q 2003 441 2422 441 
Q 2931 441 3284 734 
Q 3638 1028 3763 1606 
z
" transform="scale(0.015625)"/>
        <path id="ArialMT-45" d="M 506 0 
L 506 4581 
L 3819 4581 
L 3819 4041 
L 1113 4041 
L 1113 2638 
L 3647 2638 
L 3647 2100 
L 1113 2100 
L 1113 541 
L 3925 541 
L 3925 0 
L 506 0 
z
" transform="scale(0.015625)"/>
        <path id="ArialMT-31" d="M 2384 0 
L 1822 0 
L 1822 3584 
Q 1619 3391 1289 3197 
Q 959 3003 697 2906 
L 697 3450 
Q 1169 3672 1522 3987 
Q 1875 4303 2022 4600 
L 2384 4600 
L 2384 0 
z
" transform="scale(0.015625)"/>
        <path id="ArialMT-38" d="M 1131 2484 
Q 781 2613 612 2850 
Q 444 3088 444 3419 
Q 444 3919 803 4259 
Q 1163 4600 1759 4600 
Q 2359 4600 2725 4251 
Q 3091 3903 3091 3403 
Q 3091 3084 2923 2848 
Q 2756 2613 2416 2484 
Q 2838 2347 3058 2040 
Q 3278 1734 3278 1309 
Q 3278 722 2862 322 
Q 2447 -78 1769 -78 
Q 1091 -78 675 323 
Q 259 725 259 1325 
Q 259 1772 486 2073 
Q 713 2375 1131 2484 
z
M 1019 3438 
Q 1019 3113 1228 2906 
Q 1438 2700 1772 2700 
Q 2097 2700 2305 2904 
Q 2513 3109 2513 3406 
Q 2513 3716 2298 3927 
Q 2084 4138 1766 4138 
Q 1444 4138 1231 3931 
Q 1019 3725 1019 3438 
z
M 838 1322 
Q 838 1081 952 856 
Q 1066 631 1291 507 
Q 1516 384 1775 384 
Q 2178 384 2440 643 
Q 2703 903 2703 1303 
Q 2703 1709 2433 1975 
Q 2163 2241 1756 2241 
Q 1359 2241 1098 1978 
Q 838 1716 838 1322 
z
" transform="scale(0.015625)"/>
       </defs>
       <use xlink:href="#ArialMT-53"/>
       <use xlink:href="#ArialMT-6f" transform="translate(66.699219 0)"/>
       <use xlink:href="#ArialMT-72" transform="translate(122.314453 0)"/>
       <use xlink:href="#ArialMT-74" transform="translate(155.615234 0)"/>
       <use xlink:href="#ArialMT-65" transform="translate(183.398438 0)"/>
       <use xlink:href="#ArialMT-64" transform="translate(239.013672 0)"/>
       <use xlink:href="#ArialMT-53" transform="translate(294.628906 0)"/>
       <use xlink:href="#ArialMT-74" transform="translate(361.328125 0)"/>
       <use xlink:href="#ArialMT-65" transform="translate(389.111328 0)"/>
       <use xlink:href="#ArialMT-70" transform="translate(444.726562 0)"/>
       <use xlink:href="#ArialMT-46" transform="translate(500.341797 0)"/>
       <use xlink:href="#ArialMT-6f" transform="translate(561.425781 0)"/>
       <use xlink:href="#ArialMT-72" transform="translate(617.041016 0)"/>
       <use xlink:href="#ArialMT-77" transform="translate(650.341797 0)"/>
       <use xlink:href="#ArialMT-61" transform="translate(722.558594 0)"/>
       <use xlink:href="#ArialMT-72" transform="translate(778.173828 0)"/>
       <use xlink:href="#ArialMT-64" transform="translate(811.474609 0)"/>
       <use xlink:href="#ArialMT-5f" transform="translate(867.089844 0)"/>
       <use xlink:href="#ArialMT-4d" transform="translate(922.705078 0)"/>
       <use xlink:href="#ArialMT-43" transform="translate(1006.005859 0)"/>
       <use xlink:href="#ArialMT-45" transform="translate(1078.222656 0)"/>
       <use xlink:href="#ArialMT-31" transform="translate(1144.921875 0)"/>
       <use xlink:href="#ArialMT-38" transform="translate(1200.537109 0)"/>
      </g>
     </g>
    </g>
    <g id="xtick_6">
     <g id="text_6">
      <!-- UnsortedStepForward -->
      <g style="fill: #262626" transform="translate(428.76849 856.958298) rotate(-45) scale(0.176 -0.176)">
       <defs>
        <path id="ArialMT-55" d="M 3500 4581 
L 4106 4581 
L 4106 1934 
Q 4106 1244 3950 837 
Q 3794 431 3386 176 
Q 2978 -78 2316 -78 
Q 1672 -78 1262 144 
Q 853 366 678 786 
Q 503 1206 503 1934 
L 503 4581 
L 1109 4581 
L 1109 1938 
Q 1109 1341 1220 1058 
Q 1331 775 1601 622 
Q 1872 469 2263 469 
Q 2931 469 3215 772 
Q 3500 1075 3500 1938 
L 3500 4581 
z
" transform="scale(0.015625)"/>
        <path id="ArialMT-73" d="M 197 991 
L 753 1078 
Q 800 744 1014 566 
Q 1228 388 1613 388 
Q 2000 388 2187 545 
Q 2375 703 2375 916 
Q 2375 1106 2209 1216 
Q 2094 1291 1634 1406 
Q 1016 1563 777 1677 
Q 538 1791 414 1992 
Q 291 2194 291 2438 
Q 291 2659 392 2848 
Q 494 3038 669 3163 
Q 800 3259 1026 3326 
Q 1253 3394 1513 3394 
Q 1903 3394 2198 3281 
Q 2494 3169 2634 2976 
Q 2775 2784 2828 2463 
L 2278 2388 
Q 2241 2644 2061 2787 
Q 1881 2931 1553 2931 
Q 1166 2931 1000 2803 
Q 834 2675 834 2503 
Q 834 2394 903 2306 
Q 972 2216 1119 2156 
Q 1203 2125 1616 2013 
Q 2213 1853 2448 1751 
Q 2684 1650 2818 1456 
Q 2953 1263 2953 975 
Q 2953 694 2789 445 
Q 2625 197 2315 61 
Q 2006 -75 1616 -75 
Q 969 -75 630 194 
Q 291 463 197 991 
z
" transform="scale(0.015625)"/>
       </defs>
       <use xlink:href="#ArialMT-55"/>
       <use xlink:href="#ArialMT-6e" transform="translate(72.216797 0)"/>
       <use xlink:href="#ArialMT-73" transform="translate(127.832031 0)"/>
       <use xlink:href="#ArialMT-6f" transform="translate(177.832031 0)"/>
       <use xlink:href="#ArialMT-72" transform="translate(233.447266 0)"/>
       <use xlink:href="#ArialMT-74" transform="translate(266.748047 0)"/>
       <use xlink:href="#ArialMT-65" transform="translate(294.53125 0)"/>
       <use xlink:href="#ArialMT-64" transform="translate(350.146484 0)"/>
       <use xlink:href="#ArialMT-53" transform="translate(405.761719 0)"/>
       <use xlink:href="#ArialMT-74" transform="translate(472.460938 0)"/>
       <use xlink:href="#ArialMT-65" transform="translate(500.244141 0)"/>
       <use xlink:href="#ArialMT-70" transform="translate(555.859375 0)"/>
       <use xlink:href="#ArialMT-46" transform="translate(611.474609 0)"/>
       <use xlink:href="#ArialMT-6f" transform="translate(672.558594 0)"/>
       <use xlink:href="#ArialMT-72" transform="translate(728.173828 0)"/>
       <use xlink:href="#ArialMT-77" transform="translate(761.474609 0)"/>
       <use xlink:href="#ArialMT-61" transform="translate(833.691406 0)"/>
       <use xlink:href="#ArialMT-72" transform="translate(889.306641 0)"/>
       <use xlink:href="#ArialMT-64" transform="translate(922.607422 0)"/>
      </g>
     </g>
    </g>
    <g id="text_7">
     <!-- split_type -->
     <g style="fill: #262626" transform="translate(262.793029 911.762355) scale(0.192 -0.192)">
      <defs>
       <path id="ArialMT-79" d="M 397 -1278 
L 334 -750 
Q 519 -800 656 -800 
Q 844 -800 956 -737 
Q 1069 -675 1141 -563 
Q 1194 -478 1313 -144 
Q 1328 -97 1363 -6 
L 103 3319 
L 709 3319 
L 1400 1397 
Q 1534 1031 1641 628 
Q 1738 1016 1872 1384 
L 2581 3319 
L 3144 3319 
L 1881 -56 
Q 1678 -603 1566 -809 
Q 1416 -1088 1222 -1217 
Q 1028 -1347 759 -1347 
Q 597 -1347 397 -1278 
z
" transform="scale(0.015625)"/>
      </defs>
      <use xlink:href="#ArialMT-73"/>
      <use xlink:href="#ArialMT-70" transform="translate(50 0)"/>
      <use xlink:href="#ArialMT-6c" transform="translate(105.615234 0)"/>
      <use xlink:href="#ArialMT-69" transform="translate(127.832031 0)"/>
      <use xlink:href="#ArialMT-74" transform="translate(150.048828 0)"/>
      <use xlink:href="#ArialMT-5f" transform="translate(177.832031 0)"/>
      <use xlink:href="#ArialMT-74" transform="translate(233.447266 0)"/>
      <use xlink:href="#ArialMT-79" transform="translate(261.230469 0)"/>
      <use xlink:href="#ArialMT-70" transform="translate(311.230469 0)"/>
      <use xlink:href="#ArialMT-65" transform="translate(366.845703 0)"/>
     </g>
    </g>
   </g>
   <g id="matplotlib.axis_2">
    <g id="ytick_1">
     <g id="line2d_1">
      <path d="M 69.846 713.365755 
L 536.848058 713.365755 
" clip-path="url(#p9e647c769c)" style="fill: none; stroke: #cccccc; stroke-width: 0.8; stroke-linecap: round"/>
     </g>
     <g id="text_8">
      <!-- 0 -->
      <g style="fill: #262626" transform="translate(51.75875 719.66463) scale(0.176 -0.176)">
       <defs>
        <path id="ArialMT-30" d="M 266 2259 
Q 266 3072 433 3567 
Q 600 4063 929 4331 
Q 1259 4600 1759 4600 
Q 2128 4600 2406 4451 
Q 2684 4303 2865 4023 
Q 3047 3744 3150 3342 
Q 3253 2941 3253 2259 
Q 3253 1453 3087 958 
Q 2922 463 2592 192 
Q 2263 -78 1759 -78 
Q 1097 -78 719 397 
Q 266 969 266 2259 
z
M 844 2259 
Q 844 1131 1108 757 
Q 1372 384 1759 384 
Q 2147 384 2411 759 
Q 2675 1134 2675 2259 
Q 2675 3391 2411 3762 
Q 2147 4134 1753 4134 
Q 1366 4134 1134 3806 
Q 844 3388 844 2259 
z
" transform="scale(0.015625)"/>
       </defs>
       <use xlink:href="#ArialMT-30"/>
      </g>
     </g>
    </g>
    <g id="ytick_2">
     <g id="line2d_2">
      <path d="M 69.846 596.586947 
L 536.848058 596.586947 
" clip-path="url(#p9e647c769c)" style="fill: none; stroke: #cccccc; stroke-width: 0.8; stroke-linecap: round"/>
     </g>
     <g id="text_9">
      <!-- 2 -->
      <g style="fill: #262626" transform="translate(51.75875 602.885822) scale(0.176 -0.176)">
       <defs>
        <path id="ArialMT-32" d="M 3222 541 
L 3222 0 
L 194 0 
Q 188 203 259 391 
Q 375 700 629 1000 
Q 884 1300 1366 1694 
Q 2113 2306 2375 2664 
Q 2638 3022 2638 3341 
Q 2638 3675 2398 3904 
Q 2159 4134 1775 4134 
Q 1369 4134 1125 3890 
Q 881 3647 878 3216 
L 300 3275 
Q 359 3922 746 4261 
Q 1134 4600 1788 4600 
Q 2447 4600 2831 4234 
Q 3216 3869 3216 3328 
Q 3216 3053 3103 2787 
Q 2991 2522 2730 2228 
Q 2469 1934 1863 1422 
Q 1356 997 1212 845 
Q 1069 694 975 541 
L 3222 541 
z
" transform="scale(0.015625)"/>
       </defs>
       <use xlink:href="#ArialMT-32"/>
      </g>
     </g>
    </g>
    <g id="ytick_3">
     <g id="line2d_3">
      <path d="M 69.846 479.80814 
L 536.848058 479.80814 
" clip-path="url(#p9e647c769c)" style="fill: none; stroke: #cccccc; stroke-width: 0.8; stroke-linecap: round"/>
     </g>
     <g id="text_10">
      <!-- 4 -->
      <g style="fill: #262626" transform="translate(51.75875 486.107015) scale(0.176 -0.176)">
       <defs>
        <path id="ArialMT-34" d="M 2069 0 
L 2069 1097 
L 81 1097 
L 81 1613 
L 2172 4581 
L 2631 4581 
L 2631 1613 
L 3250 1613 
L 3250 1097 
L 2631 1097 
L 2631 0 
L 2069 0 
z
M 2069 1613 
L 2069 3678 
L 634 1613 
L 2069 1613 
z
" transform="scale(0.015625)"/>
       </defs>
       <use xlink:href="#ArialMT-34"/>
      </g>
     </g>
    </g>
    <g id="ytick_4">
     <g id="line2d_4">
      <path d="M 69.846 363.029333 
L 536.848058 363.029333 
" clip-path="url(#p9e647c769c)" style="fill: none; stroke: #cccccc; stroke-width: 0.8; stroke-linecap: round"/>
     </g>
     <g id="text_11">
      <!-- 6 -->
      <g style="fill: #262626" transform="translate(51.75875 369.328208) scale(0.176 -0.176)">
       <defs>
        <path id="ArialMT-36" d="M 3184 3459 
L 2625 3416 
Q 2550 3747 2413 3897 
Q 2184 4138 1850 4138 
Q 1581 4138 1378 3988 
Q 1113 3794 959 3422 
Q 806 3050 800 2363 
Q 1003 2672 1297 2822 
Q 1591 2972 1913 2972 
Q 2475 2972 2870 2558 
Q 3266 2144 3266 1488 
Q 3266 1056 3080 686 
Q 2894 316 2569 119 
Q 2244 -78 1831 -78 
Q 1128 -78 684 439 
Q 241 956 241 2144 
Q 241 3472 731 4075 
Q 1159 4600 1884 4600 
Q 2425 4600 2770 4297 
Q 3116 3994 3184 3459 
z
M 888 1484 
Q 888 1194 1011 928 
Q 1134 663 1356 523 
Q 1578 384 1822 384 
Q 2178 384 2434 671 
Q 2691 959 2691 1453 
Q 2691 1928 2437 2201 
Q 2184 2475 1800 2475 
Q 1419 2475 1153 2201 
Q 888 1928 888 1484 
z
" transform="scale(0.015625)"/>
       </defs>
       <use xlink:href="#ArialMT-36"/>
      </g>
     </g>
    </g>
    <g id="ytick_5">
     <g id="line2d_5">
      <path d="M 69.846 246.250526 
L 536.848058 246.250526 
" clip-path="url(#p9e647c769c)" style="fill: none; stroke: #cccccc; stroke-width: 0.8; stroke-linecap: round"/>
     </g>
     <g id="text_12">
      <!-- 8 -->
      <g style="fill: #262626" transform="translate(51.75875 252.549401) scale(0.176 -0.176)">
       <use xlink:href="#ArialMT-38"/>
      </g>
     </g>
    </g>
    <g id="ytick_6">
     <g id="line2d_6">
      <path d="M 69.846 129.471718 
L 536.848058 129.471718 
" clip-path="url(#p9e647c769c)" style="fill: none; stroke: #cccccc; stroke-width: 0.8; stroke-linecap: round"/>
     </g>
     <g id="text_13">
      <!-- 10 -->
      <g style="fill: #262626" transform="translate(41.9715 135.770593) scale(0.176 -0.176)">
       <use xlink:href="#ArialMT-31"/>
       <use xlink:href="#ArialMT-30" transform="translate(55.615234 0)"/>
      </g>
     </g>
    </g>
    <g id="text_14">
     <!-- rmse -->
     <g style="fill: #262626" transform="translate(34.1555 400.472674) rotate(-90) scale(0.192 -0.192)">
      <use xlink:href="#ArialMT-72"/>
      <use xlink:href="#ArialMT-6d" transform="translate(33.300781 0)"/>
      <use xlink:href="#ArialMT-73" transform="translate(116.601562 0)"/>
      <use xlink:href="#ArialMT-65" transform="translate(166.601562 0)"/>
     </g>
    </g>
   </g>
   <g id="PatchCollection_1">
    <path d="M 120.238121 695.546183 
L 120.466864 695.546183 
L 120.466864 695.073015 
L 120.238121 695.073015 
z
" clip-path="url(#p9e647c769c)" style="fill: #d8dde5; stroke: #494949; stroke-width: 0.6"/>
    <path d="M 120.123749 695.073015 
L 120.581235 695.073015 
L 120.581235 693.511246 
L 120.123749 693.511246 
z
" clip-path="url(#p9e647c769c)" style="fill: #d2d8e2; stroke: #494949; stroke-width: 0.6"/>
    <path d="M 119.895006 693.511246 
L 120.809979 693.511246 
L 120.809979 692.441967 
L 119.895006 692.441967 
z
" clip-path="url(#p9e647c769c)" style="fill: #cad2de; stroke: #494949; stroke-width: 0.6"/>
    <path d="M 119.43752 692.441967 
L 121.267465 692.441967 
L 121.267465 690.45349 
L 119.43752 690.45349 
z
" clip-path="url(#p9e647c769c)" style="fill: #c1cad9; stroke: #494949; stroke-width: 0.6"/>
    <path d="M 118.522547 690.45349 
L 122.182438 690.45349 
L 122.182438 687.986609 
L 118.522547 687.986609 
z
" clip-path="url(#p9e647c769c)" style="fill: #b4c0d3; stroke: #494949; stroke-width: 0.6"/>
    <path d="M 116.692601 687.986609 
L 124.012383 687.986609 
L 124.012383 685.639545 
L 116.692601 685.639545 
z
" clip-path="url(#p9e647c769c)" style="fill: #a4b3ca; stroke: #494949; stroke-width: 0.6"/>
    <path d="M 113.032711 685.639545 
L 127.672274 685.639545 
L 127.672274 682.850312 
L 113.032711 682.850312 
z
" clip-path="url(#p9e647c769c)" style="fill: #90a3c0; stroke: #494949; stroke-width: 0.6"/>
    <path d="M 105.712929 682.850312 
L 134.992055 682.850312 
L 134.992055 679.303153 
L 105.712929 679.303153 
z
" clip-path="url(#p9e647c769c)" style="fill: #778eb3; stroke: #494949; stroke-width: 0.6"/>
    <path d="M 91.073366 679.303153 
L 149.631618 679.303153 
L 149.631618 667.667694 
L 91.073366 667.667694 
z
" clip-path="url(#p9e647c769c)" style="fill: #5875a4; stroke: #494949; stroke-width: 0.6"/>
    <path d="M 105.712929 667.667694 
L 134.992055 667.667694 
L 134.992055 662.702412 
L 105.712929 662.702412 
z
" clip-path="url(#p9e647c769c)" style="fill: #778eb3; stroke: #494949; stroke-width: 0.6"/>
    <path d="M 113.032711 662.702412 
L 127.672274 662.702412 
L 127.672274 657.605499 
L 113.032711 657.605499 
z
" clip-path="url(#p9e647c769c)" style="fill: #90a3c0; stroke: #494949; stroke-width: 0.6"/>
    <path d="M 116.692601 657.605499 
L 124.012383 657.605499 
L 124.012383 652.803625 
L 116.692601 652.803625 
z
" clip-path="url(#p9e647c769c)" style="fill: #a4b3ca; stroke: #494949; stroke-width: 0.6"/>
    <path d="M 118.522547 652.803625 
L 122.182438 652.803625 
L 122.182438 645.668254 
L 118.522547 645.668254 
z
" clip-path="url(#p9e647c769c)" style="fill: #b4c0d3; stroke: #494949; stroke-width: 0.6"/>
    <path d="M 119.43752 645.668254 
L 121.267465 645.668254 
L 121.267465 632.215321 
L 119.43752 632.215321 
z
" clip-path="url(#p9e647c769c)" style="fill: #c1cad9; stroke: #494949; stroke-width: 0.6"/>
    <path d="M 119.895006 632.215321 
L 120.809979 632.215321 
L 120.809979 606.78539 
L 119.895006 606.78539 
z
" clip-path="url(#p9e647c769c)" style="fill: #cad2de; stroke: #494949; stroke-width: 0.6"/>
    <path d="M 120.123749 606.78539 
L 120.581235 606.78539 
L 120.581235 597.714763 
L 120.123749 597.714763 
z
" clip-path="url(#p9e647c769c)" style="fill: #d2d8e2; stroke: #494949; stroke-width: 0.6"/>
    <path d="M 120.238121 597.714763 
L 120.466864 597.714763 
L 120.466864 587.172332 
L 120.238121 587.172332 
z
" clip-path="url(#p9e647c769c)" style="fill: #d8dde5; stroke: #494949; stroke-width: 0.6"/>
   </g>
   <g id="PathCollection_1">
    <defs>
     <path id="C0_0_cd8cf466eb" d="M 0 2.5 
C 0.663008 2.5 1.29895 2.236584 1.767767 1.767767 
C 2.236584 1.29895 2.5 0.663008 2.5 -0 
C 2.5 -0.663008 2.236584 -1.29895 1.767767 -1.767767 
C 1.29895 -2.236584 0.663008 -2.5 0 -2.5 
C -0.663008 -2.5 -1.29895 -2.236584 -1.767767 -1.767767 
C -2.236584 -1.29895 -2.5 -0.663008 -2.5 0 
C -2.5 0.663008 -2.236584 1.29895 -1.767767 1.767767 
C -1.29895 2.236584 -0.663008 2.5 0 2.5 
z
"/>
    </defs>
    <g clip-path="url(#p9e647c769c)">
     <use xlink:href="#C0_0_cd8cf466eb" x="120.352492" y="581.241909" style="fill: none; stroke: #737373; stroke-width: 0.8"/>
    </g>
    <g clip-path="url(#p9e647c769c)">
     <use xlink:href="#C0_0_cd8cf466eb" x="120.352492" y="585.110951" style="fill: none; stroke: #737373; stroke-width: 0.8"/>
    </g>
    <g clip-path="url(#p9e647c769c)">
     <use xlink:href="#C0_0_cd8cf466eb" x="120.352492" y="696.591559" style="fill: none; stroke: #737373; stroke-width: 0.8"/>
    </g>
    <g clip-path="url(#p9e647c769c)">
     <use xlink:href="#C0_0_cd8cf466eb" x="120.352492" y="695.924086" style="fill: none; stroke: #737373; stroke-width: 0.8"/>
    </g>
    <g clip-path="url(#p9e647c769c)">
     <use xlink:href="#C0_0_cd8cf466eb" x="120.352492" y="695.759375" style="fill: none; stroke: #737373; stroke-width: 0.8"/>
    </g>
    <g clip-path="url(#p9e647c769c)">
     <use xlink:href="#C0_0_cd8cf466eb" x="120.352492" y="697.065163" style="fill: none; stroke: #737373; stroke-width: 0.8"/>
    </g>
    <g clip-path="url(#p9e647c769c)">
     <use xlink:href="#C0_0_cd8cf466eb" x="120.352492" y="586.642475" style="fill: none; stroke: #737373; stroke-width: 0.8"/>
    </g>
    <g clip-path="url(#p9e647c769c)">
     <use xlink:href="#C0_0_cd8cf466eb" x="120.352492" y="695.586137" style="fill: none; stroke: #737373; stroke-width: 0.8"/>
    </g>
    <g clip-path="url(#p9e647c769c)">
     <use xlink:href="#C0_0_cd8cf466eb" x="120.352492" y="700.82509" style="fill: none; stroke: #737373; stroke-width: 0.8"/>
    </g>
    <g clip-path="url(#p9e647c769c)">
     <use xlink:href="#C0_0_cd8cf466eb" x="120.352492" y="585.274288" style="fill: none; stroke: #737373; stroke-width: 0.8"/>
    </g>
    <g clip-path="url(#p9e647c769c)">
     <use xlink:href="#C0_0_cd8cf466eb" x="120.352492" y="576.148697" style="fill: none; stroke: #737373; stroke-width: 0.8"/>
    </g>
    <g clip-path="url(#p9e647c769c)">
     <use xlink:href="#C0_0_cd8cf466eb" x="120.352492" y="566.033652" style="fill: none; stroke: #737373; stroke-width: 0.8"/>
    </g>
   </g>
   <g id="PatchCollection_2">
    <path d="M 193.435935 697.732645 
L 193.664679 697.732645 
L 193.664679 694.719934 
L 193.435935 694.719934 
z
" clip-path="url(#p9e647c769c)" style="fill: #ece0da; stroke: #494949; stroke-width: 0.6"/>
    <path d="M 193.321564 694.719934 
L 193.77905 694.719934 
L 193.77905 692.317499 
L 193.321564 692.317499 
z
" clip-path="url(#p9e647c769c)" style="fill: #eadcd4; stroke: #494949; stroke-width: 0.6"/>
    <path d="M 193.092821 692.317499 
L 194.007793 692.317499 
L 194.007793 691.046739 
L 193.092821 691.046739 
z
" clip-path="url(#p9e647c769c)" style="fill: #e8d6cc; stroke: #494949; stroke-width: 0.6"/>
    <path d="M 192.635334 691.046739 
L 194.46528 691.046739 
L 194.46528 689.006114 
L 192.635334 689.006114 
z
" clip-path="url(#p9e647c769c)" style="fill: #e6d0c4; stroke: #494949; stroke-width: 0.6"/>
    <path d="M 191.720362 689.006114 
L 195.380252 689.006114 
L 195.380252 686.296082 
L 191.720362 686.296082 
z
" clip-path="url(#p9e647c769c)" style="fill: #e3c7b8; stroke: #494949; stroke-width: 0.6"/>
    <path d="M 189.890416 686.296082 
L 197.210198 686.296082 
L 197.210198 683.486244 
L 189.890416 683.486244 
z
" clip-path="url(#p9e647c769c)" style="fill: #dfbca9; stroke: #494949; stroke-width: 0.6"/>
    <path d="M 186.230526 683.486244 
L 200.870088 683.486244 
L 200.870088 679.677221 
L 186.230526 679.677221 
z
" clip-path="url(#p9e647c769c)" style="fill: #daaf97; stroke: #494949; stroke-width: 0.6"/>
    <path d="M 178.910744 679.677221 
L 208.18987 679.677221 
L 208.18987 674.738165 
L 178.910744 674.738165 
z
" clip-path="url(#p9e647c769c)" style="fill: #d39e80; stroke: #494949; stroke-width: 0.6"/>
    <path d="M 164.271181 674.738165 
L 222.829433 674.738165 
L 222.829433 656.962887 
L 164.271181 656.962887 
z
" clip-path="url(#p9e647c769c)" style="fill: #cc8963; stroke: #494949; stroke-width: 0.6"/>
    <path d="M 178.910744 656.962887 
L 208.18987 656.962887 
L 208.18987 648.581606 
L 178.910744 648.581606 
z
" clip-path="url(#p9e647c769c)" style="fill: #d39e80; stroke: #494949; stroke-width: 0.6"/>
    <path d="M 186.230526 648.581606 
L 200.870088 648.581606 
L 200.870088 638.480854 
L 186.230526 638.480854 
z
" clip-path="url(#p9e647c769c)" style="fill: #daaf97; stroke: #494949; stroke-width: 0.6"/>
    <path d="M 189.890416 638.480854 
L 197.210198 638.480854 
L 197.210198 628.951581 
L 189.890416 628.951581 
z
" clip-path="url(#p9e647c769c)" style="fill: #dfbca9; stroke: #494949; stroke-width: 0.6"/>
    <path d="M 191.720362 628.951581 
L 195.380252 628.951581 
L 195.380252 616.805639 
L 191.720362 616.805639 
z
" clip-path="url(#p9e647c769c)" style="fill: #e3c7b8; stroke: #494949; stroke-width: 0.6"/>
    <path d="M 192.635334 616.805639 
L 194.46528 616.805639 
L 194.46528 594.63682 
L 192.635334 594.63682 
z
" clip-path="url(#p9e647c769c)" style="fill: #e6d0c4; stroke: #494949; stroke-width: 0.6"/>
    <path d="M 193.092821 594.63682 
L 194.007793 594.63682 
L 194.007793 582.676541 
L 193.092821 582.676541 
z
" clip-path="url(#p9e647c769c)" style="fill: #e8d6cc; stroke: #494949; stroke-width: 0.6"/>
    <path d="M 193.321564 582.676541 
L 193.77905 582.676541 
L 193.77905 567.870145 
L 193.321564 567.870145 
z
" clip-path="url(#p9e647c769c)" style="fill: #eadcd4; stroke: #494949; stroke-width: 0.6"/>
    <path d="M 193.435935 567.870145 
L 193.664679 567.870145 
L 193.664679 534.059369 
L 193.435935 534.059369 
z
" clip-path="url(#p9e647c769c)" style="fill: #ece0da; stroke: #494949; stroke-width: 0.6"/>
   </g>
   <g id="PathCollection_2">
    <defs>
     <path id="C1_0_ecae224d56" d="M 0 2.5 
C 0.663008 2.5 1.29895 2.236584 1.767767 1.767767 
C 2.236584 1.29895 2.5 0.663008 2.5 -0 
C 2.5 -0.663008 2.236584 -1.29895 1.767767 -1.767767 
C 1.29895 -2.236584 0.663008 -2.5 0 -2.5 
C -0.663008 -2.5 -1.29895 -2.236584 -1.767767 -1.767767 
C -2.236584 -1.29895 -2.5 -0.663008 -2.5 0 
C -2.5 0.663008 -2.236584 1.29895 -1.767767 1.767767 
C -1.29895 2.236584 -0.663008 2.5 0 2.5 
z
"/>
    </defs>
    <g clip-path="url(#p9e647c769c)">
     <use xlink:href="#C1_0_ecae224d56" x="193.550307" y="532.352141" style="fill: none; stroke: #737373; stroke-width: 0.8"/>
    </g>
    <g clip-path="url(#p9e647c769c)">
     <use xlink:href="#C1_0_ecae224d56" x="193.550307" y="522.467068" style="fill: none; stroke: #737373; stroke-width: 0.8"/>
    </g>
    <g clip-path="url(#p9e647c769c)">
     <use xlink:href="#C1_0_ecae224d56" x="193.550307" y="521.093288" style="fill: none; stroke: #737373; stroke-width: 0.8"/>
    </g>
    <g clip-path="url(#p9e647c769c)">
     <use xlink:href="#C1_0_ecae224d56" x="193.550307" y="517.959281" style="fill: none; stroke: #737373; stroke-width: 0.8"/>
    </g>
    <g clip-path="url(#p9e647c769c)">
     <use xlink:href="#C1_0_ecae224d56" x="193.550307" y="515.36019" style="fill: none; stroke: #737373; stroke-width: 0.8"/>
    </g>
    <g clip-path="url(#p9e647c769c)">
     <use xlink:href="#C1_0_ecae224d56" x="193.550307" y="697.878058" style="fill: none; stroke: #737373; stroke-width: 0.8"/>
    </g>
    <g clip-path="url(#p9e647c769c)">
     <use xlink:href="#C1_0_ecae224d56" x="193.550307" y="698.526189" style="fill: none; stroke: #737373; stroke-width: 0.8"/>
    </g>
    <g clip-path="url(#p9e647c769c)">
     <use xlink:href="#C1_0_ecae224d56" x="193.550307" y="697.869442" style="fill: none; stroke: #737373; stroke-width: 0.8"/>
    </g>
    <g clip-path="url(#p9e647c769c)">
     <use xlink:href="#C1_0_ecae224d56" x="193.550307" y="700.457486" style="fill: none; stroke: #737373; stroke-width: 0.8"/>
    </g>
    <g clip-path="url(#p9e647c769c)">
     <use xlink:href="#C1_0_ecae224d56" x="193.550307" y="697.869442" style="fill: none; stroke: #737373; stroke-width: 0.8"/>
    </g>
    <g clip-path="url(#p9e647c769c)">
     <use xlink:href="#C1_0_ecae224d56" x="193.550307" y="700.457486" style="fill: none; stroke: #737373; stroke-width: 0.8"/>
    </g>
    <g clip-path="url(#p9e647c769c)">
     <use xlink:href="#C1_0_ecae224d56" x="193.550307" y="513.53506" style="fill: none; stroke: #737373; stroke-width: 0.8"/>
    </g>
   </g>
   <g id="PatchCollection_3">
    <path d="M 266.63375 695.413597 
L 266.862493 695.413597 
L 266.862493 693.682875 
L 266.63375 693.682875 
z
" clip-path="url(#p9e647c769c)" style="fill: #d7e5da; stroke: #494949; stroke-width: 0.6"/>
    <path d="M 266.519379 693.682875 
L 266.976865 693.682875 
L 266.976865 691.941643 
L 266.519379 691.941643 
z
" clip-path="url(#p9e647c769c)" style="fill: #d1e1d5; stroke: #494949; stroke-width: 0.6"/>
    <path d="M 266.290635 691.941643 
L 267.205608 691.941643 
L 267.205608 689.79464 
L 266.290635 689.79464 
z
" clip-path="url(#p9e647c769c)" style="fill: #caddce; stroke: #494949; stroke-width: 0.6"/>
    <path d="M 265.833149 689.79464 
L 267.663094 689.79464 
L 267.663094 687.025154 
L 265.833149 687.025154 
z
" clip-path="url(#p9e647c769c)" style="fill: #c1d7c6; stroke: #494949; stroke-width: 0.6"/>
    <path d="M 264.918176 687.025154 
L 268.578067 687.025154 
L 268.578067 684.178429 
L 264.918176 684.178429 
z
" clip-path="url(#p9e647c769c)" style="fill: #b5d1bb; stroke: #494949; stroke-width: 0.6"/>
    <path d="M 263.088231 684.178429 
L 270.408013 684.178429 
L 270.408013 681.344068 
L 263.088231 681.344068 
z
" clip-path="url(#p9e647c769c)" style="fill: #a6c8ae; stroke: #494949; stroke-width: 0.6"/>
    <path d="M 259.42834 681.344068 
L 274.067903 681.344068 
L 274.067903 677.840442 
L 259.42834 677.840442 
z
" clip-path="url(#p9e647c769c)" style="fill: #94bd9d; stroke: #494949; stroke-width: 0.6"/>
    <path d="M 252.108559 677.840442 
L 281.387685 677.840442 
L 281.387685 673.436078 
L 252.108559 673.436078 
z
" clip-path="url(#p9e647c769c)" style="fill: #7caf88; stroke: #494949; stroke-width: 0.6"/>
    <path d="M 237.468996 673.436078 
L 296.027248 673.436078 
L 296.027248 656.924875 
L 237.468996 656.924875 
z
" clip-path="url(#p9e647c769c)" style="fill: #5f9e6e; stroke: #494949; stroke-width: 0.6"/>
    <path d="M 252.108559 656.924875 
L 281.387685 656.924875 
L 281.387685 648.018736 
L 252.108559 648.018736 
z
" clip-path="url(#p9e647c769c)" style="fill: #7caf88; stroke: #494949; stroke-width: 0.6"/>
    <path d="M 259.42834 648.018736 
L 274.067903 648.018736 
L 274.067903 635.926515 
L 259.42834 635.926515 
z
" clip-path="url(#p9e647c769c)" style="fill: #94bd9d; stroke: #494949; stroke-width: 0.6"/>
    <path d="M 263.088231 635.926515 
L 270.408013 635.926515 
L 270.408013 619.259247 
L 263.088231 619.259247 
z
" clip-path="url(#p9e647c769c)" style="fill: #a6c8ae; stroke: #494949; stroke-width: 0.6"/>
    <path d="M 264.918176 619.259247 
L 268.578067 619.259247 
L 268.578067 598.096807 
L 264.918176 598.096807 
z
" clip-path="url(#p9e647c769c)" style="fill: #b5d1bb; stroke: #494949; stroke-width: 0.6"/>
    <path d="M 265.833149 598.096807 
L 267.663094 598.096807 
L 267.663094 582.044017 
L 265.833149 582.044017 
z
" clip-path="url(#p9e647c769c)" style="fill: #c1d7c6; stroke: #494949; stroke-width: 0.6"/>
    <path d="M 266.290635 582.044017 
L 267.205608 582.044017 
L 267.205608 570.802991 
L 266.290635 570.802991 
z
" clip-path="url(#p9e647c769c)" style="fill: #caddce; stroke: #494949; stroke-width: 0.6"/>
    <path d="M 266.519379 570.802991 
L 266.976865 570.802991 
L 266.976865 558.418606 
L 266.519379 558.418606 
z
" clip-path="url(#p9e647c769c)" style="fill: #d1e1d5; stroke: #494949; stroke-width: 0.6"/>
    <path d="M 266.63375 558.418606 
L 266.862493 558.418606 
L 266.862493 534.624896 
L 266.63375 534.624896 
z
" clip-path="url(#p9e647c769c)" style="fill: #d7e5da; stroke: #494949; stroke-width: 0.6"/>
   </g>
   <g id="PathCollection_3">
    <defs>
     <path id="C2_0_77a585ab3a" d="M 0 2.5 
C 0.663008 2.5 1.29895 2.236584 1.767767 1.767767 
C 2.236584 1.29895 2.5 0.663008 2.5 -0 
C 2.5 -0.663008 2.236584 -1.29895 1.767767 -1.767767 
C 1.29895 -2.236584 0.663008 -2.5 0 -2.5 
C -0.663008 -2.5 -1.29895 -2.236584 -1.767767 -1.767767 
C -2.236584 -1.29895 -2.5 -0.663008 -2.5 0 
C -2.5 0.663008 -2.236584 1.29895 -1.767767 1.767767 
C -1.29895 2.236584 -0.663008 2.5 0 2.5 
z
"/>
    </defs>
    <g clip-path="url(#p9e647c769c)">
     <use xlink:href="#C2_0_77a585ab3a" x="266.748122" y="695.957512" style="fill: none; stroke: #737373; stroke-width: 0.8"/>
    </g>
    <g clip-path="url(#p9e647c769c)">
     <use xlink:href="#C2_0_77a585ab3a" x="266.748122" y="386.799643" style="fill: none; stroke: #737373; stroke-width: 0.8"/>
    </g>
    <g clip-path="url(#p9e647c769c)">
     <use xlink:href="#C2_0_77a585ab3a" x="266.748122" y="407.381745" style="fill: none; stroke: #737373; stroke-width: 0.8"/>
    </g>
    <g clip-path="url(#p9e647c769c)">
     <use xlink:href="#C2_0_77a585ab3a" x="266.748122" y="479.520912" style="fill: none; stroke: #737373; stroke-width: 0.8"/>
    </g>
    <g clip-path="url(#p9e647c769c)">
     <use xlink:href="#C2_0_77a585ab3a" x="266.748122" y="520.323251" style="fill: none; stroke: #737373; stroke-width: 0.8"/>
    </g>
    <g clip-path="url(#p9e647c769c)">
     <use xlink:href="#C2_0_77a585ab3a" x="266.748122" y="696.872978" style="fill: none; stroke: #737373; stroke-width: 0.8"/>
    </g>
    <g clip-path="url(#p9e647c769c)">
     <use xlink:href="#C2_0_77a585ab3a" x="266.748122" y="697.194131" style="fill: none; stroke: #737373; stroke-width: 0.8"/>
    </g>
    <g clip-path="url(#p9e647c769c)">
     <use xlink:href="#C2_0_77a585ab3a" x="266.748122" y="696.428109" style="fill: none; stroke: #737373; stroke-width: 0.8"/>
    </g>
    <g clip-path="url(#p9e647c769c)">
     <use xlink:href="#C2_0_77a585ab3a" x="266.748122" y="532.688813" style="fill: none; stroke: #737373; stroke-width: 0.8"/>
    </g>
    <g clip-path="url(#p9e647c769c)">
     <use xlink:href="#C2_0_77a585ab3a" x="266.748122" y="496.753814" style="fill: none; stroke: #737373; stroke-width: 0.8"/>
    </g>
    <g clip-path="url(#p9e647c769c)">
     <use xlink:href="#C2_0_77a585ab3a" x="266.748122" y="695.428668" style="fill: none; stroke: #737373; stroke-width: 0.8"/>
    </g>
    <g clip-path="url(#p9e647c769c)">
     <use xlink:href="#C2_0_77a585ab3a" x="266.748122" y="695.589814" style="fill: none; stroke: #737373; stroke-width: 0.8"/>
    </g>
   </g>
   <g id="PatchCollection_4">
    <path d="M 339.831565 696.041975 
L 340.060308 696.041975 
L 340.060308 694.185806 
L 339.831565 694.185806 
z
" clip-path="url(#p9e647c769c)" style="fill: #e8d9da; stroke: #494949; stroke-width: 0.6"/>
    <path d="M 339.717193 694.185806 
L 340.17468 694.185806 
L 340.17468 692.450598 
L 339.717193 692.450598 
z
" clip-path="url(#p9e647c769c)" style="fill: #e6d3d4; stroke: #494949; stroke-width: 0.6"/>
    <path d="M 339.48845 692.450598 
L 340.403423 692.450598 
L 340.403423 689.031545 
L 339.48845 689.031545 
z
" clip-path="url(#p9e647c769c)" style="fill: #e2cbcc; stroke: #494949; stroke-width: 0.6"/>
    <path d="M 339.030964 689.031545 
L 340.860909 689.031545 
L 340.860909 686.715899 
L 339.030964 686.715899 
z
" clip-path="url(#p9e647c769c)" style="fill: #dfc2c3; stroke: #494949; stroke-width: 0.6"/>
    <path d="M 338.115991 686.715899 
L 341.775882 686.715899 
L 341.775882 683.695019 
L 338.115991 683.695019 
z
" clip-path="url(#p9e647c769c)" style="fill: #dab6b7; stroke: #494949; stroke-width: 0.6"/>
    <path d="M 336.286046 683.695019 
L 343.605827 683.695019 
L 343.605827 680.590856 
L 336.286046 680.590856 
z
" clip-path="url(#p9e647c769c)" style="fill: #d3a6a8; stroke: #494949; stroke-width: 0.6"/>
    <path d="M 332.626155 680.590856 
L 347.265718 680.590856 
L 347.265718 676.769847 
L 332.626155 676.769847 
z
" clip-path="url(#p9e647c769c)" style="fill: #cb9395; stroke: #494949; stroke-width: 0.6"/>
    <path d="M 325.306374 676.769847 
L 354.585499 676.769847 
L 354.585499 672.006374 
L 325.306374 672.006374 
z
" clip-path="url(#p9e647c769c)" style="fill: #c27b7d; stroke: #494949; stroke-width: 0.6"/>
    <path d="M 310.666811 672.006374 
L 369.225062 672.006374 
L 369.225062 654.922671 
L 310.666811 654.922671 
z
" clip-path="url(#p9e647c769c)" style="fill: #b55d60; stroke: #494949; stroke-width: 0.6"/>
    <path d="M 325.306374 654.922671 
L 354.585499 654.922671 
L 354.585499 644.998466 
L 325.306374 644.998466 
z
" clip-path="url(#p9e647c769c)" style="fill: #c27b7d; stroke: #494949; stroke-width: 0.6"/>
    <path d="M 332.626155 644.998466 
L 347.265718 644.998466 
L 347.265718 630.932852 
L 332.626155 630.932852 
z
" clip-path="url(#p9e647c769c)" style="fill: #cb9395; stroke: #494949; stroke-width: 0.6"/>
    <path d="M 336.286046 630.932852 
L 343.605827 630.932852 
L 343.605827 613.078285 
L 336.286046 613.078285 
z
" clip-path="url(#p9e647c769c)" style="fill: #d3a6a8; stroke: #494949; stroke-width: 0.6"/>
    <path d="M 338.115991 613.078285 
L 341.775882 613.078285 
L 341.775882 597.498088 
L 338.115991 597.498088 
z
" clip-path="url(#p9e647c769c)" style="fill: #dab6b7; stroke: #494949; stroke-width: 0.6"/>
    <path d="M 339.030964 597.498088 
L 340.860909 597.498088 
L 340.860909 583.704041 
L 339.030964 583.704041 
z
" clip-path="url(#p9e647c769c)" style="fill: #dfc2c3; stroke: #494949; stroke-width: 0.6"/>
    <path d="M 339.48845 583.704041 
L 340.403423 583.704041 
L 340.403423 570.794774 
L 339.48845 570.794774 
z
" clip-path="url(#p9e647c769c)" style="fill: #e2cbcc; stroke: #494949; stroke-width: 0.6"/>
    <path d="M 339.717193 570.794774 
L 340.17468 570.794774 
L 340.17468 553.002452 
L 339.717193 553.002452 
z
" clip-path="url(#p9e647c769c)" style="fill: #e6d3d4; stroke: #494949; stroke-width: 0.6"/>
    <path d="M 339.831565 553.002452 
L 340.060308 553.002452 
L 340.060308 538.470127 
L 339.831565 538.470127 
z
" clip-path="url(#p9e647c769c)" style="fill: #e8d9da; stroke: #494949; stroke-width: 0.6"/>
   </g>
   <g id="PathCollection_4">
    <defs>
     <path id="C3_0_0247c4bb40" d="M 0 2.5 
C 0.663008 2.5 1.29895 2.236584 1.767767 1.767767 
C 2.236584 1.29895 2.5 0.663008 2.5 -0 
C 2.5 -0.663008 2.236584 -1.29895 1.767767 -1.767767 
C 1.29895 -2.236584 0.663008 -2.5 0 -2.5 
C -0.663008 -2.5 -1.29895 -2.236584 -1.767767 -1.767767 
C -2.236584 -1.29895 -2.5 -0.663008 -2.5 0 
C -2.5 0.663008 -2.236584 1.29895 -1.767767 1.767767 
C -1.29895 2.236584 -0.663008 2.5 0 2.5 
z
"/>
    </defs>
    <g clip-path="url(#p9e647c769c)">
     <use xlink:href="#C3_0_0247c4bb40" x="339.945937" y="698.583444" style="fill: none; stroke: #737373; stroke-width: 0.8"/>
    </g>
    <g clip-path="url(#p9e647c769c)">
     <use xlink:href="#C3_0_0247c4bb40" x="339.945937" y="698.513847" style="fill: none; stroke: #737373; stroke-width: 0.8"/>
    </g>
    <g clip-path="url(#p9e647c769c)">
     <use xlink:href="#C3_0_0247c4bb40" x="339.945937" y="698.906435" style="fill: none; stroke: #737373; stroke-width: 0.8"/>
    </g>
    <g clip-path="url(#p9e647c769c)">
     <use xlink:href="#C3_0_0247c4bb40" x="339.945937" y="381.635259" style="fill: none; stroke: #737373; stroke-width: 0.8"/>
    </g>
    <g clip-path="url(#p9e647c769c)">
     <use xlink:href="#C3_0_0247c4bb40" x="339.945937" y="403.545357" style="fill: none; stroke: #737373; stroke-width: 0.8"/>
    </g>
    <g clip-path="url(#p9e647c769c)">
     <use xlink:href="#C3_0_0247c4bb40" x="339.945937" y="535.504912" style="fill: none; stroke: #737373; stroke-width: 0.8"/>
    </g>
    <g clip-path="url(#p9e647c769c)">
     <use xlink:href="#C3_0_0247c4bb40" x="339.945937" y="537.706612" style="fill: none; stroke: #737373; stroke-width: 0.8"/>
    </g>
    <g clip-path="url(#p9e647c769c)">
     <use xlink:href="#C3_0_0247c4bb40" x="339.945937" y="486.3539" style="fill: none; stroke: #737373; stroke-width: 0.8"/>
    </g>
    <g clip-path="url(#p9e647c769c)">
     <use xlink:href="#C3_0_0247c4bb40" x="339.945937" y="696.764102" style="fill: none; stroke: #737373; stroke-width: 0.8"/>
    </g>
    <g clip-path="url(#p9e647c769c)">
     <use xlink:href="#C3_0_0247c4bb40" x="339.945937" y="697.353038" style="fill: none; stroke: #737373; stroke-width: 0.8"/>
    </g>
    <g clip-path="url(#p9e647c769c)">
     <use xlink:href="#C3_0_0247c4bb40" x="339.945937" y="696.093676" style="fill: none; stroke: #737373; stroke-width: 0.8"/>
    </g>
    <g clip-path="url(#p9e647c769c)">
     <use xlink:href="#C3_0_0247c4bb40" x="339.945937" y="532.474733" style="fill: none; stroke: #737373; stroke-width: 0.8"/>
    </g>
   </g>
   <g id="PatchCollection_5">
    <path d="M 413.02938 695.97861 
L 413.258123 695.97861 
L 413.258123 694.563727 
L 413.02938 694.563727 
z
" clip-path="url(#p9e647c769c)" style="fill: #e0dee6; stroke: #494949; stroke-width: 0.6"/>
    <path d="M 412.915008 694.563727 
L 413.372494 694.563727 
L 413.372494 692.46707 
L 412.915008 692.46707 
z
" clip-path="url(#p9e647c769c)" style="fill: #dcd9e3; stroke: #494949; stroke-width: 0.6"/>
    <path d="M 412.686265 692.46707 
L 413.601238 692.46707 
L 413.601238 689.988021 
L 412.686265 689.988021 
z
" clip-path="url(#p9e647c769c)" style="fill: #d6d3e0; stroke: #494949; stroke-width: 0.6"/>
    <path d="M 412.228779 689.988021 
L 414.058724 689.988021 
L 414.058724 686.638698 
L 412.228779 686.638698 
z
" clip-path="url(#p9e647c769c)" style="fill: #cfcbdb; stroke: #494949; stroke-width: 0.6"/>
    <path d="M 411.313806 686.638698 
L 414.973697 686.638698 
L 414.973697 684.050938 
L 411.313806 684.050938 
z
" clip-path="url(#p9e647c769c)" style="fill: #c6c2d5; stroke: #494949; stroke-width: 0.6"/>
    <path d="M 409.483861 684.050938 
L 416.803642 684.050938 
L 416.803642 679.977459 
L 409.483861 679.977459 
z
" clip-path="url(#p9e647c769c)" style="fill: #bbb5ce; stroke: #494949; stroke-width: 0.6"/>
    <path d="M 405.82397 679.977459 
L 420.463533 679.977459 
L 420.463533 675.552543 
L 405.82397 675.552543 
z
" clip-path="url(#p9e647c769c)" style="fill: #ada6c5; stroke: #494949; stroke-width: 0.6"/>
    <path d="M 398.504188 675.552543 
L 427.783314 675.552543 
L 427.783314 669.2101 
L 398.504188 669.2101 
z
" clip-path="url(#p9e647c769c)" style="fill: #9b92b9; stroke: #494949; stroke-width: 0.6"/>
    <path d="M 383.864625 669.2101 
L 442.422877 669.2101 
L 442.422877 647.191668 
L 383.864625 647.191668 
z
" clip-path="url(#p9e647c769c)" style="fill: #857aab; stroke: #494949; stroke-width: 0.6"/>
    <path d="M 398.504188 647.191668 
L 427.783314 647.191668 
L 427.783314 634.850663 
L 398.504188 634.850663 
z
" clip-path="url(#p9e647c769c)" style="fill: #9b92b9; stroke: #494949; stroke-width: 0.6"/>
    <path d="M 405.82397 634.850663 
L 420.463533 634.850663 
L 420.463533 617.014352 
L 405.82397 617.014352 
z
" clip-path="url(#p9e647c769c)" style="fill: #ada6c5; stroke: #494949; stroke-width: 0.6"/>
    <path d="M 409.483861 617.014352 
L 416.803642 617.014352 
L 416.803642 590.033123 
L 409.483861 590.033123 
z
" clip-path="url(#p9e647c769c)" style="fill: #bbb5ce; stroke: #494949; stroke-width: 0.6"/>
    <path d="M 411.313806 590.033123 
L 414.973697 590.033123 
L 414.973697 562.802154 
L 411.313806 562.802154 
z
" clip-path="url(#p9e647c769c)" style="fill: #c6c2d5; stroke: #494949; stroke-width: 0.6"/>
    <path d="M 412.228779 562.802154 
L 414.058724 562.802154 
L 414.058724 538.000966 
L 412.228779 538.000966 
z
" clip-path="url(#p9e647c769c)" style="fill: #cfcbdb; stroke: #494949; stroke-width: 0.6"/>
    <path d="M 412.686265 538.000966 
L 413.601238 538.000966 
L 413.601238 513.88409 
L 412.686265 513.88409 
z
" clip-path="url(#p9e647c769c)" style="fill: #d6d3e0; stroke: #494949; stroke-width: 0.6"/>
    <path d="M 412.915008 513.88409 
L 413.372494 513.88409 
L 413.372494 495.006078 
L 412.915008 495.006078 
z
" clip-path="url(#p9e647c769c)" style="fill: #dcd9e3; stroke: #494949; stroke-width: 0.6"/>
    <path d="M 413.02938 495.006078 
L 413.258123 495.006078 
L 413.258123 470.923284 
L 413.02938 470.923284 
z
" clip-path="url(#p9e647c769c)" style="fill: #e0dee6; stroke: #494949; stroke-width: 0.6"/>
   </g>
   <g id="PathCollection_5">
    <defs>
     <path id="C4_0_2c11510fa4" d="M 0 2.5 
C 0.663008 2.5 1.29895 2.236584 1.767767 1.767767 
C 2.236584 1.29895 2.5 0.663008 2.5 -0 
C 2.5 -0.663008 2.236584 -1.29895 1.767767 -1.767767 
C 1.29895 -2.236584 0.663008 -2.5 0 -2.5 
C -0.663008 -2.5 -1.29895 -2.236584 -1.767767 -1.767767 
C -2.236584 -1.29895 -2.5 -0.663008 -2.5 0 
C -2.5 0.663008 -2.236584 1.29895 -1.767767 1.767767 
C -1.29895 2.236584 -0.663008 2.5 0 2.5 
z
"/>
    </defs>
    <g clip-path="url(#p9e647c769c)">
     <use xlink:href="#C4_0_2c11510fa4" x="413.143751" y="379.141144" style="fill: none; stroke: #737373; stroke-width: 0.8"/>
    </g>
    <g clip-path="url(#p9e647c769c)">
     <use xlink:href="#C4_0_2c11510fa4" x="413.143751" y="436.599669" style="fill: none; stroke: #737373; stroke-width: 0.8"/>
    </g>
    <g clip-path="url(#p9e647c769c)">
     <use xlink:href="#C4_0_2c11510fa4" x="413.143751" y="697.359406" style="fill: none; stroke: #737373; stroke-width: 0.8"/>
    </g>
    <g clip-path="url(#p9e647c769c)">
     <use xlink:href="#C4_0_2c11510fa4" x="413.143751" y="392.841413" style="fill: none; stroke: #737373; stroke-width: 0.8"/>
    </g>
    <g clip-path="url(#p9e647c769c)">
     <use xlink:href="#C4_0_2c11510fa4" x="413.143751" y="696.233812" style="fill: none; stroke: #737373; stroke-width: 0.8"/>
    </g>
    <g clip-path="url(#p9e647c769c)">
     <use xlink:href="#C4_0_2c11510fa4" x="413.143751" y="696.851555" style="fill: none; stroke: #737373; stroke-width: 0.8"/>
    </g>
    <g clip-path="url(#p9e647c769c)">
     <use xlink:href="#C4_0_2c11510fa4" x="413.143751" y="696.08623" style="fill: none; stroke: #737373; stroke-width: 0.8"/>
    </g>
    <g clip-path="url(#p9e647c769c)">
     <use xlink:href="#C4_0_2c11510fa4" x="413.143751" y="701.383442" style="fill: none; stroke: #737373; stroke-width: 0.8"/>
    </g>
    <g clip-path="url(#p9e647c769c)">
     <use xlink:href="#C4_0_2c11510fa4" x="413.143751" y="371.725332" style="fill: none; stroke: #737373; stroke-width: 0.8"/>
    </g>
    <g clip-path="url(#p9e647c769c)">
     <use xlink:href="#C4_0_2c11510fa4" x="413.143751" y="696.327282" style="fill: none; stroke: #737373; stroke-width: 0.8"/>
    </g>
    <g clip-path="url(#p9e647c769c)">
     <use xlink:href="#C4_0_2c11510fa4" x="413.143751" y="466.809116" style="fill: none; stroke: #737373; stroke-width: 0.8"/>
    </g>
    <g clip-path="url(#p9e647c769c)">
     <use xlink:href="#C4_0_2c11510fa4" x="413.143751" y="470.031878" style="fill: none; stroke: #737373; stroke-width: 0.8"/>
    </g>
   </g>
   <g id="PatchCollection_6">
    <path d="M 486.227195 692.267473 
L 486.455938 692.267473 
L 486.455938 691.45066 
L 486.227195 691.45066 
z
" clip-path="url(#p9e647c769c)" style="fill: #e1deda; stroke: #494949; stroke-width: 0.6"/>
    <path d="M 486.112823 691.45066 
L 486.570309 691.45066 
L 486.570309 690.543625 
L 486.112823 690.543625 
z
" clip-path="url(#p9e647c769c)" style="fill: #ded9d5; stroke: #494949; stroke-width: 0.6"/>
    <path d="M 485.88408 690.543625 
L 486.799052 690.543625 
L 486.799052 689.4668 
L 485.88408 689.4668 
z
" clip-path="url(#p9e647c769c)" style="fill: #d8d2cd; stroke: #494949; stroke-width: 0.6"/>
    <path d="M 485.426593 689.4668 
L 487.256539 689.4668 
L 487.256539 687.59364 
L 485.426593 687.59364 
z
" clip-path="url(#p9e647c769c)" style="fill: #d2cbc5; stroke: #494949; stroke-width: 0.6"/>
    <path d="M 484.511621 687.59364 
L 488.171511 687.59364 
L 488.171511 685.20875 
L 484.511621 685.20875 
z
" clip-path="url(#p9e647c769c)" style="fill: #c9c1b9; stroke: #494949; stroke-width: 0.6"/>
    <path d="M 482.681675 685.20875 
L 490.001457 685.20875 
L 490.001457 683.04051 
L 482.681675 683.04051 
z
" clip-path="url(#p9e647c769c)" style="fill: #bfb4ab; stroke: #494949; stroke-width: 0.6"/>
    <path d="M 479.021785 683.04051 
L 493.661348 683.04051 
L 493.661348 679.964631 
L 479.021785 679.964631 
z
" clip-path="url(#p9e647c769c)" style="fill: #b2a599; stroke: #494949; stroke-width: 0.6"/>
    <path d="M 471.702003 679.964631 
L 500.981129 679.964631 
L 500.981129 675.790402 
L 471.702003 675.790402 
z
" clip-path="url(#p9e647c769c)" style="fill: #a19182; stroke: #494949; stroke-width: 0.6"/>
    <path d="M 457.06244 675.790402 
L 515.620692 675.790402 
L 515.620692 661.384709 
L 457.06244 661.384709 
z
" clip-path="url(#p9e647c769c)" style="fill: #8d7866; stroke: #494949; stroke-width: 0.6"/>
    <path d="M 471.702003 661.384709 
L 500.981129 661.384709 
L 500.981129 654.296219 
L 471.702003 654.296219 
z
" clip-path="url(#p9e647c769c)" style="fill: #a19182; stroke: #494949; stroke-width: 0.6"/>
    <path d="M 479.021785 654.296219 
L 493.661348 654.296219 
L 493.661348 645.089548 
L 479.021785 645.089548 
z
" clip-path="url(#p9e647c769c)" style="fill: #b2a599; stroke: #494949; stroke-width: 0.6"/>
    <path d="M 482.681675 645.089548 
L 490.001457 645.089548 
L 490.001457 626.525082 
L 482.681675 626.525082 
z
" clip-path="url(#p9e647c769c)" style="fill: #bfb4ab; stroke: #494949; stroke-width: 0.6"/>
    <path d="M 484.511621 626.525082 
L 488.171511 626.525082 
L 488.171511 602.75285 
L 484.511621 602.75285 
z
" clip-path="url(#p9e647c769c)" style="fill: #c9c1b9; stroke: #494949; stroke-width: 0.6"/>
    <path d="M 485.426593 602.75285 
L 487.256539 602.75285 
L 487.256539 585.212697 
L 485.426593 585.212697 
z
" clip-path="url(#p9e647c769c)" style="fill: #d2cbc5; stroke: #494949; stroke-width: 0.6"/>
    <path d="M 485.88408 585.212697 
L 486.799052 585.212697 
L 486.799052 571.594881 
L 485.88408 571.594881 
z
" clip-path="url(#p9e647c769c)" style="fill: #d8d2cd; stroke: #494949; stroke-width: 0.6"/>
    <path d="M 486.112823 571.594881 
L 486.570309 571.594881 
L 486.570309 564.118841 
L 486.112823 564.118841 
z
" clip-path="url(#p9e647c769c)" style="fill: #ded9d5; stroke: #494949; stroke-width: 0.6"/>
    <path d="M 486.227195 564.118841 
L 486.455938 564.118841 
L 486.455938 555.58364 
L 486.227195 555.58364 
z
" clip-path="url(#p9e647c769c)" style="fill: #e1deda; stroke: #494949; stroke-width: 0.6"/>
   </g>
   <g id="PathCollection_6">
    <defs>
     <path id="C5_0_de5e9443ae" d="M 0 2.5 
C 0.663008 2.5 1.29895 2.236584 1.767767 1.767767 
C 2.236584 1.29895 2.5 0.663008 2.5 -0 
C 2.5 -0.663008 2.236584 -1.29895 1.767767 -1.767767 
C 1.29895 -2.236584 0.663008 -2.5 0 -2.5 
C -0.663008 -2.5 -1.29895 -2.236584 -1.767767 -1.767767 
C -2.236584 -1.29895 -2.5 -0.663008 -2.5 0 
C -2.5 0.663008 -2.236584 1.29895 -1.767767 1.767767 
C -1.29895 2.236584 -0.663008 2.5 0 2.5 
z
"/>
    </defs>
    <g clip-path="url(#p9e647c769c)">
     <use xlink:href="#C5_0_de5e9443ae" x="486.341566" y="551.916566" style="fill: none; stroke: #737373; stroke-width: 0.8"/>
    </g>
    <g clip-path="url(#p9e647c769c)">
     <use xlink:href="#C5_0_de5e9443ae" x="486.341566" y="552.555805" style="fill: none; stroke: #737373; stroke-width: 0.8"/>
    </g>
    <g clip-path="url(#p9e647c769c)">
     <use xlink:href="#C5_0_de5e9443ae" x="486.341566" y="693.851771" style="fill: none; stroke: #737373; stroke-width: 0.8"/>
    </g>
    <g clip-path="url(#p9e647c769c)">
     <use xlink:href="#C5_0_de5e9443ae" x="486.341566" y="546.091317" style="fill: none; stroke: #737373; stroke-width: 0.8"/>
    </g>
    <g clip-path="url(#p9e647c769c)">
     <use xlink:href="#C5_0_de5e9443ae" x="486.341566" y="692.487444" style="fill: none; stroke: #737373; stroke-width: 0.8"/>
    </g>
    <g clip-path="url(#p9e647c769c)">
     <use xlink:href="#C5_0_de5e9443ae" x="486.341566" y="552.763174" style="fill: none; stroke: #737373; stroke-width: 0.8"/>
    </g>
    <g clip-path="url(#p9e647c769c)">
     <use xlink:href="#C5_0_de5e9443ae" x="486.341566" y="555.564937" style="fill: none; stroke: #737373; stroke-width: 0.8"/>
    </g>
    <g clip-path="url(#p9e647c769c)">
     <use xlink:href="#C5_0_de5e9443ae" x="486.341566" y="695.061201" style="fill: none; stroke: #737373; stroke-width: 0.8"/>
    </g>
    <g clip-path="url(#p9e647c769c)">
     <use xlink:href="#C5_0_de5e9443ae" x="486.341566" y="692.280324" style="fill: none; stroke: #737373; stroke-width: 0.8"/>
    </g>
    <g clip-path="url(#p9e647c769c)">
     <use xlink:href="#C5_0_de5e9443ae" x="486.341566" y="692.423165" style="fill: none; stroke: #737373; stroke-width: 0.8"/>
    </g>
    <g clip-path="url(#p9e647c769c)">
     <use xlink:href="#C5_0_de5e9443ae" x="486.341566" y="692.749158" style="fill: none; stroke: #737373; stroke-width: 0.8"/>
    </g>
    <g clip-path="url(#p9e647c769c)">
     <use xlink:href="#C5_0_de5e9443ae" x="486.341566" y="550.176601" style="fill: none; stroke: #737373; stroke-width: 0.8"/>
    </g>
   </g>
   <g id="line2d_7">
    <path d="M 91.073366 674.149949 
L 149.631618 674.149949 
" clip-path="url(#p9e647c769c)" style="fill: none; stroke: #494949; stroke-width: 0.75"/>
   </g>
   <g id="line2d_8">
    <path d="M 164.271181 666.602753 
L 222.829433 666.602753 
" clip-path="url(#p9e647c769c)" style="fill: none; stroke: #494949; stroke-width: 0.75"/>
   </g>
   <g id="line2d_9">
    <path d="M 237.468996 666.105061 
L 296.027248 666.105061 
" clip-path="url(#p9e647c769c)" style="fill: none; stroke: #494949; stroke-width: 0.75"/>
   </g>
   <g id="line2d_10">
    <path d="M 310.666811 664.873453 
L 369.225062 664.873453 
" clip-path="url(#p9e647c769c)" style="fill: none; stroke: #494949; stroke-width: 0.75"/>
   </g>
   <g id="line2d_11">
    <path d="M 383.864625 659.623807 
L 442.422877 659.623807 
" clip-path="url(#p9e647c769c)" style="fill: none; stroke: #494949; stroke-width: 0.75"/>
   </g>
   <g id="line2d_12">
    <path d="M 457.06244 669.52717 
L 515.620692 669.52717 
" clip-path="url(#p9e647c769c)" style="fill: none; stroke: #494949; stroke-width: 0.75"/>
   </g>
   <g id="line2d_13">
    <path d="M 120.352492 491.777625 
L 120.352492 484.525146 
L 193.550307 484.525146 
L 193.550307 491.777625 
" style="fill: none; stroke: #333333; stroke-width: 1.5; stroke-linecap: round"/>
   </g>
   <g id="line2d_14">
    <path d="M 193.550307 365.042207 
L 193.550307 357.789729 
L 266.748122 357.789729 
L 266.748122 365.042207 
" style="fill: none; stroke: #333333; stroke-width: 1.5; stroke-linecap: round"/>
   </g>
   <g id="line2d_15">
    <path d="M 266.748122 339.394887 
L 266.748122 332.142408 
L 339.945937 332.142408 
L 339.945937 339.394887 
" style="fill: none; stroke: #333333; stroke-width: 1.5; stroke-linecap: round"/>
   </g>
   <g id="line2d_16">
    <path d="M 339.945937 313.747566 
L 339.945937 306.495088 
L 413.143751 306.495088 
L 413.143751 313.747566 
" style="fill: none; stroke: #333333; stroke-width: 1.5; stroke-linecap: round"/>
   </g>
   <g id="line2d_17">
    <path d="M 413.143751 288.100246 
L 413.143751 280.847767 
L 486.341566 280.847767 
L 486.341566 288.100246 
" style="fill: none; stroke: #333333; stroke-width: 1.5; stroke-linecap: round"/>
   </g>
   <g id="line2d_18">
    <path d="M 120.352492 313.747566 
L 120.352492 306.495088 
L 266.748122 306.495088 
L 266.748122 313.747566 
" style="fill: none; stroke: #333333; stroke-width: 1.5; stroke-linecap: round"/>
   </g>
   <g id="line2d_19">
    <path d="M 193.550307 288.100246 
L 193.550307 280.847767 
L 339.945937 280.847767 
L 339.945937 288.100246 
" style="fill: none; stroke: #333333; stroke-width: 1.5; stroke-linecap: round"/>
   </g>
   <g id="line2d_20">
    <path d="M 266.748122 262.452925 
L 266.748122 255.200447 
L 413.143751 255.200447 
L 413.143751 262.452925 
" style="fill: none; stroke: #333333; stroke-width: 1.5; stroke-linecap: round"/>
   </g>
   <g id="line2d_21">
    <path d="M 339.945937 236.805605 
L 339.945937 229.553126 
L 486.341566 229.553126 
L 486.341566 236.805605 
" style="fill: none; stroke: #333333; stroke-width: 1.5; stroke-linecap: round"/>
   </g>
   <g id="line2d_22">
    <path d="M 120.352492 211.158284 
L 120.352492 203.905806 
L 339.945937 203.905806 
L 339.945937 211.158284 
" style="fill: none; stroke: #333333; stroke-width: 1.5; stroke-linecap: round"/>
   </g>
   <g id="line2d_23">
    <path d="M 193.550307 185.510964 
L 193.550307 178.258486 
L 413.143751 178.258486 
L 413.143751 185.510964 
" style="fill: none; stroke: #333333; stroke-width: 1.5; stroke-linecap: round"/>
   </g>
   <g id="line2d_24">
    <path d="M 266.748122 159.863643 
L 266.748122 152.611165 
L 486.341566 152.611165 
L 486.341566 159.863643 
" style="fill: none; stroke: #333333; stroke-width: 1.5; stroke-linecap: round"/>
   </g>
   <g id="line2d_25">
    <path d="M 120.352492 134.216323 
L 120.352492 126.963845 
L 413.143751 126.963845 
L 413.143751 134.216323 
" style="fill: none; stroke: #333333; stroke-width: 1.5; stroke-linecap: round"/>
   </g>
   <g id="line2d_26">
    <path d="M 193.550307 108.569003 
L 193.550307 101.316524 
L 486.341566 101.316524 
L 486.341566 108.569003 
" style="fill: none; stroke: #333333; stroke-width: 1.5; stroke-linecap: round"/>
   </g>
   <g id="line2d_27">
    <path d="M 120.352492 82.921682 
L 120.352492 75.669204 
L 486.341566 75.669204 
L 486.341566 82.921682 
" style="fill: none; stroke: #333333; stroke-width: 1.5; stroke-linecap: round"/>
   </g>
   <g id="patch_3">
    <path d="M 69.846 717.866348 
L 69.846 40.416 
" style="fill: none; stroke: #cccccc; stroke-linejoin: miter; stroke-linecap: square"/>
   </g>
   <g id="patch_4">
    <path d="M 536.848058 717.866348 
L 536.848058 40.416 
" style="fill: none; stroke: #cccccc; stroke-linejoin: miter; stroke-linecap: square"/>
   </g>
   <g id="patch_5">
    <path d="M 69.846 717.866348 
L 536.848058 717.866348 
" style="fill: none; stroke: #cccccc; stroke-linejoin: miter; stroke-linecap: square"/>
   </g>
   <g id="patch_6">
    <path d="M 69.846 40.416 
L 536.848058 40.416 
" style="fill: none; stroke: #cccccc; stroke-linejoin: miter; stroke-linecap: square"/>
   </g>
   <g id="text_15">
    <!-- **** -->
    <g style="fill: #262626" transform="translate(142.0054 479.709146) scale(0.192 -0.192)">
     <defs>
      <path id="ArialMT-2a" d="M 200 3741 
L 344 4184 
Q 841 4009 1066 3881 
Q 1006 4447 1003 4659 
L 1456 4659 
Q 1447 4350 1384 3884 
Q 1706 4047 2122 4184 
L 2266 3741 
Q 1869 3609 1488 3566 
Q 1678 3400 2025 2975 
L 1650 2709 
Q 1469 2956 1222 3381 
Q 991 2941 816 2709 
L 447 2975 
Q 809 3422 966 3566 
Q 563 3644 200 3741 
z
" transform="scale(0.015625)"/>
     </defs>
     <use xlink:href="#ArialMT-2a"/>
     <use xlink:href="#ArialMT-2a" transform="translate(38.916016 0)"/>
     <use xlink:href="#ArialMT-2a" transform="translate(77.832031 0)"/>
     <use xlink:href="#ArialMT-2a" transform="translate(116.748047 0)"/>
    </g>
   </g>
   <g id="text_16">
    <!-- *** -->
    <g style="fill: #262626" transform="translate(218.939714 352.973729) scale(0.192 -0.192)">
     <use xlink:href="#ArialMT-2a"/>
     <use xlink:href="#ArialMT-2a" transform="translate(38.916016 0)"/>
     <use xlink:href="#ArialMT-2a" transform="translate(77.832031 0)"/>
    </g>
   </g>
   <g id="text_17">
    <!-- **** -->
    <g style="fill: #262626" transform="translate(288.401029 327.326408) scale(0.192 -0.192)">
     <use xlink:href="#ArialMT-2a"/>
     <use xlink:href="#ArialMT-2a" transform="translate(38.916016 0)"/>
     <use xlink:href="#ArialMT-2a" transform="translate(77.832031 0)"/>
     <use xlink:href="#ArialMT-2a" transform="translate(116.748047 0)"/>
    </g>
   </g>
   <g id="text_18">
    <!-- **** -->
    <g style="fill: #262626" transform="translate(361.598844 301.679088) scale(0.192 -0.192)">
     <use xlink:href="#ArialMT-2a"/>
     <use xlink:href="#ArialMT-2a" transform="translate(38.916016 0)"/>
     <use xlink:href="#ArialMT-2a" transform="translate(77.832031 0)"/>
     <use xlink:href="#ArialMT-2a" transform="translate(116.748047 0)"/>
    </g>
   </g>
   <g id="text_19">
    <!-- **** -->
    <g style="fill: #262626" transform="translate(434.796659 276.031767) scale(0.192 -0.192)">
     <use xlink:href="#ArialMT-2a"/>
     <use xlink:href="#ArialMT-2a" transform="translate(38.916016 0)"/>
     <use xlink:href="#ArialMT-2a" transform="translate(77.832031 0)"/>
     <use xlink:href="#ArialMT-2a" transform="translate(116.748047 0)"/>
    </g>
   </g>
   <g id="text_20">
    <!-- **** -->
    <g style="fill: #262626" transform="translate(178.604307 301.679088) scale(0.192 -0.192)">
     <use xlink:href="#ArialMT-2a"/>
     <use xlink:href="#ArialMT-2a" transform="translate(38.916016 0)"/>
     <use xlink:href="#ArialMT-2a" transform="translate(77.832031 0)"/>
     <use xlink:href="#ArialMT-2a" transform="translate(116.748047 0)"/>
    </g>
   </g>
   <g id="text_21">
    <!-- **** -->
    <g style="fill: #262626" transform="translate(251.802122 276.031767) scale(0.192 -0.192)">
     <use xlink:href="#ArialMT-2a"/>
     <use xlink:href="#ArialMT-2a" transform="translate(38.916016 0)"/>
     <use xlink:href="#ArialMT-2a" transform="translate(77.832031 0)"/>
     <use xlink:href="#ArialMT-2a" transform="translate(116.748047 0)"/>
    </g>
   </g>
   <g id="text_22">
    <!-- **** -->
    <g style="fill: #262626" transform="translate(324.999937 250.384447) scale(0.192 -0.192)">
     <use xlink:href="#ArialMT-2a"/>
     <use xlink:href="#ArialMT-2a" transform="translate(38.916016 0)"/>
     <use xlink:href="#ArialMT-2a" transform="translate(77.832031 0)"/>
     <use xlink:href="#ArialMT-2a" transform="translate(116.748047 0)"/>
    </g>
   </g>
   <g id="text_23">
    <!-- **** -->
    <g style="fill: #262626" transform="translate(398.197751 224.737126) scale(0.192 -0.192)">
     <use xlink:href="#ArialMT-2a"/>
     <use xlink:href="#ArialMT-2a" transform="translate(38.916016 0)"/>
     <use xlink:href="#ArialMT-2a" transform="translate(77.832031 0)"/>
     <use xlink:href="#ArialMT-2a" transform="translate(116.748047 0)"/>
    </g>
   </g>
   <g id="text_24">
    <!-- **** -->
    <g style="fill: #262626" transform="translate(215.203214 199.089806) scale(0.192 -0.192)">
     <use xlink:href="#ArialMT-2a"/>
     <use xlink:href="#ArialMT-2a" transform="translate(38.916016 0)"/>
     <use xlink:href="#ArialMT-2a" transform="translate(77.832031 0)"/>
     <use xlink:href="#ArialMT-2a" transform="translate(116.748047 0)"/>
    </g>
   </g>
   <g id="text_25">
    <!-- **** -->
    <g style="fill: #262626" transform="translate(288.401029 173.442486) scale(0.192 -0.192)">
     <use xlink:href="#ArialMT-2a"/>
     <use xlink:href="#ArialMT-2a" transform="translate(38.916016 0)"/>
     <use xlink:href="#ArialMT-2a" transform="translate(77.832031 0)"/>
     <use xlink:href="#ArialMT-2a" transform="translate(116.748047 0)"/>
    </g>
   </g>
   <g id="text_26">
    <!-- **** -->
    <g style="fill: #262626" transform="translate(361.598844 147.795165) scale(0.192 -0.192)">
     <use xlink:href="#ArialMT-2a"/>
     <use xlink:href="#ArialMT-2a" transform="translate(38.916016 0)"/>
     <use xlink:href="#ArialMT-2a" transform="translate(77.832031 0)"/>
     <use xlink:href="#ArialMT-2a" transform="translate(116.748047 0)"/>
    </g>
   </g>
   <g id="text_27">
    <!-- **** -->
    <g style="fill: #262626" transform="translate(251.802122 122.147845) scale(0.192 -0.192)">
     <use xlink:href="#ArialMT-2a"/>
     <use xlink:href="#ArialMT-2a" transform="translate(38.916016 0)"/>
     <use xlink:href="#ArialMT-2a" transform="translate(77.832031 0)"/>
     <use xlink:href="#ArialMT-2a" transform="translate(116.748047 0)"/>
    </g>
   </g>
   <g id="text_28">
    <!-- **** -->
    <g style="fill: #262626" transform="translate(324.999937 96.500524) scale(0.192 -0.192)">
     <use xlink:href="#ArialMT-2a"/>
     <use xlink:href="#ArialMT-2a" transform="translate(38.916016 0)"/>
     <use xlink:href="#ArialMT-2a" transform="translate(77.832031 0)"/>
     <use xlink:href="#ArialMT-2a" transform="translate(116.748047 0)"/>
    </g>
   </g>
   <g id="text_29">
    <!-- **** -->
    <g style="fill: #262626" transform="translate(288.401029 70.853204) scale(0.192 -0.192)">
     <use xlink:href="#ArialMT-2a"/>
     <use xlink:href="#ArialMT-2a" transform="translate(38.916016 0)"/>
     <use xlink:href="#ArialMT-2a" transform="translate(77.832031 0)"/>
     <use xlink:href="#ArialMT-2a" transform="translate(116.748047 0)"/>
    </g>
   </g>
   <g id="text_30">
    <!-- Ranked RMSE per Fold per Target -->
    <g style="fill: #262626" transform="translate(156.261529 34.416) scale(0.192 -0.192)">
     <defs>
      <path id="ArialMT-6b" d="M 425 0 
L 425 4581 
L 988 4581 
L 988 1969 
L 2319 3319 
L 3047 3319 
L 1778 2088 
L 3175 0 
L 2481 0 
L 1384 1697 
L 988 1316 
L 988 0 
L 425 0 
z
" transform="scale(0.015625)"/>
      <path id="ArialMT-20" transform="scale(0.015625)"/>
      <path id="ArialMT-54" d="M 1659 0 
L 1659 4041 
L 150 4041 
L 150 4581 
L 3781 4581 
L 3781 4041 
L 2266 4041 
L 2266 0 
L 1659 0 
z
" transform="scale(0.015625)"/>
     </defs>
     <use xlink:href="#ArialMT-52"/>
     <use xlink:href="#ArialMT-61" transform="translate(72.216797 0)"/>
     <use xlink:href="#ArialMT-6e" transform="translate(127.832031 0)"/>
     <use xlink:href="#ArialMT-6b" transform="translate(183.447266 0)"/>
     <use xlink:href="#ArialMT-65" transform="translate(233.447266 0)"/>
     <use xlink:href="#ArialMT-64" transform="translate(289.0625 0)"/>
     <use xlink:href="#ArialMT-20" transform="translate(344.677734 0)"/>
     <use xlink:href="#ArialMT-52" transform="translate(372.460938 0)"/>
     <use xlink:href="#ArialMT-4d" transform="translate(444.677734 0)"/>
     <use xlink:href="#ArialMT-53" transform="translate(527.978516 0)"/>
     <use xlink:href="#ArialMT-45" transform="translate(594.677734 0)"/>
     <use xlink:href="#ArialMT-20" transform="translate(661.376953 0)"/>
     <use xlink:href="#ArialMT-70" transform="translate(689.160156 0)"/>
     <use xlink:href="#ArialMT-65" transform="translate(744.775391 0)"/>
     <use xlink:href="#ArialMT-72" transform="translate(800.390625 0)"/>
     <use xlink:href="#ArialMT-20" transform="translate(833.691406 0)"/>
     <use xlink:href="#ArialMT-46" transform="translate(861.474609 0)"/>
     <use xlink:href="#ArialMT-6f" transform="translate(922.558594 0)"/>
     <use xlink:href="#ArialMT-6c" transform="translate(978.173828 0)"/>
     <use xlink:href="#ArialMT-64" transform="translate(1000.390625 0)"/>
     <use xlink:href="#ArialMT-20" transform="translate(1056.005859 0)"/>
     <use xlink:href="#ArialMT-70" transform="translate(1083.789062 0)"/>
     <use xlink:href="#ArialMT-65" transform="translate(1139.404297 0)"/>
     <use xlink:href="#ArialMT-72" transform="translate(1195.019531 0)"/>
     <use xlink:href="#ArialMT-20" transform="translate(1228.320312 0)"/>
     <use xlink:href="#ArialMT-54" transform="translate(1254.353516 0)"/>
     <use xlink:href="#ArialMT-61" transform="translate(1304.3125 0)"/>
     <use xlink:href="#ArialMT-72" transform="translate(1359.927734 0)"/>
     <use xlink:href="#ArialMT-67" transform="translate(1393.228516 0)"/>
     <use xlink:href="#ArialMT-65" transform="translate(1448.84375 0)"/>
     <use xlink:href="#ArialMT-74" transform="translate(1504.458984 0)"/>
    </g>
   </g>
  </g>
 </g>
 <defs>
  <clipPath id="p9e647c769c">
   <rect x="69.846" y="40.416" width="467.002058" height="677.450348"/>
  </clipPath>
 </defs>
</svg>
