<?xml version="1.0" encoding="utf-8" standalone="no"?>
<!DOCTYPE svg PUBLIC "-//W3C//DTD SVG 1.1//EN"
  "http://www.w3.org/Graphics/SVG/1.1/DTD/svg11.dtd">
<svg xmlns:xlink="http://www.w3.org/1999/xlink" width="720pt" height="864pt" viewBox="0 0 720 864" xmlns="http://www.w3.org/2000/svg" version="1.1">
 <metadata>
  <rdf:RDF xmlns:dc="http://purl.org/dc/elements/1.1/" xmlns:cc="http://creativecommons.org/ns#" xmlns:rdf="http://www.w3.org/1999/02/22-rdf-syntax-ns#">
   <cc:Work>
    <dc:type rdf:resource="http://purl.org/dc/dcmitype/StillImage"/>
    <dc:date>2025-02-25T23:42:50.462296</dc:date>
    <dc:format>image/svg+xml</dc:format>
    <dc:creator>
     <cc:Agent>
      <dc:title>Matplotlib v3.10.0, https://matplotlib.org/</dc:title>
     </cc:Agent>
    </dc:creator>
   </cc:Work>
  </rdf:RDF>
 </metadata>
 <defs>
  <style type="text/css">*{stroke-linejoin: round; stroke-linecap: butt}</style>
 </defs>
 <g id="figure_1">
  <g id="patch_1">
   <path d="M 0 864 
L 720 864 
L 720 0 
L 0 0 
z
" style="fill: #ffffff"/>
  </g>
  <g id="axes_1">
   <g id="patch_2">
    <path d="M 60.126 645.866348 
L 692.917651 645.866348 
L 692.917651 40.416 
L 60.126 40.416 
z
" style="fill: #ffffff"/>
   </g>
   <g id="matplotlib.axis_1">
    <g id="xtick_1">
     <g id="text_1">
      <!-- RandomSplit -->
      <g style="fill: #262626" transform="translate(96.232732 734.472111) rotate(-45) scale(0.176 -0.176)">
       <defs>
        <path id="ArialMT-52" d="M 503 0 
L 503 4581 
L 2534 4581 
Q 3147 4581 3465 4457 
Q 3784 4334 3975 4021 
Q 4166 3709 4166 3331 
Q 4166 2844 3850 2509 
Q 3534 2175 2875 2084 
Q 3116 1969 3241 1856 
Q 3506 1613 3744 1247 
L 4541 0 
L 3778 0 
L 3172 953 
Q 2906 1366 2734 1584 
Q 2563 1803 2427 1890 
Q 2291 1978 2150 2013 
Q 2047 2034 1813 2034 
L 1109 2034 
L 1109 0 
L 503 0 
z
M 1109 2559 
L 2413 2559 
Q 2828 2559 3062 2645 
Q 3297 2731 3419 2920 
Q 3541 3109 3541 3331 
Q 3541 3656 3305 3865 
Q 3069 4075 2559 4075 
L 1109 4075 
L 1109 2559 
z
" transform="scale(0.015625)"/>
        <path id="ArialMT-61" d="M 2588 409 
Q 2275 144 1986 34 
Q 1697 -75 1366 -75 
Q 819 -75 525 192 
Q 231 459 231 875 
Q 231 1119 342 1320 
Q 453 1522 633 1644 
Q 813 1766 1038 1828 
Q 1203 1872 1538 1913 
Q 2219 1994 2541 2106 
Q 2544 2222 2544 2253 
Q 2544 2597 2384 2738 
Q 2169 2928 1744 2928 
Q 1347 2928 1158 2789 
Q 969 2650 878 2297 
L 328 2372 
Q 403 2725 575 2942 
Q 747 3159 1072 3276 
Q 1397 3394 1825 3394 
Q 2250 3394 2515 3294 
Q 2781 3194 2906 3042 
Q 3031 2891 3081 2659 
Q 3109 2516 3109 2141 
L 3109 1391 
Q 3109 606 3145 398 
Q 3181 191 3288 0 
L 2700 0 
Q 2613 175 2588 409 
z
M 2541 1666 
Q 2234 1541 1622 1453 
Q 1275 1403 1131 1340 
Q 988 1278 909 1158 
Q 831 1038 831 891 
Q 831 666 1001 516 
Q 1172 366 1500 366 
Q 1825 366 2078 508 
Q 2331 650 2450 897 
Q 2541 1088 2541 1459 
L 2541 1666 
z
" transform="scale(0.015625)"/>
        <path id="ArialMT-6e" d="M 422 0 
L 422 3319 
L 928 3319 
L 928 2847 
Q 1294 3394 1984 3394 
Q 2284 3394 2536 3286 
Q 2788 3178 2913 3003 
Q 3038 2828 3088 2588 
Q 3119 2431 3119 2041 
L 3119 0 
L 2556 0 
L 2556 2019 
Q 2556 2363 2490 2533 
Q 2425 2703 2258 2804 
Q 2091 2906 1866 2906 
Q 1506 2906 1245 2678 
Q 984 2450 984 1813 
L 984 0 
L 422 0 
z
" transform="scale(0.015625)"/>
        <path id="ArialMT-64" d="M 2575 0 
L 2575 419 
Q 2259 -75 1647 -75 
Q 1250 -75 917 144 
Q 584 363 401 755 
Q 219 1147 219 1656 
Q 219 2153 384 2558 
Q 550 2963 881 3178 
Q 1213 3394 1622 3394 
Q 1922 3394 2156 3267 
Q 2391 3141 2538 2938 
L 2538 4581 
L 3097 4581 
L 3097 0 
L 2575 0 
z
M 797 1656 
Q 797 1019 1065 703 
Q 1334 388 1700 388 
Q 2069 388 2326 689 
Q 2584 991 2584 1609 
Q 2584 2291 2321 2609 
Q 2059 2928 1675 2928 
Q 1300 2928 1048 2622 
Q 797 2316 797 1656 
z
" transform="scale(0.015625)"/>
        <path id="ArialMT-6f" d="M 213 1659 
Q 213 2581 725 3025 
Q 1153 3394 1769 3394 
Q 2453 3394 2887 2945 
Q 3322 2497 3322 1706 
Q 3322 1066 3130 698 
Q 2938 331 2570 128 
Q 2203 -75 1769 -75 
Q 1072 -75 642 372 
Q 213 819 213 1659 
z
M 791 1659 
Q 791 1022 1069 705 
Q 1347 388 1769 388 
Q 2188 388 2466 706 
Q 2744 1025 2744 1678 
Q 2744 2294 2464 2611 
Q 2184 2928 1769 2928 
Q 1347 2928 1069 2612 
Q 791 2297 791 1659 
z
" transform="scale(0.015625)"/>
        <path id="ArialMT-6d" d="M 422 0 
L 422 3319 
L 925 3319 
L 925 2853 
Q 1081 3097 1340 3245 
Q 1600 3394 1931 3394 
Q 2300 3394 2536 3241 
Q 2772 3088 2869 2813 
Q 3263 3394 3894 3394 
Q 4388 3394 4653 3120 
Q 4919 2847 4919 2278 
L 4919 0 
L 4359 0 
L 4359 2091 
Q 4359 2428 4304 2576 
Q 4250 2725 4106 2815 
Q 3963 2906 3769 2906 
Q 3419 2906 3187 2673 
Q 2956 2441 2956 1928 
L 2956 0 
L 2394 0 
L 2394 2156 
Q 2394 2531 2256 2718 
Q 2119 2906 1806 2906 
Q 1569 2906 1367 2781 
Q 1166 2656 1075 2415 
Q 984 2175 984 1722 
L 984 0 
L 422 0 
z
" transform="scale(0.015625)"/>
        <path id="ArialMT-53" d="M 288 1472 
L 859 1522 
Q 900 1178 1048 958 
Q 1197 738 1509 602 
Q 1822 466 2213 466 
Q 2559 466 2825 569 
Q 3091 672 3220 851 
Q 3350 1031 3350 1244 
Q 3350 1459 3225 1620 
Q 3100 1781 2813 1891 
Q 2628 1963 1997 2114 
Q 1366 2266 1113 2400 
Q 784 2572 623 2826 
Q 463 3081 463 3397 
Q 463 3744 659 4045 
Q 856 4347 1234 4503 
Q 1613 4659 2075 4659 
Q 2584 4659 2973 4495 
Q 3363 4331 3572 4012 
Q 3781 3694 3797 3291 
L 3216 3247 
Q 3169 3681 2898 3903 
Q 2628 4125 2100 4125 
Q 1550 4125 1298 3923 
Q 1047 3722 1047 3438 
Q 1047 3191 1225 3031 
Q 1400 2872 2139 2705 
Q 2878 2538 3153 2413 
Q 3553 2228 3743 1945 
Q 3934 1663 3934 1294 
Q 3934 928 3725 604 
Q 3516 281 3123 101 
Q 2731 -78 2241 -78 
Q 1619 -78 1198 103 
Q 778 284 539 648 
Q 300 1013 288 1472 
z
" transform="scale(0.015625)"/>
        <path id="ArialMT-70" d="M 422 -1272 
L 422 3319 
L 934 3319 
L 934 2888 
Q 1116 3141 1344 3267 
Q 1572 3394 1897 3394 
Q 2322 3394 2647 3175 
Q 2972 2956 3137 2557 
Q 3303 2159 3303 1684 
Q 3303 1175 3120 767 
Q 2938 359 2589 142 
Q 2241 -75 1856 -75 
Q 1575 -75 1351 44 
Q 1128 163 984 344 
L 984 -1272 
L 422 -1272 
z
M 931 1641 
Q 931 1000 1190 694 
Q 1450 388 1819 388 
Q 2194 388 2461 705 
Q 2728 1022 2728 1688 
Q 2728 2322 2467 2637 
Q 2206 2953 1844 2953 
Q 1484 2953 1207 2617 
Q 931 2281 931 1641 
z
" transform="scale(0.015625)"/>
        <path id="ArialMT-6c" d="M 409 0 
L 409 4581 
L 972 4581 
L 972 0 
L 409 0 
z
" transform="scale(0.015625)"/>
        <path id="ArialMT-69" d="M 425 3934 
L 425 4581 
L 988 4581 
L 988 3934 
L 425 3934 
z
M 425 0 
L 425 3319 
L 988 3319 
L 988 0 
L 425 0 
z
" transform="scale(0.015625)"/>
        <path id="ArialMT-74" d="M 1650 503 
L 1731 6 
Q 1494 -44 1306 -44 
Q 1000 -44 831 53 
Q 663 150 594 308 
Q 525 466 525 972 
L 525 2881 
L 113 2881 
L 113 3319 
L 525 3319 
L 525 4141 
L 1084 4478 
L 1084 3319 
L 1650 3319 
L 1650 2881 
L 1084 2881 
L 1084 941 
Q 1084 700 1114 631 
Q 1144 563 1211 522 
Q 1278 481 1403 481 
Q 1497 481 1650 503 
z
" transform="scale(0.015625)"/>
       </defs>
       <use xlink:href="#ArialMT-52"/>
       <use xlink:href="#ArialMT-61" transform="translate(72.216797 0)"/>
       <use xlink:href="#ArialMT-6e" transform="translate(127.832031 0)"/>
       <use xlink:href="#ArialMT-64" transform="translate(183.447266 0)"/>
       <use xlink:href="#ArialMT-6f" transform="translate(239.0625 0)"/>
       <use xlink:href="#ArialMT-6d" transform="translate(294.677734 0)"/>
       <use xlink:href="#ArialMT-53" transform="translate(377.978516 0)"/>
       <use xlink:href="#ArialMT-70" transform="translate(444.677734 0)"/>
       <use xlink:href="#ArialMT-6c" transform="translate(500.292969 0)"/>
       <use xlink:href="#ArialMT-69" transform="translate(522.509766 0)"/>
       <use xlink:href="#ArialMT-74" transform="translate(544.726562 0)"/>
      </g>
     </g>
    </g>
    <g id="xtick_2">
     <g id="text_2">
      <!-- ScaffoldSplit -->
      <g style="fill: #262626" transform="translate(196.56074 732.183383) rotate(-45) scale(0.176 -0.176)">
       <defs>
        <path id="ArialMT-63" d="M 2588 1216 
L 3141 1144 
Q 3050 572 2676 248 
Q 2303 -75 1759 -75 
Q 1078 -75 664 370 
Q 250 816 250 1647 
Q 250 2184 428 2587 
Q 606 2991 970 3192 
Q 1334 3394 1763 3394 
Q 2303 3394 2647 3120 
Q 2991 2847 3088 2344 
L 2541 2259 
Q 2463 2594 2264 2762 
Q 2066 2931 1784 2931 
Q 1359 2931 1093 2626 
Q 828 2322 828 1663 
Q 828 994 1084 691 
Q 1341 388 1753 388 
Q 2084 388 2306 591 
Q 2528 794 2588 1216 
z
" transform="scale(0.015625)"/>
        <path id="ArialMT-66" d="M 556 0 
L 556 2881 
L 59 2881 
L 59 3319 
L 556 3319 
L 556 3672 
Q 556 4006 616 4169 
Q 697 4388 901 4523 
Q 1106 4659 1475 4659 
Q 1713 4659 2000 4603 
L 1916 4113 
Q 1741 4144 1584 4144 
Q 1328 4144 1222 4034 
Q 1116 3925 1116 3625 
L 1116 3319 
L 1763 3319 
L 1763 2881 
L 1116 2881 
L 1116 0 
L 556 0 
z
" transform="scale(0.015625)"/>
       </defs>
       <use xlink:href="#ArialMT-53"/>
       <use xlink:href="#ArialMT-63" transform="translate(66.699219 0)"/>
       <use xlink:href="#ArialMT-61" transform="translate(116.699219 0)"/>
       <use xlink:href="#ArialMT-66" transform="translate(172.314453 0)"/>
       <use xlink:href="#ArialMT-66" transform="translate(198.347656 0)"/>
       <use xlink:href="#ArialMT-6f" transform="translate(226.130859 0)"/>
       <use xlink:href="#ArialMT-6c" transform="translate(281.746094 0)"/>
       <use xlink:href="#ArialMT-64" transform="translate(303.962891 0)"/>
       <use xlink:href="#ArialMT-53" transform="translate(359.578125 0)"/>
       <use xlink:href="#ArialMT-70" transform="translate(426.277344 0)"/>
       <use xlink:href="#ArialMT-6c" transform="translate(481.892578 0)"/>
       <use xlink:href="#ArialMT-69" transform="translate(504.109375 0)"/>
       <use xlink:href="#ArialMT-74" transform="translate(526.326172 0)"/>
      </g>
     </g>
    </g>
    <g id="xtick_3">
     <g id="text_3">
      <!-- SortedStepForward_LogD -->
      <g style="fill: #262626" transform="translate(257.863702 807.798908) rotate(-45) scale(0.176 -0.176)">
       <defs>
        <path id="ArialMT-72" d="M 416 0 
L 416 3319 
L 922 3319 
L 922 2816 
Q 1116 3169 1280 3281 
Q 1444 3394 1641 3394 
Q 1925 3394 2219 3213 
L 2025 2691 
Q 1819 2813 1613 2813 
Q 1428 2813 1281 2702 
Q 1134 2591 1072 2394 
Q 978 2094 978 1738 
L 978 0 
L 416 0 
z
" transform="scale(0.015625)"/>
        <path id="ArialMT-65" d="M 2694 1069 
L 3275 997 
Q 3138 488 2766 206 
Q 2394 -75 1816 -75 
Q 1088 -75 661 373 
Q 234 822 234 1631 
Q 234 2469 665 2931 
Q 1097 3394 1784 3394 
Q 2450 3394 2872 2941 
Q 3294 2488 3294 1666 
Q 3294 1616 3291 1516 
L 816 1516 
Q 847 969 1125 678 
Q 1403 388 1819 388 
Q 2128 388 2347 550 
Q 2566 713 2694 1069 
z
M 847 1978 
L 2700 1978 
Q 2663 2397 2488 2606 
Q 2219 2931 1791 2931 
Q 1403 2931 1139 2672 
Q 875 2413 847 1978 
z
" transform="scale(0.015625)"/>
        <path id="ArialMT-46" d="M 525 0 
L 525 4581 
L 3616 4581 
L 3616 4041 
L 1131 4041 
L 1131 2622 
L 3281 2622 
L 3281 2081 
L 1131 2081 
L 1131 0 
L 525 0 
z
" transform="scale(0.015625)"/>
        <path id="ArialMT-77" d="M 1034 0 
L 19 3319 
L 600 3319 
L 1128 1403 
L 1325 691 
Q 1338 744 1497 1375 
L 2025 3319 
L 2603 3319 
L 3100 1394 
L 3266 759 
L 3456 1400 
L 4025 3319 
L 4572 3319 
L 3534 0 
L 2950 0 
L 2422 1988 
L 2294 2553 
L 1622 0 
L 1034 0 
z
" transform="scale(0.015625)"/>
        <path id="ArialMT-5f" d="M -97 -1272 
L -97 -866 
L 3631 -866 
L 3631 -1272 
L -97 -1272 
z
" transform="scale(0.015625)"/>
        <path id="ArialMT-4c" d="M 469 0 
L 469 4581 
L 1075 4581 
L 1075 541 
L 3331 541 
L 3331 0 
L 469 0 
z
" transform="scale(0.015625)"/>
        <path id="ArialMT-67" d="M 319 -275 
L 866 -356 
Q 900 -609 1056 -725 
Q 1266 -881 1628 -881 
Q 2019 -881 2231 -725 
Q 2444 -569 2519 -288 
Q 2563 -116 2559 434 
Q 2191 0 1641 0 
Q 956 0 581 494 
Q 206 988 206 1678 
Q 206 2153 378 2554 
Q 550 2956 876 3175 
Q 1203 3394 1644 3394 
Q 2231 3394 2613 2919 
L 2613 3319 
L 3131 3319 
L 3131 450 
Q 3131 -325 2973 -648 
Q 2816 -972 2473 -1159 
Q 2131 -1347 1631 -1347 
Q 1038 -1347 672 -1080 
Q 306 -813 319 -275 
z
M 784 1719 
Q 784 1066 1043 766 
Q 1303 466 1694 466 
Q 2081 466 2343 764 
Q 2606 1063 2606 1700 
Q 2606 2309 2336 2618 
Q 2066 2928 1684 2928 
Q 1309 2928 1046 2623 
Q 784 2319 784 1719 
z
" transform="scale(0.015625)"/>
        <path id="ArialMT-44" d="M 494 0 
L 494 4581 
L 2072 4581 
Q 2606 4581 2888 4516 
Q 3281 4425 3559 4188 
Q 3922 3881 4101 3404 
Q 4281 2928 4281 2316 
Q 4281 1794 4159 1391 
Q 4038 988 3847 723 
Q 3656 459 3429 307 
Q 3203 156 2883 78 
Q 2563 0 2147 0 
L 494 0 
z
M 1100 541 
L 2078 541 
Q 2531 541 2789 625 
Q 3047 709 3200 863 
Q 3416 1078 3536 1442 
Q 3656 1806 3656 2325 
Q 3656 3044 3420 3430 
Q 3184 3816 2847 3947 
Q 2603 4041 2063 4041 
L 1100 4041 
L 1100 541 
z
" transform="scale(0.015625)"/>
       </defs>
       <use xlink:href="#ArialMT-53"/>
       <use xlink:href="#ArialMT-6f" transform="translate(66.699219 0)"/>
       <use xlink:href="#ArialMT-72" transform="translate(122.314453 0)"/>
       <use xlink:href="#ArialMT-74" transform="translate(155.615234 0)"/>
       <use xlink:href="#ArialMT-65" transform="translate(183.398438 0)"/>
       <use xlink:href="#ArialMT-64" transform="translate(239.013672 0)"/>
       <use xlink:href="#ArialMT-53" transform="translate(294.628906 0)"/>
       <use xlink:href="#ArialMT-74" transform="translate(361.328125 0)"/>
       <use xlink:href="#ArialMT-65" transform="translate(389.111328 0)"/>
       <use xlink:href="#ArialMT-70" transform="translate(444.726562 0)"/>
       <use xlink:href="#ArialMT-46" transform="translate(500.341797 0)"/>
       <use xlink:href="#ArialMT-6f" transform="translate(561.425781 0)"/>
       <use xlink:href="#ArialMT-72" transform="translate(617.041016 0)"/>
       <use xlink:href="#ArialMT-77" transform="translate(650.341797 0)"/>
       <use xlink:href="#ArialMT-61" transform="translate(722.558594 0)"/>
       <use xlink:href="#ArialMT-72" transform="translate(778.173828 0)"/>
       <use xlink:href="#ArialMT-64" transform="translate(811.474609 0)"/>
       <use xlink:href="#ArialMT-5f" transform="translate(867.089844 0)"/>
       <use xlink:href="#ArialMT-4c" transform="translate(922.705078 0)"/>
       <use xlink:href="#ArialMT-6f" transform="translate(978.320312 0)"/>
       <use xlink:href="#ArialMT-67" transform="translate(1033.935547 0)"/>
       <use xlink:href="#ArialMT-44" transform="translate(1089.550781 0)"/>
      </g>
     </g>
    </g>
    <g id="xtick_4">
     <g id="text_4">
      <!-- SortedStepForward_LogP -->
      <g style="fill: #262626" transform="translate(357.390558 807.112484) rotate(-45) scale(0.176 -0.176)">
       <defs>
        <path id="ArialMT-50" d="M 494 0 
L 494 4581 
L 2222 4581 
Q 2678 4581 2919 4538 
Q 3256 4481 3484 4323 
Q 3713 4166 3852 3881 
Q 3991 3597 3991 3256 
Q 3991 2672 3619 2267 
Q 3247 1863 2275 1863 
L 1100 1863 
L 1100 0 
L 494 0 
z
M 1100 2403 
L 2284 2403 
Q 2872 2403 3119 2622 
Q 3366 2841 3366 3238 
Q 3366 3525 3220 3729 
Q 3075 3934 2838 4000 
Q 2684 4041 2272 4041 
L 1100 4041 
L 1100 2403 
z
" transform="scale(0.015625)"/>
       </defs>
       <use xlink:href="#ArialMT-53"/>
       <use xlink:href="#ArialMT-6f" transform="translate(66.699219 0)"/>
       <use xlink:href="#ArialMT-72" transform="translate(122.314453 0)"/>
       <use xlink:href="#ArialMT-74" transform="translate(155.615234 0)"/>
       <use xlink:href="#ArialMT-65" transform="translate(183.398438 0)"/>
       <use xlink:href="#ArialMT-64" transform="translate(239.013672 0)"/>
       <use xlink:href="#ArialMT-53" transform="translate(294.628906 0)"/>
       <use xlink:href="#ArialMT-74" transform="translate(361.328125 0)"/>
       <use xlink:href="#ArialMT-65" transform="translate(389.111328 0)"/>
       <use xlink:href="#ArialMT-70" transform="translate(444.726562 0)"/>
       <use xlink:href="#ArialMT-46" transform="translate(500.341797 0)"/>
       <use xlink:href="#ArialMT-6f" transform="translate(561.425781 0)"/>
       <use xlink:href="#ArialMT-72" transform="translate(617.041016 0)"/>
       <use xlink:href="#ArialMT-77" transform="translate(650.341797 0)"/>
       <use xlink:href="#ArialMT-61" transform="translate(722.558594 0)"/>
       <use xlink:href="#ArialMT-72" transform="translate(778.173828 0)"/>
       <use xlink:href="#ArialMT-64" transform="translate(811.474609 0)"/>
       <use xlink:href="#ArialMT-5f" transform="translate(867.089844 0)"/>
       <use xlink:href="#ArialMT-4c" transform="translate(922.705078 0)"/>
       <use xlink:href="#ArialMT-6f" transform="translate(978.320312 0)"/>
       <use xlink:href="#ArialMT-67" transform="translate(1033.935547 0)"/>
       <use xlink:href="#ArialMT-50" transform="translate(1089.550781 0)"/>
      </g>
     </g>
    </g>
    <g id="xtick_5">
     <g id="text_5">
      <!-- SortedStepForward_MCE18 -->
      <g style="fill: #262626" transform="translate(450.430417 819.545896) rotate(-45) scale(0.176 -0.176)">
       <defs>
        <path id="ArialMT-4d" d="M 475 0 
L 475 4581 
L 1388 4581 
L 2472 1338 
Q 2622 884 2691 659 
Q 2769 909 2934 1394 
L 4031 4581 
L 4847 4581 
L 4847 0 
L 4263 0 
L 4263 3834 
L 2931 0 
L 2384 0 
L 1059 3900 
L 1059 0 
L 475 0 
z
" transform="scale(0.015625)"/>
        <path id="ArialMT-43" d="M 3763 1606 
L 4369 1453 
Q 4178 706 3683 314 
Q 3188 -78 2472 -78 
Q 1731 -78 1267 223 
Q 803 525 561 1097 
Q 319 1669 319 2325 
Q 319 3041 592 3573 
Q 866 4106 1370 4382 
Q 1875 4659 2481 4659 
Q 3169 4659 3637 4309 
Q 4106 3959 4291 3325 
L 3694 3184 
Q 3534 3684 3231 3912 
Q 2928 4141 2469 4141 
Q 1941 4141 1586 3887 
Q 1231 3634 1087 3207 
Q 944 2781 944 2328 
Q 944 1744 1114 1308 
Q 1284 872 1643 656 
Q 2003 441 2422 441 
Q 2931 441 3284 734 
Q 3638 1028 3763 1606 
z
" transform="scale(0.015625)"/>
        <path id="ArialMT-45" d="M 506 0 
L 506 4581 
L 3819 4581 
L 3819 4041 
L 1113 4041 
L 1113 2638 
L 3647 2638 
L 3647 2100 
L 1113 2100 
L 1113 541 
L 3925 541 
L 3925 0 
L 506 0 
z
" transform="scale(0.015625)"/>
        <path id="ArialMT-31" d="M 2384 0 
L 1822 0 
L 1822 3584 
Q 1619 3391 1289 3197 
Q 959 3003 697 2906 
L 697 3450 
Q 1169 3672 1522 3987 
Q 1875 4303 2022 4600 
L 2384 4600 
L 2384 0 
z
" transform="scale(0.015625)"/>
        <path id="ArialMT-38" d="M 1131 2484 
Q 781 2613 612 2850 
Q 444 3088 444 3419 
Q 444 3919 803 4259 
Q 1163 4600 1759 4600 
Q 2359 4600 2725 4251 
Q 3091 3903 3091 3403 
Q 3091 3084 2923 2848 
Q 2756 2613 2416 2484 
Q 2838 2347 3058 2040 
Q 3278 1734 3278 1309 
Q 3278 722 2862 322 
Q 2447 -78 1769 -78 
Q 1091 -78 675 323 
Q 259 725 259 1325 
Q 259 1772 486 2073 
Q 713 2375 1131 2484 
z
M 1019 3438 
Q 1019 3113 1228 2906 
Q 1438 2700 1772 2700 
Q 2097 2700 2305 2904 
Q 2513 3109 2513 3406 
Q 2513 3716 2298 3927 
Q 2084 4138 1766 4138 
Q 1444 4138 1231 3931 
Q 1019 3725 1019 3438 
z
M 838 1322 
Q 838 1081 952 856 
Q 1066 631 1291 507 
Q 1516 384 1775 384 
Q 2178 384 2440 643 
Q 2703 903 2703 1303 
Q 2703 1709 2433 1975 
Q 2163 2241 1756 2241 
Q 1359 2241 1098 1978 
Q 838 1716 838 1322 
z
" transform="scale(0.015625)"/>
       </defs>
       <use xlink:href="#ArialMT-53"/>
       <use xlink:href="#ArialMT-6f" transform="translate(66.699219 0)"/>
       <use xlink:href="#ArialMT-72" transform="translate(122.314453 0)"/>
       <use xlink:href="#ArialMT-74" transform="translate(155.615234 0)"/>
       <use xlink:href="#ArialMT-65" transform="translate(183.398438 0)"/>
       <use xlink:href="#ArialMT-64" transform="translate(239.013672 0)"/>
       <use xlink:href="#ArialMT-53" transform="translate(294.628906 0)"/>
       <use xlink:href="#ArialMT-74" transform="translate(361.328125 0)"/>
       <use xlink:href="#ArialMT-65" transform="translate(389.111328 0)"/>
       <use xlink:href="#ArialMT-70" transform="translate(444.726562 0)"/>
       <use xlink:href="#ArialMT-46" transform="translate(500.341797 0)"/>
       <use xlink:href="#ArialMT-6f" transform="translate(561.425781 0)"/>
       <use xlink:href="#ArialMT-72" transform="translate(617.041016 0)"/>
       <use xlink:href="#ArialMT-77" transform="translate(650.341797 0)"/>
       <use xlink:href="#ArialMT-61" transform="translate(722.558594 0)"/>
       <use xlink:href="#ArialMT-72" transform="translate(778.173828 0)"/>
       <use xlink:href="#ArialMT-64" transform="translate(811.474609 0)"/>
       <use xlink:href="#ArialMT-5f" transform="translate(867.089844 0)"/>
       <use xlink:href="#ArialMT-4d" transform="translate(922.705078 0)"/>
       <use xlink:href="#ArialMT-43" transform="translate(1006.005859 0)"/>
       <use xlink:href="#ArialMT-45" transform="translate(1078.222656 0)"/>
       <use xlink:href="#ArialMT-31" transform="translate(1144.921875 0)"/>
       <use xlink:href="#ArialMT-38" transform="translate(1200.537109 0)"/>
      </g>
     </g>
    </g>
    <g id="xtick_6">
     <g id="text_6">
      <!-- UnsortedStepForward -->
      <g style="fill: #262626" transform="translate(566.90786 784.958298) rotate(-45) scale(0.176 -0.176)">
       <defs>
        <path id="ArialMT-55" d="M 3500 4581 
L 4106 4581 
L 4106 1934 
Q 4106 1244 3950 837 
Q 3794 431 3386 176 
Q 2978 -78 2316 -78 
Q 1672 -78 1262 144 
Q 853 366 678 786 
Q 503 1206 503 1934 
L 503 4581 
L 1109 4581 
L 1109 1938 
Q 1109 1341 1220 1058 
Q 1331 775 1601 622 
Q 1872 469 2263 469 
Q 2931 469 3215 772 
Q 3500 1075 3500 1938 
L 3500 4581 
z
" transform="scale(0.015625)"/>
        <path id="ArialMT-73" d="M 197 991 
L 753 1078 
Q 800 744 1014 566 
Q 1228 388 1613 388 
Q 2000 388 2187 545 
Q 2375 703 2375 916 
Q 2375 1106 2209 1216 
Q 2094 1291 1634 1406 
Q 1016 1563 777 1677 
Q 538 1791 414 1992 
Q 291 2194 291 2438 
Q 291 2659 392 2848 
Q 494 3038 669 3163 
Q 800 3259 1026 3326 
Q 1253 3394 1513 3394 
Q 1903 3394 2198 3281 
Q 2494 3169 2634 2976 
Q 2775 2784 2828 2463 
L 2278 2388 
Q 2241 2644 2061 2787 
Q 1881 2931 1553 2931 
Q 1166 2931 1000 2803 
Q 834 2675 834 2503 
Q 834 2394 903 2306 
Q 972 2216 1119 2156 
Q 1203 2125 1616 2013 
Q 2213 1853 2448 1751 
Q 2684 1650 2818 1456 
Q 2953 1263 2953 975 
Q 2953 694 2789 445 
Q 2625 197 2315 61 
Q 2006 -75 1616 -75 
Q 969 -75 630 194 
Q 291 463 197 991 
z
" transform="scale(0.015625)"/>
       </defs>
       <use xlink:href="#ArialMT-55"/>
       <use xlink:href="#ArialMT-6e" transform="translate(72.216797 0)"/>
       <use xlink:href="#ArialMT-73" transform="translate(127.832031 0)"/>
       <use xlink:href="#ArialMT-6f" transform="translate(177.832031 0)"/>
       <use xlink:href="#ArialMT-72" transform="translate(233.447266 0)"/>
       <use xlink:href="#ArialMT-74" transform="translate(266.748047 0)"/>
       <use xlink:href="#ArialMT-65" transform="translate(294.53125 0)"/>
       <use xlink:href="#ArialMT-64" transform="translate(350.146484 0)"/>
       <use xlink:href="#ArialMT-53" transform="translate(405.761719 0)"/>
       <use xlink:href="#ArialMT-74" transform="translate(472.460938 0)"/>
       <use xlink:href="#ArialMT-65" transform="translate(500.244141 0)"/>
       <use xlink:href="#ArialMT-70" transform="translate(555.859375 0)"/>
       <use xlink:href="#ArialMT-46" transform="translate(611.474609 0)"/>
       <use xlink:href="#ArialMT-6f" transform="translate(672.558594 0)"/>
       <use xlink:href="#ArialMT-72" transform="translate(728.173828 0)"/>
       <use xlink:href="#ArialMT-77" transform="translate(761.474609 0)"/>
       <use xlink:href="#ArialMT-61" transform="translate(833.691406 0)"/>
       <use xlink:href="#ArialMT-72" transform="translate(889.306641 0)"/>
       <use xlink:href="#ArialMT-64" transform="translate(922.607422 0)"/>
      </g>
     </g>
    </g>
    <g id="text_7">
     <!-- split_type -->
     <g style="fill: #262626" transform="translate(335.967825 839.762355) scale(0.192 -0.192)">
      <defs>
       <path id="ArialMT-79" d="M 397 -1278 
L 334 -750 
Q 519 -800 656 -800 
Q 844 -800 956 -737 
Q 1069 -675 1141 -563 
Q 1194 -478 1313 -144 
Q 1328 -97 1363 -6 
L 103 3319 
L 709 3319 
L 1400 1397 
Q 1534 1031 1641 628 
Q 1738 1016 1872 1384 
L 2581 3319 
L 3144 3319 
L 1881 -56 
Q 1678 -603 1566 -809 
Q 1416 -1088 1222 -1217 
Q 1028 -1347 759 -1347 
Q 597 -1347 397 -1278 
z
" transform="scale(0.015625)"/>
      </defs>
      <use xlink:href="#ArialMT-73"/>
      <use xlink:href="#ArialMT-70" transform="translate(50 0)"/>
      <use xlink:href="#ArialMT-6c" transform="translate(105.615234 0)"/>
      <use xlink:href="#ArialMT-69" transform="translate(127.832031 0)"/>
      <use xlink:href="#ArialMT-74" transform="translate(150.048828 0)"/>
      <use xlink:href="#ArialMT-5f" transform="translate(177.832031 0)"/>
      <use xlink:href="#ArialMT-74" transform="translate(233.447266 0)"/>
      <use xlink:href="#ArialMT-79" transform="translate(261.230469 0)"/>
      <use xlink:href="#ArialMT-70" transform="translate(311.230469 0)"/>
      <use xlink:href="#ArialMT-65" transform="translate(366.845703 0)"/>
     </g>
    </g>
   </g>
   <g id="matplotlib.axis_2">
    <g id="ytick_1">
     <g id="line2d_1">
      <path d="M 60.126 628.069706 
L 692.917651 628.069706 
" clip-path="url(#pbd369e4c89)" style="fill: none; stroke: #cccccc; stroke-width: 0.8; stroke-linecap: round"/>
     </g>
     <g id="text_8">
      <!-- 0 -->
      <g style="fill: #262626" transform="translate(42.03875 634.368581) scale(0.176 -0.176)">
       <defs>
        <path id="ArialMT-30" d="M 266 2259 
Q 266 3072 433 3567 
Q 600 4063 929 4331 
Q 1259 4600 1759 4600 
Q 2128 4600 2406 4451 
Q 2684 4303 2865 4023 
Q 3047 3744 3150 3342 
Q 3253 2941 3253 2259 
Q 3253 1453 3087 958 
Q 2922 463 2592 192 
Q 2263 -78 1759 -78 
Q 1097 -78 719 397 
Q 266 969 266 2259 
z
M 844 2259 
Q 844 1131 1108 757 
Q 1372 384 1759 384 
Q 2147 384 2411 759 
Q 2675 1134 2675 2259 
Q 2675 3391 2411 3762 
Q 2147 4134 1753 4134 
Q 1366 4134 1134 3806 
Q 844 3388 844 2259 
z
" transform="scale(0.015625)"/>
       </defs>
       <use xlink:href="#ArialMT-30"/>
      </g>
     </g>
    </g>
    <g id="ytick_2">
     <g id="line2d_2">
      <path d="M 60.126 557.793447 
L 692.917651 557.793447 
" clip-path="url(#pbd369e4c89)" style="fill: none; stroke: #cccccc; stroke-width: 0.8; stroke-linecap: round"/>
     </g>
     <g id="text_9">
      <!-- 1 -->
      <g style="fill: #262626" transform="translate(42.03875 564.092322) scale(0.176 -0.176)">
       <use xlink:href="#ArialMT-31"/>
      </g>
     </g>
    </g>
    <g id="ytick_3">
     <g id="line2d_3">
      <path d="M 60.126 487.517188 
L 692.917651 487.517188 
" clip-path="url(#pbd369e4c89)" style="fill: none; stroke: #cccccc; stroke-width: 0.8; stroke-linecap: round"/>
     </g>
     <g id="text_10">
      <!-- 2 -->
      <g style="fill: #262626" transform="translate(42.03875 493.816063) scale(0.176 -0.176)">
       <defs>
        <path id="ArialMT-32" d="M 3222 541 
L 3222 0 
L 194 0 
Q 188 203 259 391 
Q 375 700 629 1000 
Q 884 1300 1366 1694 
Q 2113 2306 2375 2664 
Q 2638 3022 2638 3341 
Q 2638 3675 2398 3904 
Q 2159 4134 1775 4134 
Q 1369 4134 1125 3890 
Q 881 3647 878 3216 
L 300 3275 
Q 359 3922 746 4261 
Q 1134 4600 1788 4600 
Q 2447 4600 2831 4234 
Q 3216 3869 3216 3328 
Q 3216 3053 3103 2787 
Q 2991 2522 2730 2228 
Q 2469 1934 1863 1422 
Q 1356 997 1212 845 
Q 1069 694 975 541 
L 3222 541 
z
" transform="scale(0.015625)"/>
       </defs>
       <use xlink:href="#ArialMT-32"/>
      </g>
     </g>
    </g>
    <g id="ytick_4">
     <g id="line2d_4">
      <path d="M 60.126 417.24093 
L 692.917651 417.24093 
" clip-path="url(#pbd369e4c89)" style="fill: none; stroke: #cccccc; stroke-width: 0.8; stroke-linecap: round"/>
     </g>
     <g id="text_11">
      <!-- 3 -->
      <g style="fill: #262626" transform="translate(42.03875 423.539805) scale(0.176 -0.176)">
       <defs>
        <path id="ArialMT-33" d="M 269 1209 
L 831 1284 
Q 928 806 1161 595 
Q 1394 384 1728 384 
Q 2125 384 2398 659 
Q 2672 934 2672 1341 
Q 2672 1728 2419 1979 
Q 2166 2231 1775 2231 
Q 1616 2231 1378 2169 
L 1441 2663 
Q 1497 2656 1531 2656 
Q 1891 2656 2178 2843 
Q 2466 3031 2466 3422 
Q 2466 3731 2256 3934 
Q 2047 4138 1716 4138 
Q 1388 4138 1169 3931 
Q 950 3725 888 3313 
L 325 3413 
Q 428 3978 793 4289 
Q 1159 4600 1703 4600 
Q 2078 4600 2393 4439 
Q 2709 4278 2876 4000 
Q 3044 3722 3044 3409 
Q 3044 3113 2884 2869 
Q 2725 2625 2413 2481 
Q 2819 2388 3044 2092 
Q 3269 1797 3269 1353 
Q 3269 753 2831 336 
Q 2394 -81 1725 -81 
Q 1122 -81 723 278 
Q 325 638 269 1209 
z
" transform="scale(0.015625)"/>
       </defs>
       <use xlink:href="#ArialMT-33"/>
      </g>
     </g>
    </g>
    <g id="ytick_5">
     <g id="line2d_5">
      <path d="M 60.126 346.964671 
L 692.917651 346.964671 
" clip-path="url(#pbd369e4c89)" style="fill: none; stroke: #cccccc; stroke-width: 0.8; stroke-linecap: round"/>
     </g>
     <g id="text_12">
      <!-- 4 -->
      <g style="fill: #262626" transform="translate(42.03875 353.263546) scale(0.176 -0.176)">
       <defs>
        <path id="ArialMT-34" d="M 2069 0 
L 2069 1097 
L 81 1097 
L 81 1613 
L 2172 4581 
L 2631 4581 
L 2631 1613 
L 3250 1613 
L 3250 1097 
L 2631 1097 
L 2631 0 
L 2069 0 
z
M 2069 1613 
L 2069 3678 
L 634 1613 
L 2069 1613 
z
" transform="scale(0.015625)"/>
       </defs>
       <use xlink:href="#ArialMT-34"/>
      </g>
     </g>
    </g>
    <g id="ytick_6">
     <g id="line2d_6">
      <path d="M 60.126 276.688412 
L 692.917651 276.688412 
" clip-path="url(#pbd369e4c89)" style="fill: none; stroke: #cccccc; stroke-width: 0.8; stroke-linecap: round"/>
     </g>
     <g id="text_13">
      <!-- 5 -->
      <g style="fill: #262626" transform="translate(42.03875 282.987287) scale(0.176 -0.176)">
       <defs>
        <path id="ArialMT-35" d="M 266 1200 
L 856 1250 
Q 922 819 1161 601 
Q 1400 384 1738 384 
Q 2144 384 2425 690 
Q 2706 997 2706 1503 
Q 2706 1984 2436 2262 
Q 2166 2541 1728 2541 
Q 1456 2541 1237 2417 
Q 1019 2294 894 2097 
L 366 2166 
L 809 4519 
L 3088 4519 
L 3088 3981 
L 1259 3981 
L 1013 2750 
Q 1425 3038 1878 3038 
Q 2478 3038 2890 2622 
Q 3303 2206 3303 1553 
Q 3303 931 2941 478 
Q 2500 -78 1738 -78 
Q 1113 -78 717 272 
Q 322 622 266 1200 
z
" transform="scale(0.015625)"/>
       </defs>
       <use xlink:href="#ArialMT-35"/>
      </g>
     </g>
    </g>
    <g id="ytick_7">
     <g id="line2d_7">
      <path d="M 60.126 206.412153 
L 692.917651 206.412153 
" clip-path="url(#pbd369e4c89)" style="fill: none; stroke: #cccccc; stroke-width: 0.8; stroke-linecap: round"/>
     </g>
     <g id="text_14">
      <!-- 6 -->
      <g style="fill: #262626" transform="translate(42.03875 212.711028) scale(0.176 -0.176)">
       <defs>
        <path id="ArialMT-36" d="M 3184 3459 
L 2625 3416 
Q 2550 3747 2413 3897 
Q 2184 4138 1850 4138 
Q 1581 4138 1378 3988 
Q 1113 3794 959 3422 
Q 806 3050 800 2363 
Q 1003 2672 1297 2822 
Q 1591 2972 1913 2972 
Q 2475 2972 2870 2558 
Q 3266 2144 3266 1488 
Q 3266 1056 3080 686 
Q 2894 316 2569 119 
Q 2244 -78 1831 -78 
Q 1128 -78 684 439 
Q 241 956 241 2144 
Q 241 3472 731 4075 
Q 1159 4600 1884 4600 
Q 2425 4600 2770 4297 
Q 3116 3994 3184 3459 
z
M 888 1484 
Q 888 1194 1011 928 
Q 1134 663 1356 523 
Q 1578 384 1822 384 
Q 2178 384 2434 671 
Q 2691 959 2691 1453 
Q 2691 1928 2437 2201 
Q 2184 2475 1800 2475 
Q 1419 2475 1153 2201 
Q 888 1928 888 1484 
z
" transform="scale(0.015625)"/>
       </defs>
       <use xlink:href="#ArialMT-36"/>
      </g>
     </g>
    </g>
    <g id="ytick_8">
     <g id="line2d_8">
      <path d="M 60.126 136.135895 
L 692.917651 136.135895 
" clip-path="url(#pbd369e4c89)" style="fill: none; stroke: #cccccc; stroke-width: 0.8; stroke-linecap: round"/>
     </g>
     <g id="text_15">
      <!-- 7 -->
      <g style="fill: #262626" transform="translate(42.03875 142.43477) scale(0.176 -0.176)">
       <defs>
        <path id="ArialMT-37" d="M 303 3981 
L 303 4522 
L 3269 4522 
L 3269 4084 
Q 2831 3619 2401 2847 
Q 1972 2075 1738 1259 
Q 1569 684 1522 0 
L 944 0 
Q 953 541 1156 1306 
Q 1359 2072 1739 2783 
Q 2119 3494 2547 3981 
L 303 3981 
z
" transform="scale(0.015625)"/>
       </defs>
       <use xlink:href="#ArialMT-37"/>
      </g>
     </g>
    </g>
    <g id="ytick_9">
     <g id="line2d_9">
      <path d="M 60.126 65.859636 
L 692.917651 65.859636 
" clip-path="url(#pbd369e4c89)" style="fill: none; stroke: #cccccc; stroke-width: 0.8; stroke-linecap: round"/>
     </g>
     <g id="text_16">
      <!-- 8 -->
      <g style="fill: #262626" transform="translate(42.03875 72.158511) scale(0.176 -0.176)">
       <use xlink:href="#ArialMT-38"/>
      </g>
     </g>
    </g>
    <g id="text_17">
     <!-- rmse -->
     <g style="fill: #262626" transform="translate(34.22275 364.472674) rotate(-90) scale(0.192 -0.192)">
      <use xlink:href="#ArialMT-72"/>
      <use xlink:href="#ArialMT-6d" transform="translate(33.300781 0)"/>
      <use xlink:href="#ArialMT-73" transform="translate(116.601562 0)"/>
      <use xlink:href="#ArialMT-65" transform="translate(166.601562 0)"/>
     </g>
    </g>
   </g>
   <g id="FillBetweenPolyCollection_1">
    <defs>
     <path id="mf258d6ac96" d="M 128.566995 -246.341864 
L 128.558434 -246.341864 
L 128.548104 -248.075161 
L 128.531317 -249.808457 
L 128.506324 -251.541754 
L 128.430526 -253.27505 
L 128.2118 -255.008347 
L 127.777296 -256.741644 
L 127.120448 -258.47494 
L 126.258679 -260.208237 
L 125.166004 -261.941533 
L 123.71046 -263.67483 
L 121.622274 -265.408126 
L 118.685115 -267.141423 
L 114.987639 -268.87472 
L 110.771496 -270.608016 
L 106.192933 -272.341313 
L 101.293388 -274.074609 
L 96.288781 -275.807906 
L 91.941949 -277.541203 
L 89.297869 -279.274499 
L 88.889257 -281.007796 
L 90.338278 -282.741092 
L 92.770764 -284.474389 
L 95.479917 -286.207686 
L 97.98564 -287.940982 
L 100.222779 -289.674279 
L 102.843975 -291.407575 
L 106.204627 -293.140872 
L 109.813533 -294.874169 
L 113.164369 -296.607465 
L 115.985129 -298.340762 
L 118.10583 -300.074058 
L 119.731525 -301.807355 
L 121.199133 -303.540652 
L 122.611703 -305.273948 
L 123.907376 -307.007245 
L 125.005988 -308.740541 
L 125.884468 -310.473838 
L 126.53476 -312.207134 
L 126.967727 -313.940431 
L 127.257617 -315.673728 
L 127.497491 -317.407024 
L 127.73201 -319.140321 
L 127.934545 -320.873617 
L 128.067895 -322.606914 
L 128.131798 -324.340211 
L 128.158504 -326.073507 
L 128.18134 -327.806804 
L 128.200911 -329.5401 
L 128.230432 -331.273397 
L 128.292329 -333.006694 
L 128.356064 -334.73999 
L 128.382882 -336.473287 
L 128.387779 -338.206583 
L 128.406253 -339.93988 
L 128.440429 -341.673177 
L 128.464204 -343.406473 
L 128.466361 -345.13977 
L 128.462995 -346.873066 
L 128.466299 -348.606363 
L 128.470183 -350.33966 
L 128.473685 -352.072956 
L 128.479706 -353.806253 
L 128.476547 -355.539549 
L 128.461466 -357.272846 
L 128.438314 -359.006142 
L 128.400229 -360.739439 
L 128.352159 -362.472736 
L 128.315611 -364.206032 
L 128.309962 -365.939329 
L 128.335678 -367.672625 
L 128.37975 -369.405922 
L 128.427572 -371.139219 
L 128.462017 -372.872515 
L 128.479727 -374.605812 
L 128.496919 -376.339108 
L 128.51014 -378.072405 
L 128.498226 -379.805702 
L 128.471962 -381.538998 
L 128.463222 -383.272295 
L 128.470637 -385.005591 
L 128.468754 -386.738888 
L 128.458225 -388.472185 
L 128.463652 -390.205481 
L 128.489097 -391.938778 
L 128.511635 -393.672074 
L 128.524462 -395.405371 
L 128.533949 -397.138668 
L 128.534754 -398.871964 
L 128.530192 -400.605261 
L 128.535258 -402.338557 
L 128.548767 -404.071854 
L 128.558405 -405.80515 
L 128.560419 -407.538447 
L 128.555253 -409.271744 
L 128.542896 -411.00504 
L 128.532014 -412.738337 
L 128.535221 -414.471633 
L 128.548483 -416.20493 
L 128.558457 -417.938227 
L 128.566972 -417.938227 
L 128.566972 -417.938227 
L 128.576946 -416.20493 
L 128.590208 -414.471633 
L 128.593416 -412.738337 
L 128.582534 -411.00504 
L 128.570176 -409.271744 
L 128.56501 -407.538447 
L 128.567024 -405.80515 
L 128.576662 -404.071854 
L 128.590171 -402.338557 
L 128.595237 -400.605261 
L 128.590675 -398.871964 
L 128.591481 -397.138668 
L 128.600967 -395.405371 
L 128.613794 -393.672074 
L 128.636332 -391.938778 
L 128.661777 -390.205481 
L 128.667204 -388.472185 
L 128.656675 -386.738888 
L 128.654792 -385.005591 
L 128.662207 -383.272295 
L 128.653467 -381.538998 
L 128.627203 -379.805702 
L 128.615289 -378.072405 
L 128.62851 -376.339108 
L 128.645703 -374.605812 
L 128.663412 -372.872515 
L 128.697857 -371.139219 
L 128.74568 -369.405922 
L 128.789751 -367.672625 
L 128.815468 -365.939329 
L 128.809818 -364.206032 
L 128.773271 -362.472736 
L 128.7252 -360.739439 
L 128.687115 -359.006142 
L 128.663963 -357.272846 
L 128.648883 -355.539549 
L 128.645723 -353.806253 
L 128.651744 -352.072956 
L 128.655246 -350.33966 
L 128.65913 -348.606363 
L 128.662434 -346.873066 
L 128.659068 -345.13977 
L 128.661225 -343.406473 
L 128.685001 -341.673177 
L 128.719176 -339.93988 
L 128.737651 -338.206583 
L 128.742547 -336.473287 
L 128.769366 -334.73999 
L 128.8331 -333.006694 
L 128.894997 -331.273397 
L 128.924518 -329.5401 
L 128.944089 -327.806804 
L 128.966925 -326.073507 
L 128.993631 -324.340211 
L 129.057534 -322.606914 
L 129.190884 -320.873617 
L 129.39342 -319.140321 
L 129.627938 -317.407024 
L 129.867812 -315.673728 
L 130.157703 -313.940431 
L 130.590669 -312.207134 
L 131.240961 -310.473838 
L 132.119441 -308.740541 
L 133.218054 -307.007245 
L 134.513727 -305.273948 
L 135.926297 -303.540652 
L 137.393904 -301.807355 
L 139.0196 -300.074058 
L 141.1403 -298.340762 
L 143.96106 -296.607465 
L 147.311896 -294.874169 
L 150.920802 -293.140872 
L 154.281455 -291.407575 
L 156.90265 -289.674279 
L 159.139789 -287.940982 
L 161.645512 -286.207686 
L 164.354665 -284.474389 
L 166.787151 -282.741092 
L 168.236172 -281.007796 
L 167.82756 -279.274499 
L 165.18348 -277.541203 
L 160.836648 -275.807906 
L 155.832041 -274.074609 
L 150.932496 -272.341313 
L 146.353933 -270.608016 
L 142.137791 -268.87472 
L 138.440314 -267.141423 
L 135.503155 -265.408126 
L 133.414969 -263.67483 
L 131.959425 -261.941533 
L 130.86675 -260.208237 
L 130.004981 -258.47494 
L 129.348133 -256.741644 
L 128.913629 -255.008347 
L 128.694903 -253.27505 
L 128.619105 -251.541754 
L 128.594112 -249.808457 
L 128.577325 -248.075161 
L 128.566995 -246.341864 
z
" style="stroke: #494949"/>
    </defs>
    <g clip-path="url(#pbd369e4c89)">
     <use xlink:href="#mf258d6ac96" x="0" y="864" style="fill: #5875a4; stroke: #494949"/>
    </g>
   </g>
   <g id="FillBetweenPolyCollection_2">
    <defs>
     <path id="m6995cac726" d="M 227.757983 -244.263739 
L 227.734735 -244.263739 
L 227.703064 -246.681731 
L 227.630269 -249.099724 
L 227.503151 -251.517716 
L 227.290554 -253.935709 
L 226.877494 -256.353701 
L 226.063677 -258.771694 
L 224.677162 -261.189686 
L 222.634128 -263.607679 
L 219.887543 -266.025671 
L 216.44504 -268.443664 
L 212.37741 -270.861656 
L 207.757347 -273.279649 
L 202.888367 -275.697641 
L 198.44883 -278.115633 
L 194.950105 -280.533626 
L 192.283451 -282.951618 
L 190.094288 -285.369611 
L 188.504971 -287.787603 
L 188.072901 -290.205596 
L 188.94231 -292.623588 
L 190.689315 -295.041581 
L 193.050522 -297.459573 
L 196.019455 -299.877566 
L 199.330227 -302.295558 
L 202.707677 -304.713551 
L 206.268546 -307.131543 
L 209.988736 -309.549536 
L 213.402984 -311.967528 
L 216.098858 -314.385521 
L 218.038014 -316.803513 
L 219.420692 -319.221506 
L 220.467708 -321.639498 
L 221.304763 -324.057491 
L 222.000947 -326.475483 
L 222.652908 -328.893476 
L 223.350683 -331.311468 
L 224.0951 -333.72946 
L 224.785362 -336.147453 
L 225.30568 -338.565445 
L 225.646342 -340.983438 
L 225.904806 -343.40143 
L 226.147914 -345.819423 
L 226.365501 -348.237415 
L 226.549497 -350.655408 
L 226.72413 -353.0734 
L 226.909636 -355.491393 
L 227.080984 -357.909385 
L 227.197695 -360.327378 
L 227.271773 -362.74537 
L 227.336711 -365.163363 
L 227.397136 -367.581355 
L 227.454052 -369.999348 
L 227.500869 -372.41734 
L 227.515596 -374.835333 
L 227.500476 -377.253325 
L 227.4703 -379.671318 
L 227.410909 -382.08931 
L 227.326436 -384.507303 
L 227.280518 -386.925295 
L 227.304692 -389.343288 
L 227.358272 -391.76128 
L 227.411616 -394.179272 
L 227.463938 -396.597265 
L 227.513185 -399.015257 
L 227.556938 -401.43325 
L 227.591192 -403.851242 
L 227.618045 -406.269235 
L 227.648396 -408.687227 
L 227.678478 -411.10522 
L 227.69033 -413.523212 
L 227.678461 -415.941205 
L 227.654823 -418.359197 
L 227.642374 -420.77719 
L 227.660251 -423.195182 
L 227.697989 -425.613175 
L 227.728498 -428.031167 
L 227.742077 -430.44916 
L 227.745681 -432.867152 
L 227.746121 -435.285145 
L 227.745156 -437.703137 
L 227.741009 -440.12113 
L 227.731023 -442.539122 
L 227.717538 -444.957115 
L 227.708534 -447.375107 
L 227.706306 -449.793099 
L 227.706879 -452.211092 
L 227.712035 -454.629084 
L 227.722404 -457.047077 
L 227.726978 -459.465069 
L 227.714453 -461.883062 
L 227.688361 -464.301054 
L 227.665415 -466.719047 
L 227.655618 -469.137039 
L 227.654087 -471.555032 
L 227.658677 -473.973024 
L 227.675706 -476.391017 
L 227.703238 -478.809009 
L 227.72781 -481.227002 
L 227.740955 -483.644994 
L 227.751763 -483.644994 
L 227.751763 -483.644994 
L 227.764908 -481.227002 
L 227.78948 -478.809009 
L 227.817012 -476.391017 
L 227.834041 -473.973024 
L 227.838631 -471.555032 
L 227.8371 -469.137039 
L 227.827303 -466.719047 
L 227.804356 -464.301054 
L 227.778265 -461.883062 
L 227.76574 -459.465069 
L 227.770314 -457.047077 
L 227.780683 -454.629084 
L 227.785839 -452.211092 
L 227.786412 -449.793099 
L 227.784184 -447.375107 
L 227.775179 -444.957115 
L 227.761695 -442.539122 
L 227.751709 -440.12113 
L 227.747562 -437.703137 
L 227.746596 -435.285145 
L 227.747037 -432.867152 
L 227.75064 -430.44916 
L 227.76422 -428.031167 
L 227.794729 -425.613175 
L 227.832467 -423.195182 
L 227.850344 -420.77719 
L 227.837895 -418.359197 
L 227.814256 -415.941205 
L 227.802388 -413.523212 
L 227.81424 -411.10522 
L 227.844322 -408.687227 
L 227.874673 -406.269235 
L 227.901526 -403.851242 
L 227.93578 -401.43325 
L 227.979533 -399.015257 
L 228.02878 -396.597265 
L 228.081102 -394.179272 
L 228.134446 -391.76128 
L 228.188026 -389.343288 
L 228.2122 -386.925295 
L 228.166282 -384.507303 
L 228.081809 -382.08931 
L 228.022417 -379.671318 
L 227.992242 -377.253325 
L 227.977121 -374.835333 
L 227.991848 -372.41734 
L 228.038666 -369.999348 
L 228.095581 -367.581355 
L 228.156007 -365.163363 
L 228.220945 -362.74537 
L 228.295023 -360.327378 
L 228.411733 -357.909385 
L 228.583081 -355.491393 
L 228.768587 -353.0734 
L 228.943221 -350.655408 
L 229.127217 -348.237415 
L 229.344804 -345.819423 
L 229.587911 -343.40143 
L 229.846376 -340.983438 
L 230.187038 -338.565445 
L 230.707355 -336.147453 
L 231.397618 -333.72946 
L 232.142035 -331.311468 
L 232.839809 -328.893476 
L 233.491771 -326.475483 
L 234.187955 -324.057491 
L 235.02501 -321.639498 
L 236.072026 -319.221506 
L 237.454704 -316.803513 
L 239.39386 -314.385521 
L 242.089734 -311.967528 
L 245.503982 -309.549536 
L 249.224172 -307.131543 
L 252.78504 -304.713551 
L 256.162491 -302.295558 
L 259.473262 -299.877566 
L 262.442196 -297.459573 
L 264.803403 -295.041581 
L 266.550408 -292.623588 
L 267.419817 -290.205596 
L 266.987746 -287.787603 
L 265.39843 -285.369611 
L 263.209267 -282.951618 
L 260.542613 -280.533626 
L 257.043888 -278.115633 
L 252.60435 -275.697641 
L 247.735371 -273.279649 
L 243.115308 -270.861656 
L 239.047678 -268.443664 
L 235.605175 -266.025671 
L 232.858589 -263.607679 
L 230.815555 -261.189686 
L 229.429041 -258.771694 
L 228.615224 -256.353701 
L 228.202163 -253.935709 
L 227.989567 -251.517716 
L 227.862449 -249.099724 
L 227.789654 -246.681731 
L 227.757983 -244.263739 
z
" style="stroke: #494949"/>
    </defs>
    <g clip-path="url(#pbd369e4c89)">
     <use xlink:href="#m6995cac726" x="0" y="864" style="fill: #cc8963; stroke: #494949"/>
    </g>
   </g>
   <g id="FillBetweenPolyCollection_3">
    <defs>
     <path id="mecaa0d8e8f" d="M 326.946866 -247.34009 
L 326.91314 -247.34009 
L 326.809025 -251.276376 
L 326.465702 -255.212663 
L 325.73272 -259.148949 
L 324.329683 -263.085235 
L 321.471391 -267.021521 
L 316.222308 -270.957808 
L 308.674765 -274.894094 
L 300.185981 -278.83038 
L 292.925135 -282.766667 
L 288.317938 -286.702953 
L 287.256545 -290.639239 
L 290.051313 -294.575525 
L 294.990321 -298.511812 
L 300.580042 -302.448098 
L 306.273726 -306.384384 
L 311.554841 -310.32067 
L 315.874949 -314.256957 
L 318.842948 -318.193243 
L 320.716835 -322.129529 
L 322.225522 -326.065816 
L 323.473116 -330.002102 
L 324.181251 -333.938388 
L 324.553311 -337.874674 
L 324.896596 -341.810961 
L 325.241739 -345.747247 
L 325.565908 -349.683533 
L 325.782478 -353.61982 
L 325.910163 -357.556106 
L 326.096227 -361.492392 
L 326.21671 -365.428678 
L 326.209054 -369.364965 
L 326.248063 -373.301251 
L 326.296799 -377.237537 
L 326.314866 -381.173824 
L 326.34907 -385.11011 
L 326.355468 -389.046396 
L 326.349381 -392.982682 
L 326.432292 -396.918969 
L 326.562719 -400.855255 
L 326.638636 -404.791541 
L 326.673002 -408.727827 
L 326.711112 -412.664114 
L 326.76987 -416.6004 
L 326.808851 -420.536686 
L 326.827319 -424.472973 
L 326.854515 -428.409259 
L 326.888208 -432.345545 
L 326.899354 -436.281831 
L 326.893852 -440.218118 
L 326.892642 -444.154404 
L 326.895594 -448.09069 
L 326.897917 -452.026977 
L 326.907512 -455.963263 
L 326.919876 -459.899549 
L 326.91486 -463.835835 
L 326.904036 -467.772122 
L 326.911851 -471.708408 
L 326.925114 -475.644694 
L 326.929493 -479.580981 
L 326.929854 -483.517267 
L 326.928066 -487.453553 
L 326.918836 -491.389839 
L 326.905234 -495.326126 
L 326.908871 -499.262412 
L 326.923016 -503.198698 
L 326.928102 -507.134984 
L 326.922306 -511.071271 
L 326.908044 -515.007557 
L 326.905775 -518.943843 
L 326.919721 -522.88013 
L 326.928325 -526.816416 
L 326.929898 -530.752702 
L 326.930001 -534.688988 
L 326.930003 -538.625275 
L 326.930003 -542.561561 
L 326.930003 -546.497847 
L 326.930003 -550.434134 
L 326.930003 -554.37042 
L 326.930003 -558.306706 
L 326.930003 -562.242992 
L 326.930003 -566.179279 
L 326.930003 -570.115565 
L 326.930003 -574.051851 
L 326.930003 -577.988137 
L 326.930003 -581.924424 
L 326.930002 -585.86071 
L 326.92996 -589.796996 
L 326.929115 -593.733283 
L 326.923007 -597.669569 
L 326.908796 -601.605855 
L 326.905279 -605.542141 
L 326.918916 -609.478428 
L 326.928076 -613.414714 
L 326.929472 -617.351 
L 326.925784 -621.287287 
L 326.913089 -625.223573 
L 326.903907 -629.159859 
L 326.914516 -633.096145 
L 326.926468 -637.032432 
L 326.933539 -637.032432 
L 326.933539 -637.032432 
L 326.945491 -633.096145 
L 326.9561 -629.159859 
L 326.946917 -625.223573 
L 326.934223 -621.287287 
L 326.930534 -617.351 
L 326.931931 -613.414714 
L 326.941091 -609.478428 
L 326.954728 -605.542141 
L 326.95121 -601.605855 
L 326.937 -597.669569 
L 326.930891 -593.733283 
L 326.930047 -589.796996 
L 326.930004 -585.86071 
L 326.930003 -581.924424 
L 326.930003 -577.988137 
L 326.930003 -574.051851 
L 326.930003 -570.115565 
L 326.930003 -566.179279 
L 326.930003 -562.242992 
L 326.930003 -558.306706 
L 326.930003 -554.37042 
L 326.930003 -550.434134 
L 326.930003 -546.497847 
L 326.930003 -542.561561 
L 326.930003 -538.625275 
L 326.930006 -534.688988 
L 326.930109 -530.752702 
L 326.931682 -526.816416 
L 326.940286 -522.88013 
L 326.954231 -518.943843 
L 326.951962 -515.007557 
L 326.9377 -511.071271 
L 326.931905 -507.134984 
L 326.93699 -503.198698 
L 326.951136 -499.262412 
L 326.954773 -495.326126 
L 326.941171 -491.389839 
L 326.93194 -487.453553 
L 326.930153 -483.517267 
L 326.930513 -479.580981 
L 326.934892 -475.644694 
L 326.948156 -471.708408 
L 326.95597 -467.772122 
L 326.945147 -463.835835 
L 326.94013 -459.899549 
L 326.952495 -455.963263 
L 326.962089 -452.026977 
L 326.964412 -448.09069 
L 326.967364 -444.154404 
L 326.966154 -440.218118 
L 326.960653 -436.281831 
L 326.971798 -432.345545 
L 327.005491 -428.409259 
L 327.032687 -424.472973 
L 327.051155 -420.536686 
L 327.090137 -416.6004 
L 327.148894 -412.664114 
L 327.187004 -408.727827 
L 327.22137 -404.791541 
L 327.297288 -400.855255 
L 327.427715 -396.918969 
L 327.510625 -392.982682 
L 327.504538 -389.046396 
L 327.510936 -385.11011 
L 327.54514 -381.173824 
L 327.563207 -377.237537 
L 327.611944 -373.301251 
L 327.650952 -369.364965 
L 327.643297 -365.428678 
L 327.76378 -361.492392 
L 327.949843 -357.556106 
L 328.077528 -353.61982 
L 328.294099 -349.683533 
L 328.618267 -345.747247 
L 328.96341 -341.810961 
L 329.306695 -337.874674 
L 329.678755 -333.938388 
L 330.386891 -330.002102 
L 331.634485 -326.065816 
L 333.143171 -322.129529 
L 335.017059 -318.193243 
L 337.985058 -314.256957 
L 342.305166 -310.32067 
L 347.58628 -306.384384 
L 353.279965 -302.448098 
L 358.869685 -298.511812 
L 363.808693 -294.575525 
L 366.603461 -290.639239 
L 365.542068 -286.702953 
L 360.934872 -282.766667 
L 353.674025 -278.83038 
L 345.185241 -274.894094 
L 337.637699 -270.957808 
L 332.388615 -267.021521 
L 329.530324 -263.085235 
L 328.127286 -259.148949 
L 327.394304 -255.212663 
L 327.050982 -251.276376 
L 326.946866 -247.34009 
z
" style="stroke: #494949"/>
    </defs>
    <g clip-path="url(#pbd369e4c89)">
     <use xlink:href="#mecaa0d8e8f" x="0" y="864" style="fill: #5f9e6e; stroke: #494949"/>
    </g>
   </g>
   <g id="FillBetweenPolyCollection_4">
    <defs>
     <path id="m91b76da80d" d="M 426.126744 -245.039706 
L 426.100552 -245.039706 
L 426.029738 -249.064433 
L 425.820742 -253.08916 
L 425.383647 -257.113887 
L 424.448983 -261.138613 
L 422.53158 -265.16334 
L 419.217762 -269.188067 
L 414.053848 -273.212794 
L 406.894096 -277.237521 
L 398.65839 -281.262248 
L 391.156931 -285.286975 
L 386.44019 -289.311702 
L 386.70038 -293.336428 
L 391.596655 -297.361155 
L 397.693074 -301.385882 
L 402.979107 -305.410609 
L 407.894102 -309.435336 
L 412.290741 -313.460063 
L 415.749577 -317.48479 
L 418.561353 -321.509516 
L 420.714731 -325.534243 
L 421.959016 -329.55897 
L 422.617009 -333.583697 
L 423.175609 -337.608424 
L 423.715652 -341.633151 
L 424.125346 -345.657878 
L 424.318319 -349.682605 
L 424.482303 -353.707331 
L 424.721063 -357.732058 
L 424.881867 -361.756785 
L 424.898703 -365.781512 
L 424.931164 -369.806239 
L 425.068888 -373.830966 
L 425.252615 -377.855693 
L 425.423024 -381.88042 
L 425.528564 -385.905146 
L 425.585095 -389.929873 
L 425.645262 -393.9546 
L 425.715805 -397.979327 
L 425.78285 -402.004054 
L 425.819211 -406.028781 
L 425.864119 -410.053508 
L 425.938806 -414.078235 
L 425.991328 -418.102961 
L 426.029683 -422.127688 
L 426.074513 -426.152415 
L 426.09728 -430.177142 
L 426.074967 -434.201869 
L 426.019703 -438.226596 
L 425.987138 -442.251323 
L 426.003065 -446.27605 
L 426.032864 -450.300776 
L 426.065436 -454.325503 
L 426.096023 -458.35023 
L 426.110528 -462.374957 
L 426.113411 -466.399684 
L 426.11364 -470.424411 
L 426.113647 -474.449138 
L 426.113648 -478.473865 
L 426.113648 -482.498591 
L 426.113648 -486.523318 
L 426.113646 -490.548045 
L 426.113595 -494.572772 
L 426.112651 -498.597499 
L 426.106279 -502.622226 
L 426.092411 -506.646953 
L 426.089787 -510.67168 
L 426.103196 -514.696406 
L 426.111863 -518.721133 
L 426.113529 -522.74586 
L 426.113644 -526.770587 
L 426.113648 -530.795314 
L 426.113648 -534.820041 
L 426.113648 -538.844768 
L 426.113648 -542.869495 
L 426.113648 -546.894221 
L 426.113648 -550.918948 
L 426.113648 -554.943675 
L 426.113648 -558.968402 
L 426.113648 -562.993129 
L 426.113648 -567.017856 
L 426.113648 -571.042583 
L 426.113648 -575.06731 
L 426.113648 -579.092036 
L 426.113648 -583.116763 
L 426.113648 -587.14149 
L 426.113645 -591.166217 
L 426.113533 -595.190944 
L 426.111906 -599.215671 
L 426.103343 -603.240398 
L 426.08988 -607.265125 
L 426.092275 -611.289851 
L 426.106155 -615.314578 
L 426.112607 -619.339305 
L 426.113157 -623.364032 
L 426.109308 -627.388759 
L 426.096815 -631.413486 
L 426.088185 -635.438213 
L 426.098632 -639.46294 
L 426.110196 -643.487666 
L 426.1171 -643.487666 
L 426.1171 -643.487666 
L 426.128663 -639.46294 
L 426.13911 -635.438213 
L 426.13048 -631.413486 
L 426.117987 -627.388759 
L 426.114138 -623.364032 
L 426.114688 -619.339305 
L 426.12114 -615.314578 
L 426.13502 -611.289851 
L 426.137415 -607.265125 
L 426.123952 -603.240398 
L 426.115389 -599.215671 
L 426.113762 -595.190944 
L 426.11365 -591.166217 
L 426.113648 -587.14149 
L 426.113648 -583.116763 
L 426.113648 -579.092036 
L 426.113648 -575.06731 
L 426.113648 -571.042583 
L 426.113648 -567.017856 
L 426.113648 -562.993129 
L 426.113648 -558.968402 
L 426.113648 -554.943675 
L 426.113648 -550.918948 
L 426.113648 -546.894221 
L 426.113648 -542.869495 
L 426.113648 -538.844768 
L 426.113648 -534.820041 
L 426.113648 -530.795314 
L 426.113651 -526.770587 
L 426.113766 -522.74586 
L 426.115432 -518.721133 
L 426.124099 -514.696406 
L 426.137508 -510.67168 
L 426.134885 -506.646953 
L 426.121016 -502.622226 
L 426.114644 -498.597499 
L 426.1137 -494.572772 
L 426.113649 -490.548045 
L 426.113648 -486.523318 
L 426.113648 -482.498591 
L 426.113648 -478.473865 
L 426.113648 -474.449138 
L 426.113655 -470.424411 
L 426.113884 -466.399684 
L 426.116767 -462.374957 
L 426.131272 -458.35023 
L 426.161859 -454.325503 
L 426.194431 -450.300776 
L 426.22423 -446.27605 
L 426.240157 -442.251323 
L 426.207592 -438.226596 
L 426.152328 -434.201869 
L 426.130015 -430.177142 
L 426.152783 -426.152415 
L 426.197613 -422.127688 
L 426.235967 -418.102961 
L 426.288489 -414.078235 
L 426.363176 -410.053508 
L 426.408084 -406.028781 
L 426.444445 -402.004054 
L 426.51149 -397.979327 
L 426.582033 -393.9546 
L 426.6422 -389.929873 
L 426.698731 -385.905146 
L 426.804272 -381.88042 
L 426.97468 -377.855693 
L 427.158407 -373.830966 
L 427.296131 -369.806239 
L 427.328592 -365.781512 
L 427.345428 -361.756785 
L 427.506232 -357.732058 
L 427.744992 -353.707331 
L 427.908977 -349.682605 
L 428.101949 -345.657878 
L 428.511643 -341.633151 
L 429.051686 -337.608424 
L 429.610286 -333.583697 
L 430.268279 -329.55897 
L 431.512564 -325.534243 
L 433.665942 -321.509516 
L 436.477718 -317.48479 
L 439.936554 -313.460063 
L 444.333193 -309.435336 
L 449.248188 -305.410609 
L 454.534221 -301.385882 
L 460.63064 -297.361155 
L 465.526915 -293.336428 
L 465.787105 -289.311702 
L 461.070364 -285.286975 
L 453.568905 -281.262248 
L 445.333199 -277.237521 
L 438.173447 -273.212794 
L 433.009533 -269.188067 
L 429.695715 -265.16334 
L 427.778312 -261.138613 
L 426.843648 -257.113887 
L 426.406553 -253.08916 
L 426.197557 -249.064433 
L 426.126744 -245.039706 
z
" style="stroke: #494949"/>
    </defs>
    <g clip-path="url(#pbd369e4c89)">
     <use xlink:href="#m91b76da80d" x="0" y="864" style="fill: #b55d60; stroke: #494949"/>
    </g>
   </g>
   <g id="FillBetweenPolyCollection_5">
    <defs>
     <path id="m5831ac0ff0" d="M 525.302967 -239.097569 
L 525.291617 -239.097569 
L 525.265679 -243.332704 
L 525.16344 -247.567839 
L 524.858888 -251.802974 
L 524.165174 -256.038108 
L 522.85093 -260.273243 
L 520.580145 -264.508378 
L 516.996069 -268.743513 
L 511.99711 -272.978647 
L 505.92572 -277.213782 
L 499.539729 -281.448917 
L 493.583248 -285.684052 
L 488.683584 -289.919186 
L 485.768943 -294.154321 
L 485.623834 -298.389456 
L 488.015103 -302.624591 
L 491.981529 -306.859725 
L 496.624208 -311.09486 
L 501.312019 -315.329995 
L 505.646155 -319.56513 
L 509.519669 -323.800264 
L 512.946201 -328.035399 
L 515.793248 -332.270534 
L 517.985331 -336.505669 
L 519.647661 -340.740803 
L 520.859923 -344.975938 
L 521.662604 -349.211073 
L 522.20917 -353.446208 
L 522.660138 -357.681342 
L 523.094695 -361.916477 
L 523.479781 -366.151612 
L 523.740444 -370.386747 
L 523.891501 -374.621881 
L 523.967679 -378.857016 
L 524.010188 -383.092151 
L 524.070915 -387.327286 
L 524.135783 -391.56242 
L 524.208596 -395.797555 
L 524.33869 -400.03269 
L 524.499707 -404.267825 
L 524.594209 -408.502959 
L 524.597157 -412.738094 
L 524.587418 -416.973229 
L 524.641291 -421.208364 
L 524.749792 -425.443498 
L 524.846048 -429.678633 
L 524.883243 -433.913768 
L 524.885164 -438.148903 
L 524.907774 -442.384037 
L 524.97125 -446.619172 
L 525.039765 -450.854307 
L 525.064182 -455.089441 
L 525.039563 -459.324576 
L 524.9914 -463.559711 
L 524.961902 -467.794846 
L 524.979071 -472.02998 
L 525.028019 -476.265115 
L 525.093021 -480.50025 
L 525.149408 -484.735385 
L 525.170357 -488.970519 
L 525.167144 -493.205654 
L 525.167121 -497.440789 
L 525.185865 -501.675924 
L 525.220497 -505.911058 
L 525.254709 -510.146193 
L 525.270526 -514.381328 
L 525.257971 -518.616463 
L 525.228971 -522.851597 
L 525.213326 -527.086732 
L 525.226329 -531.321867 
L 525.255713 -535.557002 
L 525.280969 -539.792136 
L 525.293224 -544.027271 
L 525.29665 -548.262406 
L 525.296903 -552.497541 
L 525.29499 -556.732675 
L 525.28831 -560.96781 
L 525.277374 -565.202945 
L 525.272223 -569.43808 
L 525.279385 -573.673214 
L 525.290033 -577.908349 
L 525.295622 -582.143484 
L 525.297074 -586.378619 
L 525.297276 -590.613753 
L 525.297291 -594.848888 
L 525.297284 -599.084023 
L 525.297171 -603.319158 
L 525.296228 -607.554292 
L 525.291973 -611.789427 
L 525.282187 -616.024562 
L 525.272821 -620.259697 
L 525.273759 -624.494831 
L 525.279533 -628.729966 
L 525.27652 -632.965101 
L 525.266672 -637.200236 
L 525.260861 -641.43537 
L 525.262578 -645.670505 
L 525.272172 -649.90564 
L 525.285295 -654.140775 
L 525.29385 -658.375909 
L 525.300734 -658.375909 
L 525.300734 -658.375909 
L 525.309289 -654.140775 
L 525.322412 -649.90564 
L 525.332006 -645.670505 
L 525.333723 -641.43537 
L 525.327912 -637.200236 
L 525.318064 -632.965101 
L 525.315051 -628.729966 
L 525.320825 -624.494831 
L 525.321762 -620.259697 
L 525.312397 -616.024562 
L 525.30261 -611.789427 
L 525.298355 -607.554292 
L 525.297413 -603.319158 
L 525.2973 -599.084023 
L 525.297293 -594.848888 
L 525.297308 -590.613753 
L 525.29751 -586.378619 
L 525.298962 -582.143484 
L 525.304551 -577.908349 
L 525.315198 -573.673214 
L 525.32236 -569.43808 
L 525.31721 -565.202945 
L 525.306274 -560.96781 
L 525.299593 -556.732675 
L 525.29768 -552.497541 
L 525.297934 -548.262406 
L 525.30136 -544.027271 
L 525.313615 -539.792136 
L 525.33887 -535.557002 
L 525.368255 -531.321867 
L 525.381258 -527.086732 
L 525.365613 -522.851597 
L 525.336613 -518.616463 
L 525.324058 -514.381328 
L 525.339874 -510.146193 
L 525.374087 -505.911058 
L 525.408718 -501.675924 
L 525.427463 -497.440789 
L 525.42744 -493.205654 
L 525.424226 -488.970519 
L 525.445176 -484.735385 
L 525.501563 -480.50025 
L 525.566565 -476.265115 
L 525.615513 -472.02998 
L 525.632682 -467.794846 
L 525.603184 -463.559711 
L 525.555021 -459.324576 
L 525.530402 -455.089441 
L 525.554819 -450.854307 
L 525.623333 -446.619172 
L 525.68681 -442.384037 
L 525.709419 -438.148903 
L 525.71134 -433.913768 
L 525.748536 -429.678633 
L 525.844792 -425.443498 
L 525.953293 -421.208364 
L 526.007165 -416.973229 
L 525.997427 -412.738094 
L 526.000374 -408.502959 
L 526.094877 -404.267825 
L 526.255894 -400.03269 
L 526.385988 -395.797555 
L 526.458801 -391.56242 
L 526.523669 -387.327286 
L 526.584396 -383.092151 
L 526.626905 -378.857016 
L 526.703083 -374.621881 
L 526.854139 -370.386747 
L 527.114803 -366.151612 
L 527.499888 -361.916477 
L 527.934446 -357.681342 
L 528.385414 -353.446208 
L 528.931979 -349.211073 
L 529.73466 -344.975938 
L 530.946923 -340.740803 
L 532.609253 -336.505669 
L 534.801335 -332.270534 
L 537.648383 -328.035399 
L 541.074915 -323.800264 
L 544.948429 -319.56513 
L 549.282565 -315.329995 
L 553.970376 -311.09486 
L 558.613055 -306.859725 
L 562.579481 -302.624591 
L 564.97075 -298.389456 
L 564.825641 -294.154321 
L 561.910999 -289.919186 
L 557.011336 -285.684052 
L 551.054855 -281.448917 
L 544.668863 -277.213782 
L 538.597474 -272.978647 
L 533.598514 -268.743513 
L 530.014439 -264.508378 
L 527.743654 -260.273243 
L 526.42941 -256.038108 
L 525.735696 -251.802974 
L 525.431143 -247.567839 
L 525.328905 -243.332704 
L 525.302967 -239.097569 
z
" style="stroke: #494949"/>
    </defs>
    <g clip-path="url(#pbd369e4c89)">
     <use xlink:href="#m5831ac0ff0" x="0" y="864" style="fill: #857aab; stroke: #494949"/>
    </g>
   </g>
   <g id="FillBetweenPolyCollection_6">
    <defs>
     <path id="m27b509d3dd" d="M 624.490354 -250.812378 
L 624.471519 -250.812378 
L 624.444791 -252.767881 
L 624.364725 -254.723384 
L 624.164842 -256.678887 
L 623.748086 -258.634391 
L 623.01549 -260.589894 
L 621.897959 -262.545397 
L 620.337328 -264.5009 
L 618.22742 -266.456403 
L 615.432978 -268.411906 
L 611.932648 -270.367409 
L 607.91071 -272.322912 
L 603.652348 -274.278415 
L 599.390088 -276.233918 
L 595.282663 -278.189421 
L 591.480128 -280.144925 
L 588.204544 -282.100428 
L 585.829212 -284.055931 
L 584.807478 -286.011434 
L 585.380742 -287.966937 
L 587.36221 -289.92244 
L 590.261578 -291.877943 
L 593.564589 -293.833446 
L 596.87687 -295.788949 
L 599.953152 -297.744452 
L 602.727933 -299.699955 
L 605.284776 -301.655459 
L 607.735091 -303.610962 
L 610.129674 -305.566465 
L 612.440272 -307.521968 
L 614.566495 -309.477471 
L 616.395513 -311.432974 
L 617.892785 -313.388477 
L 619.115252 -315.34398 
L 620.136802 -317.299483 
L 620.984524 -319.254986 
L 621.645087 -321.210489 
L 622.11193 -323.165992 
L 622.416378 -325.121496 
L 622.62202 -327.076999 
L 622.796618 -329.032502 
L 622.980184 -330.988005 
L 623.16884 -332.943508 
L 623.330742 -334.899011 
L 623.442157 -336.854514 
L 623.50714 -338.810017 
L 623.543668 -340.76552 
L 623.56265 -342.721023 
L 623.57333 -344.676526 
L 623.598896 -346.63203 
L 623.661077 -348.587533 
L 623.752371 -350.543036 
L 623.8448 -352.498539 
L 623.918366 -354.454042 
L 623.965056 -356.409545 
L 623.981188 -358.365048 
L 623.973673 -360.320551 
L 623.95935 -362.276054 
L 623.948464 -364.231557 
L 623.94464 -366.18706 
L 623.958517 -368.142563 
L 623.998747 -370.098067 
L 624.051688 -372.05357 
L 624.086712 -374.009073 
L 624.080917 -375.964576 
L 624.036185 -377.920079 
L 623.979313 -379.875582 
L 623.943969 -381.831085 
L 623.946802 -383.786588 
L 623.983044 -385.742091 
L 624.038838 -387.697594 
L 624.098275 -389.653097 
L 624.145613 -391.608601 
L 624.170877 -393.564104 
L 624.174529 -395.519607 
L 624.166236 -397.47511 
L 624.158503 -399.430613 
L 624.159165 -401.386116 
L 624.168298 -403.341619 
L 624.182231 -405.297122 
L 624.199599 -407.252625 
L 624.221137 -409.208128 
L 624.245361 -411.163631 
L 624.269688 -413.119134 
L 624.294201 -415.074638 
L 624.319598 -417.030141 
L 624.343326 -418.985644 
L 624.360121 -420.941147 
L 624.36561 -422.89665 
L 624.360191 -424.852153 
L 624.350733 -426.807656 
L 624.347929 -428.763159 
L 624.359421 -430.718662 
L 624.383191 -432.674165 
L 624.409579 -434.629668 
L 624.431248 -436.585172 
L 624.447935 -438.540675 
L 624.461465 -440.496178 
L 624.471535 -442.451681 
L 624.477412 -444.407184 
L 624.484461 -444.407184 
L 624.484461 -444.407184 
L 624.490337 -442.451681 
L 624.500408 -440.496178 
L 624.513938 -438.540675 
L 624.530624 -436.585172 
L 624.552294 -434.629668 
L 624.578682 -432.674165 
L 624.602452 -430.718662 
L 624.613943 -428.763159 
L 624.611139 -426.807656 
L 624.601681 -424.852153 
L 624.596263 -422.89665 
L 624.601751 -420.941147 
L 624.618547 -418.985644 
L 624.642274 -417.030141 
L 624.667671 -415.074638 
L 624.692184 -413.119134 
L 624.716511 -411.163631 
L 624.740736 -409.208128 
L 624.762273 -407.252625 
L 624.779641 -405.297122 
L 624.793574 -403.341619 
L 624.802707 -401.386116 
L 624.803369 -399.430613 
L 624.795636 -397.47511 
L 624.787343 -395.519607 
L 624.790995 -393.564104 
L 624.816259 -391.608601 
L 624.863598 -389.653097 
L 624.923035 -387.697594 
L 624.978828 -385.742091 
L 625.01507 -383.786588 
L 625.017903 -381.831085 
L 624.982559 -379.875582 
L 624.925688 -377.920079 
L 624.880955 -375.964576 
L 624.87516 -374.009073 
L 624.910184 -372.05357 
L 624.963126 -370.098067 
L 625.003355 -368.142563 
L 625.017232 -366.18706 
L 625.013408 -364.231557 
L 625.002523 -362.276054 
L 624.988199 -360.320551 
L 624.980685 -358.365048 
L 624.996816 -356.409545 
L 625.043506 -354.454042 
L 625.117072 -352.498539 
L 625.209501 -350.543036 
L 625.300795 -348.587533 
L 625.362977 -346.63203 
L 625.388542 -344.676526 
L 625.399223 -342.721023 
L 625.418205 -340.76552 
L 625.454733 -338.810017 
L 625.519715 -336.854514 
L 625.631131 -334.899011 
L 625.793032 -332.943508 
L 625.981688 -330.988005 
L 626.165255 -329.032502 
L 626.339852 -327.076999 
L 626.545494 -325.121496 
L 626.849942 -323.165992 
L 627.316785 -321.210489 
L 627.977349 -319.254986 
L 628.825071 -317.299483 
L 629.84662 -315.34398 
L 631.069088 -313.388477 
L 632.566359 -311.432974 
L 634.395377 -309.477471 
L 636.521601 -307.521968 
L 638.832199 -305.566465 
L 641.226782 -303.610962 
L 643.677096 -301.655459 
L 646.233939 -299.699955 
L 649.00872 -297.744452 
L 652.085002 -295.788949 
L 655.397283 -293.833446 
L 658.700294 -291.877943 
L 661.599663 -289.92244 
L 663.58113 -287.966937 
L 664.154394 -286.011434 
L 663.132661 -284.055931 
L 660.757329 -282.100428 
L 657.481745 -280.144925 
L 653.679209 -278.189421 
L 649.571785 -276.233918 
L 645.309524 -274.278415 
L 641.051163 -272.322912 
L 637.029224 -270.367409 
L 633.528894 -268.411906 
L 630.734453 -266.456403 
L 628.624545 -264.5009 
L 627.063913 -262.545397 
L 625.946382 -260.589894 
L 625.213787 -258.634391 
L 624.79703 -256.678887 
L 624.597147 -254.723384 
L 624.517081 -252.767881 
L 624.490354 -250.812378 
z
" style="stroke: #494949"/>
    </defs>
    <g clip-path="url(#pbd369e4c89)">
     <use xlink:href="#m27b509d3dd" x="0" y="864" style="fill: #8d7866; stroke: #494949"/>
    </g>
   </g>
   <g id="line2d_10">
    <path d="M 128.562715 607.880636 
L 128.562715 552.070737 
" clip-path="url(#pbd369e4c89)" style="fill: none; stroke: #494949; stroke-width: 1.5; stroke-linecap: round"/>
   </g>
   <g id="line2d_11">
    <path d="M 128.562715 587.072675 
L 128.562715 573.06848 
" clip-path="url(#pbd369e4c89)" style="fill: none; stroke: #494949; stroke-width: 4.5; stroke-linecap: round"/>
   </g>
   <g id="line2d_12">
    <path d="M 128.562715 580.870387 
" clip-path="url(#pbd369e4c89)" style="fill: none; stroke: #494949; stroke-width: 1.2; stroke-linecap: round"/>
    <defs>
     <path id="m7efba7d098" d="M 1.875 0 
L -1.875 -0 
" style="stroke: #ffffff; stroke-width: 0.9"/>
    </defs>
    <g clip-path="url(#pbd369e4c89)">
     <use xlink:href="#m7efba7d098" x="128.562715" y="580.870387" style="fill: #ffffff; stroke: #ffffff; stroke-width: 0.9"/>
    </g>
   </g>
   <g id="line2d_13">
    <path d="M 227.746359 612.533584 
L 227.746359 528.104337 
" clip-path="url(#pbd369e4c89)" style="fill: none; stroke: #494949; stroke-width: 1.5; stroke-linecap: round"/>
   </g>
   <g id="line2d_14">
    <path d="M 227.746359 581.578351 
L 227.746359 560.1844 
" clip-path="url(#pbd369e4c89)" style="fill: none; stroke: #494949; stroke-width: 4.5; stroke-linecap: round"/>
   </g>
   <g id="line2d_15">
    <path d="M 227.746359 571.786741 
" clip-path="url(#pbd369e4c89)" style="fill: none; stroke: #494949; stroke-width: 1.2; stroke-linecap: round"/>
    <g clip-path="url(#pbd369e4c89)">
     <use xlink:href="#m7efba7d098" x="227.746359" y="571.786741" style="fill: #ffffff; stroke: #ffffff; stroke-width: 0.9"/>
    </g>
   </g>
   <g id="line2d_16">
    <path d="M 326.930003 608.60588 
L 326.930003 530.393398 
" clip-path="url(#pbd369e4c89)" style="fill: none; stroke: #494949; stroke-width: 1.5; stroke-linecap: round"/>
   </g>
   <g id="line2d_17">
    <path d="M 326.930003 580.011187 
L 326.930003 560.13865 
" clip-path="url(#pbd369e4c89)" style="fill: none; stroke: #494949; stroke-width: 4.5; stroke-linecap: round"/>
   </g>
   <g id="line2d_18">
    <path d="M 326.930003 571.187728 
" clip-path="url(#pbd369e4c89)" style="fill: none; stroke: #494949; stroke-width: 1.2; stroke-linecap: round"/>
    <g clip-path="url(#pbd369e4c89)">
     <use xlink:href="#m7efba7d098" x="326.930003" y="571.187728" style="fill: #ffffff; stroke: #ffffff; stroke-width: 0.9"/>
    </g>
   </g>
   <g id="line2d_19">
    <path d="M 426.113648 608.797137 
L 426.113648 526.949327 
" clip-path="url(#pbd369e4c89)" style="fill: none; stroke: #494949; stroke-width: 1.5; stroke-linecap: round"/>
   </g>
   <g id="line2d_20">
    <path d="M 426.113648 578.290424 
L 426.113648 557.728839 
" clip-path="url(#pbd369e4c89)" style="fill: none; stroke: #494949; stroke-width: 4.5; stroke-linecap: round"/>
   </g>
   <g id="line2d_21">
    <path d="M 426.113648 569.705391 
" clip-path="url(#pbd369e4c89)" style="fill: none; stroke: #494949; stroke-width: 1.2; stroke-linecap: round"/>
    <g clip-path="url(#pbd369e4c89)">
     <use xlink:href="#m7efba7d098" x="426.113648" y="569.705391" style="fill: #ffffff; stroke: #ffffff; stroke-width: 0.9"/>
    </g>
   </g>
   <g id="line2d_22">
    <path d="M 525.297292 613.648046 
L 525.297292 508.680229 
" clip-path="url(#pbd369e4c89)" style="fill: none; stroke: #494949; stroke-width: 1.5; stroke-linecap: round"/>
   </g>
   <g id="line2d_23">
    <path d="M 525.297292 574.924888 
L 525.297292 548.423966 
" clip-path="url(#pbd369e4c89)" style="fill: none; stroke: #494949; stroke-width: 4.5; stroke-linecap: round"/>
   </g>
   <g id="line2d_24">
    <path d="M 525.297292 563.387027 
" clip-path="url(#pbd369e4c89)" style="fill: none; stroke: #494949; stroke-width: 1.2; stroke-linecap: round"/>
    <g clip-path="url(#pbd369e4c89)">
     <use xlink:href="#m7efba7d098" x="525.297292" y="563.387027" style="fill: #ffffff; stroke: #ffffff; stroke-width: 0.9"/>
    </g>
   </g>
   <g id="line2d_25">
    <path d="M 624.480936 606.038729 
L 624.480936 539.774189 
" clip-path="url(#pbd369e4c89)" style="fill: none; stroke: #494949; stroke-width: 1.5; stroke-linecap: round"/>
   </g>
   <g id="line2d_26">
    <path d="M 624.480936 582.844801 
L 624.480936 565.506412 
" clip-path="url(#pbd369e4c89)" style="fill: none; stroke: #494949; stroke-width: 4.5; stroke-linecap: round"/>
   </g>
   <g id="line2d_27">
    <path d="M 624.480936 575.306507 
" clip-path="url(#pbd369e4c89)" style="fill: none; stroke: #494949; stroke-width: 1.2; stroke-linecap: round"/>
    <g clip-path="url(#pbd369e4c89)">
     <use xlink:href="#m7efba7d098" x="624.480936" y="575.306507" style="fill: #ffffff; stroke: #ffffff; stroke-width: 0.9"/>
    </g>
   </g>
   <g id="line2d_28">
    <path d="M 128.562715 500.431966 
L 128.562715 491.207843 
L 227.746359 491.207843 
L 227.746359 500.431966 
" style="fill: none; stroke: #333333; stroke-width: 1.5; stroke-linecap: round"/>
   </g>
   <g id="line2d_29">
    <path d="M 227.746359 465.862578 
L 227.746359 456.638455 
L 326.930003 456.638455 
L 326.930003 465.862578 
" style="fill: none; stroke: #333333; stroke-width: 1.5; stroke-linecap: round"/>
   </g>
   <g id="line2d_30">
    <path d="M 326.930003 431.29319 
L 326.930003 422.069066 
L 426.113648 422.069066 
L 426.113648 431.29319 
" style="fill: none; stroke: #333333; stroke-width: 1.5; stroke-linecap: round"/>
   </g>
   <g id="line2d_31">
    <path d="M 426.113648 396.723802 
L 426.113648 387.499678 
L 525.297292 387.499678 
L 525.297292 396.723802 
" style="fill: none; stroke: #333333; stroke-width: 1.5; stroke-linecap: round"/>
   </g>
   <g id="line2d_32">
    <path d="M 525.297292 362.154413 
L 525.297292 352.93029 
L 624.480936 352.93029 
L 624.480936 362.154413 
" style="fill: none; stroke: #333333; stroke-width: 1.5; stroke-linecap: round"/>
   </g>
   <g id="line2d_33">
    <path d="M 128.562715 396.723802 
L 128.562715 387.499678 
L 326.930003 387.499678 
L 326.930003 396.723802 
" style="fill: none; stroke: #333333; stroke-width: 1.5; stroke-linecap: round"/>
   </g>
   <g id="line2d_34">
    <path d="M 227.746359 362.154413 
L 227.746359 352.93029 
L 426.113648 352.93029 
L 426.113648 362.154413 
" style="fill: none; stroke: #333333; stroke-width: 1.5; stroke-linecap: round"/>
   </g>
   <g id="line2d_35">
    <path d="M 326.930003 327.585025 
L 326.930003 318.360902 
L 525.297292 318.360902 
L 525.297292 327.585025 
" style="fill: none; stroke: #333333; stroke-width: 1.5; stroke-linecap: round"/>
   </g>
   <g id="line2d_36">
    <path d="M 426.113648 293.015637 
L 426.113648 283.791513 
L 624.480936 283.791513 
L 624.480936 293.015637 
" style="fill: none; stroke: #333333; stroke-width: 1.5; stroke-linecap: round"/>
   </g>
   <g id="line2d_37">
    <path d="M 128.562715 258.446249 
L 128.562715 249.222125 
L 426.113648 249.222125 
L 426.113648 258.446249 
" style="fill: none; stroke: #333333; stroke-width: 1.5; stroke-linecap: round"/>
   </g>
   <g id="line2d_38">
    <path d="M 227.746359 223.876861 
L 227.746359 214.652737 
L 525.297292 214.652737 
L 525.297292 223.876861 
" style="fill: none; stroke: #333333; stroke-width: 1.5; stroke-linecap: round"/>
   </g>
   <g id="line2d_39">
    <path d="M 326.930003 189.307472 
L 326.930003 180.083349 
L 624.480936 180.083349 
L 624.480936 189.307472 
" style="fill: none; stroke: #333333; stroke-width: 1.5; stroke-linecap: round"/>
   </g>
   <g id="line2d_40">
    <path d="M 128.562715 154.738084 
L 128.562715 145.513961 
L 525.297292 145.513961 
L 525.297292 154.738084 
" style="fill: none; stroke: #333333; stroke-width: 1.5; stroke-linecap: round"/>
   </g>
   <g id="line2d_41">
    <path d="M 227.746359 120.168696 
L 227.746359 110.944572 
L 624.480936 110.944572 
L 624.480936 120.168696 
" style="fill: none; stroke: #333333; stroke-width: 1.5; stroke-linecap: round"/>
   </g>
   <g id="line2d_42">
    <path d="M 128.562715 85.599308 
L 128.562715 76.375184 
L 624.480936 76.375184 
L 624.480936 85.599308 
" style="fill: none; stroke: #333333; stroke-width: 1.5; stroke-linecap: round"/>
   </g>
   <g id="patch_3">
    <path d="M 60.126 645.866348 
L 60.126 40.416 
" style="fill: none; stroke: #cccccc; stroke-linejoin: miter; stroke-linecap: square"/>
   </g>
   <g id="patch_4">
    <path d="M 692.917651 645.866348 
L 692.917651 40.416 
" style="fill: none; stroke: #cccccc; stroke-linejoin: miter; stroke-linecap: square"/>
   </g>
   <g id="patch_5">
    <path d="M 60.126 645.866348 
L 692.917651 645.866348 
" style="fill: none; stroke: #cccccc; stroke-linejoin: miter; stroke-linecap: square"/>
   </g>
   <g id="patch_6">
    <path d="M 60.126 40.416 
L 692.917651 40.416 
" style="fill: none; stroke: #cccccc; stroke-linejoin: miter; stroke-linecap: square"/>
   </g>
   <g id="text_18">
    <!-- **** -->
    <g style="fill: #262626" transform="translate(163.208537 486.391843) scale(0.192 -0.192)">
     <defs>
      <path id="ArialMT-2a" d="M 200 3741 
L 344 4184 
Q 841 4009 1066 3881 
Q 1006 4447 1003 4659 
L 1456 4659 
Q 1447 4350 1384 3884 
Q 1706 4047 2122 4184 
L 2266 3741 
Q 1869 3609 1488 3566 
Q 1678 3400 2025 2975 
L 1650 2709 
Q 1469 2956 1222 3381 
Q 991 2941 816 2709 
L 447 2975 
Q 809 3422 966 3566 
Q 563 3644 200 3741 
z
" transform="scale(0.015625)"/>
     </defs>
     <use xlink:href="#ArialMT-2a"/>
     <use xlink:href="#ArialMT-2a" transform="translate(38.916016 0)"/>
     <use xlink:href="#ArialMT-2a" transform="translate(77.832031 0)"/>
     <use xlink:href="#ArialMT-2a" transform="translate(116.748047 0)"/>
    </g>
   </g>
   <g id="text_19">
    <!-- *** -->
    <g style="fill: #262626" transform="translate(266.128681 451.822455) scale(0.192 -0.192)">
     <use xlink:href="#ArialMT-2a"/>
     <use xlink:href="#ArialMT-2a" transform="translate(38.916016 0)"/>
     <use xlink:href="#ArialMT-2a" transform="translate(77.832031 0)"/>
    </g>
   </g>
   <g id="text_20">
    <!-- **** -->
    <g style="fill: #262626" transform="translate(361.575825 417.253066) scale(0.192 -0.192)">
     <use xlink:href="#ArialMT-2a"/>
     <use xlink:href="#ArialMT-2a" transform="translate(38.916016 0)"/>
     <use xlink:href="#ArialMT-2a" transform="translate(77.832031 0)"/>
     <use xlink:href="#ArialMT-2a" transform="translate(116.748047 0)"/>
    </g>
   </g>
   <g id="text_21">
    <!-- **** -->
    <g style="fill: #262626" transform="translate(460.75947 382.683678) scale(0.192 -0.192)">
     <use xlink:href="#ArialMT-2a"/>
     <use xlink:href="#ArialMT-2a" transform="translate(38.916016 0)"/>
     <use xlink:href="#ArialMT-2a" transform="translate(77.832031 0)"/>
     <use xlink:href="#ArialMT-2a" transform="translate(116.748047 0)"/>
    </g>
   </g>
   <g id="text_22">
    <!-- **** -->
    <g style="fill: #262626" transform="translate(559.943114 348.11429) scale(0.192 -0.192)">
     <use xlink:href="#ArialMT-2a"/>
     <use xlink:href="#ArialMT-2a" transform="translate(38.916016 0)"/>
     <use xlink:href="#ArialMT-2a" transform="translate(77.832031 0)"/>
     <use xlink:href="#ArialMT-2a" transform="translate(116.748047 0)"/>
    </g>
   </g>
   <g id="text_23">
    <!-- **** -->
    <g style="fill: #262626" transform="translate(212.800359 382.683678) scale(0.192 -0.192)">
     <use xlink:href="#ArialMT-2a"/>
     <use xlink:href="#ArialMT-2a" transform="translate(38.916016 0)"/>
     <use xlink:href="#ArialMT-2a" transform="translate(77.832031 0)"/>
     <use xlink:href="#ArialMT-2a" transform="translate(116.748047 0)"/>
    </g>
   </g>
   <g id="text_24">
    <!-- **** -->
    <g style="fill: #262626" transform="translate(311.984003 348.11429) scale(0.192 -0.192)">
     <use xlink:href="#ArialMT-2a"/>
     <use xlink:href="#ArialMT-2a" transform="translate(38.916016 0)"/>
     <use xlink:href="#ArialMT-2a" transform="translate(77.832031 0)"/>
     <use xlink:href="#ArialMT-2a" transform="translate(116.748047 0)"/>
    </g>
   </g>
   <g id="text_25">
    <!-- **** -->
    <g style="fill: #262626" transform="translate(411.167648 313.544902) scale(0.192 -0.192)">
     <use xlink:href="#ArialMT-2a"/>
     <use xlink:href="#ArialMT-2a" transform="translate(38.916016 0)"/>
     <use xlink:href="#ArialMT-2a" transform="translate(77.832031 0)"/>
     <use xlink:href="#ArialMT-2a" transform="translate(116.748047 0)"/>
    </g>
   </g>
   <g id="text_26">
    <!-- **** -->
    <g style="fill: #262626" transform="translate(510.351292 278.975513) scale(0.192 -0.192)">
     <use xlink:href="#ArialMT-2a"/>
     <use xlink:href="#ArialMT-2a" transform="translate(38.916016 0)"/>
     <use xlink:href="#ArialMT-2a" transform="translate(77.832031 0)"/>
     <use xlink:href="#ArialMT-2a" transform="translate(116.748047 0)"/>
    </g>
   </g>
   <g id="text_27">
    <!-- **** -->
    <g style="fill: #262626" transform="translate(262.392181 244.406125) scale(0.192 -0.192)">
     <use xlink:href="#ArialMT-2a"/>
     <use xlink:href="#ArialMT-2a" transform="translate(38.916016 0)"/>
     <use xlink:href="#ArialMT-2a" transform="translate(77.832031 0)"/>
     <use xlink:href="#ArialMT-2a" transform="translate(116.748047 0)"/>
    </g>
   </g>
   <g id="text_28">
    <!-- **** -->
    <g style="fill: #262626" transform="translate(361.575825 209.836737) scale(0.192 -0.192)">
     <use xlink:href="#ArialMT-2a"/>
     <use xlink:href="#ArialMT-2a" transform="translate(38.916016 0)"/>
     <use xlink:href="#ArialMT-2a" transform="translate(77.832031 0)"/>
     <use xlink:href="#ArialMT-2a" transform="translate(116.748047 0)"/>
    </g>
   </g>
   <g id="text_29">
    <!-- **** -->
    <g style="fill: #262626" transform="translate(460.75947 175.267349) scale(0.192 -0.192)">
     <use xlink:href="#ArialMT-2a"/>
     <use xlink:href="#ArialMT-2a" transform="translate(38.916016 0)"/>
     <use xlink:href="#ArialMT-2a" transform="translate(77.832031 0)"/>
     <use xlink:href="#ArialMT-2a" transform="translate(116.748047 0)"/>
    </g>
   </g>
   <g id="text_30">
    <!-- **** -->
    <g style="fill: #262626" transform="translate(311.984003 140.697961) scale(0.192 -0.192)">
     <use xlink:href="#ArialMT-2a"/>
     <use xlink:href="#ArialMT-2a" transform="translate(38.916016 0)"/>
     <use xlink:href="#ArialMT-2a" transform="translate(77.832031 0)"/>
     <use xlink:href="#ArialMT-2a" transform="translate(116.748047 0)"/>
    </g>
   </g>
   <g id="text_31">
    <!-- **** -->
    <g style="fill: #262626" transform="translate(411.167648 106.128572) scale(0.192 -0.192)">
     <use xlink:href="#ArialMT-2a"/>
     <use xlink:href="#ArialMT-2a" transform="translate(38.916016 0)"/>
     <use xlink:href="#ArialMT-2a" transform="translate(77.832031 0)"/>
     <use xlink:href="#ArialMT-2a" transform="translate(116.748047 0)"/>
    </g>
   </g>
   <g id="text_32">
    <!-- **** -->
    <g style="fill: #262626" transform="translate(361.575825 71.559184) scale(0.192 -0.192)">
     <use xlink:href="#ArialMT-2a"/>
     <use xlink:href="#ArialMT-2a" transform="translate(38.916016 0)"/>
     <use xlink:href="#ArialMT-2a" transform="translate(77.832031 0)"/>
     <use xlink:href="#ArialMT-2a" transform="translate(116.748047 0)"/>
    </g>
   </g>
   <g id="text_33">
    <!-- Ranked RMSE per Fold per Target -->
    <g style="fill: #262626" transform="translate(229.436325 34.416) scale(0.192 -0.192)">
     <defs>
      <path id="ArialMT-6b" d="M 425 0 
L 425 4581 
L 988 4581 
L 988 1969 
L 2319 3319 
L 3047 3319 
L 1778 2088 
L 3175 0 
L 2481 0 
L 1384 1697 
L 988 1316 
L 988 0 
L 425 0 
z
" transform="scale(0.015625)"/>
      <path id="ArialMT-20" transform="scale(0.015625)"/>
      <path id="ArialMT-54" d="M 1659 0 
L 1659 4041 
L 150 4041 
L 150 4581 
L 3781 4581 
L 3781 4041 
L 2266 4041 
L 2266 0 
L 1659 0 
z
" transform="scale(0.015625)"/>
     </defs>
     <use xlink:href="#ArialMT-52"/>
     <use xlink:href="#ArialMT-61" transform="translate(72.216797 0)"/>
     <use xlink:href="#ArialMT-6e" transform="translate(127.832031 0)"/>
     <use xlink:href="#ArialMT-6b" transform="translate(183.447266 0)"/>
     <use xlink:href="#ArialMT-65" transform="translate(233.447266 0)"/>
     <use xlink:href="#ArialMT-64" transform="translate(289.0625 0)"/>
     <use xlink:href="#ArialMT-20" transform="translate(344.677734 0)"/>
     <use xlink:href="#ArialMT-52" transform="translate(372.460938 0)"/>
     <use xlink:href="#ArialMT-4d" transform="translate(444.677734 0)"/>
     <use xlink:href="#ArialMT-53" transform="translate(527.978516 0)"/>
     <use xlink:href="#ArialMT-45" transform="translate(594.677734 0)"/>
     <use xlink:href="#ArialMT-20" transform="translate(661.376953 0)"/>
     <use xlink:href="#ArialMT-70" transform="translate(689.160156 0)"/>
     <use xlink:href="#ArialMT-65" transform="translate(744.775391 0)"/>
     <use xlink:href="#ArialMT-72" transform="translate(800.390625 0)"/>
     <use xlink:href="#ArialMT-20" transform="translate(833.691406 0)"/>
     <use xlink:href="#ArialMT-46" transform="translate(861.474609 0)"/>
     <use xlink:href="#ArialMT-6f" transform="translate(922.558594 0)"/>
     <use xlink:href="#ArialMT-6c" transform="translate(978.173828 0)"/>
     <use xlink:href="#ArialMT-64" transform="translate(1000.390625 0)"/>
     <use xlink:href="#ArialMT-20" transform="translate(1056.005859 0)"/>
     <use xlink:href="#ArialMT-70" transform="translate(1083.789062 0)"/>
     <use xlink:href="#ArialMT-65" transform="translate(1139.404297 0)"/>
     <use xlink:href="#ArialMT-72" transform="translate(1195.019531 0)"/>
     <use xlink:href="#ArialMT-20" transform="translate(1228.320312 0)"/>
     <use xlink:href="#ArialMT-54" transform="translate(1254.353516 0)"/>
     <use xlink:href="#ArialMT-61" transform="translate(1304.3125 0)"/>
     <use xlink:href="#ArialMT-72" transform="translate(1359.927734 0)"/>
     <use xlink:href="#ArialMT-67" transform="translate(1393.228516 0)"/>
     <use xlink:href="#ArialMT-65" transform="translate(1448.84375 0)"/>
     <use xlink:href="#ArialMT-74" transform="translate(1504.458984 0)"/>
    </g>
   </g>
  </g>
 </g>
 <defs>
  <clipPath id="pbd369e4c89">
   <rect x="60.126" y="40.416" width="632.791651" height="605.450348"/>
  </clipPath>
 </defs>
</svg>
